G04 (created by PCBNEW (2013-07-07 BZR 4022)-stable) date 2015/10/29 19:57:24*
%MOIN*%
G04 Gerber Fmt 3.4, Leading zero omitted, Abs format*
%FSLAX34Y34*%
G01*
G70*
G90*
G04 APERTURE LIST*
%ADD10C,0.00590551*%
%ADD11R,0.23622X0.0787402*%
%ADD12R,0.06X0.06*%
%ADD13C,0.06*%
%ADD14R,0.0708661X0.0299213*%
%ADD15R,0.0393701X0.045*%
%ADD16R,0.0787402X0.0354331*%
%ADD17R,0.0472441X0.0275591*%
%ADD18C,0.177165*%
%ADD19C,0.035*%
%ADD20C,0.01*%
%ADD21C,0.02*%
G04 APERTURE END LIST*
G54D10*
G54D11*
X21377Y-13700D03*
X25314Y-13700D03*
G54D10*
G36*
X20301Y-19255D02*
X20426Y-19130D01*
X20983Y-19687D01*
X20858Y-19812D01*
X20301Y-19255D01*
X20301Y-19255D01*
G37*
G36*
X20524Y-19033D02*
X20649Y-18907D01*
X21205Y-19464D01*
X21080Y-19589D01*
X20524Y-19033D01*
X20524Y-19033D01*
G37*
G36*
X20747Y-18810D02*
X20872Y-18685D01*
X21428Y-19241D01*
X21303Y-19366D01*
X20747Y-18810D01*
X20747Y-18810D01*
G37*
G36*
X20969Y-18587D02*
X21094Y-18462D01*
X21651Y-19019D01*
X21526Y-19144D01*
X20969Y-18587D01*
X20969Y-18587D01*
G37*
G36*
X21192Y-18364D02*
X21317Y-18239D01*
X21874Y-18796D01*
X21748Y-18921D01*
X21192Y-18364D01*
X21192Y-18364D01*
G37*
G36*
X21415Y-18142D02*
X21540Y-18017D01*
X22096Y-18573D01*
X21971Y-18698D01*
X21415Y-18142D01*
X21415Y-18142D01*
G37*
G36*
X21637Y-17919D02*
X21763Y-17794D01*
X22319Y-18350D01*
X22194Y-18475D01*
X21637Y-17919D01*
X21637Y-17919D01*
G37*
G36*
X21860Y-17696D02*
X21985Y-17571D01*
X22542Y-18128D01*
X22417Y-18253D01*
X21860Y-17696D01*
X21860Y-17696D01*
G37*
G36*
X24522Y-20361D02*
X24647Y-20235D01*
X25203Y-20792D01*
X25078Y-20917D01*
X24522Y-20361D01*
X24522Y-20361D01*
G37*
G36*
X22959Y-21923D02*
X23084Y-21798D01*
X23641Y-22355D01*
X23516Y-22480D01*
X22959Y-21923D01*
X22959Y-21923D01*
G37*
G36*
X23185Y-21697D02*
X23310Y-21572D01*
X23867Y-22128D01*
X23742Y-22254D01*
X23185Y-21697D01*
X23185Y-21697D01*
G37*
G36*
X23412Y-21471D02*
X23537Y-21346D01*
X24093Y-21902D01*
X23968Y-22027D01*
X23412Y-21471D01*
X23412Y-21471D01*
G37*
G36*
X23631Y-21252D02*
X23756Y-21126D01*
X24312Y-21683D01*
X24187Y-21808D01*
X23631Y-21252D01*
X23631Y-21252D01*
G37*
G36*
X23857Y-21025D02*
X23982Y-20900D01*
X24539Y-21457D01*
X24414Y-21582D01*
X23857Y-21025D01*
X23857Y-21025D01*
G37*
G36*
X24076Y-20806D02*
X24201Y-20681D01*
X24758Y-21237D01*
X24633Y-21363D01*
X24076Y-20806D01*
X24076Y-20806D01*
G37*
G36*
X24303Y-20580D02*
X24428Y-20455D01*
X24984Y-21011D01*
X24859Y-21136D01*
X24303Y-20580D01*
X24303Y-20580D01*
G37*
G36*
X22972Y-18125D02*
X23528Y-17568D01*
X23653Y-17693D01*
X23097Y-18250D01*
X22972Y-18125D01*
X22972Y-18125D01*
G37*
G36*
X23194Y-18347D02*
X23750Y-17790D01*
X23875Y-17915D01*
X23319Y-18472D01*
X23194Y-18347D01*
X23194Y-18347D01*
G37*
G36*
X23417Y-18570D02*
X23974Y-18014D01*
X24099Y-18139D01*
X23542Y-18695D01*
X23417Y-18570D01*
X23417Y-18570D01*
G37*
G36*
X23639Y-18792D02*
X24196Y-18236D01*
X24321Y-18361D01*
X23764Y-18917D01*
X23639Y-18792D01*
X23639Y-18792D01*
G37*
G36*
X23863Y-19016D02*
X24419Y-18459D01*
X24544Y-18584D01*
X23988Y-19141D01*
X23863Y-19016D01*
X23863Y-19016D01*
G37*
G36*
X24085Y-19238D02*
X24641Y-18681D01*
X24766Y-18806D01*
X24210Y-19363D01*
X24085Y-19238D01*
X24085Y-19238D01*
G37*
G36*
X24308Y-19461D02*
X24865Y-18905D01*
X24990Y-19030D01*
X24433Y-19586D01*
X24308Y-19461D01*
X24308Y-19461D01*
G37*
G36*
X24530Y-19683D02*
X25087Y-19127D01*
X25212Y-19252D01*
X24655Y-19808D01*
X24530Y-19683D01*
X24530Y-19683D01*
G37*
G36*
X20300Y-20799D02*
X20857Y-20243D01*
X20982Y-20368D01*
X20425Y-20924D01*
X20300Y-20799D01*
X20300Y-20799D01*
G37*
G36*
X20520Y-21018D02*
X21076Y-20462D01*
X21201Y-20587D01*
X20645Y-21143D01*
X20520Y-21018D01*
X20520Y-21018D01*
G37*
G36*
X20746Y-21244D02*
X21302Y-20688D01*
X21427Y-20813D01*
X20871Y-21370D01*
X20746Y-21244D01*
X20746Y-21244D01*
G37*
G36*
X20965Y-21464D02*
X21522Y-20907D01*
X21647Y-21032D01*
X21090Y-21589D01*
X20965Y-21464D01*
X20965Y-21464D01*
G37*
G36*
X21184Y-21683D02*
X21741Y-21126D01*
X21866Y-21252D01*
X21309Y-21808D01*
X21184Y-21683D01*
X21184Y-21683D01*
G37*
G36*
X21410Y-21909D02*
X21967Y-21353D01*
X22092Y-21478D01*
X21536Y-22034D01*
X21410Y-21909D01*
X21410Y-21909D01*
G37*
G36*
X21637Y-22135D02*
X22193Y-21579D01*
X22318Y-21704D01*
X21762Y-22261D01*
X21637Y-22135D01*
X21637Y-22135D01*
G37*
G36*
X21863Y-22362D02*
X22420Y-21805D01*
X22545Y-21930D01*
X21988Y-22487D01*
X21863Y-22362D01*
X21863Y-22362D01*
G37*
G54D12*
X31000Y-27000D03*
G54D13*
X31000Y-26000D03*
X31000Y-25000D03*
X31000Y-24000D03*
X31000Y-23000D03*
X31000Y-22000D03*
X31000Y-21000D03*
X31000Y-20000D03*
X31000Y-19000D03*
X31000Y-18000D03*
X31000Y-17000D03*
X31000Y-16000D03*
X31000Y-15000D03*
X31000Y-14000D03*
X31000Y-13000D03*
G54D12*
X18000Y-13000D03*
G54D13*
X18000Y-14000D03*
X18000Y-15000D03*
X18000Y-16000D03*
X18000Y-17000D03*
X18000Y-18000D03*
X18000Y-19000D03*
X18000Y-20000D03*
X18000Y-21000D03*
X18000Y-22000D03*
X18000Y-23000D03*
X18000Y-24000D03*
X18000Y-25000D03*
X18000Y-26000D03*
X18000Y-27000D03*
G54D14*
X26059Y-20944D03*
X26059Y-21444D03*
X26059Y-21944D03*
X26059Y-22444D03*
X29059Y-20944D03*
X29059Y-21444D03*
X29059Y-21944D03*
X29059Y-22444D03*
G54D15*
X27992Y-13937D03*
X27165Y-13937D03*
X22598Y-15551D03*
X21771Y-15551D03*
X24055Y-15551D03*
X24881Y-15551D03*
X27992Y-12992D03*
X27165Y-12992D03*
G54D16*
X21062Y-23976D03*
X21062Y-24566D03*
X21062Y-25157D03*
X21062Y-25748D03*
X21062Y-26338D03*
X21062Y-26929D03*
X21062Y-27519D03*
X21062Y-28110D03*
X21062Y-28700D03*
X28149Y-28700D03*
X28149Y-28110D03*
X28149Y-27519D03*
X28149Y-26929D03*
X28149Y-26338D03*
X28149Y-25748D03*
X28149Y-25157D03*
X28149Y-24566D03*
X28149Y-23976D03*
G54D17*
X26574Y-15944D03*
X28622Y-15944D03*
X26574Y-17047D03*
X28622Y-17047D03*
X28622Y-19370D03*
X26574Y-19370D03*
X28622Y-18267D03*
X26574Y-18267D03*
G54D18*
X30314Y-29921D03*
X18897Y-29921D03*
G54D19*
X23976Y-28818D03*
X25275Y-28976D03*
X22480Y-28818D03*
X30511Y-23543D03*
X29409Y-23425D03*
X30039Y-27992D03*
X27519Y-28582D03*
X24763Y-24527D03*
X24763Y-25551D03*
X25078Y-26456D03*
X26535Y-28228D03*
X23543Y-27559D03*
X22952Y-22440D03*
X22165Y-22913D03*
X23070Y-21417D03*
X23543Y-23188D03*
X23858Y-20039D03*
X22637Y-19881D03*
X27716Y-15433D03*
X30354Y-15669D03*
X24645Y-16968D03*
X25708Y-16299D03*
X21417Y-19645D03*
X21968Y-19015D03*
X29330Y-18858D03*
X24370Y-22401D03*
X29921Y-17559D03*
X24842Y-21771D03*
X22322Y-24566D03*
X21732Y-24566D03*
X19763Y-13464D03*
X19763Y-16181D03*
X24685Y-27637D03*
X28937Y-29133D03*
X24409Y-26102D03*
X29921Y-25472D03*
X29409Y-14685D03*
X29409Y-16456D03*
X19173Y-24370D03*
X24881Y-28661D03*
X23425Y-28228D03*
X31417Y-31062D03*
X30708Y-31062D03*
X29803Y-31062D03*
X17952Y-30984D03*
X19133Y-30984D03*
X31338Y-12322D03*
X29921Y-12283D03*
X28622Y-12283D03*
X26496Y-12283D03*
X25196Y-12244D03*
X23385Y-12165D03*
X23385Y-13897D03*
X18149Y-12244D03*
X20590Y-12244D03*
X22086Y-12244D03*
X28976Y-31062D03*
X27795Y-31023D03*
X26614Y-31023D03*
X25433Y-30984D03*
X24370Y-30984D03*
X23307Y-30984D03*
X22204Y-30984D03*
X21220Y-30984D03*
X20314Y-30984D03*
X20078Y-27047D03*
X28976Y-24370D03*
X29212Y-21181D03*
X26496Y-26338D03*
X25826Y-26338D03*
X24606Y-26811D03*
X25984Y-15118D03*
X20866Y-15669D03*
X29094Y-27874D03*
X27519Y-16496D03*
X25826Y-17677D03*
X19921Y-19763D03*
X23425Y-25511D03*
X22244Y-27244D03*
X24685Y-23779D03*
X24330Y-24842D03*
X22086Y-20944D03*
X23346Y-18976D03*
X22047Y-26811D03*
X22755Y-22913D03*
X27007Y-19212D03*
X28503Y-13937D03*
X28464Y-12992D03*
X26692Y-24448D03*
X27125Y-21417D03*
X26141Y-25984D03*
X27125Y-21929D03*
X27047Y-26220D03*
X27125Y-22637D03*
X20551Y-18582D03*
X23700Y-15944D03*
X22913Y-15944D03*
X19881Y-19094D03*
X26535Y-23976D03*
X27125Y-20787D03*
G54D20*
X23976Y-28818D02*
X22480Y-28818D01*
X26377Y-28700D02*
X26102Y-28976D01*
X26535Y-28228D02*
X26535Y-28543D01*
X26535Y-28543D02*
X26377Y-28700D01*
X26102Y-28976D02*
X25275Y-28976D01*
X29409Y-23425D02*
X30118Y-23425D01*
X30393Y-23425D02*
X30118Y-23425D01*
X30511Y-23543D02*
X30393Y-23425D01*
G54D21*
X28149Y-28700D02*
X29330Y-28700D01*
X29330Y-28700D02*
X30039Y-27992D01*
X27637Y-28700D02*
X28149Y-28700D01*
X27519Y-28582D02*
X27637Y-28700D01*
X24763Y-24527D02*
X24763Y-25551D01*
X25078Y-26456D02*
X25078Y-28070D01*
X25078Y-28070D02*
X25236Y-28228D01*
X25236Y-28228D02*
X26535Y-28228D01*
X23897Y-26181D02*
X23543Y-26535D01*
X23543Y-26535D02*
X23543Y-27559D01*
G54D20*
X22637Y-22440D02*
X22952Y-22440D01*
X22165Y-22913D02*
X22637Y-22440D01*
X23526Y-21913D02*
X23526Y-21873D01*
X23526Y-21873D02*
X23070Y-21417D01*
G54D21*
X23897Y-23622D02*
X23543Y-23267D01*
X23897Y-26181D02*
X23897Y-23622D01*
X23543Y-23267D02*
X23543Y-23188D01*
X23858Y-20039D02*
X23110Y-20039D01*
X22952Y-19881D02*
X22637Y-19881D01*
X23110Y-20039D02*
X22952Y-19881D01*
X29015Y-15433D02*
X27716Y-15433D01*
X29488Y-15905D02*
X30118Y-15905D01*
X30354Y-15669D02*
X30118Y-15905D01*
X29488Y-15905D02*
X29015Y-15433D01*
X25314Y-16299D02*
X24645Y-16968D01*
X25708Y-16299D02*
X25314Y-16299D01*
G54D20*
X21087Y-19026D02*
X21417Y-19355D01*
X21417Y-19355D02*
X21417Y-19645D01*
X21112Y-19026D02*
X21087Y-19026D01*
X21533Y-18580D02*
X21533Y-18580D01*
X21968Y-19015D02*
X21533Y-18580D01*
X31000Y-24000D02*
X29511Y-24000D01*
X25196Y-21348D02*
X24643Y-20795D01*
X25196Y-23070D02*
X25196Y-21348D01*
X25433Y-23307D02*
X25196Y-23070D01*
X28818Y-23307D02*
X25433Y-23307D01*
X29511Y-24000D02*
X28818Y-23307D01*
X25551Y-23070D02*
X30929Y-23070D01*
X25551Y-23070D02*
X25433Y-22952D01*
X25433Y-22952D02*
X25433Y-21146D01*
X24863Y-20576D02*
X25433Y-21146D01*
X30929Y-23070D02*
X31000Y-23000D01*
X24871Y-19468D02*
X25797Y-20393D01*
X30661Y-22000D02*
X31000Y-22000D01*
X30433Y-21771D02*
X30661Y-22000D01*
X30433Y-21299D02*
X30433Y-21771D01*
X29527Y-20393D02*
X30433Y-21299D01*
X25797Y-20393D02*
X29527Y-20393D01*
X24649Y-19245D02*
X25273Y-18622D01*
X30763Y-21000D02*
X31000Y-21000D01*
X29881Y-20118D02*
X30763Y-21000D01*
X26023Y-20118D02*
X29881Y-20118D01*
X25787Y-19881D02*
X26023Y-20118D01*
X25787Y-18937D02*
X25787Y-19881D01*
X25472Y-18622D02*
X25787Y-18937D01*
X25273Y-18622D02*
X25472Y-18622D01*
X26102Y-19881D02*
X30881Y-19881D01*
X31000Y-20000D02*
X30881Y-19881D01*
X25102Y-18346D02*
X24426Y-19022D01*
X26023Y-19803D02*
X26102Y-19881D01*
X26023Y-18818D02*
X26023Y-19803D01*
X25551Y-18346D02*
X26023Y-18818D01*
X25102Y-18346D02*
X25551Y-18346D01*
X31000Y-19000D02*
X30803Y-19000D01*
X26377Y-18858D02*
X25551Y-18031D01*
X25551Y-18031D02*
X24973Y-18031D01*
X24973Y-18031D02*
X24204Y-18800D01*
X28818Y-18858D02*
X26377Y-18858D01*
X29251Y-19291D02*
X28818Y-18858D01*
X30511Y-19291D02*
X29251Y-19291D01*
X30803Y-19000D02*
X30511Y-19291D01*
X29330Y-18858D02*
X29409Y-18858D01*
X29409Y-18858D02*
X29881Y-18385D01*
X29881Y-18385D02*
X30196Y-18385D01*
X30196Y-18385D02*
X30582Y-18000D01*
X31000Y-18000D02*
X30582Y-18000D01*
X24370Y-22304D02*
X23752Y-21686D01*
X24370Y-22304D02*
X24370Y-22401D01*
X31000Y-17000D02*
X30283Y-17000D01*
X29921Y-17362D02*
X30283Y-17000D01*
X29921Y-17559D02*
X29921Y-17362D01*
X24842Y-21447D02*
X24842Y-21771D01*
X24842Y-21447D02*
X24417Y-21022D01*
X28740Y-23543D02*
X25314Y-23543D01*
X30196Y-25000D02*
X28740Y-23543D01*
X31000Y-25000D02*
X30196Y-25000D01*
X24960Y-22456D02*
X23972Y-21467D01*
X24960Y-23188D02*
X24960Y-22456D01*
X25314Y-23543D02*
X24960Y-23188D01*
X21732Y-25157D02*
X21062Y-25157D01*
X22322Y-24566D02*
X21732Y-25157D01*
X21732Y-24566D02*
X21062Y-24566D01*
X23758Y-18355D02*
X24212Y-17901D01*
X18842Y-14000D02*
X18000Y-14000D01*
X19212Y-14370D02*
X18842Y-14000D01*
X19212Y-15354D02*
X19212Y-14370D01*
X19527Y-15669D02*
X19212Y-15354D01*
X20000Y-15669D02*
X19527Y-15669D01*
X20787Y-16456D02*
X20000Y-15669D01*
X23346Y-16456D02*
X20787Y-16456D01*
X24212Y-17322D02*
X23346Y-16456D01*
X24212Y-17901D02*
X24212Y-17322D01*
X23535Y-18131D02*
X23976Y-17690D01*
X19299Y-13000D02*
X18000Y-13000D01*
X19763Y-13464D02*
X19299Y-13000D01*
X20314Y-16732D02*
X19763Y-16181D01*
X23149Y-16732D02*
X20314Y-16732D01*
X23976Y-17559D02*
X23149Y-16732D01*
X23976Y-17690D02*
X23976Y-17559D01*
X21751Y-21694D02*
X20414Y-23031D01*
X19015Y-25000D02*
X18000Y-25000D01*
X19685Y-24330D02*
X19015Y-25000D01*
X19685Y-23622D02*
X19685Y-24330D01*
X20275Y-23031D02*
X19685Y-23622D01*
X20414Y-23031D02*
X20275Y-23031D01*
X21978Y-21920D02*
X20630Y-23267D01*
X19354Y-26000D02*
X18000Y-26000D01*
X19921Y-25433D02*
X19354Y-26000D01*
X19921Y-23700D02*
X19921Y-25433D01*
X20354Y-23267D02*
X19921Y-23700D01*
X20630Y-23267D02*
X20354Y-23267D01*
X22204Y-22146D02*
X20846Y-23503D01*
X19614Y-27000D02*
X18000Y-27000D01*
X20157Y-26456D02*
X19614Y-27000D01*
X20157Y-23858D02*
X20157Y-26456D01*
X20511Y-23503D02*
X20157Y-23858D01*
X20846Y-23503D02*
X20511Y-23503D01*
X25196Y-29527D02*
X24921Y-29527D01*
X25433Y-23976D02*
X24724Y-23267D01*
X28937Y-29133D02*
X28543Y-29527D01*
X28543Y-29527D02*
X25196Y-29527D01*
X25000Y-26102D02*
X25433Y-25669D01*
X24409Y-26102D02*
X25000Y-26102D01*
X23916Y-22755D02*
X23300Y-22139D01*
X24724Y-22913D02*
X24724Y-23267D01*
X24566Y-22755D02*
X24724Y-22913D01*
X23916Y-22755D02*
X24566Y-22755D01*
X25433Y-25669D02*
X25433Y-23976D01*
X24685Y-28070D02*
X24685Y-27637D01*
X24527Y-28228D02*
X24685Y-28070D01*
X24527Y-29133D02*
X24527Y-28228D01*
X24921Y-29527D02*
X24527Y-29133D01*
X29921Y-25921D02*
X29921Y-25472D01*
X31000Y-27000D02*
X29921Y-25921D01*
X23313Y-17909D02*
X22403Y-17000D01*
X22403Y-17000D02*
X18000Y-17000D01*
X22201Y-17912D02*
X21690Y-17401D01*
X19716Y-18000D02*
X18000Y-18000D01*
X20314Y-17401D02*
X19716Y-18000D01*
X21690Y-17401D02*
X20314Y-17401D01*
X21978Y-18135D02*
X21560Y-17716D01*
X19385Y-19000D02*
X18000Y-19000D01*
X20669Y-17716D02*
X19385Y-19000D01*
X21560Y-17716D02*
X20669Y-17716D01*
X20641Y-20583D02*
X20201Y-21023D01*
X18858Y-20000D02*
X18000Y-20000D01*
X19881Y-21023D02*
X18858Y-20000D01*
X20201Y-21023D02*
X19881Y-21023D01*
X20860Y-20803D02*
X20285Y-21377D01*
X19228Y-21000D02*
X18000Y-21000D01*
X19606Y-21377D02*
X19228Y-21000D01*
X20285Y-21377D02*
X19606Y-21377D01*
X21087Y-21029D02*
X20116Y-22000D01*
X20116Y-22000D02*
X18000Y-22000D01*
X21306Y-21248D02*
X19554Y-23000D01*
X19554Y-23000D02*
X18000Y-23000D01*
X21525Y-21467D02*
X20158Y-22834D01*
X19385Y-24000D02*
X18000Y-24000D01*
X19448Y-23937D02*
X19385Y-24000D01*
X19448Y-23543D02*
X19448Y-23937D01*
X20157Y-22834D02*
X19448Y-23543D01*
X20158Y-22834D02*
X20157Y-22834D01*
X31000Y-15000D02*
X29724Y-15000D01*
X29724Y-15000D02*
X29409Y-14685D01*
X30842Y-14842D02*
X31000Y-15000D01*
X28818Y-17047D02*
X29409Y-16456D01*
X28622Y-17047D02*
X28818Y-17047D01*
X26574Y-17047D02*
X28622Y-17047D01*
X23980Y-18577D02*
X25510Y-17047D01*
X25510Y-17047D02*
X26574Y-17047D01*
X18267Y-25511D02*
X17677Y-25511D01*
X19015Y-24527D02*
X19173Y-24370D01*
X17677Y-24527D02*
X19015Y-24527D01*
X17519Y-24685D02*
X17677Y-24527D01*
X17519Y-25354D02*
X17519Y-24685D01*
X17677Y-25511D02*
X17519Y-25354D01*
X23425Y-25511D02*
X22795Y-26141D01*
X22795Y-26141D02*
X22795Y-27401D01*
X22795Y-27401D02*
X23110Y-27716D01*
X23425Y-28031D02*
X23110Y-27716D01*
X23425Y-28031D02*
X23425Y-28228D01*
X29803Y-31062D02*
X30708Y-31062D01*
X19133Y-30984D02*
X17952Y-30984D01*
X23385Y-12165D02*
X23464Y-12244D01*
X31299Y-12283D02*
X31338Y-12322D01*
X29921Y-12283D02*
X31299Y-12283D01*
X26496Y-12283D02*
X28622Y-12283D01*
X23464Y-12244D02*
X25196Y-12244D01*
X23385Y-13897D02*
X23385Y-12165D01*
X18149Y-12244D02*
X18110Y-12244D01*
X22086Y-12244D02*
X20590Y-12244D01*
X29173Y-31062D02*
X30314Y-29921D01*
X28976Y-31062D02*
X29173Y-31062D01*
X26614Y-31023D02*
X27795Y-31023D01*
X24370Y-30984D02*
X25433Y-30984D01*
X22204Y-30984D02*
X23307Y-30984D01*
X20314Y-30984D02*
X21220Y-30984D01*
X20078Y-27047D02*
X20000Y-27047D01*
X19094Y-25511D02*
X19566Y-25039D01*
X17755Y-25511D02*
X18267Y-25511D01*
X18267Y-25511D02*
X19094Y-25511D01*
X17519Y-25748D02*
X17755Y-25511D01*
X17519Y-27244D02*
X17519Y-25748D01*
X17795Y-27519D02*
X17519Y-27244D01*
X19527Y-27519D02*
X17795Y-27519D01*
X20000Y-27047D02*
X19527Y-27519D01*
X21062Y-25748D02*
X20511Y-25748D01*
X20393Y-26732D02*
X20078Y-27047D01*
X20393Y-25866D02*
X20393Y-26732D01*
X20511Y-25748D02*
X20393Y-25866D01*
X28582Y-23976D02*
X28149Y-23976D01*
X28976Y-24370D02*
X28582Y-23976D01*
X29212Y-21181D02*
X29059Y-21181D01*
X24330Y-24133D02*
X24330Y-23661D01*
X23700Y-22834D02*
X23267Y-22834D01*
X23267Y-22834D02*
X23110Y-22992D01*
X23110Y-22992D02*
X23110Y-23543D01*
X23110Y-23543D02*
X23425Y-23858D01*
X23425Y-23858D02*
X23425Y-25511D01*
X23976Y-23110D02*
X23700Y-22834D01*
X23976Y-23307D02*
X23976Y-23110D01*
X24330Y-23661D02*
X23976Y-23307D01*
X26496Y-26338D02*
X25826Y-26338D01*
X24606Y-26811D02*
X24330Y-27086D01*
X24330Y-27086D02*
X24330Y-27322D01*
X24330Y-27322D02*
X23425Y-28228D01*
X25984Y-15196D02*
X25629Y-15551D01*
X25984Y-15118D02*
X25984Y-15196D01*
X21771Y-15551D02*
X20984Y-15551D01*
X20984Y-15551D02*
X20866Y-15669D01*
X24881Y-15551D02*
X25629Y-15551D01*
X26023Y-15944D02*
X26574Y-15944D01*
X25629Y-15551D02*
X26023Y-15944D01*
X18897Y-29921D02*
X20118Y-28700D01*
X20118Y-28700D02*
X21062Y-28700D01*
X27519Y-16496D02*
X28070Y-15944D01*
X26574Y-18267D02*
X26417Y-18267D01*
X26417Y-18267D02*
X25826Y-17677D01*
X28622Y-18267D02*
X26574Y-18267D01*
X28622Y-15944D02*
X28070Y-15944D01*
X28070Y-15944D02*
X26574Y-15944D01*
X27165Y-13937D02*
X27165Y-15039D01*
X26574Y-15629D02*
X26574Y-15944D01*
X27165Y-15039D02*
X26574Y-15629D01*
X21456Y-20118D02*
X21102Y-20118D01*
X21023Y-20039D02*
X21102Y-20118D01*
X20669Y-20039D02*
X21023Y-20039D01*
X20314Y-20393D02*
X20669Y-20039D01*
X20118Y-20393D02*
X20314Y-20393D01*
X19921Y-20196D02*
X20118Y-20393D01*
X19921Y-20196D02*
X19921Y-19763D01*
X22440Y-27677D02*
X22244Y-27874D01*
X22007Y-28700D02*
X21062Y-28700D01*
X22244Y-28464D02*
X22007Y-28700D01*
X22244Y-27874D02*
X22244Y-28464D01*
X22440Y-27677D02*
X23070Y-27677D01*
X22244Y-27480D02*
X22440Y-27677D01*
X22244Y-27244D02*
X22244Y-27480D01*
X24685Y-23779D02*
X24330Y-24133D01*
X24330Y-24133D02*
X24330Y-24842D01*
X31000Y-14000D02*
X30653Y-14000D01*
X27637Y-13464D02*
X27165Y-13937D01*
X30118Y-13464D02*
X27637Y-13464D01*
X30653Y-14000D02*
X30118Y-13464D01*
X27165Y-12992D02*
X27165Y-13937D01*
X29059Y-20944D02*
X29059Y-21181D01*
X29059Y-21181D02*
X29059Y-21444D01*
X29059Y-21444D02*
X29059Y-21944D01*
X29059Y-22444D02*
X29059Y-21944D01*
X21310Y-18803D02*
X21310Y-18830D01*
X21456Y-20314D02*
X21456Y-20118D01*
X21456Y-20118D02*
X21929Y-19645D01*
X21929Y-19645D02*
X21929Y-19448D01*
X21456Y-20314D02*
X22086Y-20944D01*
X21310Y-18830D02*
X21929Y-19448D01*
X23899Y-20942D02*
X22954Y-20942D01*
X22362Y-21220D02*
X22086Y-20944D01*
X22677Y-21220D02*
X22362Y-21220D01*
X22954Y-20942D02*
X22677Y-21220D01*
X21756Y-18357D02*
X22098Y-18700D01*
X22795Y-18425D02*
X23346Y-18976D01*
X22598Y-18425D02*
X22795Y-18425D01*
X22322Y-18700D02*
X22598Y-18425D01*
X22098Y-18700D02*
X22322Y-18700D01*
X24198Y-21241D02*
X23899Y-20942D01*
X23899Y-20942D02*
X23897Y-20940D01*
X24330Y-19960D02*
X23346Y-18976D01*
X24330Y-20078D02*
X24330Y-19960D01*
X23897Y-20511D02*
X24330Y-20078D01*
X23897Y-20940D02*
X23897Y-20511D01*
X21614Y-26929D02*
X21732Y-26811D01*
X21732Y-26811D02*
X22047Y-26811D01*
X21062Y-26929D02*
X21614Y-26929D01*
X22755Y-23661D02*
X22755Y-22913D01*
X23031Y-23937D02*
X22755Y-23661D01*
X23031Y-25275D02*
X23031Y-23937D01*
X22086Y-26220D02*
X23031Y-25275D01*
X22086Y-26456D02*
X22086Y-26220D01*
X21614Y-26929D02*
X22086Y-26456D01*
X26850Y-19370D02*
X26574Y-19370D01*
X27007Y-19212D02*
X26850Y-19370D01*
X28622Y-19370D02*
X26574Y-19370D01*
X28503Y-13937D02*
X27992Y-13937D01*
X28464Y-12992D02*
X27992Y-12992D01*
X27204Y-25157D02*
X28149Y-25157D01*
X27086Y-25039D02*
X27204Y-25157D01*
X27086Y-24606D02*
X27086Y-25039D01*
X26929Y-24448D02*
X27086Y-24606D01*
X26692Y-24448D02*
X26929Y-24448D01*
X26059Y-21444D02*
X27098Y-21444D01*
X27098Y-21444D02*
X27125Y-21417D01*
X26692Y-25866D02*
X26574Y-25984D01*
X26692Y-25866D02*
X26811Y-25748D01*
X28149Y-25748D02*
X26811Y-25748D01*
X26574Y-25984D02*
X26141Y-25984D01*
X26059Y-21944D02*
X27110Y-21944D01*
X27110Y-21944D02*
X27125Y-21929D01*
X27362Y-27637D02*
X27834Y-28110D01*
X28149Y-28110D02*
X27834Y-28110D01*
X27362Y-27322D02*
X27362Y-27637D01*
X27047Y-27007D02*
X27362Y-27322D01*
X27047Y-26220D02*
X27047Y-27007D01*
X26059Y-22444D02*
X26933Y-22444D01*
X26933Y-22444D02*
X27125Y-22637D01*
X20865Y-19248D02*
X20551Y-18934D01*
X20551Y-18934D02*
X20551Y-18582D01*
X24055Y-15551D02*
X24055Y-14960D01*
X24055Y-14960D02*
X25314Y-13700D01*
X24055Y-15590D02*
X24055Y-15551D01*
X23700Y-15944D02*
X24055Y-15590D01*
X20642Y-19471D02*
X20265Y-19094D01*
X22913Y-15944D02*
X22598Y-15629D01*
X22598Y-15629D02*
X22598Y-15551D01*
X20265Y-19094D02*
X19881Y-19094D01*
X22598Y-15551D02*
X22598Y-15000D01*
X21377Y-13779D02*
X21377Y-13700D01*
X22598Y-15000D02*
X21377Y-13779D01*
X27480Y-24566D02*
X28149Y-24566D01*
X26889Y-23976D02*
X27480Y-24566D01*
X26535Y-23976D02*
X26889Y-23976D01*
X26059Y-20944D02*
X26968Y-20944D01*
X26968Y-20944D02*
X27125Y-20787D01*
G54D10*
G36*
X21386Y-18797D02*
X21377Y-18807D01*
X21382Y-18812D01*
X21320Y-18875D01*
X21314Y-18869D01*
X21305Y-18879D01*
X21234Y-18808D01*
X21243Y-18799D01*
X20868Y-18423D01*
X20837Y-18423D01*
X20826Y-18398D01*
X20815Y-18387D01*
X20780Y-18423D01*
X20780Y-18423D01*
X20815Y-18387D01*
X20735Y-18307D01*
X20616Y-18257D01*
X20486Y-18257D01*
X20367Y-18306D01*
X20275Y-18398D01*
X20226Y-18517D01*
X20226Y-18647D01*
X20275Y-18766D01*
X20351Y-18842D01*
X20351Y-18915D01*
X20341Y-18909D01*
X20265Y-18894D01*
X20141Y-18894D01*
X20066Y-18819D01*
X19946Y-18769D01*
X19899Y-18769D01*
X20752Y-17916D01*
X21287Y-17916D01*
X21265Y-17938D01*
X21305Y-17978D01*
X21225Y-17978D01*
X21203Y-18000D01*
X21165Y-18092D01*
X21165Y-18180D01*
X21132Y-18212D01*
X21045Y-18212D01*
X20953Y-18250D01*
X20931Y-18272D01*
X20931Y-18361D01*
X21306Y-18736D01*
X21316Y-18727D01*
X21386Y-18797D01*
X21386Y-18797D01*
G37*
G54D20*
X21386Y-18797D02*
X21377Y-18807D01*
X21382Y-18812D01*
X21320Y-18875D01*
X21314Y-18869D01*
X21305Y-18879D01*
X21234Y-18808D01*
X21243Y-18799D01*
X20868Y-18423D01*
X20837Y-18423D01*
X20826Y-18398D01*
X20815Y-18387D01*
X20780Y-18423D01*
X20780Y-18423D01*
X20815Y-18387D01*
X20735Y-18307D01*
X20616Y-18257D01*
X20486Y-18257D01*
X20367Y-18306D01*
X20275Y-18398D01*
X20226Y-18517D01*
X20226Y-18647D01*
X20275Y-18766D01*
X20351Y-18842D01*
X20351Y-18915D01*
X20341Y-18909D01*
X20265Y-18894D01*
X20141Y-18894D01*
X20066Y-18819D01*
X19946Y-18769D01*
X19899Y-18769D01*
X20752Y-17916D01*
X21287Y-17916D01*
X21265Y-17938D01*
X21305Y-17978D01*
X21225Y-17978D01*
X21203Y-18000D01*
X21165Y-18092D01*
X21165Y-18180D01*
X21132Y-18212D01*
X21045Y-18212D01*
X20953Y-18250D01*
X20931Y-18272D01*
X20931Y-18361D01*
X21306Y-18736D01*
X21316Y-18727D01*
X21386Y-18797D01*
G54D10*
G36*
X21832Y-18352D02*
X21822Y-18361D01*
X21828Y-18367D01*
X21765Y-18430D01*
X21760Y-18424D01*
X21750Y-18434D01*
X21679Y-18363D01*
X21689Y-18353D01*
X21683Y-18348D01*
X21746Y-18285D01*
X21751Y-18291D01*
X21761Y-18281D01*
X21832Y-18352D01*
X21832Y-18352D01*
G37*
G54D20*
X21832Y-18352D02*
X21822Y-18361D01*
X21828Y-18367D01*
X21765Y-18430D01*
X21760Y-18424D01*
X21750Y-18434D01*
X21679Y-18363D01*
X21689Y-18353D01*
X21683Y-18348D01*
X21746Y-18285D01*
X21751Y-18291D01*
X21761Y-18281D01*
X21832Y-18352D01*
G54D10*
G36*
X28645Y-28987D02*
X28612Y-29068D01*
X28611Y-29176D01*
X28460Y-29327D01*
X25196Y-29327D01*
X25004Y-29327D01*
X24727Y-29051D01*
X24727Y-28311D01*
X24826Y-28212D01*
X24826Y-28212D01*
X24852Y-28173D01*
X24901Y-28247D01*
X25059Y-28405D01*
X25140Y-28459D01*
X25140Y-28459D01*
X25236Y-28478D01*
X26317Y-28478D01*
X26236Y-28559D01*
X26236Y-28559D01*
X26019Y-28776D01*
X25535Y-28776D01*
X25459Y-28701D01*
X25340Y-28651D01*
X25211Y-28651D01*
X25091Y-28700D01*
X25000Y-28792D01*
X24950Y-28911D01*
X24950Y-29040D01*
X24999Y-29160D01*
X25091Y-29251D01*
X25210Y-29301D01*
X25339Y-29301D01*
X25459Y-29252D01*
X25535Y-29176D01*
X26102Y-29176D01*
X26178Y-29161D01*
X26243Y-29117D01*
X26519Y-28842D01*
X26519Y-28842D01*
X26519Y-28842D01*
X26676Y-28684D01*
X26676Y-28684D01*
X26720Y-28619D01*
X26720Y-28619D01*
X26722Y-28607D01*
X26735Y-28543D01*
X26735Y-28543D01*
X26735Y-28487D01*
X26810Y-28412D01*
X26860Y-28293D01*
X26860Y-28163D01*
X26811Y-28044D01*
X26719Y-27952D01*
X26600Y-27903D01*
X26471Y-27903D01*
X26351Y-27952D01*
X26325Y-27978D01*
X25339Y-27978D01*
X25328Y-27967D01*
X25328Y-26666D01*
X25354Y-26641D01*
X25403Y-26521D01*
X25403Y-26392D01*
X25354Y-26272D01*
X25263Y-26181D01*
X25221Y-26163D01*
X25574Y-25810D01*
X25574Y-25810D01*
X25603Y-25767D01*
X25617Y-25745D01*
X25617Y-25745D01*
X25633Y-25669D01*
X25633Y-25669D01*
X25633Y-23976D01*
X25620Y-23912D01*
X25617Y-23899D01*
X25617Y-23899D01*
X25574Y-23834D01*
X25574Y-23834D01*
X25482Y-23743D01*
X26308Y-23743D01*
X26260Y-23792D01*
X26210Y-23911D01*
X26210Y-24040D01*
X26259Y-24160D01*
X26351Y-24251D01*
X26412Y-24277D01*
X26367Y-24383D01*
X26367Y-24513D01*
X26417Y-24632D01*
X26508Y-24724D01*
X26627Y-24773D01*
X26757Y-24773D01*
X26876Y-24724D01*
X26886Y-24714D01*
X26886Y-25039D01*
X26901Y-25115D01*
X26945Y-25180D01*
X27063Y-25298D01*
X27128Y-25342D01*
X27128Y-25342D01*
X27204Y-25357D01*
X27605Y-25357D01*
X27605Y-25364D01*
X27628Y-25419D01*
X27661Y-25452D01*
X27628Y-25485D01*
X27605Y-25540D01*
X27605Y-25548D01*
X26811Y-25548D01*
X26734Y-25563D01*
X26669Y-25606D01*
X26551Y-25724D01*
X26491Y-25784D01*
X26401Y-25784D01*
X26326Y-25708D01*
X26206Y-25659D01*
X26077Y-25659D01*
X25957Y-25708D01*
X25866Y-25799D01*
X25816Y-25919D01*
X25816Y-26048D01*
X25866Y-26168D01*
X25957Y-26259D01*
X26076Y-26309D01*
X26206Y-26309D01*
X26325Y-26259D01*
X26401Y-26184D01*
X26574Y-26184D01*
X26651Y-26169D01*
X26716Y-26125D01*
X26747Y-26094D01*
X26722Y-26155D01*
X26722Y-26284D01*
X26771Y-26404D01*
X26847Y-26480D01*
X26847Y-27007D01*
X26862Y-27084D01*
X26905Y-27149D01*
X27162Y-27405D01*
X27162Y-27637D01*
X27177Y-27714D01*
X27220Y-27779D01*
X27605Y-28164D01*
X27605Y-28266D01*
X27584Y-28257D01*
X27455Y-28257D01*
X27335Y-28306D01*
X27244Y-28398D01*
X27194Y-28517D01*
X27194Y-28647D01*
X27244Y-28766D01*
X27335Y-28858D01*
X27454Y-28907D01*
X27506Y-28907D01*
X27542Y-28931D01*
X27622Y-28947D01*
X27628Y-28962D01*
X27670Y-29005D01*
X27725Y-29027D01*
X27785Y-29027D01*
X28573Y-29027D01*
X28628Y-29005D01*
X28645Y-28987D01*
X28645Y-28987D01*
G37*
G54D20*
X28645Y-28987D02*
X28612Y-29068D01*
X28611Y-29176D01*
X28460Y-29327D01*
X25196Y-29327D01*
X25004Y-29327D01*
X24727Y-29051D01*
X24727Y-28311D01*
X24826Y-28212D01*
X24826Y-28212D01*
X24852Y-28173D01*
X24901Y-28247D01*
X25059Y-28405D01*
X25140Y-28459D01*
X25140Y-28459D01*
X25236Y-28478D01*
X26317Y-28478D01*
X26236Y-28559D01*
X26236Y-28559D01*
X26019Y-28776D01*
X25535Y-28776D01*
X25459Y-28701D01*
X25340Y-28651D01*
X25211Y-28651D01*
X25091Y-28700D01*
X25000Y-28792D01*
X24950Y-28911D01*
X24950Y-29040D01*
X24999Y-29160D01*
X25091Y-29251D01*
X25210Y-29301D01*
X25339Y-29301D01*
X25459Y-29252D01*
X25535Y-29176D01*
X26102Y-29176D01*
X26178Y-29161D01*
X26243Y-29117D01*
X26519Y-28842D01*
X26519Y-28842D01*
X26519Y-28842D01*
X26676Y-28684D01*
X26676Y-28684D01*
X26720Y-28619D01*
X26720Y-28619D01*
X26722Y-28607D01*
X26735Y-28543D01*
X26735Y-28543D01*
X26735Y-28487D01*
X26810Y-28412D01*
X26860Y-28293D01*
X26860Y-28163D01*
X26811Y-28044D01*
X26719Y-27952D01*
X26600Y-27903D01*
X26471Y-27903D01*
X26351Y-27952D01*
X26325Y-27978D01*
X25339Y-27978D01*
X25328Y-27967D01*
X25328Y-26666D01*
X25354Y-26641D01*
X25403Y-26521D01*
X25403Y-26392D01*
X25354Y-26272D01*
X25263Y-26181D01*
X25221Y-26163D01*
X25574Y-25810D01*
X25574Y-25810D01*
X25603Y-25767D01*
X25617Y-25745D01*
X25617Y-25745D01*
X25633Y-25669D01*
X25633Y-25669D01*
X25633Y-23976D01*
X25620Y-23912D01*
X25617Y-23899D01*
X25617Y-23899D01*
X25574Y-23834D01*
X25574Y-23834D01*
X25482Y-23743D01*
X26308Y-23743D01*
X26260Y-23792D01*
X26210Y-23911D01*
X26210Y-24040D01*
X26259Y-24160D01*
X26351Y-24251D01*
X26412Y-24277D01*
X26367Y-24383D01*
X26367Y-24513D01*
X26417Y-24632D01*
X26508Y-24724D01*
X26627Y-24773D01*
X26757Y-24773D01*
X26876Y-24724D01*
X26886Y-24714D01*
X26886Y-25039D01*
X26901Y-25115D01*
X26945Y-25180D01*
X27063Y-25298D01*
X27128Y-25342D01*
X27128Y-25342D01*
X27204Y-25357D01*
X27605Y-25357D01*
X27605Y-25364D01*
X27628Y-25419D01*
X27661Y-25452D01*
X27628Y-25485D01*
X27605Y-25540D01*
X27605Y-25548D01*
X26811Y-25548D01*
X26734Y-25563D01*
X26669Y-25606D01*
X26551Y-25724D01*
X26491Y-25784D01*
X26401Y-25784D01*
X26326Y-25708D01*
X26206Y-25659D01*
X26077Y-25659D01*
X25957Y-25708D01*
X25866Y-25799D01*
X25816Y-25919D01*
X25816Y-26048D01*
X25866Y-26168D01*
X25957Y-26259D01*
X26076Y-26309D01*
X26206Y-26309D01*
X26325Y-26259D01*
X26401Y-26184D01*
X26574Y-26184D01*
X26651Y-26169D01*
X26716Y-26125D01*
X26747Y-26094D01*
X26722Y-26155D01*
X26722Y-26284D01*
X26771Y-26404D01*
X26847Y-26480D01*
X26847Y-27007D01*
X26862Y-27084D01*
X26905Y-27149D01*
X27162Y-27405D01*
X27162Y-27637D01*
X27177Y-27714D01*
X27220Y-27779D01*
X27605Y-28164D01*
X27605Y-28266D01*
X27584Y-28257D01*
X27455Y-28257D01*
X27335Y-28306D01*
X27244Y-28398D01*
X27194Y-28517D01*
X27194Y-28647D01*
X27244Y-28766D01*
X27335Y-28858D01*
X27454Y-28907D01*
X27506Y-28907D01*
X27542Y-28931D01*
X27622Y-28947D01*
X27628Y-28962D01*
X27670Y-29005D01*
X27725Y-29027D01*
X27785Y-29027D01*
X28573Y-29027D01*
X28628Y-29005D01*
X28645Y-28987D01*
G54D10*
G36*
X31720Y-31326D02*
X31554Y-31326D01*
X31554Y-14081D01*
X31543Y-13863D01*
X31481Y-13712D01*
X31450Y-13703D01*
X31450Y-12910D01*
X31381Y-12745D01*
X31255Y-12618D01*
X31089Y-12550D01*
X30910Y-12549D01*
X30745Y-12618D01*
X30618Y-12744D01*
X30550Y-12910D01*
X30549Y-13089D01*
X30618Y-13254D01*
X30744Y-13381D01*
X30910Y-13449D01*
X30986Y-13449D01*
X30863Y-13456D01*
X30712Y-13518D01*
X30684Y-13614D01*
X31000Y-13929D01*
X31315Y-13614D01*
X31287Y-13518D01*
X31092Y-13448D01*
X31254Y-13381D01*
X31381Y-13255D01*
X31449Y-13089D01*
X31450Y-12910D01*
X31450Y-13703D01*
X31385Y-13684D01*
X31070Y-14000D01*
X31385Y-14315D01*
X31481Y-14287D01*
X31554Y-14081D01*
X31554Y-31326D01*
X31450Y-31326D01*
X31450Y-25910D01*
X31450Y-24910D01*
X31381Y-24745D01*
X31255Y-24618D01*
X31089Y-24550D01*
X30910Y-24549D01*
X30745Y-24618D01*
X30618Y-24744D01*
X30595Y-24800D01*
X30279Y-24800D01*
X29679Y-24200D01*
X30595Y-24200D01*
X30618Y-24254D01*
X30744Y-24381D01*
X30910Y-24449D01*
X31089Y-24450D01*
X31254Y-24381D01*
X31381Y-24255D01*
X31449Y-24089D01*
X31450Y-23910D01*
X31381Y-23745D01*
X31255Y-23618D01*
X31089Y-23550D01*
X30910Y-23549D01*
X30836Y-23580D01*
X30836Y-23478D01*
X30807Y-23407D01*
X30910Y-23449D01*
X31089Y-23450D01*
X31254Y-23381D01*
X31381Y-23255D01*
X31449Y-23089D01*
X31450Y-22910D01*
X31381Y-22745D01*
X31255Y-22618D01*
X31089Y-22550D01*
X30910Y-22549D01*
X30745Y-22618D01*
X30618Y-22744D01*
X30566Y-22870D01*
X29663Y-22870D01*
X29663Y-22643D01*
X29663Y-22245D01*
X29642Y-22194D01*
X29663Y-22143D01*
X29663Y-21745D01*
X29642Y-21694D01*
X29663Y-21643D01*
X29663Y-21245D01*
X29642Y-21194D01*
X29663Y-21143D01*
X29663Y-21057D01*
X29600Y-20994D01*
X29109Y-20994D01*
X29109Y-21107D01*
X29109Y-21281D01*
X29109Y-21394D01*
X29600Y-21394D01*
X29663Y-21332D01*
X29663Y-21245D01*
X29663Y-21643D01*
X29663Y-21557D01*
X29600Y-21494D01*
X29109Y-21494D01*
X29109Y-21607D01*
X29109Y-21781D01*
X29109Y-21894D01*
X29600Y-21894D01*
X29663Y-21832D01*
X29663Y-21745D01*
X29663Y-22143D01*
X29663Y-22057D01*
X29600Y-21994D01*
X29109Y-21994D01*
X29109Y-22107D01*
X29109Y-22281D01*
X29109Y-22394D01*
X29600Y-22394D01*
X29663Y-22332D01*
X29663Y-22245D01*
X29663Y-22643D01*
X29663Y-22557D01*
X29600Y-22494D01*
X29109Y-22494D01*
X29109Y-22781D01*
X29171Y-22844D01*
X29363Y-22844D01*
X29463Y-22844D01*
X29555Y-22806D01*
X29625Y-22735D01*
X29663Y-22643D01*
X29663Y-22870D01*
X29009Y-22870D01*
X29009Y-22781D01*
X29009Y-22494D01*
X29009Y-22394D01*
X29009Y-22281D01*
X29009Y-22107D01*
X29009Y-21994D01*
X29009Y-21894D01*
X29009Y-21781D01*
X29009Y-21607D01*
X29009Y-21494D01*
X29009Y-21394D01*
X29009Y-21281D01*
X29009Y-21107D01*
X29009Y-20994D01*
X28517Y-20994D01*
X28454Y-21057D01*
X28454Y-21143D01*
X28475Y-21194D01*
X28454Y-21245D01*
X28454Y-21332D01*
X28517Y-21394D01*
X29009Y-21394D01*
X29009Y-21494D01*
X28517Y-21494D01*
X28454Y-21557D01*
X28454Y-21643D01*
X28475Y-21694D01*
X28454Y-21745D01*
X28454Y-21832D01*
X28517Y-21894D01*
X29009Y-21894D01*
X29009Y-21994D01*
X28517Y-21994D01*
X28454Y-22057D01*
X28454Y-22143D01*
X28475Y-22194D01*
X28454Y-22245D01*
X28454Y-22332D01*
X28517Y-22394D01*
X29009Y-22394D01*
X29009Y-22494D01*
X28517Y-22494D01*
X28454Y-22557D01*
X28454Y-22643D01*
X28492Y-22735D01*
X28562Y-22806D01*
X28654Y-22844D01*
X28754Y-22844D01*
X28946Y-22844D01*
X29009Y-22781D01*
X29009Y-22870D01*
X27352Y-22870D01*
X27401Y-22822D01*
X27450Y-22702D01*
X27451Y-22573D01*
X27401Y-22453D01*
X27310Y-22362D01*
X27190Y-22312D01*
X27083Y-22312D01*
X27074Y-22303D01*
X27009Y-22260D01*
X26933Y-22244D01*
X26554Y-22244D01*
X26540Y-22210D01*
X26525Y-22194D01*
X26540Y-22179D01*
X26554Y-22144D01*
X26882Y-22144D01*
X26941Y-22204D01*
X27061Y-22254D01*
X27190Y-22254D01*
X27309Y-22204D01*
X27401Y-22113D01*
X27450Y-21994D01*
X27451Y-21864D01*
X27401Y-21745D01*
X27329Y-21673D01*
X27401Y-21601D01*
X27450Y-21482D01*
X27451Y-21352D01*
X27401Y-21233D01*
X27310Y-21141D01*
X27214Y-21102D01*
X27309Y-21063D01*
X27401Y-20971D01*
X27450Y-20852D01*
X27451Y-20723D01*
X27401Y-20603D01*
X27391Y-20593D01*
X28552Y-20593D01*
X28492Y-20653D01*
X28454Y-20745D01*
X28454Y-20832D01*
X28517Y-20894D01*
X29009Y-20894D01*
X29009Y-20887D01*
X29109Y-20887D01*
X29109Y-20894D01*
X29600Y-20894D01*
X29663Y-20832D01*
X29663Y-20812D01*
X30233Y-21382D01*
X30233Y-21771D01*
X30248Y-21848D01*
X30291Y-21913D01*
X30519Y-22141D01*
X30519Y-22141D01*
X30563Y-22170D01*
X30584Y-22184D01*
X30584Y-22184D01*
X30589Y-22185D01*
X30618Y-22254D01*
X30744Y-22381D01*
X30910Y-22449D01*
X31089Y-22450D01*
X31254Y-22381D01*
X31381Y-22255D01*
X31449Y-22089D01*
X31450Y-21910D01*
X31381Y-21745D01*
X31255Y-21618D01*
X31089Y-21550D01*
X30910Y-21549D01*
X30745Y-21618D01*
X30653Y-21709D01*
X30633Y-21688D01*
X30633Y-21299D01*
X30625Y-21261D01*
X30744Y-21381D01*
X30910Y-21449D01*
X31089Y-21450D01*
X31254Y-21381D01*
X31381Y-21255D01*
X31449Y-21089D01*
X31450Y-20910D01*
X31381Y-20745D01*
X31255Y-20618D01*
X31089Y-20550D01*
X30910Y-20549D01*
X30745Y-20618D01*
X30705Y-20658D01*
X30128Y-20081D01*
X30549Y-20081D01*
X30549Y-20089D01*
X30618Y-20254D01*
X30744Y-20381D01*
X30910Y-20449D01*
X31089Y-20450D01*
X31254Y-20381D01*
X31381Y-20255D01*
X31449Y-20089D01*
X31450Y-19910D01*
X31381Y-19745D01*
X31255Y-19618D01*
X31089Y-19550D01*
X30910Y-19549D01*
X30745Y-19618D01*
X30681Y-19681D01*
X26223Y-19681D01*
X26223Y-19605D01*
X26253Y-19634D01*
X26308Y-19657D01*
X26368Y-19657D01*
X26840Y-19657D01*
X26895Y-19635D01*
X26938Y-19592D01*
X26947Y-19570D01*
X28249Y-19570D01*
X28258Y-19592D01*
X28300Y-19634D01*
X28355Y-19657D01*
X28415Y-19657D01*
X28887Y-19657D01*
X28943Y-19635D01*
X28985Y-19592D01*
X29008Y-19537D01*
X29008Y-19478D01*
X29008Y-19330D01*
X29110Y-19432D01*
X29110Y-19432D01*
X29153Y-19461D01*
X29175Y-19476D01*
X29175Y-19476D01*
X29251Y-19491D01*
X29251Y-19491D01*
X30511Y-19491D01*
X30588Y-19476D01*
X30653Y-19432D01*
X30724Y-19361D01*
X30744Y-19381D01*
X30910Y-19449D01*
X31089Y-19450D01*
X31254Y-19381D01*
X31381Y-19255D01*
X31449Y-19089D01*
X31450Y-18910D01*
X31381Y-18745D01*
X31255Y-18618D01*
X31089Y-18550D01*
X30910Y-18549D01*
X30745Y-18618D01*
X30618Y-18744D01*
X30550Y-18910D01*
X30550Y-18970D01*
X30428Y-19091D01*
X29557Y-19091D01*
X29606Y-19042D01*
X29655Y-18923D01*
X29655Y-18894D01*
X29964Y-18585D01*
X30196Y-18585D01*
X30273Y-18570D01*
X30338Y-18527D01*
X30616Y-18249D01*
X30618Y-18254D01*
X30744Y-18381D01*
X30910Y-18449D01*
X31089Y-18450D01*
X31254Y-18381D01*
X31381Y-18255D01*
X31449Y-18089D01*
X31450Y-17910D01*
X31450Y-16910D01*
X31381Y-16745D01*
X31255Y-16618D01*
X31089Y-16550D01*
X30910Y-16549D01*
X30745Y-16618D01*
X30618Y-16744D01*
X30595Y-16800D01*
X30283Y-16800D01*
X30206Y-16815D01*
X30185Y-16829D01*
X30142Y-16858D01*
X29779Y-17220D01*
X29738Y-17283D01*
X29737Y-17283D01*
X29645Y-17374D01*
X29596Y-17494D01*
X29596Y-17623D01*
X29645Y-17742D01*
X29736Y-17834D01*
X29856Y-17883D01*
X29985Y-17884D01*
X30105Y-17834D01*
X30196Y-17743D01*
X30246Y-17623D01*
X30246Y-17494D01*
X30196Y-17375D01*
X30194Y-17372D01*
X30366Y-17200D01*
X30595Y-17200D01*
X30618Y-17254D01*
X30744Y-17381D01*
X30910Y-17449D01*
X31089Y-17450D01*
X31254Y-17381D01*
X31381Y-17255D01*
X31449Y-17089D01*
X31450Y-16910D01*
X31450Y-17910D01*
X31381Y-17745D01*
X31255Y-17618D01*
X31089Y-17550D01*
X30910Y-17549D01*
X30745Y-17618D01*
X30618Y-17744D01*
X30595Y-17800D01*
X30582Y-17800D01*
X30518Y-17812D01*
X30506Y-17815D01*
X30441Y-17858D01*
X30114Y-18185D01*
X29881Y-18185D01*
X29818Y-18198D01*
X29805Y-18201D01*
X29740Y-18244D01*
X29435Y-18549D01*
X29395Y-18533D01*
X29266Y-18533D01*
X29146Y-18582D01*
X29108Y-18621D01*
X29108Y-18356D01*
X29108Y-18179D01*
X29108Y-18079D01*
X29070Y-17988D01*
X28999Y-17917D01*
X28907Y-17879D01*
X28734Y-17879D01*
X28672Y-17942D01*
X28672Y-18217D01*
X29045Y-18217D01*
X29108Y-18155D01*
X29108Y-18179D01*
X29108Y-18356D01*
X29108Y-18380D01*
X29045Y-18317D01*
X28672Y-18317D01*
X28672Y-18593D01*
X28734Y-18655D01*
X28907Y-18655D01*
X28999Y-18617D01*
X29070Y-18547D01*
X29108Y-18455D01*
X29108Y-18356D01*
X29108Y-18621D01*
X29055Y-18673D01*
X29014Y-18771D01*
X28960Y-18716D01*
X28895Y-18673D01*
X28818Y-18658D01*
X28572Y-18658D01*
X28572Y-18593D01*
X28572Y-18317D01*
X28572Y-18217D01*
X28572Y-17942D01*
X28509Y-17879D01*
X28336Y-17879D01*
X28244Y-17917D01*
X28174Y-17988D01*
X28135Y-18079D01*
X28135Y-18179D01*
X28135Y-18155D01*
X28198Y-18217D01*
X28572Y-18217D01*
X28572Y-18317D01*
X28198Y-18317D01*
X28135Y-18380D01*
X28135Y-18356D01*
X28135Y-18455D01*
X28174Y-18547D01*
X28244Y-18617D01*
X28336Y-18655D01*
X28509Y-18655D01*
X28572Y-18593D01*
X28572Y-18658D01*
X27061Y-18658D01*
X27061Y-18356D01*
X27061Y-18179D01*
X27060Y-18079D01*
X27022Y-17988D01*
X26952Y-17917D01*
X26860Y-17879D01*
X26687Y-17879D01*
X26624Y-17942D01*
X26624Y-18217D01*
X26998Y-18217D01*
X27061Y-18155D01*
X27061Y-18179D01*
X27061Y-18356D01*
X27061Y-18380D01*
X26998Y-18317D01*
X26624Y-18317D01*
X26624Y-18593D01*
X26687Y-18655D01*
X26860Y-18655D01*
X26952Y-18617D01*
X27022Y-18547D01*
X27060Y-18455D01*
X27061Y-18356D01*
X27061Y-18658D01*
X26460Y-18658D01*
X26458Y-18655D01*
X26462Y-18655D01*
X26524Y-18593D01*
X26524Y-18317D01*
X26524Y-18217D01*
X26524Y-17942D01*
X26462Y-17879D01*
X26289Y-17879D01*
X26197Y-17917D01*
X26126Y-17988D01*
X26088Y-18079D01*
X26088Y-18179D01*
X26088Y-18155D01*
X26151Y-18217D01*
X26524Y-18217D01*
X26524Y-18317D01*
X26151Y-18317D01*
X26135Y-18333D01*
X25692Y-17890D01*
X25627Y-17846D01*
X25551Y-17831D01*
X25009Y-17831D01*
X25593Y-17247D01*
X26201Y-17247D01*
X26211Y-17269D01*
X26253Y-17312D01*
X26308Y-17335D01*
X26368Y-17335D01*
X26840Y-17335D01*
X26895Y-17312D01*
X26938Y-17270D01*
X26947Y-17247D01*
X28249Y-17247D01*
X28258Y-17269D01*
X28300Y-17312D01*
X28355Y-17335D01*
X28415Y-17335D01*
X28887Y-17335D01*
X28943Y-17312D01*
X28985Y-17270D01*
X29008Y-17215D01*
X29008Y-17155D01*
X29008Y-17140D01*
X29367Y-16781D01*
X29473Y-16781D01*
X29593Y-16732D01*
X29684Y-16641D01*
X29734Y-16521D01*
X29734Y-16392D01*
X29685Y-16272D01*
X29593Y-16181D01*
X29531Y-16155D01*
X30118Y-16155D01*
X30213Y-16136D01*
X30294Y-16082D01*
X30382Y-15994D01*
X30418Y-15994D01*
X30538Y-15944D01*
X30550Y-15933D01*
X30549Y-16089D01*
X30618Y-16254D01*
X30744Y-16381D01*
X30910Y-16449D01*
X31089Y-16450D01*
X31254Y-16381D01*
X31381Y-16255D01*
X31449Y-16089D01*
X31450Y-15910D01*
X31450Y-14910D01*
X31381Y-14745D01*
X31255Y-14618D01*
X31089Y-14550D01*
X31013Y-14550D01*
X31136Y-14543D01*
X31287Y-14481D01*
X31315Y-14385D01*
X31000Y-14070D01*
X30929Y-14141D01*
X30929Y-14000D01*
X30614Y-13684D01*
X30518Y-13712D01*
X30445Y-13918D01*
X30456Y-14136D01*
X30518Y-14287D01*
X30614Y-14315D01*
X30929Y-14000D01*
X30929Y-14141D01*
X30684Y-14385D01*
X30712Y-14481D01*
X30907Y-14551D01*
X30745Y-14618D01*
X30618Y-14744D01*
X30595Y-14800D01*
X29807Y-14800D01*
X29734Y-14727D01*
X29734Y-14620D01*
X29685Y-14501D01*
X29593Y-14409D01*
X29474Y-14360D01*
X29345Y-14359D01*
X29225Y-14409D01*
X29134Y-14500D01*
X29084Y-14620D01*
X29084Y-14749D01*
X29133Y-14868D01*
X29225Y-14960D01*
X29344Y-15009D01*
X29451Y-15010D01*
X29582Y-15141D01*
X29582Y-15141D01*
X29626Y-15170D01*
X29647Y-15184D01*
X29647Y-15184D01*
X29724Y-15199D01*
X29724Y-15200D01*
X30595Y-15200D01*
X30618Y-15254D01*
X30744Y-15381D01*
X30910Y-15449D01*
X31089Y-15450D01*
X31254Y-15381D01*
X31381Y-15255D01*
X31449Y-15089D01*
X31450Y-14910D01*
X31450Y-15910D01*
X31381Y-15745D01*
X31255Y-15618D01*
X31089Y-15550D01*
X30910Y-15549D01*
X30745Y-15618D01*
X30679Y-15684D01*
X30679Y-15604D01*
X30630Y-15485D01*
X30538Y-15393D01*
X30419Y-15344D01*
X30289Y-15344D01*
X30170Y-15393D01*
X30078Y-15484D01*
X30029Y-15604D01*
X30029Y-15640D01*
X30014Y-15655D01*
X29591Y-15655D01*
X29192Y-15256D01*
X29111Y-15202D01*
X29015Y-15183D01*
X28828Y-15183D01*
X28828Y-13872D01*
X28789Y-13777D01*
X28789Y-12927D01*
X28740Y-12808D01*
X28648Y-12716D01*
X28529Y-12667D01*
X28400Y-12667D01*
X28323Y-12698D01*
X28316Y-12682D01*
X28274Y-12640D01*
X28218Y-12617D01*
X28159Y-12617D01*
X27765Y-12617D01*
X27710Y-12639D01*
X27668Y-12682D01*
X27645Y-12737D01*
X27645Y-12796D01*
X27645Y-13246D01*
X27668Y-13301D01*
X27710Y-13344D01*
X27765Y-13367D01*
X27824Y-13367D01*
X28218Y-13367D01*
X28273Y-13344D01*
X28316Y-13302D01*
X28323Y-13285D01*
X28399Y-13317D01*
X28528Y-13317D01*
X28648Y-13267D01*
X28739Y-13176D01*
X28789Y-13057D01*
X28789Y-12927D01*
X28789Y-13777D01*
X28779Y-13753D01*
X28688Y-13661D01*
X28568Y-13612D01*
X28439Y-13611D01*
X28328Y-13657D01*
X28316Y-13627D01*
X28274Y-13584D01*
X28218Y-13562D01*
X28159Y-13561D01*
X27765Y-13561D01*
X27710Y-13584D01*
X27668Y-13626D01*
X27645Y-13682D01*
X27645Y-13741D01*
X27645Y-14191D01*
X27668Y-14246D01*
X27710Y-14289D01*
X27765Y-14311D01*
X27824Y-14312D01*
X28218Y-14312D01*
X28273Y-14289D01*
X28316Y-14247D01*
X28328Y-14216D01*
X28439Y-14261D01*
X28568Y-14262D01*
X28687Y-14212D01*
X28779Y-14121D01*
X28828Y-14001D01*
X28828Y-13872D01*
X28828Y-15183D01*
X27926Y-15183D01*
X27900Y-15157D01*
X27781Y-15108D01*
X27652Y-15108D01*
X27612Y-15124D01*
X27612Y-14112D01*
X27612Y-13761D01*
X27612Y-13662D01*
X27574Y-13570D01*
X27503Y-13499D01*
X27418Y-13464D01*
X27503Y-13429D01*
X27574Y-13358D01*
X27612Y-13267D01*
X27612Y-13167D01*
X27612Y-12816D01*
X27612Y-12717D01*
X27574Y-12625D01*
X27503Y-12555D01*
X27411Y-12517D01*
X27277Y-12517D01*
X27215Y-12579D01*
X27215Y-12942D01*
X27549Y-12942D01*
X27612Y-12879D01*
X27612Y-12816D01*
X27612Y-13167D01*
X27612Y-13104D01*
X27549Y-13042D01*
X27215Y-13042D01*
X27215Y-13404D01*
X27275Y-13464D01*
X27215Y-13524D01*
X27215Y-13887D01*
X27549Y-13887D01*
X27612Y-13824D01*
X27612Y-13761D01*
X27612Y-14112D01*
X27612Y-14049D01*
X27549Y-13987D01*
X27215Y-13987D01*
X27215Y-14349D01*
X27277Y-14412D01*
X27411Y-14412D01*
X27503Y-14374D01*
X27574Y-14303D01*
X27612Y-14211D01*
X27612Y-14112D01*
X27612Y-15124D01*
X27532Y-15157D01*
X27441Y-15248D01*
X27391Y-15368D01*
X27391Y-15497D01*
X27440Y-15616D01*
X27532Y-15708D01*
X27651Y-15758D01*
X27780Y-15758D01*
X27900Y-15708D01*
X27926Y-15683D01*
X28166Y-15683D01*
X28135Y-15757D01*
X28135Y-15856D01*
X28135Y-15832D01*
X28198Y-15894D01*
X28572Y-15894D01*
X28572Y-15887D01*
X28672Y-15887D01*
X28672Y-15894D01*
X29045Y-15894D01*
X29084Y-15855D01*
X29311Y-16082D01*
X29385Y-16131D01*
X29345Y-16131D01*
X29225Y-16181D01*
X29134Y-16272D01*
X29108Y-16334D01*
X29108Y-16033D01*
X29108Y-16057D01*
X29045Y-15994D01*
X28672Y-15994D01*
X28672Y-16270D01*
X28734Y-16332D01*
X28907Y-16332D01*
X28999Y-16294D01*
X29070Y-16224D01*
X29108Y-16132D01*
X29108Y-16033D01*
X29108Y-16334D01*
X29084Y-16391D01*
X29084Y-16498D01*
X28823Y-16759D01*
X28572Y-16759D01*
X28572Y-16270D01*
X28572Y-15994D01*
X28198Y-15994D01*
X28135Y-16057D01*
X28135Y-16033D01*
X28135Y-16132D01*
X28174Y-16224D01*
X28244Y-16294D01*
X28336Y-16332D01*
X28509Y-16332D01*
X28572Y-16270D01*
X28572Y-16759D01*
X28356Y-16759D01*
X28300Y-16782D01*
X28258Y-16824D01*
X28249Y-16847D01*
X27115Y-16847D01*
X27115Y-14349D01*
X27115Y-13987D01*
X27115Y-13887D01*
X27115Y-13524D01*
X27055Y-13464D01*
X27115Y-13404D01*
X27115Y-13042D01*
X27115Y-12942D01*
X27115Y-12579D01*
X27052Y-12517D01*
X26918Y-12517D01*
X26827Y-12555D01*
X26756Y-12625D01*
X26718Y-12717D01*
X26718Y-12816D01*
X26718Y-12879D01*
X26781Y-12942D01*
X27115Y-12942D01*
X27115Y-13042D01*
X26781Y-13042D01*
X26718Y-13104D01*
X26718Y-13167D01*
X26718Y-13267D01*
X26756Y-13358D01*
X26827Y-13429D01*
X26912Y-13464D01*
X26827Y-13499D01*
X26756Y-13570D01*
X26718Y-13662D01*
X26718Y-13761D01*
X26718Y-13824D01*
X26781Y-13887D01*
X27115Y-13887D01*
X27115Y-13987D01*
X26781Y-13987D01*
X26718Y-14049D01*
X26718Y-14112D01*
X26718Y-14211D01*
X26756Y-14303D01*
X26827Y-14374D01*
X26918Y-14412D01*
X27052Y-14412D01*
X27115Y-14349D01*
X27115Y-16847D01*
X27061Y-16847D01*
X27061Y-16033D01*
X27061Y-15856D01*
X27060Y-15757D01*
X27022Y-15665D01*
X26952Y-15595D01*
X26860Y-15557D01*
X26687Y-15557D01*
X26646Y-15598D01*
X26646Y-14064D01*
X26646Y-13277D01*
X26623Y-13222D01*
X26581Y-13179D01*
X26526Y-13157D01*
X26466Y-13157D01*
X24104Y-13157D01*
X24049Y-13179D01*
X24006Y-13222D01*
X23983Y-13277D01*
X23983Y-13336D01*
X23983Y-14124D01*
X24006Y-14179D01*
X24048Y-14221D01*
X24103Y-14244D01*
X24163Y-14244D01*
X24488Y-14244D01*
X23913Y-14819D01*
X23870Y-14884D01*
X23855Y-14960D01*
X23855Y-15176D01*
X23828Y-15176D01*
X23773Y-15198D01*
X23731Y-15241D01*
X23708Y-15296D01*
X23708Y-15355D01*
X23708Y-15619D01*
X23636Y-15619D01*
X23516Y-15669D01*
X23425Y-15760D01*
X23375Y-15879D01*
X23375Y-16009D01*
X23425Y-16128D01*
X23516Y-16220D01*
X23635Y-16269D01*
X23765Y-16269D01*
X23884Y-16220D01*
X23976Y-16129D01*
X24025Y-16009D01*
X24025Y-15926D01*
X24281Y-15926D01*
X24336Y-15903D01*
X24379Y-15861D01*
X24401Y-15806D01*
X24401Y-15746D01*
X24401Y-15296D01*
X24379Y-15241D01*
X24337Y-15199D01*
X24281Y-15176D01*
X24255Y-15176D01*
X24255Y-15043D01*
X25054Y-14244D01*
X26525Y-14244D01*
X26580Y-14221D01*
X26623Y-14179D01*
X26646Y-14124D01*
X26646Y-14064D01*
X26646Y-15598D01*
X26624Y-15619D01*
X26624Y-15894D01*
X26998Y-15894D01*
X27061Y-15832D01*
X27061Y-15856D01*
X27061Y-16033D01*
X27061Y-16057D01*
X26998Y-15994D01*
X26624Y-15994D01*
X26624Y-16270D01*
X26687Y-16332D01*
X26860Y-16332D01*
X26952Y-16294D01*
X27022Y-16224D01*
X27060Y-16132D01*
X27061Y-16033D01*
X27061Y-16847D01*
X26947Y-16847D01*
X26938Y-16824D01*
X26896Y-16782D01*
X26840Y-16759D01*
X26781Y-16759D01*
X26524Y-16759D01*
X26524Y-16270D01*
X26524Y-15994D01*
X26524Y-15894D01*
X26524Y-15619D01*
X26462Y-15557D01*
X26289Y-15557D01*
X26197Y-15595D01*
X26126Y-15665D01*
X26088Y-15757D01*
X26088Y-15856D01*
X26088Y-15832D01*
X26151Y-15894D01*
X26524Y-15894D01*
X26524Y-15994D01*
X26151Y-15994D01*
X26088Y-16057D01*
X26088Y-16033D01*
X26088Y-16132D01*
X26126Y-16224D01*
X26197Y-16294D01*
X26289Y-16332D01*
X26462Y-16332D01*
X26524Y-16270D01*
X26524Y-16759D01*
X26308Y-16759D01*
X26253Y-16782D01*
X26211Y-16824D01*
X26201Y-16847D01*
X26033Y-16847D01*
X26033Y-16234D01*
X25984Y-16115D01*
X25892Y-16023D01*
X25773Y-15974D01*
X25644Y-15974D01*
X25524Y-16023D01*
X25499Y-16049D01*
X25328Y-16049D01*
X25328Y-15726D01*
X25328Y-15375D01*
X25328Y-15276D01*
X25290Y-15184D01*
X25220Y-15114D01*
X25128Y-15076D01*
X24994Y-15076D01*
X24931Y-15138D01*
X24931Y-15501D01*
X25266Y-15501D01*
X25328Y-15438D01*
X25328Y-15375D01*
X25328Y-15726D01*
X25328Y-15663D01*
X25266Y-15601D01*
X24931Y-15601D01*
X24931Y-15963D01*
X24994Y-16026D01*
X25128Y-16026D01*
X25220Y-15988D01*
X25290Y-15917D01*
X25328Y-15826D01*
X25328Y-15726D01*
X25328Y-16049D01*
X25314Y-16049D01*
X25219Y-16068D01*
X25138Y-16122D01*
X24831Y-16428D01*
X24831Y-15963D01*
X24831Y-15601D01*
X24831Y-15501D01*
X24831Y-15138D01*
X24769Y-15076D01*
X24635Y-15076D01*
X24543Y-15114D01*
X24473Y-15184D01*
X24435Y-15276D01*
X24434Y-15375D01*
X24435Y-15438D01*
X24497Y-15501D01*
X24831Y-15501D01*
X24831Y-15601D01*
X24497Y-15601D01*
X24435Y-15663D01*
X24434Y-15726D01*
X24435Y-15826D01*
X24473Y-15917D01*
X24543Y-15988D01*
X24635Y-16026D01*
X24769Y-16026D01*
X24831Y-15963D01*
X24831Y-16428D01*
X24617Y-16643D01*
X24581Y-16643D01*
X24461Y-16692D01*
X24370Y-16784D01*
X24320Y-16903D01*
X24320Y-17032D01*
X24369Y-17152D01*
X24461Y-17243D01*
X24580Y-17293D01*
X24710Y-17293D01*
X24829Y-17244D01*
X24921Y-17152D01*
X24970Y-17033D01*
X24970Y-16997D01*
X25418Y-16549D01*
X25499Y-16549D01*
X25524Y-16574D01*
X25643Y-16624D01*
X25773Y-16624D01*
X25892Y-16574D01*
X25984Y-16483D01*
X26033Y-16364D01*
X26033Y-16234D01*
X26033Y-16847D01*
X25510Y-16847D01*
X25433Y-16862D01*
X25412Y-16876D01*
X25369Y-16905D01*
X24412Y-17862D01*
X24412Y-17322D01*
X24412Y-17322D01*
X24397Y-17246D01*
X24397Y-17246D01*
X24382Y-17224D01*
X24354Y-17181D01*
X24354Y-17181D01*
X23487Y-16315D01*
X23422Y-16271D01*
X23346Y-16256D01*
X23009Y-16256D01*
X23097Y-16220D01*
X23188Y-16129D01*
X23238Y-16009D01*
X23238Y-15880D01*
X23189Y-15761D01*
X23097Y-15669D01*
X22978Y-15619D01*
X22945Y-15619D01*
X22945Y-15296D01*
X22922Y-15241D01*
X22880Y-15199D01*
X22825Y-15176D01*
X22798Y-15176D01*
X22798Y-15000D01*
X22783Y-14923D01*
X22739Y-14858D01*
X22125Y-14244D01*
X22588Y-14244D01*
X22643Y-14221D01*
X22686Y-14179D01*
X22709Y-14124D01*
X22709Y-14064D01*
X22709Y-13277D01*
X22686Y-13222D01*
X22644Y-13179D01*
X22589Y-13157D01*
X22529Y-13157D01*
X20167Y-13157D01*
X20111Y-13179D01*
X20069Y-13222D01*
X20046Y-13277D01*
X20046Y-13298D01*
X20039Y-13280D01*
X19948Y-13189D01*
X19828Y-13139D01*
X19721Y-13139D01*
X19440Y-12858D01*
X19375Y-12815D01*
X19299Y-12800D01*
X18450Y-12800D01*
X18450Y-12670D01*
X18427Y-12615D01*
X18385Y-12572D01*
X18329Y-12550D01*
X18270Y-12549D01*
X17670Y-12549D01*
X17615Y-12572D01*
X17572Y-12614D01*
X17550Y-12670D01*
X17549Y-12729D01*
X17549Y-13329D01*
X17572Y-13384D01*
X17614Y-13427D01*
X17670Y-13449D01*
X17729Y-13450D01*
X18329Y-13450D01*
X18384Y-13427D01*
X18427Y-13385D01*
X18449Y-13329D01*
X18450Y-13270D01*
X18450Y-13200D01*
X19216Y-13200D01*
X19438Y-13422D01*
X19438Y-13528D01*
X19488Y-13648D01*
X19579Y-13739D01*
X19698Y-13789D01*
X19828Y-13789D01*
X19947Y-13740D01*
X20039Y-13648D01*
X20046Y-13630D01*
X20046Y-14124D01*
X20069Y-14179D01*
X20111Y-14221D01*
X20166Y-14244D01*
X20226Y-14244D01*
X21560Y-14244D01*
X22398Y-15082D01*
X22398Y-15176D01*
X22371Y-15176D01*
X22316Y-15198D01*
X22274Y-15241D01*
X22251Y-15296D01*
X22251Y-15355D01*
X22251Y-15805D01*
X22274Y-15861D01*
X22316Y-15903D01*
X22371Y-15926D01*
X22431Y-15926D01*
X22588Y-15926D01*
X22588Y-16009D01*
X22637Y-16128D01*
X22729Y-16220D01*
X22816Y-16256D01*
X22218Y-16256D01*
X22218Y-15726D01*
X22218Y-15375D01*
X22218Y-15276D01*
X22180Y-15184D01*
X22109Y-15114D01*
X22018Y-15076D01*
X21884Y-15076D01*
X21821Y-15138D01*
X21821Y-15501D01*
X22156Y-15501D01*
X22218Y-15438D01*
X22218Y-15375D01*
X22218Y-15726D01*
X22218Y-15663D01*
X22156Y-15601D01*
X21821Y-15601D01*
X21821Y-15963D01*
X21884Y-16026D01*
X22018Y-16026D01*
X22109Y-15988D01*
X22180Y-15917D01*
X22218Y-15826D01*
X22218Y-15726D01*
X22218Y-16256D01*
X21721Y-16256D01*
X21721Y-15963D01*
X21721Y-15601D01*
X21721Y-15501D01*
X21721Y-15138D01*
X21659Y-15076D01*
X21525Y-15076D01*
X21433Y-15114D01*
X21362Y-15184D01*
X21324Y-15276D01*
X21324Y-15375D01*
X21324Y-15438D01*
X21387Y-15501D01*
X21721Y-15501D01*
X21721Y-15601D01*
X21387Y-15601D01*
X21324Y-15663D01*
X21324Y-15726D01*
X21324Y-15826D01*
X21362Y-15917D01*
X21433Y-15988D01*
X21525Y-16026D01*
X21659Y-16026D01*
X21721Y-15963D01*
X21721Y-16256D01*
X20870Y-16256D01*
X20141Y-15527D01*
X20076Y-15484D01*
X20000Y-15469D01*
X19610Y-15469D01*
X19412Y-15271D01*
X19412Y-14370D01*
X19412Y-14370D01*
X19397Y-14293D01*
X19397Y-14293D01*
X19382Y-14272D01*
X19354Y-14228D01*
X19354Y-14228D01*
X18983Y-13858D01*
X18919Y-13815D01*
X18842Y-13800D01*
X18404Y-13800D01*
X18381Y-13745D01*
X18255Y-13618D01*
X18089Y-13550D01*
X17910Y-13549D01*
X17745Y-13618D01*
X17618Y-13744D01*
X17550Y-13910D01*
X17549Y-14089D01*
X17618Y-14254D01*
X17744Y-14381D01*
X17910Y-14449D01*
X18089Y-14450D01*
X18254Y-14381D01*
X18381Y-14255D01*
X18404Y-14200D01*
X18759Y-14200D01*
X19012Y-14452D01*
X19012Y-15354D01*
X19027Y-15430D01*
X19071Y-15495D01*
X19386Y-15810D01*
X19386Y-15810D01*
X19429Y-15839D01*
X19451Y-15854D01*
X19451Y-15854D01*
X19527Y-15869D01*
X19527Y-15869D01*
X19667Y-15869D01*
X19579Y-15905D01*
X19488Y-15996D01*
X19438Y-16116D01*
X19438Y-16245D01*
X19488Y-16364D01*
X19579Y-16456D01*
X19698Y-16506D01*
X19805Y-16506D01*
X20099Y-16800D01*
X18554Y-16800D01*
X18554Y-16081D01*
X18543Y-15863D01*
X18481Y-15712D01*
X18450Y-15703D01*
X18450Y-14910D01*
X18381Y-14745D01*
X18255Y-14618D01*
X18089Y-14550D01*
X17910Y-14549D01*
X17745Y-14618D01*
X17618Y-14744D01*
X17550Y-14910D01*
X17549Y-15089D01*
X17618Y-15254D01*
X17744Y-15381D01*
X17910Y-15449D01*
X17986Y-15449D01*
X17863Y-15456D01*
X17712Y-15518D01*
X17684Y-15614D01*
X18000Y-15929D01*
X18315Y-15614D01*
X18287Y-15518D01*
X18092Y-15448D01*
X18254Y-15381D01*
X18381Y-15255D01*
X18449Y-15089D01*
X18450Y-14910D01*
X18450Y-15703D01*
X18385Y-15684D01*
X18070Y-16000D01*
X18385Y-16315D01*
X18481Y-16287D01*
X18554Y-16081D01*
X18554Y-16800D01*
X18404Y-16800D01*
X18381Y-16745D01*
X18255Y-16618D01*
X18089Y-16550D01*
X18013Y-16550D01*
X18136Y-16543D01*
X18287Y-16481D01*
X18315Y-16385D01*
X18000Y-16070D01*
X17684Y-16385D01*
X17712Y-16481D01*
X17907Y-16551D01*
X17745Y-16618D01*
X17618Y-16744D01*
X17550Y-16910D01*
X17549Y-17089D01*
X17618Y-17254D01*
X17744Y-17381D01*
X17910Y-17449D01*
X18089Y-17450D01*
X18254Y-17381D01*
X18381Y-17255D01*
X18404Y-17200D01*
X22320Y-17200D01*
X23003Y-17882D01*
X22845Y-18040D01*
X22822Y-18095D01*
X22822Y-18154D01*
X22845Y-18210D01*
X22887Y-18252D01*
X23012Y-18377D01*
X23051Y-18393D01*
X23067Y-18432D01*
X23109Y-18474D01*
X23234Y-18599D01*
X23274Y-18616D01*
X23290Y-18655D01*
X23332Y-18697D01*
X23457Y-18822D01*
X23496Y-18839D01*
X23512Y-18877D01*
X23554Y-18919D01*
X23679Y-19044D01*
X23719Y-19061D01*
X23735Y-19101D01*
X23778Y-19143D01*
X23903Y-19268D01*
X23942Y-19284D01*
X23958Y-19323D01*
X24000Y-19365D01*
X24125Y-19490D01*
X24165Y-19506D01*
X24181Y-19546D01*
X24223Y-19588D01*
X24348Y-19713D01*
X24387Y-19730D01*
X24403Y-19768D01*
X24445Y-19810D01*
X24570Y-19935D01*
X24625Y-19958D01*
X24685Y-19958D01*
X24740Y-19936D01*
X24782Y-19893D01*
X24898Y-19778D01*
X25655Y-20535D01*
X25655Y-20535D01*
X25699Y-20564D01*
X25720Y-20578D01*
X25720Y-20578D01*
X25797Y-20593D01*
X26860Y-20593D01*
X26850Y-20603D01*
X26801Y-20722D01*
X26801Y-20744D01*
X26554Y-20744D01*
X26540Y-20710D01*
X26498Y-20668D01*
X26443Y-20645D01*
X26383Y-20645D01*
X25675Y-20645D01*
X25619Y-20668D01*
X25577Y-20710D01*
X25554Y-20765D01*
X25554Y-20824D01*
X25554Y-20985D01*
X25353Y-20784D01*
X25353Y-20762D01*
X25331Y-20707D01*
X25288Y-20665D01*
X24732Y-20108D01*
X24677Y-20085D01*
X24617Y-20085D01*
X24562Y-20108D01*
X24520Y-20150D01*
X24395Y-20276D01*
X24379Y-20312D01*
X24343Y-20327D01*
X24301Y-20370D01*
X24183Y-20487D01*
X24183Y-19975D01*
X24133Y-19855D01*
X24042Y-19764D01*
X23923Y-19714D01*
X23793Y-19714D01*
X23674Y-19763D01*
X23648Y-19789D01*
X23213Y-19789D01*
X23129Y-19705D01*
X23048Y-19650D01*
X22952Y-19631D01*
X22847Y-19631D01*
X22822Y-19606D01*
X22702Y-19556D01*
X22692Y-19556D01*
X22692Y-18098D01*
X22669Y-18043D01*
X22627Y-18000D01*
X22070Y-17444D01*
X22015Y-17421D01*
X21993Y-17421D01*
X21832Y-17260D01*
X21767Y-17216D01*
X21690Y-17201D01*
X20314Y-17201D01*
X20238Y-17216D01*
X20216Y-17231D01*
X20173Y-17260D01*
X19633Y-17800D01*
X18404Y-17800D01*
X18381Y-17745D01*
X18255Y-17618D01*
X18089Y-17550D01*
X17910Y-17549D01*
X17745Y-17618D01*
X17618Y-17744D01*
X17550Y-17910D01*
X17549Y-18089D01*
X17618Y-18254D01*
X17744Y-18381D01*
X17910Y-18449D01*
X18089Y-18450D01*
X18254Y-18381D01*
X18381Y-18255D01*
X18404Y-18200D01*
X19716Y-18200D01*
X19793Y-18184D01*
X19857Y-18141D01*
X20397Y-17601D01*
X20501Y-17601D01*
X19302Y-18800D01*
X18404Y-18800D01*
X18381Y-18745D01*
X18255Y-18618D01*
X18089Y-18550D01*
X17910Y-18549D01*
X17745Y-18618D01*
X17618Y-18744D01*
X17550Y-18910D01*
X17549Y-19089D01*
X17618Y-19254D01*
X17744Y-19381D01*
X17910Y-19449D01*
X18089Y-19450D01*
X18254Y-19381D01*
X18381Y-19255D01*
X18404Y-19200D01*
X19385Y-19200D01*
X19462Y-19184D01*
X19527Y-19141D01*
X19556Y-19111D01*
X19556Y-19158D01*
X19606Y-19278D01*
X19697Y-19369D01*
X19816Y-19419D01*
X19946Y-19419D01*
X20065Y-19370D01*
X20141Y-19294D01*
X20155Y-19294D01*
X20174Y-19340D01*
X20216Y-19382D01*
X20772Y-19939D01*
X20828Y-19962D01*
X20887Y-19962D01*
X20942Y-19939D01*
X20985Y-19897D01*
X21110Y-19772D01*
X21114Y-19762D01*
X21141Y-19829D01*
X21232Y-19921D01*
X21352Y-19970D01*
X21481Y-19970D01*
X21601Y-19921D01*
X21692Y-19830D01*
X21742Y-19710D01*
X21742Y-19581D01*
X21693Y-19461D01*
X21617Y-19385D01*
X21617Y-19377D01*
X21667Y-19356D01*
X21690Y-19333D01*
X21690Y-19253D01*
X21730Y-19293D01*
X21758Y-19265D01*
X21784Y-19291D01*
X21903Y-19340D01*
X22032Y-19340D01*
X22152Y-19291D01*
X22243Y-19200D01*
X22293Y-19080D01*
X22293Y-18951D01*
X22244Y-18831D01*
X22218Y-18805D01*
X22246Y-18777D01*
X22206Y-18737D01*
X22286Y-18737D01*
X22308Y-18714D01*
X22346Y-18623D01*
X22346Y-18535D01*
X22446Y-18435D01*
X22463Y-18396D01*
X22502Y-18380D01*
X22544Y-18338D01*
X22669Y-18213D01*
X22692Y-18158D01*
X22692Y-18098D01*
X22692Y-19556D01*
X22573Y-19556D01*
X22453Y-19606D01*
X22362Y-19697D01*
X22312Y-19816D01*
X22312Y-19946D01*
X22362Y-20065D01*
X22453Y-20157D01*
X22572Y-20206D01*
X22702Y-20206D01*
X22821Y-20157D01*
X22847Y-20131D01*
X22849Y-20131D01*
X22933Y-20216D01*
X23014Y-20270D01*
X23014Y-20270D01*
X23110Y-20289D01*
X23648Y-20289D01*
X23673Y-20314D01*
X23793Y-20364D01*
X23922Y-20364D01*
X24042Y-20315D01*
X24133Y-20223D01*
X24183Y-20104D01*
X24183Y-19975D01*
X24183Y-20487D01*
X24175Y-20495D01*
X24158Y-20537D01*
X24117Y-20554D01*
X24074Y-20596D01*
X24020Y-20650D01*
X23933Y-20650D01*
X23841Y-20688D01*
X23818Y-20710D01*
X23818Y-20799D01*
X24194Y-21174D01*
X24203Y-21165D01*
X24274Y-21235D01*
X24265Y-21245D01*
X24270Y-21251D01*
X24208Y-21313D01*
X24202Y-21308D01*
X24192Y-21317D01*
X24122Y-21247D01*
X24131Y-21237D01*
X23756Y-20861D01*
X23667Y-20861D01*
X23645Y-20884D01*
X23607Y-20976D01*
X23607Y-21063D01*
X23504Y-21166D01*
X23488Y-21203D01*
X23452Y-21218D01*
X23410Y-21261D01*
X23373Y-21297D01*
X23346Y-21233D01*
X23255Y-21141D01*
X23135Y-21092D01*
X23006Y-21092D01*
X22887Y-21141D01*
X22795Y-21232D01*
X22745Y-21352D01*
X22745Y-21481D01*
X22795Y-21601D01*
X22886Y-21692D01*
X22951Y-21719D01*
X22832Y-21838D01*
X22809Y-21893D01*
X22809Y-21953D01*
X22832Y-22008D01*
X22874Y-22050D01*
X22939Y-22115D01*
X22888Y-22115D01*
X22768Y-22165D01*
X22693Y-22240D01*
X22637Y-22240D01*
X22573Y-22253D01*
X22561Y-22256D01*
X22496Y-22299D01*
X22207Y-22588D01*
X22100Y-22588D01*
X22099Y-22589D01*
X22115Y-22572D01*
X22672Y-22015D01*
X22695Y-21960D01*
X22695Y-21901D01*
X22672Y-21846D01*
X22630Y-21803D01*
X22505Y-21678D01*
X22463Y-21661D01*
X22446Y-21619D01*
X22403Y-21577D01*
X22293Y-21467D01*
X22278Y-21452D01*
X22237Y-21435D01*
X22219Y-21393D01*
X22177Y-21351D01*
X22052Y-21226D01*
X22010Y-21208D01*
X21993Y-21167D01*
X21951Y-21124D01*
X21826Y-20999D01*
X21789Y-20984D01*
X21774Y-20947D01*
X21732Y-20905D01*
X21607Y-20780D01*
X21570Y-20765D01*
X21555Y-20728D01*
X21513Y-20686D01*
X21387Y-20561D01*
X21346Y-20544D01*
X21328Y-20502D01*
X21286Y-20460D01*
X21161Y-20335D01*
X21124Y-20319D01*
X21109Y-20283D01*
X21067Y-20241D01*
X20942Y-20115D01*
X20887Y-20093D01*
X20827Y-20092D01*
X20772Y-20115D01*
X20730Y-20157D01*
X20173Y-20714D01*
X20150Y-20769D01*
X20150Y-20791D01*
X20119Y-20823D01*
X19964Y-20823D01*
X18999Y-19858D01*
X18934Y-19815D01*
X18858Y-19800D01*
X18404Y-19800D01*
X18381Y-19745D01*
X18255Y-19618D01*
X18089Y-19550D01*
X17910Y-19549D01*
X17745Y-19618D01*
X17618Y-19744D01*
X17550Y-19910D01*
X17549Y-20089D01*
X17618Y-20254D01*
X17744Y-20381D01*
X17910Y-20449D01*
X18089Y-20450D01*
X18254Y-20381D01*
X18381Y-20255D01*
X18404Y-20200D01*
X18775Y-20200D01*
X19740Y-21165D01*
X19759Y-21177D01*
X19689Y-21177D01*
X19369Y-20858D01*
X19304Y-20815D01*
X19228Y-20800D01*
X18404Y-20800D01*
X18381Y-20745D01*
X18255Y-20618D01*
X18089Y-20550D01*
X17910Y-20549D01*
X17745Y-20618D01*
X17618Y-20744D01*
X17550Y-20910D01*
X17549Y-21089D01*
X17618Y-21254D01*
X17744Y-21381D01*
X17910Y-21449D01*
X18089Y-21450D01*
X18254Y-21381D01*
X18381Y-21255D01*
X18404Y-21200D01*
X19145Y-21200D01*
X19464Y-21519D01*
X19529Y-21562D01*
X19606Y-21577D01*
X20255Y-21577D01*
X20033Y-21800D01*
X18404Y-21800D01*
X18381Y-21745D01*
X18255Y-21618D01*
X18089Y-21550D01*
X17910Y-21549D01*
X17745Y-21618D01*
X17618Y-21744D01*
X17550Y-21910D01*
X17549Y-22089D01*
X17618Y-22254D01*
X17744Y-22381D01*
X17910Y-22449D01*
X18089Y-22450D01*
X18254Y-22381D01*
X18381Y-22255D01*
X18404Y-22200D01*
X20072Y-22200D01*
X19472Y-22800D01*
X18404Y-22800D01*
X18381Y-22745D01*
X18255Y-22618D01*
X18089Y-22550D01*
X17910Y-22549D01*
X17745Y-22618D01*
X17618Y-22744D01*
X17550Y-22910D01*
X17549Y-23089D01*
X17618Y-23254D01*
X17744Y-23381D01*
X17910Y-23449D01*
X18089Y-23450D01*
X18254Y-23381D01*
X18381Y-23255D01*
X18404Y-23200D01*
X19509Y-23200D01*
X19307Y-23401D01*
X19264Y-23466D01*
X19248Y-23543D01*
X19248Y-23800D01*
X18404Y-23800D01*
X18381Y-23745D01*
X18255Y-23618D01*
X18089Y-23550D01*
X17910Y-23549D01*
X17745Y-23618D01*
X17618Y-23744D01*
X17550Y-23910D01*
X17549Y-24089D01*
X17618Y-24254D01*
X17744Y-24381D01*
X17910Y-24449D01*
X18089Y-24450D01*
X18254Y-24381D01*
X18381Y-24255D01*
X18404Y-24200D01*
X19385Y-24200D01*
X19462Y-24184D01*
X19485Y-24169D01*
X19485Y-24247D01*
X18932Y-24800D01*
X18404Y-24800D01*
X18381Y-24745D01*
X18255Y-24618D01*
X18089Y-24550D01*
X17910Y-24549D01*
X17745Y-24618D01*
X17618Y-24744D01*
X17550Y-24910D01*
X17549Y-25089D01*
X17618Y-25254D01*
X17744Y-25381D01*
X17910Y-25449D01*
X18089Y-25450D01*
X18254Y-25381D01*
X18381Y-25255D01*
X18404Y-25200D01*
X19015Y-25200D01*
X19092Y-25184D01*
X19157Y-25141D01*
X19721Y-24577D01*
X19721Y-25350D01*
X19271Y-25800D01*
X18404Y-25800D01*
X18381Y-25745D01*
X18255Y-25618D01*
X18089Y-25550D01*
X17910Y-25549D01*
X17745Y-25618D01*
X17618Y-25744D01*
X17550Y-25910D01*
X17549Y-26089D01*
X17618Y-26254D01*
X17744Y-26381D01*
X17910Y-26449D01*
X18089Y-26450D01*
X18254Y-26381D01*
X18381Y-26255D01*
X18404Y-26200D01*
X19354Y-26200D01*
X19430Y-26184D01*
X19495Y-26141D01*
X19957Y-25679D01*
X19957Y-26373D01*
X19531Y-26800D01*
X18404Y-26800D01*
X18381Y-26745D01*
X18255Y-26618D01*
X18089Y-26550D01*
X17910Y-26549D01*
X17745Y-26618D01*
X17618Y-26744D01*
X17550Y-26910D01*
X17549Y-27089D01*
X17618Y-27254D01*
X17744Y-27381D01*
X17910Y-27449D01*
X18089Y-27450D01*
X18254Y-27381D01*
X18381Y-27255D01*
X18404Y-27200D01*
X19614Y-27200D01*
X19690Y-27184D01*
X19755Y-27141D01*
X20298Y-26598D01*
X20298Y-26598D01*
X20327Y-26554D01*
X20342Y-26533D01*
X20342Y-26533D01*
X20357Y-26456D01*
X20357Y-26456D01*
X20357Y-23941D01*
X20519Y-23779D01*
X20519Y-23828D01*
X20519Y-24183D01*
X20542Y-24238D01*
X20575Y-24271D01*
X20542Y-24304D01*
X20519Y-24359D01*
X20519Y-24419D01*
X20519Y-24773D01*
X20542Y-24828D01*
X20575Y-24862D01*
X20542Y-24895D01*
X20519Y-24950D01*
X20519Y-25010D01*
X20519Y-25364D01*
X20520Y-25366D01*
X20457Y-25429D01*
X20419Y-25520D01*
X20419Y-25620D01*
X20419Y-25635D01*
X20481Y-25698D01*
X21012Y-25698D01*
X21012Y-25690D01*
X21112Y-25690D01*
X21112Y-25698D01*
X21644Y-25698D01*
X21706Y-25635D01*
X21706Y-25620D01*
X21706Y-25520D01*
X21668Y-25429D01*
X21605Y-25366D01*
X21606Y-25364D01*
X21606Y-25357D01*
X21732Y-25357D01*
X21808Y-25342D01*
X21873Y-25298D01*
X22280Y-24891D01*
X22387Y-24891D01*
X22506Y-24842D01*
X22598Y-24751D01*
X22647Y-24631D01*
X22647Y-24502D01*
X22598Y-24383D01*
X22507Y-24291D01*
X22387Y-24241D01*
X22258Y-24241D01*
X22138Y-24291D01*
X22047Y-24382D01*
X22027Y-24430D01*
X22007Y-24383D01*
X21916Y-24291D01*
X21797Y-24241D01*
X21667Y-24241D01*
X21563Y-24284D01*
X21550Y-24271D01*
X21583Y-24238D01*
X21606Y-24183D01*
X21606Y-24123D01*
X21606Y-23769D01*
X21583Y-23714D01*
X21541Y-23672D01*
X21486Y-23649D01*
X21426Y-23649D01*
X20982Y-23649D01*
X20988Y-23645D01*
X21879Y-22754D01*
X21840Y-22848D01*
X21840Y-22977D01*
X21889Y-23097D01*
X21981Y-23188D01*
X22100Y-23238D01*
X22229Y-23238D01*
X22349Y-23189D01*
X22440Y-23097D01*
X22460Y-23049D01*
X22480Y-23097D01*
X22555Y-23173D01*
X22555Y-23661D01*
X22571Y-23737D01*
X22614Y-23802D01*
X22831Y-24019D01*
X22831Y-25192D01*
X21945Y-26079D01*
X21901Y-26143D01*
X21886Y-26220D01*
X21886Y-26373D01*
X21590Y-26669D01*
X21586Y-26673D01*
X21583Y-26667D01*
X21550Y-26633D01*
X21583Y-26600D01*
X21606Y-26545D01*
X21606Y-26486D01*
X21606Y-26131D01*
X21605Y-26129D01*
X21668Y-26066D01*
X21706Y-25975D01*
X21706Y-25875D01*
X21706Y-25860D01*
X21644Y-25798D01*
X21112Y-25798D01*
X21112Y-25805D01*
X21012Y-25805D01*
X21012Y-25798D01*
X20481Y-25798D01*
X20419Y-25860D01*
X20419Y-25875D01*
X20419Y-25975D01*
X20457Y-26066D01*
X20520Y-26129D01*
X20519Y-26131D01*
X20519Y-26191D01*
X20519Y-26545D01*
X20542Y-26600D01*
X20575Y-26633D01*
X20542Y-26666D01*
X20519Y-26722D01*
X20519Y-26781D01*
X20519Y-27136D01*
X20542Y-27191D01*
X20575Y-27224D01*
X20542Y-27257D01*
X20519Y-27312D01*
X20519Y-27372D01*
X20519Y-27726D01*
X20542Y-27781D01*
X20575Y-27814D01*
X20542Y-27847D01*
X20519Y-27903D01*
X20519Y-27962D01*
X20519Y-28317D01*
X20520Y-28319D01*
X20457Y-28381D01*
X20419Y-28473D01*
X20419Y-28573D01*
X20419Y-28588D01*
X20481Y-28650D01*
X21012Y-28650D01*
X21012Y-28642D01*
X21112Y-28642D01*
X21112Y-28650D01*
X21644Y-28650D01*
X21706Y-28588D01*
X21706Y-28573D01*
X21706Y-28473D01*
X21668Y-28381D01*
X21605Y-28319D01*
X21606Y-28317D01*
X21606Y-28257D01*
X21606Y-27903D01*
X21583Y-27848D01*
X21550Y-27814D01*
X21583Y-27781D01*
X21606Y-27726D01*
X21606Y-27667D01*
X21606Y-27312D01*
X21583Y-27257D01*
X21550Y-27224D01*
X21583Y-27191D01*
X21606Y-27136D01*
X21606Y-27129D01*
X21614Y-27129D01*
X21690Y-27113D01*
X21755Y-27070D01*
X21801Y-27024D01*
X21862Y-27086D01*
X21982Y-27135D01*
X22111Y-27136D01*
X22231Y-27086D01*
X22322Y-26995D01*
X22372Y-26875D01*
X22372Y-26746D01*
X22322Y-26627D01*
X22254Y-26558D01*
X22271Y-26533D01*
X22271Y-26533D01*
X22273Y-26520D01*
X22286Y-26456D01*
X22286Y-26456D01*
X22286Y-26303D01*
X23172Y-25417D01*
X23172Y-25417D01*
X23201Y-25373D01*
X23216Y-25352D01*
X23216Y-25352D01*
X23231Y-25275D01*
X23231Y-25275D01*
X23231Y-23937D01*
X23216Y-23860D01*
X23216Y-23860D01*
X23201Y-23838D01*
X23172Y-23795D01*
X23172Y-23795D01*
X22955Y-23578D01*
X22955Y-23172D01*
X23031Y-23097D01*
X23080Y-22978D01*
X23080Y-22849D01*
X23042Y-22755D01*
X23136Y-22716D01*
X23228Y-22625D01*
X23277Y-22505D01*
X23277Y-22454D01*
X23430Y-22607D01*
X23486Y-22630D01*
X23508Y-22630D01*
X23775Y-22897D01*
X23775Y-22897D01*
X23818Y-22926D01*
X23840Y-22940D01*
X23840Y-22940D01*
X23916Y-22955D01*
X23916Y-22955D01*
X24484Y-22955D01*
X24524Y-22996D01*
X24524Y-23267D01*
X24539Y-23344D01*
X24582Y-23409D01*
X25233Y-24059D01*
X25233Y-25586D01*
X24917Y-25902D01*
X24669Y-25902D01*
X24603Y-25836D01*
X24698Y-25876D01*
X24828Y-25876D01*
X24947Y-25826D01*
X25039Y-25735D01*
X25088Y-25616D01*
X25088Y-25486D01*
X25039Y-25367D01*
X25013Y-25341D01*
X25013Y-24737D01*
X25039Y-24711D01*
X25088Y-24592D01*
X25088Y-24463D01*
X25039Y-24343D01*
X24948Y-24252D01*
X24828Y-24202D01*
X24699Y-24202D01*
X24579Y-24251D01*
X24488Y-24343D01*
X24438Y-24462D01*
X24438Y-24591D01*
X24488Y-24711D01*
X24513Y-24737D01*
X24513Y-25341D01*
X24488Y-25366D01*
X24438Y-25486D01*
X24438Y-25615D01*
X24488Y-25735D01*
X24570Y-25817D01*
X24474Y-25777D01*
X24345Y-25777D01*
X24225Y-25826D01*
X24147Y-25904D01*
X24147Y-23622D01*
X24128Y-23526D01*
X24074Y-23445D01*
X23868Y-23239D01*
X23868Y-23124D01*
X23818Y-23005D01*
X23727Y-22913D01*
X23608Y-22864D01*
X23478Y-22863D01*
X23359Y-22913D01*
X23267Y-23004D01*
X23218Y-23124D01*
X23218Y-23253D01*
X23267Y-23372D01*
X23358Y-23464D01*
X23405Y-23483D01*
X23647Y-23725D01*
X23647Y-26077D01*
X23366Y-26358D01*
X23312Y-26439D01*
X23293Y-26535D01*
X23293Y-27349D01*
X23267Y-27374D01*
X23218Y-27494D01*
X23218Y-27623D01*
X23267Y-27742D01*
X23358Y-27834D01*
X23478Y-27883D01*
X23607Y-27884D01*
X23727Y-27834D01*
X23818Y-27743D01*
X23868Y-27623D01*
X23868Y-27494D01*
X23818Y-27375D01*
X23793Y-27349D01*
X23793Y-26638D01*
X24074Y-26357D01*
X24128Y-26276D01*
X24129Y-26274D01*
X24133Y-26286D01*
X24225Y-26377D01*
X24344Y-26427D01*
X24473Y-26427D01*
X24593Y-26378D01*
X24669Y-26302D01*
X24790Y-26302D01*
X24753Y-26391D01*
X24753Y-26521D01*
X24803Y-26640D01*
X24828Y-26666D01*
X24828Y-27345D01*
X24749Y-27312D01*
X24620Y-27312D01*
X24501Y-27362D01*
X24409Y-27453D01*
X24360Y-27572D01*
X24359Y-27702D01*
X24409Y-27821D01*
X24485Y-27897D01*
X24485Y-27988D01*
X24386Y-28086D01*
X24342Y-28151D01*
X24327Y-28228D01*
X24327Y-29133D01*
X24342Y-29210D01*
X24386Y-29275D01*
X24779Y-29668D01*
X24779Y-29668D01*
X24823Y-29697D01*
X24844Y-29712D01*
X24844Y-29712D01*
X24921Y-29727D01*
X25196Y-29727D01*
X28543Y-29727D01*
X28619Y-29712D01*
X28684Y-29668D01*
X28894Y-29458D01*
X29001Y-29458D01*
X29120Y-29409D01*
X29212Y-29318D01*
X29261Y-29198D01*
X29262Y-29069D01*
X29213Y-28950D01*
X29330Y-28950D01*
X29426Y-28931D01*
X29507Y-28877D01*
X30067Y-28317D01*
X30103Y-28317D01*
X30223Y-28267D01*
X30314Y-28176D01*
X30364Y-28057D01*
X30364Y-27927D01*
X30315Y-27808D01*
X30223Y-27716D01*
X30104Y-27667D01*
X29975Y-27667D01*
X29855Y-27716D01*
X29764Y-27807D01*
X29714Y-27927D01*
X29714Y-27963D01*
X29227Y-28450D01*
X28675Y-28450D01*
X28670Y-28438D01*
X28637Y-28405D01*
X28670Y-28372D01*
X28693Y-28317D01*
X28693Y-28257D01*
X28693Y-27903D01*
X28670Y-27848D01*
X28637Y-27814D01*
X28670Y-27781D01*
X28693Y-27726D01*
X28693Y-27667D01*
X28693Y-27312D01*
X28670Y-27257D01*
X28637Y-27224D01*
X28670Y-27191D01*
X28693Y-27136D01*
X28693Y-27076D01*
X28693Y-26722D01*
X28670Y-26667D01*
X28637Y-26633D01*
X28670Y-26600D01*
X28693Y-26545D01*
X28693Y-26486D01*
X28693Y-26131D01*
X28670Y-26076D01*
X28637Y-26043D01*
X28670Y-26010D01*
X28693Y-25955D01*
X28693Y-25895D01*
X28693Y-25541D01*
X28670Y-25486D01*
X28637Y-25452D01*
X28670Y-25419D01*
X28693Y-25364D01*
X28693Y-25304D01*
X28693Y-24950D01*
X28670Y-24895D01*
X28637Y-24862D01*
X28670Y-24829D01*
X28693Y-24774D01*
X28693Y-24714D01*
X28693Y-24360D01*
X28692Y-24357D01*
X28755Y-24295D01*
X28793Y-24203D01*
X28793Y-24104D01*
X28793Y-24088D01*
X28730Y-24026D01*
X28199Y-24026D01*
X28199Y-24034D01*
X28099Y-24034D01*
X28099Y-24026D01*
X27568Y-24026D01*
X27505Y-24088D01*
X27505Y-24104D01*
X27505Y-24203D01*
X27544Y-24295D01*
X27606Y-24357D01*
X27605Y-24359D01*
X27605Y-24366D01*
X27563Y-24366D01*
X27031Y-23834D01*
X26966Y-23791D01*
X26889Y-23776D01*
X26795Y-23776D01*
X26761Y-23743D01*
X27508Y-23743D01*
X27505Y-23749D01*
X27505Y-23848D01*
X27505Y-23863D01*
X27568Y-23926D01*
X28099Y-23926D01*
X28099Y-23918D01*
X28199Y-23918D01*
X28199Y-23926D01*
X28730Y-23926D01*
X28785Y-23871D01*
X30055Y-25141D01*
X30120Y-25184D01*
X30120Y-25184D01*
X30196Y-25200D01*
X30595Y-25200D01*
X30618Y-25254D01*
X30744Y-25381D01*
X30910Y-25449D01*
X31089Y-25450D01*
X31254Y-25381D01*
X31381Y-25255D01*
X31449Y-25089D01*
X31450Y-24910D01*
X31450Y-25910D01*
X31381Y-25745D01*
X31255Y-25618D01*
X31089Y-25550D01*
X30910Y-25549D01*
X30745Y-25618D01*
X30618Y-25744D01*
X30550Y-25910D01*
X30549Y-26089D01*
X30618Y-26254D01*
X30744Y-26381D01*
X30910Y-26449D01*
X31089Y-26450D01*
X31254Y-26381D01*
X31381Y-26255D01*
X31449Y-26089D01*
X31450Y-25910D01*
X31450Y-31326D01*
X31450Y-31326D01*
X31450Y-27270D01*
X31450Y-26670D01*
X31427Y-26615D01*
X31385Y-26572D01*
X31329Y-26550D01*
X31270Y-26549D01*
X30832Y-26549D01*
X30121Y-25838D01*
X30121Y-25732D01*
X30196Y-25656D01*
X30246Y-25537D01*
X30246Y-25408D01*
X30196Y-25288D01*
X30105Y-25197D01*
X29986Y-25147D01*
X29856Y-25147D01*
X29737Y-25196D01*
X29645Y-25288D01*
X29596Y-25407D01*
X29596Y-25536D01*
X29645Y-25656D01*
X29721Y-25732D01*
X29721Y-25921D01*
X29736Y-25997D01*
X29779Y-26062D01*
X30549Y-26832D01*
X30549Y-27329D01*
X30572Y-27384D01*
X30614Y-27427D01*
X30670Y-27449D01*
X30729Y-27450D01*
X31329Y-27450D01*
X31384Y-27427D01*
X31427Y-27385D01*
X31449Y-27329D01*
X31450Y-27270D01*
X31450Y-31326D01*
X29921Y-31326D01*
X24301Y-31326D01*
X24301Y-28754D01*
X24252Y-28635D01*
X24160Y-28543D01*
X24041Y-28493D01*
X23912Y-28493D01*
X23792Y-28543D01*
X23716Y-28618D01*
X22739Y-28618D01*
X22664Y-28543D01*
X22545Y-28493D01*
X22415Y-28493D01*
X22296Y-28543D01*
X22204Y-28634D01*
X22155Y-28753D01*
X22155Y-28883D01*
X22204Y-29002D01*
X22295Y-29094D01*
X22415Y-29143D01*
X22544Y-29143D01*
X22664Y-29094D01*
X22739Y-29018D01*
X23716Y-29018D01*
X23792Y-29094D01*
X23911Y-29143D01*
X24040Y-29143D01*
X24160Y-29094D01*
X24251Y-29003D01*
X24301Y-28883D01*
X24301Y-28754D01*
X24301Y-31326D01*
X21706Y-31326D01*
X21706Y-28828D01*
X21706Y-28813D01*
X21644Y-28750D01*
X21112Y-28750D01*
X21112Y-29065D01*
X21175Y-29127D01*
X21506Y-29127D01*
X21598Y-29090D01*
X21668Y-29019D01*
X21706Y-28927D01*
X21706Y-28828D01*
X21706Y-31326D01*
X21012Y-31326D01*
X21012Y-29065D01*
X21012Y-28750D01*
X20481Y-28750D01*
X20419Y-28813D01*
X20419Y-28828D01*
X20419Y-28927D01*
X20457Y-29019D01*
X20527Y-29090D01*
X20619Y-29127D01*
X20950Y-29127D01*
X21012Y-29065D01*
X21012Y-31326D01*
X18110Y-31326D01*
X17492Y-31326D01*
X17492Y-16224D01*
X17518Y-16287D01*
X17614Y-16315D01*
X17929Y-16000D01*
X17614Y-15684D01*
X17518Y-15712D01*
X17492Y-15785D01*
X17492Y-11980D01*
X18110Y-11980D01*
X29921Y-11980D01*
X31720Y-11980D01*
X31720Y-31326D01*
X31720Y-31326D01*
G37*
G54D20*
X31720Y-31326D02*
X31554Y-31326D01*
X31554Y-14081D01*
X31543Y-13863D01*
X31481Y-13712D01*
X31450Y-13703D01*
X31450Y-12910D01*
X31381Y-12745D01*
X31255Y-12618D01*
X31089Y-12550D01*
X30910Y-12549D01*
X30745Y-12618D01*
X30618Y-12744D01*
X30550Y-12910D01*
X30549Y-13089D01*
X30618Y-13254D01*
X30744Y-13381D01*
X30910Y-13449D01*
X30986Y-13449D01*
X30863Y-13456D01*
X30712Y-13518D01*
X30684Y-13614D01*
X31000Y-13929D01*
X31315Y-13614D01*
X31287Y-13518D01*
X31092Y-13448D01*
X31254Y-13381D01*
X31381Y-13255D01*
X31449Y-13089D01*
X31450Y-12910D01*
X31450Y-13703D01*
X31385Y-13684D01*
X31070Y-14000D01*
X31385Y-14315D01*
X31481Y-14287D01*
X31554Y-14081D01*
X31554Y-31326D01*
X31450Y-31326D01*
X31450Y-25910D01*
X31450Y-24910D01*
X31381Y-24745D01*
X31255Y-24618D01*
X31089Y-24550D01*
X30910Y-24549D01*
X30745Y-24618D01*
X30618Y-24744D01*
X30595Y-24800D01*
X30279Y-24800D01*
X29679Y-24200D01*
X30595Y-24200D01*
X30618Y-24254D01*
X30744Y-24381D01*
X30910Y-24449D01*
X31089Y-24450D01*
X31254Y-24381D01*
X31381Y-24255D01*
X31449Y-24089D01*
X31450Y-23910D01*
X31381Y-23745D01*
X31255Y-23618D01*
X31089Y-23550D01*
X30910Y-23549D01*
X30836Y-23580D01*
X30836Y-23478D01*
X30807Y-23407D01*
X30910Y-23449D01*
X31089Y-23450D01*
X31254Y-23381D01*
X31381Y-23255D01*
X31449Y-23089D01*
X31450Y-22910D01*
X31381Y-22745D01*
X31255Y-22618D01*
X31089Y-22550D01*
X30910Y-22549D01*
X30745Y-22618D01*
X30618Y-22744D01*
X30566Y-22870D01*
X29663Y-22870D01*
X29663Y-22643D01*
X29663Y-22245D01*
X29642Y-22194D01*
X29663Y-22143D01*
X29663Y-21745D01*
X29642Y-21694D01*
X29663Y-21643D01*
X29663Y-21245D01*
X29642Y-21194D01*
X29663Y-21143D01*
X29663Y-21057D01*
X29600Y-20994D01*
X29109Y-20994D01*
X29109Y-21107D01*
X29109Y-21281D01*
X29109Y-21394D01*
X29600Y-21394D01*
X29663Y-21332D01*
X29663Y-21245D01*
X29663Y-21643D01*
X29663Y-21557D01*
X29600Y-21494D01*
X29109Y-21494D01*
X29109Y-21607D01*
X29109Y-21781D01*
X29109Y-21894D01*
X29600Y-21894D01*
X29663Y-21832D01*
X29663Y-21745D01*
X29663Y-22143D01*
X29663Y-22057D01*
X29600Y-21994D01*
X29109Y-21994D01*
X29109Y-22107D01*
X29109Y-22281D01*
X29109Y-22394D01*
X29600Y-22394D01*
X29663Y-22332D01*
X29663Y-22245D01*
X29663Y-22643D01*
X29663Y-22557D01*
X29600Y-22494D01*
X29109Y-22494D01*
X29109Y-22781D01*
X29171Y-22844D01*
X29363Y-22844D01*
X29463Y-22844D01*
X29555Y-22806D01*
X29625Y-22735D01*
X29663Y-22643D01*
X29663Y-22870D01*
X29009Y-22870D01*
X29009Y-22781D01*
X29009Y-22494D01*
X29009Y-22394D01*
X29009Y-22281D01*
X29009Y-22107D01*
X29009Y-21994D01*
X29009Y-21894D01*
X29009Y-21781D01*
X29009Y-21607D01*
X29009Y-21494D01*
X29009Y-21394D01*
X29009Y-21281D01*
X29009Y-21107D01*
X29009Y-20994D01*
X28517Y-20994D01*
X28454Y-21057D01*
X28454Y-21143D01*
X28475Y-21194D01*
X28454Y-21245D01*
X28454Y-21332D01*
X28517Y-21394D01*
X29009Y-21394D01*
X29009Y-21494D01*
X28517Y-21494D01*
X28454Y-21557D01*
X28454Y-21643D01*
X28475Y-21694D01*
X28454Y-21745D01*
X28454Y-21832D01*
X28517Y-21894D01*
X29009Y-21894D01*
X29009Y-21994D01*
X28517Y-21994D01*
X28454Y-22057D01*
X28454Y-22143D01*
X28475Y-22194D01*
X28454Y-22245D01*
X28454Y-22332D01*
X28517Y-22394D01*
X29009Y-22394D01*
X29009Y-22494D01*
X28517Y-22494D01*
X28454Y-22557D01*
X28454Y-22643D01*
X28492Y-22735D01*
X28562Y-22806D01*
X28654Y-22844D01*
X28754Y-22844D01*
X28946Y-22844D01*
X29009Y-22781D01*
X29009Y-22870D01*
X27352Y-22870D01*
X27401Y-22822D01*
X27450Y-22702D01*
X27451Y-22573D01*
X27401Y-22453D01*
X27310Y-22362D01*
X27190Y-22312D01*
X27083Y-22312D01*
X27074Y-22303D01*
X27009Y-22260D01*
X26933Y-22244D01*
X26554Y-22244D01*
X26540Y-22210D01*
X26525Y-22194D01*
X26540Y-22179D01*
X26554Y-22144D01*
X26882Y-22144D01*
X26941Y-22204D01*
X27061Y-22254D01*
X27190Y-22254D01*
X27309Y-22204D01*
X27401Y-22113D01*
X27450Y-21994D01*
X27451Y-21864D01*
X27401Y-21745D01*
X27329Y-21673D01*
X27401Y-21601D01*
X27450Y-21482D01*
X27451Y-21352D01*
X27401Y-21233D01*
X27310Y-21141D01*
X27214Y-21102D01*
X27309Y-21063D01*
X27401Y-20971D01*
X27450Y-20852D01*
X27451Y-20723D01*
X27401Y-20603D01*
X27391Y-20593D01*
X28552Y-20593D01*
X28492Y-20653D01*
X28454Y-20745D01*
X28454Y-20832D01*
X28517Y-20894D01*
X29009Y-20894D01*
X29009Y-20887D01*
X29109Y-20887D01*
X29109Y-20894D01*
X29600Y-20894D01*
X29663Y-20832D01*
X29663Y-20812D01*
X30233Y-21382D01*
X30233Y-21771D01*
X30248Y-21848D01*
X30291Y-21913D01*
X30519Y-22141D01*
X30519Y-22141D01*
X30563Y-22170D01*
X30584Y-22184D01*
X30584Y-22184D01*
X30589Y-22185D01*
X30618Y-22254D01*
X30744Y-22381D01*
X30910Y-22449D01*
X31089Y-22450D01*
X31254Y-22381D01*
X31381Y-22255D01*
X31449Y-22089D01*
X31450Y-21910D01*
X31381Y-21745D01*
X31255Y-21618D01*
X31089Y-21550D01*
X30910Y-21549D01*
X30745Y-21618D01*
X30653Y-21709D01*
X30633Y-21688D01*
X30633Y-21299D01*
X30625Y-21261D01*
X30744Y-21381D01*
X30910Y-21449D01*
X31089Y-21450D01*
X31254Y-21381D01*
X31381Y-21255D01*
X31449Y-21089D01*
X31450Y-20910D01*
X31381Y-20745D01*
X31255Y-20618D01*
X31089Y-20550D01*
X30910Y-20549D01*
X30745Y-20618D01*
X30705Y-20658D01*
X30128Y-20081D01*
X30549Y-20081D01*
X30549Y-20089D01*
X30618Y-20254D01*
X30744Y-20381D01*
X30910Y-20449D01*
X31089Y-20450D01*
X31254Y-20381D01*
X31381Y-20255D01*
X31449Y-20089D01*
X31450Y-19910D01*
X31381Y-19745D01*
X31255Y-19618D01*
X31089Y-19550D01*
X30910Y-19549D01*
X30745Y-19618D01*
X30681Y-19681D01*
X26223Y-19681D01*
X26223Y-19605D01*
X26253Y-19634D01*
X26308Y-19657D01*
X26368Y-19657D01*
X26840Y-19657D01*
X26895Y-19635D01*
X26938Y-19592D01*
X26947Y-19570D01*
X28249Y-19570D01*
X28258Y-19592D01*
X28300Y-19634D01*
X28355Y-19657D01*
X28415Y-19657D01*
X28887Y-19657D01*
X28943Y-19635D01*
X28985Y-19592D01*
X29008Y-19537D01*
X29008Y-19478D01*
X29008Y-19330D01*
X29110Y-19432D01*
X29110Y-19432D01*
X29153Y-19461D01*
X29175Y-19476D01*
X29175Y-19476D01*
X29251Y-19491D01*
X29251Y-19491D01*
X30511Y-19491D01*
X30588Y-19476D01*
X30653Y-19432D01*
X30724Y-19361D01*
X30744Y-19381D01*
X30910Y-19449D01*
X31089Y-19450D01*
X31254Y-19381D01*
X31381Y-19255D01*
X31449Y-19089D01*
X31450Y-18910D01*
X31381Y-18745D01*
X31255Y-18618D01*
X31089Y-18550D01*
X30910Y-18549D01*
X30745Y-18618D01*
X30618Y-18744D01*
X30550Y-18910D01*
X30550Y-18970D01*
X30428Y-19091D01*
X29557Y-19091D01*
X29606Y-19042D01*
X29655Y-18923D01*
X29655Y-18894D01*
X29964Y-18585D01*
X30196Y-18585D01*
X30273Y-18570D01*
X30338Y-18527D01*
X30616Y-18249D01*
X30618Y-18254D01*
X30744Y-18381D01*
X30910Y-18449D01*
X31089Y-18450D01*
X31254Y-18381D01*
X31381Y-18255D01*
X31449Y-18089D01*
X31450Y-17910D01*
X31450Y-16910D01*
X31381Y-16745D01*
X31255Y-16618D01*
X31089Y-16550D01*
X30910Y-16549D01*
X30745Y-16618D01*
X30618Y-16744D01*
X30595Y-16800D01*
X30283Y-16800D01*
X30206Y-16815D01*
X30185Y-16829D01*
X30142Y-16858D01*
X29779Y-17220D01*
X29738Y-17283D01*
X29737Y-17283D01*
X29645Y-17374D01*
X29596Y-17494D01*
X29596Y-17623D01*
X29645Y-17742D01*
X29736Y-17834D01*
X29856Y-17883D01*
X29985Y-17884D01*
X30105Y-17834D01*
X30196Y-17743D01*
X30246Y-17623D01*
X30246Y-17494D01*
X30196Y-17375D01*
X30194Y-17372D01*
X30366Y-17200D01*
X30595Y-17200D01*
X30618Y-17254D01*
X30744Y-17381D01*
X30910Y-17449D01*
X31089Y-17450D01*
X31254Y-17381D01*
X31381Y-17255D01*
X31449Y-17089D01*
X31450Y-16910D01*
X31450Y-17910D01*
X31381Y-17745D01*
X31255Y-17618D01*
X31089Y-17550D01*
X30910Y-17549D01*
X30745Y-17618D01*
X30618Y-17744D01*
X30595Y-17800D01*
X30582Y-17800D01*
X30518Y-17812D01*
X30506Y-17815D01*
X30441Y-17858D01*
X30114Y-18185D01*
X29881Y-18185D01*
X29818Y-18198D01*
X29805Y-18201D01*
X29740Y-18244D01*
X29435Y-18549D01*
X29395Y-18533D01*
X29266Y-18533D01*
X29146Y-18582D01*
X29108Y-18621D01*
X29108Y-18356D01*
X29108Y-18179D01*
X29108Y-18079D01*
X29070Y-17988D01*
X28999Y-17917D01*
X28907Y-17879D01*
X28734Y-17879D01*
X28672Y-17942D01*
X28672Y-18217D01*
X29045Y-18217D01*
X29108Y-18155D01*
X29108Y-18179D01*
X29108Y-18356D01*
X29108Y-18380D01*
X29045Y-18317D01*
X28672Y-18317D01*
X28672Y-18593D01*
X28734Y-18655D01*
X28907Y-18655D01*
X28999Y-18617D01*
X29070Y-18547D01*
X29108Y-18455D01*
X29108Y-18356D01*
X29108Y-18621D01*
X29055Y-18673D01*
X29014Y-18771D01*
X28960Y-18716D01*
X28895Y-18673D01*
X28818Y-18658D01*
X28572Y-18658D01*
X28572Y-18593D01*
X28572Y-18317D01*
X28572Y-18217D01*
X28572Y-17942D01*
X28509Y-17879D01*
X28336Y-17879D01*
X28244Y-17917D01*
X28174Y-17988D01*
X28135Y-18079D01*
X28135Y-18179D01*
X28135Y-18155D01*
X28198Y-18217D01*
X28572Y-18217D01*
X28572Y-18317D01*
X28198Y-18317D01*
X28135Y-18380D01*
X28135Y-18356D01*
X28135Y-18455D01*
X28174Y-18547D01*
X28244Y-18617D01*
X28336Y-18655D01*
X28509Y-18655D01*
X28572Y-18593D01*
X28572Y-18658D01*
X27061Y-18658D01*
X27061Y-18356D01*
X27061Y-18179D01*
X27060Y-18079D01*
X27022Y-17988D01*
X26952Y-17917D01*
X26860Y-17879D01*
X26687Y-17879D01*
X26624Y-17942D01*
X26624Y-18217D01*
X26998Y-18217D01*
X27061Y-18155D01*
X27061Y-18179D01*
X27061Y-18356D01*
X27061Y-18380D01*
X26998Y-18317D01*
X26624Y-18317D01*
X26624Y-18593D01*
X26687Y-18655D01*
X26860Y-18655D01*
X26952Y-18617D01*
X27022Y-18547D01*
X27060Y-18455D01*
X27061Y-18356D01*
X27061Y-18658D01*
X26460Y-18658D01*
X26458Y-18655D01*
X26462Y-18655D01*
X26524Y-18593D01*
X26524Y-18317D01*
X26524Y-18217D01*
X26524Y-17942D01*
X26462Y-17879D01*
X26289Y-17879D01*
X26197Y-17917D01*
X26126Y-17988D01*
X26088Y-18079D01*
X26088Y-18179D01*
X26088Y-18155D01*
X26151Y-18217D01*
X26524Y-18217D01*
X26524Y-18317D01*
X26151Y-18317D01*
X26135Y-18333D01*
X25692Y-17890D01*
X25627Y-17846D01*
X25551Y-17831D01*
X25009Y-17831D01*
X25593Y-17247D01*
X26201Y-17247D01*
X26211Y-17269D01*
X26253Y-17312D01*
X26308Y-17335D01*
X26368Y-17335D01*
X26840Y-17335D01*
X26895Y-17312D01*
X26938Y-17270D01*
X26947Y-17247D01*
X28249Y-17247D01*
X28258Y-17269D01*
X28300Y-17312D01*
X28355Y-17335D01*
X28415Y-17335D01*
X28887Y-17335D01*
X28943Y-17312D01*
X28985Y-17270D01*
X29008Y-17215D01*
X29008Y-17155D01*
X29008Y-17140D01*
X29367Y-16781D01*
X29473Y-16781D01*
X29593Y-16732D01*
X29684Y-16641D01*
X29734Y-16521D01*
X29734Y-16392D01*
X29685Y-16272D01*
X29593Y-16181D01*
X29531Y-16155D01*
X30118Y-16155D01*
X30213Y-16136D01*
X30294Y-16082D01*
X30382Y-15994D01*
X30418Y-15994D01*
X30538Y-15944D01*
X30550Y-15933D01*
X30549Y-16089D01*
X30618Y-16254D01*
X30744Y-16381D01*
X30910Y-16449D01*
X31089Y-16450D01*
X31254Y-16381D01*
X31381Y-16255D01*
X31449Y-16089D01*
X31450Y-15910D01*
X31450Y-14910D01*
X31381Y-14745D01*
X31255Y-14618D01*
X31089Y-14550D01*
X31013Y-14550D01*
X31136Y-14543D01*
X31287Y-14481D01*
X31315Y-14385D01*
X31000Y-14070D01*
X30929Y-14141D01*
X30929Y-14000D01*
X30614Y-13684D01*
X30518Y-13712D01*
X30445Y-13918D01*
X30456Y-14136D01*
X30518Y-14287D01*
X30614Y-14315D01*
X30929Y-14000D01*
X30929Y-14141D01*
X30684Y-14385D01*
X30712Y-14481D01*
X30907Y-14551D01*
X30745Y-14618D01*
X30618Y-14744D01*
X30595Y-14800D01*
X29807Y-14800D01*
X29734Y-14727D01*
X29734Y-14620D01*
X29685Y-14501D01*
X29593Y-14409D01*
X29474Y-14360D01*
X29345Y-14359D01*
X29225Y-14409D01*
X29134Y-14500D01*
X29084Y-14620D01*
X29084Y-14749D01*
X29133Y-14868D01*
X29225Y-14960D01*
X29344Y-15009D01*
X29451Y-15010D01*
X29582Y-15141D01*
X29582Y-15141D01*
X29626Y-15170D01*
X29647Y-15184D01*
X29647Y-15184D01*
X29724Y-15199D01*
X29724Y-15200D01*
X30595Y-15200D01*
X30618Y-15254D01*
X30744Y-15381D01*
X30910Y-15449D01*
X31089Y-15450D01*
X31254Y-15381D01*
X31381Y-15255D01*
X31449Y-15089D01*
X31450Y-14910D01*
X31450Y-15910D01*
X31381Y-15745D01*
X31255Y-15618D01*
X31089Y-15550D01*
X30910Y-15549D01*
X30745Y-15618D01*
X30679Y-15684D01*
X30679Y-15604D01*
X30630Y-15485D01*
X30538Y-15393D01*
X30419Y-15344D01*
X30289Y-15344D01*
X30170Y-15393D01*
X30078Y-15484D01*
X30029Y-15604D01*
X30029Y-15640D01*
X30014Y-15655D01*
X29591Y-15655D01*
X29192Y-15256D01*
X29111Y-15202D01*
X29015Y-15183D01*
X28828Y-15183D01*
X28828Y-13872D01*
X28789Y-13777D01*
X28789Y-12927D01*
X28740Y-12808D01*
X28648Y-12716D01*
X28529Y-12667D01*
X28400Y-12667D01*
X28323Y-12698D01*
X28316Y-12682D01*
X28274Y-12640D01*
X28218Y-12617D01*
X28159Y-12617D01*
X27765Y-12617D01*
X27710Y-12639D01*
X27668Y-12682D01*
X27645Y-12737D01*
X27645Y-12796D01*
X27645Y-13246D01*
X27668Y-13301D01*
X27710Y-13344D01*
X27765Y-13367D01*
X27824Y-13367D01*
X28218Y-13367D01*
X28273Y-13344D01*
X28316Y-13302D01*
X28323Y-13285D01*
X28399Y-13317D01*
X28528Y-13317D01*
X28648Y-13267D01*
X28739Y-13176D01*
X28789Y-13057D01*
X28789Y-12927D01*
X28789Y-13777D01*
X28779Y-13753D01*
X28688Y-13661D01*
X28568Y-13612D01*
X28439Y-13611D01*
X28328Y-13657D01*
X28316Y-13627D01*
X28274Y-13584D01*
X28218Y-13562D01*
X28159Y-13561D01*
X27765Y-13561D01*
X27710Y-13584D01*
X27668Y-13626D01*
X27645Y-13682D01*
X27645Y-13741D01*
X27645Y-14191D01*
X27668Y-14246D01*
X27710Y-14289D01*
X27765Y-14311D01*
X27824Y-14312D01*
X28218Y-14312D01*
X28273Y-14289D01*
X28316Y-14247D01*
X28328Y-14216D01*
X28439Y-14261D01*
X28568Y-14262D01*
X28687Y-14212D01*
X28779Y-14121D01*
X28828Y-14001D01*
X28828Y-13872D01*
X28828Y-15183D01*
X27926Y-15183D01*
X27900Y-15157D01*
X27781Y-15108D01*
X27652Y-15108D01*
X27612Y-15124D01*
X27612Y-14112D01*
X27612Y-13761D01*
X27612Y-13662D01*
X27574Y-13570D01*
X27503Y-13499D01*
X27418Y-13464D01*
X27503Y-13429D01*
X27574Y-13358D01*
X27612Y-13267D01*
X27612Y-13167D01*
X27612Y-12816D01*
X27612Y-12717D01*
X27574Y-12625D01*
X27503Y-12555D01*
X27411Y-12517D01*
X27277Y-12517D01*
X27215Y-12579D01*
X27215Y-12942D01*
X27549Y-12942D01*
X27612Y-12879D01*
X27612Y-12816D01*
X27612Y-13167D01*
X27612Y-13104D01*
X27549Y-13042D01*
X27215Y-13042D01*
X27215Y-13404D01*
X27275Y-13464D01*
X27215Y-13524D01*
X27215Y-13887D01*
X27549Y-13887D01*
X27612Y-13824D01*
X27612Y-13761D01*
X27612Y-14112D01*
X27612Y-14049D01*
X27549Y-13987D01*
X27215Y-13987D01*
X27215Y-14349D01*
X27277Y-14412D01*
X27411Y-14412D01*
X27503Y-14374D01*
X27574Y-14303D01*
X27612Y-14211D01*
X27612Y-14112D01*
X27612Y-15124D01*
X27532Y-15157D01*
X27441Y-15248D01*
X27391Y-15368D01*
X27391Y-15497D01*
X27440Y-15616D01*
X27532Y-15708D01*
X27651Y-15758D01*
X27780Y-15758D01*
X27900Y-15708D01*
X27926Y-15683D01*
X28166Y-15683D01*
X28135Y-15757D01*
X28135Y-15856D01*
X28135Y-15832D01*
X28198Y-15894D01*
X28572Y-15894D01*
X28572Y-15887D01*
X28672Y-15887D01*
X28672Y-15894D01*
X29045Y-15894D01*
X29084Y-15855D01*
X29311Y-16082D01*
X29385Y-16131D01*
X29345Y-16131D01*
X29225Y-16181D01*
X29134Y-16272D01*
X29108Y-16334D01*
X29108Y-16033D01*
X29108Y-16057D01*
X29045Y-15994D01*
X28672Y-15994D01*
X28672Y-16270D01*
X28734Y-16332D01*
X28907Y-16332D01*
X28999Y-16294D01*
X29070Y-16224D01*
X29108Y-16132D01*
X29108Y-16033D01*
X29108Y-16334D01*
X29084Y-16391D01*
X29084Y-16498D01*
X28823Y-16759D01*
X28572Y-16759D01*
X28572Y-16270D01*
X28572Y-15994D01*
X28198Y-15994D01*
X28135Y-16057D01*
X28135Y-16033D01*
X28135Y-16132D01*
X28174Y-16224D01*
X28244Y-16294D01*
X28336Y-16332D01*
X28509Y-16332D01*
X28572Y-16270D01*
X28572Y-16759D01*
X28356Y-16759D01*
X28300Y-16782D01*
X28258Y-16824D01*
X28249Y-16847D01*
X27115Y-16847D01*
X27115Y-14349D01*
X27115Y-13987D01*
X27115Y-13887D01*
X27115Y-13524D01*
X27055Y-13464D01*
X27115Y-13404D01*
X27115Y-13042D01*
X27115Y-12942D01*
X27115Y-12579D01*
X27052Y-12517D01*
X26918Y-12517D01*
X26827Y-12555D01*
X26756Y-12625D01*
X26718Y-12717D01*
X26718Y-12816D01*
X26718Y-12879D01*
X26781Y-12942D01*
X27115Y-12942D01*
X27115Y-13042D01*
X26781Y-13042D01*
X26718Y-13104D01*
X26718Y-13167D01*
X26718Y-13267D01*
X26756Y-13358D01*
X26827Y-13429D01*
X26912Y-13464D01*
X26827Y-13499D01*
X26756Y-13570D01*
X26718Y-13662D01*
X26718Y-13761D01*
X26718Y-13824D01*
X26781Y-13887D01*
X27115Y-13887D01*
X27115Y-13987D01*
X26781Y-13987D01*
X26718Y-14049D01*
X26718Y-14112D01*
X26718Y-14211D01*
X26756Y-14303D01*
X26827Y-14374D01*
X26918Y-14412D01*
X27052Y-14412D01*
X27115Y-14349D01*
X27115Y-16847D01*
X27061Y-16847D01*
X27061Y-16033D01*
X27061Y-15856D01*
X27060Y-15757D01*
X27022Y-15665D01*
X26952Y-15595D01*
X26860Y-15557D01*
X26687Y-15557D01*
X26646Y-15598D01*
X26646Y-14064D01*
X26646Y-13277D01*
X26623Y-13222D01*
X26581Y-13179D01*
X26526Y-13157D01*
X26466Y-13157D01*
X24104Y-13157D01*
X24049Y-13179D01*
X24006Y-13222D01*
X23983Y-13277D01*
X23983Y-13336D01*
X23983Y-14124D01*
X24006Y-14179D01*
X24048Y-14221D01*
X24103Y-14244D01*
X24163Y-14244D01*
X24488Y-14244D01*
X23913Y-14819D01*
X23870Y-14884D01*
X23855Y-14960D01*
X23855Y-15176D01*
X23828Y-15176D01*
X23773Y-15198D01*
X23731Y-15241D01*
X23708Y-15296D01*
X23708Y-15355D01*
X23708Y-15619D01*
X23636Y-15619D01*
X23516Y-15669D01*
X23425Y-15760D01*
X23375Y-15879D01*
X23375Y-16009D01*
X23425Y-16128D01*
X23516Y-16220D01*
X23635Y-16269D01*
X23765Y-16269D01*
X23884Y-16220D01*
X23976Y-16129D01*
X24025Y-16009D01*
X24025Y-15926D01*
X24281Y-15926D01*
X24336Y-15903D01*
X24379Y-15861D01*
X24401Y-15806D01*
X24401Y-15746D01*
X24401Y-15296D01*
X24379Y-15241D01*
X24337Y-15199D01*
X24281Y-15176D01*
X24255Y-15176D01*
X24255Y-15043D01*
X25054Y-14244D01*
X26525Y-14244D01*
X26580Y-14221D01*
X26623Y-14179D01*
X26646Y-14124D01*
X26646Y-14064D01*
X26646Y-15598D01*
X26624Y-15619D01*
X26624Y-15894D01*
X26998Y-15894D01*
X27061Y-15832D01*
X27061Y-15856D01*
X27061Y-16033D01*
X27061Y-16057D01*
X26998Y-15994D01*
X26624Y-15994D01*
X26624Y-16270D01*
X26687Y-16332D01*
X26860Y-16332D01*
X26952Y-16294D01*
X27022Y-16224D01*
X27060Y-16132D01*
X27061Y-16033D01*
X27061Y-16847D01*
X26947Y-16847D01*
X26938Y-16824D01*
X26896Y-16782D01*
X26840Y-16759D01*
X26781Y-16759D01*
X26524Y-16759D01*
X26524Y-16270D01*
X26524Y-15994D01*
X26524Y-15894D01*
X26524Y-15619D01*
X26462Y-15557D01*
X26289Y-15557D01*
X26197Y-15595D01*
X26126Y-15665D01*
X26088Y-15757D01*
X26088Y-15856D01*
X26088Y-15832D01*
X26151Y-15894D01*
X26524Y-15894D01*
X26524Y-15994D01*
X26151Y-15994D01*
X26088Y-16057D01*
X26088Y-16033D01*
X26088Y-16132D01*
X26126Y-16224D01*
X26197Y-16294D01*
X26289Y-16332D01*
X26462Y-16332D01*
X26524Y-16270D01*
X26524Y-16759D01*
X26308Y-16759D01*
X26253Y-16782D01*
X26211Y-16824D01*
X26201Y-16847D01*
X26033Y-16847D01*
X26033Y-16234D01*
X25984Y-16115D01*
X25892Y-16023D01*
X25773Y-15974D01*
X25644Y-15974D01*
X25524Y-16023D01*
X25499Y-16049D01*
X25328Y-16049D01*
X25328Y-15726D01*
X25328Y-15375D01*
X25328Y-15276D01*
X25290Y-15184D01*
X25220Y-15114D01*
X25128Y-15076D01*
X24994Y-15076D01*
X24931Y-15138D01*
X24931Y-15501D01*
X25266Y-15501D01*
X25328Y-15438D01*
X25328Y-15375D01*
X25328Y-15726D01*
X25328Y-15663D01*
X25266Y-15601D01*
X24931Y-15601D01*
X24931Y-15963D01*
X24994Y-16026D01*
X25128Y-16026D01*
X25220Y-15988D01*
X25290Y-15917D01*
X25328Y-15826D01*
X25328Y-15726D01*
X25328Y-16049D01*
X25314Y-16049D01*
X25219Y-16068D01*
X25138Y-16122D01*
X24831Y-16428D01*
X24831Y-15963D01*
X24831Y-15601D01*
X24831Y-15501D01*
X24831Y-15138D01*
X24769Y-15076D01*
X24635Y-15076D01*
X24543Y-15114D01*
X24473Y-15184D01*
X24435Y-15276D01*
X24434Y-15375D01*
X24435Y-15438D01*
X24497Y-15501D01*
X24831Y-15501D01*
X24831Y-15601D01*
X24497Y-15601D01*
X24435Y-15663D01*
X24434Y-15726D01*
X24435Y-15826D01*
X24473Y-15917D01*
X24543Y-15988D01*
X24635Y-16026D01*
X24769Y-16026D01*
X24831Y-15963D01*
X24831Y-16428D01*
X24617Y-16643D01*
X24581Y-16643D01*
X24461Y-16692D01*
X24370Y-16784D01*
X24320Y-16903D01*
X24320Y-17032D01*
X24369Y-17152D01*
X24461Y-17243D01*
X24580Y-17293D01*
X24710Y-17293D01*
X24829Y-17244D01*
X24921Y-17152D01*
X24970Y-17033D01*
X24970Y-16997D01*
X25418Y-16549D01*
X25499Y-16549D01*
X25524Y-16574D01*
X25643Y-16624D01*
X25773Y-16624D01*
X25892Y-16574D01*
X25984Y-16483D01*
X26033Y-16364D01*
X26033Y-16234D01*
X26033Y-16847D01*
X25510Y-16847D01*
X25433Y-16862D01*
X25412Y-16876D01*
X25369Y-16905D01*
X24412Y-17862D01*
X24412Y-17322D01*
X24412Y-17322D01*
X24397Y-17246D01*
X24397Y-17246D01*
X24382Y-17224D01*
X24354Y-17181D01*
X24354Y-17181D01*
X23487Y-16315D01*
X23422Y-16271D01*
X23346Y-16256D01*
X23009Y-16256D01*
X23097Y-16220D01*
X23188Y-16129D01*
X23238Y-16009D01*
X23238Y-15880D01*
X23189Y-15761D01*
X23097Y-15669D01*
X22978Y-15619D01*
X22945Y-15619D01*
X22945Y-15296D01*
X22922Y-15241D01*
X22880Y-15199D01*
X22825Y-15176D01*
X22798Y-15176D01*
X22798Y-15000D01*
X22783Y-14923D01*
X22739Y-14858D01*
X22125Y-14244D01*
X22588Y-14244D01*
X22643Y-14221D01*
X22686Y-14179D01*
X22709Y-14124D01*
X22709Y-14064D01*
X22709Y-13277D01*
X22686Y-13222D01*
X22644Y-13179D01*
X22589Y-13157D01*
X22529Y-13157D01*
X20167Y-13157D01*
X20111Y-13179D01*
X20069Y-13222D01*
X20046Y-13277D01*
X20046Y-13298D01*
X20039Y-13280D01*
X19948Y-13189D01*
X19828Y-13139D01*
X19721Y-13139D01*
X19440Y-12858D01*
X19375Y-12815D01*
X19299Y-12800D01*
X18450Y-12800D01*
X18450Y-12670D01*
X18427Y-12615D01*
X18385Y-12572D01*
X18329Y-12550D01*
X18270Y-12549D01*
X17670Y-12549D01*
X17615Y-12572D01*
X17572Y-12614D01*
X17550Y-12670D01*
X17549Y-12729D01*
X17549Y-13329D01*
X17572Y-13384D01*
X17614Y-13427D01*
X17670Y-13449D01*
X17729Y-13450D01*
X18329Y-13450D01*
X18384Y-13427D01*
X18427Y-13385D01*
X18449Y-13329D01*
X18450Y-13270D01*
X18450Y-13200D01*
X19216Y-13200D01*
X19438Y-13422D01*
X19438Y-13528D01*
X19488Y-13648D01*
X19579Y-13739D01*
X19698Y-13789D01*
X19828Y-13789D01*
X19947Y-13740D01*
X20039Y-13648D01*
X20046Y-13630D01*
X20046Y-14124D01*
X20069Y-14179D01*
X20111Y-14221D01*
X20166Y-14244D01*
X20226Y-14244D01*
X21560Y-14244D01*
X22398Y-15082D01*
X22398Y-15176D01*
X22371Y-15176D01*
X22316Y-15198D01*
X22274Y-15241D01*
X22251Y-15296D01*
X22251Y-15355D01*
X22251Y-15805D01*
X22274Y-15861D01*
X22316Y-15903D01*
X22371Y-15926D01*
X22431Y-15926D01*
X22588Y-15926D01*
X22588Y-16009D01*
X22637Y-16128D01*
X22729Y-16220D01*
X22816Y-16256D01*
X22218Y-16256D01*
X22218Y-15726D01*
X22218Y-15375D01*
X22218Y-15276D01*
X22180Y-15184D01*
X22109Y-15114D01*
X22018Y-15076D01*
X21884Y-15076D01*
X21821Y-15138D01*
X21821Y-15501D01*
X22156Y-15501D01*
X22218Y-15438D01*
X22218Y-15375D01*
X22218Y-15726D01*
X22218Y-15663D01*
X22156Y-15601D01*
X21821Y-15601D01*
X21821Y-15963D01*
X21884Y-16026D01*
X22018Y-16026D01*
X22109Y-15988D01*
X22180Y-15917D01*
X22218Y-15826D01*
X22218Y-15726D01*
X22218Y-16256D01*
X21721Y-16256D01*
X21721Y-15963D01*
X21721Y-15601D01*
X21721Y-15501D01*
X21721Y-15138D01*
X21659Y-15076D01*
X21525Y-15076D01*
X21433Y-15114D01*
X21362Y-15184D01*
X21324Y-15276D01*
X21324Y-15375D01*
X21324Y-15438D01*
X21387Y-15501D01*
X21721Y-15501D01*
X21721Y-15601D01*
X21387Y-15601D01*
X21324Y-15663D01*
X21324Y-15726D01*
X21324Y-15826D01*
X21362Y-15917D01*
X21433Y-15988D01*
X21525Y-16026D01*
X21659Y-16026D01*
X21721Y-15963D01*
X21721Y-16256D01*
X20870Y-16256D01*
X20141Y-15527D01*
X20076Y-15484D01*
X20000Y-15469D01*
X19610Y-15469D01*
X19412Y-15271D01*
X19412Y-14370D01*
X19412Y-14370D01*
X19397Y-14293D01*
X19397Y-14293D01*
X19382Y-14272D01*
X19354Y-14228D01*
X19354Y-14228D01*
X18983Y-13858D01*
X18919Y-13815D01*
X18842Y-13800D01*
X18404Y-13800D01*
X18381Y-13745D01*
X18255Y-13618D01*
X18089Y-13550D01*
X17910Y-13549D01*
X17745Y-13618D01*
X17618Y-13744D01*
X17550Y-13910D01*
X17549Y-14089D01*
X17618Y-14254D01*
X17744Y-14381D01*
X17910Y-14449D01*
X18089Y-14450D01*
X18254Y-14381D01*
X18381Y-14255D01*
X18404Y-14200D01*
X18759Y-14200D01*
X19012Y-14452D01*
X19012Y-15354D01*
X19027Y-15430D01*
X19071Y-15495D01*
X19386Y-15810D01*
X19386Y-15810D01*
X19429Y-15839D01*
X19451Y-15854D01*
X19451Y-15854D01*
X19527Y-15869D01*
X19527Y-15869D01*
X19667Y-15869D01*
X19579Y-15905D01*
X19488Y-15996D01*
X19438Y-16116D01*
X19438Y-16245D01*
X19488Y-16364D01*
X19579Y-16456D01*
X19698Y-16506D01*
X19805Y-16506D01*
X20099Y-16800D01*
X18554Y-16800D01*
X18554Y-16081D01*
X18543Y-15863D01*
X18481Y-15712D01*
X18450Y-15703D01*
X18450Y-14910D01*
X18381Y-14745D01*
X18255Y-14618D01*
X18089Y-14550D01*
X17910Y-14549D01*
X17745Y-14618D01*
X17618Y-14744D01*
X17550Y-14910D01*
X17549Y-15089D01*
X17618Y-15254D01*
X17744Y-15381D01*
X17910Y-15449D01*
X17986Y-15449D01*
X17863Y-15456D01*
X17712Y-15518D01*
X17684Y-15614D01*
X18000Y-15929D01*
X18315Y-15614D01*
X18287Y-15518D01*
X18092Y-15448D01*
X18254Y-15381D01*
X18381Y-15255D01*
X18449Y-15089D01*
X18450Y-14910D01*
X18450Y-15703D01*
X18385Y-15684D01*
X18070Y-16000D01*
X18385Y-16315D01*
X18481Y-16287D01*
X18554Y-16081D01*
X18554Y-16800D01*
X18404Y-16800D01*
X18381Y-16745D01*
X18255Y-16618D01*
X18089Y-16550D01*
X18013Y-16550D01*
X18136Y-16543D01*
X18287Y-16481D01*
X18315Y-16385D01*
X18000Y-16070D01*
X17684Y-16385D01*
X17712Y-16481D01*
X17907Y-16551D01*
X17745Y-16618D01*
X17618Y-16744D01*
X17550Y-16910D01*
X17549Y-17089D01*
X17618Y-17254D01*
X17744Y-17381D01*
X17910Y-17449D01*
X18089Y-17450D01*
X18254Y-17381D01*
X18381Y-17255D01*
X18404Y-17200D01*
X22320Y-17200D01*
X23003Y-17882D01*
X22845Y-18040D01*
X22822Y-18095D01*
X22822Y-18154D01*
X22845Y-18210D01*
X22887Y-18252D01*
X23012Y-18377D01*
X23051Y-18393D01*
X23067Y-18432D01*
X23109Y-18474D01*
X23234Y-18599D01*
X23274Y-18616D01*
X23290Y-18655D01*
X23332Y-18697D01*
X23457Y-18822D01*
X23496Y-18839D01*
X23512Y-18877D01*
X23554Y-18919D01*
X23679Y-19044D01*
X23719Y-19061D01*
X23735Y-19101D01*
X23778Y-19143D01*
X23903Y-19268D01*
X23942Y-19284D01*
X23958Y-19323D01*
X24000Y-19365D01*
X24125Y-19490D01*
X24165Y-19506D01*
X24181Y-19546D01*
X24223Y-19588D01*
X24348Y-19713D01*
X24387Y-19730D01*
X24403Y-19768D01*
X24445Y-19810D01*
X24570Y-19935D01*
X24625Y-19958D01*
X24685Y-19958D01*
X24740Y-19936D01*
X24782Y-19893D01*
X24898Y-19778D01*
X25655Y-20535D01*
X25655Y-20535D01*
X25699Y-20564D01*
X25720Y-20578D01*
X25720Y-20578D01*
X25797Y-20593D01*
X26860Y-20593D01*
X26850Y-20603D01*
X26801Y-20722D01*
X26801Y-20744D01*
X26554Y-20744D01*
X26540Y-20710D01*
X26498Y-20668D01*
X26443Y-20645D01*
X26383Y-20645D01*
X25675Y-20645D01*
X25619Y-20668D01*
X25577Y-20710D01*
X25554Y-20765D01*
X25554Y-20824D01*
X25554Y-20985D01*
X25353Y-20784D01*
X25353Y-20762D01*
X25331Y-20707D01*
X25288Y-20665D01*
X24732Y-20108D01*
X24677Y-20085D01*
X24617Y-20085D01*
X24562Y-20108D01*
X24520Y-20150D01*
X24395Y-20276D01*
X24379Y-20312D01*
X24343Y-20327D01*
X24301Y-20370D01*
X24183Y-20487D01*
X24183Y-19975D01*
X24133Y-19855D01*
X24042Y-19764D01*
X23923Y-19714D01*
X23793Y-19714D01*
X23674Y-19763D01*
X23648Y-19789D01*
X23213Y-19789D01*
X23129Y-19705D01*
X23048Y-19650D01*
X22952Y-19631D01*
X22847Y-19631D01*
X22822Y-19606D01*
X22702Y-19556D01*
X22692Y-19556D01*
X22692Y-18098D01*
X22669Y-18043D01*
X22627Y-18000D01*
X22070Y-17444D01*
X22015Y-17421D01*
X21993Y-17421D01*
X21832Y-17260D01*
X21767Y-17216D01*
X21690Y-17201D01*
X20314Y-17201D01*
X20238Y-17216D01*
X20216Y-17231D01*
X20173Y-17260D01*
X19633Y-17800D01*
X18404Y-17800D01*
X18381Y-17745D01*
X18255Y-17618D01*
X18089Y-17550D01*
X17910Y-17549D01*
X17745Y-17618D01*
X17618Y-17744D01*
X17550Y-17910D01*
X17549Y-18089D01*
X17618Y-18254D01*
X17744Y-18381D01*
X17910Y-18449D01*
X18089Y-18450D01*
X18254Y-18381D01*
X18381Y-18255D01*
X18404Y-18200D01*
X19716Y-18200D01*
X19793Y-18184D01*
X19857Y-18141D01*
X20397Y-17601D01*
X20501Y-17601D01*
X19302Y-18800D01*
X18404Y-18800D01*
X18381Y-18745D01*
X18255Y-18618D01*
X18089Y-18550D01*
X17910Y-18549D01*
X17745Y-18618D01*
X17618Y-18744D01*
X17550Y-18910D01*
X17549Y-19089D01*
X17618Y-19254D01*
X17744Y-19381D01*
X17910Y-19449D01*
X18089Y-19450D01*
X18254Y-19381D01*
X18381Y-19255D01*
X18404Y-19200D01*
X19385Y-19200D01*
X19462Y-19184D01*
X19527Y-19141D01*
X19556Y-19111D01*
X19556Y-19158D01*
X19606Y-19278D01*
X19697Y-19369D01*
X19816Y-19419D01*
X19946Y-19419D01*
X20065Y-19370D01*
X20141Y-19294D01*
X20155Y-19294D01*
X20174Y-19340D01*
X20216Y-19382D01*
X20772Y-19939D01*
X20828Y-19962D01*
X20887Y-19962D01*
X20942Y-19939D01*
X20985Y-19897D01*
X21110Y-19772D01*
X21114Y-19762D01*
X21141Y-19829D01*
X21232Y-19921D01*
X21352Y-19970D01*
X21481Y-19970D01*
X21601Y-19921D01*
X21692Y-19830D01*
X21742Y-19710D01*
X21742Y-19581D01*
X21693Y-19461D01*
X21617Y-19385D01*
X21617Y-19377D01*
X21667Y-19356D01*
X21690Y-19333D01*
X21690Y-19253D01*
X21730Y-19293D01*
X21758Y-19265D01*
X21784Y-19291D01*
X21903Y-19340D01*
X22032Y-19340D01*
X22152Y-19291D01*
X22243Y-19200D01*
X22293Y-19080D01*
X22293Y-18951D01*
X22244Y-18831D01*
X22218Y-18805D01*
X22246Y-18777D01*
X22206Y-18737D01*
X22286Y-18737D01*
X22308Y-18714D01*
X22346Y-18623D01*
X22346Y-18535D01*
X22446Y-18435D01*
X22463Y-18396D01*
X22502Y-18380D01*
X22544Y-18338D01*
X22669Y-18213D01*
X22692Y-18158D01*
X22692Y-18098D01*
X22692Y-19556D01*
X22573Y-19556D01*
X22453Y-19606D01*
X22362Y-19697D01*
X22312Y-19816D01*
X22312Y-19946D01*
X22362Y-20065D01*
X22453Y-20157D01*
X22572Y-20206D01*
X22702Y-20206D01*
X22821Y-20157D01*
X22847Y-20131D01*
X22849Y-20131D01*
X22933Y-20216D01*
X23014Y-20270D01*
X23014Y-20270D01*
X23110Y-20289D01*
X23648Y-20289D01*
X23673Y-20314D01*
X23793Y-20364D01*
X23922Y-20364D01*
X24042Y-20315D01*
X24133Y-20223D01*
X24183Y-20104D01*
X24183Y-19975D01*
X24183Y-20487D01*
X24175Y-20495D01*
X24158Y-20537D01*
X24117Y-20554D01*
X24074Y-20596D01*
X24020Y-20650D01*
X23933Y-20650D01*
X23841Y-20688D01*
X23818Y-20710D01*
X23818Y-20799D01*
X24194Y-21174D01*
X24203Y-21165D01*
X24274Y-21235D01*
X24265Y-21245D01*
X24270Y-21251D01*
X24208Y-21313D01*
X24202Y-21308D01*
X24192Y-21317D01*
X24122Y-21247D01*
X24131Y-21237D01*
X23756Y-20861D01*
X23667Y-20861D01*
X23645Y-20884D01*
X23607Y-20976D01*
X23607Y-21063D01*
X23504Y-21166D01*
X23488Y-21203D01*
X23452Y-21218D01*
X23410Y-21261D01*
X23373Y-21297D01*
X23346Y-21233D01*
X23255Y-21141D01*
X23135Y-21092D01*
X23006Y-21092D01*
X22887Y-21141D01*
X22795Y-21232D01*
X22745Y-21352D01*
X22745Y-21481D01*
X22795Y-21601D01*
X22886Y-21692D01*
X22951Y-21719D01*
X22832Y-21838D01*
X22809Y-21893D01*
X22809Y-21953D01*
X22832Y-22008D01*
X22874Y-22050D01*
X22939Y-22115D01*
X22888Y-22115D01*
X22768Y-22165D01*
X22693Y-22240D01*
X22637Y-22240D01*
X22573Y-22253D01*
X22561Y-22256D01*
X22496Y-22299D01*
X22207Y-22588D01*
X22100Y-22588D01*
X22099Y-22589D01*
X22115Y-22572D01*
X22672Y-22015D01*
X22695Y-21960D01*
X22695Y-21901D01*
X22672Y-21846D01*
X22630Y-21803D01*
X22505Y-21678D01*
X22463Y-21661D01*
X22446Y-21619D01*
X22403Y-21577D01*
X22293Y-21467D01*
X22278Y-21452D01*
X22237Y-21435D01*
X22219Y-21393D01*
X22177Y-21351D01*
X22052Y-21226D01*
X22010Y-21208D01*
X21993Y-21167D01*
X21951Y-21124D01*
X21826Y-20999D01*
X21789Y-20984D01*
X21774Y-20947D01*
X21732Y-20905D01*
X21607Y-20780D01*
X21570Y-20765D01*
X21555Y-20728D01*
X21513Y-20686D01*
X21387Y-20561D01*
X21346Y-20544D01*
X21328Y-20502D01*
X21286Y-20460D01*
X21161Y-20335D01*
X21124Y-20319D01*
X21109Y-20283D01*
X21067Y-20241D01*
X20942Y-20115D01*
X20887Y-20093D01*
X20827Y-20092D01*
X20772Y-20115D01*
X20730Y-20157D01*
X20173Y-20714D01*
X20150Y-20769D01*
X20150Y-20791D01*
X20119Y-20823D01*
X19964Y-20823D01*
X18999Y-19858D01*
X18934Y-19815D01*
X18858Y-19800D01*
X18404Y-19800D01*
X18381Y-19745D01*
X18255Y-19618D01*
X18089Y-19550D01*
X17910Y-19549D01*
X17745Y-19618D01*
X17618Y-19744D01*
X17550Y-19910D01*
X17549Y-20089D01*
X17618Y-20254D01*
X17744Y-20381D01*
X17910Y-20449D01*
X18089Y-20450D01*
X18254Y-20381D01*
X18381Y-20255D01*
X18404Y-20200D01*
X18775Y-20200D01*
X19740Y-21165D01*
X19759Y-21177D01*
X19689Y-21177D01*
X19369Y-20858D01*
X19304Y-20815D01*
X19228Y-20800D01*
X18404Y-20800D01*
X18381Y-20745D01*
X18255Y-20618D01*
X18089Y-20550D01*
X17910Y-20549D01*
X17745Y-20618D01*
X17618Y-20744D01*
X17550Y-20910D01*
X17549Y-21089D01*
X17618Y-21254D01*
X17744Y-21381D01*
X17910Y-21449D01*
X18089Y-21450D01*
X18254Y-21381D01*
X18381Y-21255D01*
X18404Y-21200D01*
X19145Y-21200D01*
X19464Y-21519D01*
X19529Y-21562D01*
X19606Y-21577D01*
X20255Y-21577D01*
X20033Y-21800D01*
X18404Y-21800D01*
X18381Y-21745D01*
X18255Y-21618D01*
X18089Y-21550D01*
X17910Y-21549D01*
X17745Y-21618D01*
X17618Y-21744D01*
X17550Y-21910D01*
X17549Y-22089D01*
X17618Y-22254D01*
X17744Y-22381D01*
X17910Y-22449D01*
X18089Y-22450D01*
X18254Y-22381D01*
X18381Y-22255D01*
X18404Y-22200D01*
X20072Y-22200D01*
X19472Y-22800D01*
X18404Y-22800D01*
X18381Y-22745D01*
X18255Y-22618D01*
X18089Y-22550D01*
X17910Y-22549D01*
X17745Y-22618D01*
X17618Y-22744D01*
X17550Y-22910D01*
X17549Y-23089D01*
X17618Y-23254D01*
X17744Y-23381D01*
X17910Y-23449D01*
X18089Y-23450D01*
X18254Y-23381D01*
X18381Y-23255D01*
X18404Y-23200D01*
X19509Y-23200D01*
X19307Y-23401D01*
X19264Y-23466D01*
X19248Y-23543D01*
X19248Y-23800D01*
X18404Y-23800D01*
X18381Y-23745D01*
X18255Y-23618D01*
X18089Y-23550D01*
X17910Y-23549D01*
X17745Y-23618D01*
X17618Y-23744D01*
X17550Y-23910D01*
X17549Y-24089D01*
X17618Y-24254D01*
X17744Y-24381D01*
X17910Y-24449D01*
X18089Y-24450D01*
X18254Y-24381D01*
X18381Y-24255D01*
X18404Y-24200D01*
X19385Y-24200D01*
X19462Y-24184D01*
X19485Y-24169D01*
X19485Y-24247D01*
X18932Y-24800D01*
X18404Y-24800D01*
X18381Y-24745D01*
X18255Y-24618D01*
X18089Y-24550D01*
X17910Y-24549D01*
X17745Y-24618D01*
X17618Y-24744D01*
X17550Y-24910D01*
X17549Y-25089D01*
X17618Y-25254D01*
X17744Y-25381D01*
X17910Y-25449D01*
X18089Y-25450D01*
X18254Y-25381D01*
X18381Y-25255D01*
X18404Y-25200D01*
X19015Y-25200D01*
X19092Y-25184D01*
X19157Y-25141D01*
X19721Y-24577D01*
X19721Y-25350D01*
X19271Y-25800D01*
X18404Y-25800D01*
X18381Y-25745D01*
X18255Y-25618D01*
X18089Y-25550D01*
X17910Y-25549D01*
X17745Y-25618D01*
X17618Y-25744D01*
X17550Y-25910D01*
X17549Y-26089D01*
X17618Y-26254D01*
X17744Y-26381D01*
X17910Y-26449D01*
X18089Y-26450D01*
X18254Y-26381D01*
X18381Y-26255D01*
X18404Y-26200D01*
X19354Y-26200D01*
X19430Y-26184D01*
X19495Y-26141D01*
X19957Y-25679D01*
X19957Y-26373D01*
X19531Y-26800D01*
X18404Y-26800D01*
X18381Y-26745D01*
X18255Y-26618D01*
X18089Y-26550D01*
X17910Y-26549D01*
X17745Y-26618D01*
X17618Y-26744D01*
X17550Y-26910D01*
X17549Y-27089D01*
X17618Y-27254D01*
X17744Y-27381D01*
X17910Y-27449D01*
X18089Y-27450D01*
X18254Y-27381D01*
X18381Y-27255D01*
X18404Y-27200D01*
X19614Y-27200D01*
X19690Y-27184D01*
X19755Y-27141D01*
X20298Y-26598D01*
X20298Y-26598D01*
X20327Y-26554D01*
X20342Y-26533D01*
X20342Y-26533D01*
X20357Y-26456D01*
X20357Y-26456D01*
X20357Y-23941D01*
X20519Y-23779D01*
X20519Y-23828D01*
X20519Y-24183D01*
X20542Y-24238D01*
X20575Y-24271D01*
X20542Y-24304D01*
X20519Y-24359D01*
X20519Y-24419D01*
X20519Y-24773D01*
X20542Y-24828D01*
X20575Y-24862D01*
X20542Y-24895D01*
X20519Y-24950D01*
X20519Y-25010D01*
X20519Y-25364D01*
X20520Y-25366D01*
X20457Y-25429D01*
X20419Y-25520D01*
X20419Y-25620D01*
X20419Y-25635D01*
X20481Y-25698D01*
X21012Y-25698D01*
X21012Y-25690D01*
X21112Y-25690D01*
X21112Y-25698D01*
X21644Y-25698D01*
X21706Y-25635D01*
X21706Y-25620D01*
X21706Y-25520D01*
X21668Y-25429D01*
X21605Y-25366D01*
X21606Y-25364D01*
X21606Y-25357D01*
X21732Y-25357D01*
X21808Y-25342D01*
X21873Y-25298D01*
X22280Y-24891D01*
X22387Y-24891D01*
X22506Y-24842D01*
X22598Y-24751D01*
X22647Y-24631D01*
X22647Y-24502D01*
X22598Y-24383D01*
X22507Y-24291D01*
X22387Y-24241D01*
X22258Y-24241D01*
X22138Y-24291D01*
X22047Y-24382D01*
X22027Y-24430D01*
X22007Y-24383D01*
X21916Y-24291D01*
X21797Y-24241D01*
X21667Y-24241D01*
X21563Y-24284D01*
X21550Y-24271D01*
X21583Y-24238D01*
X21606Y-24183D01*
X21606Y-24123D01*
X21606Y-23769D01*
X21583Y-23714D01*
X21541Y-23672D01*
X21486Y-23649D01*
X21426Y-23649D01*
X20982Y-23649D01*
X20988Y-23645D01*
X21879Y-22754D01*
X21840Y-22848D01*
X21840Y-22977D01*
X21889Y-23097D01*
X21981Y-23188D01*
X22100Y-23238D01*
X22229Y-23238D01*
X22349Y-23189D01*
X22440Y-23097D01*
X22460Y-23049D01*
X22480Y-23097D01*
X22555Y-23173D01*
X22555Y-23661D01*
X22571Y-23737D01*
X22614Y-23802D01*
X22831Y-24019D01*
X22831Y-25192D01*
X21945Y-26079D01*
X21901Y-26143D01*
X21886Y-26220D01*
X21886Y-26373D01*
X21590Y-26669D01*
X21586Y-26673D01*
X21583Y-26667D01*
X21550Y-26633D01*
X21583Y-26600D01*
X21606Y-26545D01*
X21606Y-26486D01*
X21606Y-26131D01*
X21605Y-26129D01*
X21668Y-26066D01*
X21706Y-25975D01*
X21706Y-25875D01*
X21706Y-25860D01*
X21644Y-25798D01*
X21112Y-25798D01*
X21112Y-25805D01*
X21012Y-25805D01*
X21012Y-25798D01*
X20481Y-25798D01*
X20419Y-25860D01*
X20419Y-25875D01*
X20419Y-25975D01*
X20457Y-26066D01*
X20520Y-26129D01*
X20519Y-26131D01*
X20519Y-26191D01*
X20519Y-26545D01*
X20542Y-26600D01*
X20575Y-26633D01*
X20542Y-26666D01*
X20519Y-26722D01*
X20519Y-26781D01*
X20519Y-27136D01*
X20542Y-27191D01*
X20575Y-27224D01*
X20542Y-27257D01*
X20519Y-27312D01*
X20519Y-27372D01*
X20519Y-27726D01*
X20542Y-27781D01*
X20575Y-27814D01*
X20542Y-27847D01*
X20519Y-27903D01*
X20519Y-27962D01*
X20519Y-28317D01*
X20520Y-28319D01*
X20457Y-28381D01*
X20419Y-28473D01*
X20419Y-28573D01*
X20419Y-28588D01*
X20481Y-28650D01*
X21012Y-28650D01*
X21012Y-28642D01*
X21112Y-28642D01*
X21112Y-28650D01*
X21644Y-28650D01*
X21706Y-28588D01*
X21706Y-28573D01*
X21706Y-28473D01*
X21668Y-28381D01*
X21605Y-28319D01*
X21606Y-28317D01*
X21606Y-28257D01*
X21606Y-27903D01*
X21583Y-27848D01*
X21550Y-27814D01*
X21583Y-27781D01*
X21606Y-27726D01*
X21606Y-27667D01*
X21606Y-27312D01*
X21583Y-27257D01*
X21550Y-27224D01*
X21583Y-27191D01*
X21606Y-27136D01*
X21606Y-27129D01*
X21614Y-27129D01*
X21690Y-27113D01*
X21755Y-27070D01*
X21801Y-27024D01*
X21862Y-27086D01*
X21982Y-27135D01*
X22111Y-27136D01*
X22231Y-27086D01*
X22322Y-26995D01*
X22372Y-26875D01*
X22372Y-26746D01*
X22322Y-26627D01*
X22254Y-26558D01*
X22271Y-26533D01*
X22271Y-26533D01*
X22273Y-26520D01*
X22286Y-26456D01*
X22286Y-26456D01*
X22286Y-26303D01*
X23172Y-25417D01*
X23172Y-25417D01*
X23201Y-25373D01*
X23216Y-25352D01*
X23216Y-25352D01*
X23231Y-25275D01*
X23231Y-25275D01*
X23231Y-23937D01*
X23216Y-23860D01*
X23216Y-23860D01*
X23201Y-23838D01*
X23172Y-23795D01*
X23172Y-23795D01*
X22955Y-23578D01*
X22955Y-23172D01*
X23031Y-23097D01*
X23080Y-22978D01*
X23080Y-22849D01*
X23042Y-22755D01*
X23136Y-22716D01*
X23228Y-22625D01*
X23277Y-22505D01*
X23277Y-22454D01*
X23430Y-22607D01*
X23486Y-22630D01*
X23508Y-22630D01*
X23775Y-22897D01*
X23775Y-22897D01*
X23818Y-22926D01*
X23840Y-22940D01*
X23840Y-22940D01*
X23916Y-22955D01*
X23916Y-22955D01*
X24484Y-22955D01*
X24524Y-22996D01*
X24524Y-23267D01*
X24539Y-23344D01*
X24582Y-23409D01*
X25233Y-24059D01*
X25233Y-25586D01*
X24917Y-25902D01*
X24669Y-25902D01*
X24603Y-25836D01*
X24698Y-25876D01*
X24828Y-25876D01*
X24947Y-25826D01*
X25039Y-25735D01*
X25088Y-25616D01*
X25088Y-25486D01*
X25039Y-25367D01*
X25013Y-25341D01*
X25013Y-24737D01*
X25039Y-24711D01*
X25088Y-24592D01*
X25088Y-24463D01*
X25039Y-24343D01*
X24948Y-24252D01*
X24828Y-24202D01*
X24699Y-24202D01*
X24579Y-24251D01*
X24488Y-24343D01*
X24438Y-24462D01*
X24438Y-24591D01*
X24488Y-24711D01*
X24513Y-24737D01*
X24513Y-25341D01*
X24488Y-25366D01*
X24438Y-25486D01*
X24438Y-25615D01*
X24488Y-25735D01*
X24570Y-25817D01*
X24474Y-25777D01*
X24345Y-25777D01*
X24225Y-25826D01*
X24147Y-25904D01*
X24147Y-23622D01*
X24128Y-23526D01*
X24074Y-23445D01*
X23868Y-23239D01*
X23868Y-23124D01*
X23818Y-23005D01*
X23727Y-22913D01*
X23608Y-22864D01*
X23478Y-22863D01*
X23359Y-22913D01*
X23267Y-23004D01*
X23218Y-23124D01*
X23218Y-23253D01*
X23267Y-23372D01*
X23358Y-23464D01*
X23405Y-23483D01*
X23647Y-23725D01*
X23647Y-26077D01*
X23366Y-26358D01*
X23312Y-26439D01*
X23293Y-26535D01*
X23293Y-27349D01*
X23267Y-27374D01*
X23218Y-27494D01*
X23218Y-27623D01*
X23267Y-27742D01*
X23358Y-27834D01*
X23478Y-27883D01*
X23607Y-27884D01*
X23727Y-27834D01*
X23818Y-27743D01*
X23868Y-27623D01*
X23868Y-27494D01*
X23818Y-27375D01*
X23793Y-27349D01*
X23793Y-26638D01*
X24074Y-26357D01*
X24128Y-26276D01*
X24129Y-26274D01*
X24133Y-26286D01*
X24225Y-26377D01*
X24344Y-26427D01*
X24473Y-26427D01*
X24593Y-26378D01*
X24669Y-26302D01*
X24790Y-26302D01*
X24753Y-26391D01*
X24753Y-26521D01*
X24803Y-26640D01*
X24828Y-26666D01*
X24828Y-27345D01*
X24749Y-27312D01*
X24620Y-27312D01*
X24501Y-27362D01*
X24409Y-27453D01*
X24360Y-27572D01*
X24359Y-27702D01*
X24409Y-27821D01*
X24485Y-27897D01*
X24485Y-27988D01*
X24386Y-28086D01*
X24342Y-28151D01*
X24327Y-28228D01*
X24327Y-29133D01*
X24342Y-29210D01*
X24386Y-29275D01*
X24779Y-29668D01*
X24779Y-29668D01*
X24823Y-29697D01*
X24844Y-29712D01*
X24844Y-29712D01*
X24921Y-29727D01*
X25196Y-29727D01*
X28543Y-29727D01*
X28619Y-29712D01*
X28684Y-29668D01*
X28894Y-29458D01*
X29001Y-29458D01*
X29120Y-29409D01*
X29212Y-29318D01*
X29261Y-29198D01*
X29262Y-29069D01*
X29213Y-28950D01*
X29330Y-28950D01*
X29426Y-28931D01*
X29507Y-28877D01*
X30067Y-28317D01*
X30103Y-28317D01*
X30223Y-28267D01*
X30314Y-28176D01*
X30364Y-28057D01*
X30364Y-27927D01*
X30315Y-27808D01*
X30223Y-27716D01*
X30104Y-27667D01*
X29975Y-27667D01*
X29855Y-27716D01*
X29764Y-27807D01*
X29714Y-27927D01*
X29714Y-27963D01*
X29227Y-28450D01*
X28675Y-28450D01*
X28670Y-28438D01*
X28637Y-28405D01*
X28670Y-28372D01*
X28693Y-28317D01*
X28693Y-28257D01*
X28693Y-27903D01*
X28670Y-27848D01*
X28637Y-27814D01*
X28670Y-27781D01*
X28693Y-27726D01*
X28693Y-27667D01*
X28693Y-27312D01*
X28670Y-27257D01*
X28637Y-27224D01*
X28670Y-27191D01*
X28693Y-27136D01*
X28693Y-27076D01*
X28693Y-26722D01*
X28670Y-26667D01*
X28637Y-26633D01*
X28670Y-26600D01*
X28693Y-26545D01*
X28693Y-26486D01*
X28693Y-26131D01*
X28670Y-26076D01*
X28637Y-26043D01*
X28670Y-26010D01*
X28693Y-25955D01*
X28693Y-25895D01*
X28693Y-25541D01*
X28670Y-25486D01*
X28637Y-25452D01*
X28670Y-25419D01*
X28693Y-25364D01*
X28693Y-25304D01*
X28693Y-24950D01*
X28670Y-24895D01*
X28637Y-24862D01*
X28670Y-24829D01*
X28693Y-24774D01*
X28693Y-24714D01*
X28693Y-24360D01*
X28692Y-24357D01*
X28755Y-24295D01*
X28793Y-24203D01*
X28793Y-24104D01*
X28793Y-24088D01*
X28730Y-24026D01*
X28199Y-24026D01*
X28199Y-24034D01*
X28099Y-24034D01*
X28099Y-24026D01*
X27568Y-24026D01*
X27505Y-24088D01*
X27505Y-24104D01*
X27505Y-24203D01*
X27544Y-24295D01*
X27606Y-24357D01*
X27605Y-24359D01*
X27605Y-24366D01*
X27563Y-24366D01*
X27031Y-23834D01*
X26966Y-23791D01*
X26889Y-23776D01*
X26795Y-23776D01*
X26761Y-23743D01*
X27508Y-23743D01*
X27505Y-23749D01*
X27505Y-23848D01*
X27505Y-23863D01*
X27568Y-23926D01*
X28099Y-23926D01*
X28099Y-23918D01*
X28199Y-23918D01*
X28199Y-23926D01*
X28730Y-23926D01*
X28785Y-23871D01*
X30055Y-25141D01*
X30120Y-25184D01*
X30120Y-25184D01*
X30196Y-25200D01*
X30595Y-25200D01*
X30618Y-25254D01*
X30744Y-25381D01*
X30910Y-25449D01*
X31089Y-25450D01*
X31254Y-25381D01*
X31381Y-25255D01*
X31449Y-25089D01*
X31450Y-24910D01*
X31450Y-25910D01*
X31381Y-25745D01*
X31255Y-25618D01*
X31089Y-25550D01*
X30910Y-25549D01*
X30745Y-25618D01*
X30618Y-25744D01*
X30550Y-25910D01*
X30549Y-26089D01*
X30618Y-26254D01*
X30744Y-26381D01*
X30910Y-26449D01*
X31089Y-26450D01*
X31254Y-26381D01*
X31381Y-26255D01*
X31449Y-26089D01*
X31450Y-25910D01*
X31450Y-31326D01*
X31450Y-31326D01*
X31450Y-27270D01*
X31450Y-26670D01*
X31427Y-26615D01*
X31385Y-26572D01*
X31329Y-26550D01*
X31270Y-26549D01*
X30832Y-26549D01*
X30121Y-25838D01*
X30121Y-25732D01*
X30196Y-25656D01*
X30246Y-25537D01*
X30246Y-25408D01*
X30196Y-25288D01*
X30105Y-25197D01*
X29986Y-25147D01*
X29856Y-25147D01*
X29737Y-25196D01*
X29645Y-25288D01*
X29596Y-25407D01*
X29596Y-25536D01*
X29645Y-25656D01*
X29721Y-25732D01*
X29721Y-25921D01*
X29736Y-25997D01*
X29779Y-26062D01*
X30549Y-26832D01*
X30549Y-27329D01*
X30572Y-27384D01*
X30614Y-27427D01*
X30670Y-27449D01*
X30729Y-27450D01*
X31329Y-27450D01*
X31384Y-27427D01*
X31427Y-27385D01*
X31449Y-27329D01*
X31450Y-27270D01*
X31450Y-31326D01*
X29921Y-31326D01*
X24301Y-31326D01*
X24301Y-28754D01*
X24252Y-28635D01*
X24160Y-28543D01*
X24041Y-28493D01*
X23912Y-28493D01*
X23792Y-28543D01*
X23716Y-28618D01*
X22739Y-28618D01*
X22664Y-28543D01*
X22545Y-28493D01*
X22415Y-28493D01*
X22296Y-28543D01*
X22204Y-28634D01*
X22155Y-28753D01*
X22155Y-28883D01*
X22204Y-29002D01*
X22295Y-29094D01*
X22415Y-29143D01*
X22544Y-29143D01*
X22664Y-29094D01*
X22739Y-29018D01*
X23716Y-29018D01*
X23792Y-29094D01*
X23911Y-29143D01*
X24040Y-29143D01*
X24160Y-29094D01*
X24251Y-29003D01*
X24301Y-28883D01*
X24301Y-28754D01*
X24301Y-31326D01*
X21706Y-31326D01*
X21706Y-28828D01*
X21706Y-28813D01*
X21644Y-28750D01*
X21112Y-28750D01*
X21112Y-29065D01*
X21175Y-29127D01*
X21506Y-29127D01*
X21598Y-29090D01*
X21668Y-29019D01*
X21706Y-28927D01*
X21706Y-28828D01*
X21706Y-31326D01*
X21012Y-31326D01*
X21012Y-29065D01*
X21012Y-28750D01*
X20481Y-28750D01*
X20419Y-28813D01*
X20419Y-28828D01*
X20419Y-28927D01*
X20457Y-29019D01*
X20527Y-29090D01*
X20619Y-29127D01*
X20950Y-29127D01*
X21012Y-29065D01*
X21012Y-31326D01*
X18110Y-31326D01*
X17492Y-31326D01*
X17492Y-16224D01*
X17518Y-16287D01*
X17614Y-16315D01*
X17929Y-16000D01*
X17614Y-15684D01*
X17518Y-15712D01*
X17492Y-15785D01*
X17492Y-11980D01*
X18110Y-11980D01*
X29921Y-11980D01*
X31720Y-11980D01*
X31720Y-31326D01*
M02*
