G04 (created by PCBNEW (2013-07-07 BZR 4022)-stable) date 2015/10/29 19:57:24*
%MOIN*%
G04 Gerber Fmt 3.4, Leading zero omitted, Abs format*
%FSLAX34Y34*%
G01*
G70*
G90*
G04 APERTURE LIST*
%ADD10C,0.00590551*%
%ADD11C,0.00787402*%
%ADD12C,0.011811*%
%ADD13C,0.005*%
%ADD14C,0.0001*%
%ADD15C,0.0045*%
%ADD16C,0.0047*%
%ADD17R,0.11811X0.0629921*%
%ADD18R,0.165X0.19*%
%ADD19R,0.06X0.06*%
%ADD20C,0.06*%
%ADD21R,0.0393701X0.045*%
%ADD22R,0.045X0.0393701*%
%ADD23C,0.177165*%
%ADD24R,0.0165X0.0629921*%
%ADD25C,0.035*%
G04 APERTURE END LIST*
G54D10*
G54D11*
X17559Y-18503D02*
X17559Y-16535D01*
X18503Y-18503D02*
X17559Y-18503D01*
X18503Y-16535D02*
X18503Y-18503D01*
X17559Y-16535D02*
X18503Y-16535D01*
X21014Y-18119D02*
X21014Y-17804D01*
X20939Y-17804D01*
X20894Y-17819D01*
X20864Y-17849D01*
X20849Y-17879D01*
X20834Y-17939D01*
X20834Y-17984D01*
X20849Y-18044D01*
X20864Y-18074D01*
X20894Y-18104D01*
X20939Y-18119D01*
X21014Y-18119D01*
X20729Y-17804D02*
X20534Y-17804D01*
X20639Y-17924D01*
X20594Y-17924D01*
X20564Y-17939D01*
X20549Y-17954D01*
X20534Y-17984D01*
X20534Y-18059D01*
X20549Y-18089D01*
X20564Y-18104D01*
X20594Y-18119D01*
X20684Y-18119D01*
X20714Y-18104D01*
X20729Y-18089D01*
X20309Y-18239D02*
X20324Y-18224D01*
X20354Y-18179D01*
X20369Y-18149D01*
X20384Y-18104D01*
X20399Y-18029D01*
X20399Y-17969D01*
X20384Y-17894D01*
X20369Y-17849D01*
X20354Y-17819D01*
X20324Y-17774D01*
X20309Y-17759D01*
X20204Y-18104D02*
X20159Y-18119D01*
X20084Y-18119D01*
X20054Y-18104D01*
X20039Y-18089D01*
X20024Y-18059D01*
X20024Y-18029D01*
X20039Y-17999D01*
X20054Y-17984D01*
X20084Y-17969D01*
X20144Y-17954D01*
X20174Y-17939D01*
X20189Y-17924D01*
X20204Y-17894D01*
X20204Y-17864D01*
X20189Y-17834D01*
X20174Y-17819D01*
X20144Y-17804D01*
X20069Y-17804D01*
X20024Y-17819D01*
X19904Y-18104D02*
X19859Y-18119D01*
X19784Y-18119D01*
X19754Y-18104D01*
X19739Y-18089D01*
X19724Y-18059D01*
X19724Y-18029D01*
X19739Y-17999D01*
X19754Y-17984D01*
X19784Y-17969D01*
X19844Y-17954D01*
X19874Y-17939D01*
X19889Y-17924D01*
X19904Y-17894D01*
X19904Y-17864D01*
X19889Y-17834D01*
X19874Y-17819D01*
X19844Y-17804D01*
X19769Y-17804D01*
X19724Y-17819D01*
X19394Y-17804D02*
X19214Y-17804D01*
X19304Y-18119D02*
X19304Y-17804D01*
X19139Y-17804D02*
X18929Y-18119D01*
X18929Y-17804D02*
X19139Y-18119D01*
X18839Y-18239D02*
X18824Y-18224D01*
X18794Y-18179D01*
X18779Y-18149D01*
X18764Y-18104D01*
X18749Y-18029D01*
X18749Y-17969D01*
X18764Y-17894D01*
X18779Y-17849D01*
X18794Y-17819D01*
X18824Y-17774D01*
X18839Y-17759D01*
X21051Y-17095D02*
X21051Y-16781D01*
X20976Y-16781D01*
X20931Y-16796D01*
X20901Y-16826D01*
X20886Y-16856D01*
X20871Y-16916D01*
X20871Y-16961D01*
X20886Y-17020D01*
X20901Y-17050D01*
X20931Y-17080D01*
X20976Y-17095D01*
X21051Y-17095D01*
X20751Y-16811D02*
X20736Y-16796D01*
X20706Y-16781D01*
X20631Y-16781D01*
X20601Y-16796D01*
X20586Y-16811D01*
X20571Y-16841D01*
X20571Y-16871D01*
X20586Y-16916D01*
X20766Y-17095D01*
X20571Y-17095D01*
X20346Y-17215D02*
X20361Y-17200D01*
X20391Y-17155D01*
X20406Y-17125D01*
X20421Y-17080D01*
X20436Y-17005D01*
X20436Y-16946D01*
X20421Y-16871D01*
X20406Y-16826D01*
X20391Y-16796D01*
X20361Y-16751D01*
X20346Y-16736D01*
X20241Y-17080D02*
X20196Y-17095D01*
X20121Y-17095D01*
X20091Y-17080D01*
X20076Y-17065D01*
X20061Y-17035D01*
X20061Y-17005D01*
X20076Y-16976D01*
X20091Y-16961D01*
X20121Y-16946D01*
X20181Y-16931D01*
X20211Y-16916D01*
X20226Y-16901D01*
X20241Y-16871D01*
X20241Y-16841D01*
X20226Y-16811D01*
X20211Y-16796D01*
X20181Y-16781D01*
X20106Y-16781D01*
X20061Y-16796D01*
X19941Y-17080D02*
X19896Y-17095D01*
X19821Y-17095D01*
X19791Y-17080D01*
X19776Y-17065D01*
X19761Y-17035D01*
X19761Y-17005D01*
X19776Y-16976D01*
X19791Y-16961D01*
X19821Y-16946D01*
X19881Y-16931D01*
X19911Y-16916D01*
X19926Y-16901D01*
X19941Y-16871D01*
X19941Y-16841D01*
X19926Y-16811D01*
X19911Y-16796D01*
X19881Y-16781D01*
X19806Y-16781D01*
X19761Y-16796D01*
X19206Y-17095D02*
X19311Y-16946D01*
X19386Y-17095D02*
X19386Y-16781D01*
X19266Y-16781D01*
X19236Y-16796D01*
X19221Y-16811D01*
X19206Y-16841D01*
X19206Y-16886D01*
X19221Y-16916D01*
X19236Y-16931D01*
X19266Y-16946D01*
X19386Y-16946D01*
X19101Y-16781D02*
X18892Y-17095D01*
X18892Y-16781D02*
X19101Y-17095D01*
X18802Y-17215D02*
X18787Y-17200D01*
X18757Y-17155D01*
X18742Y-17125D01*
X18727Y-17080D01*
X18712Y-17005D01*
X18712Y-16946D01*
X18727Y-16871D01*
X18742Y-16826D01*
X18757Y-16796D01*
X18787Y-16751D01*
X18802Y-16736D01*
G54D12*
X26161Y-13456D02*
X25880Y-13456D01*
X26217Y-13624D02*
X26020Y-13034D01*
X25823Y-13624D01*
X25655Y-13596D02*
X25598Y-13624D01*
X25486Y-13624D01*
X25430Y-13596D01*
X25402Y-13540D01*
X25402Y-13512D01*
X25430Y-13456D01*
X25486Y-13428D01*
X25570Y-13428D01*
X25627Y-13399D01*
X25655Y-13343D01*
X25655Y-13315D01*
X25627Y-13259D01*
X25570Y-13231D01*
X25486Y-13231D01*
X25430Y-13259D01*
X24895Y-13231D02*
X24895Y-13624D01*
X25149Y-13231D02*
X25149Y-13540D01*
X25120Y-13596D01*
X25064Y-13624D01*
X24980Y-13624D01*
X24924Y-13596D01*
X24895Y-13568D01*
X24614Y-13624D02*
X24614Y-13231D01*
X24614Y-13287D02*
X24586Y-13259D01*
X24530Y-13231D01*
X24446Y-13231D01*
X24389Y-13259D01*
X24361Y-13315D01*
X24361Y-13624D01*
X24361Y-13315D02*
X24333Y-13259D01*
X24277Y-13231D01*
X24192Y-13231D01*
X24136Y-13259D01*
X24108Y-13315D01*
X24108Y-13624D01*
X23742Y-13624D02*
X23799Y-13596D01*
X23827Y-13568D01*
X23855Y-13512D01*
X23855Y-13343D01*
X23827Y-13287D01*
X23799Y-13259D01*
X23742Y-13231D01*
X23658Y-13231D01*
X23602Y-13259D01*
X23574Y-13287D01*
X23546Y-13343D01*
X23546Y-13512D01*
X23574Y-13568D01*
X23602Y-13596D01*
X23658Y-13624D01*
X23742Y-13624D01*
X23293Y-13231D02*
X23293Y-13624D01*
X23293Y-13287D02*
X23264Y-13259D01*
X23208Y-13231D01*
X23124Y-13231D01*
X23068Y-13259D01*
X23039Y-13315D01*
X23039Y-13624D01*
X22674Y-13624D02*
X22730Y-13596D01*
X22758Y-13568D01*
X22786Y-13512D01*
X22786Y-13343D01*
X22758Y-13287D01*
X22730Y-13259D01*
X22674Y-13231D01*
X22589Y-13231D01*
X22533Y-13259D01*
X22505Y-13287D01*
X22477Y-13343D01*
X22477Y-13512D01*
X22505Y-13568D01*
X22533Y-13596D01*
X22589Y-13624D01*
X22674Y-13624D01*
X21971Y-13624D02*
X21971Y-13034D01*
X21971Y-13596D02*
X22027Y-13624D01*
X22140Y-13624D01*
X22196Y-13596D01*
X22224Y-13568D01*
X22252Y-13512D01*
X22252Y-13343D01*
X22224Y-13287D01*
X22196Y-13259D01*
X22140Y-13231D01*
X22027Y-13231D01*
X21971Y-13259D01*
X21437Y-13231D02*
X21437Y-13624D01*
X21690Y-13231D02*
X21690Y-13540D01*
X21661Y-13596D01*
X21605Y-13624D01*
X21521Y-13624D01*
X21465Y-13596D01*
X21437Y-13568D01*
X21155Y-13624D02*
X21155Y-13231D01*
X21155Y-13034D02*
X21183Y-13062D01*
X21155Y-13090D01*
X21127Y-13062D01*
X21155Y-13034D01*
X21155Y-13090D01*
X20874Y-13231D02*
X20874Y-13624D01*
X20874Y-13287D02*
X20846Y-13259D01*
X20790Y-13231D01*
X20705Y-13231D01*
X20649Y-13259D01*
X20621Y-13315D01*
X20621Y-13624D01*
X20255Y-13624D02*
X20312Y-13596D01*
X20340Y-13568D01*
X20368Y-13512D01*
X20368Y-13343D01*
X20340Y-13287D01*
X20312Y-13259D01*
X20255Y-13231D01*
X20171Y-13231D01*
X20115Y-13259D01*
X20087Y-13287D01*
X20059Y-13343D01*
X20059Y-13512D01*
X20087Y-13568D01*
X20115Y-13596D01*
X20171Y-13624D01*
X20255Y-13624D01*
G54D10*
X28976Y-25000D02*
X26850Y-25000D01*
X26653Y-25590D02*
X26653Y-26850D01*
X28976Y-25157D02*
X28976Y-25000D01*
X26850Y-27480D02*
X28976Y-27480D01*
X28976Y-27480D02*
X28976Y-27322D01*
X30098Y-13622D02*
X28681Y-13622D01*
X28681Y-13622D02*
X28681Y-14251D01*
X28681Y-14251D02*
X30098Y-14251D01*
X30098Y-14251D02*
X30098Y-13622D01*
X29114Y-20433D02*
X27696Y-20433D01*
X27696Y-20433D02*
X27696Y-21062D01*
X27696Y-21062D02*
X29114Y-21062D01*
X29114Y-21062D02*
X29114Y-20433D01*
X30098Y-12637D02*
X28681Y-12637D01*
X28681Y-12637D02*
X28681Y-13267D01*
X28681Y-13267D02*
X30098Y-13267D01*
X30098Y-13267D02*
X30098Y-12637D01*
X23799Y-26574D02*
X22381Y-26574D01*
X22381Y-26574D02*
X22381Y-27204D01*
X22381Y-27204D02*
X23799Y-27204D01*
X23799Y-27204D02*
X23799Y-26574D01*
X23228Y-23681D02*
X23228Y-25098D01*
X23228Y-25098D02*
X23858Y-25098D01*
X23858Y-25098D02*
X23858Y-23681D01*
X23858Y-23681D02*
X23228Y-23681D01*
X26771Y-27972D02*
X26771Y-29389D01*
X26771Y-29389D02*
X27401Y-29389D01*
X27401Y-29389D02*
X27401Y-27972D01*
X27401Y-27972D02*
X26771Y-27972D01*
X29114Y-19409D02*
X27696Y-19409D01*
X27696Y-19409D02*
X27696Y-20039D01*
X27696Y-20039D02*
X29114Y-20039D01*
X29114Y-20039D02*
X29114Y-19409D01*
X29114Y-21574D02*
X27696Y-21574D01*
X27696Y-21574D02*
X27696Y-22204D01*
X27696Y-22204D02*
X29114Y-22204D01*
X29114Y-22204D02*
X29114Y-21574D01*
X29114Y-22716D02*
X27696Y-22716D01*
X27696Y-22716D02*
X27696Y-23346D01*
X27696Y-23346D02*
X29114Y-23346D01*
X29114Y-23346D02*
X29114Y-22716D01*
X21771Y-28051D02*
X21771Y-26633D01*
X21771Y-26633D02*
X21141Y-26633D01*
X21141Y-26633D02*
X21141Y-28051D01*
X21141Y-28051D02*
X21771Y-28051D01*
X22784Y-20707D02*
X21781Y-21709D01*
X21781Y-21709D02*
X22227Y-22155D01*
X22227Y-22155D02*
X23229Y-21152D01*
X23229Y-21152D02*
X22784Y-20707D01*
X22373Y-19568D02*
X23375Y-18565D01*
X23375Y-18565D02*
X22930Y-18120D01*
X22930Y-18120D02*
X21927Y-19122D01*
X21927Y-19122D02*
X22373Y-19568D01*
X21642Y-19447D02*
X20640Y-20449D01*
X20640Y-20449D02*
X21085Y-20895D01*
X21085Y-20895D02*
X22087Y-19893D01*
X22087Y-19893D02*
X21642Y-19447D01*
X26141Y-24468D02*
X26141Y-23051D01*
X26141Y-23051D02*
X25511Y-23051D01*
X25511Y-23051D02*
X25511Y-24468D01*
X25511Y-24468D02*
X26141Y-24468D01*
X25511Y-27972D02*
X25511Y-29389D01*
X25511Y-29389D02*
X26141Y-29389D01*
X26141Y-29389D02*
X26141Y-27972D01*
X26141Y-27972D02*
X25511Y-27972D01*
G54D13*
X22869Y-25403D02*
G75*
G03X22869Y-25403I-111J0D01*
G74*
G01*
X21007Y-23903D02*
X23007Y-23903D01*
X23007Y-23903D02*
X23007Y-25703D01*
X23007Y-25703D02*
X21007Y-25703D01*
X21007Y-25703D02*
X21007Y-23903D01*
G54D14*
G36*
X28239Y-13088D02*
X28228Y-13356D01*
X28162Y-13590D01*
X28045Y-13788D01*
X27879Y-13944D01*
X27667Y-14054D01*
X27630Y-14066D01*
X27449Y-14111D01*
X27289Y-14113D01*
X27120Y-14073D01*
X27101Y-14067D01*
X26897Y-13968D01*
X26727Y-13823D01*
X26629Y-13698D01*
X26573Y-13607D01*
X26538Y-13522D01*
X26518Y-13418D01*
X26507Y-13277D01*
X26502Y-13131D01*
X26509Y-13050D01*
X26526Y-13033D01*
X26553Y-13077D01*
X26578Y-13159D01*
X26582Y-13179D01*
X26624Y-13366D01*
X26675Y-13512D01*
X26731Y-13607D01*
X26776Y-13641D01*
X26852Y-13634D01*
X26920Y-13571D01*
X26970Y-13462D01*
X26986Y-13394D01*
X27008Y-13281D01*
X27039Y-13153D01*
X27047Y-13122D01*
X27087Y-12972D01*
X27160Y-13268D01*
X27205Y-13436D01*
X27244Y-13549D01*
X27283Y-13616D01*
X27327Y-13648D01*
X27371Y-13655D01*
X27444Y-13622D01*
X27505Y-13527D01*
X27553Y-13370D01*
X27563Y-13322D01*
X27585Y-13217D01*
X27611Y-13117D01*
X27636Y-13037D01*
X27656Y-12991D01*
X27665Y-12994D01*
X27680Y-13090D01*
X27707Y-13214D01*
X27741Y-13347D01*
X27776Y-13468D01*
X27807Y-13554D01*
X27819Y-13579D01*
X27887Y-13649D01*
X27954Y-13654D01*
X28018Y-13598D01*
X28076Y-13483D01*
X28126Y-13310D01*
X28134Y-13272D01*
X28168Y-13125D01*
X28196Y-13037D01*
X28219Y-13008D01*
X28234Y-13042D01*
X28239Y-13088D01*
X28239Y-13088D01*
X28239Y-13088D01*
G37*
G36*
X28134Y-12833D02*
X28113Y-12893D01*
X28097Y-12912D01*
X28072Y-12961D01*
X28042Y-13056D01*
X28014Y-13171D01*
X27980Y-13323D01*
X27952Y-13410D01*
X27928Y-13433D01*
X27902Y-13392D01*
X27873Y-13290D01*
X27855Y-13212D01*
X27801Y-13017D01*
X27741Y-12887D01*
X27678Y-12824D01*
X27614Y-12826D01*
X27551Y-12894D01*
X27493Y-13028D01*
X27447Y-13198D01*
X27418Y-13318D01*
X27391Y-13408D01*
X27371Y-13453D01*
X27368Y-13455D01*
X27351Y-13425D01*
X27326Y-13345D01*
X27297Y-13230D01*
X27289Y-13193D01*
X27240Y-13013D01*
X27182Y-12892D01*
X27119Y-12831D01*
X27052Y-12833D01*
X26985Y-12897D01*
X26933Y-13000D01*
X26887Y-13153D01*
X26852Y-13330D01*
X26833Y-13410D01*
X26810Y-13453D01*
X26805Y-13455D01*
X26786Y-13425D01*
X26763Y-13345D01*
X26739Y-13234D01*
X26737Y-13227D01*
X26709Y-13095D01*
X26676Y-12978D01*
X26648Y-12906D01*
X26623Y-12850D01*
X26621Y-12804D01*
X26647Y-12751D01*
X26709Y-12675D01*
X26766Y-12611D01*
X26909Y-12498D01*
X27093Y-12423D01*
X27298Y-12387D01*
X27508Y-12393D01*
X27706Y-12443D01*
X27763Y-12469D01*
X27871Y-12536D01*
X27977Y-12622D01*
X28065Y-12712D01*
X28122Y-12792D01*
X28134Y-12833D01*
X28134Y-12833D01*
X28134Y-12833D01*
G37*
G54D10*
X26837Y-25944D02*
X27156Y-25944D01*
X27193Y-25962D01*
X27212Y-25981D01*
X27231Y-26019D01*
X27231Y-26094D01*
X27212Y-26131D01*
X27193Y-26150D01*
X27156Y-26169D01*
X26837Y-26169D01*
X26837Y-26319D02*
X26837Y-26562D01*
X26987Y-26431D01*
X26987Y-26487D01*
X27006Y-26525D01*
X27025Y-26544D01*
X27062Y-26562D01*
X27156Y-26562D01*
X27193Y-26544D01*
X27212Y-26525D01*
X27231Y-26487D01*
X27231Y-26375D01*
X27212Y-26337D01*
X27193Y-26319D01*
G54D15*
X29439Y-14490D02*
X29499Y-14395D01*
X29542Y-14490D02*
X29542Y-14290D01*
X29473Y-14290D01*
X29456Y-14299D01*
X29448Y-14309D01*
X29439Y-14328D01*
X29439Y-14357D01*
X29448Y-14376D01*
X29456Y-14385D01*
X29473Y-14395D01*
X29542Y-14395D01*
X29268Y-14490D02*
X29370Y-14490D01*
X29319Y-14490D02*
X29319Y-14290D01*
X29336Y-14318D01*
X29353Y-14338D01*
X29370Y-14347D01*
X28455Y-21301D02*
X28515Y-21206D01*
X28558Y-21301D02*
X28558Y-21101D01*
X28489Y-21101D01*
X28472Y-21110D01*
X28463Y-21120D01*
X28455Y-21139D01*
X28455Y-21168D01*
X28463Y-21187D01*
X28472Y-21196D01*
X28489Y-21206D01*
X28558Y-21206D01*
X28300Y-21101D02*
X28335Y-21101D01*
X28352Y-21110D01*
X28360Y-21120D01*
X28378Y-21149D01*
X28386Y-21187D01*
X28386Y-21263D01*
X28378Y-21282D01*
X28369Y-21291D01*
X28352Y-21301D01*
X28318Y-21301D01*
X28300Y-21291D01*
X28292Y-21282D01*
X28283Y-21263D01*
X28283Y-21215D01*
X28292Y-21196D01*
X28300Y-21187D01*
X28318Y-21177D01*
X28352Y-21177D01*
X28369Y-21187D01*
X28378Y-21196D01*
X28386Y-21215D01*
X29439Y-13506D02*
X29499Y-13410D01*
X29542Y-13506D02*
X29542Y-13306D01*
X29473Y-13306D01*
X29456Y-13315D01*
X29448Y-13325D01*
X29439Y-13344D01*
X29439Y-13372D01*
X29448Y-13391D01*
X29456Y-13401D01*
X29473Y-13410D01*
X29542Y-13410D01*
X29370Y-13325D02*
X29362Y-13315D01*
X29345Y-13306D01*
X29302Y-13306D01*
X29285Y-13315D01*
X29276Y-13325D01*
X29268Y-13344D01*
X29268Y-13363D01*
X29276Y-13391D01*
X29379Y-13506D01*
X29268Y-13506D01*
X23140Y-27424D02*
X23148Y-27433D01*
X23174Y-27443D01*
X23191Y-27443D01*
X23217Y-27433D01*
X23234Y-27414D01*
X23243Y-27395D01*
X23251Y-27357D01*
X23251Y-27328D01*
X23243Y-27290D01*
X23234Y-27271D01*
X23217Y-27252D01*
X23191Y-27243D01*
X23174Y-27243D01*
X23148Y-27252D01*
X23140Y-27262D01*
X22985Y-27243D02*
X23020Y-27243D01*
X23037Y-27252D01*
X23045Y-27262D01*
X23063Y-27290D01*
X23071Y-27328D01*
X23071Y-27405D01*
X23063Y-27424D01*
X23054Y-27433D01*
X23037Y-27443D01*
X23003Y-27443D01*
X22985Y-27433D01*
X22977Y-27424D01*
X22968Y-27405D01*
X22968Y-27357D01*
X22977Y-27338D01*
X22985Y-27328D01*
X23003Y-27319D01*
X23037Y-27319D01*
X23054Y-27328D01*
X23063Y-27338D01*
X23071Y-27357D01*
X24077Y-24340D02*
X24087Y-24331D01*
X24096Y-24305D01*
X24096Y-24288D01*
X24087Y-24262D01*
X24068Y-24245D01*
X24049Y-24237D01*
X24010Y-24228D01*
X23982Y-24228D01*
X23944Y-24237D01*
X23925Y-24245D01*
X23906Y-24262D01*
X23896Y-24288D01*
X23896Y-24305D01*
X23906Y-24331D01*
X23915Y-24340D01*
X23896Y-24400D02*
X23896Y-24520D01*
X24096Y-24442D01*
X27620Y-28545D02*
X27630Y-28537D01*
X27640Y-28511D01*
X27640Y-28494D01*
X27630Y-28468D01*
X27611Y-28451D01*
X27592Y-28442D01*
X27554Y-28434D01*
X27525Y-28434D01*
X27487Y-28442D01*
X27468Y-28451D01*
X27449Y-28468D01*
X27440Y-28494D01*
X27440Y-28511D01*
X27449Y-28537D01*
X27459Y-28545D01*
X27640Y-28717D02*
X27640Y-28614D01*
X27640Y-28665D02*
X27440Y-28665D01*
X27468Y-28648D01*
X27487Y-28631D01*
X27497Y-28614D01*
X27440Y-28828D02*
X27440Y-28845D01*
X27449Y-28862D01*
X27459Y-28871D01*
X27478Y-28879D01*
X27516Y-28888D01*
X27563Y-28888D01*
X27601Y-28879D01*
X27620Y-28871D01*
X27630Y-28862D01*
X27640Y-28845D01*
X27640Y-28828D01*
X27630Y-28811D01*
X27620Y-28802D01*
X27601Y-28794D01*
X27563Y-28785D01*
X27516Y-28785D01*
X27478Y-28794D01*
X27459Y-28802D01*
X27449Y-28811D01*
X27440Y-28828D01*
X28455Y-20277D02*
X28515Y-20182D01*
X28558Y-20277D02*
X28558Y-20077D01*
X28489Y-20077D01*
X28472Y-20087D01*
X28463Y-20096D01*
X28455Y-20115D01*
X28455Y-20144D01*
X28463Y-20163D01*
X28472Y-20173D01*
X28489Y-20182D01*
X28558Y-20182D01*
X28395Y-20077D02*
X28275Y-20077D01*
X28352Y-20277D01*
X28455Y-22443D02*
X28515Y-22347D01*
X28558Y-22443D02*
X28558Y-22243D01*
X28489Y-22243D01*
X28472Y-22252D01*
X28463Y-22262D01*
X28455Y-22281D01*
X28455Y-22309D01*
X28463Y-22328D01*
X28472Y-22338D01*
X28489Y-22347D01*
X28558Y-22347D01*
X28292Y-22243D02*
X28378Y-22243D01*
X28386Y-22338D01*
X28378Y-22328D01*
X28360Y-22319D01*
X28318Y-22319D01*
X28300Y-22328D01*
X28292Y-22338D01*
X28283Y-22357D01*
X28283Y-22405D01*
X28292Y-22424D01*
X28300Y-22433D01*
X28318Y-22443D01*
X28360Y-22443D01*
X28378Y-22433D01*
X28386Y-22424D01*
X28455Y-23584D02*
X28515Y-23489D01*
X28558Y-23584D02*
X28558Y-23384D01*
X28489Y-23384D01*
X28472Y-23394D01*
X28463Y-23403D01*
X28455Y-23422D01*
X28455Y-23451D01*
X28463Y-23470D01*
X28472Y-23480D01*
X28489Y-23489D01*
X28558Y-23489D01*
X28395Y-23384D02*
X28283Y-23384D01*
X28343Y-23461D01*
X28318Y-23461D01*
X28300Y-23470D01*
X28292Y-23480D01*
X28283Y-23499D01*
X28283Y-23546D01*
X28292Y-23565D01*
X28300Y-23575D01*
X28318Y-23584D01*
X28369Y-23584D01*
X28386Y-23575D01*
X28395Y-23565D01*
X21065Y-27332D02*
X20969Y-27272D01*
X21065Y-27229D02*
X20865Y-27229D01*
X20865Y-27297D01*
X20874Y-27315D01*
X20884Y-27323D01*
X20903Y-27332D01*
X20931Y-27332D01*
X20950Y-27323D01*
X20960Y-27315D01*
X20969Y-27297D01*
X20969Y-27229D01*
X20931Y-27486D02*
X21065Y-27486D01*
X20855Y-27443D02*
X20998Y-27400D01*
X20998Y-27512D01*
X22918Y-21773D02*
X22931Y-21774D01*
X22956Y-21763D01*
X22968Y-21751D01*
X22980Y-21726D01*
X22978Y-21700D01*
X22971Y-21681D01*
X22950Y-21648D01*
X22930Y-21627D01*
X22897Y-21606D01*
X22877Y-21599D01*
X22852Y-21598D01*
X22827Y-21609D01*
X22815Y-21621D01*
X22803Y-21646D01*
X22804Y-21659D01*
X22748Y-21688D02*
X22669Y-21767D01*
X22765Y-21778D01*
X22747Y-21796D01*
X22742Y-21815D01*
X22742Y-21828D01*
X22750Y-21848D01*
X22784Y-21881D01*
X22803Y-21889D01*
X22816Y-21889D01*
X22835Y-21884D01*
X22871Y-21848D01*
X22876Y-21829D01*
X22876Y-21816D01*
X22368Y-18546D02*
X22381Y-18547D01*
X22406Y-18535D01*
X22418Y-18523D01*
X22429Y-18498D01*
X22428Y-18473D01*
X22421Y-18453D01*
X22400Y-18420D01*
X22380Y-18400D01*
X22347Y-18379D01*
X22327Y-18372D01*
X22302Y-18370D01*
X22277Y-18382D01*
X22265Y-18394D01*
X22253Y-18419D01*
X22254Y-18432D01*
X22260Y-18681D02*
X22333Y-18608D01*
X22297Y-18645D02*
X22155Y-18503D01*
X22188Y-18511D01*
X22213Y-18513D01*
X22232Y-18507D01*
X21467Y-19410D02*
X21480Y-19411D01*
X21505Y-19399D01*
X21517Y-19387D01*
X21529Y-19362D01*
X21527Y-19337D01*
X21520Y-19317D01*
X21499Y-19284D01*
X21479Y-19264D01*
X21446Y-19243D01*
X21426Y-19236D01*
X21401Y-19234D01*
X21376Y-19246D01*
X21364Y-19258D01*
X21352Y-19283D01*
X21353Y-19296D01*
X21305Y-19344D02*
X21292Y-19343D01*
X21273Y-19349D01*
X21243Y-19379D01*
X21237Y-19398D01*
X21238Y-19411D01*
X21245Y-19430D01*
X21259Y-19444D01*
X21285Y-19458D01*
X21439Y-19466D01*
X21360Y-19545D01*
X25416Y-23749D02*
X25425Y-23740D01*
X25435Y-23715D01*
X25435Y-23698D01*
X25425Y-23672D01*
X25406Y-23655D01*
X25387Y-23646D01*
X25349Y-23638D01*
X25320Y-23638D01*
X25282Y-23646D01*
X25263Y-23655D01*
X25244Y-23672D01*
X25235Y-23698D01*
X25235Y-23715D01*
X25244Y-23740D01*
X25254Y-23749D01*
X25435Y-23835D02*
X25435Y-23869D01*
X25425Y-23886D01*
X25416Y-23895D01*
X25387Y-23912D01*
X25349Y-23920D01*
X25273Y-23920D01*
X25254Y-23912D01*
X25244Y-23903D01*
X25235Y-23886D01*
X25235Y-23852D01*
X25244Y-23835D01*
X25254Y-23826D01*
X25273Y-23818D01*
X25320Y-23818D01*
X25340Y-23826D01*
X25349Y-23835D01*
X25359Y-23852D01*
X25359Y-23886D01*
X25349Y-23903D01*
X25340Y-23912D01*
X25320Y-23920D01*
X26361Y-28631D02*
X26370Y-28622D01*
X26380Y-28597D01*
X26380Y-28579D01*
X26370Y-28554D01*
X26351Y-28537D01*
X26332Y-28528D01*
X26294Y-28519D01*
X26265Y-28519D01*
X26227Y-28528D01*
X26208Y-28537D01*
X26189Y-28554D01*
X26180Y-28579D01*
X26180Y-28597D01*
X26189Y-28622D01*
X26199Y-28631D01*
X26265Y-28734D02*
X26256Y-28717D01*
X26246Y-28708D01*
X26227Y-28699D01*
X26218Y-28699D01*
X26199Y-28708D01*
X26189Y-28717D01*
X26180Y-28734D01*
X26180Y-28768D01*
X26189Y-28785D01*
X26199Y-28794D01*
X26218Y-28802D01*
X26227Y-28802D01*
X26246Y-28794D01*
X26256Y-28785D01*
X26265Y-28768D01*
X26265Y-28734D01*
X26275Y-28717D01*
X26284Y-28708D01*
X26303Y-28699D01*
X26342Y-28699D01*
X26361Y-28708D01*
X26370Y-28717D01*
X26380Y-28734D01*
X26380Y-28768D01*
X26370Y-28785D01*
X26361Y-28794D01*
X26342Y-28802D01*
X26303Y-28802D01*
X26284Y-28794D01*
X26275Y-28785D01*
X26265Y-28768D01*
G54D16*
X23374Y-26354D02*
X23374Y-26577D01*
X23363Y-26603D01*
X23351Y-26617D01*
X23329Y-26630D01*
X23284Y-26630D01*
X23261Y-26617D01*
X23250Y-26603D01*
X23239Y-26577D01*
X23239Y-26354D01*
X23003Y-26630D02*
X23138Y-26630D01*
X23070Y-26630D02*
X23070Y-26354D01*
X23093Y-26393D01*
X23115Y-26419D01*
X23138Y-26433D01*
%LPC*%
G54D17*
X26125Y-27277D03*
X26125Y-25162D03*
G54D18*
X28541Y-26220D03*
G54D19*
X31000Y-27000D03*
G54D20*
X31000Y-26000D03*
X31000Y-25000D03*
X31000Y-24000D03*
X31000Y-23000D03*
X31000Y-22000D03*
X31000Y-21000D03*
X31000Y-20000D03*
X31000Y-19000D03*
X31000Y-18000D03*
X31000Y-17000D03*
X31000Y-16000D03*
X31000Y-15000D03*
X31000Y-14000D03*
X31000Y-13000D03*
G54D19*
X18000Y-13000D03*
G54D20*
X18000Y-14000D03*
X18000Y-15000D03*
X18000Y-16000D03*
X18000Y-17000D03*
X18000Y-18000D03*
X18000Y-19000D03*
X18000Y-20000D03*
X18000Y-21000D03*
X18000Y-22000D03*
X18000Y-23000D03*
X18000Y-24000D03*
X18000Y-25000D03*
X18000Y-26000D03*
X18000Y-27000D03*
G54D21*
X29803Y-13937D03*
X28976Y-13937D03*
X28818Y-20748D03*
X27992Y-20748D03*
X29803Y-12952D03*
X28976Y-12952D03*
X23503Y-26889D03*
X22677Y-26889D03*
G54D22*
X23543Y-23976D03*
X23543Y-24803D03*
X27086Y-28267D03*
X27086Y-29094D03*
G54D21*
X28818Y-19724D03*
X27992Y-19724D03*
X28818Y-21889D03*
X27992Y-21889D03*
X28818Y-23031D03*
X27992Y-23031D03*
G54D22*
X21456Y-27755D03*
X21456Y-26929D03*
G54D10*
G36*
X22778Y-20840D02*
X23096Y-21158D01*
X22817Y-21437D01*
X22499Y-21119D01*
X22778Y-20840D01*
X22778Y-20840D01*
G37*
G36*
X22193Y-21425D02*
X22511Y-21743D01*
X22233Y-22021D01*
X21915Y-21703D01*
X22193Y-21425D01*
X22193Y-21425D01*
G37*
G36*
X22379Y-19434D02*
X22061Y-19116D01*
X22339Y-18838D01*
X22657Y-19156D01*
X22379Y-19434D01*
X22379Y-19434D01*
G37*
G36*
X22963Y-18850D02*
X22645Y-18532D01*
X22924Y-18253D01*
X23242Y-18571D01*
X22963Y-18850D01*
X22963Y-18850D01*
G37*
G36*
X21636Y-19580D02*
X21954Y-19898D01*
X21676Y-20177D01*
X21358Y-19859D01*
X21636Y-19580D01*
X21636Y-19580D01*
G37*
G36*
X21051Y-20165D02*
X21370Y-20483D01*
X21091Y-20762D01*
X20773Y-20443D01*
X21051Y-20165D01*
X21051Y-20165D01*
G37*
G54D22*
X25826Y-24173D03*
X25826Y-23346D03*
X25826Y-28267D03*
X25826Y-29094D03*
G54D23*
X30314Y-29921D03*
X18897Y-29921D03*
G54D24*
X22007Y-25944D03*
X21751Y-25944D03*
X21495Y-25944D03*
X21239Y-25944D03*
X21239Y-23622D03*
X22775Y-25944D03*
X22519Y-25944D03*
X22263Y-25944D03*
X21495Y-23622D03*
X21751Y-23622D03*
X22007Y-23622D03*
X22263Y-23622D03*
X22519Y-23622D03*
X22775Y-23622D03*
G54D25*
X23976Y-28818D03*
X25275Y-28976D03*
X22480Y-28818D03*
X30511Y-23543D03*
X29409Y-23425D03*
X30039Y-27992D03*
X27519Y-28582D03*
X24763Y-24527D03*
X24763Y-25551D03*
X25078Y-26456D03*
X26535Y-28228D03*
X23543Y-27559D03*
X22952Y-22440D03*
X22165Y-22913D03*
X23070Y-21417D03*
X23543Y-23188D03*
X23858Y-20039D03*
X22637Y-19881D03*
X27716Y-15433D03*
X30354Y-15669D03*
X24645Y-16968D03*
X25708Y-16299D03*
X21417Y-19645D03*
X21968Y-19015D03*
X29330Y-18858D03*
X24370Y-22401D03*
X29921Y-17559D03*
X24842Y-21771D03*
X22322Y-24566D03*
X21732Y-24566D03*
X19763Y-13464D03*
X19763Y-16181D03*
X24685Y-27637D03*
X28937Y-29133D03*
X24409Y-26102D03*
X29921Y-25472D03*
X29409Y-14685D03*
X29409Y-16456D03*
X19173Y-24370D03*
X24881Y-28661D03*
X23425Y-28228D03*
X31417Y-31062D03*
X30708Y-31062D03*
X29803Y-31062D03*
X17952Y-30984D03*
X19133Y-30984D03*
X31338Y-12322D03*
X29921Y-12283D03*
X28622Y-12283D03*
X26496Y-12283D03*
X25196Y-12244D03*
X23385Y-12165D03*
X23385Y-13897D03*
X18149Y-12244D03*
X20590Y-12244D03*
X22086Y-12244D03*
X28976Y-31062D03*
X27795Y-31023D03*
X26614Y-31023D03*
X25433Y-30984D03*
X24370Y-30984D03*
X23307Y-30984D03*
X22204Y-30984D03*
X21220Y-30984D03*
X20314Y-30984D03*
X20078Y-27047D03*
X28976Y-24370D03*
X29212Y-21181D03*
X26496Y-26338D03*
X25826Y-26338D03*
X24606Y-26811D03*
X25984Y-15118D03*
X20866Y-15669D03*
X29094Y-27874D03*
X27519Y-16496D03*
X25826Y-17677D03*
X19921Y-19763D03*
X23425Y-25511D03*
X22244Y-27244D03*
X24685Y-23779D03*
X24330Y-24842D03*
X22086Y-20944D03*
X23346Y-18976D03*
X22047Y-26811D03*
X22755Y-22913D03*
X27007Y-19212D03*
X28503Y-13937D03*
X28464Y-12992D03*
X26692Y-24448D03*
X27125Y-21417D03*
X26141Y-25984D03*
X27125Y-21929D03*
X27047Y-26220D03*
X27125Y-22637D03*
X20551Y-18582D03*
X23700Y-15944D03*
X22913Y-15944D03*
X19881Y-19094D03*
X26535Y-23976D03*
X27125Y-20787D03*
M02*
