G04 (created by PCBNEW (2013-07-07 BZR 4022)-stable) date 2015/11/30 22:46:21*
%MOIN*%
G04 Gerber Fmt 3.4, Leading zero omitted, Abs format*
%FSLAX34Y34*%
G01*
G70*
G90*
G04 APERTURE LIST*
%ADD10C,0.00590551*%
%ADD11R,0.0629921X0.11811*%
%ADD12R,0.19X0.165*%
%ADD13R,0.06X0.06*%
%ADD14C,0.06*%
%ADD15R,0.0393701X0.045*%
%ADD16R,0.045X0.0393701*%
%ADD17R,0.0165X0.0629921*%
%ADD18R,0.0393701X0.0787402*%
%ADD19C,0.035*%
%ADD20C,0.02*%
%ADD21C,0.01*%
G04 APERTURE END LIST*
G54D10*
G54D11*
X48144Y-40055D03*
X46029Y-40055D03*
G54D12*
X47086Y-37639D03*
G54D13*
X51000Y-38000D03*
G54D14*
X51000Y-37000D03*
X51000Y-36000D03*
X51000Y-35000D03*
X51000Y-34000D03*
X51000Y-33000D03*
X51000Y-32000D03*
X51000Y-31000D03*
X51000Y-30000D03*
X51000Y-29000D03*
X51000Y-28000D03*
X51000Y-27000D03*
X51000Y-26000D03*
X51000Y-25000D03*
X51000Y-24000D03*
G54D13*
X37000Y-24000D03*
G54D14*
X37000Y-25000D03*
X37000Y-26000D03*
X37000Y-27000D03*
X37000Y-28000D03*
X37000Y-29000D03*
X37000Y-30000D03*
X37000Y-31000D03*
X37000Y-32000D03*
X37000Y-33000D03*
X37000Y-34000D03*
X37000Y-35000D03*
X37000Y-36000D03*
X37000Y-37000D03*
X37000Y-38000D03*
G54D15*
X48110Y-41338D03*
X48937Y-41338D03*
X43307Y-37401D03*
X44133Y-37401D03*
X43307Y-31889D03*
X44133Y-31889D03*
X40629Y-26496D03*
X39803Y-26496D03*
X42007Y-26496D03*
X42834Y-26496D03*
G54D16*
X46259Y-29921D03*
X46259Y-30748D03*
X47244Y-29921D03*
X47244Y-30748D03*
X48228Y-29921D03*
X48228Y-30748D03*
X49212Y-29921D03*
X49212Y-30748D03*
G54D15*
X49133Y-40039D03*
X49960Y-40039D03*
X42519Y-38385D03*
X41692Y-38385D03*
X43307Y-30708D03*
X44133Y-30708D03*
X41338Y-30708D03*
X42165Y-30708D03*
X41338Y-31889D03*
X42165Y-31889D03*
X44921Y-40039D03*
X44094Y-40039D03*
G54D17*
X42519Y-35787D03*
X42263Y-35787D03*
X42007Y-35787D03*
X41751Y-35787D03*
X41751Y-33464D03*
X43287Y-35787D03*
X43031Y-35787D03*
X42775Y-35787D03*
X42007Y-33464D03*
X42263Y-33464D03*
X42519Y-33464D03*
X42775Y-33464D03*
X43031Y-33464D03*
X43287Y-33464D03*
G54D13*
X51000Y-42000D03*
G54D14*
X51000Y-41000D03*
X51000Y-40000D03*
X51000Y-39000D03*
G54D13*
X37000Y-39000D03*
G54D14*
X37000Y-40000D03*
X37000Y-41000D03*
X37000Y-42000D03*
G54D18*
X38779Y-28464D03*
X39606Y-28464D03*
X37992Y-28464D03*
X38976Y-31850D03*
X39803Y-31850D03*
X38188Y-31850D03*
G54D19*
X43385Y-26496D03*
X49566Y-39133D03*
X43818Y-38425D03*
X44488Y-39094D03*
X48385Y-41023D03*
X43267Y-34921D03*
X44015Y-36023D03*
X50118Y-29527D03*
X41614Y-32086D03*
X40511Y-30551D03*
X44015Y-33031D03*
X43937Y-32559D03*
X48937Y-35984D03*
X43897Y-34370D03*
X43425Y-32559D03*
X37952Y-27598D03*
X38228Y-25826D03*
X40314Y-31377D03*
X41889Y-36692D03*
X42086Y-37125D03*
X41968Y-40000D03*
X45708Y-38937D03*
X46496Y-38937D03*
X39094Y-39015D03*
X49370Y-41889D03*
X41968Y-38976D03*
X41338Y-37716D03*
X40905Y-35078D03*
X41968Y-39488D03*
X43503Y-28503D03*
X46456Y-28385D03*
X38543Y-26535D03*
X43937Y-27362D03*
X46657Y-31964D03*
X47952Y-31850D03*
X47755Y-35393D03*
X44606Y-35984D03*
X49370Y-29409D03*
X46377Y-29370D03*
X36456Y-23503D03*
X39803Y-23543D03*
X44094Y-23543D03*
X47086Y-23425D03*
X49685Y-23464D03*
X51535Y-23503D03*
X38070Y-42598D03*
X36535Y-42598D03*
X36535Y-38425D03*
X36535Y-34488D03*
X36535Y-30511D03*
X47480Y-42637D03*
X49803Y-42519D03*
X51496Y-42519D03*
X51496Y-39527D03*
X51496Y-35511D03*
X51535Y-31574D03*
X51535Y-27559D03*
X39763Y-42598D03*
X43346Y-38700D03*
X42559Y-37559D03*
X43818Y-36811D03*
X41456Y-40354D03*
X43464Y-40314D03*
X39212Y-26496D03*
X41929Y-30472D03*
X39055Y-40551D03*
X39015Y-39606D03*
X39133Y-38149D03*
X49763Y-40511D03*
X49291Y-40905D03*
X48228Y-38937D03*
X45472Y-38228D03*
X43700Y-39173D03*
X41732Y-35000D03*
X48188Y-37086D03*
X45354Y-33661D03*
X41181Y-29881D03*
X42244Y-31377D03*
X41889Y-34133D03*
X44212Y-35157D03*
X47716Y-30275D03*
X41220Y-33307D03*
X44960Y-28897D03*
X44960Y-27952D03*
X48031Y-27913D03*
X42204Y-30078D03*
X40748Y-38346D03*
X46259Y-35472D03*
X48385Y-33700D03*
X46968Y-32992D03*
X42322Y-25748D03*
X38818Y-30551D03*
X40275Y-25708D03*
X38385Y-30039D03*
X44645Y-35472D03*
X48385Y-32086D03*
X47677Y-32283D03*
X48385Y-32637D03*
X45275Y-35472D03*
X45787Y-35472D03*
X48385Y-33188D03*
X47283Y-32637D03*
G54D20*
X51000Y-37000D02*
X50362Y-37000D01*
X50157Y-38543D02*
X49566Y-39133D01*
X50157Y-37204D02*
X50157Y-38543D01*
X50362Y-37000D02*
X50157Y-37204D01*
X43307Y-37913D02*
X43818Y-38425D01*
X44921Y-39527D02*
X44921Y-40039D01*
X44488Y-39094D02*
X44921Y-39527D01*
G54D21*
X47244Y-29921D02*
X46259Y-29921D01*
X48228Y-29921D02*
X47244Y-29921D01*
X49212Y-29921D02*
X48228Y-29921D01*
X43287Y-35787D02*
X43287Y-35570D01*
X43287Y-35570D02*
X44251Y-34606D01*
X44251Y-34606D02*
X44251Y-33779D01*
X44251Y-33779D02*
X45590Y-32440D01*
X45590Y-32440D02*
X45590Y-30078D01*
X45590Y-30078D02*
X45748Y-29921D01*
X45748Y-29921D02*
X46259Y-29921D01*
X43287Y-35787D02*
X43287Y-37382D01*
X43287Y-37382D02*
X43307Y-37401D01*
G54D20*
X43307Y-37913D02*
X42834Y-38385D01*
X42834Y-38385D02*
X42519Y-38385D01*
X43307Y-37913D02*
X43307Y-37401D01*
X48110Y-41338D02*
X48385Y-41062D01*
X48385Y-41062D02*
X48385Y-41023D01*
X44921Y-40039D02*
X44685Y-40275D01*
X44685Y-40275D02*
X44685Y-40905D01*
X44685Y-40905D02*
X45118Y-41338D01*
X45118Y-41338D02*
X48110Y-41338D01*
X46029Y-40055D02*
X46013Y-40039D01*
X46013Y-40039D02*
X44921Y-40039D01*
X48267Y-36220D02*
X47992Y-36496D01*
G54D21*
X43267Y-34921D02*
X43287Y-34901D01*
X43287Y-34901D02*
X43287Y-33464D01*
G54D20*
X44488Y-36496D02*
X44015Y-36023D01*
X47992Y-36496D02*
X44488Y-36496D01*
X48543Y-36496D02*
X48267Y-36220D01*
X48937Y-36889D02*
X48543Y-36496D01*
X49133Y-40039D02*
X49212Y-39960D01*
X48937Y-39330D02*
X48937Y-37165D01*
X49212Y-39606D02*
X48937Y-39330D01*
X49212Y-39960D02*
X49212Y-39606D01*
X48937Y-37165D02*
X48937Y-36889D01*
X50118Y-31535D02*
X49409Y-32244D01*
X49409Y-32244D02*
X49409Y-34212D01*
X49409Y-34212D02*
X48267Y-35354D01*
X48267Y-35354D02*
X48267Y-35866D01*
X50118Y-29527D02*
X50118Y-31535D01*
X48267Y-36220D02*
X48267Y-35866D01*
G54D21*
X42913Y-32519D02*
X42716Y-32322D01*
X41850Y-32322D02*
X41614Y-32086D01*
X42716Y-32322D02*
X41850Y-32322D01*
X41535Y-32086D02*
X41338Y-31889D01*
X41614Y-32086D02*
X41535Y-32086D01*
G54D20*
X43307Y-31889D02*
X43307Y-30708D01*
G54D21*
X43287Y-33464D02*
X43287Y-32893D01*
X43287Y-32893D02*
X42913Y-32519D01*
X42913Y-32519D02*
X42913Y-32086D01*
X42913Y-32086D02*
X43110Y-31889D01*
X43110Y-31889D02*
X43307Y-31889D01*
G54D20*
X41338Y-30708D02*
X41181Y-30551D01*
X41181Y-30551D02*
X40511Y-30551D01*
X41338Y-31889D02*
X41338Y-30708D01*
X49133Y-40039D02*
X49118Y-40055D01*
X49118Y-40055D02*
X48144Y-40055D01*
X48440Y-39748D02*
X48425Y-39763D01*
G54D21*
X51000Y-29000D02*
X46157Y-29000D01*
X44448Y-32598D02*
X44015Y-33031D01*
X45000Y-32598D02*
X44448Y-32598D01*
X45314Y-32283D02*
X45000Y-32598D01*
X45314Y-29842D02*
X45314Y-32283D01*
X46157Y-29000D02*
X45314Y-29842D01*
X50188Y-28000D02*
X49960Y-28228D01*
X49960Y-28228D02*
X49960Y-28543D01*
X49960Y-28543D02*
X49763Y-28740D01*
X49763Y-28740D02*
X46023Y-28740D01*
X46023Y-28740D02*
X45114Y-29648D01*
X45114Y-29648D02*
X45114Y-32089D01*
X45114Y-32089D02*
X44842Y-32362D01*
X44842Y-32362D02*
X44330Y-32362D01*
X44330Y-32362D02*
X44133Y-32559D01*
X50188Y-28000D02*
X51000Y-28000D01*
X43937Y-32559D02*
X44133Y-32559D01*
X43582Y-33188D02*
X43897Y-33503D01*
X43582Y-32992D02*
X43582Y-33188D01*
X43897Y-33503D02*
X43897Y-34370D01*
X51000Y-36000D02*
X48952Y-36000D01*
X48937Y-35984D02*
X48952Y-36000D01*
X43582Y-32716D02*
X43582Y-32992D01*
X43425Y-32559D02*
X43582Y-32716D01*
X39606Y-28464D02*
X39606Y-28070D01*
X39133Y-27598D02*
X37952Y-27598D01*
X39606Y-28070D02*
X39133Y-27598D01*
X37236Y-25236D02*
X37000Y-25000D01*
X37992Y-25236D02*
X37236Y-25236D01*
X38228Y-25472D02*
X37992Y-25236D01*
X38228Y-25826D02*
X38228Y-25472D01*
X39803Y-31850D02*
X40275Y-31377D01*
X40275Y-31377D02*
X40314Y-31377D01*
X37992Y-28464D02*
X37992Y-28188D01*
X37803Y-28000D02*
X37000Y-28000D01*
X37992Y-28188D02*
X37803Y-28000D01*
X38188Y-31850D02*
X37795Y-31850D01*
X37480Y-29480D02*
X37000Y-29000D01*
X37480Y-30590D02*
X37480Y-29480D01*
X37480Y-31535D02*
X37480Y-30590D01*
X37795Y-31850D02*
X37480Y-31535D01*
X42775Y-36318D02*
X42440Y-36653D01*
X42775Y-36318D02*
X42775Y-35787D01*
X42401Y-36692D02*
X42440Y-36653D01*
X41889Y-36692D02*
X42401Y-36692D01*
X42598Y-36929D02*
X43031Y-36495D01*
X43031Y-35787D02*
X43031Y-36495D01*
X42401Y-37125D02*
X42598Y-36929D01*
X42086Y-37125D02*
X42401Y-37125D01*
X37000Y-40000D02*
X41968Y-40000D01*
X46496Y-38937D02*
X45708Y-38937D01*
X39078Y-39000D02*
X37000Y-39000D01*
X39094Y-39015D02*
X39078Y-39000D01*
X49251Y-42007D02*
X49370Y-41889D01*
X43779Y-42007D02*
X49251Y-42007D01*
X42874Y-41102D02*
X43779Y-42007D01*
X42874Y-39488D02*
X42874Y-41102D01*
X42362Y-38976D02*
X42874Y-39488D01*
X41968Y-38976D02*
X42362Y-38976D01*
X40905Y-37283D02*
X41338Y-37716D01*
X40905Y-35078D02*
X40905Y-37283D01*
X50102Y-41000D02*
X51000Y-41000D01*
X49842Y-41259D02*
X50102Y-41000D01*
X49842Y-41968D02*
X49842Y-41259D01*
X49527Y-42283D02*
X49842Y-41968D01*
X43700Y-42283D02*
X49527Y-42283D01*
X42559Y-41141D02*
X43700Y-42283D01*
X42559Y-39803D02*
X42559Y-41141D01*
X42244Y-39488D02*
X42559Y-39803D01*
X41968Y-39488D02*
X42244Y-39488D01*
X46456Y-28385D02*
X43622Y-28385D01*
X43622Y-28385D02*
X43503Y-28503D01*
X51000Y-26000D02*
X50653Y-26000D01*
X49330Y-28385D02*
X46456Y-28385D01*
X50236Y-27480D02*
X49330Y-28385D01*
X50236Y-26417D02*
X50236Y-27480D01*
X50653Y-26000D02*
X50236Y-26417D01*
X38543Y-26535D02*
X38267Y-26259D01*
X37496Y-26000D02*
X37000Y-26000D01*
X37755Y-26259D02*
X37496Y-26000D01*
X38267Y-26259D02*
X37755Y-26259D01*
X46692Y-31929D02*
X46732Y-31929D01*
X46657Y-31964D02*
X46692Y-31929D01*
X49645Y-30157D02*
X49488Y-30314D01*
X48700Y-31102D02*
X48110Y-31692D01*
X48700Y-30472D02*
X48700Y-31102D01*
X48858Y-30314D02*
X48700Y-30472D01*
X49488Y-30314D02*
X48858Y-30314D01*
X47952Y-31850D02*
X48110Y-31692D01*
X47755Y-35393D02*
X47834Y-35472D01*
X49370Y-29409D02*
X49566Y-29409D01*
X47677Y-35984D02*
X44606Y-35984D01*
X47834Y-35826D02*
X47677Y-35984D01*
X47834Y-35078D02*
X47834Y-35472D01*
X47834Y-35472D02*
X47834Y-35826D01*
X48976Y-33937D02*
X47834Y-35078D01*
X48976Y-31811D02*
X48976Y-33937D01*
X49645Y-31141D02*
X48976Y-31811D01*
X49645Y-29488D02*
X49645Y-30157D01*
X49645Y-30157D02*
X49645Y-31141D01*
X49566Y-29409D02*
X49645Y-29488D01*
X46417Y-29409D02*
X49370Y-29409D01*
X46377Y-29370D02*
X46417Y-29409D01*
X39763Y-23503D02*
X36456Y-23503D01*
X39803Y-23543D02*
X39763Y-23503D01*
X46968Y-23543D02*
X44094Y-23543D01*
X47086Y-23425D02*
X46968Y-23543D01*
X51496Y-23464D02*
X49685Y-23464D01*
X51535Y-23503D02*
X51496Y-23464D01*
X38070Y-42598D02*
X36535Y-42598D01*
X36535Y-38425D02*
X36535Y-34488D01*
X36535Y-30511D02*
X36535Y-27464D01*
X36535Y-27464D02*
X37000Y-27000D01*
X47480Y-42637D02*
X47440Y-42598D01*
X49685Y-42637D02*
X47480Y-42637D01*
X51000Y-25000D02*
X51535Y-25535D01*
X51496Y-39527D02*
X51496Y-42519D01*
X51535Y-35472D02*
X51496Y-35511D01*
X51535Y-31574D02*
X51535Y-35472D01*
X51535Y-25535D02*
X51535Y-27559D01*
X49803Y-42519D02*
X49685Y-42637D01*
X47440Y-42598D02*
X39763Y-42598D01*
X44133Y-37401D02*
X44133Y-37125D01*
X42559Y-37559D02*
X42519Y-37598D01*
X44133Y-37125D02*
X43818Y-36811D01*
X44094Y-40039D02*
X43818Y-40314D01*
X43818Y-40314D02*
X43464Y-40314D01*
X39803Y-26496D02*
X39212Y-26496D01*
X42165Y-30708D02*
X41929Y-30472D01*
X49960Y-40039D02*
X49960Y-40314D01*
X49960Y-40314D02*
X49763Y-40511D01*
X48937Y-41338D02*
X48937Y-41259D01*
X48937Y-41259D02*
X49291Y-40905D01*
X47086Y-37639D02*
X47086Y-37795D01*
X47086Y-37795D02*
X48228Y-38937D01*
X47086Y-37639D02*
X46061Y-37639D01*
X46061Y-37639D02*
X45472Y-38228D01*
X44094Y-40039D02*
X44094Y-39566D01*
X44094Y-39566D02*
X43700Y-39173D01*
X41751Y-35787D02*
X41751Y-35019D01*
X41751Y-35019D02*
X41732Y-35000D01*
X47636Y-37639D02*
X47086Y-37639D01*
X48188Y-37086D02*
X47636Y-37639D01*
X45354Y-33661D02*
X45393Y-33661D01*
X44133Y-30708D02*
X43622Y-30196D01*
X42677Y-30196D02*
X42165Y-30708D01*
X43622Y-30196D02*
X42677Y-30196D01*
X42165Y-30708D02*
X41338Y-29881D01*
X41338Y-29881D02*
X41181Y-29881D01*
X41889Y-34133D02*
X41751Y-33995D01*
X41751Y-33464D02*
X41751Y-33995D01*
X44527Y-34842D02*
X44212Y-35157D01*
X44527Y-33897D02*
X44527Y-34842D01*
X45826Y-32598D02*
X44527Y-33897D01*
X45826Y-30354D02*
X45826Y-32598D01*
X45866Y-30314D02*
X45826Y-30354D01*
X47677Y-30314D02*
X45866Y-30314D01*
X47716Y-30275D02*
X47677Y-30314D01*
X41692Y-37401D02*
X41889Y-37598D01*
X41299Y-37007D02*
X41692Y-37401D01*
X41299Y-33385D02*
X41299Y-35866D01*
X41220Y-33307D02*
X41299Y-33385D01*
X44212Y-29645D02*
X43464Y-29645D01*
X44960Y-28897D02*
X44212Y-29645D01*
X45118Y-27795D02*
X44960Y-27952D01*
X47913Y-27795D02*
X45118Y-27795D01*
X48031Y-27913D02*
X47913Y-27795D01*
X41299Y-35866D02*
X41299Y-37007D01*
X41889Y-38188D02*
X41692Y-38385D01*
X41889Y-37598D02*
X41889Y-38188D01*
X42598Y-29645D02*
X43464Y-29645D01*
X42204Y-30039D02*
X42598Y-29645D01*
X42204Y-30078D02*
X42204Y-30039D01*
X40748Y-38346D02*
X40787Y-38385D01*
X40787Y-38385D02*
X41692Y-38385D01*
X37992Y-29842D02*
X37992Y-29645D01*
X43031Y-32952D02*
X42716Y-32637D01*
X42716Y-32637D02*
X41220Y-32637D01*
X41220Y-32637D02*
X40866Y-32283D01*
X40866Y-32283D02*
X40866Y-31417D01*
X40866Y-31417D02*
X40354Y-30905D01*
X40354Y-30905D02*
X38622Y-30905D01*
X38622Y-30905D02*
X37992Y-30275D01*
X37992Y-30275D02*
X37992Y-29842D01*
X43031Y-33464D02*
X43031Y-32952D01*
X38779Y-29094D02*
X38779Y-28464D01*
X38543Y-29330D02*
X38779Y-29094D01*
X38307Y-29330D02*
X38543Y-29330D01*
X37992Y-29645D02*
X38307Y-29330D01*
X42775Y-33464D02*
X42775Y-33011D01*
X38976Y-32637D02*
X38976Y-31850D01*
X39212Y-32874D02*
X38976Y-32637D01*
X42637Y-32874D02*
X39212Y-32874D01*
X42775Y-33011D02*
X42637Y-32874D01*
X46968Y-34291D02*
X46259Y-35000D01*
X46259Y-35000D02*
X46259Y-35472D01*
X48385Y-33700D02*
X47795Y-34291D01*
X47795Y-34291D02*
X46968Y-34291D01*
X46968Y-32992D02*
X46259Y-32283D01*
X46259Y-32283D02*
X46259Y-30748D01*
X42007Y-26496D02*
X42007Y-26062D01*
X42007Y-26062D02*
X42322Y-25748D01*
X41496Y-27086D02*
X41496Y-27007D01*
X41496Y-27007D02*
X42007Y-26496D01*
X38818Y-30551D02*
X39921Y-30551D01*
X41496Y-28976D02*
X41496Y-27086D01*
X41496Y-27086D02*
X41496Y-27047D01*
X39921Y-30551D02*
X41496Y-28976D01*
X40629Y-26496D02*
X40629Y-26062D01*
X40629Y-26062D02*
X40275Y-25708D01*
X40629Y-26496D02*
X41141Y-27007D01*
X39960Y-30039D02*
X41141Y-28858D01*
X41141Y-28858D02*
X41141Y-27007D01*
X38385Y-30039D02*
X39960Y-30039D01*
X45944Y-34055D02*
X46535Y-33464D01*
X48385Y-32086D02*
X47007Y-33464D01*
X44645Y-35472D02*
X44921Y-35196D01*
X44921Y-35196D02*
X44921Y-34251D01*
X44921Y-34251D02*
X45118Y-34055D01*
X45118Y-34055D02*
X45944Y-34055D01*
X46535Y-33464D02*
X47007Y-33464D01*
X48385Y-32086D02*
X48385Y-31771D01*
X49212Y-31181D02*
X49212Y-30748D01*
X48897Y-31496D02*
X49212Y-31181D01*
X48661Y-31496D02*
X48897Y-31496D01*
X48385Y-31771D02*
X48661Y-31496D01*
X47677Y-32283D02*
X47519Y-32125D01*
X48228Y-31141D02*
X48228Y-30748D01*
X47952Y-31417D02*
X48228Y-31141D01*
X47677Y-31417D02*
X47952Y-31417D01*
X47519Y-31574D02*
X47677Y-31417D01*
X47519Y-32125D02*
X47519Y-31574D01*
X46377Y-33976D02*
X46614Y-33740D01*
X48385Y-32637D02*
X47362Y-33661D01*
X47362Y-33661D02*
X47283Y-33740D01*
X45275Y-35472D02*
X45275Y-34448D01*
X45275Y-34448D02*
X45354Y-34370D01*
X45354Y-34370D02*
X45984Y-34370D01*
X45984Y-34370D02*
X46377Y-33976D01*
X46614Y-33740D02*
X47283Y-33740D01*
X47283Y-32637D02*
X47165Y-32519D01*
X47244Y-31181D02*
X47244Y-30748D01*
X47165Y-31259D02*
X47244Y-31181D01*
X47165Y-32519D02*
X47165Y-31259D01*
X48385Y-33188D02*
X47559Y-34015D01*
X45787Y-34921D02*
X46692Y-34015D01*
X45787Y-35472D02*
X45787Y-34921D01*
X46692Y-34015D02*
X47559Y-34015D01*
X47283Y-32637D02*
X47244Y-32598D01*
G54D10*
G36*
X43329Y-35246D02*
X43253Y-35322D01*
X43175Y-35322D01*
X43159Y-35328D01*
X43144Y-35322D01*
X43084Y-35322D01*
X42919Y-35322D01*
X42903Y-35328D01*
X42888Y-35322D01*
X42828Y-35322D01*
X42663Y-35322D01*
X42647Y-35328D01*
X42632Y-35322D01*
X42572Y-35322D01*
X42407Y-35322D01*
X42391Y-35328D01*
X42376Y-35322D01*
X42316Y-35322D01*
X42151Y-35322D01*
X42135Y-35328D01*
X42120Y-35322D01*
X42060Y-35322D01*
X42037Y-35322D01*
X41975Y-35260D01*
X41883Y-35222D01*
X41855Y-35222D01*
X41792Y-35284D01*
X41792Y-35399D01*
X41775Y-35442D01*
X41775Y-35501D01*
X41775Y-36131D01*
X41792Y-36174D01*
X41792Y-36289D01*
X41855Y-36352D01*
X41883Y-36352D01*
X41975Y-36314D01*
X42037Y-36252D01*
X42119Y-36252D01*
X42135Y-36245D01*
X42151Y-36251D01*
X42210Y-36252D01*
X42375Y-36252D01*
X42391Y-36245D01*
X42407Y-36251D01*
X42466Y-36252D01*
X42559Y-36252D01*
X42318Y-36492D01*
X42149Y-36492D01*
X42074Y-36417D01*
X41954Y-36367D01*
X41825Y-36367D01*
X41705Y-36417D01*
X41614Y-36508D01*
X41564Y-36627D01*
X41564Y-36757D01*
X41614Y-36876D01*
X41705Y-36968D01*
X41786Y-37001D01*
X41761Y-37061D01*
X41761Y-37187D01*
X41499Y-36925D01*
X41499Y-36285D01*
X41527Y-36314D01*
X41619Y-36352D01*
X41647Y-36352D01*
X41710Y-36289D01*
X41710Y-35837D01*
X41693Y-35837D01*
X41693Y-35737D01*
X41710Y-35737D01*
X41710Y-35284D01*
X41647Y-35222D01*
X41619Y-35222D01*
X41527Y-35260D01*
X41499Y-35288D01*
X41499Y-33483D01*
X41519Y-33435D01*
X41519Y-33809D01*
X41541Y-33864D01*
X41551Y-33874D01*
X41551Y-33995D01*
X41565Y-34066D01*
X41564Y-34068D01*
X41564Y-34198D01*
X41614Y-34317D01*
X41705Y-34409D01*
X41824Y-34458D01*
X41954Y-34458D01*
X42073Y-34409D01*
X42165Y-34318D01*
X42214Y-34198D01*
X42214Y-34069D01*
X42165Y-33950D01*
X42141Y-33925D01*
X42151Y-33929D01*
X42210Y-33929D01*
X42375Y-33929D01*
X42391Y-33923D01*
X42407Y-33929D01*
X42466Y-33929D01*
X42631Y-33929D01*
X42647Y-33923D01*
X42663Y-33929D01*
X42722Y-33929D01*
X42887Y-33929D01*
X42903Y-33923D01*
X42919Y-33929D01*
X42978Y-33929D01*
X43087Y-33929D01*
X43087Y-34643D01*
X43083Y-34645D01*
X42992Y-34736D01*
X42942Y-34856D01*
X42942Y-34985D01*
X42992Y-35105D01*
X43083Y-35196D01*
X43202Y-35246D01*
X43329Y-35246D01*
X43329Y-35246D01*
G37*
G54D21*
X43329Y-35246D02*
X43253Y-35322D01*
X43175Y-35322D01*
X43159Y-35328D01*
X43144Y-35322D01*
X43084Y-35322D01*
X42919Y-35322D01*
X42903Y-35328D01*
X42888Y-35322D01*
X42828Y-35322D01*
X42663Y-35322D01*
X42647Y-35328D01*
X42632Y-35322D01*
X42572Y-35322D01*
X42407Y-35322D01*
X42391Y-35328D01*
X42376Y-35322D01*
X42316Y-35322D01*
X42151Y-35322D01*
X42135Y-35328D01*
X42120Y-35322D01*
X42060Y-35322D01*
X42037Y-35322D01*
X41975Y-35260D01*
X41883Y-35222D01*
X41855Y-35222D01*
X41792Y-35284D01*
X41792Y-35399D01*
X41775Y-35442D01*
X41775Y-35501D01*
X41775Y-36131D01*
X41792Y-36174D01*
X41792Y-36289D01*
X41855Y-36352D01*
X41883Y-36352D01*
X41975Y-36314D01*
X42037Y-36252D01*
X42119Y-36252D01*
X42135Y-36245D01*
X42151Y-36251D01*
X42210Y-36252D01*
X42375Y-36252D01*
X42391Y-36245D01*
X42407Y-36251D01*
X42466Y-36252D01*
X42559Y-36252D01*
X42318Y-36492D01*
X42149Y-36492D01*
X42074Y-36417D01*
X41954Y-36367D01*
X41825Y-36367D01*
X41705Y-36417D01*
X41614Y-36508D01*
X41564Y-36627D01*
X41564Y-36757D01*
X41614Y-36876D01*
X41705Y-36968D01*
X41786Y-37001D01*
X41761Y-37061D01*
X41761Y-37187D01*
X41499Y-36925D01*
X41499Y-36285D01*
X41527Y-36314D01*
X41619Y-36352D01*
X41647Y-36352D01*
X41710Y-36289D01*
X41710Y-35837D01*
X41693Y-35837D01*
X41693Y-35737D01*
X41710Y-35737D01*
X41710Y-35284D01*
X41647Y-35222D01*
X41619Y-35222D01*
X41527Y-35260D01*
X41499Y-35288D01*
X41499Y-33483D01*
X41519Y-33435D01*
X41519Y-33809D01*
X41541Y-33864D01*
X41551Y-33874D01*
X41551Y-33995D01*
X41565Y-34066D01*
X41564Y-34068D01*
X41564Y-34198D01*
X41614Y-34317D01*
X41705Y-34409D01*
X41824Y-34458D01*
X41954Y-34458D01*
X42073Y-34409D01*
X42165Y-34318D01*
X42214Y-34198D01*
X42214Y-34069D01*
X42165Y-33950D01*
X42141Y-33925D01*
X42151Y-33929D01*
X42210Y-33929D01*
X42375Y-33929D01*
X42391Y-33923D01*
X42407Y-33929D01*
X42466Y-33929D01*
X42631Y-33929D01*
X42647Y-33923D01*
X42663Y-33929D01*
X42722Y-33929D01*
X42887Y-33929D01*
X42903Y-33923D01*
X42919Y-33929D01*
X42978Y-33929D01*
X43087Y-33929D01*
X43087Y-34643D01*
X43083Y-34645D01*
X42992Y-34736D01*
X42942Y-34856D01*
X42942Y-34985D01*
X42992Y-35105D01*
X43083Y-35196D01*
X43202Y-35246D01*
X43329Y-35246D01*
G54D10*
G36*
X46781Y-33264D02*
X46535Y-33264D01*
X46471Y-33277D01*
X46458Y-33279D01*
X46394Y-33323D01*
X45862Y-33855D01*
X45118Y-33855D01*
X45041Y-33870D01*
X45020Y-33884D01*
X44976Y-33913D01*
X44779Y-34110D01*
X44736Y-34175D01*
X44727Y-34220D01*
X44727Y-33980D01*
X45968Y-32739D01*
X45968Y-32739D01*
X45997Y-32696D01*
X46011Y-32674D01*
X46011Y-32674D01*
X46026Y-32598D01*
X46026Y-32598D01*
X46026Y-31094D01*
X46059Y-31094D01*
X46059Y-32283D01*
X46075Y-32360D01*
X46118Y-32424D01*
X46643Y-32950D01*
X46643Y-33056D01*
X46692Y-33175D01*
X46781Y-33264D01*
X46781Y-33264D01*
G37*
G54D21*
X46781Y-33264D02*
X46535Y-33264D01*
X46471Y-33277D01*
X46458Y-33279D01*
X46394Y-33323D01*
X45862Y-33855D01*
X45118Y-33855D01*
X45041Y-33870D01*
X45020Y-33884D01*
X44976Y-33913D01*
X44779Y-34110D01*
X44736Y-34175D01*
X44727Y-34220D01*
X44727Y-33980D01*
X45968Y-32739D01*
X45968Y-32739D01*
X45997Y-32696D01*
X46011Y-32674D01*
X46011Y-32674D01*
X46026Y-32598D01*
X46026Y-32598D01*
X46026Y-31094D01*
X46059Y-31094D01*
X46059Y-32283D01*
X46075Y-32360D01*
X46118Y-32424D01*
X46643Y-32950D01*
X46643Y-33056D01*
X46692Y-33175D01*
X46781Y-33264D01*
G54D10*
G36*
X47044Y-31098D02*
X47023Y-31118D01*
X46980Y-31183D01*
X46965Y-31259D01*
X46965Y-32519D01*
X46970Y-32544D01*
X46958Y-32572D01*
X46958Y-32667D01*
X46926Y-32667D01*
X46459Y-32200D01*
X46459Y-31094D01*
X46514Y-31094D01*
X46569Y-31072D01*
X46611Y-31029D01*
X46634Y-30974D01*
X46634Y-30915D01*
X46634Y-30521D01*
X46632Y-30514D01*
X46871Y-30514D01*
X46869Y-30521D01*
X46869Y-30580D01*
X46869Y-30974D01*
X46891Y-31029D01*
X46934Y-31071D01*
X46989Y-31094D01*
X47044Y-31094D01*
X47044Y-31098D01*
X47044Y-31098D01*
G37*
G54D21*
X47044Y-31098D02*
X47023Y-31118D01*
X46980Y-31183D01*
X46965Y-31259D01*
X46965Y-32519D01*
X46970Y-32544D01*
X46958Y-32572D01*
X46958Y-32667D01*
X46926Y-32667D01*
X46459Y-32200D01*
X46459Y-31094D01*
X46514Y-31094D01*
X46569Y-31072D01*
X46611Y-31029D01*
X46634Y-30974D01*
X46634Y-30915D01*
X46634Y-30521D01*
X46632Y-30514D01*
X46871Y-30514D01*
X46869Y-30521D01*
X46869Y-30580D01*
X46869Y-30974D01*
X46891Y-31029D01*
X46934Y-31071D01*
X46989Y-31094D01*
X47044Y-31094D01*
X47044Y-31098D01*
G54D10*
G36*
X51761Y-42742D02*
X51755Y-42743D01*
X51554Y-42743D01*
X51554Y-25081D01*
X51543Y-24863D01*
X51481Y-24712D01*
X51450Y-24703D01*
X51450Y-23910D01*
X51381Y-23745D01*
X51255Y-23618D01*
X51089Y-23550D01*
X50910Y-23549D01*
X50745Y-23618D01*
X50618Y-23744D01*
X50550Y-23910D01*
X50549Y-24089D01*
X50618Y-24254D01*
X50744Y-24381D01*
X50910Y-24449D01*
X50986Y-24449D01*
X50863Y-24456D01*
X50712Y-24518D01*
X50684Y-24614D01*
X51000Y-24929D01*
X51315Y-24614D01*
X51287Y-24518D01*
X51092Y-24448D01*
X51254Y-24381D01*
X51381Y-24255D01*
X51449Y-24089D01*
X51450Y-23910D01*
X51450Y-24703D01*
X51385Y-24684D01*
X51070Y-25000D01*
X51385Y-25315D01*
X51481Y-25287D01*
X51554Y-25081D01*
X51554Y-42743D01*
X51450Y-42743D01*
X51450Y-40910D01*
X51450Y-39910D01*
X51450Y-38910D01*
X51450Y-36910D01*
X51450Y-35910D01*
X51450Y-34910D01*
X51450Y-33910D01*
X51450Y-32910D01*
X51450Y-31910D01*
X51450Y-30910D01*
X51450Y-29910D01*
X51381Y-29745D01*
X51255Y-29618D01*
X51089Y-29550D01*
X50910Y-29549D01*
X50745Y-29618D01*
X50618Y-29744D01*
X50550Y-29910D01*
X50549Y-30089D01*
X50618Y-30254D01*
X50744Y-30381D01*
X50910Y-30449D01*
X51089Y-30450D01*
X51254Y-30381D01*
X51381Y-30255D01*
X51449Y-30089D01*
X51450Y-29910D01*
X51450Y-30910D01*
X51381Y-30745D01*
X51255Y-30618D01*
X51089Y-30550D01*
X50910Y-30549D01*
X50745Y-30618D01*
X50618Y-30744D01*
X50550Y-30910D01*
X50549Y-31089D01*
X50618Y-31254D01*
X50744Y-31381D01*
X50910Y-31449D01*
X51089Y-31450D01*
X51254Y-31381D01*
X51381Y-31255D01*
X51449Y-31089D01*
X51450Y-30910D01*
X51450Y-31910D01*
X51381Y-31745D01*
X51255Y-31618D01*
X51089Y-31550D01*
X50910Y-31549D01*
X50745Y-31618D01*
X50618Y-31744D01*
X50550Y-31910D01*
X50549Y-32089D01*
X50618Y-32254D01*
X50744Y-32381D01*
X50910Y-32449D01*
X51089Y-32450D01*
X51254Y-32381D01*
X51381Y-32255D01*
X51449Y-32089D01*
X51450Y-31910D01*
X51450Y-32910D01*
X51381Y-32745D01*
X51255Y-32618D01*
X51089Y-32550D01*
X50910Y-32549D01*
X50745Y-32618D01*
X50618Y-32744D01*
X50550Y-32910D01*
X50549Y-33089D01*
X50618Y-33254D01*
X50744Y-33381D01*
X50910Y-33449D01*
X51089Y-33450D01*
X51254Y-33381D01*
X51381Y-33255D01*
X51449Y-33089D01*
X51450Y-32910D01*
X51450Y-33910D01*
X51381Y-33745D01*
X51255Y-33618D01*
X51089Y-33550D01*
X50910Y-33549D01*
X50745Y-33618D01*
X50618Y-33744D01*
X50550Y-33910D01*
X50549Y-34089D01*
X50618Y-34254D01*
X50744Y-34381D01*
X50910Y-34449D01*
X51089Y-34450D01*
X51254Y-34381D01*
X51381Y-34255D01*
X51449Y-34089D01*
X51450Y-33910D01*
X51450Y-34910D01*
X51381Y-34745D01*
X51255Y-34618D01*
X51089Y-34550D01*
X50910Y-34549D01*
X50745Y-34618D01*
X50618Y-34744D01*
X50550Y-34910D01*
X50549Y-35089D01*
X50618Y-35254D01*
X50744Y-35381D01*
X50910Y-35449D01*
X51089Y-35450D01*
X51254Y-35381D01*
X51381Y-35255D01*
X51449Y-35089D01*
X51450Y-34910D01*
X51450Y-35910D01*
X51381Y-35745D01*
X51255Y-35618D01*
X51089Y-35550D01*
X50910Y-35549D01*
X50745Y-35618D01*
X50618Y-35744D01*
X50595Y-35800D01*
X50443Y-35800D01*
X50443Y-29463D01*
X50393Y-29343D01*
X50302Y-29252D01*
X50183Y-29202D01*
X50053Y-29202D01*
X49934Y-29251D01*
X49842Y-29343D01*
X49793Y-29462D01*
X49793Y-29591D01*
X49842Y-29711D01*
X49868Y-29737D01*
X49868Y-31431D01*
X49232Y-32067D01*
X49178Y-32148D01*
X49159Y-32244D01*
X49159Y-34109D01*
X48090Y-35177D01*
X48036Y-35258D01*
X48017Y-35354D01*
X48017Y-35866D01*
X48017Y-36116D01*
X47888Y-36246D01*
X44591Y-36246D01*
X44340Y-35995D01*
X44340Y-35959D01*
X44291Y-35839D01*
X44200Y-35748D01*
X44080Y-35698D01*
X43951Y-35698D01*
X43831Y-35747D01*
X43740Y-35839D01*
X43690Y-35958D01*
X43690Y-36087D01*
X43740Y-36207D01*
X43831Y-36298D01*
X43950Y-36348D01*
X43987Y-36348D01*
X44311Y-36672D01*
X44392Y-36727D01*
X44392Y-36727D01*
X44488Y-36746D01*
X45894Y-36746D01*
X45886Y-36764D01*
X45886Y-36864D01*
X45886Y-37527D01*
X45949Y-37589D01*
X47036Y-37589D01*
X47036Y-37581D01*
X47136Y-37581D01*
X47136Y-37589D01*
X48224Y-37589D01*
X48286Y-37527D01*
X48286Y-36864D01*
X48286Y-36764D01*
X48248Y-36672D01*
X48208Y-36633D01*
X48267Y-36574D01*
X48366Y-36672D01*
X48366Y-36672D01*
X48687Y-36993D01*
X48687Y-37165D01*
X48687Y-39330D01*
X48706Y-39426D01*
X48760Y-39507D01*
X48917Y-39664D01*
X48907Y-39664D01*
X48852Y-39687D01*
X48809Y-39729D01*
X48787Y-39784D01*
X48787Y-39805D01*
X48679Y-39805D01*
X48690Y-39748D01*
X48671Y-39652D01*
X48617Y-39571D01*
X48609Y-39565D01*
X48609Y-39434D01*
X48586Y-39379D01*
X48544Y-39337D01*
X48489Y-39314D01*
X48429Y-39314D01*
X48286Y-39314D01*
X48286Y-38415D01*
X48286Y-37752D01*
X48224Y-37689D01*
X47136Y-37689D01*
X47136Y-38652D01*
X47199Y-38714D01*
X48086Y-38714D01*
X48178Y-38676D01*
X48248Y-38606D01*
X48286Y-38514D01*
X48286Y-38415D01*
X48286Y-39314D01*
X47799Y-39314D01*
X47744Y-39337D01*
X47702Y-39379D01*
X47679Y-39434D01*
X47679Y-39494D01*
X47679Y-40675D01*
X47701Y-40730D01*
X47744Y-40772D01*
X47799Y-40795D01*
X47858Y-40795D01*
X48154Y-40795D01*
X48110Y-40839D01*
X48060Y-40958D01*
X48060Y-40963D01*
X47883Y-40963D01*
X47828Y-40986D01*
X47786Y-41028D01*
X47763Y-41083D01*
X47763Y-41088D01*
X47036Y-41088D01*
X47036Y-38652D01*
X47036Y-37689D01*
X45949Y-37689D01*
X45886Y-37752D01*
X45886Y-38415D01*
X45886Y-38514D01*
X45924Y-38606D01*
X45995Y-38676D01*
X46087Y-38714D01*
X46258Y-38714D01*
X46236Y-38737D01*
X45968Y-38737D01*
X45892Y-38661D01*
X45773Y-38612D01*
X45644Y-38611D01*
X45524Y-38661D01*
X45433Y-38752D01*
X45383Y-38872D01*
X45383Y-39001D01*
X45432Y-39120D01*
X45524Y-39212D01*
X45643Y-39261D01*
X45773Y-39262D01*
X45892Y-39212D01*
X45968Y-39137D01*
X46236Y-39137D01*
X46311Y-39212D01*
X46431Y-39261D01*
X46560Y-39262D01*
X46679Y-39212D01*
X46771Y-39121D01*
X46821Y-39001D01*
X46821Y-38872D01*
X46771Y-38753D01*
X46733Y-38714D01*
X46974Y-38714D01*
X47036Y-38652D01*
X47036Y-41088D01*
X45221Y-41088D01*
X44935Y-40801D01*
X44935Y-40414D01*
X45147Y-40414D01*
X45202Y-40391D01*
X45245Y-40349D01*
X45268Y-40294D01*
X45268Y-40289D01*
X45564Y-40289D01*
X45564Y-40675D01*
X45586Y-40730D01*
X45629Y-40772D01*
X45684Y-40795D01*
X45743Y-40795D01*
X46373Y-40795D01*
X46428Y-40772D01*
X46471Y-40730D01*
X46494Y-40675D01*
X46494Y-40615D01*
X46494Y-39434D01*
X46471Y-39379D01*
X46429Y-39337D01*
X46374Y-39314D01*
X46314Y-39314D01*
X45684Y-39314D01*
X45629Y-39337D01*
X45587Y-39379D01*
X45564Y-39434D01*
X45564Y-39494D01*
X45564Y-39789D01*
X45268Y-39789D01*
X45268Y-39784D01*
X45245Y-39729D01*
X45203Y-39687D01*
X45171Y-39674D01*
X45171Y-39527D01*
X45171Y-39527D01*
X45171Y-39527D01*
X45167Y-39508D01*
X45152Y-39431D01*
X45152Y-39431D01*
X45098Y-39350D01*
X45098Y-39350D01*
X44813Y-39065D01*
X44813Y-39030D01*
X44763Y-38910D01*
X44672Y-38819D01*
X44580Y-38781D01*
X44580Y-37577D01*
X44580Y-37226D01*
X44580Y-37126D01*
X44542Y-37034D01*
X44472Y-36964D01*
X44380Y-36926D01*
X44246Y-36926D01*
X44183Y-36989D01*
X44183Y-37351D01*
X44518Y-37351D01*
X44580Y-37289D01*
X44580Y-37226D01*
X44580Y-37577D01*
X44580Y-37514D01*
X44518Y-37451D01*
X44183Y-37451D01*
X44183Y-37814D01*
X44246Y-37876D01*
X44380Y-37876D01*
X44472Y-37838D01*
X44542Y-37768D01*
X44580Y-37676D01*
X44580Y-37577D01*
X44580Y-38781D01*
X44553Y-38769D01*
X44423Y-38769D01*
X44304Y-38818D01*
X44212Y-38910D01*
X44163Y-39029D01*
X44163Y-39158D01*
X44212Y-39278D01*
X44303Y-39369D01*
X44423Y-39419D01*
X44459Y-39419D01*
X44671Y-39631D01*
X44671Y-39674D01*
X44639Y-39687D01*
X44597Y-39729D01*
X44574Y-39784D01*
X44574Y-39844D01*
X44574Y-40032D01*
X44541Y-40065D01*
X44541Y-39863D01*
X44541Y-39764D01*
X44503Y-39672D01*
X44432Y-39602D01*
X44340Y-39564D01*
X44206Y-39564D01*
X44144Y-39626D01*
X44144Y-39989D01*
X44478Y-39989D01*
X44541Y-39926D01*
X44541Y-39863D01*
X44541Y-40065D01*
X44508Y-40098D01*
X44500Y-40110D01*
X44478Y-40089D01*
X44144Y-40089D01*
X44144Y-40451D01*
X44206Y-40514D01*
X44340Y-40514D01*
X44432Y-40476D01*
X44435Y-40474D01*
X44435Y-40905D01*
X44454Y-41001D01*
X44508Y-41082D01*
X44941Y-41515D01*
X44941Y-41515D01*
X45022Y-41569D01*
X45022Y-41569D01*
X45099Y-41584D01*
X45118Y-41588D01*
X45118Y-41588D01*
X45118Y-41588D01*
X47763Y-41588D01*
X47763Y-41593D01*
X47786Y-41648D01*
X47828Y-41690D01*
X47883Y-41713D01*
X47943Y-41713D01*
X48336Y-41713D01*
X48391Y-41690D01*
X48434Y-41648D01*
X48457Y-41593D01*
X48457Y-41533D01*
X48457Y-41345D01*
X48569Y-41299D01*
X48580Y-41288D01*
X48887Y-41288D01*
X48887Y-40926D01*
X48824Y-40863D01*
X48690Y-40863D01*
X48674Y-40870D01*
X48661Y-40839D01*
X48570Y-40748D01*
X48569Y-40747D01*
X48586Y-40730D01*
X48609Y-40675D01*
X48609Y-40615D01*
X48609Y-40305D01*
X48791Y-40305D01*
X48809Y-40349D01*
X48851Y-40391D01*
X48907Y-40414D01*
X48966Y-40414D01*
X49360Y-40414D01*
X49415Y-40391D01*
X49457Y-40349D01*
X49480Y-40294D01*
X49480Y-40234D01*
X49480Y-39784D01*
X49462Y-39740D01*
X49462Y-39606D01*
X49443Y-39510D01*
X49443Y-39510D01*
X49421Y-39478D01*
X49389Y-39429D01*
X49389Y-39429D01*
X49187Y-39227D01*
X49187Y-37165D01*
X49187Y-36889D01*
X49167Y-36794D01*
X49167Y-36794D01*
X49113Y-36712D01*
X49113Y-36712D01*
X48720Y-36319D01*
X48720Y-36319D01*
X48517Y-36116D01*
X48517Y-35866D01*
X48517Y-35457D01*
X49586Y-34389D01*
X49640Y-34308D01*
X49640Y-34308D01*
X49659Y-34212D01*
X49659Y-32347D01*
X50294Y-31712D01*
X50349Y-31631D01*
X50349Y-31631D01*
X50368Y-31535D01*
X50368Y-29737D01*
X50393Y-29711D01*
X50443Y-29592D01*
X50443Y-29463D01*
X50443Y-35800D01*
X49212Y-35800D01*
X49121Y-35708D01*
X49001Y-35659D01*
X48872Y-35659D01*
X48753Y-35708D01*
X48661Y-35799D01*
X48612Y-35919D01*
X48611Y-36048D01*
X48661Y-36168D01*
X48752Y-36259D01*
X48872Y-36309D01*
X49001Y-36309D01*
X49120Y-36259D01*
X49180Y-36200D01*
X50595Y-36200D01*
X50618Y-36254D01*
X50744Y-36381D01*
X50910Y-36449D01*
X51089Y-36450D01*
X51254Y-36381D01*
X51381Y-36255D01*
X51449Y-36089D01*
X51450Y-35910D01*
X51450Y-36910D01*
X51381Y-36745D01*
X51255Y-36618D01*
X51089Y-36550D01*
X50910Y-36549D01*
X50745Y-36618D01*
X50618Y-36744D01*
X50616Y-36750D01*
X50362Y-36750D01*
X50266Y-36769D01*
X50185Y-36823D01*
X49980Y-37027D01*
X49926Y-37109D01*
X49907Y-37204D01*
X49907Y-38439D01*
X49538Y-38808D01*
X49502Y-38808D01*
X49383Y-38858D01*
X49291Y-38949D01*
X49241Y-39068D01*
X49241Y-39198D01*
X49291Y-39317D01*
X49382Y-39409D01*
X49501Y-39458D01*
X49631Y-39458D01*
X49750Y-39409D01*
X49842Y-39318D01*
X49891Y-39198D01*
X49891Y-39162D01*
X50334Y-38720D01*
X50388Y-38638D01*
X50388Y-38638D01*
X50407Y-38543D01*
X50407Y-37308D01*
X50465Y-37250D01*
X50616Y-37250D01*
X50618Y-37254D01*
X50744Y-37381D01*
X50910Y-37449D01*
X51089Y-37450D01*
X51254Y-37381D01*
X51381Y-37255D01*
X51449Y-37089D01*
X51450Y-36910D01*
X51450Y-38910D01*
X51450Y-38910D01*
X51450Y-38270D01*
X51450Y-37670D01*
X51427Y-37615D01*
X51385Y-37572D01*
X51329Y-37550D01*
X51270Y-37549D01*
X50670Y-37549D01*
X50615Y-37572D01*
X50572Y-37614D01*
X50550Y-37670D01*
X50549Y-37729D01*
X50549Y-38329D01*
X50572Y-38384D01*
X50614Y-38427D01*
X50670Y-38449D01*
X50729Y-38450D01*
X51329Y-38450D01*
X51384Y-38427D01*
X51427Y-38385D01*
X51449Y-38329D01*
X51450Y-38270D01*
X51450Y-38910D01*
X51381Y-38745D01*
X51255Y-38618D01*
X51089Y-38550D01*
X50910Y-38549D01*
X50745Y-38618D01*
X50618Y-38744D01*
X50550Y-38910D01*
X50549Y-39089D01*
X50618Y-39254D01*
X50744Y-39381D01*
X50910Y-39449D01*
X51089Y-39450D01*
X51254Y-39381D01*
X51381Y-39255D01*
X51449Y-39089D01*
X51450Y-38910D01*
X51450Y-39910D01*
X51381Y-39745D01*
X51255Y-39618D01*
X51089Y-39550D01*
X50910Y-39549D01*
X50745Y-39618D01*
X50618Y-39744D01*
X50550Y-39910D01*
X50549Y-40089D01*
X50618Y-40254D01*
X50744Y-40381D01*
X50910Y-40449D01*
X51089Y-40450D01*
X51254Y-40381D01*
X51381Y-40255D01*
X51449Y-40089D01*
X51450Y-39910D01*
X51450Y-40910D01*
X51381Y-40745D01*
X51255Y-40618D01*
X51089Y-40550D01*
X50910Y-40549D01*
X50745Y-40618D01*
X50618Y-40744D01*
X50595Y-40800D01*
X50407Y-40800D01*
X50407Y-40214D01*
X50407Y-39863D01*
X50407Y-39764D01*
X50369Y-39672D01*
X50298Y-39602D01*
X50206Y-39564D01*
X50073Y-39564D01*
X50010Y-39626D01*
X50010Y-39989D01*
X50344Y-39989D01*
X50407Y-39926D01*
X50407Y-39863D01*
X50407Y-40214D01*
X50407Y-40151D01*
X50344Y-40089D01*
X50010Y-40089D01*
X50010Y-40451D01*
X50073Y-40514D01*
X50206Y-40514D01*
X50298Y-40476D01*
X50369Y-40406D01*
X50407Y-40314D01*
X50407Y-40214D01*
X50407Y-40800D01*
X50102Y-40800D01*
X50025Y-40815D01*
X50004Y-40829D01*
X49960Y-40858D01*
X49910Y-40908D01*
X49910Y-40451D01*
X49910Y-40089D01*
X49910Y-39989D01*
X49910Y-39626D01*
X49848Y-39564D01*
X49714Y-39564D01*
X49622Y-39602D01*
X49551Y-39672D01*
X49513Y-39764D01*
X49513Y-39863D01*
X49513Y-39926D01*
X49576Y-39989D01*
X49910Y-39989D01*
X49910Y-40089D01*
X49576Y-40089D01*
X49513Y-40151D01*
X49513Y-40214D01*
X49513Y-40314D01*
X49551Y-40406D01*
X49622Y-40476D01*
X49714Y-40514D01*
X49848Y-40514D01*
X49910Y-40451D01*
X49910Y-40908D01*
X49701Y-41118D01*
X49657Y-41183D01*
X49642Y-41259D01*
X49642Y-41702D01*
X49554Y-41614D01*
X49435Y-41564D01*
X49383Y-41564D01*
X49383Y-41514D01*
X49383Y-41163D01*
X49383Y-41063D01*
X49345Y-40971D01*
X49275Y-40901D01*
X49183Y-40863D01*
X49049Y-40863D01*
X48987Y-40926D01*
X48987Y-41288D01*
X49321Y-41288D01*
X49383Y-41226D01*
X49383Y-41163D01*
X49383Y-41514D01*
X49383Y-41451D01*
X49321Y-41388D01*
X48987Y-41388D01*
X48987Y-41396D01*
X48887Y-41396D01*
X48887Y-41388D01*
X48552Y-41388D01*
X48490Y-41451D01*
X48490Y-41514D01*
X48490Y-41613D01*
X48528Y-41705D01*
X48598Y-41775D01*
X48676Y-41807D01*
X44044Y-41807D01*
X44044Y-40451D01*
X44044Y-40089D01*
X44044Y-39989D01*
X44044Y-39626D01*
X43981Y-39564D01*
X43848Y-39564D01*
X43756Y-39602D01*
X43685Y-39672D01*
X43647Y-39764D01*
X43647Y-39863D01*
X43647Y-39926D01*
X43710Y-39989D01*
X44044Y-39989D01*
X44044Y-40089D01*
X43710Y-40089D01*
X43647Y-40151D01*
X43647Y-40214D01*
X43647Y-40314D01*
X43685Y-40406D01*
X43756Y-40476D01*
X43848Y-40514D01*
X43981Y-40514D01*
X44044Y-40451D01*
X44044Y-41807D01*
X43862Y-41807D01*
X43074Y-41019D01*
X43074Y-39488D01*
X43058Y-39411D01*
X43058Y-39411D01*
X43044Y-39390D01*
X43015Y-39346D01*
X43015Y-39346D01*
X42503Y-38834D01*
X42438Y-38791D01*
X42362Y-38776D01*
X42228Y-38776D01*
X42152Y-38701D01*
X42035Y-38652D01*
X42039Y-38640D01*
X42039Y-38581D01*
X42039Y-38317D01*
X42039Y-38317D01*
X42060Y-38287D01*
X42074Y-38265D01*
X42074Y-38265D01*
X42089Y-38188D01*
X42089Y-38188D01*
X42089Y-37598D01*
X42089Y-37598D01*
X42074Y-37521D01*
X42074Y-37521D01*
X42060Y-37500D01*
X42031Y-37457D01*
X42031Y-37457D01*
X42025Y-37450D01*
X42150Y-37451D01*
X42270Y-37401D01*
X42346Y-37325D01*
X42401Y-37325D01*
X42478Y-37310D01*
X42542Y-37267D01*
X42739Y-37070D01*
X42739Y-37070D01*
X42739Y-37070D01*
X43087Y-36722D01*
X43087Y-37026D01*
X43080Y-37026D01*
X43025Y-37049D01*
X42983Y-37091D01*
X42960Y-37146D01*
X42960Y-37206D01*
X42960Y-37656D01*
X42982Y-37711D01*
X43025Y-37753D01*
X43057Y-37766D01*
X43057Y-37809D01*
X42817Y-38049D01*
X42801Y-38033D01*
X42746Y-38010D01*
X42686Y-38010D01*
X42293Y-38010D01*
X42237Y-38033D01*
X42195Y-38075D01*
X42172Y-38130D01*
X42172Y-38190D01*
X42172Y-38640D01*
X42195Y-38695D01*
X42237Y-38737D01*
X42292Y-38760D01*
X42352Y-38760D01*
X42746Y-38760D01*
X42801Y-38738D01*
X42843Y-38695D01*
X42866Y-38640D01*
X42866Y-38629D01*
X42930Y-38616D01*
X43011Y-38562D01*
X43307Y-38266D01*
X43493Y-38453D01*
X43493Y-38489D01*
X43543Y-38609D01*
X43634Y-38700D01*
X43753Y-38750D01*
X43883Y-38750D01*
X44002Y-38700D01*
X44094Y-38609D01*
X44143Y-38490D01*
X44143Y-38360D01*
X44094Y-38241D01*
X44083Y-38230D01*
X44083Y-37814D01*
X44083Y-37451D01*
X44083Y-37351D01*
X44083Y-36989D01*
X44021Y-36926D01*
X43887Y-36926D01*
X43795Y-36964D01*
X43725Y-37034D01*
X43687Y-37126D01*
X43686Y-37226D01*
X43687Y-37289D01*
X43749Y-37351D01*
X44083Y-37351D01*
X44083Y-37451D01*
X43749Y-37451D01*
X43687Y-37514D01*
X43686Y-37577D01*
X43687Y-37676D01*
X43725Y-37768D01*
X43795Y-37838D01*
X43887Y-37876D01*
X44021Y-37876D01*
X44083Y-37814D01*
X44083Y-38230D01*
X44003Y-38149D01*
X43883Y-38100D01*
X43847Y-38100D01*
X43557Y-37809D01*
X43557Y-37766D01*
X43588Y-37753D01*
X43631Y-37711D01*
X43653Y-37656D01*
X43653Y-37596D01*
X43653Y-37146D01*
X43631Y-37091D01*
X43589Y-37049D01*
X43533Y-37026D01*
X43487Y-37026D01*
X43487Y-36196D01*
X43497Y-36187D01*
X43520Y-36131D01*
X43520Y-36072D01*
X43520Y-35620D01*
X43896Y-35244D01*
X43936Y-35341D01*
X44028Y-35432D01*
X44147Y-35482D01*
X44276Y-35482D01*
X44320Y-35464D01*
X44320Y-35536D01*
X44369Y-35656D01*
X44461Y-35747D01*
X44580Y-35797D01*
X44710Y-35797D01*
X44829Y-35748D01*
X44921Y-35656D01*
X44960Y-35561D01*
X44999Y-35656D01*
X45091Y-35747D01*
X45210Y-35797D01*
X45339Y-35797D01*
X45459Y-35748D01*
X45531Y-35676D01*
X45603Y-35747D01*
X45722Y-35797D01*
X45851Y-35797D01*
X45971Y-35748D01*
X46023Y-35695D01*
X46075Y-35747D01*
X46194Y-35797D01*
X46324Y-35797D01*
X46443Y-35748D01*
X46535Y-35656D01*
X46584Y-35537D01*
X46584Y-35408D01*
X46535Y-35288D01*
X46459Y-35212D01*
X46459Y-35082D01*
X47051Y-34491D01*
X47795Y-34491D01*
X47871Y-34476D01*
X47936Y-34432D01*
X48343Y-34025D01*
X48450Y-34025D01*
X48569Y-33976D01*
X48661Y-33885D01*
X48710Y-33765D01*
X48710Y-33636D01*
X48661Y-33516D01*
X48589Y-33444D01*
X48661Y-33373D01*
X48710Y-33253D01*
X48710Y-33124D01*
X48661Y-33005D01*
X48570Y-32913D01*
X48569Y-32913D01*
X48661Y-32822D01*
X48710Y-32702D01*
X48710Y-32573D01*
X48661Y-32453D01*
X48570Y-32362D01*
X48569Y-32362D01*
X48661Y-32270D01*
X48710Y-32151D01*
X48710Y-32022D01*
X48661Y-31902D01*
X48599Y-31840D01*
X48744Y-31696D01*
X48897Y-31696D01*
X48974Y-31680D01*
X49039Y-31637D01*
X49354Y-31322D01*
X49354Y-31322D01*
X49382Y-31279D01*
X49397Y-31257D01*
X49397Y-31257D01*
X49412Y-31181D01*
X49412Y-31181D01*
X49412Y-31094D01*
X49467Y-31094D01*
X49522Y-31072D01*
X49564Y-31029D01*
X49587Y-30974D01*
X49587Y-30915D01*
X49587Y-30521D01*
X49564Y-30466D01*
X49522Y-30424D01*
X49467Y-30401D01*
X49407Y-30401D01*
X48957Y-30401D01*
X48902Y-30423D01*
X48860Y-30466D01*
X48837Y-30521D01*
X48837Y-30580D01*
X48837Y-30974D01*
X48860Y-31029D01*
X48902Y-31071D01*
X48957Y-31094D01*
X49012Y-31094D01*
X49012Y-31098D01*
X48814Y-31296D01*
X48661Y-31296D01*
X48584Y-31311D01*
X48563Y-31325D01*
X48519Y-31354D01*
X48244Y-31630D01*
X48201Y-31695D01*
X48185Y-31771D01*
X48185Y-31827D01*
X48110Y-31902D01*
X48060Y-32021D01*
X48060Y-32128D01*
X47992Y-32196D01*
X47952Y-32099D01*
X47861Y-32008D01*
X47742Y-31958D01*
X47719Y-31958D01*
X47719Y-31657D01*
X47760Y-31617D01*
X47952Y-31617D01*
X48029Y-31602D01*
X48094Y-31558D01*
X48369Y-31283D01*
X48369Y-31283D01*
X48398Y-31239D01*
X48413Y-31218D01*
X48413Y-31218D01*
X48428Y-31141D01*
X48428Y-31141D01*
X48428Y-31094D01*
X48483Y-31094D01*
X48538Y-31072D01*
X48580Y-31029D01*
X48603Y-30974D01*
X48603Y-30915D01*
X48603Y-30521D01*
X48580Y-30466D01*
X48538Y-30424D01*
X48483Y-30401D01*
X48423Y-30401D01*
X48016Y-30401D01*
X48041Y-30340D01*
X48041Y-30268D01*
X48483Y-30268D01*
X48538Y-30245D01*
X48580Y-30203D01*
X48603Y-30148D01*
X48603Y-30121D01*
X48837Y-30121D01*
X48837Y-30147D01*
X48860Y-30202D01*
X48902Y-30245D01*
X48957Y-30268D01*
X49017Y-30268D01*
X49467Y-30268D01*
X49522Y-30245D01*
X49564Y-30203D01*
X49587Y-30148D01*
X49587Y-30088D01*
X49587Y-29694D01*
X49564Y-29639D01*
X49522Y-29597D01*
X49467Y-29574D01*
X49407Y-29574D01*
X48957Y-29574D01*
X48902Y-29597D01*
X48860Y-29639D01*
X48837Y-29694D01*
X48837Y-29721D01*
X48603Y-29721D01*
X48603Y-29694D01*
X48580Y-29639D01*
X48538Y-29597D01*
X48483Y-29574D01*
X48423Y-29574D01*
X47973Y-29574D01*
X47918Y-29597D01*
X47876Y-29639D01*
X47853Y-29694D01*
X47853Y-29721D01*
X47619Y-29721D01*
X47619Y-29694D01*
X47596Y-29639D01*
X47554Y-29597D01*
X47499Y-29574D01*
X47439Y-29574D01*
X46989Y-29574D01*
X46934Y-29597D01*
X46892Y-29639D01*
X46869Y-29694D01*
X46869Y-29721D01*
X46634Y-29721D01*
X46634Y-29694D01*
X46612Y-29639D01*
X46569Y-29597D01*
X46514Y-29574D01*
X46455Y-29574D01*
X46005Y-29574D01*
X45949Y-29597D01*
X45907Y-29639D01*
X45884Y-29694D01*
X45884Y-29721D01*
X45748Y-29721D01*
X45711Y-29728D01*
X46240Y-29200D01*
X50595Y-29200D01*
X50618Y-29254D01*
X50744Y-29381D01*
X50910Y-29449D01*
X51089Y-29450D01*
X51254Y-29381D01*
X51381Y-29255D01*
X51449Y-29089D01*
X51450Y-28910D01*
X51381Y-28745D01*
X51255Y-28618D01*
X51089Y-28550D01*
X50910Y-28549D01*
X50745Y-28618D01*
X50618Y-28744D01*
X50595Y-28800D01*
X49986Y-28800D01*
X50102Y-28684D01*
X50102Y-28684D01*
X50131Y-28641D01*
X50145Y-28619D01*
X50145Y-28619D01*
X50160Y-28543D01*
X50160Y-28543D01*
X50160Y-28311D01*
X50271Y-28200D01*
X50595Y-28200D01*
X50618Y-28254D01*
X50744Y-28381D01*
X50910Y-28449D01*
X51089Y-28450D01*
X51254Y-28381D01*
X51381Y-28255D01*
X51449Y-28089D01*
X51450Y-27910D01*
X51450Y-26910D01*
X51381Y-26745D01*
X51255Y-26618D01*
X51089Y-26550D01*
X50910Y-26549D01*
X50745Y-26618D01*
X50618Y-26744D01*
X50550Y-26910D01*
X50549Y-27089D01*
X50618Y-27254D01*
X50744Y-27381D01*
X50910Y-27449D01*
X51089Y-27450D01*
X51254Y-27381D01*
X51381Y-27255D01*
X51449Y-27089D01*
X51450Y-26910D01*
X51450Y-27910D01*
X51381Y-27745D01*
X51255Y-27618D01*
X51089Y-27550D01*
X50910Y-27549D01*
X50745Y-27618D01*
X50618Y-27744D01*
X50595Y-27800D01*
X50199Y-27800D01*
X50377Y-27621D01*
X50420Y-27556D01*
X50420Y-27556D01*
X50436Y-27480D01*
X50436Y-26500D01*
X50650Y-26286D01*
X50744Y-26381D01*
X50910Y-26449D01*
X51089Y-26450D01*
X51254Y-26381D01*
X51381Y-26255D01*
X51449Y-26089D01*
X51450Y-25910D01*
X51381Y-25745D01*
X51255Y-25618D01*
X51089Y-25550D01*
X51013Y-25550D01*
X51136Y-25543D01*
X51287Y-25481D01*
X51315Y-25385D01*
X51000Y-25070D01*
X50929Y-25141D01*
X50929Y-25000D01*
X50614Y-24684D01*
X50518Y-24712D01*
X50445Y-24918D01*
X50456Y-25136D01*
X50518Y-25287D01*
X50614Y-25315D01*
X50929Y-25000D01*
X50929Y-25141D01*
X50684Y-25385D01*
X50712Y-25481D01*
X50907Y-25551D01*
X50745Y-25618D01*
X50618Y-25744D01*
X50590Y-25812D01*
X50589Y-25812D01*
X50577Y-25815D01*
X50512Y-25858D01*
X50094Y-26275D01*
X50051Y-26340D01*
X50036Y-26417D01*
X50036Y-27397D01*
X49247Y-28185D01*
X48218Y-28185D01*
X48306Y-28097D01*
X48356Y-27978D01*
X48356Y-27849D01*
X48307Y-27729D01*
X48215Y-27638D01*
X48096Y-27588D01*
X47967Y-27588D01*
X47938Y-27600D01*
X47913Y-27595D01*
X45118Y-27595D01*
X45054Y-27607D01*
X45041Y-27610D01*
X45015Y-27627D01*
X44896Y-27627D01*
X44776Y-27677D01*
X44685Y-27768D01*
X44635Y-27887D01*
X44635Y-28017D01*
X44684Y-28136D01*
X44734Y-28185D01*
X43710Y-28185D01*
X43710Y-26431D01*
X43661Y-26312D01*
X43570Y-26220D01*
X43450Y-26171D01*
X43321Y-26171D01*
X43269Y-26192D01*
X43243Y-26129D01*
X43172Y-26058D01*
X43081Y-26021D01*
X42947Y-26021D01*
X42884Y-26083D01*
X42884Y-26446D01*
X42892Y-26446D01*
X42892Y-26546D01*
X42884Y-26546D01*
X42884Y-26908D01*
X42947Y-26971D01*
X43081Y-26971D01*
X43172Y-26933D01*
X43243Y-26862D01*
X43269Y-26799D01*
X43320Y-26821D01*
X43450Y-26821D01*
X43569Y-26771D01*
X43661Y-26680D01*
X43710Y-26560D01*
X43710Y-26431D01*
X43710Y-28185D01*
X43622Y-28185D01*
X43597Y-28190D01*
X43568Y-28178D01*
X43439Y-28178D01*
X43320Y-28228D01*
X43228Y-28319D01*
X43178Y-28439D01*
X43178Y-28568D01*
X43228Y-28687D01*
X43319Y-28779D01*
X43439Y-28828D01*
X43568Y-28828D01*
X43687Y-28779D01*
X43779Y-28688D01*
X43821Y-28585D01*
X44864Y-28585D01*
X44776Y-28621D01*
X44685Y-28713D01*
X44635Y-28832D01*
X44635Y-28939D01*
X44129Y-29445D01*
X43464Y-29445D01*
X42784Y-29445D01*
X42784Y-26908D01*
X42784Y-26546D01*
X42784Y-26446D01*
X42784Y-26083D01*
X42722Y-26021D01*
X42588Y-26021D01*
X42496Y-26058D01*
X42425Y-26129D01*
X42387Y-26221D01*
X42387Y-26320D01*
X42387Y-26383D01*
X42450Y-26446D01*
X42784Y-26446D01*
X42784Y-26546D01*
X42450Y-26546D01*
X42387Y-26608D01*
X42387Y-26671D01*
X42387Y-26771D01*
X42425Y-26862D01*
X42496Y-26933D01*
X42588Y-26971D01*
X42722Y-26971D01*
X42784Y-26908D01*
X42784Y-29445D01*
X42598Y-29445D01*
X42521Y-29460D01*
X42500Y-29475D01*
X42457Y-29504D01*
X42207Y-29753D01*
X42140Y-29753D01*
X42020Y-29803D01*
X41929Y-29894D01*
X41879Y-30013D01*
X41879Y-30143D01*
X41917Y-30234D01*
X41827Y-30271D01*
X41756Y-30341D01*
X41718Y-30433D01*
X41718Y-30533D01*
X41718Y-30596D01*
X41781Y-30658D01*
X42115Y-30658D01*
X42115Y-30650D01*
X42215Y-30650D01*
X42215Y-30658D01*
X42549Y-30658D01*
X42612Y-30596D01*
X42612Y-30533D01*
X42612Y-30433D01*
X42574Y-30341D01*
X42503Y-30271D01*
X42480Y-30262D01*
X42529Y-30143D01*
X42529Y-30014D01*
X42524Y-30002D01*
X42681Y-29845D01*
X43464Y-29845D01*
X44212Y-29845D01*
X44289Y-29830D01*
X44354Y-29787D01*
X44918Y-29222D01*
X45024Y-29222D01*
X45144Y-29173D01*
X45235Y-29081D01*
X45285Y-28962D01*
X45285Y-28833D01*
X45236Y-28713D01*
X45144Y-28622D01*
X45057Y-28585D01*
X45901Y-28585D01*
X45882Y-28598D01*
X44973Y-29507D01*
X44930Y-29572D01*
X44914Y-29648D01*
X44914Y-32006D01*
X44759Y-32162D01*
X44580Y-32162D01*
X44580Y-32065D01*
X44580Y-31714D01*
X44580Y-30884D01*
X44580Y-30533D01*
X44580Y-30433D01*
X44542Y-30341D01*
X44472Y-30271D01*
X44380Y-30233D01*
X44246Y-30233D01*
X44183Y-30296D01*
X44183Y-30658D01*
X44518Y-30658D01*
X44580Y-30596D01*
X44580Y-30533D01*
X44580Y-30884D01*
X44580Y-30821D01*
X44518Y-30758D01*
X44183Y-30758D01*
X44183Y-31121D01*
X44246Y-31183D01*
X44380Y-31183D01*
X44472Y-31145D01*
X44542Y-31075D01*
X44580Y-30983D01*
X44580Y-30884D01*
X44580Y-31714D01*
X44580Y-31614D01*
X44542Y-31522D01*
X44472Y-31452D01*
X44380Y-31414D01*
X44246Y-31414D01*
X44183Y-31477D01*
X44183Y-31839D01*
X44518Y-31839D01*
X44580Y-31777D01*
X44580Y-31714D01*
X44580Y-32065D01*
X44580Y-32002D01*
X44518Y-31939D01*
X44183Y-31939D01*
X44183Y-31947D01*
X44083Y-31947D01*
X44083Y-31939D01*
X44083Y-31839D01*
X44083Y-31477D01*
X44083Y-31121D01*
X44083Y-30758D01*
X44083Y-30658D01*
X44083Y-30296D01*
X44021Y-30233D01*
X43887Y-30233D01*
X43795Y-30271D01*
X43725Y-30341D01*
X43687Y-30433D01*
X43686Y-30533D01*
X43687Y-30596D01*
X43749Y-30658D01*
X44083Y-30658D01*
X44083Y-30758D01*
X43749Y-30758D01*
X43687Y-30821D01*
X43686Y-30884D01*
X43687Y-30983D01*
X43725Y-31075D01*
X43795Y-31145D01*
X43887Y-31183D01*
X44021Y-31183D01*
X44083Y-31121D01*
X44083Y-31477D01*
X44021Y-31414D01*
X43887Y-31414D01*
X43795Y-31452D01*
X43725Y-31522D01*
X43687Y-31614D01*
X43686Y-31714D01*
X43687Y-31777D01*
X43749Y-31839D01*
X44083Y-31839D01*
X44083Y-31939D01*
X43749Y-31939D01*
X43687Y-32002D01*
X43686Y-32065D01*
X43687Y-32164D01*
X43725Y-32256D01*
X43752Y-32283D01*
X43681Y-32355D01*
X43609Y-32283D01*
X43548Y-32258D01*
X43588Y-32242D01*
X43631Y-32199D01*
X43653Y-32144D01*
X43653Y-32085D01*
X43653Y-31635D01*
X43631Y-31579D01*
X43589Y-31537D01*
X43557Y-31524D01*
X43557Y-31074D01*
X43588Y-31060D01*
X43631Y-31018D01*
X43653Y-30963D01*
X43653Y-30903D01*
X43653Y-30453D01*
X43631Y-30398D01*
X43589Y-30356D01*
X43533Y-30333D01*
X43474Y-30333D01*
X43080Y-30333D01*
X43025Y-30356D01*
X42983Y-30398D01*
X42960Y-30453D01*
X42960Y-30513D01*
X42960Y-30963D01*
X42982Y-31018D01*
X43025Y-31060D01*
X43057Y-31074D01*
X43057Y-31524D01*
X43025Y-31537D01*
X42983Y-31579D01*
X42960Y-31634D01*
X42960Y-31694D01*
X42960Y-31756D01*
X42771Y-31945D01*
X42728Y-32010D01*
X42713Y-32086D01*
X42713Y-32122D01*
X42612Y-32122D01*
X42612Y-32065D01*
X42612Y-31714D01*
X42612Y-30884D01*
X42612Y-30821D01*
X42549Y-30758D01*
X42215Y-30758D01*
X42215Y-31121D01*
X42277Y-31183D01*
X42411Y-31183D01*
X42503Y-31145D01*
X42574Y-31075D01*
X42612Y-30983D01*
X42612Y-30884D01*
X42612Y-31714D01*
X42612Y-31614D01*
X42574Y-31522D01*
X42503Y-31452D01*
X42411Y-31414D01*
X42277Y-31414D01*
X42215Y-31477D01*
X42215Y-31839D01*
X42549Y-31839D01*
X42612Y-31777D01*
X42612Y-31714D01*
X42612Y-32065D01*
X42612Y-32002D01*
X42549Y-31939D01*
X42215Y-31939D01*
X42215Y-31947D01*
X42115Y-31947D01*
X42115Y-31939D01*
X42107Y-31939D01*
X42107Y-31839D01*
X42115Y-31839D01*
X42115Y-31477D01*
X42115Y-31121D01*
X42115Y-30758D01*
X41781Y-30758D01*
X41718Y-30821D01*
X41718Y-30884D01*
X41718Y-30983D01*
X41756Y-31075D01*
X41827Y-31145D01*
X41918Y-31183D01*
X42052Y-31183D01*
X42115Y-31121D01*
X42115Y-31477D01*
X42052Y-31414D01*
X41918Y-31414D01*
X41827Y-31452D01*
X41756Y-31522D01*
X41718Y-31614D01*
X41718Y-31714D01*
X41718Y-31777D01*
X41719Y-31778D01*
X41685Y-31764D01*
X41685Y-31635D01*
X41662Y-31579D01*
X41620Y-31537D01*
X41588Y-31524D01*
X41588Y-31074D01*
X41620Y-31060D01*
X41662Y-31018D01*
X41685Y-30963D01*
X41685Y-30903D01*
X41685Y-30453D01*
X41662Y-30398D01*
X41620Y-30356D01*
X41565Y-30333D01*
X41505Y-30333D01*
X41296Y-30333D01*
X41276Y-30320D01*
X41181Y-30301D01*
X40721Y-30301D01*
X40696Y-30275D01*
X40576Y-30226D01*
X40529Y-30226D01*
X41637Y-29117D01*
X41680Y-29052D01*
X41680Y-29052D01*
X41683Y-29040D01*
X41696Y-28976D01*
X41696Y-28976D01*
X41696Y-27090D01*
X41915Y-26871D01*
X42234Y-26871D01*
X42289Y-26848D01*
X42331Y-26806D01*
X42354Y-26751D01*
X42354Y-26691D01*
X42354Y-26241D01*
X42331Y-26186D01*
X42289Y-26143D01*
X42234Y-26121D01*
X42232Y-26121D01*
X42280Y-26072D01*
X42387Y-26073D01*
X42506Y-26023D01*
X42598Y-25932D01*
X42647Y-25812D01*
X42647Y-25683D01*
X42598Y-25564D01*
X42507Y-25472D01*
X42387Y-25423D01*
X42258Y-25422D01*
X42138Y-25472D01*
X42047Y-25563D01*
X41997Y-25683D01*
X41997Y-25790D01*
X41866Y-25921D01*
X41823Y-25986D01*
X41807Y-26062D01*
X41807Y-26121D01*
X41781Y-26121D01*
X41726Y-26143D01*
X41683Y-26185D01*
X41661Y-26241D01*
X41660Y-26300D01*
X41660Y-26560D01*
X41354Y-26866D01*
X41318Y-26919D01*
X41318Y-26919D01*
X41312Y-26909D01*
X41283Y-26866D01*
X41283Y-26866D01*
X40976Y-26560D01*
X40976Y-26241D01*
X40954Y-26186D01*
X40911Y-26143D01*
X40856Y-26121D01*
X40829Y-26121D01*
X40829Y-26062D01*
X40814Y-25986D01*
X40814Y-25986D01*
X40771Y-25921D01*
X40600Y-25750D01*
X40600Y-25644D01*
X40551Y-25524D01*
X40459Y-25433D01*
X40340Y-25383D01*
X40211Y-25383D01*
X40091Y-25432D01*
X40000Y-25524D01*
X39950Y-25643D01*
X39950Y-25773D01*
X39999Y-25892D01*
X40091Y-25984D01*
X40210Y-26033D01*
X40317Y-26033D01*
X40405Y-26121D01*
X40403Y-26121D01*
X40348Y-26143D01*
X40305Y-26185D01*
X40283Y-26241D01*
X40283Y-26300D01*
X40283Y-26750D01*
X40305Y-26805D01*
X40347Y-26848D01*
X40403Y-26871D01*
X40462Y-26871D01*
X40722Y-26871D01*
X40941Y-27090D01*
X40941Y-28775D01*
X40250Y-29467D01*
X40250Y-26671D01*
X40250Y-26320D01*
X40249Y-26221D01*
X40211Y-26129D01*
X40141Y-26058D01*
X40049Y-26021D01*
X39915Y-26021D01*
X39853Y-26083D01*
X39853Y-26446D01*
X40187Y-26446D01*
X40250Y-26383D01*
X40250Y-26320D01*
X40250Y-26671D01*
X40250Y-26608D01*
X40187Y-26546D01*
X39853Y-26546D01*
X39853Y-26908D01*
X39915Y-26971D01*
X40049Y-26971D01*
X40141Y-26933D01*
X40211Y-26862D01*
X40249Y-26771D01*
X40250Y-26671D01*
X40250Y-29467D01*
X39953Y-29763D01*
X39953Y-28828D01*
X39953Y-28041D01*
X39930Y-27986D01*
X39888Y-27943D01*
X39833Y-27920D01*
X39773Y-27920D01*
X39753Y-27920D01*
X39753Y-26908D01*
X39753Y-26546D01*
X39753Y-26446D01*
X39753Y-26083D01*
X39690Y-26021D01*
X39556Y-26021D01*
X39464Y-26058D01*
X39394Y-26129D01*
X39356Y-26221D01*
X39356Y-26320D01*
X39356Y-26383D01*
X39418Y-26446D01*
X39753Y-26446D01*
X39753Y-26546D01*
X39418Y-26546D01*
X39356Y-26608D01*
X39356Y-26671D01*
X39356Y-26771D01*
X39394Y-26862D01*
X39464Y-26933D01*
X39556Y-26971D01*
X39690Y-26971D01*
X39753Y-26908D01*
X39753Y-27920D01*
X39739Y-27920D01*
X39275Y-27457D01*
X39210Y-27413D01*
X39133Y-27398D01*
X38868Y-27398D01*
X38868Y-26471D01*
X38818Y-26351D01*
X38727Y-26260D01*
X38608Y-26210D01*
X38501Y-26210D01*
X38409Y-26118D01*
X38395Y-26109D01*
X38412Y-26102D01*
X38503Y-26011D01*
X38553Y-25891D01*
X38553Y-25762D01*
X38504Y-25642D01*
X38428Y-25567D01*
X38428Y-25472D01*
X38413Y-25395D01*
X38413Y-25395D01*
X38369Y-25331D01*
X38133Y-25094D01*
X38068Y-25051D01*
X37992Y-25036D01*
X37449Y-25036D01*
X37450Y-24910D01*
X37450Y-24910D01*
X37450Y-24270D01*
X37450Y-23670D01*
X37427Y-23615D01*
X37385Y-23572D01*
X37329Y-23550D01*
X37270Y-23549D01*
X36670Y-23549D01*
X36615Y-23572D01*
X36572Y-23614D01*
X36550Y-23670D01*
X36549Y-23729D01*
X36549Y-24329D01*
X36572Y-24384D01*
X36614Y-24427D01*
X36670Y-24449D01*
X36729Y-24450D01*
X37329Y-24450D01*
X37384Y-24427D01*
X37427Y-24385D01*
X37449Y-24329D01*
X37450Y-24270D01*
X37450Y-24910D01*
X37381Y-24745D01*
X37255Y-24618D01*
X37089Y-24550D01*
X36910Y-24549D01*
X36745Y-24618D01*
X36618Y-24744D01*
X36550Y-24910D01*
X36549Y-25089D01*
X36618Y-25254D01*
X36744Y-25381D01*
X36910Y-25449D01*
X37089Y-25450D01*
X37159Y-25420D01*
X37159Y-25420D01*
X37159Y-25420D01*
X37236Y-25436D01*
X37909Y-25436D01*
X38028Y-25555D01*
X38028Y-25567D01*
X37952Y-25642D01*
X37903Y-25761D01*
X37903Y-25891D01*
X37952Y-26010D01*
X38001Y-26059D01*
X37838Y-26059D01*
X37637Y-25858D01*
X37572Y-25815D01*
X37496Y-25800D01*
X37404Y-25800D01*
X37381Y-25745D01*
X37255Y-25618D01*
X37089Y-25550D01*
X36910Y-25549D01*
X36745Y-25618D01*
X36618Y-25744D01*
X36550Y-25910D01*
X36549Y-26089D01*
X36618Y-26254D01*
X36744Y-26381D01*
X36910Y-26449D01*
X36986Y-26449D01*
X36863Y-26456D01*
X36712Y-26518D01*
X36684Y-26614D01*
X37000Y-26929D01*
X37315Y-26614D01*
X37287Y-26518D01*
X37092Y-26448D01*
X37254Y-26381D01*
X37381Y-26255D01*
X37404Y-26200D01*
X37413Y-26200D01*
X37614Y-26401D01*
X37614Y-26401D01*
X37657Y-26430D01*
X37679Y-26444D01*
X37679Y-26444D01*
X37755Y-26459D01*
X37755Y-26459D01*
X38184Y-26459D01*
X38218Y-26493D01*
X38218Y-26599D01*
X38267Y-26719D01*
X38358Y-26810D01*
X38478Y-26860D01*
X38607Y-26860D01*
X38727Y-26811D01*
X38818Y-26719D01*
X38868Y-26600D01*
X38868Y-26471D01*
X38868Y-27398D01*
X38212Y-27398D01*
X38137Y-27323D01*
X38017Y-27273D01*
X37888Y-27273D01*
X37768Y-27322D01*
X37677Y-27414D01*
X37627Y-27533D01*
X37627Y-27662D01*
X37677Y-27782D01*
X37694Y-27800D01*
X37554Y-27800D01*
X37554Y-27081D01*
X37543Y-26863D01*
X37481Y-26712D01*
X37385Y-26684D01*
X37070Y-27000D01*
X37385Y-27315D01*
X37481Y-27287D01*
X37554Y-27081D01*
X37554Y-27800D01*
X37404Y-27800D01*
X37381Y-27745D01*
X37255Y-27618D01*
X37089Y-27550D01*
X37013Y-27550D01*
X37136Y-27543D01*
X37287Y-27481D01*
X37315Y-27385D01*
X37000Y-27070D01*
X36929Y-27141D01*
X36929Y-27000D01*
X36614Y-26684D01*
X36518Y-26712D01*
X36445Y-26918D01*
X36456Y-27136D01*
X36518Y-27287D01*
X36614Y-27315D01*
X36929Y-27000D01*
X36929Y-27141D01*
X36684Y-27385D01*
X36712Y-27481D01*
X36907Y-27551D01*
X36745Y-27618D01*
X36618Y-27744D01*
X36550Y-27910D01*
X36549Y-28089D01*
X36618Y-28254D01*
X36744Y-28381D01*
X36910Y-28449D01*
X37089Y-28450D01*
X37254Y-28381D01*
X37381Y-28255D01*
X37404Y-28200D01*
X37645Y-28200D01*
X37645Y-28887D01*
X37668Y-28943D01*
X37710Y-28985D01*
X37765Y-29008D01*
X37824Y-29008D01*
X38218Y-29008D01*
X38273Y-28985D01*
X38316Y-28943D01*
X38338Y-28888D01*
X38339Y-28828D01*
X38339Y-28041D01*
X38316Y-27986D01*
X38274Y-27943D01*
X38218Y-27920D01*
X38159Y-27920D01*
X38023Y-27920D01*
X38136Y-27874D01*
X38212Y-27798D01*
X39051Y-27798D01*
X39269Y-28016D01*
X39259Y-28040D01*
X39259Y-28100D01*
X39259Y-28887D01*
X39282Y-28943D01*
X39324Y-28985D01*
X39379Y-29008D01*
X39439Y-29008D01*
X39832Y-29008D01*
X39888Y-28985D01*
X39930Y-28943D01*
X39953Y-28888D01*
X39953Y-28828D01*
X39953Y-29763D01*
X39877Y-29839D01*
X38645Y-29839D01*
X38570Y-29764D01*
X38450Y-29714D01*
X38321Y-29714D01*
X38201Y-29763D01*
X38192Y-29773D01*
X38192Y-29728D01*
X38389Y-29530D01*
X38543Y-29530D01*
X38619Y-29515D01*
X38684Y-29472D01*
X38920Y-29235D01*
X38964Y-29171D01*
X38964Y-29171D01*
X38979Y-29094D01*
X38979Y-29008D01*
X39006Y-29008D01*
X39061Y-28985D01*
X39103Y-28943D01*
X39126Y-28888D01*
X39126Y-28828D01*
X39126Y-28041D01*
X39103Y-27986D01*
X39061Y-27943D01*
X39006Y-27920D01*
X38946Y-27920D01*
X38552Y-27920D01*
X38497Y-27943D01*
X38455Y-27985D01*
X38432Y-28040D01*
X38432Y-28100D01*
X38432Y-28887D01*
X38455Y-28943D01*
X38497Y-28985D01*
X38552Y-29008D01*
X38579Y-29008D01*
X38579Y-29011D01*
X38460Y-29130D01*
X38307Y-29130D01*
X38230Y-29145D01*
X38209Y-29160D01*
X38165Y-29189D01*
X37850Y-29504D01*
X37807Y-29569D01*
X37792Y-29645D01*
X37792Y-29842D01*
X37792Y-30275D01*
X37807Y-30352D01*
X37850Y-30417D01*
X38480Y-31046D01*
X38480Y-31046D01*
X38523Y-31075D01*
X38545Y-31090D01*
X38545Y-31090D01*
X38622Y-31105D01*
X40127Y-31105D01*
X40039Y-31193D01*
X39992Y-31306D01*
X39970Y-31306D01*
X39576Y-31306D01*
X39521Y-31329D01*
X39479Y-31371D01*
X39456Y-31426D01*
X39456Y-31486D01*
X39456Y-32273D01*
X39479Y-32328D01*
X39521Y-32371D01*
X39576Y-32394D01*
X39636Y-32394D01*
X40029Y-32394D01*
X40084Y-32371D01*
X40127Y-32329D01*
X40149Y-32274D01*
X40150Y-32214D01*
X40150Y-31786D01*
X40238Y-31698D01*
X40250Y-31702D01*
X40379Y-31703D01*
X40498Y-31653D01*
X40590Y-31562D01*
X40630Y-31464D01*
X40666Y-31500D01*
X40666Y-32283D01*
X40681Y-32360D01*
X40724Y-32424D01*
X40973Y-32674D01*
X39295Y-32674D01*
X39176Y-32554D01*
X39176Y-32394D01*
X39202Y-32394D01*
X39258Y-32371D01*
X39300Y-32329D01*
X39323Y-32274D01*
X39323Y-32214D01*
X39323Y-31426D01*
X39300Y-31371D01*
X39258Y-31329D01*
X39203Y-31306D01*
X39143Y-31306D01*
X38749Y-31306D01*
X38694Y-31329D01*
X38652Y-31371D01*
X38629Y-31426D01*
X38629Y-31486D01*
X38629Y-32273D01*
X38652Y-32328D01*
X38694Y-32371D01*
X38749Y-32394D01*
X38776Y-32394D01*
X38776Y-32637D01*
X38791Y-32714D01*
X38834Y-32779D01*
X39071Y-33015D01*
X39136Y-33058D01*
X39136Y-33058D01*
X39212Y-33074D01*
X40993Y-33074D01*
X40945Y-33122D01*
X40895Y-33242D01*
X40895Y-33371D01*
X40944Y-33490D01*
X41036Y-33582D01*
X41099Y-33608D01*
X41099Y-34812D01*
X41089Y-34803D01*
X40970Y-34753D01*
X40841Y-34753D01*
X40721Y-34803D01*
X40630Y-34894D01*
X40580Y-35013D01*
X40580Y-35143D01*
X40629Y-35262D01*
X40705Y-35338D01*
X40705Y-37283D01*
X40720Y-37360D01*
X40764Y-37424D01*
X41013Y-37674D01*
X41013Y-37780D01*
X41062Y-37900D01*
X41154Y-37991D01*
X41273Y-38041D01*
X41402Y-38041D01*
X41403Y-38041D01*
X41368Y-38075D01*
X41346Y-38130D01*
X41346Y-38185D01*
X41033Y-38185D01*
X41023Y-38162D01*
X40932Y-38071D01*
X40812Y-38021D01*
X40683Y-38021D01*
X40564Y-38070D01*
X40472Y-38162D01*
X40423Y-38281D01*
X40422Y-38410D01*
X40472Y-38530D01*
X40563Y-38621D01*
X40683Y-38671D01*
X40812Y-38671D01*
X40931Y-38622D01*
X40968Y-38585D01*
X41346Y-38585D01*
X41346Y-38640D01*
X41368Y-38695D01*
X41410Y-38737D01*
X41466Y-38760D01*
X41525Y-38760D01*
X41724Y-38760D01*
X41693Y-38792D01*
X41643Y-38911D01*
X41643Y-39040D01*
X41692Y-39160D01*
X41764Y-39232D01*
X41693Y-39303D01*
X41643Y-39423D01*
X41643Y-39552D01*
X41692Y-39672D01*
X41764Y-39744D01*
X41708Y-39800D01*
X39419Y-39800D01*
X39419Y-38951D01*
X39370Y-38831D01*
X39278Y-38740D01*
X39159Y-38690D01*
X39030Y-38690D01*
X38910Y-38740D01*
X38850Y-38800D01*
X38535Y-38800D01*
X38535Y-32214D01*
X38535Y-31426D01*
X38513Y-31371D01*
X38470Y-31329D01*
X38415Y-31306D01*
X38356Y-31306D01*
X37962Y-31306D01*
X37907Y-31329D01*
X37865Y-31371D01*
X37842Y-31426D01*
X37842Y-31486D01*
X37842Y-31614D01*
X37680Y-31452D01*
X37680Y-30590D01*
X37680Y-29480D01*
X37665Y-29403D01*
X37665Y-29403D01*
X37650Y-29382D01*
X37621Y-29338D01*
X37621Y-29338D01*
X37427Y-29144D01*
X37449Y-29089D01*
X37450Y-28910D01*
X37381Y-28745D01*
X37255Y-28618D01*
X37089Y-28550D01*
X36910Y-28549D01*
X36745Y-28618D01*
X36618Y-28744D01*
X36550Y-28910D01*
X36549Y-29089D01*
X36618Y-29254D01*
X36744Y-29381D01*
X36910Y-29449D01*
X37089Y-29450D01*
X37144Y-29427D01*
X37280Y-29563D01*
X37280Y-29643D01*
X37255Y-29618D01*
X37089Y-29550D01*
X36910Y-29549D01*
X36745Y-29618D01*
X36618Y-29744D01*
X36550Y-29910D01*
X36549Y-30089D01*
X36618Y-30254D01*
X36744Y-30381D01*
X36910Y-30449D01*
X37089Y-30450D01*
X37254Y-30381D01*
X37280Y-30356D01*
X37280Y-30590D01*
X37280Y-30643D01*
X37255Y-30618D01*
X37089Y-30550D01*
X36910Y-30549D01*
X36745Y-30618D01*
X36618Y-30744D01*
X36550Y-30910D01*
X36549Y-31089D01*
X36618Y-31254D01*
X36744Y-31381D01*
X36910Y-31449D01*
X37089Y-31450D01*
X37254Y-31381D01*
X37280Y-31356D01*
X37280Y-31535D01*
X37295Y-31611D01*
X37338Y-31676D01*
X37653Y-31991D01*
X37653Y-31991D01*
X37697Y-32020D01*
X37718Y-32035D01*
X37718Y-32035D01*
X37795Y-32050D01*
X37795Y-32050D01*
X37842Y-32050D01*
X37842Y-32273D01*
X37864Y-32328D01*
X37907Y-32371D01*
X37962Y-32394D01*
X38021Y-32394D01*
X38415Y-32394D01*
X38470Y-32371D01*
X38512Y-32329D01*
X38535Y-32274D01*
X38535Y-32214D01*
X38535Y-38800D01*
X37450Y-38800D01*
X37450Y-37910D01*
X37450Y-36910D01*
X37450Y-35910D01*
X37450Y-34910D01*
X37450Y-33910D01*
X37450Y-32910D01*
X37450Y-31910D01*
X37381Y-31745D01*
X37255Y-31618D01*
X37089Y-31550D01*
X36910Y-31549D01*
X36745Y-31618D01*
X36618Y-31744D01*
X36550Y-31910D01*
X36549Y-32089D01*
X36618Y-32254D01*
X36744Y-32381D01*
X36910Y-32449D01*
X37089Y-32450D01*
X37254Y-32381D01*
X37381Y-32255D01*
X37449Y-32089D01*
X37450Y-31910D01*
X37450Y-32910D01*
X37381Y-32745D01*
X37255Y-32618D01*
X37089Y-32550D01*
X36910Y-32549D01*
X36745Y-32618D01*
X36618Y-32744D01*
X36550Y-32910D01*
X36549Y-33089D01*
X36618Y-33254D01*
X36744Y-33381D01*
X36910Y-33449D01*
X37089Y-33450D01*
X37254Y-33381D01*
X37381Y-33255D01*
X37449Y-33089D01*
X37450Y-32910D01*
X37450Y-33910D01*
X37381Y-33745D01*
X37255Y-33618D01*
X37089Y-33550D01*
X36910Y-33549D01*
X36745Y-33618D01*
X36618Y-33744D01*
X36550Y-33910D01*
X36549Y-34089D01*
X36618Y-34254D01*
X36744Y-34381D01*
X36910Y-34449D01*
X37089Y-34450D01*
X37254Y-34381D01*
X37381Y-34255D01*
X37449Y-34089D01*
X37450Y-33910D01*
X37450Y-34910D01*
X37381Y-34745D01*
X37255Y-34618D01*
X37089Y-34550D01*
X36910Y-34549D01*
X36745Y-34618D01*
X36618Y-34744D01*
X36550Y-34910D01*
X36549Y-35089D01*
X36618Y-35254D01*
X36744Y-35381D01*
X36910Y-35449D01*
X37089Y-35450D01*
X37254Y-35381D01*
X37381Y-35255D01*
X37449Y-35089D01*
X37450Y-34910D01*
X37450Y-35910D01*
X37381Y-35745D01*
X37255Y-35618D01*
X37089Y-35550D01*
X36910Y-35549D01*
X36745Y-35618D01*
X36618Y-35744D01*
X36550Y-35910D01*
X36549Y-36089D01*
X36618Y-36254D01*
X36744Y-36381D01*
X36910Y-36449D01*
X37089Y-36450D01*
X37254Y-36381D01*
X37381Y-36255D01*
X37449Y-36089D01*
X37450Y-35910D01*
X37450Y-36910D01*
X37381Y-36745D01*
X37255Y-36618D01*
X37089Y-36550D01*
X36910Y-36549D01*
X36745Y-36618D01*
X36618Y-36744D01*
X36550Y-36910D01*
X36549Y-37089D01*
X36618Y-37254D01*
X36744Y-37381D01*
X36910Y-37449D01*
X37089Y-37450D01*
X37254Y-37381D01*
X37381Y-37255D01*
X37449Y-37089D01*
X37450Y-36910D01*
X37450Y-37910D01*
X37381Y-37745D01*
X37255Y-37618D01*
X37089Y-37550D01*
X36910Y-37549D01*
X36745Y-37618D01*
X36618Y-37744D01*
X36550Y-37910D01*
X36549Y-38089D01*
X36618Y-38254D01*
X36744Y-38381D01*
X36910Y-38449D01*
X37089Y-38450D01*
X37254Y-38381D01*
X37381Y-38255D01*
X37449Y-38089D01*
X37450Y-37910D01*
X37450Y-38800D01*
X37450Y-38800D01*
X37450Y-38670D01*
X37427Y-38615D01*
X37385Y-38572D01*
X37329Y-38550D01*
X37270Y-38549D01*
X36670Y-38549D01*
X36615Y-38572D01*
X36572Y-38614D01*
X36550Y-38670D01*
X36549Y-38729D01*
X36549Y-39329D01*
X36572Y-39384D01*
X36614Y-39427D01*
X36670Y-39449D01*
X36729Y-39450D01*
X37329Y-39450D01*
X37384Y-39427D01*
X37427Y-39385D01*
X37449Y-39329D01*
X37450Y-39270D01*
X37450Y-39200D01*
X38819Y-39200D01*
X38910Y-39291D01*
X39029Y-39340D01*
X39158Y-39340D01*
X39278Y-39291D01*
X39369Y-39200D01*
X39419Y-39080D01*
X39419Y-38951D01*
X39419Y-39800D01*
X37404Y-39800D01*
X37381Y-39745D01*
X37255Y-39618D01*
X37089Y-39550D01*
X36910Y-39549D01*
X36745Y-39618D01*
X36618Y-39744D01*
X36550Y-39910D01*
X36549Y-40089D01*
X36618Y-40254D01*
X36744Y-40381D01*
X36910Y-40449D01*
X37089Y-40450D01*
X37254Y-40381D01*
X37381Y-40255D01*
X37404Y-40200D01*
X41708Y-40200D01*
X41784Y-40275D01*
X41903Y-40324D01*
X42032Y-40325D01*
X42152Y-40275D01*
X42243Y-40184D01*
X42293Y-40064D01*
X42293Y-39935D01*
X42244Y-39816D01*
X42172Y-39744D01*
X42194Y-39721D01*
X42359Y-39885D01*
X42359Y-41141D01*
X42374Y-41218D01*
X42417Y-41283D01*
X43559Y-42424D01*
X43624Y-42468D01*
X43624Y-42468D01*
X43636Y-42470D01*
X43700Y-42483D01*
X49527Y-42483D01*
X49604Y-42468D01*
X49668Y-42424D01*
X49983Y-42109D01*
X49983Y-42109D01*
X50012Y-42066D01*
X50027Y-42045D01*
X50027Y-42045D01*
X50042Y-41968D01*
X50042Y-41968D01*
X50042Y-41342D01*
X50185Y-41200D01*
X50595Y-41200D01*
X50618Y-41254D01*
X50744Y-41381D01*
X50910Y-41449D01*
X51089Y-41450D01*
X51254Y-41381D01*
X51381Y-41255D01*
X51449Y-41089D01*
X51450Y-40910D01*
X51450Y-42743D01*
X51450Y-42743D01*
X51450Y-42270D01*
X51450Y-41670D01*
X51427Y-41615D01*
X51385Y-41572D01*
X51329Y-41550D01*
X51270Y-41549D01*
X50670Y-41549D01*
X50615Y-41572D01*
X50572Y-41614D01*
X50550Y-41670D01*
X50549Y-41729D01*
X50549Y-42329D01*
X50572Y-42384D01*
X50614Y-42427D01*
X50670Y-42449D01*
X50729Y-42450D01*
X51329Y-42450D01*
X51384Y-42427D01*
X51427Y-42385D01*
X51449Y-42329D01*
X51450Y-42270D01*
X51450Y-42743D01*
X37450Y-42743D01*
X37450Y-41910D01*
X37450Y-40910D01*
X37381Y-40745D01*
X37255Y-40618D01*
X37089Y-40550D01*
X36910Y-40549D01*
X36745Y-40618D01*
X36618Y-40744D01*
X36550Y-40910D01*
X36549Y-41089D01*
X36618Y-41254D01*
X36744Y-41381D01*
X36910Y-41449D01*
X37089Y-41450D01*
X37254Y-41381D01*
X37381Y-41255D01*
X37449Y-41089D01*
X37450Y-40910D01*
X37450Y-41910D01*
X37381Y-41745D01*
X37255Y-41618D01*
X37089Y-41550D01*
X36910Y-41549D01*
X36745Y-41618D01*
X36618Y-41744D01*
X36550Y-41910D01*
X36549Y-42089D01*
X36618Y-42254D01*
X36744Y-42381D01*
X36910Y-42449D01*
X37089Y-42450D01*
X37254Y-42381D01*
X37381Y-42255D01*
X37449Y-42089D01*
X37450Y-41910D01*
X37450Y-42743D01*
X36434Y-42743D01*
X36408Y-42738D01*
X36400Y-42733D01*
X36395Y-42725D01*
X36390Y-42699D01*
X36390Y-23441D01*
X36395Y-23416D01*
X36400Y-23408D01*
X36408Y-23403D01*
X36434Y-23398D01*
X51755Y-23398D01*
X51761Y-23399D01*
X51761Y-42742D01*
X51761Y-42742D01*
G37*
G54D21*
X51761Y-42742D02*
X51755Y-42743D01*
X51554Y-42743D01*
X51554Y-25081D01*
X51543Y-24863D01*
X51481Y-24712D01*
X51450Y-24703D01*
X51450Y-23910D01*
X51381Y-23745D01*
X51255Y-23618D01*
X51089Y-23550D01*
X50910Y-23549D01*
X50745Y-23618D01*
X50618Y-23744D01*
X50550Y-23910D01*
X50549Y-24089D01*
X50618Y-24254D01*
X50744Y-24381D01*
X50910Y-24449D01*
X50986Y-24449D01*
X50863Y-24456D01*
X50712Y-24518D01*
X50684Y-24614D01*
X51000Y-24929D01*
X51315Y-24614D01*
X51287Y-24518D01*
X51092Y-24448D01*
X51254Y-24381D01*
X51381Y-24255D01*
X51449Y-24089D01*
X51450Y-23910D01*
X51450Y-24703D01*
X51385Y-24684D01*
X51070Y-25000D01*
X51385Y-25315D01*
X51481Y-25287D01*
X51554Y-25081D01*
X51554Y-42743D01*
X51450Y-42743D01*
X51450Y-40910D01*
X51450Y-39910D01*
X51450Y-38910D01*
X51450Y-36910D01*
X51450Y-35910D01*
X51450Y-34910D01*
X51450Y-33910D01*
X51450Y-32910D01*
X51450Y-31910D01*
X51450Y-30910D01*
X51450Y-29910D01*
X51381Y-29745D01*
X51255Y-29618D01*
X51089Y-29550D01*
X50910Y-29549D01*
X50745Y-29618D01*
X50618Y-29744D01*
X50550Y-29910D01*
X50549Y-30089D01*
X50618Y-30254D01*
X50744Y-30381D01*
X50910Y-30449D01*
X51089Y-30450D01*
X51254Y-30381D01*
X51381Y-30255D01*
X51449Y-30089D01*
X51450Y-29910D01*
X51450Y-30910D01*
X51381Y-30745D01*
X51255Y-30618D01*
X51089Y-30550D01*
X50910Y-30549D01*
X50745Y-30618D01*
X50618Y-30744D01*
X50550Y-30910D01*
X50549Y-31089D01*
X50618Y-31254D01*
X50744Y-31381D01*
X50910Y-31449D01*
X51089Y-31450D01*
X51254Y-31381D01*
X51381Y-31255D01*
X51449Y-31089D01*
X51450Y-30910D01*
X51450Y-31910D01*
X51381Y-31745D01*
X51255Y-31618D01*
X51089Y-31550D01*
X50910Y-31549D01*
X50745Y-31618D01*
X50618Y-31744D01*
X50550Y-31910D01*
X50549Y-32089D01*
X50618Y-32254D01*
X50744Y-32381D01*
X50910Y-32449D01*
X51089Y-32450D01*
X51254Y-32381D01*
X51381Y-32255D01*
X51449Y-32089D01*
X51450Y-31910D01*
X51450Y-32910D01*
X51381Y-32745D01*
X51255Y-32618D01*
X51089Y-32550D01*
X50910Y-32549D01*
X50745Y-32618D01*
X50618Y-32744D01*
X50550Y-32910D01*
X50549Y-33089D01*
X50618Y-33254D01*
X50744Y-33381D01*
X50910Y-33449D01*
X51089Y-33450D01*
X51254Y-33381D01*
X51381Y-33255D01*
X51449Y-33089D01*
X51450Y-32910D01*
X51450Y-33910D01*
X51381Y-33745D01*
X51255Y-33618D01*
X51089Y-33550D01*
X50910Y-33549D01*
X50745Y-33618D01*
X50618Y-33744D01*
X50550Y-33910D01*
X50549Y-34089D01*
X50618Y-34254D01*
X50744Y-34381D01*
X50910Y-34449D01*
X51089Y-34450D01*
X51254Y-34381D01*
X51381Y-34255D01*
X51449Y-34089D01*
X51450Y-33910D01*
X51450Y-34910D01*
X51381Y-34745D01*
X51255Y-34618D01*
X51089Y-34550D01*
X50910Y-34549D01*
X50745Y-34618D01*
X50618Y-34744D01*
X50550Y-34910D01*
X50549Y-35089D01*
X50618Y-35254D01*
X50744Y-35381D01*
X50910Y-35449D01*
X51089Y-35450D01*
X51254Y-35381D01*
X51381Y-35255D01*
X51449Y-35089D01*
X51450Y-34910D01*
X51450Y-35910D01*
X51381Y-35745D01*
X51255Y-35618D01*
X51089Y-35550D01*
X50910Y-35549D01*
X50745Y-35618D01*
X50618Y-35744D01*
X50595Y-35800D01*
X50443Y-35800D01*
X50443Y-29463D01*
X50393Y-29343D01*
X50302Y-29252D01*
X50183Y-29202D01*
X50053Y-29202D01*
X49934Y-29251D01*
X49842Y-29343D01*
X49793Y-29462D01*
X49793Y-29591D01*
X49842Y-29711D01*
X49868Y-29737D01*
X49868Y-31431D01*
X49232Y-32067D01*
X49178Y-32148D01*
X49159Y-32244D01*
X49159Y-34109D01*
X48090Y-35177D01*
X48036Y-35258D01*
X48017Y-35354D01*
X48017Y-35866D01*
X48017Y-36116D01*
X47888Y-36246D01*
X44591Y-36246D01*
X44340Y-35995D01*
X44340Y-35959D01*
X44291Y-35839D01*
X44200Y-35748D01*
X44080Y-35698D01*
X43951Y-35698D01*
X43831Y-35747D01*
X43740Y-35839D01*
X43690Y-35958D01*
X43690Y-36087D01*
X43740Y-36207D01*
X43831Y-36298D01*
X43950Y-36348D01*
X43987Y-36348D01*
X44311Y-36672D01*
X44392Y-36727D01*
X44392Y-36727D01*
X44488Y-36746D01*
X45894Y-36746D01*
X45886Y-36764D01*
X45886Y-36864D01*
X45886Y-37527D01*
X45949Y-37589D01*
X47036Y-37589D01*
X47036Y-37581D01*
X47136Y-37581D01*
X47136Y-37589D01*
X48224Y-37589D01*
X48286Y-37527D01*
X48286Y-36864D01*
X48286Y-36764D01*
X48248Y-36672D01*
X48208Y-36633D01*
X48267Y-36574D01*
X48366Y-36672D01*
X48366Y-36672D01*
X48687Y-36993D01*
X48687Y-37165D01*
X48687Y-39330D01*
X48706Y-39426D01*
X48760Y-39507D01*
X48917Y-39664D01*
X48907Y-39664D01*
X48852Y-39687D01*
X48809Y-39729D01*
X48787Y-39784D01*
X48787Y-39805D01*
X48679Y-39805D01*
X48690Y-39748D01*
X48671Y-39652D01*
X48617Y-39571D01*
X48609Y-39565D01*
X48609Y-39434D01*
X48586Y-39379D01*
X48544Y-39337D01*
X48489Y-39314D01*
X48429Y-39314D01*
X48286Y-39314D01*
X48286Y-38415D01*
X48286Y-37752D01*
X48224Y-37689D01*
X47136Y-37689D01*
X47136Y-38652D01*
X47199Y-38714D01*
X48086Y-38714D01*
X48178Y-38676D01*
X48248Y-38606D01*
X48286Y-38514D01*
X48286Y-38415D01*
X48286Y-39314D01*
X47799Y-39314D01*
X47744Y-39337D01*
X47702Y-39379D01*
X47679Y-39434D01*
X47679Y-39494D01*
X47679Y-40675D01*
X47701Y-40730D01*
X47744Y-40772D01*
X47799Y-40795D01*
X47858Y-40795D01*
X48154Y-40795D01*
X48110Y-40839D01*
X48060Y-40958D01*
X48060Y-40963D01*
X47883Y-40963D01*
X47828Y-40986D01*
X47786Y-41028D01*
X47763Y-41083D01*
X47763Y-41088D01*
X47036Y-41088D01*
X47036Y-38652D01*
X47036Y-37689D01*
X45949Y-37689D01*
X45886Y-37752D01*
X45886Y-38415D01*
X45886Y-38514D01*
X45924Y-38606D01*
X45995Y-38676D01*
X46087Y-38714D01*
X46258Y-38714D01*
X46236Y-38737D01*
X45968Y-38737D01*
X45892Y-38661D01*
X45773Y-38612D01*
X45644Y-38611D01*
X45524Y-38661D01*
X45433Y-38752D01*
X45383Y-38872D01*
X45383Y-39001D01*
X45432Y-39120D01*
X45524Y-39212D01*
X45643Y-39261D01*
X45773Y-39262D01*
X45892Y-39212D01*
X45968Y-39137D01*
X46236Y-39137D01*
X46311Y-39212D01*
X46431Y-39261D01*
X46560Y-39262D01*
X46679Y-39212D01*
X46771Y-39121D01*
X46821Y-39001D01*
X46821Y-38872D01*
X46771Y-38753D01*
X46733Y-38714D01*
X46974Y-38714D01*
X47036Y-38652D01*
X47036Y-41088D01*
X45221Y-41088D01*
X44935Y-40801D01*
X44935Y-40414D01*
X45147Y-40414D01*
X45202Y-40391D01*
X45245Y-40349D01*
X45268Y-40294D01*
X45268Y-40289D01*
X45564Y-40289D01*
X45564Y-40675D01*
X45586Y-40730D01*
X45629Y-40772D01*
X45684Y-40795D01*
X45743Y-40795D01*
X46373Y-40795D01*
X46428Y-40772D01*
X46471Y-40730D01*
X46494Y-40675D01*
X46494Y-40615D01*
X46494Y-39434D01*
X46471Y-39379D01*
X46429Y-39337D01*
X46374Y-39314D01*
X46314Y-39314D01*
X45684Y-39314D01*
X45629Y-39337D01*
X45587Y-39379D01*
X45564Y-39434D01*
X45564Y-39494D01*
X45564Y-39789D01*
X45268Y-39789D01*
X45268Y-39784D01*
X45245Y-39729D01*
X45203Y-39687D01*
X45171Y-39674D01*
X45171Y-39527D01*
X45171Y-39527D01*
X45171Y-39527D01*
X45167Y-39508D01*
X45152Y-39431D01*
X45152Y-39431D01*
X45098Y-39350D01*
X45098Y-39350D01*
X44813Y-39065D01*
X44813Y-39030D01*
X44763Y-38910D01*
X44672Y-38819D01*
X44580Y-38781D01*
X44580Y-37577D01*
X44580Y-37226D01*
X44580Y-37126D01*
X44542Y-37034D01*
X44472Y-36964D01*
X44380Y-36926D01*
X44246Y-36926D01*
X44183Y-36989D01*
X44183Y-37351D01*
X44518Y-37351D01*
X44580Y-37289D01*
X44580Y-37226D01*
X44580Y-37577D01*
X44580Y-37514D01*
X44518Y-37451D01*
X44183Y-37451D01*
X44183Y-37814D01*
X44246Y-37876D01*
X44380Y-37876D01*
X44472Y-37838D01*
X44542Y-37768D01*
X44580Y-37676D01*
X44580Y-37577D01*
X44580Y-38781D01*
X44553Y-38769D01*
X44423Y-38769D01*
X44304Y-38818D01*
X44212Y-38910D01*
X44163Y-39029D01*
X44163Y-39158D01*
X44212Y-39278D01*
X44303Y-39369D01*
X44423Y-39419D01*
X44459Y-39419D01*
X44671Y-39631D01*
X44671Y-39674D01*
X44639Y-39687D01*
X44597Y-39729D01*
X44574Y-39784D01*
X44574Y-39844D01*
X44574Y-40032D01*
X44541Y-40065D01*
X44541Y-39863D01*
X44541Y-39764D01*
X44503Y-39672D01*
X44432Y-39602D01*
X44340Y-39564D01*
X44206Y-39564D01*
X44144Y-39626D01*
X44144Y-39989D01*
X44478Y-39989D01*
X44541Y-39926D01*
X44541Y-39863D01*
X44541Y-40065D01*
X44508Y-40098D01*
X44500Y-40110D01*
X44478Y-40089D01*
X44144Y-40089D01*
X44144Y-40451D01*
X44206Y-40514D01*
X44340Y-40514D01*
X44432Y-40476D01*
X44435Y-40474D01*
X44435Y-40905D01*
X44454Y-41001D01*
X44508Y-41082D01*
X44941Y-41515D01*
X44941Y-41515D01*
X45022Y-41569D01*
X45022Y-41569D01*
X45099Y-41584D01*
X45118Y-41588D01*
X45118Y-41588D01*
X45118Y-41588D01*
X47763Y-41588D01*
X47763Y-41593D01*
X47786Y-41648D01*
X47828Y-41690D01*
X47883Y-41713D01*
X47943Y-41713D01*
X48336Y-41713D01*
X48391Y-41690D01*
X48434Y-41648D01*
X48457Y-41593D01*
X48457Y-41533D01*
X48457Y-41345D01*
X48569Y-41299D01*
X48580Y-41288D01*
X48887Y-41288D01*
X48887Y-40926D01*
X48824Y-40863D01*
X48690Y-40863D01*
X48674Y-40870D01*
X48661Y-40839D01*
X48570Y-40748D01*
X48569Y-40747D01*
X48586Y-40730D01*
X48609Y-40675D01*
X48609Y-40615D01*
X48609Y-40305D01*
X48791Y-40305D01*
X48809Y-40349D01*
X48851Y-40391D01*
X48907Y-40414D01*
X48966Y-40414D01*
X49360Y-40414D01*
X49415Y-40391D01*
X49457Y-40349D01*
X49480Y-40294D01*
X49480Y-40234D01*
X49480Y-39784D01*
X49462Y-39740D01*
X49462Y-39606D01*
X49443Y-39510D01*
X49443Y-39510D01*
X49421Y-39478D01*
X49389Y-39429D01*
X49389Y-39429D01*
X49187Y-39227D01*
X49187Y-37165D01*
X49187Y-36889D01*
X49167Y-36794D01*
X49167Y-36794D01*
X49113Y-36712D01*
X49113Y-36712D01*
X48720Y-36319D01*
X48720Y-36319D01*
X48517Y-36116D01*
X48517Y-35866D01*
X48517Y-35457D01*
X49586Y-34389D01*
X49640Y-34308D01*
X49640Y-34308D01*
X49659Y-34212D01*
X49659Y-32347D01*
X50294Y-31712D01*
X50349Y-31631D01*
X50349Y-31631D01*
X50368Y-31535D01*
X50368Y-29737D01*
X50393Y-29711D01*
X50443Y-29592D01*
X50443Y-29463D01*
X50443Y-35800D01*
X49212Y-35800D01*
X49121Y-35708D01*
X49001Y-35659D01*
X48872Y-35659D01*
X48753Y-35708D01*
X48661Y-35799D01*
X48612Y-35919D01*
X48611Y-36048D01*
X48661Y-36168D01*
X48752Y-36259D01*
X48872Y-36309D01*
X49001Y-36309D01*
X49120Y-36259D01*
X49180Y-36200D01*
X50595Y-36200D01*
X50618Y-36254D01*
X50744Y-36381D01*
X50910Y-36449D01*
X51089Y-36450D01*
X51254Y-36381D01*
X51381Y-36255D01*
X51449Y-36089D01*
X51450Y-35910D01*
X51450Y-36910D01*
X51381Y-36745D01*
X51255Y-36618D01*
X51089Y-36550D01*
X50910Y-36549D01*
X50745Y-36618D01*
X50618Y-36744D01*
X50616Y-36750D01*
X50362Y-36750D01*
X50266Y-36769D01*
X50185Y-36823D01*
X49980Y-37027D01*
X49926Y-37109D01*
X49907Y-37204D01*
X49907Y-38439D01*
X49538Y-38808D01*
X49502Y-38808D01*
X49383Y-38858D01*
X49291Y-38949D01*
X49241Y-39068D01*
X49241Y-39198D01*
X49291Y-39317D01*
X49382Y-39409D01*
X49501Y-39458D01*
X49631Y-39458D01*
X49750Y-39409D01*
X49842Y-39318D01*
X49891Y-39198D01*
X49891Y-39162D01*
X50334Y-38720D01*
X50388Y-38638D01*
X50388Y-38638D01*
X50407Y-38543D01*
X50407Y-37308D01*
X50465Y-37250D01*
X50616Y-37250D01*
X50618Y-37254D01*
X50744Y-37381D01*
X50910Y-37449D01*
X51089Y-37450D01*
X51254Y-37381D01*
X51381Y-37255D01*
X51449Y-37089D01*
X51450Y-36910D01*
X51450Y-38910D01*
X51450Y-38910D01*
X51450Y-38270D01*
X51450Y-37670D01*
X51427Y-37615D01*
X51385Y-37572D01*
X51329Y-37550D01*
X51270Y-37549D01*
X50670Y-37549D01*
X50615Y-37572D01*
X50572Y-37614D01*
X50550Y-37670D01*
X50549Y-37729D01*
X50549Y-38329D01*
X50572Y-38384D01*
X50614Y-38427D01*
X50670Y-38449D01*
X50729Y-38450D01*
X51329Y-38450D01*
X51384Y-38427D01*
X51427Y-38385D01*
X51449Y-38329D01*
X51450Y-38270D01*
X51450Y-38910D01*
X51381Y-38745D01*
X51255Y-38618D01*
X51089Y-38550D01*
X50910Y-38549D01*
X50745Y-38618D01*
X50618Y-38744D01*
X50550Y-38910D01*
X50549Y-39089D01*
X50618Y-39254D01*
X50744Y-39381D01*
X50910Y-39449D01*
X51089Y-39450D01*
X51254Y-39381D01*
X51381Y-39255D01*
X51449Y-39089D01*
X51450Y-38910D01*
X51450Y-39910D01*
X51381Y-39745D01*
X51255Y-39618D01*
X51089Y-39550D01*
X50910Y-39549D01*
X50745Y-39618D01*
X50618Y-39744D01*
X50550Y-39910D01*
X50549Y-40089D01*
X50618Y-40254D01*
X50744Y-40381D01*
X50910Y-40449D01*
X51089Y-40450D01*
X51254Y-40381D01*
X51381Y-40255D01*
X51449Y-40089D01*
X51450Y-39910D01*
X51450Y-40910D01*
X51381Y-40745D01*
X51255Y-40618D01*
X51089Y-40550D01*
X50910Y-40549D01*
X50745Y-40618D01*
X50618Y-40744D01*
X50595Y-40800D01*
X50407Y-40800D01*
X50407Y-40214D01*
X50407Y-39863D01*
X50407Y-39764D01*
X50369Y-39672D01*
X50298Y-39602D01*
X50206Y-39564D01*
X50073Y-39564D01*
X50010Y-39626D01*
X50010Y-39989D01*
X50344Y-39989D01*
X50407Y-39926D01*
X50407Y-39863D01*
X50407Y-40214D01*
X50407Y-40151D01*
X50344Y-40089D01*
X50010Y-40089D01*
X50010Y-40451D01*
X50073Y-40514D01*
X50206Y-40514D01*
X50298Y-40476D01*
X50369Y-40406D01*
X50407Y-40314D01*
X50407Y-40214D01*
X50407Y-40800D01*
X50102Y-40800D01*
X50025Y-40815D01*
X50004Y-40829D01*
X49960Y-40858D01*
X49910Y-40908D01*
X49910Y-40451D01*
X49910Y-40089D01*
X49910Y-39989D01*
X49910Y-39626D01*
X49848Y-39564D01*
X49714Y-39564D01*
X49622Y-39602D01*
X49551Y-39672D01*
X49513Y-39764D01*
X49513Y-39863D01*
X49513Y-39926D01*
X49576Y-39989D01*
X49910Y-39989D01*
X49910Y-40089D01*
X49576Y-40089D01*
X49513Y-40151D01*
X49513Y-40214D01*
X49513Y-40314D01*
X49551Y-40406D01*
X49622Y-40476D01*
X49714Y-40514D01*
X49848Y-40514D01*
X49910Y-40451D01*
X49910Y-40908D01*
X49701Y-41118D01*
X49657Y-41183D01*
X49642Y-41259D01*
X49642Y-41702D01*
X49554Y-41614D01*
X49435Y-41564D01*
X49383Y-41564D01*
X49383Y-41514D01*
X49383Y-41163D01*
X49383Y-41063D01*
X49345Y-40971D01*
X49275Y-40901D01*
X49183Y-40863D01*
X49049Y-40863D01*
X48987Y-40926D01*
X48987Y-41288D01*
X49321Y-41288D01*
X49383Y-41226D01*
X49383Y-41163D01*
X49383Y-41514D01*
X49383Y-41451D01*
X49321Y-41388D01*
X48987Y-41388D01*
X48987Y-41396D01*
X48887Y-41396D01*
X48887Y-41388D01*
X48552Y-41388D01*
X48490Y-41451D01*
X48490Y-41514D01*
X48490Y-41613D01*
X48528Y-41705D01*
X48598Y-41775D01*
X48676Y-41807D01*
X44044Y-41807D01*
X44044Y-40451D01*
X44044Y-40089D01*
X44044Y-39989D01*
X44044Y-39626D01*
X43981Y-39564D01*
X43848Y-39564D01*
X43756Y-39602D01*
X43685Y-39672D01*
X43647Y-39764D01*
X43647Y-39863D01*
X43647Y-39926D01*
X43710Y-39989D01*
X44044Y-39989D01*
X44044Y-40089D01*
X43710Y-40089D01*
X43647Y-40151D01*
X43647Y-40214D01*
X43647Y-40314D01*
X43685Y-40406D01*
X43756Y-40476D01*
X43848Y-40514D01*
X43981Y-40514D01*
X44044Y-40451D01*
X44044Y-41807D01*
X43862Y-41807D01*
X43074Y-41019D01*
X43074Y-39488D01*
X43058Y-39411D01*
X43058Y-39411D01*
X43044Y-39390D01*
X43015Y-39346D01*
X43015Y-39346D01*
X42503Y-38834D01*
X42438Y-38791D01*
X42362Y-38776D01*
X42228Y-38776D01*
X42152Y-38701D01*
X42035Y-38652D01*
X42039Y-38640D01*
X42039Y-38581D01*
X42039Y-38317D01*
X42039Y-38317D01*
X42060Y-38287D01*
X42074Y-38265D01*
X42074Y-38265D01*
X42089Y-38188D01*
X42089Y-38188D01*
X42089Y-37598D01*
X42089Y-37598D01*
X42074Y-37521D01*
X42074Y-37521D01*
X42060Y-37500D01*
X42031Y-37457D01*
X42031Y-37457D01*
X42025Y-37450D01*
X42150Y-37451D01*
X42270Y-37401D01*
X42346Y-37325D01*
X42401Y-37325D01*
X42478Y-37310D01*
X42542Y-37267D01*
X42739Y-37070D01*
X42739Y-37070D01*
X42739Y-37070D01*
X43087Y-36722D01*
X43087Y-37026D01*
X43080Y-37026D01*
X43025Y-37049D01*
X42983Y-37091D01*
X42960Y-37146D01*
X42960Y-37206D01*
X42960Y-37656D01*
X42982Y-37711D01*
X43025Y-37753D01*
X43057Y-37766D01*
X43057Y-37809D01*
X42817Y-38049D01*
X42801Y-38033D01*
X42746Y-38010D01*
X42686Y-38010D01*
X42293Y-38010D01*
X42237Y-38033D01*
X42195Y-38075D01*
X42172Y-38130D01*
X42172Y-38190D01*
X42172Y-38640D01*
X42195Y-38695D01*
X42237Y-38737D01*
X42292Y-38760D01*
X42352Y-38760D01*
X42746Y-38760D01*
X42801Y-38738D01*
X42843Y-38695D01*
X42866Y-38640D01*
X42866Y-38629D01*
X42930Y-38616D01*
X43011Y-38562D01*
X43307Y-38266D01*
X43493Y-38453D01*
X43493Y-38489D01*
X43543Y-38609D01*
X43634Y-38700D01*
X43753Y-38750D01*
X43883Y-38750D01*
X44002Y-38700D01*
X44094Y-38609D01*
X44143Y-38490D01*
X44143Y-38360D01*
X44094Y-38241D01*
X44083Y-38230D01*
X44083Y-37814D01*
X44083Y-37451D01*
X44083Y-37351D01*
X44083Y-36989D01*
X44021Y-36926D01*
X43887Y-36926D01*
X43795Y-36964D01*
X43725Y-37034D01*
X43687Y-37126D01*
X43686Y-37226D01*
X43687Y-37289D01*
X43749Y-37351D01*
X44083Y-37351D01*
X44083Y-37451D01*
X43749Y-37451D01*
X43687Y-37514D01*
X43686Y-37577D01*
X43687Y-37676D01*
X43725Y-37768D01*
X43795Y-37838D01*
X43887Y-37876D01*
X44021Y-37876D01*
X44083Y-37814D01*
X44083Y-38230D01*
X44003Y-38149D01*
X43883Y-38100D01*
X43847Y-38100D01*
X43557Y-37809D01*
X43557Y-37766D01*
X43588Y-37753D01*
X43631Y-37711D01*
X43653Y-37656D01*
X43653Y-37596D01*
X43653Y-37146D01*
X43631Y-37091D01*
X43589Y-37049D01*
X43533Y-37026D01*
X43487Y-37026D01*
X43487Y-36196D01*
X43497Y-36187D01*
X43520Y-36131D01*
X43520Y-36072D01*
X43520Y-35620D01*
X43896Y-35244D01*
X43936Y-35341D01*
X44028Y-35432D01*
X44147Y-35482D01*
X44276Y-35482D01*
X44320Y-35464D01*
X44320Y-35536D01*
X44369Y-35656D01*
X44461Y-35747D01*
X44580Y-35797D01*
X44710Y-35797D01*
X44829Y-35748D01*
X44921Y-35656D01*
X44960Y-35561D01*
X44999Y-35656D01*
X45091Y-35747D01*
X45210Y-35797D01*
X45339Y-35797D01*
X45459Y-35748D01*
X45531Y-35676D01*
X45603Y-35747D01*
X45722Y-35797D01*
X45851Y-35797D01*
X45971Y-35748D01*
X46023Y-35695D01*
X46075Y-35747D01*
X46194Y-35797D01*
X46324Y-35797D01*
X46443Y-35748D01*
X46535Y-35656D01*
X46584Y-35537D01*
X46584Y-35408D01*
X46535Y-35288D01*
X46459Y-35212D01*
X46459Y-35082D01*
X47051Y-34491D01*
X47795Y-34491D01*
X47871Y-34476D01*
X47936Y-34432D01*
X48343Y-34025D01*
X48450Y-34025D01*
X48569Y-33976D01*
X48661Y-33885D01*
X48710Y-33765D01*
X48710Y-33636D01*
X48661Y-33516D01*
X48589Y-33444D01*
X48661Y-33373D01*
X48710Y-33253D01*
X48710Y-33124D01*
X48661Y-33005D01*
X48570Y-32913D01*
X48569Y-32913D01*
X48661Y-32822D01*
X48710Y-32702D01*
X48710Y-32573D01*
X48661Y-32453D01*
X48570Y-32362D01*
X48569Y-32362D01*
X48661Y-32270D01*
X48710Y-32151D01*
X48710Y-32022D01*
X48661Y-31902D01*
X48599Y-31840D01*
X48744Y-31696D01*
X48897Y-31696D01*
X48974Y-31680D01*
X49039Y-31637D01*
X49354Y-31322D01*
X49354Y-31322D01*
X49382Y-31279D01*
X49397Y-31257D01*
X49397Y-31257D01*
X49412Y-31181D01*
X49412Y-31181D01*
X49412Y-31094D01*
X49467Y-31094D01*
X49522Y-31072D01*
X49564Y-31029D01*
X49587Y-30974D01*
X49587Y-30915D01*
X49587Y-30521D01*
X49564Y-30466D01*
X49522Y-30424D01*
X49467Y-30401D01*
X49407Y-30401D01*
X48957Y-30401D01*
X48902Y-30423D01*
X48860Y-30466D01*
X48837Y-30521D01*
X48837Y-30580D01*
X48837Y-30974D01*
X48860Y-31029D01*
X48902Y-31071D01*
X48957Y-31094D01*
X49012Y-31094D01*
X49012Y-31098D01*
X48814Y-31296D01*
X48661Y-31296D01*
X48584Y-31311D01*
X48563Y-31325D01*
X48519Y-31354D01*
X48244Y-31630D01*
X48201Y-31695D01*
X48185Y-31771D01*
X48185Y-31827D01*
X48110Y-31902D01*
X48060Y-32021D01*
X48060Y-32128D01*
X47992Y-32196D01*
X47952Y-32099D01*
X47861Y-32008D01*
X47742Y-31958D01*
X47719Y-31958D01*
X47719Y-31657D01*
X47760Y-31617D01*
X47952Y-31617D01*
X48029Y-31602D01*
X48094Y-31558D01*
X48369Y-31283D01*
X48369Y-31283D01*
X48398Y-31239D01*
X48413Y-31218D01*
X48413Y-31218D01*
X48428Y-31141D01*
X48428Y-31141D01*
X48428Y-31094D01*
X48483Y-31094D01*
X48538Y-31072D01*
X48580Y-31029D01*
X48603Y-30974D01*
X48603Y-30915D01*
X48603Y-30521D01*
X48580Y-30466D01*
X48538Y-30424D01*
X48483Y-30401D01*
X48423Y-30401D01*
X48016Y-30401D01*
X48041Y-30340D01*
X48041Y-30268D01*
X48483Y-30268D01*
X48538Y-30245D01*
X48580Y-30203D01*
X48603Y-30148D01*
X48603Y-30121D01*
X48837Y-30121D01*
X48837Y-30147D01*
X48860Y-30202D01*
X48902Y-30245D01*
X48957Y-30268D01*
X49017Y-30268D01*
X49467Y-30268D01*
X49522Y-30245D01*
X49564Y-30203D01*
X49587Y-30148D01*
X49587Y-30088D01*
X49587Y-29694D01*
X49564Y-29639D01*
X49522Y-29597D01*
X49467Y-29574D01*
X49407Y-29574D01*
X48957Y-29574D01*
X48902Y-29597D01*
X48860Y-29639D01*
X48837Y-29694D01*
X48837Y-29721D01*
X48603Y-29721D01*
X48603Y-29694D01*
X48580Y-29639D01*
X48538Y-29597D01*
X48483Y-29574D01*
X48423Y-29574D01*
X47973Y-29574D01*
X47918Y-29597D01*
X47876Y-29639D01*
X47853Y-29694D01*
X47853Y-29721D01*
X47619Y-29721D01*
X47619Y-29694D01*
X47596Y-29639D01*
X47554Y-29597D01*
X47499Y-29574D01*
X47439Y-29574D01*
X46989Y-29574D01*
X46934Y-29597D01*
X46892Y-29639D01*
X46869Y-29694D01*
X46869Y-29721D01*
X46634Y-29721D01*
X46634Y-29694D01*
X46612Y-29639D01*
X46569Y-29597D01*
X46514Y-29574D01*
X46455Y-29574D01*
X46005Y-29574D01*
X45949Y-29597D01*
X45907Y-29639D01*
X45884Y-29694D01*
X45884Y-29721D01*
X45748Y-29721D01*
X45711Y-29728D01*
X46240Y-29200D01*
X50595Y-29200D01*
X50618Y-29254D01*
X50744Y-29381D01*
X50910Y-29449D01*
X51089Y-29450D01*
X51254Y-29381D01*
X51381Y-29255D01*
X51449Y-29089D01*
X51450Y-28910D01*
X51381Y-28745D01*
X51255Y-28618D01*
X51089Y-28550D01*
X50910Y-28549D01*
X50745Y-28618D01*
X50618Y-28744D01*
X50595Y-28800D01*
X49986Y-28800D01*
X50102Y-28684D01*
X50102Y-28684D01*
X50131Y-28641D01*
X50145Y-28619D01*
X50145Y-28619D01*
X50160Y-28543D01*
X50160Y-28543D01*
X50160Y-28311D01*
X50271Y-28200D01*
X50595Y-28200D01*
X50618Y-28254D01*
X50744Y-28381D01*
X50910Y-28449D01*
X51089Y-28450D01*
X51254Y-28381D01*
X51381Y-28255D01*
X51449Y-28089D01*
X51450Y-27910D01*
X51450Y-26910D01*
X51381Y-26745D01*
X51255Y-26618D01*
X51089Y-26550D01*
X50910Y-26549D01*
X50745Y-26618D01*
X50618Y-26744D01*
X50550Y-26910D01*
X50549Y-27089D01*
X50618Y-27254D01*
X50744Y-27381D01*
X50910Y-27449D01*
X51089Y-27450D01*
X51254Y-27381D01*
X51381Y-27255D01*
X51449Y-27089D01*
X51450Y-26910D01*
X51450Y-27910D01*
X51381Y-27745D01*
X51255Y-27618D01*
X51089Y-27550D01*
X50910Y-27549D01*
X50745Y-27618D01*
X50618Y-27744D01*
X50595Y-27800D01*
X50199Y-27800D01*
X50377Y-27621D01*
X50420Y-27556D01*
X50420Y-27556D01*
X50436Y-27480D01*
X50436Y-26500D01*
X50650Y-26286D01*
X50744Y-26381D01*
X50910Y-26449D01*
X51089Y-26450D01*
X51254Y-26381D01*
X51381Y-26255D01*
X51449Y-26089D01*
X51450Y-25910D01*
X51381Y-25745D01*
X51255Y-25618D01*
X51089Y-25550D01*
X51013Y-25550D01*
X51136Y-25543D01*
X51287Y-25481D01*
X51315Y-25385D01*
X51000Y-25070D01*
X50929Y-25141D01*
X50929Y-25000D01*
X50614Y-24684D01*
X50518Y-24712D01*
X50445Y-24918D01*
X50456Y-25136D01*
X50518Y-25287D01*
X50614Y-25315D01*
X50929Y-25000D01*
X50929Y-25141D01*
X50684Y-25385D01*
X50712Y-25481D01*
X50907Y-25551D01*
X50745Y-25618D01*
X50618Y-25744D01*
X50590Y-25812D01*
X50589Y-25812D01*
X50577Y-25815D01*
X50512Y-25858D01*
X50094Y-26275D01*
X50051Y-26340D01*
X50036Y-26417D01*
X50036Y-27397D01*
X49247Y-28185D01*
X48218Y-28185D01*
X48306Y-28097D01*
X48356Y-27978D01*
X48356Y-27849D01*
X48307Y-27729D01*
X48215Y-27638D01*
X48096Y-27588D01*
X47967Y-27588D01*
X47938Y-27600D01*
X47913Y-27595D01*
X45118Y-27595D01*
X45054Y-27607D01*
X45041Y-27610D01*
X45015Y-27627D01*
X44896Y-27627D01*
X44776Y-27677D01*
X44685Y-27768D01*
X44635Y-27887D01*
X44635Y-28017D01*
X44684Y-28136D01*
X44734Y-28185D01*
X43710Y-28185D01*
X43710Y-26431D01*
X43661Y-26312D01*
X43570Y-26220D01*
X43450Y-26171D01*
X43321Y-26171D01*
X43269Y-26192D01*
X43243Y-26129D01*
X43172Y-26058D01*
X43081Y-26021D01*
X42947Y-26021D01*
X42884Y-26083D01*
X42884Y-26446D01*
X42892Y-26446D01*
X42892Y-26546D01*
X42884Y-26546D01*
X42884Y-26908D01*
X42947Y-26971D01*
X43081Y-26971D01*
X43172Y-26933D01*
X43243Y-26862D01*
X43269Y-26799D01*
X43320Y-26821D01*
X43450Y-26821D01*
X43569Y-26771D01*
X43661Y-26680D01*
X43710Y-26560D01*
X43710Y-26431D01*
X43710Y-28185D01*
X43622Y-28185D01*
X43597Y-28190D01*
X43568Y-28178D01*
X43439Y-28178D01*
X43320Y-28228D01*
X43228Y-28319D01*
X43178Y-28439D01*
X43178Y-28568D01*
X43228Y-28687D01*
X43319Y-28779D01*
X43439Y-28828D01*
X43568Y-28828D01*
X43687Y-28779D01*
X43779Y-28688D01*
X43821Y-28585D01*
X44864Y-28585D01*
X44776Y-28621D01*
X44685Y-28713D01*
X44635Y-28832D01*
X44635Y-28939D01*
X44129Y-29445D01*
X43464Y-29445D01*
X42784Y-29445D01*
X42784Y-26908D01*
X42784Y-26546D01*
X42784Y-26446D01*
X42784Y-26083D01*
X42722Y-26021D01*
X42588Y-26021D01*
X42496Y-26058D01*
X42425Y-26129D01*
X42387Y-26221D01*
X42387Y-26320D01*
X42387Y-26383D01*
X42450Y-26446D01*
X42784Y-26446D01*
X42784Y-26546D01*
X42450Y-26546D01*
X42387Y-26608D01*
X42387Y-26671D01*
X42387Y-26771D01*
X42425Y-26862D01*
X42496Y-26933D01*
X42588Y-26971D01*
X42722Y-26971D01*
X42784Y-26908D01*
X42784Y-29445D01*
X42598Y-29445D01*
X42521Y-29460D01*
X42500Y-29475D01*
X42457Y-29504D01*
X42207Y-29753D01*
X42140Y-29753D01*
X42020Y-29803D01*
X41929Y-29894D01*
X41879Y-30013D01*
X41879Y-30143D01*
X41917Y-30234D01*
X41827Y-30271D01*
X41756Y-30341D01*
X41718Y-30433D01*
X41718Y-30533D01*
X41718Y-30596D01*
X41781Y-30658D01*
X42115Y-30658D01*
X42115Y-30650D01*
X42215Y-30650D01*
X42215Y-30658D01*
X42549Y-30658D01*
X42612Y-30596D01*
X42612Y-30533D01*
X42612Y-30433D01*
X42574Y-30341D01*
X42503Y-30271D01*
X42480Y-30262D01*
X42529Y-30143D01*
X42529Y-30014D01*
X42524Y-30002D01*
X42681Y-29845D01*
X43464Y-29845D01*
X44212Y-29845D01*
X44289Y-29830D01*
X44354Y-29787D01*
X44918Y-29222D01*
X45024Y-29222D01*
X45144Y-29173D01*
X45235Y-29081D01*
X45285Y-28962D01*
X45285Y-28833D01*
X45236Y-28713D01*
X45144Y-28622D01*
X45057Y-28585D01*
X45901Y-28585D01*
X45882Y-28598D01*
X44973Y-29507D01*
X44930Y-29572D01*
X44914Y-29648D01*
X44914Y-32006D01*
X44759Y-32162D01*
X44580Y-32162D01*
X44580Y-32065D01*
X44580Y-31714D01*
X44580Y-30884D01*
X44580Y-30533D01*
X44580Y-30433D01*
X44542Y-30341D01*
X44472Y-30271D01*
X44380Y-30233D01*
X44246Y-30233D01*
X44183Y-30296D01*
X44183Y-30658D01*
X44518Y-30658D01*
X44580Y-30596D01*
X44580Y-30533D01*
X44580Y-30884D01*
X44580Y-30821D01*
X44518Y-30758D01*
X44183Y-30758D01*
X44183Y-31121D01*
X44246Y-31183D01*
X44380Y-31183D01*
X44472Y-31145D01*
X44542Y-31075D01*
X44580Y-30983D01*
X44580Y-30884D01*
X44580Y-31714D01*
X44580Y-31614D01*
X44542Y-31522D01*
X44472Y-31452D01*
X44380Y-31414D01*
X44246Y-31414D01*
X44183Y-31477D01*
X44183Y-31839D01*
X44518Y-31839D01*
X44580Y-31777D01*
X44580Y-31714D01*
X44580Y-32065D01*
X44580Y-32002D01*
X44518Y-31939D01*
X44183Y-31939D01*
X44183Y-31947D01*
X44083Y-31947D01*
X44083Y-31939D01*
X44083Y-31839D01*
X44083Y-31477D01*
X44083Y-31121D01*
X44083Y-30758D01*
X44083Y-30658D01*
X44083Y-30296D01*
X44021Y-30233D01*
X43887Y-30233D01*
X43795Y-30271D01*
X43725Y-30341D01*
X43687Y-30433D01*
X43686Y-30533D01*
X43687Y-30596D01*
X43749Y-30658D01*
X44083Y-30658D01*
X44083Y-30758D01*
X43749Y-30758D01*
X43687Y-30821D01*
X43686Y-30884D01*
X43687Y-30983D01*
X43725Y-31075D01*
X43795Y-31145D01*
X43887Y-31183D01*
X44021Y-31183D01*
X44083Y-31121D01*
X44083Y-31477D01*
X44021Y-31414D01*
X43887Y-31414D01*
X43795Y-31452D01*
X43725Y-31522D01*
X43687Y-31614D01*
X43686Y-31714D01*
X43687Y-31777D01*
X43749Y-31839D01*
X44083Y-31839D01*
X44083Y-31939D01*
X43749Y-31939D01*
X43687Y-32002D01*
X43686Y-32065D01*
X43687Y-32164D01*
X43725Y-32256D01*
X43752Y-32283D01*
X43681Y-32355D01*
X43609Y-32283D01*
X43548Y-32258D01*
X43588Y-32242D01*
X43631Y-32199D01*
X43653Y-32144D01*
X43653Y-32085D01*
X43653Y-31635D01*
X43631Y-31579D01*
X43589Y-31537D01*
X43557Y-31524D01*
X43557Y-31074D01*
X43588Y-31060D01*
X43631Y-31018D01*
X43653Y-30963D01*
X43653Y-30903D01*
X43653Y-30453D01*
X43631Y-30398D01*
X43589Y-30356D01*
X43533Y-30333D01*
X43474Y-30333D01*
X43080Y-30333D01*
X43025Y-30356D01*
X42983Y-30398D01*
X42960Y-30453D01*
X42960Y-30513D01*
X42960Y-30963D01*
X42982Y-31018D01*
X43025Y-31060D01*
X43057Y-31074D01*
X43057Y-31524D01*
X43025Y-31537D01*
X42983Y-31579D01*
X42960Y-31634D01*
X42960Y-31694D01*
X42960Y-31756D01*
X42771Y-31945D01*
X42728Y-32010D01*
X42713Y-32086D01*
X42713Y-32122D01*
X42612Y-32122D01*
X42612Y-32065D01*
X42612Y-31714D01*
X42612Y-30884D01*
X42612Y-30821D01*
X42549Y-30758D01*
X42215Y-30758D01*
X42215Y-31121D01*
X42277Y-31183D01*
X42411Y-31183D01*
X42503Y-31145D01*
X42574Y-31075D01*
X42612Y-30983D01*
X42612Y-30884D01*
X42612Y-31714D01*
X42612Y-31614D01*
X42574Y-31522D01*
X42503Y-31452D01*
X42411Y-31414D01*
X42277Y-31414D01*
X42215Y-31477D01*
X42215Y-31839D01*
X42549Y-31839D01*
X42612Y-31777D01*
X42612Y-31714D01*
X42612Y-32065D01*
X42612Y-32002D01*
X42549Y-31939D01*
X42215Y-31939D01*
X42215Y-31947D01*
X42115Y-31947D01*
X42115Y-31939D01*
X42107Y-31939D01*
X42107Y-31839D01*
X42115Y-31839D01*
X42115Y-31477D01*
X42115Y-31121D01*
X42115Y-30758D01*
X41781Y-30758D01*
X41718Y-30821D01*
X41718Y-30884D01*
X41718Y-30983D01*
X41756Y-31075D01*
X41827Y-31145D01*
X41918Y-31183D01*
X42052Y-31183D01*
X42115Y-31121D01*
X42115Y-31477D01*
X42052Y-31414D01*
X41918Y-31414D01*
X41827Y-31452D01*
X41756Y-31522D01*
X41718Y-31614D01*
X41718Y-31714D01*
X41718Y-31777D01*
X41719Y-31778D01*
X41685Y-31764D01*
X41685Y-31635D01*
X41662Y-31579D01*
X41620Y-31537D01*
X41588Y-31524D01*
X41588Y-31074D01*
X41620Y-31060D01*
X41662Y-31018D01*
X41685Y-30963D01*
X41685Y-30903D01*
X41685Y-30453D01*
X41662Y-30398D01*
X41620Y-30356D01*
X41565Y-30333D01*
X41505Y-30333D01*
X41296Y-30333D01*
X41276Y-30320D01*
X41181Y-30301D01*
X40721Y-30301D01*
X40696Y-30275D01*
X40576Y-30226D01*
X40529Y-30226D01*
X41637Y-29117D01*
X41680Y-29052D01*
X41680Y-29052D01*
X41683Y-29040D01*
X41696Y-28976D01*
X41696Y-28976D01*
X41696Y-27090D01*
X41915Y-26871D01*
X42234Y-26871D01*
X42289Y-26848D01*
X42331Y-26806D01*
X42354Y-26751D01*
X42354Y-26691D01*
X42354Y-26241D01*
X42331Y-26186D01*
X42289Y-26143D01*
X42234Y-26121D01*
X42232Y-26121D01*
X42280Y-26072D01*
X42387Y-26073D01*
X42506Y-26023D01*
X42598Y-25932D01*
X42647Y-25812D01*
X42647Y-25683D01*
X42598Y-25564D01*
X42507Y-25472D01*
X42387Y-25423D01*
X42258Y-25422D01*
X42138Y-25472D01*
X42047Y-25563D01*
X41997Y-25683D01*
X41997Y-25790D01*
X41866Y-25921D01*
X41823Y-25986D01*
X41807Y-26062D01*
X41807Y-26121D01*
X41781Y-26121D01*
X41726Y-26143D01*
X41683Y-26185D01*
X41661Y-26241D01*
X41660Y-26300D01*
X41660Y-26560D01*
X41354Y-26866D01*
X41318Y-26919D01*
X41318Y-26919D01*
X41312Y-26909D01*
X41283Y-26866D01*
X41283Y-26866D01*
X40976Y-26560D01*
X40976Y-26241D01*
X40954Y-26186D01*
X40911Y-26143D01*
X40856Y-26121D01*
X40829Y-26121D01*
X40829Y-26062D01*
X40814Y-25986D01*
X40814Y-25986D01*
X40771Y-25921D01*
X40600Y-25750D01*
X40600Y-25644D01*
X40551Y-25524D01*
X40459Y-25433D01*
X40340Y-25383D01*
X40211Y-25383D01*
X40091Y-25432D01*
X40000Y-25524D01*
X39950Y-25643D01*
X39950Y-25773D01*
X39999Y-25892D01*
X40091Y-25984D01*
X40210Y-26033D01*
X40317Y-26033D01*
X40405Y-26121D01*
X40403Y-26121D01*
X40348Y-26143D01*
X40305Y-26185D01*
X40283Y-26241D01*
X40283Y-26300D01*
X40283Y-26750D01*
X40305Y-26805D01*
X40347Y-26848D01*
X40403Y-26871D01*
X40462Y-26871D01*
X40722Y-26871D01*
X40941Y-27090D01*
X40941Y-28775D01*
X40250Y-29467D01*
X40250Y-26671D01*
X40250Y-26320D01*
X40249Y-26221D01*
X40211Y-26129D01*
X40141Y-26058D01*
X40049Y-26021D01*
X39915Y-26021D01*
X39853Y-26083D01*
X39853Y-26446D01*
X40187Y-26446D01*
X40250Y-26383D01*
X40250Y-26320D01*
X40250Y-26671D01*
X40250Y-26608D01*
X40187Y-26546D01*
X39853Y-26546D01*
X39853Y-26908D01*
X39915Y-26971D01*
X40049Y-26971D01*
X40141Y-26933D01*
X40211Y-26862D01*
X40249Y-26771D01*
X40250Y-26671D01*
X40250Y-29467D01*
X39953Y-29763D01*
X39953Y-28828D01*
X39953Y-28041D01*
X39930Y-27986D01*
X39888Y-27943D01*
X39833Y-27920D01*
X39773Y-27920D01*
X39753Y-27920D01*
X39753Y-26908D01*
X39753Y-26546D01*
X39753Y-26446D01*
X39753Y-26083D01*
X39690Y-26021D01*
X39556Y-26021D01*
X39464Y-26058D01*
X39394Y-26129D01*
X39356Y-26221D01*
X39356Y-26320D01*
X39356Y-26383D01*
X39418Y-26446D01*
X39753Y-26446D01*
X39753Y-26546D01*
X39418Y-26546D01*
X39356Y-26608D01*
X39356Y-26671D01*
X39356Y-26771D01*
X39394Y-26862D01*
X39464Y-26933D01*
X39556Y-26971D01*
X39690Y-26971D01*
X39753Y-26908D01*
X39753Y-27920D01*
X39739Y-27920D01*
X39275Y-27457D01*
X39210Y-27413D01*
X39133Y-27398D01*
X38868Y-27398D01*
X38868Y-26471D01*
X38818Y-26351D01*
X38727Y-26260D01*
X38608Y-26210D01*
X38501Y-26210D01*
X38409Y-26118D01*
X38395Y-26109D01*
X38412Y-26102D01*
X38503Y-26011D01*
X38553Y-25891D01*
X38553Y-25762D01*
X38504Y-25642D01*
X38428Y-25567D01*
X38428Y-25472D01*
X38413Y-25395D01*
X38413Y-25395D01*
X38369Y-25331D01*
X38133Y-25094D01*
X38068Y-25051D01*
X37992Y-25036D01*
X37449Y-25036D01*
X37450Y-24910D01*
X37450Y-24910D01*
X37450Y-24270D01*
X37450Y-23670D01*
X37427Y-23615D01*
X37385Y-23572D01*
X37329Y-23550D01*
X37270Y-23549D01*
X36670Y-23549D01*
X36615Y-23572D01*
X36572Y-23614D01*
X36550Y-23670D01*
X36549Y-23729D01*
X36549Y-24329D01*
X36572Y-24384D01*
X36614Y-24427D01*
X36670Y-24449D01*
X36729Y-24450D01*
X37329Y-24450D01*
X37384Y-24427D01*
X37427Y-24385D01*
X37449Y-24329D01*
X37450Y-24270D01*
X37450Y-24910D01*
X37381Y-24745D01*
X37255Y-24618D01*
X37089Y-24550D01*
X36910Y-24549D01*
X36745Y-24618D01*
X36618Y-24744D01*
X36550Y-24910D01*
X36549Y-25089D01*
X36618Y-25254D01*
X36744Y-25381D01*
X36910Y-25449D01*
X37089Y-25450D01*
X37159Y-25420D01*
X37159Y-25420D01*
X37159Y-25420D01*
X37236Y-25436D01*
X37909Y-25436D01*
X38028Y-25555D01*
X38028Y-25567D01*
X37952Y-25642D01*
X37903Y-25761D01*
X37903Y-25891D01*
X37952Y-26010D01*
X38001Y-26059D01*
X37838Y-26059D01*
X37637Y-25858D01*
X37572Y-25815D01*
X37496Y-25800D01*
X37404Y-25800D01*
X37381Y-25745D01*
X37255Y-25618D01*
X37089Y-25550D01*
X36910Y-25549D01*
X36745Y-25618D01*
X36618Y-25744D01*
X36550Y-25910D01*
X36549Y-26089D01*
X36618Y-26254D01*
X36744Y-26381D01*
X36910Y-26449D01*
X36986Y-26449D01*
X36863Y-26456D01*
X36712Y-26518D01*
X36684Y-26614D01*
X37000Y-26929D01*
X37315Y-26614D01*
X37287Y-26518D01*
X37092Y-26448D01*
X37254Y-26381D01*
X37381Y-26255D01*
X37404Y-26200D01*
X37413Y-26200D01*
X37614Y-26401D01*
X37614Y-26401D01*
X37657Y-26430D01*
X37679Y-26444D01*
X37679Y-26444D01*
X37755Y-26459D01*
X37755Y-26459D01*
X38184Y-26459D01*
X38218Y-26493D01*
X38218Y-26599D01*
X38267Y-26719D01*
X38358Y-26810D01*
X38478Y-26860D01*
X38607Y-26860D01*
X38727Y-26811D01*
X38818Y-26719D01*
X38868Y-26600D01*
X38868Y-26471D01*
X38868Y-27398D01*
X38212Y-27398D01*
X38137Y-27323D01*
X38017Y-27273D01*
X37888Y-27273D01*
X37768Y-27322D01*
X37677Y-27414D01*
X37627Y-27533D01*
X37627Y-27662D01*
X37677Y-27782D01*
X37694Y-27800D01*
X37554Y-27800D01*
X37554Y-27081D01*
X37543Y-26863D01*
X37481Y-26712D01*
X37385Y-26684D01*
X37070Y-27000D01*
X37385Y-27315D01*
X37481Y-27287D01*
X37554Y-27081D01*
X37554Y-27800D01*
X37404Y-27800D01*
X37381Y-27745D01*
X37255Y-27618D01*
X37089Y-27550D01*
X37013Y-27550D01*
X37136Y-27543D01*
X37287Y-27481D01*
X37315Y-27385D01*
X37000Y-27070D01*
X36929Y-27141D01*
X36929Y-27000D01*
X36614Y-26684D01*
X36518Y-26712D01*
X36445Y-26918D01*
X36456Y-27136D01*
X36518Y-27287D01*
X36614Y-27315D01*
X36929Y-27000D01*
X36929Y-27141D01*
X36684Y-27385D01*
X36712Y-27481D01*
X36907Y-27551D01*
X36745Y-27618D01*
X36618Y-27744D01*
X36550Y-27910D01*
X36549Y-28089D01*
X36618Y-28254D01*
X36744Y-28381D01*
X36910Y-28449D01*
X37089Y-28450D01*
X37254Y-28381D01*
X37381Y-28255D01*
X37404Y-28200D01*
X37645Y-28200D01*
X37645Y-28887D01*
X37668Y-28943D01*
X37710Y-28985D01*
X37765Y-29008D01*
X37824Y-29008D01*
X38218Y-29008D01*
X38273Y-28985D01*
X38316Y-28943D01*
X38338Y-28888D01*
X38339Y-28828D01*
X38339Y-28041D01*
X38316Y-27986D01*
X38274Y-27943D01*
X38218Y-27920D01*
X38159Y-27920D01*
X38023Y-27920D01*
X38136Y-27874D01*
X38212Y-27798D01*
X39051Y-27798D01*
X39269Y-28016D01*
X39259Y-28040D01*
X39259Y-28100D01*
X39259Y-28887D01*
X39282Y-28943D01*
X39324Y-28985D01*
X39379Y-29008D01*
X39439Y-29008D01*
X39832Y-29008D01*
X39888Y-28985D01*
X39930Y-28943D01*
X39953Y-28888D01*
X39953Y-28828D01*
X39953Y-29763D01*
X39877Y-29839D01*
X38645Y-29839D01*
X38570Y-29764D01*
X38450Y-29714D01*
X38321Y-29714D01*
X38201Y-29763D01*
X38192Y-29773D01*
X38192Y-29728D01*
X38389Y-29530D01*
X38543Y-29530D01*
X38619Y-29515D01*
X38684Y-29472D01*
X38920Y-29235D01*
X38964Y-29171D01*
X38964Y-29171D01*
X38979Y-29094D01*
X38979Y-29008D01*
X39006Y-29008D01*
X39061Y-28985D01*
X39103Y-28943D01*
X39126Y-28888D01*
X39126Y-28828D01*
X39126Y-28041D01*
X39103Y-27986D01*
X39061Y-27943D01*
X39006Y-27920D01*
X38946Y-27920D01*
X38552Y-27920D01*
X38497Y-27943D01*
X38455Y-27985D01*
X38432Y-28040D01*
X38432Y-28100D01*
X38432Y-28887D01*
X38455Y-28943D01*
X38497Y-28985D01*
X38552Y-29008D01*
X38579Y-29008D01*
X38579Y-29011D01*
X38460Y-29130D01*
X38307Y-29130D01*
X38230Y-29145D01*
X38209Y-29160D01*
X38165Y-29189D01*
X37850Y-29504D01*
X37807Y-29569D01*
X37792Y-29645D01*
X37792Y-29842D01*
X37792Y-30275D01*
X37807Y-30352D01*
X37850Y-30417D01*
X38480Y-31046D01*
X38480Y-31046D01*
X38523Y-31075D01*
X38545Y-31090D01*
X38545Y-31090D01*
X38622Y-31105D01*
X40127Y-31105D01*
X40039Y-31193D01*
X39992Y-31306D01*
X39970Y-31306D01*
X39576Y-31306D01*
X39521Y-31329D01*
X39479Y-31371D01*
X39456Y-31426D01*
X39456Y-31486D01*
X39456Y-32273D01*
X39479Y-32328D01*
X39521Y-32371D01*
X39576Y-32394D01*
X39636Y-32394D01*
X40029Y-32394D01*
X40084Y-32371D01*
X40127Y-32329D01*
X40149Y-32274D01*
X40150Y-32214D01*
X40150Y-31786D01*
X40238Y-31698D01*
X40250Y-31702D01*
X40379Y-31703D01*
X40498Y-31653D01*
X40590Y-31562D01*
X40630Y-31464D01*
X40666Y-31500D01*
X40666Y-32283D01*
X40681Y-32360D01*
X40724Y-32424D01*
X40973Y-32674D01*
X39295Y-32674D01*
X39176Y-32554D01*
X39176Y-32394D01*
X39202Y-32394D01*
X39258Y-32371D01*
X39300Y-32329D01*
X39323Y-32274D01*
X39323Y-32214D01*
X39323Y-31426D01*
X39300Y-31371D01*
X39258Y-31329D01*
X39203Y-31306D01*
X39143Y-31306D01*
X38749Y-31306D01*
X38694Y-31329D01*
X38652Y-31371D01*
X38629Y-31426D01*
X38629Y-31486D01*
X38629Y-32273D01*
X38652Y-32328D01*
X38694Y-32371D01*
X38749Y-32394D01*
X38776Y-32394D01*
X38776Y-32637D01*
X38791Y-32714D01*
X38834Y-32779D01*
X39071Y-33015D01*
X39136Y-33058D01*
X39136Y-33058D01*
X39212Y-33074D01*
X40993Y-33074D01*
X40945Y-33122D01*
X40895Y-33242D01*
X40895Y-33371D01*
X40944Y-33490D01*
X41036Y-33582D01*
X41099Y-33608D01*
X41099Y-34812D01*
X41089Y-34803D01*
X40970Y-34753D01*
X40841Y-34753D01*
X40721Y-34803D01*
X40630Y-34894D01*
X40580Y-35013D01*
X40580Y-35143D01*
X40629Y-35262D01*
X40705Y-35338D01*
X40705Y-37283D01*
X40720Y-37360D01*
X40764Y-37424D01*
X41013Y-37674D01*
X41013Y-37780D01*
X41062Y-37900D01*
X41154Y-37991D01*
X41273Y-38041D01*
X41402Y-38041D01*
X41403Y-38041D01*
X41368Y-38075D01*
X41346Y-38130D01*
X41346Y-38185D01*
X41033Y-38185D01*
X41023Y-38162D01*
X40932Y-38071D01*
X40812Y-38021D01*
X40683Y-38021D01*
X40564Y-38070D01*
X40472Y-38162D01*
X40423Y-38281D01*
X40422Y-38410D01*
X40472Y-38530D01*
X40563Y-38621D01*
X40683Y-38671D01*
X40812Y-38671D01*
X40931Y-38622D01*
X40968Y-38585D01*
X41346Y-38585D01*
X41346Y-38640D01*
X41368Y-38695D01*
X41410Y-38737D01*
X41466Y-38760D01*
X41525Y-38760D01*
X41724Y-38760D01*
X41693Y-38792D01*
X41643Y-38911D01*
X41643Y-39040D01*
X41692Y-39160D01*
X41764Y-39232D01*
X41693Y-39303D01*
X41643Y-39423D01*
X41643Y-39552D01*
X41692Y-39672D01*
X41764Y-39744D01*
X41708Y-39800D01*
X39419Y-39800D01*
X39419Y-38951D01*
X39370Y-38831D01*
X39278Y-38740D01*
X39159Y-38690D01*
X39030Y-38690D01*
X38910Y-38740D01*
X38850Y-38800D01*
X38535Y-38800D01*
X38535Y-32214D01*
X38535Y-31426D01*
X38513Y-31371D01*
X38470Y-31329D01*
X38415Y-31306D01*
X38356Y-31306D01*
X37962Y-31306D01*
X37907Y-31329D01*
X37865Y-31371D01*
X37842Y-31426D01*
X37842Y-31486D01*
X37842Y-31614D01*
X37680Y-31452D01*
X37680Y-30590D01*
X37680Y-29480D01*
X37665Y-29403D01*
X37665Y-29403D01*
X37650Y-29382D01*
X37621Y-29338D01*
X37621Y-29338D01*
X37427Y-29144D01*
X37449Y-29089D01*
X37450Y-28910D01*
X37381Y-28745D01*
X37255Y-28618D01*
X37089Y-28550D01*
X36910Y-28549D01*
X36745Y-28618D01*
X36618Y-28744D01*
X36550Y-28910D01*
X36549Y-29089D01*
X36618Y-29254D01*
X36744Y-29381D01*
X36910Y-29449D01*
X37089Y-29450D01*
X37144Y-29427D01*
X37280Y-29563D01*
X37280Y-29643D01*
X37255Y-29618D01*
X37089Y-29550D01*
X36910Y-29549D01*
X36745Y-29618D01*
X36618Y-29744D01*
X36550Y-29910D01*
X36549Y-30089D01*
X36618Y-30254D01*
X36744Y-30381D01*
X36910Y-30449D01*
X37089Y-30450D01*
X37254Y-30381D01*
X37280Y-30356D01*
X37280Y-30590D01*
X37280Y-30643D01*
X37255Y-30618D01*
X37089Y-30550D01*
X36910Y-30549D01*
X36745Y-30618D01*
X36618Y-30744D01*
X36550Y-30910D01*
X36549Y-31089D01*
X36618Y-31254D01*
X36744Y-31381D01*
X36910Y-31449D01*
X37089Y-31450D01*
X37254Y-31381D01*
X37280Y-31356D01*
X37280Y-31535D01*
X37295Y-31611D01*
X37338Y-31676D01*
X37653Y-31991D01*
X37653Y-31991D01*
X37697Y-32020D01*
X37718Y-32035D01*
X37718Y-32035D01*
X37795Y-32050D01*
X37795Y-32050D01*
X37842Y-32050D01*
X37842Y-32273D01*
X37864Y-32328D01*
X37907Y-32371D01*
X37962Y-32394D01*
X38021Y-32394D01*
X38415Y-32394D01*
X38470Y-32371D01*
X38512Y-32329D01*
X38535Y-32274D01*
X38535Y-32214D01*
X38535Y-38800D01*
X37450Y-38800D01*
X37450Y-37910D01*
X37450Y-36910D01*
X37450Y-35910D01*
X37450Y-34910D01*
X37450Y-33910D01*
X37450Y-32910D01*
X37450Y-31910D01*
X37381Y-31745D01*
X37255Y-31618D01*
X37089Y-31550D01*
X36910Y-31549D01*
X36745Y-31618D01*
X36618Y-31744D01*
X36550Y-31910D01*
X36549Y-32089D01*
X36618Y-32254D01*
X36744Y-32381D01*
X36910Y-32449D01*
X37089Y-32450D01*
X37254Y-32381D01*
X37381Y-32255D01*
X37449Y-32089D01*
X37450Y-31910D01*
X37450Y-32910D01*
X37381Y-32745D01*
X37255Y-32618D01*
X37089Y-32550D01*
X36910Y-32549D01*
X36745Y-32618D01*
X36618Y-32744D01*
X36550Y-32910D01*
X36549Y-33089D01*
X36618Y-33254D01*
X36744Y-33381D01*
X36910Y-33449D01*
X37089Y-33450D01*
X37254Y-33381D01*
X37381Y-33255D01*
X37449Y-33089D01*
X37450Y-32910D01*
X37450Y-33910D01*
X37381Y-33745D01*
X37255Y-33618D01*
X37089Y-33550D01*
X36910Y-33549D01*
X36745Y-33618D01*
X36618Y-33744D01*
X36550Y-33910D01*
X36549Y-34089D01*
X36618Y-34254D01*
X36744Y-34381D01*
X36910Y-34449D01*
X37089Y-34450D01*
X37254Y-34381D01*
X37381Y-34255D01*
X37449Y-34089D01*
X37450Y-33910D01*
X37450Y-34910D01*
X37381Y-34745D01*
X37255Y-34618D01*
X37089Y-34550D01*
X36910Y-34549D01*
X36745Y-34618D01*
X36618Y-34744D01*
X36550Y-34910D01*
X36549Y-35089D01*
X36618Y-35254D01*
X36744Y-35381D01*
X36910Y-35449D01*
X37089Y-35450D01*
X37254Y-35381D01*
X37381Y-35255D01*
X37449Y-35089D01*
X37450Y-34910D01*
X37450Y-35910D01*
X37381Y-35745D01*
X37255Y-35618D01*
X37089Y-35550D01*
X36910Y-35549D01*
X36745Y-35618D01*
X36618Y-35744D01*
X36550Y-35910D01*
X36549Y-36089D01*
X36618Y-36254D01*
X36744Y-36381D01*
X36910Y-36449D01*
X37089Y-36450D01*
X37254Y-36381D01*
X37381Y-36255D01*
X37449Y-36089D01*
X37450Y-35910D01*
X37450Y-36910D01*
X37381Y-36745D01*
X37255Y-36618D01*
X37089Y-36550D01*
X36910Y-36549D01*
X36745Y-36618D01*
X36618Y-36744D01*
X36550Y-36910D01*
X36549Y-37089D01*
X36618Y-37254D01*
X36744Y-37381D01*
X36910Y-37449D01*
X37089Y-37450D01*
X37254Y-37381D01*
X37381Y-37255D01*
X37449Y-37089D01*
X37450Y-36910D01*
X37450Y-37910D01*
X37381Y-37745D01*
X37255Y-37618D01*
X37089Y-37550D01*
X36910Y-37549D01*
X36745Y-37618D01*
X36618Y-37744D01*
X36550Y-37910D01*
X36549Y-38089D01*
X36618Y-38254D01*
X36744Y-38381D01*
X36910Y-38449D01*
X37089Y-38450D01*
X37254Y-38381D01*
X37381Y-38255D01*
X37449Y-38089D01*
X37450Y-37910D01*
X37450Y-38800D01*
X37450Y-38800D01*
X37450Y-38670D01*
X37427Y-38615D01*
X37385Y-38572D01*
X37329Y-38550D01*
X37270Y-38549D01*
X36670Y-38549D01*
X36615Y-38572D01*
X36572Y-38614D01*
X36550Y-38670D01*
X36549Y-38729D01*
X36549Y-39329D01*
X36572Y-39384D01*
X36614Y-39427D01*
X36670Y-39449D01*
X36729Y-39450D01*
X37329Y-39450D01*
X37384Y-39427D01*
X37427Y-39385D01*
X37449Y-39329D01*
X37450Y-39270D01*
X37450Y-39200D01*
X38819Y-39200D01*
X38910Y-39291D01*
X39029Y-39340D01*
X39158Y-39340D01*
X39278Y-39291D01*
X39369Y-39200D01*
X39419Y-39080D01*
X39419Y-38951D01*
X39419Y-39800D01*
X37404Y-39800D01*
X37381Y-39745D01*
X37255Y-39618D01*
X37089Y-39550D01*
X36910Y-39549D01*
X36745Y-39618D01*
X36618Y-39744D01*
X36550Y-39910D01*
X36549Y-40089D01*
X36618Y-40254D01*
X36744Y-40381D01*
X36910Y-40449D01*
X37089Y-40450D01*
X37254Y-40381D01*
X37381Y-40255D01*
X37404Y-40200D01*
X41708Y-40200D01*
X41784Y-40275D01*
X41903Y-40324D01*
X42032Y-40325D01*
X42152Y-40275D01*
X42243Y-40184D01*
X42293Y-40064D01*
X42293Y-39935D01*
X42244Y-39816D01*
X42172Y-39744D01*
X42194Y-39721D01*
X42359Y-39885D01*
X42359Y-41141D01*
X42374Y-41218D01*
X42417Y-41283D01*
X43559Y-42424D01*
X43624Y-42468D01*
X43624Y-42468D01*
X43636Y-42470D01*
X43700Y-42483D01*
X49527Y-42483D01*
X49604Y-42468D01*
X49668Y-42424D01*
X49983Y-42109D01*
X49983Y-42109D01*
X50012Y-42066D01*
X50027Y-42045D01*
X50027Y-42045D01*
X50042Y-41968D01*
X50042Y-41968D01*
X50042Y-41342D01*
X50185Y-41200D01*
X50595Y-41200D01*
X50618Y-41254D01*
X50744Y-41381D01*
X50910Y-41449D01*
X51089Y-41450D01*
X51254Y-41381D01*
X51381Y-41255D01*
X51449Y-41089D01*
X51450Y-40910D01*
X51450Y-42743D01*
X51450Y-42743D01*
X51450Y-42270D01*
X51450Y-41670D01*
X51427Y-41615D01*
X51385Y-41572D01*
X51329Y-41550D01*
X51270Y-41549D01*
X50670Y-41549D01*
X50615Y-41572D01*
X50572Y-41614D01*
X50550Y-41670D01*
X50549Y-41729D01*
X50549Y-42329D01*
X50572Y-42384D01*
X50614Y-42427D01*
X50670Y-42449D01*
X50729Y-42450D01*
X51329Y-42450D01*
X51384Y-42427D01*
X51427Y-42385D01*
X51449Y-42329D01*
X51450Y-42270D01*
X51450Y-42743D01*
X37450Y-42743D01*
X37450Y-41910D01*
X37450Y-40910D01*
X37381Y-40745D01*
X37255Y-40618D01*
X37089Y-40550D01*
X36910Y-40549D01*
X36745Y-40618D01*
X36618Y-40744D01*
X36550Y-40910D01*
X36549Y-41089D01*
X36618Y-41254D01*
X36744Y-41381D01*
X36910Y-41449D01*
X37089Y-41450D01*
X37254Y-41381D01*
X37381Y-41255D01*
X37449Y-41089D01*
X37450Y-40910D01*
X37450Y-41910D01*
X37381Y-41745D01*
X37255Y-41618D01*
X37089Y-41550D01*
X36910Y-41549D01*
X36745Y-41618D01*
X36618Y-41744D01*
X36550Y-41910D01*
X36549Y-42089D01*
X36618Y-42254D01*
X36744Y-42381D01*
X36910Y-42449D01*
X37089Y-42450D01*
X37254Y-42381D01*
X37381Y-42255D01*
X37449Y-42089D01*
X37450Y-41910D01*
X37450Y-42743D01*
X36434Y-42743D01*
X36408Y-42738D01*
X36400Y-42733D01*
X36395Y-42725D01*
X36390Y-42699D01*
X36390Y-23441D01*
X36395Y-23416D01*
X36400Y-23408D01*
X36408Y-23403D01*
X36434Y-23398D01*
X51755Y-23398D01*
X51761Y-23399D01*
X51761Y-42742D01*
M02*
