G04 (created by PCBNEW (2013-07-07 BZR 4022)-stable) date 2015/11/30 22:46:21*
%MOIN*%
G04 Gerber Fmt 3.4, Leading zero omitted, Abs format*
%FSLAX34Y34*%
G01*
G70*
G90*
G04 APERTURE LIST*
%ADD10C,0.00590551*%
%ADD11R,0.06X0.06*%
%ADD12C,0.06*%
%ADD13R,0.0708661X0.0299213*%
%ADD14R,0.045X0.0393701*%
%ADD15R,0.0787402X0.0354331*%
%ADD16R,0.0275591X0.0472441*%
%ADD17R,0.23622X0.0787402*%
%ADD18R,0.0472441X0.110236*%
%ADD19C,0.035*%
%ADD20C,0.01*%
%ADD21C,0.02*%
G04 APERTURE END LIST*
G54D10*
G36*
X38884Y-29925D02*
X39009Y-29800D01*
X39565Y-30356D01*
X39440Y-30481D01*
X38884Y-29925D01*
X38884Y-29925D01*
G37*
G36*
X39106Y-29702D02*
X39232Y-29577D01*
X39788Y-30133D01*
X39663Y-30258D01*
X39106Y-29702D01*
X39106Y-29702D01*
G37*
G36*
X39329Y-29479D02*
X39454Y-29354D01*
X40011Y-29911D01*
X39886Y-30036D01*
X39329Y-29479D01*
X39329Y-29479D01*
G37*
G36*
X39552Y-29256D02*
X39677Y-29131D01*
X40234Y-29688D01*
X40108Y-29813D01*
X39552Y-29256D01*
X39552Y-29256D01*
G37*
G36*
X39775Y-29034D02*
X39900Y-28909D01*
X40456Y-29465D01*
X40331Y-29590D01*
X39775Y-29034D01*
X39775Y-29034D01*
G37*
G36*
X39997Y-28811D02*
X40123Y-28686D01*
X40679Y-29242D01*
X40554Y-29367D01*
X39997Y-28811D01*
X39997Y-28811D01*
G37*
G36*
X40220Y-28588D02*
X40345Y-28463D01*
X40902Y-29020D01*
X40777Y-29145D01*
X40220Y-28588D01*
X40220Y-28588D01*
G37*
G36*
X40443Y-28366D02*
X40568Y-28240D01*
X41125Y-28797D01*
X40999Y-28922D01*
X40443Y-28366D01*
X40443Y-28366D01*
G37*
G36*
X43104Y-31030D02*
X43230Y-30905D01*
X43786Y-31461D01*
X43661Y-31586D01*
X43104Y-31030D01*
X43104Y-31030D01*
G37*
G36*
X41542Y-32593D02*
X41667Y-32467D01*
X42223Y-33024D01*
X42098Y-33149D01*
X41542Y-32593D01*
X41542Y-32593D01*
G37*
G36*
X41768Y-32366D02*
X41893Y-32241D01*
X42450Y-32798D01*
X42324Y-32923D01*
X41768Y-32366D01*
X41768Y-32366D01*
G37*
G36*
X41994Y-32140D02*
X42119Y-32015D01*
X42676Y-32571D01*
X42551Y-32697D01*
X41994Y-32140D01*
X41994Y-32140D01*
G37*
G36*
X42213Y-31921D02*
X42339Y-31796D01*
X42895Y-32352D01*
X42770Y-32477D01*
X42213Y-31921D01*
X42213Y-31921D01*
G37*
G36*
X42440Y-31695D02*
X42565Y-31569D01*
X43121Y-32126D01*
X42996Y-32251D01*
X42440Y-31695D01*
X42440Y-31695D01*
G37*
G36*
X42659Y-31475D02*
X42784Y-31350D01*
X43341Y-31907D01*
X43215Y-32032D01*
X42659Y-31475D01*
X42659Y-31475D01*
G37*
G36*
X42885Y-31249D02*
X43010Y-31124D01*
X43567Y-31680D01*
X43442Y-31806D01*
X42885Y-31249D01*
X42885Y-31249D01*
G37*
G36*
X41554Y-28794D02*
X42111Y-28238D01*
X42236Y-28363D01*
X41680Y-28919D01*
X41554Y-28794D01*
X41554Y-28794D01*
G37*
G36*
X41776Y-29016D02*
X42333Y-28460D01*
X42458Y-28585D01*
X41902Y-29141D01*
X41776Y-29016D01*
X41776Y-29016D01*
G37*
G36*
X42000Y-29240D02*
X42556Y-28683D01*
X42682Y-28808D01*
X42125Y-29365D01*
X42000Y-29240D01*
X42000Y-29240D01*
G37*
G36*
X42222Y-29462D02*
X42778Y-28905D01*
X42904Y-29030D01*
X42347Y-29587D01*
X42222Y-29462D01*
X42222Y-29462D01*
G37*
G36*
X42445Y-29685D02*
X43002Y-29128D01*
X43127Y-29254D01*
X42571Y-29810D01*
X42445Y-29685D01*
X42445Y-29685D01*
G37*
G36*
X42667Y-29907D02*
X43224Y-29351D01*
X43349Y-29476D01*
X42793Y-30032D01*
X42667Y-29907D01*
X42667Y-29907D01*
G37*
G36*
X42891Y-30130D02*
X43447Y-29574D01*
X43573Y-29699D01*
X43016Y-30256D01*
X42891Y-30130D01*
X42891Y-30130D01*
G37*
G36*
X43113Y-30352D02*
X43669Y-29796D01*
X43795Y-29921D01*
X43238Y-30478D01*
X43113Y-30352D01*
X43113Y-30352D01*
G37*
G36*
X38883Y-31468D02*
X39440Y-30912D01*
X39565Y-31037D01*
X39008Y-31593D01*
X38883Y-31468D01*
X38883Y-31468D01*
G37*
G36*
X39102Y-31688D02*
X39659Y-31131D01*
X39784Y-31256D01*
X39227Y-31813D01*
X39102Y-31688D01*
X39102Y-31688D01*
G37*
G36*
X39328Y-31914D02*
X39885Y-31357D01*
X40010Y-31482D01*
X39454Y-32039D01*
X39328Y-31914D01*
X39328Y-31914D01*
G37*
G36*
X39548Y-32133D02*
X40104Y-31576D01*
X40229Y-31702D01*
X39673Y-32258D01*
X39548Y-32133D01*
X39548Y-32133D01*
G37*
G36*
X39767Y-32352D02*
X40323Y-31796D01*
X40449Y-31921D01*
X39892Y-32477D01*
X39767Y-32352D01*
X39767Y-32352D01*
G37*
G36*
X39993Y-32578D02*
X40550Y-32022D01*
X40675Y-32147D01*
X40118Y-32704D01*
X39993Y-32578D01*
X39993Y-32578D01*
G37*
G36*
X40219Y-32805D02*
X40776Y-32248D01*
X40901Y-32373D01*
X40345Y-32930D01*
X40219Y-32805D01*
X40219Y-32805D01*
G37*
G36*
X40446Y-33031D02*
X41002Y-32475D01*
X41127Y-32600D01*
X40571Y-33156D01*
X40446Y-33031D01*
X40446Y-33031D01*
G37*
G54D11*
X51000Y-38000D03*
G54D12*
X51000Y-37000D03*
X51000Y-36000D03*
X51000Y-35000D03*
X51000Y-34000D03*
X51000Y-33000D03*
X51000Y-32000D03*
X51000Y-31000D03*
X51000Y-30000D03*
X51000Y-29000D03*
X51000Y-28000D03*
X51000Y-27000D03*
X51000Y-26000D03*
X51000Y-25000D03*
X51000Y-24000D03*
G54D11*
X37000Y-24000D03*
G54D12*
X37000Y-25000D03*
X37000Y-26000D03*
X37000Y-27000D03*
X37000Y-28000D03*
X37000Y-29000D03*
X37000Y-30000D03*
X37000Y-31000D03*
X37000Y-32000D03*
X37000Y-33000D03*
X37000Y-34000D03*
X37000Y-35000D03*
X37000Y-36000D03*
X37000Y-37000D03*
X37000Y-38000D03*
G54D13*
X49137Y-33464D03*
X49137Y-32964D03*
X49137Y-32464D03*
X49137Y-31964D03*
X46137Y-33464D03*
X46137Y-32964D03*
X46137Y-32464D03*
X46137Y-31964D03*
G54D14*
X49212Y-25000D03*
X49212Y-24173D03*
X49212Y-26968D03*
X49212Y-26141D03*
G54D15*
X40078Y-35393D03*
X40078Y-35984D03*
X40078Y-36574D03*
X40078Y-37165D03*
X40078Y-37755D03*
X40078Y-38346D03*
X40078Y-38937D03*
X40078Y-39527D03*
X40078Y-40118D03*
X47165Y-40118D03*
X47165Y-39527D03*
X47165Y-38937D03*
X47165Y-38346D03*
X47165Y-37755D03*
X47165Y-37165D03*
X47165Y-36574D03*
X47165Y-35984D03*
X47165Y-35393D03*
G54D16*
X48267Y-30551D03*
X48267Y-28503D03*
X49370Y-30551D03*
X49370Y-28503D03*
X45905Y-30551D03*
X45905Y-28503D03*
X47007Y-30551D03*
X47007Y-28503D03*
G54D11*
X51000Y-42000D03*
G54D12*
X51000Y-41000D03*
X51000Y-40000D03*
X51000Y-39000D03*
G54D11*
X37000Y-39000D03*
G54D12*
X37000Y-40000D03*
X37000Y-41000D03*
X37000Y-42000D03*
G54D17*
X43307Y-24763D03*
X39370Y-24763D03*
G54D18*
X47874Y-26771D03*
X46889Y-26771D03*
X45905Y-26771D03*
X45905Y-24488D03*
X46889Y-24488D03*
X47874Y-24488D03*
G54D19*
X43385Y-26496D03*
X49566Y-39133D03*
X43818Y-38425D03*
X44488Y-39094D03*
X48385Y-41023D03*
X43267Y-34921D03*
X44015Y-36023D03*
X50118Y-29527D03*
X41614Y-32086D03*
X40511Y-30551D03*
X44015Y-33031D03*
X43937Y-32559D03*
X48937Y-35984D03*
X43897Y-34370D03*
X43425Y-32559D03*
X37952Y-27598D03*
X38228Y-25826D03*
X40314Y-31377D03*
X41889Y-36692D03*
X42086Y-37125D03*
X41968Y-40000D03*
X45708Y-38937D03*
X46496Y-38937D03*
X39094Y-39015D03*
X49370Y-41889D03*
X41968Y-38976D03*
X41338Y-37716D03*
X40905Y-35078D03*
X41968Y-39488D03*
X43503Y-28503D03*
X46456Y-28385D03*
X38543Y-26535D03*
X43937Y-27362D03*
X46657Y-31964D03*
X47952Y-31850D03*
X47755Y-35393D03*
X44606Y-35984D03*
X49370Y-29409D03*
X46377Y-29370D03*
X36456Y-23503D03*
X39803Y-23543D03*
X44094Y-23543D03*
X47086Y-23425D03*
X49685Y-23464D03*
X51535Y-23503D03*
X38070Y-42598D03*
X36535Y-42598D03*
X36535Y-38425D03*
X36535Y-34488D03*
X36535Y-30511D03*
X47480Y-42637D03*
X49803Y-42519D03*
X51496Y-42519D03*
X51496Y-39527D03*
X51496Y-35511D03*
X51535Y-31574D03*
X51535Y-27559D03*
X39763Y-42598D03*
X43346Y-38700D03*
X42559Y-37559D03*
X43818Y-36811D03*
X41456Y-40354D03*
X43464Y-40314D03*
X39212Y-26496D03*
X41929Y-30472D03*
X39055Y-40551D03*
X39015Y-39606D03*
X39133Y-38149D03*
X49763Y-40511D03*
X49291Y-40905D03*
X48228Y-38937D03*
X45472Y-38228D03*
X43700Y-39173D03*
X41732Y-35000D03*
X48188Y-37086D03*
X45354Y-33661D03*
X41181Y-29881D03*
X42244Y-31377D03*
X41889Y-34133D03*
X44212Y-35157D03*
X47716Y-30275D03*
X41220Y-33307D03*
X44960Y-28897D03*
X44960Y-27952D03*
X48031Y-27913D03*
X42204Y-30078D03*
X40748Y-38346D03*
X46259Y-35472D03*
X48385Y-33700D03*
X46968Y-32992D03*
X42322Y-25748D03*
X38818Y-30551D03*
X40275Y-25708D03*
X38385Y-30039D03*
X44645Y-35472D03*
X48385Y-32086D03*
X47677Y-32283D03*
X48385Y-32637D03*
X45275Y-35472D03*
X45787Y-35472D03*
X48385Y-33188D03*
X47283Y-32637D03*
G54D20*
X42795Y-26456D02*
X43346Y-26456D01*
X43346Y-26456D02*
X43385Y-26496D01*
G54D21*
X49291Y-39803D02*
X49566Y-39527D01*
X48503Y-40314D02*
X48779Y-40314D01*
X48779Y-40314D02*
X49291Y-39803D01*
X48366Y-40452D02*
X48503Y-40314D01*
X49566Y-39527D02*
X49566Y-39133D01*
X49566Y-39133D02*
X49527Y-39173D01*
X43818Y-38425D02*
X44488Y-39094D01*
X48031Y-40118D02*
X47165Y-40118D01*
X48385Y-40472D02*
X48366Y-40452D01*
X48366Y-40452D02*
X48346Y-40433D01*
X48346Y-40433D02*
X48031Y-40118D01*
X48385Y-41023D02*
X48385Y-40472D01*
G54D20*
X44015Y-36023D02*
X44015Y-35826D01*
X44015Y-35826D02*
X43267Y-35078D01*
X43267Y-35078D02*
X43267Y-34921D01*
G54D21*
X50118Y-29527D02*
X50118Y-27401D01*
X50118Y-26598D02*
X50519Y-27000D01*
X50984Y-24015D02*
X50629Y-24015D01*
X50629Y-24015D02*
X50118Y-24527D01*
X50118Y-24527D02*
X50118Y-26598D01*
X51000Y-24000D02*
X50984Y-24015D01*
X50118Y-27401D02*
X49685Y-26968D01*
X49685Y-26968D02*
X49212Y-26968D01*
G54D20*
X50559Y-27000D02*
X50519Y-27000D01*
G54D21*
X50519Y-27000D02*
X50118Y-27401D01*
X51000Y-27000D02*
X50559Y-27000D01*
G54D20*
X47874Y-26771D02*
X48070Y-26968D01*
G54D21*
X48070Y-26968D02*
X49212Y-26968D01*
G54D20*
X42109Y-32582D02*
X41614Y-32087D01*
X41614Y-32087D02*
X41614Y-32086D01*
G54D21*
X47874Y-24488D02*
X47874Y-26771D01*
G54D20*
X39670Y-29709D02*
X40511Y-30551D01*
X39670Y-29709D02*
X39670Y-29695D01*
X40115Y-29249D02*
X39684Y-28818D01*
X39684Y-28818D02*
X39488Y-28818D01*
X39488Y-28818D02*
X39251Y-29055D01*
X39251Y-29055D02*
X39251Y-29276D01*
X39251Y-29276D02*
X39670Y-29695D01*
X43226Y-31465D02*
X43611Y-31850D01*
X48897Y-35000D02*
X48425Y-34527D01*
X48425Y-34527D02*
X44881Y-34527D01*
X44881Y-34527D02*
X44409Y-34055D01*
X44409Y-34055D02*
X44409Y-32648D01*
X48897Y-35000D02*
X51000Y-35000D01*
X44409Y-32165D02*
X44409Y-32648D01*
X44015Y-31771D02*
X44409Y-32165D01*
X43858Y-31771D02*
X44015Y-31771D01*
X43779Y-31850D02*
X43858Y-31771D01*
X43611Y-31850D02*
X43779Y-31850D01*
X43445Y-31246D02*
X43805Y-31246D01*
X50409Y-34000D02*
X50118Y-34291D01*
X50118Y-34291D02*
X45039Y-34291D01*
X45039Y-34291D02*
X44645Y-33897D01*
X44645Y-33897D02*
X44645Y-32445D01*
X50409Y-34000D02*
X51000Y-34000D01*
X44645Y-32086D02*
X44645Y-32445D01*
X43805Y-31246D02*
X44645Y-32086D01*
X51000Y-33000D02*
X50582Y-33000D01*
X43858Y-30541D02*
X43454Y-30137D01*
X43858Y-30984D02*
X43858Y-30541D01*
X44881Y-32007D02*
X43858Y-30984D01*
X44881Y-33740D02*
X44881Y-32007D01*
X45196Y-34055D02*
X44881Y-33740D01*
X50000Y-34055D02*
X45196Y-34055D01*
X50472Y-33582D02*
X50000Y-34055D01*
X50472Y-33110D02*
X50472Y-33582D01*
X50582Y-33000D02*
X50472Y-33110D01*
X51000Y-32000D02*
X50267Y-32000D01*
X43738Y-29409D02*
X43232Y-29915D01*
X44055Y-29409D02*
X43738Y-29409D01*
X44330Y-29685D02*
X44055Y-29409D01*
X44330Y-31023D02*
X44330Y-29685D01*
X44803Y-31496D02*
X44330Y-31023D01*
X49763Y-31496D02*
X44803Y-31496D01*
X50267Y-32000D02*
X49763Y-31496D01*
X51000Y-31000D02*
X50023Y-31000D01*
X43566Y-29133D02*
X43008Y-29691D01*
X44173Y-29133D02*
X43566Y-29133D01*
X44606Y-29566D02*
X44173Y-29133D01*
X44606Y-30866D02*
X44606Y-29566D01*
X45000Y-31259D02*
X44606Y-30866D01*
X49763Y-31259D02*
X45000Y-31259D01*
X50023Y-31000D02*
X49763Y-31259D01*
X51000Y-30000D02*
X50118Y-30000D01*
X43398Y-28858D02*
X42786Y-29469D01*
X44370Y-28858D02*
X43398Y-28858D01*
X44842Y-29330D02*
X44370Y-28858D01*
X44842Y-30669D02*
X44842Y-29330D01*
X45196Y-31023D02*
X44842Y-30669D01*
X49685Y-31023D02*
X45196Y-31023D01*
X49921Y-30787D02*
X49685Y-31023D01*
X49921Y-30196D02*
X49921Y-30787D01*
X50118Y-30000D02*
X49921Y-30196D01*
X43325Y-33346D02*
X42335Y-32356D01*
X43700Y-33346D02*
X43325Y-33346D01*
X44015Y-33031D02*
X43700Y-33346D01*
X43543Y-32234D02*
X43612Y-32234D01*
X43000Y-31691D02*
X43543Y-32234D01*
X43612Y-32234D02*
X43937Y-32559D01*
X43346Y-32559D02*
X43425Y-32559D01*
X43897Y-34370D02*
X44606Y-35078D01*
X44606Y-35078D02*
X44842Y-35078D01*
X46141Y-35078D02*
X46299Y-35078D01*
X44842Y-35078D02*
X46141Y-35078D01*
X47952Y-35000D02*
X48937Y-35984D01*
X46377Y-35000D02*
X47952Y-35000D01*
X46299Y-35078D02*
X46377Y-35000D01*
X42976Y-32559D02*
X43346Y-32559D01*
X42976Y-32559D02*
X42554Y-32137D01*
X37322Y-25000D02*
X37000Y-25000D01*
X37598Y-25275D02*
X37322Y-25000D01*
X37598Y-27244D02*
X37598Y-25275D01*
X37952Y-27598D02*
X37598Y-27244D01*
X42341Y-29024D02*
X42874Y-28491D01*
X38110Y-25944D02*
X38228Y-25826D01*
X38110Y-26850D02*
X38110Y-25944D01*
X38503Y-27244D02*
X38110Y-26850D01*
X41456Y-27244D02*
X38503Y-27244D01*
X41811Y-27598D02*
X41456Y-27244D01*
X42440Y-27598D02*
X41811Y-27598D01*
X42874Y-28031D02*
X42440Y-27598D01*
X42874Y-28491D02*
X42874Y-28031D01*
X41692Y-27913D02*
X41968Y-27913D01*
X42559Y-28359D02*
X42559Y-28228D01*
X42559Y-28228D02*
X42244Y-27913D01*
X42244Y-27913D02*
X41968Y-27913D01*
X42559Y-28359D02*
X42117Y-28800D01*
X40314Y-31377D02*
X41692Y-30000D01*
X41692Y-30000D02*
X41692Y-29685D01*
X41692Y-29685D02*
X41614Y-29606D01*
X41614Y-29606D02*
X41614Y-29304D01*
X41614Y-29304D02*
X42117Y-28800D01*
X37622Y-24000D02*
X37000Y-24000D01*
X37834Y-24212D02*
X37622Y-24000D01*
X37834Y-26968D02*
X37834Y-24212D01*
X38385Y-27519D02*
X37834Y-26968D01*
X41299Y-27519D02*
X38385Y-27519D01*
X41692Y-27913D02*
X41299Y-27519D01*
X40334Y-32363D02*
X39548Y-33149D01*
X37543Y-36000D02*
X37000Y-36000D01*
X37992Y-35551D02*
X37543Y-36000D01*
X37992Y-33543D02*
X37992Y-35551D01*
X38385Y-33149D02*
X37992Y-33543D01*
X39548Y-33149D02*
X38385Y-33149D01*
X40560Y-32589D02*
X39725Y-33425D01*
X37488Y-37000D02*
X37000Y-37000D01*
X38228Y-36259D02*
X37488Y-37000D01*
X38228Y-33740D02*
X38228Y-36259D01*
X38543Y-33425D02*
X38228Y-33740D01*
X39725Y-33425D02*
X38543Y-33425D01*
X40787Y-32815D02*
X39902Y-33700D01*
X37905Y-38000D02*
X37000Y-38000D01*
X38503Y-37401D02*
X37905Y-38000D01*
X38503Y-33937D02*
X38503Y-37401D01*
X38740Y-33700D02*
X38503Y-33937D01*
X39902Y-33700D02*
X38740Y-33700D01*
X48346Y-34763D02*
X44763Y-34763D01*
X48346Y-34763D02*
X49330Y-35748D01*
X49330Y-35748D02*
X49330Y-37401D01*
X49330Y-37401D02*
X49929Y-38000D01*
X51000Y-38000D02*
X49929Y-38000D01*
X42696Y-33622D02*
X41883Y-32808D01*
X43897Y-33622D02*
X42696Y-33622D01*
X44173Y-33897D02*
X43897Y-33622D01*
X44173Y-34173D02*
X44173Y-33897D01*
X44763Y-34763D02*
X44173Y-34173D01*
X41895Y-28578D02*
X41112Y-27795D01*
X38692Y-28000D02*
X37000Y-28000D01*
X38897Y-27795D02*
X38692Y-28000D01*
X41112Y-27795D02*
X38897Y-27795D01*
X38165Y-29000D02*
X37000Y-29000D01*
X40784Y-28581D02*
X40273Y-28070D01*
X39094Y-28070D02*
X38165Y-29000D01*
X40273Y-28070D02*
X39094Y-28070D01*
X40561Y-28804D02*
X40103Y-28346D01*
X37834Y-30000D02*
X37000Y-30000D01*
X39488Y-28346D02*
X37834Y-30000D01*
X40103Y-28346D02*
X39488Y-28346D01*
X39224Y-31253D02*
X38548Y-31929D01*
X37338Y-31000D02*
X37000Y-31000D01*
X37480Y-31141D02*
X37338Y-31000D01*
X37480Y-31692D02*
X37480Y-31141D01*
X37716Y-31929D02*
X37480Y-31692D01*
X38548Y-31929D02*
X37716Y-31929D01*
X39443Y-31472D02*
X38750Y-32165D01*
X37165Y-32165D02*
X37000Y-32000D01*
X37480Y-32165D02*
X37165Y-32165D01*
X38750Y-32165D02*
X37480Y-32165D01*
X37480Y-32598D02*
X37480Y-32834D01*
X39669Y-31698D02*
X38966Y-32401D01*
X38966Y-32401D02*
X37677Y-32401D01*
X37677Y-32401D02*
X37480Y-32598D01*
X37314Y-33000D02*
X37000Y-33000D01*
X37480Y-32834D02*
X37314Y-33000D01*
X39889Y-31917D02*
X39129Y-32677D01*
X37299Y-34000D02*
X37000Y-34000D01*
X37519Y-33779D02*
X37299Y-34000D01*
X37519Y-33149D02*
X37519Y-33779D01*
X37992Y-32677D02*
X37519Y-33149D01*
X39129Y-32677D02*
X37992Y-32677D01*
X40108Y-32137D02*
X39331Y-32913D01*
X37322Y-35000D02*
X37000Y-35000D01*
X37755Y-34566D02*
X37322Y-35000D01*
X37755Y-33307D02*
X37755Y-34566D01*
X38149Y-32913D02*
X37755Y-33307D01*
X39331Y-32913D02*
X38149Y-32913D01*
X41496Y-36417D02*
X41771Y-36692D01*
X41496Y-36417D02*
X41062Y-35984D01*
X40078Y-35984D02*
X41062Y-35984D01*
X41771Y-36692D02*
X41889Y-36692D01*
X40078Y-35984D02*
X39173Y-35984D01*
X37661Y-41000D02*
X37000Y-41000D01*
X37913Y-40748D02*
X37661Y-41000D01*
X37913Y-38385D02*
X37913Y-40748D01*
X38818Y-37480D02*
X37913Y-38385D01*
X38818Y-36338D02*
X38818Y-37480D01*
X39173Y-35984D02*
X38818Y-36338D01*
X41456Y-36929D02*
X41653Y-37125D01*
X41102Y-36574D02*
X41456Y-36929D01*
X41102Y-36574D02*
X40078Y-36574D01*
X41653Y-37125D02*
X42086Y-37125D01*
X40078Y-36574D02*
X39291Y-36574D01*
X37645Y-42000D02*
X37000Y-42000D01*
X38188Y-41456D02*
X37645Y-42000D01*
X38188Y-38464D02*
X38188Y-41456D01*
X39055Y-37598D02*
X38188Y-38464D01*
X39055Y-36811D02*
X39055Y-37598D01*
X39291Y-36574D02*
X39055Y-36811D01*
X47165Y-38346D02*
X49488Y-38346D01*
X50629Y-40000D02*
X51000Y-40000D01*
X50314Y-39685D02*
X50629Y-40000D01*
X50314Y-39173D02*
X50314Y-39685D01*
X49488Y-38346D02*
X50314Y-39173D01*
X51000Y-39000D02*
X50614Y-39000D01*
X49370Y-37755D02*
X47165Y-37755D01*
X50614Y-39000D02*
X49370Y-37755D01*
X41968Y-40000D02*
X42204Y-39763D01*
X42204Y-39763D02*
X44881Y-39763D01*
X47165Y-38937D02*
X46496Y-38937D01*
X45708Y-38937D02*
X44881Y-39763D01*
X40078Y-39527D02*
X39606Y-39527D01*
X39606Y-39527D02*
X39094Y-39015D01*
X40078Y-35393D02*
X40078Y-35157D01*
X49480Y-42000D02*
X51000Y-42000D01*
X49370Y-41889D02*
X49480Y-42000D01*
X41692Y-38976D02*
X41968Y-38976D01*
X41535Y-38818D02*
X41692Y-38976D01*
X41535Y-37913D02*
X41535Y-38818D01*
X41338Y-37716D02*
X41535Y-37913D01*
X40748Y-34921D02*
X40905Y-35078D01*
X40314Y-34921D02*
X40748Y-34921D01*
X40078Y-35157D02*
X40314Y-34921D01*
X41181Y-38937D02*
X41732Y-39488D01*
X40905Y-37755D02*
X41181Y-38031D01*
X41181Y-38031D02*
X41181Y-38937D01*
X40078Y-37755D02*
X40905Y-37755D01*
X41732Y-39488D02*
X41968Y-39488D01*
X43347Y-28660D02*
X43149Y-28660D01*
X43503Y-28503D02*
X43347Y-28660D01*
X46889Y-28385D02*
X47007Y-28503D01*
X46456Y-28385D02*
X46889Y-28385D01*
X47007Y-28503D02*
X47007Y-30551D01*
X43149Y-28660D02*
X43149Y-27834D01*
X43149Y-27834D02*
X42677Y-27362D01*
X42677Y-27362D02*
X41968Y-27362D01*
X41968Y-27362D02*
X41614Y-27007D01*
X41614Y-27007D02*
X38700Y-27007D01*
X38700Y-27007D02*
X38543Y-26850D01*
X38543Y-26850D02*
X38543Y-26535D01*
X42563Y-29246D02*
X43149Y-28660D01*
X45905Y-26771D02*
X45551Y-26771D01*
X44960Y-27362D02*
X43937Y-27362D01*
X45551Y-26771D02*
X44960Y-27362D01*
X47952Y-31850D02*
X46771Y-31850D01*
X46771Y-31850D02*
X46657Y-31964D01*
X47952Y-31850D02*
X46850Y-31850D01*
X46736Y-31964D02*
X46137Y-31964D01*
X46850Y-31850D02*
X46736Y-31964D01*
X47165Y-35393D02*
X47755Y-35393D01*
X45905Y-29527D02*
X46220Y-29527D01*
X46220Y-29527D02*
X46377Y-29370D01*
X51000Y-25000D02*
X51535Y-24464D01*
X44094Y-23543D02*
X39803Y-23543D01*
X49645Y-23425D02*
X47086Y-23425D01*
X49685Y-23464D02*
X49645Y-23425D01*
X51535Y-24464D02*
X51535Y-23503D01*
X39763Y-42598D02*
X38070Y-42598D01*
X36535Y-42598D02*
X36535Y-38425D01*
X36535Y-34488D02*
X36535Y-30511D01*
X51496Y-42519D02*
X49803Y-42519D01*
X51496Y-35511D02*
X51496Y-39527D01*
X51535Y-27559D02*
X51535Y-31574D01*
X42559Y-37559D02*
X42559Y-37913D01*
X42559Y-37913D02*
X43346Y-38700D01*
X43070Y-37559D02*
X42559Y-37559D01*
X43818Y-36811D02*
X43070Y-37559D01*
X42283Y-40354D02*
X41456Y-40354D01*
X42322Y-40314D02*
X42283Y-40354D01*
X43464Y-40314D02*
X42322Y-40314D01*
X40078Y-40118D02*
X39488Y-40118D01*
X39488Y-40118D02*
X39055Y-40551D01*
X40078Y-40118D02*
X39527Y-40118D01*
X39527Y-40118D02*
X39015Y-39606D01*
X40078Y-37165D02*
X39488Y-37165D01*
X39370Y-37913D02*
X39133Y-38149D01*
X39370Y-37283D02*
X39370Y-37913D01*
X39488Y-37165D02*
X39370Y-37283D01*
X48188Y-35826D02*
X48188Y-37086D01*
X47755Y-35393D02*
X48188Y-35826D01*
X46137Y-33464D02*
X45551Y-33464D01*
X45551Y-33464D02*
X45354Y-33661D01*
X40748Y-29448D02*
X41181Y-29881D01*
X40748Y-29448D02*
X40748Y-29436D01*
X45905Y-24488D02*
X45905Y-26771D01*
X42781Y-31910D02*
X42776Y-31910D01*
X42776Y-31910D02*
X42244Y-31377D01*
X40338Y-29027D02*
X40748Y-29436D01*
X40302Y-29881D02*
X39893Y-29472D01*
X40433Y-29881D02*
X40302Y-29881D01*
X40748Y-29566D02*
X40433Y-29881D01*
X40748Y-29436D02*
X40748Y-29566D01*
X45905Y-28503D02*
X45905Y-29527D01*
X45905Y-29527D02*
X45905Y-30551D01*
X49370Y-28503D02*
X49370Y-29409D01*
X49370Y-29409D02*
X49370Y-30551D01*
X43838Y-34940D02*
X44055Y-35157D01*
X43838Y-34940D02*
X43267Y-34370D01*
X42125Y-34370D02*
X41889Y-34133D01*
X43267Y-34370D02*
X42125Y-34370D01*
X44055Y-35157D02*
X44212Y-35157D01*
X46889Y-26771D02*
X46889Y-27283D01*
X47716Y-28110D02*
X47716Y-30275D01*
X46889Y-27283D02*
X47716Y-28110D01*
X46889Y-24488D02*
X46889Y-26771D01*
X41220Y-31889D02*
X42519Y-30590D01*
X41338Y-32362D02*
X41220Y-32244D01*
X41220Y-32244D02*
X41220Y-31889D01*
X48267Y-28503D02*
X48267Y-28149D01*
X41338Y-33188D02*
X41220Y-33307D01*
X44960Y-27952D02*
X44960Y-28897D01*
X48267Y-28149D02*
X48031Y-27913D01*
X41338Y-33188D02*
X41338Y-32362D01*
X42519Y-30393D02*
X42204Y-30078D01*
X42519Y-30590D02*
X42519Y-30393D01*
X40078Y-38346D02*
X40748Y-38346D01*
X48267Y-28503D02*
X48267Y-30551D01*
X46259Y-35472D02*
X46259Y-35866D01*
X46377Y-35984D02*
X47165Y-35984D01*
X46259Y-35866D02*
X46377Y-35984D01*
X48385Y-33700D02*
X47677Y-33700D01*
X47677Y-33700D02*
X46968Y-32992D01*
X49137Y-33464D02*
X48622Y-33464D01*
X48622Y-33464D02*
X48385Y-33700D01*
X42322Y-25748D02*
X43307Y-24763D01*
X38818Y-30546D02*
X38818Y-30551D01*
X39225Y-30140D02*
X38818Y-30546D01*
X39370Y-24803D02*
X39370Y-24763D01*
X40275Y-25708D02*
X39370Y-24803D01*
X39017Y-29488D02*
X39447Y-29918D01*
X38385Y-29842D02*
X38385Y-30039D01*
X38740Y-29488D02*
X38385Y-29842D01*
X39017Y-29488D02*
X38740Y-29488D01*
X45118Y-35944D02*
X44645Y-35472D01*
X46141Y-38031D02*
X46141Y-37992D01*
X46141Y-39212D02*
X46456Y-39527D01*
X46141Y-38031D02*
X46141Y-39212D01*
X46456Y-39527D02*
X47165Y-39527D01*
X46141Y-37992D02*
X45118Y-36968D01*
X45118Y-36968D02*
X45118Y-35944D01*
X49137Y-31964D02*
X48507Y-31964D01*
X48507Y-31964D02*
X48385Y-32086D01*
X48031Y-32637D02*
X47677Y-32283D01*
X48385Y-32637D02*
X48031Y-32637D01*
X45472Y-36889D02*
X45472Y-35669D01*
X45472Y-35669D02*
X45275Y-35472D01*
X45551Y-36968D02*
X45748Y-37165D01*
X45748Y-37165D02*
X47165Y-37165D01*
X45551Y-36968D02*
X45472Y-36889D01*
X48559Y-32464D02*
X48385Y-32637D01*
X49137Y-32464D02*
X48559Y-32464D01*
X46181Y-36574D02*
X45944Y-36574D01*
X46181Y-36574D02*
X47165Y-36574D01*
X45787Y-36417D02*
X45787Y-35472D01*
X45944Y-36574D02*
X45787Y-36417D01*
X48385Y-33188D02*
X47834Y-33188D01*
X47834Y-33188D02*
X47283Y-32637D01*
X49137Y-32964D02*
X48610Y-32964D01*
X48610Y-32964D02*
X48385Y-33188D01*
X49212Y-25000D02*
X49212Y-26141D01*
G54D10*
G36*
X41592Y-29043D02*
X41472Y-29163D01*
X41429Y-29227D01*
X41414Y-29304D01*
X41414Y-29606D01*
X41429Y-29682D01*
X41472Y-29747D01*
X41492Y-29767D01*
X41492Y-29917D01*
X40836Y-30573D01*
X40836Y-30486D01*
X40787Y-30367D01*
X40696Y-30275D01*
X40576Y-30226D01*
X40469Y-30226D01*
X40259Y-30016D01*
X40272Y-30003D01*
X40272Y-29914D01*
X39897Y-29539D01*
X39887Y-29548D01*
X39816Y-29478D01*
X39826Y-29468D01*
X39821Y-29463D01*
X39883Y-29400D01*
X39889Y-29405D01*
X39898Y-29396D01*
X39969Y-29467D01*
X39959Y-29476D01*
X40335Y-29852D01*
X40423Y-29852D01*
X40446Y-29829D01*
X40484Y-29737D01*
X40484Y-29650D01*
X40516Y-29617D01*
X40603Y-29618D01*
X40695Y-29580D01*
X40718Y-29557D01*
X40718Y-29469D01*
X40342Y-29093D01*
X40333Y-29103D01*
X40262Y-29032D01*
X40272Y-29023D01*
X39896Y-28647D01*
X39808Y-28647D01*
X39797Y-28658D01*
X39761Y-28634D01*
X39684Y-28618D01*
X39498Y-28618D01*
X39571Y-28546D01*
X39959Y-28546D01*
X39959Y-28585D01*
X40334Y-28960D01*
X40344Y-28950D01*
X40415Y-29021D01*
X40405Y-29031D01*
X40780Y-29406D01*
X40869Y-29406D01*
X40891Y-29384D01*
X40929Y-29292D01*
X40929Y-29205D01*
X41029Y-29105D01*
X41045Y-29065D01*
X41084Y-29049D01*
X41126Y-29007D01*
X41252Y-28882D01*
X41275Y-28827D01*
X41275Y-28767D01*
X41252Y-28712D01*
X41210Y-28670D01*
X40653Y-28113D01*
X40598Y-28090D01*
X40576Y-28090D01*
X40480Y-27995D01*
X41029Y-27995D01*
X41585Y-28551D01*
X41427Y-28709D01*
X41404Y-28764D01*
X41404Y-28824D01*
X41427Y-28879D01*
X41469Y-28921D01*
X41592Y-29043D01*
X41592Y-29043D01*
G37*
G54D20*
X41592Y-29043D02*
X41472Y-29163D01*
X41429Y-29227D01*
X41414Y-29304D01*
X41414Y-29606D01*
X41429Y-29682D01*
X41472Y-29747D01*
X41492Y-29767D01*
X41492Y-29917D01*
X40836Y-30573D01*
X40836Y-30486D01*
X40787Y-30367D01*
X40696Y-30275D01*
X40576Y-30226D01*
X40469Y-30226D01*
X40259Y-30016D01*
X40272Y-30003D01*
X40272Y-29914D01*
X39897Y-29539D01*
X39887Y-29548D01*
X39816Y-29478D01*
X39826Y-29468D01*
X39821Y-29463D01*
X39883Y-29400D01*
X39889Y-29405D01*
X39898Y-29396D01*
X39969Y-29467D01*
X39959Y-29476D01*
X40335Y-29852D01*
X40423Y-29852D01*
X40446Y-29829D01*
X40484Y-29737D01*
X40484Y-29650D01*
X40516Y-29617D01*
X40603Y-29618D01*
X40695Y-29580D01*
X40718Y-29557D01*
X40718Y-29469D01*
X40342Y-29093D01*
X40333Y-29103D01*
X40262Y-29032D01*
X40272Y-29023D01*
X39896Y-28647D01*
X39808Y-28647D01*
X39797Y-28658D01*
X39761Y-28634D01*
X39684Y-28618D01*
X39498Y-28618D01*
X39571Y-28546D01*
X39959Y-28546D01*
X39959Y-28585D01*
X40334Y-28960D01*
X40344Y-28950D01*
X40415Y-29021D01*
X40405Y-29031D01*
X40780Y-29406D01*
X40869Y-29406D01*
X40891Y-29384D01*
X40929Y-29292D01*
X40929Y-29205D01*
X41029Y-29105D01*
X41045Y-29065D01*
X41084Y-29049D01*
X41126Y-29007D01*
X41252Y-28882D01*
X41275Y-28827D01*
X41275Y-28767D01*
X41252Y-28712D01*
X41210Y-28670D01*
X40653Y-28113D01*
X40598Y-28090D01*
X40576Y-28090D01*
X40480Y-27995D01*
X41029Y-27995D01*
X41585Y-28551D01*
X41427Y-28709D01*
X41404Y-28764D01*
X41404Y-28824D01*
X41427Y-28879D01*
X41469Y-28921D01*
X41592Y-29043D01*
G54D10*
G36*
X42319Y-30507D02*
X41079Y-31748D01*
X41035Y-31813D01*
X41020Y-31889D01*
X41020Y-32244D01*
X41029Y-32291D01*
X41028Y-32289D01*
X40986Y-32246D01*
X40861Y-32121D01*
X40819Y-32104D01*
X40802Y-32062D01*
X40760Y-32020D01*
X40635Y-31895D01*
X40593Y-31878D01*
X40576Y-31836D01*
X40534Y-31794D01*
X40424Y-31684D01*
X40498Y-31653D01*
X40590Y-31562D01*
X40639Y-31442D01*
X40639Y-31335D01*
X41834Y-30141D01*
X41834Y-30141D01*
X41863Y-30098D01*
X41877Y-30076D01*
X41877Y-30076D01*
X41879Y-30066D01*
X41879Y-30143D01*
X41929Y-30262D01*
X42020Y-30354D01*
X42139Y-30403D01*
X42246Y-30403D01*
X42319Y-30476D01*
X42319Y-30507D01*
X42319Y-30507D01*
G37*
G54D20*
X42319Y-30507D02*
X41079Y-31748D01*
X41035Y-31813D01*
X41020Y-31889D01*
X41020Y-32244D01*
X41029Y-32291D01*
X41028Y-32289D01*
X40986Y-32246D01*
X40861Y-32121D01*
X40819Y-32104D01*
X40802Y-32062D01*
X40760Y-32020D01*
X40635Y-31895D01*
X40593Y-31878D01*
X40576Y-31836D01*
X40534Y-31794D01*
X40424Y-31684D01*
X40498Y-31653D01*
X40590Y-31562D01*
X40639Y-31442D01*
X40639Y-31335D01*
X41834Y-30141D01*
X41834Y-30141D01*
X41863Y-30098D01*
X41877Y-30076D01*
X41877Y-30076D01*
X41879Y-30066D01*
X41879Y-30143D01*
X41929Y-30262D01*
X42020Y-30354D01*
X42139Y-30403D01*
X42246Y-30403D01*
X42319Y-30476D01*
X42319Y-30507D01*
G54D10*
G36*
X43670Y-31046D02*
X43583Y-31046D01*
X43315Y-30778D01*
X43260Y-30755D01*
X43200Y-30755D01*
X43145Y-30777D01*
X43103Y-30820D01*
X42977Y-30945D01*
X42962Y-30982D01*
X42926Y-30997D01*
X42883Y-31039D01*
X42758Y-31164D01*
X42741Y-31206D01*
X42699Y-31223D01*
X42657Y-31265D01*
X42603Y-31319D01*
X42515Y-31319D01*
X42423Y-31357D01*
X42401Y-31380D01*
X42401Y-31468D01*
X42777Y-31844D01*
X42786Y-31834D01*
X42857Y-31905D01*
X42847Y-31914D01*
X42853Y-31920D01*
X42790Y-31982D01*
X42785Y-31977D01*
X42775Y-31987D01*
X42704Y-31916D01*
X42714Y-31906D01*
X42338Y-31531D01*
X42250Y-31531D01*
X42228Y-31553D01*
X42190Y-31645D01*
X42190Y-31732D01*
X42086Y-31836D01*
X42071Y-31873D01*
X42035Y-31888D01*
X41992Y-31930D01*
X41928Y-31995D01*
X41889Y-31902D01*
X41798Y-31811D01*
X41679Y-31761D01*
X41631Y-31761D01*
X42661Y-30731D01*
X42661Y-30731D01*
X42690Y-30688D01*
X42704Y-30667D01*
X42704Y-30667D01*
X42719Y-30590D01*
X42719Y-30590D01*
X42719Y-30393D01*
X42719Y-30393D01*
X42704Y-30317D01*
X42704Y-30317D01*
X42690Y-30295D01*
X42661Y-30252D01*
X42661Y-30252D01*
X42529Y-30120D01*
X42529Y-30014D01*
X42500Y-29943D01*
X42524Y-29953D01*
X42540Y-29992D01*
X42582Y-30034D01*
X42708Y-30159D01*
X42747Y-30176D01*
X42764Y-30215D01*
X42806Y-30258D01*
X42931Y-30383D01*
X42970Y-30399D01*
X42986Y-30437D01*
X43028Y-30480D01*
X43153Y-30605D01*
X43208Y-30628D01*
X43268Y-30628D01*
X43323Y-30605D01*
X43365Y-30563D01*
X43481Y-30447D01*
X43658Y-30624D01*
X43658Y-30984D01*
X43670Y-31046D01*
X43670Y-31046D01*
G37*
G54D20*
X43670Y-31046D02*
X43583Y-31046D01*
X43315Y-30778D01*
X43260Y-30755D01*
X43200Y-30755D01*
X43145Y-30777D01*
X43103Y-30820D01*
X42977Y-30945D01*
X42962Y-30982D01*
X42926Y-30997D01*
X42883Y-31039D01*
X42758Y-31164D01*
X42741Y-31206D01*
X42699Y-31223D01*
X42657Y-31265D01*
X42603Y-31319D01*
X42515Y-31319D01*
X42423Y-31357D01*
X42401Y-31380D01*
X42401Y-31468D01*
X42777Y-31844D01*
X42786Y-31834D01*
X42857Y-31905D01*
X42847Y-31914D01*
X42853Y-31920D01*
X42790Y-31982D01*
X42785Y-31977D01*
X42775Y-31987D01*
X42704Y-31916D01*
X42714Y-31906D01*
X42338Y-31531D01*
X42250Y-31531D01*
X42228Y-31553D01*
X42190Y-31645D01*
X42190Y-31732D01*
X42086Y-31836D01*
X42071Y-31873D01*
X42035Y-31888D01*
X41992Y-31930D01*
X41928Y-31995D01*
X41889Y-31902D01*
X41798Y-31811D01*
X41679Y-31761D01*
X41631Y-31761D01*
X42661Y-30731D01*
X42661Y-30731D01*
X42690Y-30688D01*
X42704Y-30667D01*
X42704Y-30667D01*
X42719Y-30590D01*
X42719Y-30590D01*
X42719Y-30393D01*
X42719Y-30393D01*
X42704Y-30317D01*
X42704Y-30317D01*
X42690Y-30295D01*
X42661Y-30252D01*
X42661Y-30252D01*
X42529Y-30120D01*
X42529Y-30014D01*
X42500Y-29943D01*
X42524Y-29953D01*
X42540Y-29992D01*
X42582Y-30034D01*
X42708Y-30159D01*
X42747Y-30176D01*
X42764Y-30215D01*
X42806Y-30258D01*
X42931Y-30383D01*
X42970Y-30399D01*
X42986Y-30437D01*
X43028Y-30480D01*
X43153Y-30605D01*
X43208Y-30628D01*
X43268Y-30628D01*
X43323Y-30605D01*
X43365Y-30563D01*
X43481Y-30447D01*
X43658Y-30624D01*
X43658Y-30984D01*
X43670Y-31046D01*
G54D10*
G36*
X48690Y-31696D02*
X48656Y-31729D01*
X48641Y-31764D01*
X48507Y-31764D01*
X48473Y-31771D01*
X48450Y-31761D01*
X48321Y-31761D01*
X48201Y-31810D01*
X48110Y-31902D01*
X48060Y-32021D01*
X48060Y-32150D01*
X48110Y-32270D01*
X48201Y-32361D01*
X48201Y-32362D01*
X48126Y-32437D01*
X48114Y-32437D01*
X48002Y-32325D01*
X48002Y-32219D01*
X47952Y-32099D01*
X47861Y-32008D01*
X47742Y-31958D01*
X47612Y-31958D01*
X47493Y-32007D01*
X47401Y-32099D01*
X47352Y-32218D01*
X47352Y-32314D01*
X47348Y-32312D01*
X47219Y-32312D01*
X47099Y-32362D01*
X47008Y-32453D01*
X46958Y-32572D01*
X46958Y-32667D01*
X46904Y-32667D01*
X46784Y-32716D01*
X46740Y-32760D01*
X46721Y-32714D01*
X46742Y-32663D01*
X46742Y-32265D01*
X46721Y-32214D01*
X46742Y-32163D01*
X46742Y-32077D01*
X46679Y-32014D01*
X46187Y-32014D01*
X46187Y-32127D01*
X46187Y-32301D01*
X46187Y-32414D01*
X46679Y-32414D01*
X46742Y-32352D01*
X46742Y-32265D01*
X46742Y-32663D01*
X46742Y-32577D01*
X46679Y-32514D01*
X46187Y-32514D01*
X46187Y-32627D01*
X46187Y-32801D01*
X46187Y-32914D01*
X46195Y-32914D01*
X46195Y-33014D01*
X46187Y-33014D01*
X46187Y-33127D01*
X46187Y-33301D01*
X46187Y-33414D01*
X46679Y-33414D01*
X46742Y-33352D01*
X46742Y-33265D01*
X46721Y-33214D01*
X46724Y-33207D01*
X46784Y-33267D01*
X46903Y-33317D01*
X47010Y-33317D01*
X47535Y-33842D01*
X47535Y-33842D01*
X47555Y-33855D01*
X46563Y-33855D01*
X46633Y-33825D01*
X46704Y-33755D01*
X46742Y-33663D01*
X46742Y-33577D01*
X46679Y-33514D01*
X46187Y-33514D01*
X46187Y-33522D01*
X46087Y-33522D01*
X46087Y-33514D01*
X46087Y-33414D01*
X46087Y-33301D01*
X46087Y-33127D01*
X46087Y-33014D01*
X46087Y-32914D01*
X46087Y-32801D01*
X46087Y-32627D01*
X46087Y-32514D01*
X46087Y-32414D01*
X46087Y-32301D01*
X46087Y-32127D01*
X46087Y-32014D01*
X45595Y-32014D01*
X45533Y-32077D01*
X45533Y-32163D01*
X45554Y-32214D01*
X45533Y-32265D01*
X45533Y-32352D01*
X45595Y-32414D01*
X46087Y-32414D01*
X46087Y-32514D01*
X45595Y-32514D01*
X45533Y-32577D01*
X45533Y-32663D01*
X45554Y-32714D01*
X45533Y-32765D01*
X45533Y-32852D01*
X45595Y-32914D01*
X46087Y-32914D01*
X46087Y-33014D01*
X45595Y-33014D01*
X45533Y-33077D01*
X45533Y-33163D01*
X45554Y-33214D01*
X45533Y-33265D01*
X45533Y-33352D01*
X45595Y-33414D01*
X46087Y-33414D01*
X46087Y-33514D01*
X45595Y-33514D01*
X45533Y-33577D01*
X45533Y-33663D01*
X45571Y-33755D01*
X45641Y-33825D01*
X45711Y-33855D01*
X45279Y-33855D01*
X45081Y-33657D01*
X45081Y-32007D01*
X45069Y-31944D01*
X45066Y-31931D01*
X45066Y-31931D01*
X45023Y-31866D01*
X44852Y-31696D01*
X45562Y-31696D01*
X45533Y-31765D01*
X45533Y-31852D01*
X45595Y-31914D01*
X46087Y-31914D01*
X46087Y-31906D01*
X46187Y-31906D01*
X46187Y-31914D01*
X46679Y-31914D01*
X46742Y-31852D01*
X46742Y-31765D01*
X46713Y-31696D01*
X48690Y-31696D01*
X48690Y-31696D01*
G37*
G54D20*
X48690Y-31696D02*
X48656Y-31729D01*
X48641Y-31764D01*
X48507Y-31764D01*
X48473Y-31771D01*
X48450Y-31761D01*
X48321Y-31761D01*
X48201Y-31810D01*
X48110Y-31902D01*
X48060Y-32021D01*
X48060Y-32150D01*
X48110Y-32270D01*
X48201Y-32361D01*
X48201Y-32362D01*
X48126Y-32437D01*
X48114Y-32437D01*
X48002Y-32325D01*
X48002Y-32219D01*
X47952Y-32099D01*
X47861Y-32008D01*
X47742Y-31958D01*
X47612Y-31958D01*
X47493Y-32007D01*
X47401Y-32099D01*
X47352Y-32218D01*
X47352Y-32314D01*
X47348Y-32312D01*
X47219Y-32312D01*
X47099Y-32362D01*
X47008Y-32453D01*
X46958Y-32572D01*
X46958Y-32667D01*
X46904Y-32667D01*
X46784Y-32716D01*
X46740Y-32760D01*
X46721Y-32714D01*
X46742Y-32663D01*
X46742Y-32265D01*
X46721Y-32214D01*
X46742Y-32163D01*
X46742Y-32077D01*
X46679Y-32014D01*
X46187Y-32014D01*
X46187Y-32127D01*
X46187Y-32301D01*
X46187Y-32414D01*
X46679Y-32414D01*
X46742Y-32352D01*
X46742Y-32265D01*
X46742Y-32663D01*
X46742Y-32577D01*
X46679Y-32514D01*
X46187Y-32514D01*
X46187Y-32627D01*
X46187Y-32801D01*
X46187Y-32914D01*
X46195Y-32914D01*
X46195Y-33014D01*
X46187Y-33014D01*
X46187Y-33127D01*
X46187Y-33301D01*
X46187Y-33414D01*
X46679Y-33414D01*
X46742Y-33352D01*
X46742Y-33265D01*
X46721Y-33214D01*
X46724Y-33207D01*
X46784Y-33267D01*
X46903Y-33317D01*
X47010Y-33317D01*
X47535Y-33842D01*
X47535Y-33842D01*
X47555Y-33855D01*
X46563Y-33855D01*
X46633Y-33825D01*
X46704Y-33755D01*
X46742Y-33663D01*
X46742Y-33577D01*
X46679Y-33514D01*
X46187Y-33514D01*
X46187Y-33522D01*
X46087Y-33522D01*
X46087Y-33514D01*
X46087Y-33414D01*
X46087Y-33301D01*
X46087Y-33127D01*
X46087Y-33014D01*
X46087Y-32914D01*
X46087Y-32801D01*
X46087Y-32627D01*
X46087Y-32514D01*
X46087Y-32414D01*
X46087Y-32301D01*
X46087Y-32127D01*
X46087Y-32014D01*
X45595Y-32014D01*
X45533Y-32077D01*
X45533Y-32163D01*
X45554Y-32214D01*
X45533Y-32265D01*
X45533Y-32352D01*
X45595Y-32414D01*
X46087Y-32414D01*
X46087Y-32514D01*
X45595Y-32514D01*
X45533Y-32577D01*
X45533Y-32663D01*
X45554Y-32714D01*
X45533Y-32765D01*
X45533Y-32852D01*
X45595Y-32914D01*
X46087Y-32914D01*
X46087Y-33014D01*
X45595Y-33014D01*
X45533Y-33077D01*
X45533Y-33163D01*
X45554Y-33214D01*
X45533Y-33265D01*
X45533Y-33352D01*
X45595Y-33414D01*
X46087Y-33414D01*
X46087Y-33514D01*
X45595Y-33514D01*
X45533Y-33577D01*
X45533Y-33663D01*
X45571Y-33755D01*
X45641Y-33825D01*
X45711Y-33855D01*
X45279Y-33855D01*
X45081Y-33657D01*
X45081Y-32007D01*
X45069Y-31944D01*
X45066Y-31931D01*
X45066Y-31931D01*
X45023Y-31866D01*
X44852Y-31696D01*
X45562Y-31696D01*
X45533Y-31765D01*
X45533Y-31852D01*
X45595Y-31914D01*
X46087Y-31914D01*
X46087Y-31906D01*
X46187Y-31906D01*
X46187Y-31914D01*
X46679Y-31914D01*
X46742Y-31852D01*
X46742Y-31765D01*
X46713Y-31696D01*
X48690Y-31696D01*
G54D10*
G36*
X49202Y-37555D02*
X47709Y-37555D01*
X47709Y-37549D01*
X47686Y-37493D01*
X47653Y-37460D01*
X47686Y-37427D01*
X47709Y-37372D01*
X47709Y-37312D01*
X47709Y-36958D01*
X47686Y-36903D01*
X47653Y-36870D01*
X47686Y-36837D01*
X47709Y-36781D01*
X47709Y-36722D01*
X47709Y-36367D01*
X47686Y-36312D01*
X47653Y-36279D01*
X47686Y-36246D01*
X47709Y-36191D01*
X47709Y-36131D01*
X47709Y-35777D01*
X47708Y-35775D01*
X47770Y-35712D01*
X47809Y-35620D01*
X47809Y-35521D01*
X47809Y-35506D01*
X47746Y-35443D01*
X47215Y-35443D01*
X47215Y-35451D01*
X47115Y-35451D01*
X47115Y-35443D01*
X47107Y-35443D01*
X47107Y-35343D01*
X47115Y-35343D01*
X47115Y-35335D01*
X47215Y-35335D01*
X47215Y-35343D01*
X47746Y-35343D01*
X47809Y-35281D01*
X47809Y-35266D01*
X47809Y-35200D01*
X47869Y-35200D01*
X48612Y-35942D01*
X48611Y-36048D01*
X48661Y-36168D01*
X48752Y-36259D01*
X48872Y-36309D01*
X49001Y-36309D01*
X49120Y-36259D01*
X49130Y-36250D01*
X49130Y-37401D01*
X49145Y-37478D01*
X49189Y-37542D01*
X49202Y-37555D01*
X49202Y-37555D01*
G37*
G54D20*
X49202Y-37555D02*
X47709Y-37555D01*
X47709Y-37549D01*
X47686Y-37493D01*
X47653Y-37460D01*
X47686Y-37427D01*
X47709Y-37372D01*
X47709Y-37312D01*
X47709Y-36958D01*
X47686Y-36903D01*
X47653Y-36870D01*
X47686Y-36837D01*
X47709Y-36781D01*
X47709Y-36722D01*
X47709Y-36367D01*
X47686Y-36312D01*
X47653Y-36279D01*
X47686Y-36246D01*
X47709Y-36191D01*
X47709Y-36131D01*
X47709Y-35777D01*
X47708Y-35775D01*
X47770Y-35712D01*
X47809Y-35620D01*
X47809Y-35521D01*
X47809Y-35506D01*
X47746Y-35443D01*
X47215Y-35443D01*
X47215Y-35451D01*
X47115Y-35451D01*
X47115Y-35443D01*
X47107Y-35443D01*
X47107Y-35343D01*
X47115Y-35343D01*
X47115Y-35335D01*
X47215Y-35335D01*
X47215Y-35343D01*
X47746Y-35343D01*
X47809Y-35281D01*
X47809Y-35266D01*
X47809Y-35200D01*
X47869Y-35200D01*
X48612Y-35942D01*
X48611Y-36048D01*
X48661Y-36168D01*
X48752Y-36259D01*
X48872Y-36309D01*
X49001Y-36309D01*
X49120Y-36259D01*
X49130Y-36250D01*
X49130Y-37401D01*
X49145Y-37478D01*
X49189Y-37542D01*
X49202Y-37555D01*
G54D10*
G36*
X49693Y-38834D02*
X49631Y-38808D01*
X49502Y-38808D01*
X49383Y-38858D01*
X49291Y-38949D01*
X49241Y-39068D01*
X49241Y-39198D01*
X49291Y-39317D01*
X49316Y-39343D01*
X49316Y-39424D01*
X49114Y-39626D01*
X49114Y-39626D01*
X48675Y-40064D01*
X48503Y-40064D01*
X48503Y-40064D01*
X48484Y-40068D01*
X48408Y-40083D01*
X48373Y-40106D01*
X48208Y-39941D01*
X48127Y-39887D01*
X48031Y-39868D01*
X47691Y-39868D01*
X47686Y-39856D01*
X47653Y-39822D01*
X47686Y-39789D01*
X47709Y-39734D01*
X47709Y-39675D01*
X47709Y-39320D01*
X47686Y-39265D01*
X47653Y-39232D01*
X47686Y-39199D01*
X47709Y-39144D01*
X47709Y-39084D01*
X47709Y-38730D01*
X47686Y-38674D01*
X47653Y-38641D01*
X47686Y-38608D01*
X47709Y-38553D01*
X47709Y-38546D01*
X49405Y-38546D01*
X49693Y-38834D01*
X49693Y-38834D01*
G37*
G54D20*
X49693Y-38834D02*
X49631Y-38808D01*
X49502Y-38808D01*
X49383Y-38858D01*
X49291Y-38949D01*
X49241Y-39068D01*
X49241Y-39198D01*
X49291Y-39317D01*
X49316Y-39343D01*
X49316Y-39424D01*
X49114Y-39626D01*
X49114Y-39626D01*
X48675Y-40064D01*
X48503Y-40064D01*
X48503Y-40064D01*
X48484Y-40068D01*
X48408Y-40083D01*
X48373Y-40106D01*
X48208Y-39941D01*
X48127Y-39887D01*
X48031Y-39868D01*
X47691Y-39868D01*
X47686Y-39856D01*
X47653Y-39822D01*
X47686Y-39789D01*
X47709Y-39734D01*
X47709Y-39675D01*
X47709Y-39320D01*
X47686Y-39265D01*
X47653Y-39232D01*
X47686Y-39199D01*
X47709Y-39144D01*
X47709Y-39084D01*
X47709Y-38730D01*
X47686Y-38674D01*
X47653Y-38641D01*
X47686Y-38608D01*
X47709Y-38553D01*
X47709Y-38546D01*
X49405Y-38546D01*
X49693Y-38834D01*
G54D10*
G36*
X51761Y-42742D02*
X51755Y-42743D01*
X51554Y-42743D01*
X51554Y-25081D01*
X51543Y-24863D01*
X51481Y-24712D01*
X51385Y-24684D01*
X51070Y-25000D01*
X51385Y-25315D01*
X51481Y-25287D01*
X51554Y-25081D01*
X51554Y-42743D01*
X51450Y-42743D01*
X51450Y-40910D01*
X51450Y-39910D01*
X51381Y-39745D01*
X51255Y-39618D01*
X51089Y-39550D01*
X50910Y-39549D01*
X50745Y-39618D01*
X50638Y-39725D01*
X50514Y-39602D01*
X50514Y-39173D01*
X50514Y-39169D01*
X50516Y-39170D01*
X50537Y-39184D01*
X50537Y-39184D01*
X50594Y-39196D01*
X50618Y-39254D01*
X50744Y-39381D01*
X50910Y-39449D01*
X51089Y-39450D01*
X51254Y-39381D01*
X51381Y-39255D01*
X51449Y-39089D01*
X51450Y-38910D01*
X51450Y-36910D01*
X51450Y-35910D01*
X51381Y-35745D01*
X51255Y-35618D01*
X51089Y-35550D01*
X50910Y-35549D01*
X50745Y-35618D01*
X50618Y-35744D01*
X50550Y-35910D01*
X50549Y-36089D01*
X50618Y-36254D01*
X50744Y-36381D01*
X50910Y-36449D01*
X51089Y-36450D01*
X51254Y-36381D01*
X51381Y-36255D01*
X51449Y-36089D01*
X51450Y-35910D01*
X51450Y-36910D01*
X51381Y-36745D01*
X51255Y-36618D01*
X51089Y-36550D01*
X50910Y-36549D01*
X50745Y-36618D01*
X50618Y-36744D01*
X50550Y-36910D01*
X50549Y-37089D01*
X50618Y-37254D01*
X50744Y-37381D01*
X50910Y-37449D01*
X51089Y-37450D01*
X51254Y-37381D01*
X51381Y-37255D01*
X51449Y-37089D01*
X51450Y-36910D01*
X51450Y-38910D01*
X51381Y-38745D01*
X51255Y-38618D01*
X51089Y-38550D01*
X50910Y-38549D01*
X50745Y-38618D01*
X50630Y-38733D01*
X50097Y-38200D01*
X50549Y-38200D01*
X50549Y-38329D01*
X50572Y-38384D01*
X50614Y-38427D01*
X50670Y-38449D01*
X50729Y-38450D01*
X51329Y-38450D01*
X51384Y-38427D01*
X51427Y-38385D01*
X51449Y-38329D01*
X51450Y-38270D01*
X51450Y-37670D01*
X51427Y-37615D01*
X51385Y-37572D01*
X51329Y-37550D01*
X51270Y-37549D01*
X50670Y-37549D01*
X50615Y-37572D01*
X50572Y-37614D01*
X50550Y-37670D01*
X50549Y-37729D01*
X50549Y-37800D01*
X50011Y-37800D01*
X49530Y-37318D01*
X49530Y-35748D01*
X49530Y-35748D01*
X49515Y-35671D01*
X49515Y-35671D01*
X49501Y-35649D01*
X49472Y-35606D01*
X49472Y-35606D01*
X49065Y-35200D01*
X50595Y-35200D01*
X50618Y-35254D01*
X50744Y-35381D01*
X50910Y-35449D01*
X51089Y-35450D01*
X51254Y-35381D01*
X51381Y-35255D01*
X51449Y-35089D01*
X51450Y-34910D01*
X51381Y-34745D01*
X51255Y-34618D01*
X51089Y-34550D01*
X50910Y-34549D01*
X50745Y-34618D01*
X50618Y-34744D01*
X50595Y-34800D01*
X48980Y-34800D01*
X48671Y-34491D01*
X50118Y-34491D01*
X50194Y-34476D01*
X50259Y-34432D01*
X50492Y-34200D01*
X50595Y-34200D01*
X50618Y-34254D01*
X50744Y-34381D01*
X50910Y-34449D01*
X51089Y-34450D01*
X51254Y-34381D01*
X51381Y-34255D01*
X51449Y-34089D01*
X51450Y-33910D01*
X51381Y-33745D01*
X51255Y-33618D01*
X51089Y-33550D01*
X50910Y-33549D01*
X50745Y-33618D01*
X50618Y-33744D01*
X50595Y-33800D01*
X50537Y-33800D01*
X50613Y-33724D01*
X50657Y-33659D01*
X50657Y-33659D01*
X50659Y-33646D01*
X50672Y-33582D01*
X50672Y-33582D01*
X50672Y-33308D01*
X50744Y-33381D01*
X50910Y-33449D01*
X51089Y-33450D01*
X51254Y-33381D01*
X51381Y-33255D01*
X51449Y-33089D01*
X51450Y-32910D01*
X51381Y-32745D01*
X51255Y-32618D01*
X51089Y-32550D01*
X50910Y-32549D01*
X50745Y-32618D01*
X50618Y-32744D01*
X50595Y-32800D01*
X50582Y-32800D01*
X50506Y-32815D01*
X50484Y-32829D01*
X50441Y-32858D01*
X50331Y-32968D01*
X50287Y-33033D01*
X50272Y-33110D01*
X50272Y-33499D01*
X49917Y-33855D01*
X48673Y-33855D01*
X48710Y-33765D01*
X48710Y-33746D01*
X48753Y-33764D01*
X48813Y-33764D01*
X49521Y-33764D01*
X49576Y-33741D01*
X49619Y-33699D01*
X49642Y-33644D01*
X49642Y-33584D01*
X49642Y-33285D01*
X49619Y-33230D01*
X49603Y-33214D01*
X49619Y-33199D01*
X49642Y-33144D01*
X49642Y-33084D01*
X49642Y-32785D01*
X49619Y-32730D01*
X49603Y-32714D01*
X49619Y-32699D01*
X49642Y-32644D01*
X49642Y-32584D01*
X49642Y-32285D01*
X49619Y-32230D01*
X49603Y-32214D01*
X49619Y-32199D01*
X49642Y-32144D01*
X49642Y-32084D01*
X49642Y-31785D01*
X49619Y-31730D01*
X49585Y-31696D01*
X49680Y-31696D01*
X50126Y-32141D01*
X50191Y-32184D01*
X50191Y-32184D01*
X50203Y-32187D01*
X50267Y-32200D01*
X50595Y-32200D01*
X50618Y-32254D01*
X50744Y-32381D01*
X50910Y-32449D01*
X51089Y-32450D01*
X51254Y-32381D01*
X51381Y-32255D01*
X51449Y-32089D01*
X51450Y-31910D01*
X51381Y-31745D01*
X51255Y-31618D01*
X51089Y-31550D01*
X50910Y-31549D01*
X50745Y-31618D01*
X50618Y-31744D01*
X50595Y-31800D01*
X50350Y-31800D01*
X49928Y-31377D01*
X50106Y-31200D01*
X50595Y-31200D01*
X50618Y-31254D01*
X50744Y-31381D01*
X50910Y-31449D01*
X51089Y-31450D01*
X51254Y-31381D01*
X51381Y-31255D01*
X51449Y-31089D01*
X51450Y-30910D01*
X51381Y-30745D01*
X51255Y-30618D01*
X51089Y-30550D01*
X50910Y-30549D01*
X50745Y-30618D01*
X50618Y-30744D01*
X50595Y-30800D01*
X50118Y-30800D01*
X50121Y-30787D01*
X50121Y-30279D01*
X50200Y-30200D01*
X50595Y-30200D01*
X50618Y-30254D01*
X50744Y-30381D01*
X50910Y-30449D01*
X51089Y-30450D01*
X51254Y-30381D01*
X51381Y-30255D01*
X51449Y-30089D01*
X51450Y-29910D01*
X51450Y-28910D01*
X51450Y-27910D01*
X51381Y-27745D01*
X51255Y-27618D01*
X51089Y-27550D01*
X50910Y-27549D01*
X50745Y-27618D01*
X50618Y-27744D01*
X50550Y-27910D01*
X50549Y-28089D01*
X50618Y-28254D01*
X50744Y-28381D01*
X50910Y-28449D01*
X51089Y-28450D01*
X51254Y-28381D01*
X51381Y-28255D01*
X51449Y-28089D01*
X51450Y-27910D01*
X51450Y-28910D01*
X51381Y-28745D01*
X51255Y-28618D01*
X51089Y-28550D01*
X50910Y-28549D01*
X50745Y-28618D01*
X50618Y-28744D01*
X50550Y-28910D01*
X50549Y-29089D01*
X50618Y-29254D01*
X50744Y-29381D01*
X50910Y-29449D01*
X51089Y-29450D01*
X51254Y-29381D01*
X51381Y-29255D01*
X51449Y-29089D01*
X51450Y-28910D01*
X51450Y-29910D01*
X51381Y-29745D01*
X51255Y-29618D01*
X51089Y-29550D01*
X50910Y-29549D01*
X50745Y-29618D01*
X50618Y-29744D01*
X50595Y-29800D01*
X50305Y-29800D01*
X50393Y-29711D01*
X50443Y-29592D01*
X50443Y-29463D01*
X50393Y-29343D01*
X50368Y-29317D01*
X50368Y-27505D01*
X50618Y-27254D01*
X50744Y-27381D01*
X50910Y-27449D01*
X51089Y-27450D01*
X51254Y-27381D01*
X51381Y-27255D01*
X51449Y-27089D01*
X51450Y-26910D01*
X51450Y-25910D01*
X51381Y-25745D01*
X51255Y-25618D01*
X51089Y-25550D01*
X51013Y-25550D01*
X51136Y-25543D01*
X51287Y-25481D01*
X51315Y-25385D01*
X51000Y-25070D01*
X50929Y-25141D01*
X50929Y-25000D01*
X50614Y-24684D01*
X50518Y-24712D01*
X50445Y-24918D01*
X50456Y-25136D01*
X50518Y-25287D01*
X50614Y-25315D01*
X50929Y-25000D01*
X50929Y-25141D01*
X50684Y-25385D01*
X50712Y-25481D01*
X50907Y-25551D01*
X50745Y-25618D01*
X50618Y-25744D01*
X50550Y-25910D01*
X50549Y-26089D01*
X50618Y-26254D01*
X50744Y-26381D01*
X50910Y-26449D01*
X51089Y-26450D01*
X51254Y-26381D01*
X51381Y-26255D01*
X51449Y-26089D01*
X51450Y-25910D01*
X51450Y-26910D01*
X51381Y-26745D01*
X51255Y-26618D01*
X51089Y-26550D01*
X50910Y-26549D01*
X50745Y-26618D01*
X50618Y-26744D01*
X50618Y-26745D01*
X50368Y-26494D01*
X50368Y-24631D01*
X50681Y-24317D01*
X50744Y-24381D01*
X50910Y-24449D01*
X50986Y-24449D01*
X50863Y-24456D01*
X50712Y-24518D01*
X50684Y-24614D01*
X51000Y-24929D01*
X51315Y-24614D01*
X51287Y-24518D01*
X51092Y-24448D01*
X51254Y-24381D01*
X51381Y-24255D01*
X51449Y-24089D01*
X51450Y-23910D01*
X51381Y-23745D01*
X51255Y-23618D01*
X51089Y-23550D01*
X50910Y-23549D01*
X50745Y-23618D01*
X50618Y-23744D01*
X50608Y-23770D01*
X50534Y-23784D01*
X50453Y-23838D01*
X50453Y-23838D01*
X49941Y-24350D01*
X49887Y-24431D01*
X49868Y-24527D01*
X49868Y-26598D01*
X49887Y-26694D01*
X49941Y-26775D01*
X50166Y-26999D01*
X50118Y-27048D01*
X49861Y-26791D01*
X49780Y-26737D01*
X49687Y-26719D01*
X49687Y-24419D01*
X49687Y-23926D01*
X49649Y-23834D01*
X49579Y-23764D01*
X49487Y-23726D01*
X49388Y-23726D01*
X49325Y-23726D01*
X49262Y-23788D01*
X49262Y-24123D01*
X49625Y-24123D01*
X49687Y-24060D01*
X49687Y-23926D01*
X49687Y-24419D01*
X49687Y-24285D01*
X49625Y-24223D01*
X49262Y-24223D01*
X49262Y-24557D01*
X49325Y-24620D01*
X49388Y-24620D01*
X49487Y-24620D01*
X49579Y-24581D01*
X49649Y-24511D01*
X49687Y-24419D01*
X49687Y-26719D01*
X49685Y-26718D01*
X49587Y-26718D01*
X49587Y-26308D01*
X49587Y-25915D01*
X49564Y-25860D01*
X49522Y-25817D01*
X49467Y-25794D01*
X49412Y-25794D01*
X49412Y-25346D01*
X49467Y-25346D01*
X49522Y-25324D01*
X49564Y-25281D01*
X49587Y-25226D01*
X49587Y-25167D01*
X49587Y-24773D01*
X49564Y-24718D01*
X49522Y-24676D01*
X49467Y-24653D01*
X49407Y-24653D01*
X49162Y-24653D01*
X49162Y-24557D01*
X49162Y-24223D01*
X49162Y-24123D01*
X49162Y-23788D01*
X49100Y-23726D01*
X49037Y-23726D01*
X48937Y-23726D01*
X48845Y-23764D01*
X48775Y-23834D01*
X48737Y-23926D01*
X48737Y-24060D01*
X48800Y-24123D01*
X49162Y-24123D01*
X49162Y-24223D01*
X48800Y-24223D01*
X48737Y-24285D01*
X48737Y-24419D01*
X48775Y-24511D01*
X48845Y-24581D01*
X48937Y-24620D01*
X49037Y-24620D01*
X49100Y-24620D01*
X49162Y-24557D01*
X49162Y-24653D01*
X48957Y-24653D01*
X48902Y-24675D01*
X48860Y-24718D01*
X48837Y-24773D01*
X48837Y-24832D01*
X48837Y-25226D01*
X48860Y-25281D01*
X48902Y-25323D01*
X48957Y-25346D01*
X49012Y-25346D01*
X49012Y-25794D01*
X48957Y-25794D01*
X48902Y-25817D01*
X48860Y-25859D01*
X48837Y-25914D01*
X48837Y-25974D01*
X48837Y-26368D01*
X48860Y-26423D01*
X48902Y-26465D01*
X48957Y-26488D01*
X49017Y-26488D01*
X49467Y-26488D01*
X49522Y-26465D01*
X49564Y-26423D01*
X49587Y-26368D01*
X49587Y-26308D01*
X49587Y-26718D01*
X49577Y-26718D01*
X49564Y-26686D01*
X49522Y-26644D01*
X49467Y-26621D01*
X49407Y-26621D01*
X48957Y-26621D01*
X48902Y-26644D01*
X48860Y-26686D01*
X48847Y-26718D01*
X48260Y-26718D01*
X48260Y-26190D01*
X48237Y-26135D01*
X48195Y-26093D01*
X48140Y-26070D01*
X48124Y-26070D01*
X48124Y-25189D01*
X48139Y-25189D01*
X48195Y-25166D01*
X48237Y-25124D01*
X48260Y-25069D01*
X48260Y-25009D01*
X48260Y-23907D01*
X48237Y-23852D01*
X48195Y-23809D01*
X48140Y-23787D01*
X48080Y-23786D01*
X47608Y-23786D01*
X47552Y-23809D01*
X47510Y-23851D01*
X47487Y-23907D01*
X47487Y-23966D01*
X47487Y-25069D01*
X47510Y-25124D01*
X47552Y-25166D01*
X47607Y-25189D01*
X47624Y-25189D01*
X47624Y-26070D01*
X47608Y-26070D01*
X47552Y-26093D01*
X47510Y-26135D01*
X47487Y-26190D01*
X47487Y-26250D01*
X47487Y-27352D01*
X47510Y-27407D01*
X47552Y-27449D01*
X47607Y-27472D01*
X47667Y-27472D01*
X48139Y-27472D01*
X48195Y-27450D01*
X48237Y-27407D01*
X48260Y-27352D01*
X48260Y-27293D01*
X48260Y-27218D01*
X48847Y-27218D01*
X48860Y-27250D01*
X48902Y-27292D01*
X48957Y-27315D01*
X49017Y-27315D01*
X49467Y-27315D01*
X49522Y-27292D01*
X49564Y-27250D01*
X49577Y-27218D01*
X49581Y-27218D01*
X49868Y-27505D01*
X49868Y-29317D01*
X49842Y-29343D01*
X49793Y-29462D01*
X49793Y-29591D01*
X49842Y-29711D01*
X49933Y-29802D01*
X50011Y-29835D01*
X49976Y-29858D01*
X49779Y-30055D01*
X49757Y-30088D01*
X49757Y-28789D01*
X49757Y-28218D01*
X49719Y-28126D01*
X49649Y-28055D01*
X49557Y-28017D01*
X49458Y-28017D01*
X49482Y-28017D01*
X49420Y-28080D01*
X49420Y-28453D01*
X49695Y-28453D01*
X49757Y-28391D01*
X49757Y-28218D01*
X49757Y-28789D01*
X49757Y-28616D01*
X49695Y-28553D01*
X49420Y-28553D01*
X49420Y-28927D01*
X49482Y-28990D01*
X49458Y-28990D01*
X49557Y-28990D01*
X49649Y-28951D01*
X49719Y-28881D01*
X49757Y-28789D01*
X49757Y-30088D01*
X49736Y-30120D01*
X49723Y-30183D01*
X49719Y-30173D01*
X49649Y-30103D01*
X49557Y-30065D01*
X49458Y-30064D01*
X49482Y-30064D01*
X49420Y-30127D01*
X49420Y-30501D01*
X49427Y-30501D01*
X49427Y-30601D01*
X49420Y-30601D01*
X49420Y-30609D01*
X49320Y-30609D01*
X49320Y-30601D01*
X49320Y-30501D01*
X49320Y-30127D01*
X49320Y-28927D01*
X49320Y-28553D01*
X49320Y-28453D01*
X49320Y-28080D01*
X49257Y-28017D01*
X49281Y-28017D01*
X49182Y-28017D01*
X49090Y-28055D01*
X49020Y-28126D01*
X48982Y-28218D01*
X48982Y-28391D01*
X49044Y-28453D01*
X49320Y-28453D01*
X49320Y-28553D01*
X49044Y-28553D01*
X48982Y-28616D01*
X48982Y-28789D01*
X49020Y-28881D01*
X49090Y-28951D01*
X49182Y-28990D01*
X49281Y-28990D01*
X49257Y-28990D01*
X49320Y-28927D01*
X49320Y-30127D01*
X49257Y-30064D01*
X49281Y-30064D01*
X49182Y-30065D01*
X49090Y-30103D01*
X49020Y-30173D01*
X48982Y-30265D01*
X48982Y-30438D01*
X49044Y-30501D01*
X49320Y-30501D01*
X49320Y-30601D01*
X49044Y-30601D01*
X48982Y-30663D01*
X48982Y-30823D01*
X48552Y-30823D01*
X48555Y-30817D01*
X48555Y-30757D01*
X48555Y-30285D01*
X48532Y-30230D01*
X48490Y-30187D01*
X48467Y-30178D01*
X48467Y-28876D01*
X48490Y-28867D01*
X48532Y-28825D01*
X48555Y-28770D01*
X48555Y-28710D01*
X48555Y-28238D01*
X48532Y-28182D01*
X48490Y-28140D01*
X48463Y-28129D01*
X48452Y-28073D01*
X48452Y-28073D01*
X48409Y-28008D01*
X48356Y-27955D01*
X48356Y-27849D01*
X48307Y-27729D01*
X48215Y-27638D01*
X48096Y-27588D01*
X47967Y-27588D01*
X47847Y-27637D01*
X47756Y-27729D01*
X47715Y-27826D01*
X47265Y-27376D01*
X47275Y-27352D01*
X47276Y-27293D01*
X47276Y-26190D01*
X47253Y-26135D01*
X47211Y-26093D01*
X47155Y-26070D01*
X47096Y-26070D01*
X47089Y-26070D01*
X47089Y-25189D01*
X47155Y-25189D01*
X47210Y-25166D01*
X47253Y-25124D01*
X47275Y-25069D01*
X47276Y-25009D01*
X47276Y-23907D01*
X47253Y-23852D01*
X47211Y-23809D01*
X47155Y-23787D01*
X47096Y-23786D01*
X46623Y-23786D01*
X46568Y-23809D01*
X46526Y-23851D01*
X46503Y-23907D01*
X46503Y-23966D01*
X46503Y-25069D01*
X46526Y-25124D01*
X46568Y-25166D01*
X46623Y-25189D01*
X46683Y-25189D01*
X46689Y-25189D01*
X46689Y-26070D01*
X46623Y-26070D01*
X46568Y-26093D01*
X46526Y-26135D01*
X46503Y-26190D01*
X46503Y-26250D01*
X46503Y-27352D01*
X46526Y-27407D01*
X46568Y-27449D01*
X46623Y-27472D01*
X46683Y-27472D01*
X46796Y-27472D01*
X47516Y-28193D01*
X47516Y-30016D01*
X47441Y-30091D01*
X47391Y-30210D01*
X47391Y-30339D01*
X47440Y-30459D01*
X47532Y-30550D01*
X47651Y-30600D01*
X47780Y-30600D01*
X47900Y-30551D01*
X47979Y-30471D01*
X47979Y-30817D01*
X47982Y-30823D01*
X47293Y-30823D01*
X47295Y-30817D01*
X47295Y-30757D01*
X47295Y-30285D01*
X47272Y-30230D01*
X47230Y-30187D01*
X47207Y-30178D01*
X47207Y-28876D01*
X47230Y-28867D01*
X47272Y-28825D01*
X47295Y-28770D01*
X47295Y-28710D01*
X47295Y-28238D01*
X47272Y-28182D01*
X47230Y-28140D01*
X47175Y-28117D01*
X47115Y-28117D01*
X46840Y-28117D01*
X46785Y-28140D01*
X46742Y-28182D01*
X46741Y-28185D01*
X46716Y-28185D01*
X46641Y-28110D01*
X46521Y-28060D01*
X46392Y-28060D01*
X46391Y-28060D01*
X46391Y-27273D01*
X46391Y-26269D01*
X46391Y-24989D01*
X46391Y-23986D01*
X46391Y-23887D01*
X46353Y-23795D01*
X46283Y-23724D01*
X46191Y-23686D01*
X46018Y-23687D01*
X45955Y-23749D01*
X45955Y-24438D01*
X46329Y-24438D01*
X46391Y-24375D01*
X46391Y-23986D01*
X46391Y-24989D01*
X46391Y-24600D01*
X46329Y-24538D01*
X45955Y-24538D01*
X45955Y-25226D01*
X46018Y-25289D01*
X46191Y-25289D01*
X46283Y-25251D01*
X46353Y-25181D01*
X46391Y-25089D01*
X46391Y-24989D01*
X46391Y-26269D01*
X46391Y-26170D01*
X46353Y-26078D01*
X46283Y-26008D01*
X46191Y-25970D01*
X46018Y-25970D01*
X45955Y-26032D01*
X45955Y-26721D01*
X46329Y-26721D01*
X46391Y-26659D01*
X46391Y-26269D01*
X46391Y-27273D01*
X46391Y-26884D01*
X46329Y-26821D01*
X45955Y-26821D01*
X45955Y-27510D01*
X46018Y-27572D01*
X46191Y-27572D01*
X46283Y-27534D01*
X46353Y-27464D01*
X46391Y-27372D01*
X46391Y-27273D01*
X46391Y-28060D01*
X46272Y-28110D01*
X46255Y-28127D01*
X46255Y-28126D01*
X46185Y-28055D01*
X46093Y-28017D01*
X45993Y-28017D01*
X46018Y-28017D01*
X45955Y-28080D01*
X45955Y-28453D01*
X45963Y-28453D01*
X45963Y-28553D01*
X45955Y-28553D01*
X45955Y-28927D01*
X46018Y-28990D01*
X45993Y-28990D01*
X46093Y-28990D01*
X46185Y-28951D01*
X46255Y-28881D01*
X46293Y-28789D01*
X46293Y-28669D01*
X46391Y-28710D01*
X46521Y-28710D01*
X46640Y-28661D01*
X46716Y-28585D01*
X46720Y-28585D01*
X46720Y-28769D01*
X46742Y-28825D01*
X46784Y-28867D01*
X46807Y-28876D01*
X46807Y-30178D01*
X46785Y-30187D01*
X46742Y-30229D01*
X46720Y-30284D01*
X46720Y-30344D01*
X46720Y-30817D01*
X46722Y-30823D01*
X46293Y-30823D01*
X46293Y-30265D01*
X46255Y-30173D01*
X46185Y-30103D01*
X46093Y-30065D01*
X45993Y-30064D01*
X46018Y-30064D01*
X45955Y-30127D01*
X45955Y-30501D01*
X46230Y-30501D01*
X46293Y-30438D01*
X46293Y-30265D01*
X46293Y-30823D01*
X46293Y-30823D01*
X46293Y-30663D01*
X46230Y-30601D01*
X45955Y-30601D01*
X45955Y-30609D01*
X45855Y-30609D01*
X45855Y-30601D01*
X45855Y-30501D01*
X45855Y-30127D01*
X45855Y-28927D01*
X45855Y-28553D01*
X45855Y-28453D01*
X45855Y-28080D01*
X45855Y-27510D01*
X45855Y-26821D01*
X45855Y-26721D01*
X45855Y-26032D01*
X45855Y-25226D01*
X45855Y-24538D01*
X45855Y-24438D01*
X45855Y-23749D01*
X45793Y-23687D01*
X45619Y-23686D01*
X45527Y-23724D01*
X45457Y-23795D01*
X45419Y-23887D01*
X45419Y-23986D01*
X45419Y-24375D01*
X45481Y-24438D01*
X45855Y-24438D01*
X45855Y-24538D01*
X45481Y-24538D01*
X45419Y-24600D01*
X45419Y-24989D01*
X45419Y-25089D01*
X45457Y-25181D01*
X45527Y-25251D01*
X45619Y-25289D01*
X45793Y-25289D01*
X45855Y-25226D01*
X45855Y-26032D01*
X45793Y-25970D01*
X45619Y-25970D01*
X45527Y-26008D01*
X45457Y-26078D01*
X45419Y-26170D01*
X45419Y-26269D01*
X45419Y-26659D01*
X45481Y-26721D01*
X45855Y-26721D01*
X45855Y-26821D01*
X45481Y-26821D01*
X45419Y-26884D01*
X45419Y-27273D01*
X45419Y-27372D01*
X45457Y-27464D01*
X45527Y-27534D01*
X45619Y-27572D01*
X45793Y-27572D01*
X45855Y-27510D01*
X45855Y-28080D01*
X45793Y-28017D01*
X45817Y-28017D01*
X45717Y-28017D01*
X45625Y-28055D01*
X45555Y-28126D01*
X45517Y-28218D01*
X45517Y-28391D01*
X45580Y-28453D01*
X45855Y-28453D01*
X45855Y-28553D01*
X45580Y-28553D01*
X45517Y-28616D01*
X45517Y-28789D01*
X45555Y-28881D01*
X45625Y-28951D01*
X45717Y-28990D01*
X45817Y-28990D01*
X45793Y-28990D01*
X45855Y-28927D01*
X45855Y-30127D01*
X45793Y-30064D01*
X45817Y-30064D01*
X45717Y-30065D01*
X45625Y-30103D01*
X45555Y-30173D01*
X45517Y-30265D01*
X45517Y-30438D01*
X45580Y-30501D01*
X45855Y-30501D01*
X45855Y-30601D01*
X45580Y-30601D01*
X45517Y-30663D01*
X45517Y-30823D01*
X45279Y-30823D01*
X45042Y-30586D01*
X45042Y-29330D01*
X45029Y-29266D01*
X45027Y-29254D01*
X45027Y-29254D01*
X45006Y-29222D01*
X45024Y-29222D01*
X45144Y-29173D01*
X45235Y-29081D01*
X45285Y-28962D01*
X45285Y-28833D01*
X45236Y-28713D01*
X45160Y-28637D01*
X45160Y-28212D01*
X45235Y-28137D01*
X45285Y-28017D01*
X45285Y-27888D01*
X45236Y-27768D01*
X45144Y-27677D01*
X45025Y-27627D01*
X44896Y-27627D01*
X44776Y-27677D01*
X44685Y-27768D01*
X44638Y-27881D01*
X44638Y-25127D01*
X44638Y-24340D01*
X44615Y-24285D01*
X44573Y-24242D01*
X44518Y-24220D01*
X44458Y-24220D01*
X42096Y-24220D01*
X42041Y-24242D01*
X41998Y-24284D01*
X41976Y-24340D01*
X41975Y-24399D01*
X41975Y-25187D01*
X41998Y-25242D01*
X42040Y-25284D01*
X42096Y-25307D01*
X42155Y-25307D01*
X42480Y-25307D01*
X42364Y-25423D01*
X42258Y-25422D01*
X42138Y-25472D01*
X42047Y-25563D01*
X41997Y-25683D01*
X41997Y-25812D01*
X42047Y-25931D01*
X42138Y-26023D01*
X42257Y-26072D01*
X42387Y-26073D01*
X42506Y-26023D01*
X42598Y-25932D01*
X42647Y-25812D01*
X42647Y-25705D01*
X43046Y-25307D01*
X44517Y-25307D01*
X44573Y-25284D01*
X44615Y-25242D01*
X44638Y-25187D01*
X44638Y-25127D01*
X44638Y-27881D01*
X44635Y-27887D01*
X44635Y-28017D01*
X44684Y-28136D01*
X44760Y-28212D01*
X44760Y-28638D01*
X44685Y-28713D01*
X44635Y-28832D01*
X44635Y-28841D01*
X44511Y-28716D01*
X44446Y-28673D01*
X44370Y-28658D01*
X43791Y-28658D01*
X43828Y-28568D01*
X43828Y-28439D01*
X43779Y-28320D01*
X43710Y-28251D01*
X43710Y-26431D01*
X43661Y-26312D01*
X43570Y-26220D01*
X43450Y-26171D01*
X43321Y-26171D01*
X43201Y-26220D01*
X43165Y-26256D01*
X42795Y-26256D01*
X42718Y-26271D01*
X42653Y-26315D01*
X42610Y-26380D01*
X42595Y-26456D01*
X42610Y-26533D01*
X42653Y-26598D01*
X42718Y-26641D01*
X42795Y-26656D01*
X43100Y-26656D01*
X43110Y-26679D01*
X43201Y-26771D01*
X43320Y-26821D01*
X43450Y-26821D01*
X43569Y-26771D01*
X43661Y-26680D01*
X43710Y-26560D01*
X43710Y-26431D01*
X43710Y-28251D01*
X43688Y-28228D01*
X43568Y-28178D01*
X43439Y-28178D01*
X43349Y-28216D01*
X43349Y-27834D01*
X43336Y-27770D01*
X43334Y-27758D01*
X43334Y-27758D01*
X43291Y-27693D01*
X42818Y-27220D01*
X42753Y-27177D01*
X42677Y-27162D01*
X42051Y-27162D01*
X41755Y-26866D01*
X41690Y-26823D01*
X41614Y-26807D01*
X40701Y-26807D01*
X40701Y-25127D01*
X40701Y-24340D01*
X40678Y-24285D01*
X40636Y-24242D01*
X40581Y-24220D01*
X40521Y-24220D01*
X38159Y-24220D01*
X38104Y-24242D01*
X38061Y-24284D01*
X38039Y-24340D01*
X38038Y-24399D01*
X38038Y-25187D01*
X38061Y-25242D01*
X38103Y-25284D01*
X38159Y-25307D01*
X38218Y-25307D01*
X39591Y-25307D01*
X39950Y-25666D01*
X39950Y-25773D01*
X39999Y-25892D01*
X40091Y-25984D01*
X40210Y-26033D01*
X40339Y-26033D01*
X40459Y-25984D01*
X40550Y-25892D01*
X40600Y-25773D01*
X40600Y-25644D01*
X40551Y-25524D01*
X40459Y-25433D01*
X40340Y-25383D01*
X40233Y-25383D01*
X40157Y-25307D01*
X40580Y-25307D01*
X40636Y-25284D01*
X40678Y-25242D01*
X40701Y-25187D01*
X40701Y-25127D01*
X40701Y-26807D01*
X38783Y-26807D01*
X38757Y-26781D01*
X38818Y-26719D01*
X38868Y-26600D01*
X38868Y-26471D01*
X38818Y-26351D01*
X38727Y-26260D01*
X38608Y-26210D01*
X38478Y-26210D01*
X38359Y-26259D01*
X38310Y-26308D01*
X38310Y-26144D01*
X38412Y-26102D01*
X38503Y-26011D01*
X38553Y-25891D01*
X38553Y-25762D01*
X38504Y-25642D01*
X38412Y-25551D01*
X38293Y-25501D01*
X38163Y-25501D01*
X38044Y-25551D01*
X38034Y-25560D01*
X38034Y-24212D01*
X38021Y-24148D01*
X38019Y-24136D01*
X38019Y-24136D01*
X37976Y-24071D01*
X37763Y-23858D01*
X37698Y-23815D01*
X37622Y-23800D01*
X37450Y-23800D01*
X37450Y-23670D01*
X37427Y-23615D01*
X37385Y-23572D01*
X37329Y-23550D01*
X37270Y-23549D01*
X36670Y-23549D01*
X36615Y-23572D01*
X36572Y-23614D01*
X36550Y-23670D01*
X36549Y-23729D01*
X36549Y-24329D01*
X36572Y-24384D01*
X36614Y-24427D01*
X36670Y-24449D01*
X36729Y-24450D01*
X37329Y-24450D01*
X37384Y-24427D01*
X37427Y-24385D01*
X37449Y-24329D01*
X37450Y-24270D01*
X37450Y-24200D01*
X37539Y-24200D01*
X37634Y-24295D01*
X37634Y-25028D01*
X37464Y-24858D01*
X37414Y-24825D01*
X37381Y-24745D01*
X37255Y-24618D01*
X37089Y-24550D01*
X36910Y-24549D01*
X36745Y-24618D01*
X36618Y-24744D01*
X36550Y-24910D01*
X36549Y-25089D01*
X36618Y-25254D01*
X36744Y-25381D01*
X36910Y-25449D01*
X37089Y-25450D01*
X37254Y-25381D01*
X37338Y-25298D01*
X37398Y-25358D01*
X37398Y-25785D01*
X37381Y-25745D01*
X37255Y-25618D01*
X37089Y-25550D01*
X36910Y-25549D01*
X36745Y-25618D01*
X36618Y-25744D01*
X36550Y-25910D01*
X36549Y-26089D01*
X36618Y-26254D01*
X36744Y-26381D01*
X36910Y-26449D01*
X36986Y-26449D01*
X36863Y-26456D01*
X36712Y-26518D01*
X36684Y-26614D01*
X37000Y-26929D01*
X37315Y-26614D01*
X37287Y-26518D01*
X37092Y-26448D01*
X37254Y-26381D01*
X37381Y-26255D01*
X37398Y-26213D01*
X37398Y-26688D01*
X37385Y-26684D01*
X37070Y-27000D01*
X37385Y-27315D01*
X37411Y-27307D01*
X37413Y-27320D01*
X37457Y-27385D01*
X37627Y-27556D01*
X37627Y-27662D01*
X37677Y-27782D01*
X37694Y-27800D01*
X37404Y-27800D01*
X37381Y-27745D01*
X37255Y-27618D01*
X37089Y-27550D01*
X37013Y-27550D01*
X37136Y-27543D01*
X37287Y-27481D01*
X37315Y-27385D01*
X37000Y-27070D01*
X36929Y-27141D01*
X36929Y-27000D01*
X36614Y-26684D01*
X36518Y-26712D01*
X36445Y-26918D01*
X36456Y-27136D01*
X36518Y-27287D01*
X36614Y-27315D01*
X36929Y-27000D01*
X36929Y-27141D01*
X36684Y-27385D01*
X36712Y-27481D01*
X36907Y-27551D01*
X36745Y-27618D01*
X36618Y-27744D01*
X36550Y-27910D01*
X36549Y-28089D01*
X36618Y-28254D01*
X36744Y-28381D01*
X36910Y-28449D01*
X37089Y-28450D01*
X37254Y-28381D01*
X37381Y-28255D01*
X37404Y-28200D01*
X38682Y-28200D01*
X38082Y-28800D01*
X37404Y-28800D01*
X37381Y-28745D01*
X37255Y-28618D01*
X37089Y-28550D01*
X36910Y-28549D01*
X36745Y-28618D01*
X36618Y-28744D01*
X36550Y-28910D01*
X36549Y-29089D01*
X36618Y-29254D01*
X36744Y-29381D01*
X36910Y-29449D01*
X37089Y-29450D01*
X37254Y-29381D01*
X37381Y-29255D01*
X37404Y-29200D01*
X38165Y-29200D01*
X38241Y-29184D01*
X38306Y-29141D01*
X39177Y-28270D01*
X39280Y-28270D01*
X37751Y-29800D01*
X37404Y-29800D01*
X37381Y-29745D01*
X37255Y-29618D01*
X37089Y-29550D01*
X36910Y-29549D01*
X36745Y-29618D01*
X36618Y-29744D01*
X36550Y-29910D01*
X36549Y-30089D01*
X36618Y-30254D01*
X36744Y-30381D01*
X36910Y-30449D01*
X37089Y-30450D01*
X37254Y-30381D01*
X37381Y-30255D01*
X37404Y-30200D01*
X37834Y-30200D01*
X37911Y-30184D01*
X37976Y-30141D01*
X38060Y-30056D01*
X38060Y-30103D01*
X38110Y-30223D01*
X38201Y-30314D01*
X38320Y-30364D01*
X38450Y-30364D01*
X38569Y-30315D01*
X38661Y-30223D01*
X38710Y-30104D01*
X38710Y-29975D01*
X38661Y-29855D01*
X38658Y-29852D01*
X38823Y-29688D01*
X38909Y-29688D01*
X38882Y-29714D01*
X38757Y-29840D01*
X38734Y-29895D01*
X38734Y-29954D01*
X38756Y-30010D01*
X38799Y-30052D01*
X38914Y-30168D01*
X38856Y-30226D01*
X38754Y-30226D01*
X38635Y-30275D01*
X38543Y-30366D01*
X38493Y-30486D01*
X38493Y-30615D01*
X38543Y-30735D01*
X38634Y-30826D01*
X38753Y-30876D01*
X38883Y-30876D01*
X39002Y-30826D01*
X39094Y-30735D01*
X39143Y-30616D01*
X39143Y-30504D01*
X39197Y-30450D01*
X39355Y-30608D01*
X39410Y-30631D01*
X39470Y-30631D01*
X39525Y-30608D01*
X39567Y-30566D01*
X39692Y-30441D01*
X39709Y-30402D01*
X39748Y-30386D01*
X39790Y-30344D01*
X39906Y-30228D01*
X40186Y-30509D01*
X40186Y-30615D01*
X40236Y-30735D01*
X40327Y-30826D01*
X40446Y-30876D01*
X40533Y-30876D01*
X40357Y-31052D01*
X40250Y-31052D01*
X40131Y-31102D01*
X40039Y-31193D01*
X40008Y-31268D01*
X39970Y-31230D01*
X39928Y-31213D01*
X39911Y-31171D01*
X39869Y-31129D01*
X39744Y-31004D01*
X39707Y-30989D01*
X39692Y-30952D01*
X39650Y-30910D01*
X39525Y-30785D01*
X39469Y-30762D01*
X39410Y-30762D01*
X39355Y-30785D01*
X39312Y-30827D01*
X38756Y-31383D01*
X38733Y-31438D01*
X38733Y-31461D01*
X38465Y-31729D01*
X37799Y-31729D01*
X37680Y-31610D01*
X37680Y-31141D01*
X37680Y-31141D01*
X37665Y-31065D01*
X37665Y-31065D01*
X37650Y-31043D01*
X37621Y-31000D01*
X37621Y-31000D01*
X37480Y-30858D01*
X37415Y-30815D01*
X37410Y-30814D01*
X37381Y-30745D01*
X37255Y-30618D01*
X37089Y-30550D01*
X36910Y-30549D01*
X36745Y-30618D01*
X36618Y-30744D01*
X36550Y-30910D01*
X36549Y-31089D01*
X36618Y-31254D01*
X36744Y-31381D01*
X36910Y-31449D01*
X37089Y-31450D01*
X37254Y-31381D01*
X37280Y-31356D01*
X37280Y-31643D01*
X37255Y-31618D01*
X37089Y-31550D01*
X36910Y-31549D01*
X36745Y-31618D01*
X36618Y-31744D01*
X36550Y-31910D01*
X36549Y-32089D01*
X36618Y-32254D01*
X36744Y-32381D01*
X36910Y-32449D01*
X37089Y-32450D01*
X37254Y-32381D01*
X37270Y-32365D01*
X37430Y-32365D01*
X37338Y-32457D01*
X37295Y-32521D01*
X37280Y-32598D01*
X37280Y-32643D01*
X37255Y-32618D01*
X37089Y-32550D01*
X36910Y-32549D01*
X36745Y-32618D01*
X36618Y-32744D01*
X36550Y-32910D01*
X36549Y-33089D01*
X36618Y-33254D01*
X36744Y-33381D01*
X36910Y-33449D01*
X37089Y-33450D01*
X37254Y-33381D01*
X37319Y-33316D01*
X37319Y-33683D01*
X37255Y-33618D01*
X37089Y-33550D01*
X36910Y-33549D01*
X36745Y-33618D01*
X36618Y-33744D01*
X36550Y-33910D01*
X36549Y-34089D01*
X36618Y-34254D01*
X36744Y-34381D01*
X36910Y-34449D01*
X37089Y-34450D01*
X37254Y-34381D01*
X37381Y-34255D01*
X37423Y-34152D01*
X37440Y-34141D01*
X37555Y-34026D01*
X37555Y-34484D01*
X37338Y-34701D01*
X37255Y-34618D01*
X37089Y-34550D01*
X36910Y-34549D01*
X36745Y-34618D01*
X36618Y-34744D01*
X36550Y-34910D01*
X36549Y-35089D01*
X36618Y-35254D01*
X36744Y-35381D01*
X36910Y-35449D01*
X37089Y-35450D01*
X37254Y-35381D01*
X37381Y-35255D01*
X37414Y-35174D01*
X37464Y-35141D01*
X37792Y-34813D01*
X37792Y-35468D01*
X37460Y-35800D01*
X37404Y-35800D01*
X37381Y-35745D01*
X37255Y-35618D01*
X37089Y-35550D01*
X36910Y-35549D01*
X36745Y-35618D01*
X36618Y-35744D01*
X36550Y-35910D01*
X36549Y-36089D01*
X36618Y-36254D01*
X36744Y-36381D01*
X36910Y-36449D01*
X37089Y-36450D01*
X37254Y-36381D01*
X37381Y-36255D01*
X37404Y-36200D01*
X37543Y-36200D01*
X37619Y-36184D01*
X37684Y-36141D01*
X38028Y-35797D01*
X38028Y-36176D01*
X37405Y-36800D01*
X37404Y-36800D01*
X37381Y-36745D01*
X37255Y-36618D01*
X37089Y-36550D01*
X36910Y-36549D01*
X36745Y-36618D01*
X36618Y-36744D01*
X36550Y-36910D01*
X36549Y-37089D01*
X36618Y-37254D01*
X36744Y-37381D01*
X36910Y-37449D01*
X37089Y-37450D01*
X37254Y-37381D01*
X37381Y-37255D01*
X37404Y-37200D01*
X37488Y-37200D01*
X37564Y-37184D01*
X37629Y-37141D01*
X38303Y-36467D01*
X38303Y-37318D01*
X37822Y-37800D01*
X37404Y-37800D01*
X37381Y-37745D01*
X37255Y-37618D01*
X37089Y-37550D01*
X36910Y-37549D01*
X36745Y-37618D01*
X36618Y-37744D01*
X36550Y-37910D01*
X36549Y-38089D01*
X36618Y-38254D01*
X36744Y-38381D01*
X36910Y-38449D01*
X37089Y-38450D01*
X37254Y-38381D01*
X37381Y-38255D01*
X37404Y-38200D01*
X37816Y-38200D01*
X37771Y-38244D01*
X37728Y-38309D01*
X37713Y-38385D01*
X37713Y-40665D01*
X37578Y-40800D01*
X37450Y-40800D01*
X37450Y-39910D01*
X37450Y-39910D01*
X37450Y-39270D01*
X37450Y-38670D01*
X37427Y-38615D01*
X37385Y-38572D01*
X37329Y-38550D01*
X37270Y-38549D01*
X36670Y-38549D01*
X36615Y-38572D01*
X36572Y-38614D01*
X36550Y-38670D01*
X36549Y-38729D01*
X36549Y-39329D01*
X36572Y-39384D01*
X36614Y-39427D01*
X36670Y-39449D01*
X36729Y-39450D01*
X37329Y-39450D01*
X37384Y-39427D01*
X37427Y-39385D01*
X37449Y-39329D01*
X37450Y-39270D01*
X37450Y-39910D01*
X37381Y-39745D01*
X37255Y-39618D01*
X37089Y-39550D01*
X36910Y-39549D01*
X36745Y-39618D01*
X36618Y-39744D01*
X36550Y-39910D01*
X36549Y-40089D01*
X36618Y-40254D01*
X36744Y-40381D01*
X36910Y-40449D01*
X37089Y-40450D01*
X37254Y-40381D01*
X37381Y-40255D01*
X37449Y-40089D01*
X37450Y-39910D01*
X37450Y-40800D01*
X37404Y-40800D01*
X37381Y-40745D01*
X37255Y-40618D01*
X37089Y-40550D01*
X36910Y-40549D01*
X36745Y-40618D01*
X36618Y-40744D01*
X36550Y-40910D01*
X36549Y-41089D01*
X36618Y-41254D01*
X36744Y-41381D01*
X36910Y-41449D01*
X37089Y-41450D01*
X37254Y-41381D01*
X37381Y-41255D01*
X37404Y-41200D01*
X37661Y-41200D01*
X37737Y-41184D01*
X37802Y-41141D01*
X37988Y-40955D01*
X37988Y-41373D01*
X37562Y-41800D01*
X37404Y-41800D01*
X37381Y-41745D01*
X37255Y-41618D01*
X37089Y-41550D01*
X36910Y-41549D01*
X36745Y-41618D01*
X36618Y-41744D01*
X36550Y-41910D01*
X36549Y-42089D01*
X36618Y-42254D01*
X36744Y-42381D01*
X36910Y-42449D01*
X37089Y-42450D01*
X37254Y-42381D01*
X37381Y-42255D01*
X37404Y-42200D01*
X37645Y-42200D01*
X37722Y-42184D01*
X37787Y-42141D01*
X38330Y-41598D01*
X38330Y-41598D01*
X38359Y-41554D01*
X38373Y-41533D01*
X38373Y-41533D01*
X38388Y-41456D01*
X38388Y-41456D01*
X38388Y-38547D01*
X39196Y-37739D01*
X39196Y-37739D01*
X39225Y-37696D01*
X39239Y-37674D01*
X39239Y-37674D01*
X39255Y-37598D01*
X39255Y-37598D01*
X39255Y-36893D01*
X39374Y-36774D01*
X39535Y-36774D01*
X39535Y-36781D01*
X39535Y-36783D01*
X39473Y-36846D01*
X39435Y-36938D01*
X39434Y-37037D01*
X39435Y-37052D01*
X39497Y-37115D01*
X40028Y-37115D01*
X40028Y-37107D01*
X40128Y-37107D01*
X40128Y-37115D01*
X40659Y-37115D01*
X40722Y-37052D01*
X40722Y-37037D01*
X40722Y-36938D01*
X40684Y-36846D01*
X40621Y-36783D01*
X40622Y-36781D01*
X40622Y-36774D01*
X41019Y-36774D01*
X41315Y-37070D01*
X41512Y-37267D01*
X41512Y-37267D01*
X41555Y-37296D01*
X41577Y-37310D01*
X41577Y-37310D01*
X41653Y-37325D01*
X41653Y-37325D01*
X41827Y-37325D01*
X41902Y-37401D01*
X42021Y-37450D01*
X42150Y-37451D01*
X42270Y-37401D01*
X42361Y-37310D01*
X42411Y-37190D01*
X42411Y-37061D01*
X42362Y-36942D01*
X42270Y-36850D01*
X42190Y-36817D01*
X42214Y-36757D01*
X42214Y-36628D01*
X42165Y-36509D01*
X42074Y-36417D01*
X41954Y-36367D01*
X41825Y-36367D01*
X41757Y-36395D01*
X41637Y-36275D01*
X41637Y-36275D01*
X41637Y-36275D01*
X41204Y-35842D01*
X41139Y-35799D01*
X41062Y-35784D01*
X40622Y-35784D01*
X40622Y-35777D01*
X40599Y-35722D01*
X40566Y-35688D01*
X40599Y-35655D01*
X40622Y-35600D01*
X40622Y-35541D01*
X40622Y-35244D01*
X40629Y-35262D01*
X40721Y-35354D01*
X40840Y-35403D01*
X40969Y-35403D01*
X41089Y-35354D01*
X41180Y-35263D01*
X41230Y-35143D01*
X41230Y-35014D01*
X41181Y-34894D01*
X41089Y-34803D01*
X40970Y-34753D01*
X40850Y-34753D01*
X40824Y-34736D01*
X40748Y-34721D01*
X40314Y-34721D01*
X40238Y-34736D01*
X40173Y-34779D01*
X39937Y-35016D01*
X39903Y-35066D01*
X39655Y-35066D01*
X39600Y-35089D01*
X39557Y-35131D01*
X39535Y-35186D01*
X39535Y-35246D01*
X39535Y-35600D01*
X39557Y-35655D01*
X39591Y-35688D01*
X39557Y-35722D01*
X39535Y-35777D01*
X39535Y-35784D01*
X39173Y-35784D01*
X39096Y-35799D01*
X39031Y-35842D01*
X38703Y-36170D01*
X38703Y-34019D01*
X38823Y-33900D01*
X39902Y-33900D01*
X39978Y-33885D01*
X40043Y-33842D01*
X40579Y-33306D01*
X40601Y-33306D01*
X40656Y-33283D01*
X40698Y-33241D01*
X41138Y-32801D01*
X41138Y-32989D01*
X41036Y-33031D01*
X40945Y-33122D01*
X40895Y-33242D01*
X40895Y-33371D01*
X40944Y-33490D01*
X41036Y-33582D01*
X41155Y-33632D01*
X41284Y-33632D01*
X41404Y-33582D01*
X41495Y-33491D01*
X41545Y-33372D01*
X41545Y-33242D01*
X41533Y-33213D01*
X41538Y-33188D01*
X41538Y-32801D01*
X42013Y-33276D01*
X42068Y-33299D01*
X42091Y-33299D01*
X42554Y-33763D01*
X42554Y-33763D01*
X42598Y-33792D01*
X42619Y-33806D01*
X42619Y-33806D01*
X42696Y-33822D01*
X43814Y-33822D01*
X43973Y-33980D01*
X43973Y-34049D01*
X43962Y-34045D01*
X43833Y-34045D01*
X43713Y-34094D01*
X43622Y-34185D01*
X43572Y-34305D01*
X43572Y-34392D01*
X43409Y-34228D01*
X43344Y-34185D01*
X43267Y-34170D01*
X42214Y-34170D01*
X42214Y-34069D01*
X42165Y-33950D01*
X42074Y-33858D01*
X41954Y-33808D01*
X41825Y-33808D01*
X41705Y-33858D01*
X41614Y-33949D01*
X41564Y-34068D01*
X41564Y-34198D01*
X41614Y-34317D01*
X41705Y-34409D01*
X41824Y-34458D01*
X41931Y-34458D01*
X41984Y-34511D01*
X42049Y-34554D01*
X42049Y-34554D01*
X42125Y-34570D01*
X43184Y-34570D01*
X43211Y-34596D01*
X43203Y-34596D01*
X43083Y-34645D01*
X42992Y-34736D01*
X42942Y-34856D01*
X42942Y-34985D01*
X42992Y-35105D01*
X43083Y-35196D01*
X43121Y-35212D01*
X43126Y-35220D01*
X43742Y-35836D01*
X43740Y-35839D01*
X43690Y-35958D01*
X43690Y-36087D01*
X43740Y-36207D01*
X43831Y-36298D01*
X43950Y-36348D01*
X44080Y-36348D01*
X44199Y-36299D01*
X44291Y-36207D01*
X44340Y-36088D01*
X44340Y-35959D01*
X44291Y-35839D01*
X44200Y-35748D01*
X44198Y-35747D01*
X44198Y-35747D01*
X44186Y-35728D01*
X44157Y-35685D01*
X44157Y-35685D01*
X43553Y-35081D01*
X43592Y-34986D01*
X43592Y-34977D01*
X43697Y-35082D01*
X43697Y-35082D01*
X43697Y-35082D01*
X43913Y-35298D01*
X43913Y-35298D01*
X43921Y-35304D01*
X43921Y-35304D01*
X43936Y-35341D01*
X44028Y-35432D01*
X44147Y-35482D01*
X44276Y-35482D01*
X44320Y-35464D01*
X44320Y-35536D01*
X44369Y-35656D01*
X44461Y-35747D01*
X44580Y-35797D01*
X44687Y-35797D01*
X44918Y-36027D01*
X44918Y-36968D01*
X44933Y-37045D01*
X44976Y-37109D01*
X45941Y-38074D01*
X45941Y-38710D01*
X45892Y-38661D01*
X45773Y-38612D01*
X45644Y-38611D01*
X45524Y-38661D01*
X45433Y-38752D01*
X45383Y-38872D01*
X45383Y-38979D01*
X44813Y-39549D01*
X44813Y-39030D01*
X44763Y-38910D01*
X44672Y-38819D01*
X44553Y-38769D01*
X44516Y-38769D01*
X44143Y-38396D01*
X44143Y-38360D01*
X44094Y-38241D01*
X44003Y-38149D01*
X43883Y-38100D01*
X43754Y-38100D01*
X43635Y-38149D01*
X43543Y-38240D01*
X43493Y-38360D01*
X43493Y-38489D01*
X43543Y-38609D01*
X43634Y-38700D01*
X43753Y-38750D01*
X43790Y-38750D01*
X44163Y-39123D01*
X44163Y-39158D01*
X44212Y-39278D01*
X44303Y-39369D01*
X44423Y-39419D01*
X44552Y-39419D01*
X44672Y-39370D01*
X44763Y-39278D01*
X44813Y-39159D01*
X44813Y-39030D01*
X44813Y-39549D01*
X44799Y-39563D01*
X42289Y-39563D01*
X42293Y-39553D01*
X42293Y-39423D01*
X42244Y-39304D01*
X42172Y-39232D01*
X42243Y-39160D01*
X42293Y-39041D01*
X42293Y-38912D01*
X42244Y-38792D01*
X42152Y-38701D01*
X42033Y-38651D01*
X41904Y-38651D01*
X41784Y-38700D01*
X41742Y-38742D01*
X41735Y-38736D01*
X41735Y-37913D01*
X41735Y-37913D01*
X41720Y-37836D01*
X41720Y-37836D01*
X41705Y-37815D01*
X41676Y-37771D01*
X41676Y-37771D01*
X41663Y-37758D01*
X41663Y-37652D01*
X41614Y-37532D01*
X41522Y-37441D01*
X41403Y-37391D01*
X41274Y-37391D01*
X41154Y-37440D01*
X41063Y-37532D01*
X41032Y-37605D01*
X40982Y-37571D01*
X40905Y-37555D01*
X40622Y-37555D01*
X40622Y-37549D01*
X40621Y-37546D01*
X40684Y-37484D01*
X40722Y-37392D01*
X40722Y-37293D01*
X40722Y-37277D01*
X40659Y-37215D01*
X40128Y-37215D01*
X40128Y-37223D01*
X40028Y-37223D01*
X40028Y-37215D01*
X39497Y-37215D01*
X39435Y-37277D01*
X39434Y-37293D01*
X39435Y-37392D01*
X39473Y-37484D01*
X39535Y-37546D01*
X39535Y-37548D01*
X39535Y-37608D01*
X39535Y-37962D01*
X39557Y-38017D01*
X39591Y-38051D01*
X39557Y-38084D01*
X39535Y-38139D01*
X39535Y-38198D01*
X39535Y-38553D01*
X39557Y-38608D01*
X39591Y-38641D01*
X39557Y-38674D01*
X39535Y-38729D01*
X39535Y-38789D01*
X39535Y-39143D01*
X39555Y-39194D01*
X39419Y-39057D01*
X39419Y-38951D01*
X39370Y-38831D01*
X39278Y-38740D01*
X39159Y-38690D01*
X39030Y-38690D01*
X38910Y-38740D01*
X38819Y-38831D01*
X38769Y-38950D01*
X38769Y-39080D01*
X38818Y-39199D01*
X38910Y-39291D01*
X39029Y-39340D01*
X39136Y-39340D01*
X39464Y-39668D01*
X39464Y-39668D01*
X39508Y-39697D01*
X39529Y-39712D01*
X39529Y-39712D01*
X39535Y-39713D01*
X39535Y-39734D01*
X39535Y-39736D01*
X39473Y-39799D01*
X39435Y-39890D01*
X39434Y-39990D01*
X39435Y-40005D01*
X39497Y-40068D01*
X40028Y-40068D01*
X40028Y-40060D01*
X40128Y-40060D01*
X40128Y-40068D01*
X40659Y-40068D01*
X40722Y-40005D01*
X40722Y-39990D01*
X40722Y-39890D01*
X40684Y-39799D01*
X40621Y-39736D01*
X40622Y-39734D01*
X40622Y-39675D01*
X40622Y-39320D01*
X40599Y-39265D01*
X40566Y-39232D01*
X40599Y-39199D01*
X40622Y-39144D01*
X40622Y-39084D01*
X40622Y-38730D01*
X40599Y-38674D01*
X40566Y-38641D01*
X40579Y-38628D01*
X40683Y-38671D01*
X40812Y-38671D01*
X40931Y-38622D01*
X40981Y-38573D01*
X40981Y-38937D01*
X40996Y-39013D01*
X41039Y-39078D01*
X41590Y-39629D01*
X41590Y-39629D01*
X41634Y-39658D01*
X41655Y-39672D01*
X41655Y-39672D01*
X41703Y-39682D01*
X41764Y-39744D01*
X41693Y-39815D01*
X41643Y-39935D01*
X41643Y-40064D01*
X41692Y-40183D01*
X41784Y-40275D01*
X41903Y-40324D01*
X42032Y-40325D01*
X42152Y-40275D01*
X42243Y-40184D01*
X42293Y-40064D01*
X42293Y-39963D01*
X44881Y-39963D01*
X44958Y-39948D01*
X45023Y-39905D01*
X45666Y-39261D01*
X45773Y-39262D01*
X45892Y-39212D01*
X45941Y-39163D01*
X45941Y-39212D01*
X45956Y-39289D01*
X46000Y-39354D01*
X46315Y-39668D01*
X46315Y-39668D01*
X46358Y-39697D01*
X46380Y-39712D01*
X46380Y-39712D01*
X46456Y-39727D01*
X46456Y-39727D01*
X46621Y-39727D01*
X46621Y-39734D01*
X46644Y-39789D01*
X46677Y-39822D01*
X46644Y-39855D01*
X46621Y-39910D01*
X46621Y-39970D01*
X46621Y-40324D01*
X46644Y-40380D01*
X46686Y-40422D01*
X46741Y-40445D01*
X46801Y-40445D01*
X47588Y-40445D01*
X47643Y-40422D01*
X47686Y-40380D01*
X47691Y-40368D01*
X47927Y-40368D01*
X48135Y-40575D01*
X48135Y-40813D01*
X48110Y-40839D01*
X48060Y-40958D01*
X48060Y-41087D01*
X48110Y-41207D01*
X48201Y-41298D01*
X48320Y-41348D01*
X48450Y-41348D01*
X48569Y-41299D01*
X48661Y-41207D01*
X48710Y-41088D01*
X48710Y-40959D01*
X48661Y-40839D01*
X48635Y-40814D01*
X48635Y-40564D01*
X48779Y-40564D01*
X48875Y-40545D01*
X48956Y-40491D01*
X49468Y-39979D01*
X49468Y-39979D01*
X49468Y-39979D01*
X49743Y-39704D01*
X49743Y-39704D01*
X49743Y-39704D01*
X49776Y-39655D01*
X49797Y-39623D01*
X49797Y-39623D01*
X49816Y-39527D01*
X49816Y-39343D01*
X49842Y-39318D01*
X49891Y-39198D01*
X49891Y-39069D01*
X49866Y-39007D01*
X50114Y-39256D01*
X50114Y-39685D01*
X50130Y-39761D01*
X50173Y-39826D01*
X50488Y-40141D01*
X50488Y-40141D01*
X50531Y-40170D01*
X50553Y-40184D01*
X50553Y-40184D01*
X50592Y-40192D01*
X50618Y-40254D01*
X50744Y-40381D01*
X50910Y-40449D01*
X51089Y-40450D01*
X51254Y-40381D01*
X51381Y-40255D01*
X51449Y-40089D01*
X51450Y-39910D01*
X51450Y-40910D01*
X51381Y-40745D01*
X51255Y-40618D01*
X51089Y-40550D01*
X50910Y-40549D01*
X50745Y-40618D01*
X50618Y-40744D01*
X50550Y-40910D01*
X50549Y-41089D01*
X50618Y-41254D01*
X50744Y-41381D01*
X50910Y-41449D01*
X51089Y-41450D01*
X51254Y-41381D01*
X51381Y-41255D01*
X51449Y-41089D01*
X51450Y-40910D01*
X51450Y-42743D01*
X51450Y-42743D01*
X51450Y-42270D01*
X51450Y-41670D01*
X51427Y-41615D01*
X51385Y-41572D01*
X51329Y-41550D01*
X51270Y-41549D01*
X50670Y-41549D01*
X50615Y-41572D01*
X50572Y-41614D01*
X50550Y-41670D01*
X50549Y-41729D01*
X50549Y-41800D01*
X49684Y-41800D01*
X49645Y-41705D01*
X49554Y-41614D01*
X49435Y-41564D01*
X49305Y-41564D01*
X49186Y-41614D01*
X49094Y-41705D01*
X49045Y-41824D01*
X49045Y-41954D01*
X49094Y-42073D01*
X49185Y-42165D01*
X49305Y-42214D01*
X49434Y-42214D01*
X49473Y-42198D01*
X49480Y-42199D01*
X49480Y-42200D01*
X50549Y-42200D01*
X50549Y-42329D01*
X50572Y-42384D01*
X50614Y-42427D01*
X50670Y-42449D01*
X50729Y-42450D01*
X51329Y-42450D01*
X51384Y-42427D01*
X51427Y-42385D01*
X51449Y-42329D01*
X51450Y-42270D01*
X51450Y-42743D01*
X47175Y-42743D01*
X47175Y-40897D01*
X47130Y-40760D01*
X47037Y-40667D01*
X46940Y-40619D01*
X40722Y-40619D01*
X40722Y-40245D01*
X40722Y-40230D01*
X40659Y-40168D01*
X40128Y-40168D01*
X40128Y-40482D01*
X40191Y-40545D01*
X40521Y-40545D01*
X40613Y-40507D01*
X40684Y-40437D01*
X40722Y-40345D01*
X40722Y-40245D01*
X40722Y-40619D01*
X40393Y-40619D01*
X40263Y-40619D01*
X40167Y-40667D01*
X40077Y-40757D01*
X40028Y-40854D01*
X40028Y-40482D01*
X40028Y-40168D01*
X39497Y-40168D01*
X39435Y-40230D01*
X39434Y-40245D01*
X39435Y-40345D01*
X39473Y-40437D01*
X39543Y-40507D01*
X39635Y-40545D01*
X39966Y-40545D01*
X40028Y-40482D01*
X40028Y-40854D01*
X40028Y-42743D01*
X36434Y-42743D01*
X36408Y-42738D01*
X36400Y-42733D01*
X36395Y-42725D01*
X36390Y-42699D01*
X36390Y-23441D01*
X36395Y-23416D01*
X36400Y-23408D01*
X36408Y-23403D01*
X36434Y-23398D01*
X51755Y-23398D01*
X51761Y-23399D01*
X51761Y-42742D01*
X51761Y-42742D01*
G37*
G54D20*
X51761Y-42742D02*
X51755Y-42743D01*
X51554Y-42743D01*
X51554Y-25081D01*
X51543Y-24863D01*
X51481Y-24712D01*
X51385Y-24684D01*
X51070Y-25000D01*
X51385Y-25315D01*
X51481Y-25287D01*
X51554Y-25081D01*
X51554Y-42743D01*
X51450Y-42743D01*
X51450Y-40910D01*
X51450Y-39910D01*
X51381Y-39745D01*
X51255Y-39618D01*
X51089Y-39550D01*
X50910Y-39549D01*
X50745Y-39618D01*
X50638Y-39725D01*
X50514Y-39602D01*
X50514Y-39173D01*
X50514Y-39169D01*
X50516Y-39170D01*
X50537Y-39184D01*
X50537Y-39184D01*
X50594Y-39196D01*
X50618Y-39254D01*
X50744Y-39381D01*
X50910Y-39449D01*
X51089Y-39450D01*
X51254Y-39381D01*
X51381Y-39255D01*
X51449Y-39089D01*
X51450Y-38910D01*
X51450Y-36910D01*
X51450Y-35910D01*
X51381Y-35745D01*
X51255Y-35618D01*
X51089Y-35550D01*
X50910Y-35549D01*
X50745Y-35618D01*
X50618Y-35744D01*
X50550Y-35910D01*
X50549Y-36089D01*
X50618Y-36254D01*
X50744Y-36381D01*
X50910Y-36449D01*
X51089Y-36450D01*
X51254Y-36381D01*
X51381Y-36255D01*
X51449Y-36089D01*
X51450Y-35910D01*
X51450Y-36910D01*
X51381Y-36745D01*
X51255Y-36618D01*
X51089Y-36550D01*
X50910Y-36549D01*
X50745Y-36618D01*
X50618Y-36744D01*
X50550Y-36910D01*
X50549Y-37089D01*
X50618Y-37254D01*
X50744Y-37381D01*
X50910Y-37449D01*
X51089Y-37450D01*
X51254Y-37381D01*
X51381Y-37255D01*
X51449Y-37089D01*
X51450Y-36910D01*
X51450Y-38910D01*
X51381Y-38745D01*
X51255Y-38618D01*
X51089Y-38550D01*
X50910Y-38549D01*
X50745Y-38618D01*
X50630Y-38733D01*
X50097Y-38200D01*
X50549Y-38200D01*
X50549Y-38329D01*
X50572Y-38384D01*
X50614Y-38427D01*
X50670Y-38449D01*
X50729Y-38450D01*
X51329Y-38450D01*
X51384Y-38427D01*
X51427Y-38385D01*
X51449Y-38329D01*
X51450Y-38270D01*
X51450Y-37670D01*
X51427Y-37615D01*
X51385Y-37572D01*
X51329Y-37550D01*
X51270Y-37549D01*
X50670Y-37549D01*
X50615Y-37572D01*
X50572Y-37614D01*
X50550Y-37670D01*
X50549Y-37729D01*
X50549Y-37800D01*
X50011Y-37800D01*
X49530Y-37318D01*
X49530Y-35748D01*
X49530Y-35748D01*
X49515Y-35671D01*
X49515Y-35671D01*
X49501Y-35649D01*
X49472Y-35606D01*
X49472Y-35606D01*
X49065Y-35200D01*
X50595Y-35200D01*
X50618Y-35254D01*
X50744Y-35381D01*
X50910Y-35449D01*
X51089Y-35450D01*
X51254Y-35381D01*
X51381Y-35255D01*
X51449Y-35089D01*
X51450Y-34910D01*
X51381Y-34745D01*
X51255Y-34618D01*
X51089Y-34550D01*
X50910Y-34549D01*
X50745Y-34618D01*
X50618Y-34744D01*
X50595Y-34800D01*
X48980Y-34800D01*
X48671Y-34491D01*
X50118Y-34491D01*
X50194Y-34476D01*
X50259Y-34432D01*
X50492Y-34200D01*
X50595Y-34200D01*
X50618Y-34254D01*
X50744Y-34381D01*
X50910Y-34449D01*
X51089Y-34450D01*
X51254Y-34381D01*
X51381Y-34255D01*
X51449Y-34089D01*
X51450Y-33910D01*
X51381Y-33745D01*
X51255Y-33618D01*
X51089Y-33550D01*
X50910Y-33549D01*
X50745Y-33618D01*
X50618Y-33744D01*
X50595Y-33800D01*
X50537Y-33800D01*
X50613Y-33724D01*
X50657Y-33659D01*
X50657Y-33659D01*
X50659Y-33646D01*
X50672Y-33582D01*
X50672Y-33582D01*
X50672Y-33308D01*
X50744Y-33381D01*
X50910Y-33449D01*
X51089Y-33450D01*
X51254Y-33381D01*
X51381Y-33255D01*
X51449Y-33089D01*
X51450Y-32910D01*
X51381Y-32745D01*
X51255Y-32618D01*
X51089Y-32550D01*
X50910Y-32549D01*
X50745Y-32618D01*
X50618Y-32744D01*
X50595Y-32800D01*
X50582Y-32800D01*
X50506Y-32815D01*
X50484Y-32829D01*
X50441Y-32858D01*
X50331Y-32968D01*
X50287Y-33033D01*
X50272Y-33110D01*
X50272Y-33499D01*
X49917Y-33855D01*
X48673Y-33855D01*
X48710Y-33765D01*
X48710Y-33746D01*
X48753Y-33764D01*
X48813Y-33764D01*
X49521Y-33764D01*
X49576Y-33741D01*
X49619Y-33699D01*
X49642Y-33644D01*
X49642Y-33584D01*
X49642Y-33285D01*
X49619Y-33230D01*
X49603Y-33214D01*
X49619Y-33199D01*
X49642Y-33144D01*
X49642Y-33084D01*
X49642Y-32785D01*
X49619Y-32730D01*
X49603Y-32714D01*
X49619Y-32699D01*
X49642Y-32644D01*
X49642Y-32584D01*
X49642Y-32285D01*
X49619Y-32230D01*
X49603Y-32214D01*
X49619Y-32199D01*
X49642Y-32144D01*
X49642Y-32084D01*
X49642Y-31785D01*
X49619Y-31730D01*
X49585Y-31696D01*
X49680Y-31696D01*
X50126Y-32141D01*
X50191Y-32184D01*
X50191Y-32184D01*
X50203Y-32187D01*
X50267Y-32200D01*
X50595Y-32200D01*
X50618Y-32254D01*
X50744Y-32381D01*
X50910Y-32449D01*
X51089Y-32450D01*
X51254Y-32381D01*
X51381Y-32255D01*
X51449Y-32089D01*
X51450Y-31910D01*
X51381Y-31745D01*
X51255Y-31618D01*
X51089Y-31550D01*
X50910Y-31549D01*
X50745Y-31618D01*
X50618Y-31744D01*
X50595Y-31800D01*
X50350Y-31800D01*
X49928Y-31377D01*
X50106Y-31200D01*
X50595Y-31200D01*
X50618Y-31254D01*
X50744Y-31381D01*
X50910Y-31449D01*
X51089Y-31450D01*
X51254Y-31381D01*
X51381Y-31255D01*
X51449Y-31089D01*
X51450Y-30910D01*
X51381Y-30745D01*
X51255Y-30618D01*
X51089Y-30550D01*
X50910Y-30549D01*
X50745Y-30618D01*
X50618Y-30744D01*
X50595Y-30800D01*
X50118Y-30800D01*
X50121Y-30787D01*
X50121Y-30279D01*
X50200Y-30200D01*
X50595Y-30200D01*
X50618Y-30254D01*
X50744Y-30381D01*
X50910Y-30449D01*
X51089Y-30450D01*
X51254Y-30381D01*
X51381Y-30255D01*
X51449Y-30089D01*
X51450Y-29910D01*
X51450Y-28910D01*
X51450Y-27910D01*
X51381Y-27745D01*
X51255Y-27618D01*
X51089Y-27550D01*
X50910Y-27549D01*
X50745Y-27618D01*
X50618Y-27744D01*
X50550Y-27910D01*
X50549Y-28089D01*
X50618Y-28254D01*
X50744Y-28381D01*
X50910Y-28449D01*
X51089Y-28450D01*
X51254Y-28381D01*
X51381Y-28255D01*
X51449Y-28089D01*
X51450Y-27910D01*
X51450Y-28910D01*
X51381Y-28745D01*
X51255Y-28618D01*
X51089Y-28550D01*
X50910Y-28549D01*
X50745Y-28618D01*
X50618Y-28744D01*
X50550Y-28910D01*
X50549Y-29089D01*
X50618Y-29254D01*
X50744Y-29381D01*
X50910Y-29449D01*
X51089Y-29450D01*
X51254Y-29381D01*
X51381Y-29255D01*
X51449Y-29089D01*
X51450Y-28910D01*
X51450Y-29910D01*
X51381Y-29745D01*
X51255Y-29618D01*
X51089Y-29550D01*
X50910Y-29549D01*
X50745Y-29618D01*
X50618Y-29744D01*
X50595Y-29800D01*
X50305Y-29800D01*
X50393Y-29711D01*
X50443Y-29592D01*
X50443Y-29463D01*
X50393Y-29343D01*
X50368Y-29317D01*
X50368Y-27505D01*
X50618Y-27254D01*
X50744Y-27381D01*
X50910Y-27449D01*
X51089Y-27450D01*
X51254Y-27381D01*
X51381Y-27255D01*
X51449Y-27089D01*
X51450Y-26910D01*
X51450Y-25910D01*
X51381Y-25745D01*
X51255Y-25618D01*
X51089Y-25550D01*
X51013Y-25550D01*
X51136Y-25543D01*
X51287Y-25481D01*
X51315Y-25385D01*
X51000Y-25070D01*
X50929Y-25141D01*
X50929Y-25000D01*
X50614Y-24684D01*
X50518Y-24712D01*
X50445Y-24918D01*
X50456Y-25136D01*
X50518Y-25287D01*
X50614Y-25315D01*
X50929Y-25000D01*
X50929Y-25141D01*
X50684Y-25385D01*
X50712Y-25481D01*
X50907Y-25551D01*
X50745Y-25618D01*
X50618Y-25744D01*
X50550Y-25910D01*
X50549Y-26089D01*
X50618Y-26254D01*
X50744Y-26381D01*
X50910Y-26449D01*
X51089Y-26450D01*
X51254Y-26381D01*
X51381Y-26255D01*
X51449Y-26089D01*
X51450Y-25910D01*
X51450Y-26910D01*
X51381Y-26745D01*
X51255Y-26618D01*
X51089Y-26550D01*
X50910Y-26549D01*
X50745Y-26618D01*
X50618Y-26744D01*
X50618Y-26745D01*
X50368Y-26494D01*
X50368Y-24631D01*
X50681Y-24317D01*
X50744Y-24381D01*
X50910Y-24449D01*
X50986Y-24449D01*
X50863Y-24456D01*
X50712Y-24518D01*
X50684Y-24614D01*
X51000Y-24929D01*
X51315Y-24614D01*
X51287Y-24518D01*
X51092Y-24448D01*
X51254Y-24381D01*
X51381Y-24255D01*
X51449Y-24089D01*
X51450Y-23910D01*
X51381Y-23745D01*
X51255Y-23618D01*
X51089Y-23550D01*
X50910Y-23549D01*
X50745Y-23618D01*
X50618Y-23744D01*
X50608Y-23770D01*
X50534Y-23784D01*
X50453Y-23838D01*
X50453Y-23838D01*
X49941Y-24350D01*
X49887Y-24431D01*
X49868Y-24527D01*
X49868Y-26598D01*
X49887Y-26694D01*
X49941Y-26775D01*
X50166Y-26999D01*
X50118Y-27048D01*
X49861Y-26791D01*
X49780Y-26737D01*
X49687Y-26719D01*
X49687Y-24419D01*
X49687Y-23926D01*
X49649Y-23834D01*
X49579Y-23764D01*
X49487Y-23726D01*
X49388Y-23726D01*
X49325Y-23726D01*
X49262Y-23788D01*
X49262Y-24123D01*
X49625Y-24123D01*
X49687Y-24060D01*
X49687Y-23926D01*
X49687Y-24419D01*
X49687Y-24285D01*
X49625Y-24223D01*
X49262Y-24223D01*
X49262Y-24557D01*
X49325Y-24620D01*
X49388Y-24620D01*
X49487Y-24620D01*
X49579Y-24581D01*
X49649Y-24511D01*
X49687Y-24419D01*
X49687Y-26719D01*
X49685Y-26718D01*
X49587Y-26718D01*
X49587Y-26308D01*
X49587Y-25915D01*
X49564Y-25860D01*
X49522Y-25817D01*
X49467Y-25794D01*
X49412Y-25794D01*
X49412Y-25346D01*
X49467Y-25346D01*
X49522Y-25324D01*
X49564Y-25281D01*
X49587Y-25226D01*
X49587Y-25167D01*
X49587Y-24773D01*
X49564Y-24718D01*
X49522Y-24676D01*
X49467Y-24653D01*
X49407Y-24653D01*
X49162Y-24653D01*
X49162Y-24557D01*
X49162Y-24223D01*
X49162Y-24123D01*
X49162Y-23788D01*
X49100Y-23726D01*
X49037Y-23726D01*
X48937Y-23726D01*
X48845Y-23764D01*
X48775Y-23834D01*
X48737Y-23926D01*
X48737Y-24060D01*
X48800Y-24123D01*
X49162Y-24123D01*
X49162Y-24223D01*
X48800Y-24223D01*
X48737Y-24285D01*
X48737Y-24419D01*
X48775Y-24511D01*
X48845Y-24581D01*
X48937Y-24620D01*
X49037Y-24620D01*
X49100Y-24620D01*
X49162Y-24557D01*
X49162Y-24653D01*
X48957Y-24653D01*
X48902Y-24675D01*
X48860Y-24718D01*
X48837Y-24773D01*
X48837Y-24832D01*
X48837Y-25226D01*
X48860Y-25281D01*
X48902Y-25323D01*
X48957Y-25346D01*
X49012Y-25346D01*
X49012Y-25794D01*
X48957Y-25794D01*
X48902Y-25817D01*
X48860Y-25859D01*
X48837Y-25914D01*
X48837Y-25974D01*
X48837Y-26368D01*
X48860Y-26423D01*
X48902Y-26465D01*
X48957Y-26488D01*
X49017Y-26488D01*
X49467Y-26488D01*
X49522Y-26465D01*
X49564Y-26423D01*
X49587Y-26368D01*
X49587Y-26308D01*
X49587Y-26718D01*
X49577Y-26718D01*
X49564Y-26686D01*
X49522Y-26644D01*
X49467Y-26621D01*
X49407Y-26621D01*
X48957Y-26621D01*
X48902Y-26644D01*
X48860Y-26686D01*
X48847Y-26718D01*
X48260Y-26718D01*
X48260Y-26190D01*
X48237Y-26135D01*
X48195Y-26093D01*
X48140Y-26070D01*
X48124Y-26070D01*
X48124Y-25189D01*
X48139Y-25189D01*
X48195Y-25166D01*
X48237Y-25124D01*
X48260Y-25069D01*
X48260Y-25009D01*
X48260Y-23907D01*
X48237Y-23852D01*
X48195Y-23809D01*
X48140Y-23787D01*
X48080Y-23786D01*
X47608Y-23786D01*
X47552Y-23809D01*
X47510Y-23851D01*
X47487Y-23907D01*
X47487Y-23966D01*
X47487Y-25069D01*
X47510Y-25124D01*
X47552Y-25166D01*
X47607Y-25189D01*
X47624Y-25189D01*
X47624Y-26070D01*
X47608Y-26070D01*
X47552Y-26093D01*
X47510Y-26135D01*
X47487Y-26190D01*
X47487Y-26250D01*
X47487Y-27352D01*
X47510Y-27407D01*
X47552Y-27449D01*
X47607Y-27472D01*
X47667Y-27472D01*
X48139Y-27472D01*
X48195Y-27450D01*
X48237Y-27407D01*
X48260Y-27352D01*
X48260Y-27293D01*
X48260Y-27218D01*
X48847Y-27218D01*
X48860Y-27250D01*
X48902Y-27292D01*
X48957Y-27315D01*
X49017Y-27315D01*
X49467Y-27315D01*
X49522Y-27292D01*
X49564Y-27250D01*
X49577Y-27218D01*
X49581Y-27218D01*
X49868Y-27505D01*
X49868Y-29317D01*
X49842Y-29343D01*
X49793Y-29462D01*
X49793Y-29591D01*
X49842Y-29711D01*
X49933Y-29802D01*
X50011Y-29835D01*
X49976Y-29858D01*
X49779Y-30055D01*
X49757Y-30088D01*
X49757Y-28789D01*
X49757Y-28218D01*
X49719Y-28126D01*
X49649Y-28055D01*
X49557Y-28017D01*
X49458Y-28017D01*
X49482Y-28017D01*
X49420Y-28080D01*
X49420Y-28453D01*
X49695Y-28453D01*
X49757Y-28391D01*
X49757Y-28218D01*
X49757Y-28789D01*
X49757Y-28616D01*
X49695Y-28553D01*
X49420Y-28553D01*
X49420Y-28927D01*
X49482Y-28990D01*
X49458Y-28990D01*
X49557Y-28990D01*
X49649Y-28951D01*
X49719Y-28881D01*
X49757Y-28789D01*
X49757Y-30088D01*
X49736Y-30120D01*
X49723Y-30183D01*
X49719Y-30173D01*
X49649Y-30103D01*
X49557Y-30065D01*
X49458Y-30064D01*
X49482Y-30064D01*
X49420Y-30127D01*
X49420Y-30501D01*
X49427Y-30501D01*
X49427Y-30601D01*
X49420Y-30601D01*
X49420Y-30609D01*
X49320Y-30609D01*
X49320Y-30601D01*
X49320Y-30501D01*
X49320Y-30127D01*
X49320Y-28927D01*
X49320Y-28553D01*
X49320Y-28453D01*
X49320Y-28080D01*
X49257Y-28017D01*
X49281Y-28017D01*
X49182Y-28017D01*
X49090Y-28055D01*
X49020Y-28126D01*
X48982Y-28218D01*
X48982Y-28391D01*
X49044Y-28453D01*
X49320Y-28453D01*
X49320Y-28553D01*
X49044Y-28553D01*
X48982Y-28616D01*
X48982Y-28789D01*
X49020Y-28881D01*
X49090Y-28951D01*
X49182Y-28990D01*
X49281Y-28990D01*
X49257Y-28990D01*
X49320Y-28927D01*
X49320Y-30127D01*
X49257Y-30064D01*
X49281Y-30064D01*
X49182Y-30065D01*
X49090Y-30103D01*
X49020Y-30173D01*
X48982Y-30265D01*
X48982Y-30438D01*
X49044Y-30501D01*
X49320Y-30501D01*
X49320Y-30601D01*
X49044Y-30601D01*
X48982Y-30663D01*
X48982Y-30823D01*
X48552Y-30823D01*
X48555Y-30817D01*
X48555Y-30757D01*
X48555Y-30285D01*
X48532Y-30230D01*
X48490Y-30187D01*
X48467Y-30178D01*
X48467Y-28876D01*
X48490Y-28867D01*
X48532Y-28825D01*
X48555Y-28770D01*
X48555Y-28710D01*
X48555Y-28238D01*
X48532Y-28182D01*
X48490Y-28140D01*
X48463Y-28129D01*
X48452Y-28073D01*
X48452Y-28073D01*
X48409Y-28008D01*
X48356Y-27955D01*
X48356Y-27849D01*
X48307Y-27729D01*
X48215Y-27638D01*
X48096Y-27588D01*
X47967Y-27588D01*
X47847Y-27637D01*
X47756Y-27729D01*
X47715Y-27826D01*
X47265Y-27376D01*
X47275Y-27352D01*
X47276Y-27293D01*
X47276Y-26190D01*
X47253Y-26135D01*
X47211Y-26093D01*
X47155Y-26070D01*
X47096Y-26070D01*
X47089Y-26070D01*
X47089Y-25189D01*
X47155Y-25189D01*
X47210Y-25166D01*
X47253Y-25124D01*
X47275Y-25069D01*
X47276Y-25009D01*
X47276Y-23907D01*
X47253Y-23852D01*
X47211Y-23809D01*
X47155Y-23787D01*
X47096Y-23786D01*
X46623Y-23786D01*
X46568Y-23809D01*
X46526Y-23851D01*
X46503Y-23907D01*
X46503Y-23966D01*
X46503Y-25069D01*
X46526Y-25124D01*
X46568Y-25166D01*
X46623Y-25189D01*
X46683Y-25189D01*
X46689Y-25189D01*
X46689Y-26070D01*
X46623Y-26070D01*
X46568Y-26093D01*
X46526Y-26135D01*
X46503Y-26190D01*
X46503Y-26250D01*
X46503Y-27352D01*
X46526Y-27407D01*
X46568Y-27449D01*
X46623Y-27472D01*
X46683Y-27472D01*
X46796Y-27472D01*
X47516Y-28193D01*
X47516Y-30016D01*
X47441Y-30091D01*
X47391Y-30210D01*
X47391Y-30339D01*
X47440Y-30459D01*
X47532Y-30550D01*
X47651Y-30600D01*
X47780Y-30600D01*
X47900Y-30551D01*
X47979Y-30471D01*
X47979Y-30817D01*
X47982Y-30823D01*
X47293Y-30823D01*
X47295Y-30817D01*
X47295Y-30757D01*
X47295Y-30285D01*
X47272Y-30230D01*
X47230Y-30187D01*
X47207Y-30178D01*
X47207Y-28876D01*
X47230Y-28867D01*
X47272Y-28825D01*
X47295Y-28770D01*
X47295Y-28710D01*
X47295Y-28238D01*
X47272Y-28182D01*
X47230Y-28140D01*
X47175Y-28117D01*
X47115Y-28117D01*
X46840Y-28117D01*
X46785Y-28140D01*
X46742Y-28182D01*
X46741Y-28185D01*
X46716Y-28185D01*
X46641Y-28110D01*
X46521Y-28060D01*
X46392Y-28060D01*
X46391Y-28060D01*
X46391Y-27273D01*
X46391Y-26269D01*
X46391Y-24989D01*
X46391Y-23986D01*
X46391Y-23887D01*
X46353Y-23795D01*
X46283Y-23724D01*
X46191Y-23686D01*
X46018Y-23687D01*
X45955Y-23749D01*
X45955Y-24438D01*
X46329Y-24438D01*
X46391Y-24375D01*
X46391Y-23986D01*
X46391Y-24989D01*
X46391Y-24600D01*
X46329Y-24538D01*
X45955Y-24538D01*
X45955Y-25226D01*
X46018Y-25289D01*
X46191Y-25289D01*
X46283Y-25251D01*
X46353Y-25181D01*
X46391Y-25089D01*
X46391Y-24989D01*
X46391Y-26269D01*
X46391Y-26170D01*
X46353Y-26078D01*
X46283Y-26008D01*
X46191Y-25970D01*
X46018Y-25970D01*
X45955Y-26032D01*
X45955Y-26721D01*
X46329Y-26721D01*
X46391Y-26659D01*
X46391Y-26269D01*
X46391Y-27273D01*
X46391Y-26884D01*
X46329Y-26821D01*
X45955Y-26821D01*
X45955Y-27510D01*
X46018Y-27572D01*
X46191Y-27572D01*
X46283Y-27534D01*
X46353Y-27464D01*
X46391Y-27372D01*
X46391Y-27273D01*
X46391Y-28060D01*
X46272Y-28110D01*
X46255Y-28127D01*
X46255Y-28126D01*
X46185Y-28055D01*
X46093Y-28017D01*
X45993Y-28017D01*
X46018Y-28017D01*
X45955Y-28080D01*
X45955Y-28453D01*
X45963Y-28453D01*
X45963Y-28553D01*
X45955Y-28553D01*
X45955Y-28927D01*
X46018Y-28990D01*
X45993Y-28990D01*
X46093Y-28990D01*
X46185Y-28951D01*
X46255Y-28881D01*
X46293Y-28789D01*
X46293Y-28669D01*
X46391Y-28710D01*
X46521Y-28710D01*
X46640Y-28661D01*
X46716Y-28585D01*
X46720Y-28585D01*
X46720Y-28769D01*
X46742Y-28825D01*
X46784Y-28867D01*
X46807Y-28876D01*
X46807Y-30178D01*
X46785Y-30187D01*
X46742Y-30229D01*
X46720Y-30284D01*
X46720Y-30344D01*
X46720Y-30817D01*
X46722Y-30823D01*
X46293Y-30823D01*
X46293Y-30265D01*
X46255Y-30173D01*
X46185Y-30103D01*
X46093Y-30065D01*
X45993Y-30064D01*
X46018Y-30064D01*
X45955Y-30127D01*
X45955Y-30501D01*
X46230Y-30501D01*
X46293Y-30438D01*
X46293Y-30265D01*
X46293Y-30823D01*
X46293Y-30823D01*
X46293Y-30663D01*
X46230Y-30601D01*
X45955Y-30601D01*
X45955Y-30609D01*
X45855Y-30609D01*
X45855Y-30601D01*
X45855Y-30501D01*
X45855Y-30127D01*
X45855Y-28927D01*
X45855Y-28553D01*
X45855Y-28453D01*
X45855Y-28080D01*
X45855Y-27510D01*
X45855Y-26821D01*
X45855Y-26721D01*
X45855Y-26032D01*
X45855Y-25226D01*
X45855Y-24538D01*
X45855Y-24438D01*
X45855Y-23749D01*
X45793Y-23687D01*
X45619Y-23686D01*
X45527Y-23724D01*
X45457Y-23795D01*
X45419Y-23887D01*
X45419Y-23986D01*
X45419Y-24375D01*
X45481Y-24438D01*
X45855Y-24438D01*
X45855Y-24538D01*
X45481Y-24538D01*
X45419Y-24600D01*
X45419Y-24989D01*
X45419Y-25089D01*
X45457Y-25181D01*
X45527Y-25251D01*
X45619Y-25289D01*
X45793Y-25289D01*
X45855Y-25226D01*
X45855Y-26032D01*
X45793Y-25970D01*
X45619Y-25970D01*
X45527Y-26008D01*
X45457Y-26078D01*
X45419Y-26170D01*
X45419Y-26269D01*
X45419Y-26659D01*
X45481Y-26721D01*
X45855Y-26721D01*
X45855Y-26821D01*
X45481Y-26821D01*
X45419Y-26884D01*
X45419Y-27273D01*
X45419Y-27372D01*
X45457Y-27464D01*
X45527Y-27534D01*
X45619Y-27572D01*
X45793Y-27572D01*
X45855Y-27510D01*
X45855Y-28080D01*
X45793Y-28017D01*
X45817Y-28017D01*
X45717Y-28017D01*
X45625Y-28055D01*
X45555Y-28126D01*
X45517Y-28218D01*
X45517Y-28391D01*
X45580Y-28453D01*
X45855Y-28453D01*
X45855Y-28553D01*
X45580Y-28553D01*
X45517Y-28616D01*
X45517Y-28789D01*
X45555Y-28881D01*
X45625Y-28951D01*
X45717Y-28990D01*
X45817Y-28990D01*
X45793Y-28990D01*
X45855Y-28927D01*
X45855Y-30127D01*
X45793Y-30064D01*
X45817Y-30064D01*
X45717Y-30065D01*
X45625Y-30103D01*
X45555Y-30173D01*
X45517Y-30265D01*
X45517Y-30438D01*
X45580Y-30501D01*
X45855Y-30501D01*
X45855Y-30601D01*
X45580Y-30601D01*
X45517Y-30663D01*
X45517Y-30823D01*
X45279Y-30823D01*
X45042Y-30586D01*
X45042Y-29330D01*
X45029Y-29266D01*
X45027Y-29254D01*
X45027Y-29254D01*
X45006Y-29222D01*
X45024Y-29222D01*
X45144Y-29173D01*
X45235Y-29081D01*
X45285Y-28962D01*
X45285Y-28833D01*
X45236Y-28713D01*
X45160Y-28637D01*
X45160Y-28212D01*
X45235Y-28137D01*
X45285Y-28017D01*
X45285Y-27888D01*
X45236Y-27768D01*
X45144Y-27677D01*
X45025Y-27627D01*
X44896Y-27627D01*
X44776Y-27677D01*
X44685Y-27768D01*
X44638Y-27881D01*
X44638Y-25127D01*
X44638Y-24340D01*
X44615Y-24285D01*
X44573Y-24242D01*
X44518Y-24220D01*
X44458Y-24220D01*
X42096Y-24220D01*
X42041Y-24242D01*
X41998Y-24284D01*
X41976Y-24340D01*
X41975Y-24399D01*
X41975Y-25187D01*
X41998Y-25242D01*
X42040Y-25284D01*
X42096Y-25307D01*
X42155Y-25307D01*
X42480Y-25307D01*
X42364Y-25423D01*
X42258Y-25422D01*
X42138Y-25472D01*
X42047Y-25563D01*
X41997Y-25683D01*
X41997Y-25812D01*
X42047Y-25931D01*
X42138Y-26023D01*
X42257Y-26072D01*
X42387Y-26073D01*
X42506Y-26023D01*
X42598Y-25932D01*
X42647Y-25812D01*
X42647Y-25705D01*
X43046Y-25307D01*
X44517Y-25307D01*
X44573Y-25284D01*
X44615Y-25242D01*
X44638Y-25187D01*
X44638Y-25127D01*
X44638Y-27881D01*
X44635Y-27887D01*
X44635Y-28017D01*
X44684Y-28136D01*
X44760Y-28212D01*
X44760Y-28638D01*
X44685Y-28713D01*
X44635Y-28832D01*
X44635Y-28841D01*
X44511Y-28716D01*
X44446Y-28673D01*
X44370Y-28658D01*
X43791Y-28658D01*
X43828Y-28568D01*
X43828Y-28439D01*
X43779Y-28320D01*
X43710Y-28251D01*
X43710Y-26431D01*
X43661Y-26312D01*
X43570Y-26220D01*
X43450Y-26171D01*
X43321Y-26171D01*
X43201Y-26220D01*
X43165Y-26256D01*
X42795Y-26256D01*
X42718Y-26271D01*
X42653Y-26315D01*
X42610Y-26380D01*
X42595Y-26456D01*
X42610Y-26533D01*
X42653Y-26598D01*
X42718Y-26641D01*
X42795Y-26656D01*
X43100Y-26656D01*
X43110Y-26679D01*
X43201Y-26771D01*
X43320Y-26821D01*
X43450Y-26821D01*
X43569Y-26771D01*
X43661Y-26680D01*
X43710Y-26560D01*
X43710Y-26431D01*
X43710Y-28251D01*
X43688Y-28228D01*
X43568Y-28178D01*
X43439Y-28178D01*
X43349Y-28216D01*
X43349Y-27834D01*
X43336Y-27770D01*
X43334Y-27758D01*
X43334Y-27758D01*
X43291Y-27693D01*
X42818Y-27220D01*
X42753Y-27177D01*
X42677Y-27162D01*
X42051Y-27162D01*
X41755Y-26866D01*
X41690Y-26823D01*
X41614Y-26807D01*
X40701Y-26807D01*
X40701Y-25127D01*
X40701Y-24340D01*
X40678Y-24285D01*
X40636Y-24242D01*
X40581Y-24220D01*
X40521Y-24220D01*
X38159Y-24220D01*
X38104Y-24242D01*
X38061Y-24284D01*
X38039Y-24340D01*
X38038Y-24399D01*
X38038Y-25187D01*
X38061Y-25242D01*
X38103Y-25284D01*
X38159Y-25307D01*
X38218Y-25307D01*
X39591Y-25307D01*
X39950Y-25666D01*
X39950Y-25773D01*
X39999Y-25892D01*
X40091Y-25984D01*
X40210Y-26033D01*
X40339Y-26033D01*
X40459Y-25984D01*
X40550Y-25892D01*
X40600Y-25773D01*
X40600Y-25644D01*
X40551Y-25524D01*
X40459Y-25433D01*
X40340Y-25383D01*
X40233Y-25383D01*
X40157Y-25307D01*
X40580Y-25307D01*
X40636Y-25284D01*
X40678Y-25242D01*
X40701Y-25187D01*
X40701Y-25127D01*
X40701Y-26807D01*
X38783Y-26807D01*
X38757Y-26781D01*
X38818Y-26719D01*
X38868Y-26600D01*
X38868Y-26471D01*
X38818Y-26351D01*
X38727Y-26260D01*
X38608Y-26210D01*
X38478Y-26210D01*
X38359Y-26259D01*
X38310Y-26308D01*
X38310Y-26144D01*
X38412Y-26102D01*
X38503Y-26011D01*
X38553Y-25891D01*
X38553Y-25762D01*
X38504Y-25642D01*
X38412Y-25551D01*
X38293Y-25501D01*
X38163Y-25501D01*
X38044Y-25551D01*
X38034Y-25560D01*
X38034Y-24212D01*
X38021Y-24148D01*
X38019Y-24136D01*
X38019Y-24136D01*
X37976Y-24071D01*
X37763Y-23858D01*
X37698Y-23815D01*
X37622Y-23800D01*
X37450Y-23800D01*
X37450Y-23670D01*
X37427Y-23615D01*
X37385Y-23572D01*
X37329Y-23550D01*
X37270Y-23549D01*
X36670Y-23549D01*
X36615Y-23572D01*
X36572Y-23614D01*
X36550Y-23670D01*
X36549Y-23729D01*
X36549Y-24329D01*
X36572Y-24384D01*
X36614Y-24427D01*
X36670Y-24449D01*
X36729Y-24450D01*
X37329Y-24450D01*
X37384Y-24427D01*
X37427Y-24385D01*
X37449Y-24329D01*
X37450Y-24270D01*
X37450Y-24200D01*
X37539Y-24200D01*
X37634Y-24295D01*
X37634Y-25028D01*
X37464Y-24858D01*
X37414Y-24825D01*
X37381Y-24745D01*
X37255Y-24618D01*
X37089Y-24550D01*
X36910Y-24549D01*
X36745Y-24618D01*
X36618Y-24744D01*
X36550Y-24910D01*
X36549Y-25089D01*
X36618Y-25254D01*
X36744Y-25381D01*
X36910Y-25449D01*
X37089Y-25450D01*
X37254Y-25381D01*
X37338Y-25298D01*
X37398Y-25358D01*
X37398Y-25785D01*
X37381Y-25745D01*
X37255Y-25618D01*
X37089Y-25550D01*
X36910Y-25549D01*
X36745Y-25618D01*
X36618Y-25744D01*
X36550Y-25910D01*
X36549Y-26089D01*
X36618Y-26254D01*
X36744Y-26381D01*
X36910Y-26449D01*
X36986Y-26449D01*
X36863Y-26456D01*
X36712Y-26518D01*
X36684Y-26614D01*
X37000Y-26929D01*
X37315Y-26614D01*
X37287Y-26518D01*
X37092Y-26448D01*
X37254Y-26381D01*
X37381Y-26255D01*
X37398Y-26213D01*
X37398Y-26688D01*
X37385Y-26684D01*
X37070Y-27000D01*
X37385Y-27315D01*
X37411Y-27307D01*
X37413Y-27320D01*
X37457Y-27385D01*
X37627Y-27556D01*
X37627Y-27662D01*
X37677Y-27782D01*
X37694Y-27800D01*
X37404Y-27800D01*
X37381Y-27745D01*
X37255Y-27618D01*
X37089Y-27550D01*
X37013Y-27550D01*
X37136Y-27543D01*
X37287Y-27481D01*
X37315Y-27385D01*
X37000Y-27070D01*
X36929Y-27141D01*
X36929Y-27000D01*
X36614Y-26684D01*
X36518Y-26712D01*
X36445Y-26918D01*
X36456Y-27136D01*
X36518Y-27287D01*
X36614Y-27315D01*
X36929Y-27000D01*
X36929Y-27141D01*
X36684Y-27385D01*
X36712Y-27481D01*
X36907Y-27551D01*
X36745Y-27618D01*
X36618Y-27744D01*
X36550Y-27910D01*
X36549Y-28089D01*
X36618Y-28254D01*
X36744Y-28381D01*
X36910Y-28449D01*
X37089Y-28450D01*
X37254Y-28381D01*
X37381Y-28255D01*
X37404Y-28200D01*
X38682Y-28200D01*
X38082Y-28800D01*
X37404Y-28800D01*
X37381Y-28745D01*
X37255Y-28618D01*
X37089Y-28550D01*
X36910Y-28549D01*
X36745Y-28618D01*
X36618Y-28744D01*
X36550Y-28910D01*
X36549Y-29089D01*
X36618Y-29254D01*
X36744Y-29381D01*
X36910Y-29449D01*
X37089Y-29450D01*
X37254Y-29381D01*
X37381Y-29255D01*
X37404Y-29200D01*
X38165Y-29200D01*
X38241Y-29184D01*
X38306Y-29141D01*
X39177Y-28270D01*
X39280Y-28270D01*
X37751Y-29800D01*
X37404Y-29800D01*
X37381Y-29745D01*
X37255Y-29618D01*
X37089Y-29550D01*
X36910Y-29549D01*
X36745Y-29618D01*
X36618Y-29744D01*
X36550Y-29910D01*
X36549Y-30089D01*
X36618Y-30254D01*
X36744Y-30381D01*
X36910Y-30449D01*
X37089Y-30450D01*
X37254Y-30381D01*
X37381Y-30255D01*
X37404Y-30200D01*
X37834Y-30200D01*
X37911Y-30184D01*
X37976Y-30141D01*
X38060Y-30056D01*
X38060Y-30103D01*
X38110Y-30223D01*
X38201Y-30314D01*
X38320Y-30364D01*
X38450Y-30364D01*
X38569Y-30315D01*
X38661Y-30223D01*
X38710Y-30104D01*
X38710Y-29975D01*
X38661Y-29855D01*
X38658Y-29852D01*
X38823Y-29688D01*
X38909Y-29688D01*
X38882Y-29714D01*
X38757Y-29840D01*
X38734Y-29895D01*
X38734Y-29954D01*
X38756Y-30010D01*
X38799Y-30052D01*
X38914Y-30168D01*
X38856Y-30226D01*
X38754Y-30226D01*
X38635Y-30275D01*
X38543Y-30366D01*
X38493Y-30486D01*
X38493Y-30615D01*
X38543Y-30735D01*
X38634Y-30826D01*
X38753Y-30876D01*
X38883Y-30876D01*
X39002Y-30826D01*
X39094Y-30735D01*
X39143Y-30616D01*
X39143Y-30504D01*
X39197Y-30450D01*
X39355Y-30608D01*
X39410Y-30631D01*
X39470Y-30631D01*
X39525Y-30608D01*
X39567Y-30566D01*
X39692Y-30441D01*
X39709Y-30402D01*
X39748Y-30386D01*
X39790Y-30344D01*
X39906Y-30228D01*
X40186Y-30509D01*
X40186Y-30615D01*
X40236Y-30735D01*
X40327Y-30826D01*
X40446Y-30876D01*
X40533Y-30876D01*
X40357Y-31052D01*
X40250Y-31052D01*
X40131Y-31102D01*
X40039Y-31193D01*
X40008Y-31268D01*
X39970Y-31230D01*
X39928Y-31213D01*
X39911Y-31171D01*
X39869Y-31129D01*
X39744Y-31004D01*
X39707Y-30989D01*
X39692Y-30952D01*
X39650Y-30910D01*
X39525Y-30785D01*
X39469Y-30762D01*
X39410Y-30762D01*
X39355Y-30785D01*
X39312Y-30827D01*
X38756Y-31383D01*
X38733Y-31438D01*
X38733Y-31461D01*
X38465Y-31729D01*
X37799Y-31729D01*
X37680Y-31610D01*
X37680Y-31141D01*
X37680Y-31141D01*
X37665Y-31065D01*
X37665Y-31065D01*
X37650Y-31043D01*
X37621Y-31000D01*
X37621Y-31000D01*
X37480Y-30858D01*
X37415Y-30815D01*
X37410Y-30814D01*
X37381Y-30745D01*
X37255Y-30618D01*
X37089Y-30550D01*
X36910Y-30549D01*
X36745Y-30618D01*
X36618Y-30744D01*
X36550Y-30910D01*
X36549Y-31089D01*
X36618Y-31254D01*
X36744Y-31381D01*
X36910Y-31449D01*
X37089Y-31450D01*
X37254Y-31381D01*
X37280Y-31356D01*
X37280Y-31643D01*
X37255Y-31618D01*
X37089Y-31550D01*
X36910Y-31549D01*
X36745Y-31618D01*
X36618Y-31744D01*
X36550Y-31910D01*
X36549Y-32089D01*
X36618Y-32254D01*
X36744Y-32381D01*
X36910Y-32449D01*
X37089Y-32450D01*
X37254Y-32381D01*
X37270Y-32365D01*
X37430Y-32365D01*
X37338Y-32457D01*
X37295Y-32521D01*
X37280Y-32598D01*
X37280Y-32643D01*
X37255Y-32618D01*
X37089Y-32550D01*
X36910Y-32549D01*
X36745Y-32618D01*
X36618Y-32744D01*
X36550Y-32910D01*
X36549Y-33089D01*
X36618Y-33254D01*
X36744Y-33381D01*
X36910Y-33449D01*
X37089Y-33450D01*
X37254Y-33381D01*
X37319Y-33316D01*
X37319Y-33683D01*
X37255Y-33618D01*
X37089Y-33550D01*
X36910Y-33549D01*
X36745Y-33618D01*
X36618Y-33744D01*
X36550Y-33910D01*
X36549Y-34089D01*
X36618Y-34254D01*
X36744Y-34381D01*
X36910Y-34449D01*
X37089Y-34450D01*
X37254Y-34381D01*
X37381Y-34255D01*
X37423Y-34152D01*
X37440Y-34141D01*
X37555Y-34026D01*
X37555Y-34484D01*
X37338Y-34701D01*
X37255Y-34618D01*
X37089Y-34550D01*
X36910Y-34549D01*
X36745Y-34618D01*
X36618Y-34744D01*
X36550Y-34910D01*
X36549Y-35089D01*
X36618Y-35254D01*
X36744Y-35381D01*
X36910Y-35449D01*
X37089Y-35450D01*
X37254Y-35381D01*
X37381Y-35255D01*
X37414Y-35174D01*
X37464Y-35141D01*
X37792Y-34813D01*
X37792Y-35468D01*
X37460Y-35800D01*
X37404Y-35800D01*
X37381Y-35745D01*
X37255Y-35618D01*
X37089Y-35550D01*
X36910Y-35549D01*
X36745Y-35618D01*
X36618Y-35744D01*
X36550Y-35910D01*
X36549Y-36089D01*
X36618Y-36254D01*
X36744Y-36381D01*
X36910Y-36449D01*
X37089Y-36450D01*
X37254Y-36381D01*
X37381Y-36255D01*
X37404Y-36200D01*
X37543Y-36200D01*
X37619Y-36184D01*
X37684Y-36141D01*
X38028Y-35797D01*
X38028Y-36176D01*
X37405Y-36800D01*
X37404Y-36800D01*
X37381Y-36745D01*
X37255Y-36618D01*
X37089Y-36550D01*
X36910Y-36549D01*
X36745Y-36618D01*
X36618Y-36744D01*
X36550Y-36910D01*
X36549Y-37089D01*
X36618Y-37254D01*
X36744Y-37381D01*
X36910Y-37449D01*
X37089Y-37450D01*
X37254Y-37381D01*
X37381Y-37255D01*
X37404Y-37200D01*
X37488Y-37200D01*
X37564Y-37184D01*
X37629Y-37141D01*
X38303Y-36467D01*
X38303Y-37318D01*
X37822Y-37800D01*
X37404Y-37800D01*
X37381Y-37745D01*
X37255Y-37618D01*
X37089Y-37550D01*
X36910Y-37549D01*
X36745Y-37618D01*
X36618Y-37744D01*
X36550Y-37910D01*
X36549Y-38089D01*
X36618Y-38254D01*
X36744Y-38381D01*
X36910Y-38449D01*
X37089Y-38450D01*
X37254Y-38381D01*
X37381Y-38255D01*
X37404Y-38200D01*
X37816Y-38200D01*
X37771Y-38244D01*
X37728Y-38309D01*
X37713Y-38385D01*
X37713Y-40665D01*
X37578Y-40800D01*
X37450Y-40800D01*
X37450Y-39910D01*
X37450Y-39910D01*
X37450Y-39270D01*
X37450Y-38670D01*
X37427Y-38615D01*
X37385Y-38572D01*
X37329Y-38550D01*
X37270Y-38549D01*
X36670Y-38549D01*
X36615Y-38572D01*
X36572Y-38614D01*
X36550Y-38670D01*
X36549Y-38729D01*
X36549Y-39329D01*
X36572Y-39384D01*
X36614Y-39427D01*
X36670Y-39449D01*
X36729Y-39450D01*
X37329Y-39450D01*
X37384Y-39427D01*
X37427Y-39385D01*
X37449Y-39329D01*
X37450Y-39270D01*
X37450Y-39910D01*
X37381Y-39745D01*
X37255Y-39618D01*
X37089Y-39550D01*
X36910Y-39549D01*
X36745Y-39618D01*
X36618Y-39744D01*
X36550Y-39910D01*
X36549Y-40089D01*
X36618Y-40254D01*
X36744Y-40381D01*
X36910Y-40449D01*
X37089Y-40450D01*
X37254Y-40381D01*
X37381Y-40255D01*
X37449Y-40089D01*
X37450Y-39910D01*
X37450Y-40800D01*
X37404Y-40800D01*
X37381Y-40745D01*
X37255Y-40618D01*
X37089Y-40550D01*
X36910Y-40549D01*
X36745Y-40618D01*
X36618Y-40744D01*
X36550Y-40910D01*
X36549Y-41089D01*
X36618Y-41254D01*
X36744Y-41381D01*
X36910Y-41449D01*
X37089Y-41450D01*
X37254Y-41381D01*
X37381Y-41255D01*
X37404Y-41200D01*
X37661Y-41200D01*
X37737Y-41184D01*
X37802Y-41141D01*
X37988Y-40955D01*
X37988Y-41373D01*
X37562Y-41800D01*
X37404Y-41800D01*
X37381Y-41745D01*
X37255Y-41618D01*
X37089Y-41550D01*
X36910Y-41549D01*
X36745Y-41618D01*
X36618Y-41744D01*
X36550Y-41910D01*
X36549Y-42089D01*
X36618Y-42254D01*
X36744Y-42381D01*
X36910Y-42449D01*
X37089Y-42450D01*
X37254Y-42381D01*
X37381Y-42255D01*
X37404Y-42200D01*
X37645Y-42200D01*
X37722Y-42184D01*
X37787Y-42141D01*
X38330Y-41598D01*
X38330Y-41598D01*
X38359Y-41554D01*
X38373Y-41533D01*
X38373Y-41533D01*
X38388Y-41456D01*
X38388Y-41456D01*
X38388Y-38547D01*
X39196Y-37739D01*
X39196Y-37739D01*
X39225Y-37696D01*
X39239Y-37674D01*
X39239Y-37674D01*
X39255Y-37598D01*
X39255Y-37598D01*
X39255Y-36893D01*
X39374Y-36774D01*
X39535Y-36774D01*
X39535Y-36781D01*
X39535Y-36783D01*
X39473Y-36846D01*
X39435Y-36938D01*
X39434Y-37037D01*
X39435Y-37052D01*
X39497Y-37115D01*
X40028Y-37115D01*
X40028Y-37107D01*
X40128Y-37107D01*
X40128Y-37115D01*
X40659Y-37115D01*
X40722Y-37052D01*
X40722Y-37037D01*
X40722Y-36938D01*
X40684Y-36846D01*
X40621Y-36783D01*
X40622Y-36781D01*
X40622Y-36774D01*
X41019Y-36774D01*
X41315Y-37070D01*
X41512Y-37267D01*
X41512Y-37267D01*
X41555Y-37296D01*
X41577Y-37310D01*
X41577Y-37310D01*
X41653Y-37325D01*
X41653Y-37325D01*
X41827Y-37325D01*
X41902Y-37401D01*
X42021Y-37450D01*
X42150Y-37451D01*
X42270Y-37401D01*
X42361Y-37310D01*
X42411Y-37190D01*
X42411Y-37061D01*
X42362Y-36942D01*
X42270Y-36850D01*
X42190Y-36817D01*
X42214Y-36757D01*
X42214Y-36628D01*
X42165Y-36509D01*
X42074Y-36417D01*
X41954Y-36367D01*
X41825Y-36367D01*
X41757Y-36395D01*
X41637Y-36275D01*
X41637Y-36275D01*
X41637Y-36275D01*
X41204Y-35842D01*
X41139Y-35799D01*
X41062Y-35784D01*
X40622Y-35784D01*
X40622Y-35777D01*
X40599Y-35722D01*
X40566Y-35688D01*
X40599Y-35655D01*
X40622Y-35600D01*
X40622Y-35541D01*
X40622Y-35244D01*
X40629Y-35262D01*
X40721Y-35354D01*
X40840Y-35403D01*
X40969Y-35403D01*
X41089Y-35354D01*
X41180Y-35263D01*
X41230Y-35143D01*
X41230Y-35014D01*
X41181Y-34894D01*
X41089Y-34803D01*
X40970Y-34753D01*
X40850Y-34753D01*
X40824Y-34736D01*
X40748Y-34721D01*
X40314Y-34721D01*
X40238Y-34736D01*
X40173Y-34779D01*
X39937Y-35016D01*
X39903Y-35066D01*
X39655Y-35066D01*
X39600Y-35089D01*
X39557Y-35131D01*
X39535Y-35186D01*
X39535Y-35246D01*
X39535Y-35600D01*
X39557Y-35655D01*
X39591Y-35688D01*
X39557Y-35722D01*
X39535Y-35777D01*
X39535Y-35784D01*
X39173Y-35784D01*
X39096Y-35799D01*
X39031Y-35842D01*
X38703Y-36170D01*
X38703Y-34019D01*
X38823Y-33900D01*
X39902Y-33900D01*
X39978Y-33885D01*
X40043Y-33842D01*
X40579Y-33306D01*
X40601Y-33306D01*
X40656Y-33283D01*
X40698Y-33241D01*
X41138Y-32801D01*
X41138Y-32989D01*
X41036Y-33031D01*
X40945Y-33122D01*
X40895Y-33242D01*
X40895Y-33371D01*
X40944Y-33490D01*
X41036Y-33582D01*
X41155Y-33632D01*
X41284Y-33632D01*
X41404Y-33582D01*
X41495Y-33491D01*
X41545Y-33372D01*
X41545Y-33242D01*
X41533Y-33213D01*
X41538Y-33188D01*
X41538Y-32801D01*
X42013Y-33276D01*
X42068Y-33299D01*
X42091Y-33299D01*
X42554Y-33763D01*
X42554Y-33763D01*
X42598Y-33792D01*
X42619Y-33806D01*
X42619Y-33806D01*
X42696Y-33822D01*
X43814Y-33822D01*
X43973Y-33980D01*
X43973Y-34049D01*
X43962Y-34045D01*
X43833Y-34045D01*
X43713Y-34094D01*
X43622Y-34185D01*
X43572Y-34305D01*
X43572Y-34392D01*
X43409Y-34228D01*
X43344Y-34185D01*
X43267Y-34170D01*
X42214Y-34170D01*
X42214Y-34069D01*
X42165Y-33950D01*
X42074Y-33858D01*
X41954Y-33808D01*
X41825Y-33808D01*
X41705Y-33858D01*
X41614Y-33949D01*
X41564Y-34068D01*
X41564Y-34198D01*
X41614Y-34317D01*
X41705Y-34409D01*
X41824Y-34458D01*
X41931Y-34458D01*
X41984Y-34511D01*
X42049Y-34554D01*
X42049Y-34554D01*
X42125Y-34570D01*
X43184Y-34570D01*
X43211Y-34596D01*
X43203Y-34596D01*
X43083Y-34645D01*
X42992Y-34736D01*
X42942Y-34856D01*
X42942Y-34985D01*
X42992Y-35105D01*
X43083Y-35196D01*
X43121Y-35212D01*
X43126Y-35220D01*
X43742Y-35836D01*
X43740Y-35839D01*
X43690Y-35958D01*
X43690Y-36087D01*
X43740Y-36207D01*
X43831Y-36298D01*
X43950Y-36348D01*
X44080Y-36348D01*
X44199Y-36299D01*
X44291Y-36207D01*
X44340Y-36088D01*
X44340Y-35959D01*
X44291Y-35839D01*
X44200Y-35748D01*
X44198Y-35747D01*
X44198Y-35747D01*
X44186Y-35728D01*
X44157Y-35685D01*
X44157Y-35685D01*
X43553Y-35081D01*
X43592Y-34986D01*
X43592Y-34977D01*
X43697Y-35082D01*
X43697Y-35082D01*
X43697Y-35082D01*
X43913Y-35298D01*
X43913Y-35298D01*
X43921Y-35304D01*
X43921Y-35304D01*
X43936Y-35341D01*
X44028Y-35432D01*
X44147Y-35482D01*
X44276Y-35482D01*
X44320Y-35464D01*
X44320Y-35536D01*
X44369Y-35656D01*
X44461Y-35747D01*
X44580Y-35797D01*
X44687Y-35797D01*
X44918Y-36027D01*
X44918Y-36968D01*
X44933Y-37045D01*
X44976Y-37109D01*
X45941Y-38074D01*
X45941Y-38710D01*
X45892Y-38661D01*
X45773Y-38612D01*
X45644Y-38611D01*
X45524Y-38661D01*
X45433Y-38752D01*
X45383Y-38872D01*
X45383Y-38979D01*
X44813Y-39549D01*
X44813Y-39030D01*
X44763Y-38910D01*
X44672Y-38819D01*
X44553Y-38769D01*
X44516Y-38769D01*
X44143Y-38396D01*
X44143Y-38360D01*
X44094Y-38241D01*
X44003Y-38149D01*
X43883Y-38100D01*
X43754Y-38100D01*
X43635Y-38149D01*
X43543Y-38240D01*
X43493Y-38360D01*
X43493Y-38489D01*
X43543Y-38609D01*
X43634Y-38700D01*
X43753Y-38750D01*
X43790Y-38750D01*
X44163Y-39123D01*
X44163Y-39158D01*
X44212Y-39278D01*
X44303Y-39369D01*
X44423Y-39419D01*
X44552Y-39419D01*
X44672Y-39370D01*
X44763Y-39278D01*
X44813Y-39159D01*
X44813Y-39030D01*
X44813Y-39549D01*
X44799Y-39563D01*
X42289Y-39563D01*
X42293Y-39553D01*
X42293Y-39423D01*
X42244Y-39304D01*
X42172Y-39232D01*
X42243Y-39160D01*
X42293Y-39041D01*
X42293Y-38912D01*
X42244Y-38792D01*
X42152Y-38701D01*
X42033Y-38651D01*
X41904Y-38651D01*
X41784Y-38700D01*
X41742Y-38742D01*
X41735Y-38736D01*
X41735Y-37913D01*
X41735Y-37913D01*
X41720Y-37836D01*
X41720Y-37836D01*
X41705Y-37815D01*
X41676Y-37771D01*
X41676Y-37771D01*
X41663Y-37758D01*
X41663Y-37652D01*
X41614Y-37532D01*
X41522Y-37441D01*
X41403Y-37391D01*
X41274Y-37391D01*
X41154Y-37440D01*
X41063Y-37532D01*
X41032Y-37605D01*
X40982Y-37571D01*
X40905Y-37555D01*
X40622Y-37555D01*
X40622Y-37549D01*
X40621Y-37546D01*
X40684Y-37484D01*
X40722Y-37392D01*
X40722Y-37293D01*
X40722Y-37277D01*
X40659Y-37215D01*
X40128Y-37215D01*
X40128Y-37223D01*
X40028Y-37223D01*
X40028Y-37215D01*
X39497Y-37215D01*
X39435Y-37277D01*
X39434Y-37293D01*
X39435Y-37392D01*
X39473Y-37484D01*
X39535Y-37546D01*
X39535Y-37548D01*
X39535Y-37608D01*
X39535Y-37962D01*
X39557Y-38017D01*
X39591Y-38051D01*
X39557Y-38084D01*
X39535Y-38139D01*
X39535Y-38198D01*
X39535Y-38553D01*
X39557Y-38608D01*
X39591Y-38641D01*
X39557Y-38674D01*
X39535Y-38729D01*
X39535Y-38789D01*
X39535Y-39143D01*
X39555Y-39194D01*
X39419Y-39057D01*
X39419Y-38951D01*
X39370Y-38831D01*
X39278Y-38740D01*
X39159Y-38690D01*
X39030Y-38690D01*
X38910Y-38740D01*
X38819Y-38831D01*
X38769Y-38950D01*
X38769Y-39080D01*
X38818Y-39199D01*
X38910Y-39291D01*
X39029Y-39340D01*
X39136Y-39340D01*
X39464Y-39668D01*
X39464Y-39668D01*
X39508Y-39697D01*
X39529Y-39712D01*
X39529Y-39712D01*
X39535Y-39713D01*
X39535Y-39734D01*
X39535Y-39736D01*
X39473Y-39799D01*
X39435Y-39890D01*
X39434Y-39990D01*
X39435Y-40005D01*
X39497Y-40068D01*
X40028Y-40068D01*
X40028Y-40060D01*
X40128Y-40060D01*
X40128Y-40068D01*
X40659Y-40068D01*
X40722Y-40005D01*
X40722Y-39990D01*
X40722Y-39890D01*
X40684Y-39799D01*
X40621Y-39736D01*
X40622Y-39734D01*
X40622Y-39675D01*
X40622Y-39320D01*
X40599Y-39265D01*
X40566Y-39232D01*
X40599Y-39199D01*
X40622Y-39144D01*
X40622Y-39084D01*
X40622Y-38730D01*
X40599Y-38674D01*
X40566Y-38641D01*
X40579Y-38628D01*
X40683Y-38671D01*
X40812Y-38671D01*
X40931Y-38622D01*
X40981Y-38573D01*
X40981Y-38937D01*
X40996Y-39013D01*
X41039Y-39078D01*
X41590Y-39629D01*
X41590Y-39629D01*
X41634Y-39658D01*
X41655Y-39672D01*
X41655Y-39672D01*
X41703Y-39682D01*
X41764Y-39744D01*
X41693Y-39815D01*
X41643Y-39935D01*
X41643Y-40064D01*
X41692Y-40183D01*
X41784Y-40275D01*
X41903Y-40324D01*
X42032Y-40325D01*
X42152Y-40275D01*
X42243Y-40184D01*
X42293Y-40064D01*
X42293Y-39963D01*
X44881Y-39963D01*
X44958Y-39948D01*
X45023Y-39905D01*
X45666Y-39261D01*
X45773Y-39262D01*
X45892Y-39212D01*
X45941Y-39163D01*
X45941Y-39212D01*
X45956Y-39289D01*
X46000Y-39354D01*
X46315Y-39668D01*
X46315Y-39668D01*
X46358Y-39697D01*
X46380Y-39712D01*
X46380Y-39712D01*
X46456Y-39727D01*
X46456Y-39727D01*
X46621Y-39727D01*
X46621Y-39734D01*
X46644Y-39789D01*
X46677Y-39822D01*
X46644Y-39855D01*
X46621Y-39910D01*
X46621Y-39970D01*
X46621Y-40324D01*
X46644Y-40380D01*
X46686Y-40422D01*
X46741Y-40445D01*
X46801Y-40445D01*
X47588Y-40445D01*
X47643Y-40422D01*
X47686Y-40380D01*
X47691Y-40368D01*
X47927Y-40368D01*
X48135Y-40575D01*
X48135Y-40813D01*
X48110Y-40839D01*
X48060Y-40958D01*
X48060Y-41087D01*
X48110Y-41207D01*
X48201Y-41298D01*
X48320Y-41348D01*
X48450Y-41348D01*
X48569Y-41299D01*
X48661Y-41207D01*
X48710Y-41088D01*
X48710Y-40959D01*
X48661Y-40839D01*
X48635Y-40814D01*
X48635Y-40564D01*
X48779Y-40564D01*
X48875Y-40545D01*
X48956Y-40491D01*
X49468Y-39979D01*
X49468Y-39979D01*
X49468Y-39979D01*
X49743Y-39704D01*
X49743Y-39704D01*
X49743Y-39704D01*
X49776Y-39655D01*
X49797Y-39623D01*
X49797Y-39623D01*
X49816Y-39527D01*
X49816Y-39343D01*
X49842Y-39318D01*
X49891Y-39198D01*
X49891Y-39069D01*
X49866Y-39007D01*
X50114Y-39256D01*
X50114Y-39685D01*
X50130Y-39761D01*
X50173Y-39826D01*
X50488Y-40141D01*
X50488Y-40141D01*
X50531Y-40170D01*
X50553Y-40184D01*
X50553Y-40184D01*
X50592Y-40192D01*
X50618Y-40254D01*
X50744Y-40381D01*
X50910Y-40449D01*
X51089Y-40450D01*
X51254Y-40381D01*
X51381Y-40255D01*
X51449Y-40089D01*
X51450Y-39910D01*
X51450Y-40910D01*
X51381Y-40745D01*
X51255Y-40618D01*
X51089Y-40550D01*
X50910Y-40549D01*
X50745Y-40618D01*
X50618Y-40744D01*
X50550Y-40910D01*
X50549Y-41089D01*
X50618Y-41254D01*
X50744Y-41381D01*
X50910Y-41449D01*
X51089Y-41450D01*
X51254Y-41381D01*
X51381Y-41255D01*
X51449Y-41089D01*
X51450Y-40910D01*
X51450Y-42743D01*
X51450Y-42743D01*
X51450Y-42270D01*
X51450Y-41670D01*
X51427Y-41615D01*
X51385Y-41572D01*
X51329Y-41550D01*
X51270Y-41549D01*
X50670Y-41549D01*
X50615Y-41572D01*
X50572Y-41614D01*
X50550Y-41670D01*
X50549Y-41729D01*
X50549Y-41800D01*
X49684Y-41800D01*
X49645Y-41705D01*
X49554Y-41614D01*
X49435Y-41564D01*
X49305Y-41564D01*
X49186Y-41614D01*
X49094Y-41705D01*
X49045Y-41824D01*
X49045Y-41954D01*
X49094Y-42073D01*
X49185Y-42165D01*
X49305Y-42214D01*
X49434Y-42214D01*
X49473Y-42198D01*
X49480Y-42199D01*
X49480Y-42200D01*
X50549Y-42200D01*
X50549Y-42329D01*
X50572Y-42384D01*
X50614Y-42427D01*
X50670Y-42449D01*
X50729Y-42450D01*
X51329Y-42450D01*
X51384Y-42427D01*
X51427Y-42385D01*
X51449Y-42329D01*
X51450Y-42270D01*
X51450Y-42743D01*
X47175Y-42743D01*
X47175Y-40897D01*
X47130Y-40760D01*
X47037Y-40667D01*
X46940Y-40619D01*
X40722Y-40619D01*
X40722Y-40245D01*
X40722Y-40230D01*
X40659Y-40168D01*
X40128Y-40168D01*
X40128Y-40482D01*
X40191Y-40545D01*
X40521Y-40545D01*
X40613Y-40507D01*
X40684Y-40437D01*
X40722Y-40345D01*
X40722Y-40245D01*
X40722Y-40619D01*
X40393Y-40619D01*
X40263Y-40619D01*
X40167Y-40667D01*
X40077Y-40757D01*
X40028Y-40854D01*
X40028Y-40482D01*
X40028Y-40168D01*
X39497Y-40168D01*
X39435Y-40230D01*
X39434Y-40245D01*
X39435Y-40345D01*
X39473Y-40437D01*
X39543Y-40507D01*
X39635Y-40545D01*
X39966Y-40545D01*
X40028Y-40482D01*
X40028Y-40854D01*
X40028Y-42743D01*
X36434Y-42743D01*
X36408Y-42738D01*
X36400Y-42733D01*
X36395Y-42725D01*
X36390Y-42699D01*
X36390Y-23441D01*
X36395Y-23416D01*
X36400Y-23408D01*
X36408Y-23403D01*
X36434Y-23398D01*
X51755Y-23398D01*
X51761Y-23399D01*
X51761Y-42742D01*
M02*
