G04 (created by PCBNEW (2013-07-07 BZR 4022)-stable) date 2015/10/26 20:25:39*
%MOIN*%
G04 Gerber Fmt 3.4, Leading zero omitted, Abs format*
%FSLAX34Y34*%
G01*
G70*
G90*
G04 APERTURE LIST*
%ADD10C,0.00590551*%
%ADD11C,0.00787402*%
%ADD12C,0.011811*%
%ADD13C,0.0001*%
%ADD14C,0.0045*%
%ADD15R,0.0629921X0.11811*%
%ADD16R,0.19X0.165*%
%ADD17R,0.06X0.06*%
%ADD18C,0.06*%
%ADD19R,0.0393701X0.045*%
%ADD20R,0.045X0.0393701*%
%ADD21C,0.177165*%
%ADD22C,0.035*%
G04 APERTURE END LIST*
G54D10*
G54D11*
X17559Y-18503D02*
X17559Y-16535D01*
X18503Y-18503D02*
X17559Y-18503D01*
X18503Y-16535D02*
X18503Y-18503D01*
X17559Y-16535D02*
X18503Y-16535D01*
X21014Y-18119D02*
X21014Y-17804D01*
X20939Y-17804D01*
X20894Y-17819D01*
X20864Y-17849D01*
X20849Y-17879D01*
X20834Y-17939D01*
X20834Y-17984D01*
X20849Y-18044D01*
X20864Y-18074D01*
X20894Y-18104D01*
X20939Y-18119D01*
X21014Y-18119D01*
X20729Y-17804D02*
X20534Y-17804D01*
X20639Y-17924D01*
X20594Y-17924D01*
X20564Y-17939D01*
X20549Y-17954D01*
X20534Y-17984D01*
X20534Y-18059D01*
X20549Y-18089D01*
X20564Y-18104D01*
X20594Y-18119D01*
X20684Y-18119D01*
X20714Y-18104D01*
X20729Y-18089D01*
X20309Y-18239D02*
X20324Y-18224D01*
X20354Y-18179D01*
X20369Y-18149D01*
X20384Y-18104D01*
X20399Y-18029D01*
X20399Y-17969D01*
X20384Y-17894D01*
X20369Y-17849D01*
X20354Y-17819D01*
X20324Y-17774D01*
X20309Y-17759D01*
X20204Y-18104D02*
X20159Y-18119D01*
X20084Y-18119D01*
X20054Y-18104D01*
X20039Y-18089D01*
X20024Y-18059D01*
X20024Y-18029D01*
X20039Y-17999D01*
X20054Y-17984D01*
X20084Y-17969D01*
X20144Y-17954D01*
X20174Y-17939D01*
X20189Y-17924D01*
X20204Y-17894D01*
X20204Y-17864D01*
X20189Y-17834D01*
X20174Y-17819D01*
X20144Y-17804D01*
X20069Y-17804D01*
X20024Y-17819D01*
X19904Y-18104D02*
X19859Y-18119D01*
X19784Y-18119D01*
X19754Y-18104D01*
X19739Y-18089D01*
X19724Y-18059D01*
X19724Y-18029D01*
X19739Y-17999D01*
X19754Y-17984D01*
X19784Y-17969D01*
X19844Y-17954D01*
X19874Y-17939D01*
X19889Y-17924D01*
X19904Y-17894D01*
X19904Y-17864D01*
X19889Y-17834D01*
X19874Y-17819D01*
X19844Y-17804D01*
X19769Y-17804D01*
X19724Y-17819D01*
X19394Y-17804D02*
X19214Y-17804D01*
X19304Y-18119D02*
X19304Y-17804D01*
X19139Y-17804D02*
X18929Y-18119D01*
X18929Y-17804D02*
X19139Y-18119D01*
X18839Y-18239D02*
X18824Y-18224D01*
X18794Y-18179D01*
X18779Y-18149D01*
X18764Y-18104D01*
X18749Y-18029D01*
X18749Y-17969D01*
X18764Y-17894D01*
X18779Y-17849D01*
X18794Y-17819D01*
X18824Y-17774D01*
X18839Y-17759D01*
X21051Y-17095D02*
X21051Y-16781D01*
X20976Y-16781D01*
X20931Y-16796D01*
X20901Y-16826D01*
X20886Y-16856D01*
X20871Y-16916D01*
X20871Y-16961D01*
X20886Y-17020D01*
X20901Y-17050D01*
X20931Y-17080D01*
X20976Y-17095D01*
X21051Y-17095D01*
X20751Y-16811D02*
X20736Y-16796D01*
X20706Y-16781D01*
X20631Y-16781D01*
X20601Y-16796D01*
X20586Y-16811D01*
X20571Y-16841D01*
X20571Y-16871D01*
X20586Y-16916D01*
X20766Y-17095D01*
X20571Y-17095D01*
X20346Y-17215D02*
X20361Y-17200D01*
X20391Y-17155D01*
X20406Y-17125D01*
X20421Y-17080D01*
X20436Y-17005D01*
X20436Y-16946D01*
X20421Y-16871D01*
X20406Y-16826D01*
X20391Y-16796D01*
X20361Y-16751D01*
X20346Y-16736D01*
X20241Y-17080D02*
X20196Y-17095D01*
X20121Y-17095D01*
X20091Y-17080D01*
X20076Y-17065D01*
X20061Y-17035D01*
X20061Y-17005D01*
X20076Y-16976D01*
X20091Y-16961D01*
X20121Y-16946D01*
X20181Y-16931D01*
X20211Y-16916D01*
X20226Y-16901D01*
X20241Y-16871D01*
X20241Y-16841D01*
X20226Y-16811D01*
X20211Y-16796D01*
X20181Y-16781D01*
X20106Y-16781D01*
X20061Y-16796D01*
X19941Y-17080D02*
X19896Y-17095D01*
X19821Y-17095D01*
X19791Y-17080D01*
X19776Y-17065D01*
X19761Y-17035D01*
X19761Y-17005D01*
X19776Y-16976D01*
X19791Y-16961D01*
X19821Y-16946D01*
X19881Y-16931D01*
X19911Y-16916D01*
X19926Y-16901D01*
X19941Y-16871D01*
X19941Y-16841D01*
X19926Y-16811D01*
X19911Y-16796D01*
X19881Y-16781D01*
X19806Y-16781D01*
X19761Y-16796D01*
X19206Y-17095D02*
X19311Y-16946D01*
X19386Y-17095D02*
X19386Y-16781D01*
X19266Y-16781D01*
X19236Y-16796D01*
X19221Y-16811D01*
X19206Y-16841D01*
X19206Y-16886D01*
X19221Y-16916D01*
X19236Y-16931D01*
X19266Y-16946D01*
X19386Y-16946D01*
X19101Y-16781D02*
X18892Y-17095D01*
X18892Y-16781D02*
X19101Y-17095D01*
X18802Y-17215D02*
X18787Y-17200D01*
X18757Y-17155D01*
X18742Y-17125D01*
X18727Y-17080D01*
X18712Y-17005D01*
X18712Y-16946D01*
X18727Y-16871D01*
X18742Y-16826D01*
X18757Y-16796D01*
X18787Y-16751D01*
X18802Y-16736D01*
G54D12*
X29912Y-18866D02*
X29912Y-19147D01*
X30081Y-18810D02*
X29491Y-19007D01*
X30081Y-19204D01*
X30053Y-19372D02*
X30081Y-19429D01*
X30081Y-19541D01*
X30053Y-19597D01*
X29997Y-19625D01*
X29969Y-19625D01*
X29912Y-19597D01*
X29884Y-19541D01*
X29884Y-19457D01*
X29856Y-19401D01*
X29800Y-19372D01*
X29772Y-19372D01*
X29715Y-19401D01*
X29687Y-19457D01*
X29687Y-19541D01*
X29715Y-19597D01*
X29687Y-20132D02*
X30081Y-20132D01*
X29687Y-19879D02*
X29997Y-19879D01*
X30053Y-19907D01*
X30081Y-19963D01*
X30081Y-20047D01*
X30053Y-20104D01*
X30025Y-20132D01*
X30081Y-20413D02*
X29687Y-20413D01*
X29744Y-20413D02*
X29715Y-20441D01*
X29687Y-20497D01*
X29687Y-20582D01*
X29715Y-20638D01*
X29772Y-20666D01*
X30081Y-20666D01*
X29772Y-20666D02*
X29715Y-20694D01*
X29687Y-20750D01*
X29687Y-20835D01*
X29715Y-20891D01*
X29772Y-20919D01*
X30081Y-20919D01*
X30081Y-21285D02*
X30053Y-21228D01*
X30025Y-21200D01*
X29969Y-21172D01*
X29800Y-21172D01*
X29744Y-21200D01*
X29715Y-21228D01*
X29687Y-21285D01*
X29687Y-21369D01*
X29715Y-21425D01*
X29744Y-21453D01*
X29800Y-21482D01*
X29969Y-21482D01*
X30025Y-21453D01*
X30053Y-21425D01*
X30081Y-21369D01*
X30081Y-21285D01*
X29687Y-21735D02*
X30081Y-21735D01*
X29744Y-21735D02*
X29715Y-21763D01*
X29687Y-21819D01*
X29687Y-21903D01*
X29715Y-21960D01*
X29772Y-21988D01*
X30081Y-21988D01*
X30081Y-22353D02*
X30053Y-22297D01*
X30025Y-22269D01*
X29969Y-22241D01*
X29800Y-22241D01*
X29744Y-22269D01*
X29715Y-22297D01*
X29687Y-22353D01*
X29687Y-22438D01*
X29715Y-22494D01*
X29744Y-22522D01*
X29800Y-22550D01*
X29969Y-22550D01*
X30025Y-22522D01*
X30053Y-22494D01*
X30081Y-22438D01*
X30081Y-22353D01*
X30081Y-23056D02*
X29491Y-23056D01*
X30053Y-23056D02*
X30081Y-23000D01*
X30081Y-22888D01*
X30053Y-22831D01*
X30025Y-22803D01*
X29969Y-22775D01*
X29800Y-22775D01*
X29744Y-22803D01*
X29715Y-22831D01*
X29687Y-22888D01*
X29687Y-23000D01*
X29715Y-23056D01*
X29687Y-23591D02*
X30081Y-23591D01*
X29687Y-23338D02*
X29997Y-23338D01*
X30053Y-23366D01*
X30081Y-23422D01*
X30081Y-23506D01*
X30053Y-23562D01*
X30025Y-23591D01*
X30081Y-23872D02*
X29687Y-23872D01*
X29491Y-23872D02*
X29519Y-23844D01*
X29547Y-23872D01*
X29519Y-23900D01*
X29491Y-23872D01*
X29547Y-23872D01*
X29687Y-24153D02*
X30081Y-24153D01*
X29744Y-24153D02*
X29715Y-24181D01*
X29687Y-24237D01*
X29687Y-24322D01*
X29715Y-24378D01*
X29772Y-24406D01*
X30081Y-24406D01*
X30081Y-24772D02*
X30053Y-24715D01*
X30025Y-24687D01*
X29969Y-24659D01*
X29800Y-24659D01*
X29744Y-24687D01*
X29715Y-24715D01*
X29687Y-24772D01*
X29687Y-24856D01*
X29715Y-24912D01*
X29744Y-24940D01*
X29800Y-24969D01*
X29969Y-24969D01*
X30025Y-24940D01*
X30053Y-24912D01*
X30081Y-24856D01*
X30081Y-24772D01*
X29856Y-25222D02*
X29856Y-25672D01*
X29491Y-25897D02*
X30081Y-26037D01*
X29659Y-26150D01*
X30081Y-26262D01*
X29491Y-26403D01*
X30081Y-26628D02*
X29687Y-26628D01*
X29491Y-26628D02*
X29519Y-26600D01*
X29547Y-26628D01*
X29519Y-26656D01*
X29491Y-26628D01*
X29547Y-26628D01*
X29687Y-26825D02*
X29687Y-27050D01*
X30081Y-26909D02*
X29575Y-26909D01*
X29519Y-26937D01*
X29491Y-26993D01*
X29491Y-27050D01*
X30081Y-27246D02*
X29687Y-27246D01*
X29491Y-27246D02*
X29519Y-27218D01*
X29547Y-27246D01*
X29519Y-27275D01*
X29491Y-27246D01*
X29547Y-27246D01*
G54D10*
X25220Y-27809D02*
X25220Y-25683D01*
X24629Y-25487D02*
X23370Y-25487D01*
X25062Y-27809D02*
X25220Y-27809D01*
X22740Y-25683D02*
X22740Y-27809D01*
X22740Y-27809D02*
X22897Y-27809D01*
X29783Y-13818D02*
X28366Y-13818D01*
X28366Y-13818D02*
X28366Y-14448D01*
X28366Y-14448D02*
X29783Y-14448D01*
X29783Y-14448D02*
X29783Y-13818D01*
X26488Y-21285D02*
X25071Y-21285D01*
X25071Y-21285D02*
X25071Y-21914D01*
X25071Y-21914D02*
X26488Y-21914D01*
X26488Y-21914D02*
X26488Y-21285D01*
X21909Y-18267D02*
X23326Y-18267D01*
X23326Y-18267D02*
X23326Y-17637D01*
X23326Y-17637D02*
X21909Y-17637D01*
X21909Y-17637D02*
X21909Y-18267D01*
X21948Y-14488D02*
X23366Y-14488D01*
X23366Y-14488D02*
X23366Y-13858D01*
X23366Y-13858D02*
X21948Y-13858D01*
X21948Y-13858D02*
X21948Y-14488D01*
X29783Y-12834D02*
X28366Y-12834D01*
X28366Y-12834D02*
X28366Y-13464D01*
X28366Y-13464D02*
X29783Y-13464D01*
X29783Y-13464D02*
X29783Y-12834D01*
X24038Y-12485D02*
X22621Y-12485D01*
X22621Y-12485D02*
X22621Y-13114D01*
X22621Y-13114D02*
X24038Y-13114D01*
X24038Y-13114D02*
X24038Y-12485D01*
X24661Y-13114D02*
X26078Y-13114D01*
X26078Y-13114D02*
X26078Y-12485D01*
X26078Y-12485D02*
X24661Y-12485D01*
X24661Y-12485D02*
X24661Y-13114D01*
X26181Y-28129D02*
X26181Y-29547D01*
X26181Y-29547D02*
X26811Y-29547D01*
X26811Y-29547D02*
X26811Y-28129D01*
X26811Y-28129D02*
X26181Y-28129D01*
X26488Y-20535D02*
X25071Y-20535D01*
X25071Y-20535D02*
X25071Y-21164D01*
X25071Y-21164D02*
X26488Y-21164D01*
X26488Y-21164D02*
X26488Y-20535D01*
X26488Y-22035D02*
X25071Y-22035D01*
X25071Y-22035D02*
X25071Y-22664D01*
X25071Y-22664D02*
X26488Y-22664D01*
X26488Y-22664D02*
X26488Y-22035D01*
X26488Y-22785D02*
X25071Y-22785D01*
X25071Y-22785D02*
X25071Y-23414D01*
X25071Y-23414D02*
X26488Y-23414D01*
X26488Y-23414D02*
X26488Y-22785D01*
X21764Y-28038D02*
X21764Y-26621D01*
X21764Y-26621D02*
X21135Y-26621D01*
X21135Y-26621D02*
X21135Y-28038D01*
X21135Y-28038D02*
X21764Y-28038D01*
X26914Y-18388D02*
X26914Y-16971D01*
X26914Y-16971D02*
X26285Y-16971D01*
X26285Y-16971D02*
X26285Y-18388D01*
X26285Y-18388D02*
X26914Y-18388D01*
X24361Y-18014D02*
X25778Y-18014D01*
X25778Y-18014D02*
X25778Y-17385D01*
X25778Y-17385D02*
X24361Y-17385D01*
X24361Y-17385D02*
X24361Y-18014D01*
X24361Y-18764D02*
X25778Y-18764D01*
X25778Y-18764D02*
X25778Y-18135D01*
X25778Y-18135D02*
X24361Y-18135D01*
X24361Y-18135D02*
X24361Y-18764D01*
X26338Y-25295D02*
X26338Y-23877D01*
X26338Y-23877D02*
X25708Y-23877D01*
X25708Y-23877D02*
X25708Y-25295D01*
X25708Y-25295D02*
X26338Y-25295D01*
X22696Y-24055D02*
X24114Y-24055D01*
X24114Y-24055D02*
X24114Y-23425D01*
X24114Y-23425D02*
X22696Y-23425D01*
X22696Y-23425D02*
X22696Y-24055D01*
G54D13*
G36*
X29506Y-16799D02*
X29774Y-16810D01*
X30008Y-16876D01*
X30206Y-16993D01*
X30362Y-17159D01*
X30472Y-17371D01*
X30484Y-17408D01*
X30529Y-17589D01*
X30531Y-17749D01*
X30491Y-17918D01*
X30485Y-17937D01*
X30386Y-18141D01*
X30241Y-18311D01*
X30116Y-18409D01*
X30025Y-18465D01*
X29940Y-18500D01*
X29836Y-18520D01*
X29695Y-18531D01*
X29549Y-18536D01*
X29468Y-18529D01*
X29451Y-18512D01*
X29495Y-18485D01*
X29577Y-18460D01*
X29597Y-18456D01*
X29784Y-18414D01*
X29930Y-18363D01*
X30025Y-18307D01*
X30059Y-18262D01*
X30052Y-18186D01*
X29989Y-18118D01*
X29880Y-18068D01*
X29812Y-18052D01*
X29699Y-18030D01*
X29571Y-17999D01*
X29540Y-17991D01*
X29390Y-17951D01*
X29686Y-17878D01*
X29854Y-17833D01*
X29967Y-17794D01*
X30034Y-17755D01*
X30066Y-17711D01*
X30073Y-17667D01*
X30040Y-17594D01*
X29945Y-17533D01*
X29788Y-17485D01*
X29740Y-17475D01*
X29635Y-17453D01*
X29535Y-17427D01*
X29455Y-17402D01*
X29409Y-17382D01*
X29412Y-17373D01*
X29508Y-17358D01*
X29632Y-17331D01*
X29765Y-17297D01*
X29886Y-17262D01*
X29972Y-17231D01*
X29997Y-17219D01*
X30067Y-17151D01*
X30072Y-17084D01*
X30016Y-17020D01*
X29901Y-16962D01*
X29728Y-16912D01*
X29690Y-16904D01*
X29543Y-16870D01*
X29455Y-16842D01*
X29426Y-16819D01*
X29460Y-16804D01*
X29506Y-16799D01*
X29506Y-16799D01*
X29506Y-16799D01*
G37*
G36*
X29251Y-16904D02*
X29311Y-16925D01*
X29330Y-16941D01*
X29379Y-16966D01*
X29474Y-16996D01*
X29589Y-17024D01*
X29741Y-17058D01*
X29828Y-17086D01*
X29851Y-17110D01*
X29810Y-17136D01*
X29708Y-17165D01*
X29630Y-17183D01*
X29435Y-17237D01*
X29305Y-17297D01*
X29242Y-17360D01*
X29244Y-17424D01*
X29312Y-17487D01*
X29446Y-17545D01*
X29616Y-17591D01*
X29736Y-17620D01*
X29826Y-17647D01*
X29871Y-17667D01*
X29873Y-17670D01*
X29843Y-17687D01*
X29763Y-17712D01*
X29648Y-17741D01*
X29611Y-17749D01*
X29431Y-17798D01*
X29310Y-17856D01*
X29249Y-17919D01*
X29251Y-17986D01*
X29315Y-18053D01*
X29418Y-18105D01*
X29571Y-18151D01*
X29748Y-18186D01*
X29828Y-18205D01*
X29871Y-18228D01*
X29873Y-18233D01*
X29843Y-18252D01*
X29763Y-18275D01*
X29652Y-18299D01*
X29645Y-18301D01*
X29513Y-18329D01*
X29396Y-18362D01*
X29324Y-18390D01*
X29268Y-18415D01*
X29222Y-18417D01*
X29169Y-18391D01*
X29093Y-18329D01*
X29029Y-18272D01*
X28916Y-18129D01*
X28841Y-17945D01*
X28805Y-17740D01*
X28811Y-17530D01*
X28861Y-17332D01*
X28887Y-17275D01*
X28954Y-17167D01*
X29040Y-17061D01*
X29130Y-16973D01*
X29210Y-16916D01*
X29251Y-16904D01*
X29251Y-16904D01*
X29251Y-16904D01*
G37*
G54D10*
X24276Y-25671D02*
X24276Y-25989D01*
X24257Y-26027D01*
X24238Y-26046D01*
X24201Y-26064D01*
X24126Y-26064D01*
X24088Y-26046D01*
X24070Y-26027D01*
X24051Y-25989D01*
X24051Y-25671D01*
X23901Y-25671D02*
X23657Y-25671D01*
X23788Y-25821D01*
X23732Y-25821D01*
X23695Y-25839D01*
X23676Y-25858D01*
X23657Y-25896D01*
X23657Y-25989D01*
X23676Y-26027D01*
X23695Y-26046D01*
X23732Y-26064D01*
X23845Y-26064D01*
X23882Y-26046D01*
X23901Y-26027D01*
G54D14*
X29124Y-14687D02*
X29184Y-14592D01*
X29227Y-14687D02*
X29227Y-14487D01*
X29158Y-14487D01*
X29141Y-14496D01*
X29133Y-14506D01*
X29124Y-14525D01*
X29124Y-14553D01*
X29133Y-14572D01*
X29141Y-14582D01*
X29158Y-14592D01*
X29227Y-14592D01*
X28953Y-14687D02*
X29055Y-14687D01*
X29004Y-14687D02*
X29004Y-14487D01*
X29021Y-14515D01*
X29038Y-14534D01*
X29055Y-14544D01*
X25830Y-22153D02*
X25890Y-22058D01*
X25932Y-22153D02*
X25932Y-21953D01*
X25864Y-21953D01*
X25847Y-21962D01*
X25838Y-21972D01*
X25830Y-21991D01*
X25830Y-22020D01*
X25838Y-22039D01*
X25847Y-22048D01*
X25864Y-22058D01*
X25932Y-22058D01*
X25675Y-21953D02*
X25710Y-21953D01*
X25727Y-21962D01*
X25735Y-21972D01*
X25752Y-22001D01*
X25761Y-22039D01*
X25761Y-22115D01*
X25752Y-22134D01*
X25744Y-22143D01*
X25727Y-22153D01*
X25692Y-22153D01*
X25675Y-22143D01*
X25667Y-22134D01*
X25658Y-22115D01*
X25658Y-22067D01*
X25667Y-22048D01*
X25675Y-22039D01*
X25692Y-22029D01*
X25727Y-22029D01*
X25744Y-22039D01*
X25752Y-22048D01*
X25761Y-22067D01*
X22628Y-17542D02*
X22636Y-17551D01*
X22662Y-17561D01*
X22679Y-17561D01*
X22705Y-17551D01*
X22722Y-17532D01*
X22731Y-17513D01*
X22739Y-17475D01*
X22739Y-17446D01*
X22731Y-17408D01*
X22722Y-17389D01*
X22705Y-17370D01*
X22679Y-17361D01*
X22662Y-17361D01*
X22636Y-17370D01*
X22628Y-17380D01*
X22474Y-17427D02*
X22474Y-17561D01*
X22516Y-17351D02*
X22559Y-17494D01*
X22448Y-17494D01*
X22667Y-13762D02*
X22676Y-13772D01*
X22702Y-13781D01*
X22719Y-13781D01*
X22744Y-13772D01*
X22762Y-13753D01*
X22770Y-13734D01*
X22779Y-13696D01*
X22779Y-13667D01*
X22770Y-13629D01*
X22762Y-13610D01*
X22744Y-13591D01*
X22719Y-13581D01*
X22702Y-13581D01*
X22676Y-13591D01*
X22667Y-13600D01*
X22504Y-13581D02*
X22590Y-13581D01*
X22599Y-13676D01*
X22590Y-13667D01*
X22573Y-13657D01*
X22530Y-13657D01*
X22513Y-13667D01*
X22504Y-13676D01*
X22496Y-13696D01*
X22496Y-13743D01*
X22504Y-13762D01*
X22513Y-13772D01*
X22530Y-13781D01*
X22573Y-13781D01*
X22590Y-13772D01*
X22599Y-13762D01*
X29124Y-13702D02*
X29184Y-13607D01*
X29227Y-13702D02*
X29227Y-13502D01*
X29158Y-13502D01*
X29141Y-13512D01*
X29133Y-13522D01*
X29124Y-13541D01*
X29124Y-13569D01*
X29133Y-13588D01*
X29141Y-13598D01*
X29158Y-13607D01*
X29227Y-13607D01*
X29055Y-13522D02*
X29047Y-13512D01*
X29030Y-13502D01*
X28987Y-13502D01*
X28970Y-13512D01*
X28961Y-13522D01*
X28953Y-13541D01*
X28953Y-13560D01*
X28961Y-13588D01*
X29064Y-13702D01*
X28953Y-13702D01*
X23380Y-13334D02*
X23388Y-13343D01*
X23414Y-13353D01*
X23431Y-13353D01*
X23457Y-13343D01*
X23474Y-13324D01*
X23482Y-13305D01*
X23491Y-13267D01*
X23491Y-13239D01*
X23482Y-13201D01*
X23474Y-13181D01*
X23457Y-13162D01*
X23431Y-13153D01*
X23414Y-13153D01*
X23388Y-13162D01*
X23380Y-13172D01*
X23225Y-13153D02*
X23260Y-13153D01*
X23277Y-13162D01*
X23285Y-13172D01*
X23302Y-13201D01*
X23311Y-13239D01*
X23311Y-13315D01*
X23302Y-13334D01*
X23294Y-13343D01*
X23277Y-13353D01*
X23242Y-13353D01*
X23225Y-13343D01*
X23217Y-13334D01*
X23208Y-13315D01*
X23208Y-13267D01*
X23217Y-13248D01*
X23225Y-13239D01*
X23242Y-13229D01*
X23277Y-13229D01*
X23294Y-13239D01*
X23302Y-13248D01*
X23311Y-13267D01*
X25380Y-12389D02*
X25388Y-12398D01*
X25414Y-12408D01*
X25431Y-12408D01*
X25457Y-12398D01*
X25474Y-12379D01*
X25482Y-12360D01*
X25491Y-12322D01*
X25491Y-12294D01*
X25482Y-12256D01*
X25474Y-12237D01*
X25457Y-12218D01*
X25431Y-12208D01*
X25414Y-12208D01*
X25388Y-12218D01*
X25380Y-12227D01*
X25320Y-12208D02*
X25200Y-12208D01*
X25277Y-12408D01*
X27030Y-28703D02*
X27039Y-28694D01*
X27049Y-28668D01*
X27049Y-28651D01*
X27039Y-28626D01*
X27020Y-28608D01*
X27001Y-28600D01*
X26963Y-28591D01*
X26935Y-28591D01*
X26897Y-28600D01*
X26878Y-28608D01*
X26858Y-28626D01*
X26849Y-28651D01*
X26849Y-28668D01*
X26858Y-28694D01*
X26868Y-28703D01*
X27049Y-28874D02*
X27049Y-28771D01*
X27049Y-28823D02*
X26849Y-28823D01*
X26878Y-28806D01*
X26897Y-28788D01*
X26906Y-28771D01*
X26849Y-28986D02*
X26849Y-29003D01*
X26858Y-29020D01*
X26868Y-29028D01*
X26887Y-29037D01*
X26925Y-29046D01*
X26973Y-29046D01*
X27011Y-29037D01*
X27030Y-29028D01*
X27039Y-29020D01*
X27049Y-29003D01*
X27049Y-28986D01*
X27039Y-28968D01*
X27030Y-28960D01*
X27011Y-28951D01*
X26973Y-28943D01*
X26925Y-28943D01*
X26887Y-28951D01*
X26868Y-28960D01*
X26858Y-28968D01*
X26849Y-28986D01*
X25830Y-21403D02*
X25890Y-21308D01*
X25932Y-21403D02*
X25932Y-21203D01*
X25864Y-21203D01*
X25847Y-21212D01*
X25838Y-21222D01*
X25830Y-21241D01*
X25830Y-21270D01*
X25838Y-21289D01*
X25847Y-21298D01*
X25864Y-21308D01*
X25932Y-21308D01*
X25770Y-21203D02*
X25650Y-21203D01*
X25727Y-21403D01*
X25830Y-22903D02*
X25890Y-22808D01*
X25932Y-22903D02*
X25932Y-22703D01*
X25864Y-22703D01*
X25847Y-22712D01*
X25838Y-22722D01*
X25830Y-22741D01*
X25830Y-22770D01*
X25838Y-22789D01*
X25847Y-22798D01*
X25864Y-22808D01*
X25932Y-22808D01*
X25667Y-22703D02*
X25752Y-22703D01*
X25761Y-22798D01*
X25752Y-22789D01*
X25735Y-22779D01*
X25692Y-22779D01*
X25675Y-22789D01*
X25667Y-22798D01*
X25658Y-22817D01*
X25658Y-22865D01*
X25667Y-22884D01*
X25675Y-22893D01*
X25692Y-22903D01*
X25735Y-22903D01*
X25752Y-22893D01*
X25761Y-22884D01*
X25830Y-23653D02*
X25890Y-23558D01*
X25932Y-23653D02*
X25932Y-23453D01*
X25864Y-23453D01*
X25847Y-23462D01*
X25838Y-23472D01*
X25830Y-23491D01*
X25830Y-23520D01*
X25838Y-23539D01*
X25847Y-23548D01*
X25864Y-23558D01*
X25932Y-23558D01*
X25770Y-23453D02*
X25658Y-23453D01*
X25718Y-23529D01*
X25692Y-23529D01*
X25675Y-23539D01*
X25667Y-23548D01*
X25658Y-23567D01*
X25658Y-23615D01*
X25667Y-23634D01*
X25675Y-23643D01*
X25692Y-23653D01*
X25744Y-23653D01*
X25761Y-23643D01*
X25770Y-23634D01*
X21058Y-27320D02*
X20963Y-27260D01*
X21058Y-27217D02*
X20858Y-27217D01*
X20858Y-27285D01*
X20868Y-27302D01*
X20877Y-27311D01*
X20896Y-27320D01*
X20925Y-27320D01*
X20944Y-27311D01*
X20953Y-27302D01*
X20963Y-27285D01*
X20963Y-27217D01*
X20925Y-27474D02*
X21058Y-27474D01*
X20848Y-27431D02*
X20991Y-27388D01*
X20991Y-27500D01*
X26189Y-17670D02*
X26198Y-17661D01*
X26208Y-17635D01*
X26208Y-17618D01*
X26198Y-17592D01*
X26179Y-17575D01*
X26160Y-17567D01*
X26122Y-17558D01*
X26094Y-17558D01*
X26056Y-17567D01*
X26037Y-17575D01*
X26018Y-17592D01*
X26008Y-17618D01*
X26008Y-17635D01*
X26018Y-17661D01*
X26027Y-17670D01*
X26008Y-17730D02*
X26008Y-17841D01*
X26084Y-17781D01*
X26084Y-17807D01*
X26094Y-17824D01*
X26103Y-17832D01*
X26122Y-17841D01*
X26170Y-17841D01*
X26189Y-17832D01*
X26198Y-17824D01*
X26208Y-17807D01*
X26208Y-17755D01*
X26198Y-17738D01*
X26189Y-17730D01*
X25080Y-17289D02*
X25088Y-17298D01*
X25114Y-17308D01*
X25131Y-17308D01*
X25157Y-17298D01*
X25174Y-17279D01*
X25182Y-17260D01*
X25191Y-17222D01*
X25191Y-17194D01*
X25182Y-17156D01*
X25174Y-17137D01*
X25157Y-17118D01*
X25131Y-17108D01*
X25114Y-17108D01*
X25088Y-17118D01*
X25080Y-17127D01*
X24908Y-17308D02*
X25011Y-17308D01*
X24960Y-17308D02*
X24960Y-17108D01*
X24977Y-17137D01*
X24994Y-17156D01*
X25011Y-17165D01*
X24518Y-19038D02*
X24526Y-19047D01*
X24552Y-19057D01*
X24569Y-19057D01*
X24595Y-19047D01*
X24612Y-19028D01*
X24621Y-19009D01*
X24629Y-18971D01*
X24629Y-18943D01*
X24621Y-18904D01*
X24612Y-18885D01*
X24595Y-18866D01*
X24569Y-18857D01*
X24552Y-18857D01*
X24526Y-18866D01*
X24518Y-18876D01*
X24449Y-18876D02*
X24441Y-18866D01*
X24423Y-18857D01*
X24381Y-18857D01*
X24363Y-18866D01*
X24355Y-18876D01*
X24346Y-18895D01*
X24346Y-18914D01*
X24355Y-18943D01*
X24458Y-19057D01*
X24346Y-19057D01*
X25613Y-24576D02*
X25622Y-24567D01*
X25632Y-24542D01*
X25632Y-24524D01*
X25622Y-24499D01*
X25603Y-24482D01*
X25584Y-24473D01*
X25546Y-24464D01*
X25517Y-24464D01*
X25479Y-24473D01*
X25460Y-24482D01*
X25441Y-24499D01*
X25432Y-24524D01*
X25432Y-24542D01*
X25441Y-24567D01*
X25451Y-24576D01*
X25632Y-24662D02*
X25632Y-24696D01*
X25622Y-24713D01*
X25613Y-24722D01*
X25584Y-24739D01*
X25546Y-24747D01*
X25470Y-24747D01*
X25451Y-24739D01*
X25441Y-24730D01*
X25432Y-24713D01*
X25432Y-24679D01*
X25441Y-24662D01*
X25451Y-24653D01*
X25470Y-24644D01*
X25517Y-24644D01*
X25536Y-24653D01*
X25546Y-24662D01*
X25555Y-24679D01*
X25555Y-24713D01*
X25546Y-24730D01*
X25536Y-24739D01*
X25517Y-24747D01*
X23415Y-23329D02*
X23424Y-23339D01*
X23450Y-23348D01*
X23467Y-23348D01*
X23492Y-23339D01*
X23510Y-23320D01*
X23518Y-23301D01*
X23527Y-23262D01*
X23527Y-23234D01*
X23518Y-23196D01*
X23510Y-23177D01*
X23492Y-23158D01*
X23467Y-23148D01*
X23450Y-23148D01*
X23424Y-23158D01*
X23415Y-23167D01*
X23312Y-23234D02*
X23330Y-23224D01*
X23338Y-23215D01*
X23347Y-23196D01*
X23347Y-23186D01*
X23338Y-23167D01*
X23330Y-23158D01*
X23312Y-23148D01*
X23278Y-23148D01*
X23261Y-23158D01*
X23252Y-23167D01*
X23244Y-23186D01*
X23244Y-23196D01*
X23252Y-23215D01*
X23261Y-23224D01*
X23278Y-23234D01*
X23312Y-23234D01*
X23330Y-23243D01*
X23338Y-23253D01*
X23347Y-23272D01*
X23347Y-23310D01*
X23338Y-23329D01*
X23330Y-23339D01*
X23312Y-23348D01*
X23278Y-23348D01*
X23261Y-23339D01*
X23252Y-23329D01*
X23244Y-23310D01*
X23244Y-23272D01*
X23252Y-23253D01*
X23261Y-23243D01*
X23278Y-23234D01*
%LPC*%
G54D15*
X22942Y-24959D03*
X25057Y-24959D03*
G54D16*
X24000Y-27375D03*
G54D17*
X31000Y-27000D03*
G54D18*
X31000Y-26000D03*
X31000Y-25000D03*
X31000Y-24000D03*
X31000Y-23000D03*
X31000Y-22000D03*
X31000Y-21000D03*
X31000Y-20000D03*
X31000Y-19000D03*
X31000Y-18000D03*
X31000Y-17000D03*
X31000Y-16000D03*
X31000Y-15000D03*
X31000Y-14000D03*
X31000Y-13000D03*
G54D17*
X18000Y-13000D03*
G54D18*
X18000Y-14000D03*
X18000Y-15000D03*
X18000Y-16000D03*
X18000Y-17000D03*
X18000Y-18000D03*
X18000Y-19000D03*
X18000Y-20000D03*
X18000Y-21000D03*
X18000Y-22000D03*
X18000Y-23000D03*
X18000Y-24000D03*
X18000Y-25000D03*
X18000Y-26000D03*
X18000Y-27000D03*
G54D19*
X29488Y-14133D03*
X28661Y-14133D03*
X26193Y-21600D03*
X25366Y-21600D03*
X22204Y-17952D03*
X23031Y-17952D03*
X22244Y-14173D03*
X23070Y-14173D03*
X29488Y-13149D03*
X28661Y-13149D03*
X23743Y-12800D03*
X22916Y-12800D03*
X24956Y-12800D03*
X25783Y-12800D03*
G54D20*
X26496Y-28425D03*
X26496Y-29251D03*
G54D19*
X26193Y-20850D03*
X25366Y-20850D03*
X26193Y-22350D03*
X25366Y-22350D03*
X26193Y-23100D03*
X25366Y-23100D03*
G54D20*
X21450Y-27743D03*
X21450Y-26916D03*
X26600Y-18093D03*
X26600Y-17266D03*
G54D19*
X24656Y-17700D03*
X25483Y-17700D03*
X24656Y-18450D03*
X25483Y-18450D03*
G54D20*
X26023Y-25000D03*
X26023Y-24173D03*
G54D19*
X22992Y-23740D03*
X23818Y-23740D03*
G54D21*
X30314Y-29921D03*
X18897Y-29921D03*
G54D22*
X29645Y-25905D03*
X21456Y-28267D03*
X25196Y-12834D03*
X26377Y-25433D03*
X26220Y-23464D03*
X26889Y-28700D03*
X29448Y-15078D03*
X23503Y-12952D03*
X24645Y-18149D03*
X26614Y-18425D03*
X24656Y-17294D03*
X26496Y-17952D03*
X27204Y-19881D03*
X27677Y-19842D03*
X28188Y-20039D03*
X28149Y-18307D03*
X28149Y-17362D03*
X27165Y-19370D03*
X19291Y-24724D03*
X22244Y-12519D03*
X22283Y-12992D03*
X19645Y-23976D03*
X19330Y-15196D03*
X22795Y-15196D03*
X22795Y-15708D03*
X19724Y-15669D03*
X25748Y-26535D03*
X28543Y-25748D03*
X28858Y-26102D03*
X26141Y-26850D03*
X25748Y-27204D03*
X29094Y-26614D03*
X28818Y-16496D03*
X28149Y-18976D03*
X28622Y-20314D03*
X30275Y-25314D03*
X22795Y-16181D03*
X19724Y-16181D03*
X22716Y-13464D03*
X22716Y-14724D03*
X22795Y-16653D03*
X19724Y-16653D03*
X22795Y-17125D03*
X19724Y-17244D03*
X28228Y-25393D03*
X25393Y-26220D03*
X27165Y-16299D03*
X30433Y-16614D03*
X23346Y-16259D03*
X22244Y-20708D03*
X19251Y-15669D03*
X20157Y-20708D03*
X29133Y-20039D03*
X29133Y-30708D03*
X27952Y-30708D03*
X26771Y-30708D03*
X25590Y-30708D03*
X24409Y-30708D03*
X23228Y-30708D03*
X22047Y-30708D03*
X20866Y-30708D03*
X20393Y-15433D03*
X20393Y-16968D03*
X20393Y-14409D03*
X28149Y-15433D03*
X28149Y-14724D03*
X25196Y-18937D03*
X25472Y-17125D03*
X26417Y-12795D03*
X18897Y-19291D03*
X28464Y-28031D03*
X23543Y-19606D03*
X23425Y-21535D03*
X27086Y-23937D03*
X23425Y-15118D03*
X26968Y-22598D03*
X21062Y-25708D03*
X21023Y-28700D03*
X26600Y-16796D03*
X21338Y-22755D03*
X21574Y-23976D03*
X20984Y-26929D03*
X28267Y-14133D03*
X28267Y-13149D03*
X24960Y-21614D03*
X24921Y-22086D03*
X25000Y-23031D03*
X21771Y-13740D03*
X21771Y-17992D03*
X25118Y-20866D03*
M02*
