G04 (created by PCBNEW (2013-07-07 BZR 4022)-stable) date 2015/11/30 22:46:21*
%MOIN*%
G04 Gerber Fmt 3.4, Leading zero omitted, Abs format*
%FSLAX34Y34*%
G01*
G70*
G90*
G04 APERTURE LIST*
%ADD10C,0.00590551*%
%ADD11C,0.00787402*%
%ADD12C,0.011811*%
%ADD13C,0.005*%
%ADD14C,0.0001*%
%ADD15R,0.0629921X0.11811*%
%ADD16R,0.19X0.165*%
%ADD17R,0.06X0.06*%
%ADD18C,0.06*%
%ADD19R,0.0393701X0.045*%
%ADD20R,0.045X0.0393701*%
%ADD21R,0.0165X0.0629921*%
%ADD22R,0.0393701X0.0787402*%
%ADD23C,0.035*%
G04 APERTURE END LIST*
G54D10*
G54D11*
X38425Y-33110D02*
X38149Y-33110D01*
X38425Y-33110D02*
X38425Y-33385D01*
X38110Y-33425D02*
X38425Y-33110D01*
X38110Y-33740D02*
X38110Y-33425D01*
X37992Y-29724D02*
X37755Y-29724D01*
X37992Y-29724D02*
X37992Y-30000D01*
X37716Y-30000D02*
X37992Y-29724D01*
X37716Y-30314D02*
X37716Y-30000D01*
X37716Y-33779D02*
X37716Y-30314D01*
X38187Y-38147D02*
X37868Y-38147D01*
X37830Y-38132D01*
X37812Y-38117D01*
X37793Y-38087D01*
X37793Y-38027D01*
X37812Y-37997D01*
X37830Y-37982D01*
X37868Y-37967D01*
X38187Y-37967D01*
X37905Y-37832D02*
X37905Y-37682D01*
X37793Y-37862D02*
X38187Y-37757D01*
X37793Y-37652D01*
X37793Y-37367D02*
X37980Y-37472D01*
X37793Y-37547D02*
X38187Y-37547D01*
X38187Y-37427D01*
X38168Y-37397D01*
X38149Y-37382D01*
X38112Y-37367D01*
X38055Y-37367D01*
X38018Y-37382D01*
X37999Y-37397D01*
X37980Y-37427D01*
X37980Y-37547D01*
X38187Y-37277D02*
X38187Y-37097D01*
X37793Y-37187D02*
X38187Y-37187D01*
X37793Y-36752D02*
X38187Y-36752D01*
X38187Y-36632D01*
X38168Y-36602D01*
X38149Y-36587D01*
X38112Y-36572D01*
X38055Y-36572D01*
X38018Y-36587D01*
X37999Y-36602D01*
X37980Y-36632D01*
X37980Y-36752D01*
X37793Y-36437D02*
X38055Y-36437D01*
X38187Y-36437D02*
X38168Y-36452D01*
X38149Y-36437D01*
X38168Y-36422D01*
X38187Y-36437D01*
X38149Y-36437D01*
X38055Y-36287D02*
X37793Y-36287D01*
X38018Y-36287D02*
X38037Y-36272D01*
X38055Y-36242D01*
X38055Y-36197D01*
X38037Y-36167D01*
X37999Y-36152D01*
X37793Y-36152D01*
X37793Y-35763D02*
X38187Y-35763D01*
X37905Y-35658D01*
X38187Y-35553D01*
X37793Y-35553D01*
X37793Y-35268D02*
X37999Y-35268D01*
X38037Y-35283D01*
X38055Y-35313D01*
X38055Y-35373D01*
X38037Y-35403D01*
X37812Y-35268D02*
X37793Y-35298D01*
X37793Y-35373D01*
X37812Y-35403D01*
X37849Y-35418D01*
X37887Y-35418D01*
X37924Y-35403D01*
X37943Y-35373D01*
X37943Y-35298D01*
X37962Y-35268D01*
X38055Y-35118D02*
X37662Y-35118D01*
X38037Y-35118D02*
X38055Y-35088D01*
X38055Y-35028D01*
X38037Y-34998D01*
X38018Y-34983D01*
X37980Y-34968D01*
X37868Y-34968D01*
X37830Y-34983D01*
X37812Y-34998D01*
X37793Y-35028D01*
X37793Y-35088D01*
X37812Y-35118D01*
X38055Y-34833D02*
X37662Y-34833D01*
X38037Y-34833D02*
X38055Y-34803D01*
X38055Y-34743D01*
X38037Y-34713D01*
X38018Y-34698D01*
X37980Y-34683D01*
X37868Y-34683D01*
X37830Y-34698D01*
X37812Y-34713D01*
X37793Y-34743D01*
X37793Y-34803D01*
X37812Y-34833D01*
X37793Y-34548D02*
X38055Y-34548D01*
X38187Y-34548D02*
X38168Y-34563D01*
X38149Y-34548D01*
X38168Y-34533D01*
X38187Y-34548D01*
X38149Y-34548D01*
X38055Y-34398D02*
X37793Y-34398D01*
X38018Y-34398D02*
X38037Y-34383D01*
X38055Y-34353D01*
X38055Y-34308D01*
X38037Y-34278D01*
X37999Y-34263D01*
X37793Y-34263D01*
X38055Y-33978D02*
X37737Y-33978D01*
X37699Y-33993D01*
X37680Y-34008D01*
X37662Y-34038D01*
X37662Y-34083D01*
X37680Y-34113D01*
X37812Y-33978D02*
X37793Y-34008D01*
X37793Y-34068D01*
X37812Y-34098D01*
X37830Y-34113D01*
X37868Y-34128D01*
X37980Y-34128D01*
X38018Y-34113D01*
X38037Y-34098D01*
X38055Y-34068D01*
X38055Y-34008D01*
X38037Y-33978D01*
X39216Y-32521D02*
X39036Y-32521D01*
X39126Y-32915D02*
X39126Y-32521D01*
X38961Y-32521D02*
X38751Y-32915D01*
X38751Y-32521D02*
X38961Y-32915D01*
X38832Y-29529D02*
X38937Y-29341D01*
X39011Y-29529D02*
X39011Y-29135D01*
X38892Y-29135D01*
X38862Y-29154D01*
X38847Y-29173D01*
X38832Y-29210D01*
X38832Y-29266D01*
X38847Y-29304D01*
X38862Y-29323D01*
X38892Y-29341D01*
X39011Y-29341D01*
X38727Y-29135D02*
X38517Y-29529D01*
X38517Y-29135D02*
X38727Y-29529D01*
G54D12*
X49730Y-26262D02*
X49589Y-26853D01*
X49476Y-26431D01*
X49364Y-26853D01*
X49223Y-26262D01*
X48998Y-26853D02*
X48998Y-26459D01*
X48998Y-26262D02*
X49026Y-26290D01*
X48998Y-26318D01*
X48970Y-26290D01*
X48998Y-26262D01*
X48998Y-26318D01*
X48802Y-26459D02*
X48577Y-26459D01*
X48717Y-26853D02*
X48717Y-26347D01*
X48689Y-26290D01*
X48633Y-26262D01*
X48577Y-26262D01*
X48380Y-26853D02*
X48380Y-26459D01*
X48380Y-26262D02*
X48408Y-26290D01*
X48380Y-26318D01*
X48352Y-26290D01*
X48380Y-26262D01*
X48380Y-26318D01*
X47705Y-26853D02*
X47395Y-26459D01*
X47705Y-26459D02*
X47395Y-26853D01*
X46749Y-26684D02*
X46467Y-26684D01*
X46805Y-26853D02*
X46608Y-26262D01*
X46411Y-26853D01*
X46214Y-26853D02*
X46214Y-26459D01*
X46214Y-26571D02*
X46186Y-26515D01*
X46158Y-26487D01*
X46102Y-26459D01*
X46046Y-26459D01*
X45596Y-26853D02*
X45596Y-26262D01*
X45596Y-26825D02*
X45652Y-26853D01*
X45764Y-26853D01*
X45821Y-26825D01*
X45849Y-26796D01*
X45877Y-26740D01*
X45877Y-26571D01*
X45849Y-26515D01*
X45821Y-26487D01*
X45764Y-26459D01*
X45652Y-26459D01*
X45596Y-26487D01*
X45061Y-26459D02*
X45061Y-26853D01*
X45314Y-26459D02*
X45314Y-26768D01*
X45286Y-26825D01*
X45230Y-26853D01*
X45146Y-26853D01*
X45089Y-26825D01*
X45061Y-26796D01*
X44780Y-26853D02*
X44780Y-26459D01*
X44780Y-26262D02*
X44808Y-26290D01*
X44780Y-26318D01*
X44752Y-26290D01*
X44780Y-26262D01*
X44780Y-26318D01*
X44499Y-26459D02*
X44499Y-26853D01*
X44499Y-26515D02*
X44471Y-26487D01*
X44415Y-26459D01*
X44330Y-26459D01*
X44274Y-26487D01*
X44246Y-26543D01*
X44246Y-26853D01*
X43880Y-26853D02*
X43937Y-26825D01*
X43965Y-26796D01*
X43993Y-26740D01*
X43993Y-26571D01*
X43965Y-26515D01*
X43937Y-26487D01*
X43880Y-26459D01*
X43796Y-26459D01*
X43740Y-26487D01*
X43712Y-26515D01*
X43683Y-26571D01*
X43683Y-26740D01*
X43712Y-26796D01*
X43740Y-26825D01*
X43796Y-26853D01*
X43880Y-26853D01*
G54D11*
X38854Y-42167D02*
X38959Y-41979D01*
X39034Y-42167D02*
X39034Y-41773D01*
X38914Y-41773D01*
X38884Y-41792D01*
X38869Y-41811D01*
X38854Y-41848D01*
X38854Y-41904D01*
X38869Y-41942D01*
X38884Y-41961D01*
X38914Y-41979D01*
X39034Y-41979D01*
X38599Y-42148D02*
X38629Y-42167D01*
X38689Y-42167D01*
X38719Y-42148D01*
X38734Y-42110D01*
X38734Y-41961D01*
X38719Y-41923D01*
X38689Y-41904D01*
X38629Y-41904D01*
X38599Y-41923D01*
X38584Y-41961D01*
X38584Y-41998D01*
X38734Y-42035D01*
X38479Y-41904D02*
X38404Y-42167D01*
X38329Y-41904D01*
X38209Y-42129D02*
X38194Y-42148D01*
X38209Y-42167D01*
X38224Y-42148D01*
X38209Y-42129D01*
X38209Y-42167D01*
X37954Y-41961D02*
X37909Y-41979D01*
X37894Y-41998D01*
X37879Y-42035D01*
X37879Y-42092D01*
X37894Y-42129D01*
X37909Y-42148D01*
X37939Y-42167D01*
X38059Y-42167D01*
X38059Y-41773D01*
X37954Y-41773D01*
X37924Y-41792D01*
X37909Y-41811D01*
X37894Y-41848D01*
X37894Y-41886D01*
X37909Y-41923D01*
X37924Y-41942D01*
X37954Y-41961D01*
X38059Y-41961D01*
X40035Y-32915D02*
X40035Y-32521D01*
X39960Y-32521D01*
X39915Y-32540D01*
X39885Y-32577D01*
X39870Y-32615D01*
X39855Y-32690D01*
X39855Y-32746D01*
X39870Y-32821D01*
X39885Y-32859D01*
X39915Y-32896D01*
X39960Y-32915D01*
X40035Y-32915D01*
X39555Y-32915D02*
X39735Y-32915D01*
X39645Y-32915D02*
X39645Y-32521D01*
X39675Y-32577D01*
X39705Y-32615D01*
X39735Y-32634D01*
X38421Y-32915D02*
X38421Y-32521D01*
X38346Y-32521D01*
X38301Y-32540D01*
X38271Y-32577D01*
X38256Y-32615D01*
X38241Y-32690D01*
X38241Y-32746D01*
X38256Y-32821D01*
X38271Y-32859D01*
X38301Y-32896D01*
X38346Y-32915D01*
X38421Y-32915D01*
X38136Y-32521D02*
X37941Y-32521D01*
X38046Y-32671D01*
X38001Y-32671D01*
X37971Y-32690D01*
X37956Y-32709D01*
X37941Y-32746D01*
X37941Y-32840D01*
X37956Y-32877D01*
X37971Y-32896D01*
X38001Y-32915D01*
X38091Y-32915D01*
X38121Y-32896D01*
X38136Y-32877D01*
X38224Y-29529D02*
X38224Y-29135D01*
X38149Y-29135D01*
X38104Y-29154D01*
X38074Y-29191D01*
X38059Y-29229D01*
X38044Y-29304D01*
X38044Y-29360D01*
X38059Y-29435D01*
X38074Y-29473D01*
X38104Y-29510D01*
X38149Y-29529D01*
X38224Y-29529D01*
X37924Y-29173D02*
X37909Y-29154D01*
X37879Y-29135D01*
X37804Y-29135D01*
X37774Y-29154D01*
X37759Y-29173D01*
X37744Y-29210D01*
X37744Y-29248D01*
X37759Y-29304D01*
X37939Y-29529D01*
X37744Y-29529D01*
X39838Y-29529D02*
X39838Y-29135D01*
X39763Y-29135D01*
X39718Y-29154D01*
X39688Y-29191D01*
X39673Y-29229D01*
X39658Y-29304D01*
X39658Y-29360D01*
X39673Y-29435D01*
X39688Y-29473D01*
X39718Y-29510D01*
X39763Y-29529D01*
X39838Y-29529D01*
X39463Y-29135D02*
X39433Y-29135D01*
X39403Y-29154D01*
X39388Y-29173D01*
X39373Y-29210D01*
X39358Y-29285D01*
X39358Y-29379D01*
X39373Y-29454D01*
X39388Y-29491D01*
X39403Y-29510D01*
X39433Y-29529D01*
X39463Y-29529D01*
X39493Y-29510D01*
X39508Y-29491D01*
X39523Y-29454D01*
X39538Y-29379D01*
X39538Y-29285D01*
X39523Y-29210D01*
X39508Y-29173D01*
X39493Y-29154D01*
X39463Y-29135D01*
G54D12*
X47414Y-25181D02*
X47039Y-25181D01*
X47489Y-25429D02*
X47227Y-24563D01*
X46964Y-25429D01*
X46739Y-25388D02*
X46664Y-25429D01*
X46514Y-25429D01*
X46439Y-25388D01*
X46402Y-25305D01*
X46402Y-25264D01*
X46439Y-25181D01*
X46514Y-25140D01*
X46627Y-25140D01*
X46702Y-25099D01*
X46739Y-25016D01*
X46739Y-24975D01*
X46702Y-24893D01*
X46627Y-24851D01*
X46514Y-24851D01*
X46439Y-24893D01*
X45727Y-24851D02*
X45727Y-25429D01*
X46064Y-24851D02*
X46064Y-25305D01*
X46027Y-25388D01*
X45952Y-25429D01*
X45839Y-25429D01*
X45764Y-25388D01*
X45727Y-25346D01*
X45352Y-25429D02*
X45352Y-24851D01*
X45352Y-24934D02*
X45314Y-24893D01*
X45239Y-24851D01*
X45127Y-24851D01*
X45052Y-24893D01*
X45014Y-24975D01*
X45014Y-25429D01*
X45014Y-24975D02*
X44977Y-24893D01*
X44902Y-24851D01*
X44790Y-24851D01*
X44715Y-24893D01*
X44677Y-24975D01*
X44677Y-25429D01*
X44190Y-25429D02*
X44265Y-25388D01*
X44302Y-25346D01*
X44340Y-25264D01*
X44340Y-25016D01*
X44302Y-24934D01*
X44265Y-24893D01*
X44190Y-24851D01*
X44077Y-24851D01*
X44002Y-24893D01*
X43965Y-24934D01*
X43927Y-25016D01*
X43927Y-25264D01*
X43965Y-25346D01*
X44002Y-25388D01*
X44077Y-25429D01*
X44190Y-25429D01*
X43590Y-24851D02*
X43590Y-25429D01*
X43590Y-24934D02*
X43552Y-24893D01*
X43477Y-24851D01*
X43365Y-24851D01*
X43290Y-24893D01*
X43252Y-24975D01*
X43252Y-25429D01*
X42765Y-25429D02*
X42840Y-25388D01*
X42877Y-25346D01*
X42915Y-25264D01*
X42915Y-25016D01*
X42877Y-24934D01*
X42840Y-24893D01*
X42765Y-24851D01*
X42652Y-24851D01*
X42577Y-24893D01*
X42540Y-24934D01*
X42502Y-25016D01*
X42502Y-25264D01*
X42540Y-25346D01*
X42577Y-25388D01*
X42652Y-25429D01*
X42765Y-25429D01*
X41827Y-25429D02*
X41827Y-24563D01*
X41827Y-25388D02*
X41902Y-25429D01*
X42052Y-25429D01*
X42127Y-25388D01*
X42165Y-25346D01*
X42202Y-25264D01*
X42202Y-25016D01*
X42165Y-24934D01*
X42127Y-24893D01*
X42052Y-24851D01*
X41902Y-24851D01*
X41827Y-24893D01*
X41115Y-24851D02*
X41115Y-25429D01*
X41452Y-24851D02*
X41452Y-25305D01*
X41415Y-25388D01*
X41340Y-25429D01*
X41227Y-25429D01*
X41152Y-25388D01*
X41115Y-25346D01*
X40740Y-25429D02*
X40740Y-24851D01*
X40740Y-24563D02*
X40778Y-24604D01*
X40740Y-24645D01*
X40703Y-24604D01*
X40740Y-24563D01*
X40740Y-24645D01*
X40365Y-24851D02*
X40365Y-25429D01*
X40365Y-24934D02*
X40328Y-24893D01*
X40253Y-24851D01*
X40140Y-24851D01*
X40065Y-24893D01*
X40028Y-24975D01*
X40028Y-25429D01*
X39540Y-25429D02*
X39615Y-25388D01*
X39653Y-25346D01*
X39690Y-25264D01*
X39690Y-25016D01*
X39653Y-24934D01*
X39615Y-24893D01*
X39540Y-24851D01*
X39428Y-24851D01*
X39353Y-24893D01*
X39315Y-24934D01*
X39278Y-25016D01*
X39278Y-25264D01*
X39315Y-25346D01*
X39353Y-25388D01*
X39428Y-25429D01*
X39540Y-25429D01*
G54D10*
X45866Y-37204D02*
X45866Y-39330D01*
X46456Y-39527D02*
X47716Y-39527D01*
X46023Y-37204D02*
X45866Y-37204D01*
X48346Y-39330D02*
X48346Y-37204D01*
X48346Y-37204D02*
X48188Y-37204D01*
X47814Y-41653D02*
X49232Y-41653D01*
X49232Y-41653D02*
X49232Y-41023D01*
X49232Y-41023D02*
X47814Y-41023D01*
X47814Y-41023D02*
X47814Y-41653D01*
X43011Y-37716D02*
X44429Y-37716D01*
X44429Y-37716D02*
X44429Y-37086D01*
X44429Y-37086D02*
X43011Y-37086D01*
X43011Y-37086D02*
X43011Y-37716D01*
X43011Y-32204D02*
X44429Y-32204D01*
X44429Y-32204D02*
X44429Y-31574D01*
X44429Y-31574D02*
X43011Y-31574D01*
X43011Y-31574D02*
X43011Y-32204D01*
X40925Y-26181D02*
X39507Y-26181D01*
X39507Y-26181D02*
X39507Y-26811D01*
X39507Y-26811D02*
X40925Y-26811D01*
X40925Y-26811D02*
X40925Y-26181D01*
X41712Y-26811D02*
X43129Y-26811D01*
X43129Y-26811D02*
X43129Y-26181D01*
X43129Y-26181D02*
X41712Y-26181D01*
X41712Y-26181D02*
X41712Y-26811D01*
X45944Y-29625D02*
X45944Y-31043D01*
X45944Y-31043D02*
X46574Y-31043D01*
X46574Y-31043D02*
X46574Y-29625D01*
X46574Y-29625D02*
X45944Y-29625D01*
X46929Y-29625D02*
X46929Y-31043D01*
X46929Y-31043D02*
X47559Y-31043D01*
X47559Y-31043D02*
X47559Y-29625D01*
X47559Y-29625D02*
X46929Y-29625D01*
X47913Y-29625D02*
X47913Y-31043D01*
X47913Y-31043D02*
X48543Y-31043D01*
X48543Y-31043D02*
X48543Y-29625D01*
X48543Y-29625D02*
X47913Y-29625D01*
X48897Y-29625D02*
X48897Y-31043D01*
X48897Y-31043D02*
X49527Y-31043D01*
X49527Y-31043D02*
X49527Y-29625D01*
X49527Y-29625D02*
X48897Y-29625D01*
X48838Y-40354D02*
X50255Y-40354D01*
X50255Y-40354D02*
X50255Y-39724D01*
X50255Y-39724D02*
X48838Y-39724D01*
X48838Y-39724D02*
X48838Y-40354D01*
X42814Y-38070D02*
X41397Y-38070D01*
X41397Y-38070D02*
X41397Y-38700D01*
X41397Y-38700D02*
X42814Y-38700D01*
X42814Y-38700D02*
X42814Y-38070D01*
X43011Y-31023D02*
X44429Y-31023D01*
X44429Y-31023D02*
X44429Y-30393D01*
X44429Y-30393D02*
X43011Y-30393D01*
X43011Y-30393D02*
X43011Y-31023D01*
X41043Y-31023D02*
X42460Y-31023D01*
X42460Y-31023D02*
X42460Y-30393D01*
X42460Y-30393D02*
X41043Y-30393D01*
X41043Y-30393D02*
X41043Y-31023D01*
X41043Y-32204D02*
X42460Y-32204D01*
X42460Y-32204D02*
X42460Y-31574D01*
X42460Y-31574D02*
X41043Y-31574D01*
X41043Y-31574D02*
X41043Y-32204D01*
X45216Y-39724D02*
X43799Y-39724D01*
X43799Y-39724D02*
X43799Y-40354D01*
X43799Y-40354D02*
X45216Y-40354D01*
X45216Y-40354D02*
X45216Y-39724D01*
G54D13*
X43381Y-35245D02*
G75*
G03X43381Y-35245I-111J0D01*
G74*
G01*
X41519Y-33745D02*
X43519Y-33745D01*
X43519Y-33745D02*
X43519Y-35545D01*
X43519Y-35545D02*
X41519Y-35545D01*
X41519Y-35545D02*
X41519Y-33745D01*
G54D10*
X39370Y-28464D02*
X39251Y-28307D01*
X39015Y-28464D02*
X39370Y-28464D01*
X39370Y-28464D02*
X39251Y-28622D01*
X38228Y-28464D02*
X38346Y-28307D01*
X38543Y-28464D02*
X38228Y-28464D01*
X38228Y-28464D02*
X38346Y-28622D01*
X39566Y-31850D02*
X39448Y-31692D01*
X39212Y-31850D02*
X39566Y-31850D01*
X39566Y-31850D02*
X39448Y-32007D01*
X38425Y-31850D02*
X38543Y-31692D01*
X38740Y-31850D02*
X38425Y-31850D01*
X38425Y-31850D02*
X38543Y-32007D01*
G54D14*
G36*
X49853Y-24860D02*
X49842Y-25128D01*
X49776Y-25362D01*
X49659Y-25560D01*
X49493Y-25716D01*
X49281Y-25826D01*
X49244Y-25838D01*
X49063Y-25883D01*
X48903Y-25885D01*
X48734Y-25845D01*
X48715Y-25839D01*
X48511Y-25740D01*
X48341Y-25595D01*
X48243Y-25470D01*
X48187Y-25379D01*
X48152Y-25294D01*
X48132Y-25190D01*
X48121Y-25049D01*
X48116Y-24903D01*
X48123Y-24822D01*
X48140Y-24805D01*
X48167Y-24849D01*
X48192Y-24931D01*
X48196Y-24951D01*
X48238Y-25138D01*
X48289Y-25284D01*
X48345Y-25379D01*
X48390Y-25413D01*
X48466Y-25406D01*
X48534Y-25343D01*
X48584Y-25234D01*
X48600Y-25166D01*
X48622Y-25053D01*
X48653Y-24925D01*
X48661Y-24894D01*
X48701Y-24744D01*
X48774Y-25040D01*
X48819Y-25208D01*
X48858Y-25321D01*
X48897Y-25388D01*
X48941Y-25420D01*
X48985Y-25427D01*
X49058Y-25394D01*
X49119Y-25299D01*
X49167Y-25142D01*
X49177Y-25094D01*
X49199Y-24989D01*
X49225Y-24889D01*
X49250Y-24809D01*
X49270Y-24763D01*
X49279Y-24766D01*
X49294Y-24862D01*
X49321Y-24986D01*
X49355Y-25119D01*
X49390Y-25240D01*
X49421Y-25326D01*
X49433Y-25351D01*
X49501Y-25421D01*
X49568Y-25426D01*
X49632Y-25370D01*
X49690Y-25255D01*
X49740Y-25082D01*
X49748Y-25044D01*
X49782Y-24897D01*
X49810Y-24809D01*
X49833Y-24780D01*
X49848Y-24814D01*
X49853Y-24860D01*
X49853Y-24860D01*
X49853Y-24860D01*
G37*
G36*
X49748Y-24605D02*
X49727Y-24665D01*
X49711Y-24684D01*
X49686Y-24733D01*
X49656Y-24828D01*
X49628Y-24943D01*
X49594Y-25095D01*
X49566Y-25182D01*
X49542Y-25205D01*
X49516Y-25164D01*
X49487Y-25062D01*
X49469Y-24984D01*
X49415Y-24789D01*
X49355Y-24659D01*
X49292Y-24596D01*
X49228Y-24598D01*
X49165Y-24666D01*
X49107Y-24800D01*
X49061Y-24970D01*
X49032Y-25090D01*
X49005Y-25180D01*
X48985Y-25225D01*
X48982Y-25227D01*
X48965Y-25197D01*
X48940Y-25117D01*
X48911Y-25002D01*
X48903Y-24965D01*
X48854Y-24785D01*
X48796Y-24664D01*
X48733Y-24603D01*
X48666Y-24605D01*
X48599Y-24669D01*
X48547Y-24772D01*
X48501Y-24925D01*
X48466Y-25102D01*
X48447Y-25182D01*
X48424Y-25225D01*
X48419Y-25227D01*
X48400Y-25197D01*
X48377Y-25117D01*
X48353Y-25006D01*
X48351Y-24999D01*
X48323Y-24867D01*
X48290Y-24750D01*
X48262Y-24678D01*
X48237Y-24622D01*
X48235Y-24576D01*
X48261Y-24523D01*
X48323Y-24447D01*
X48380Y-24383D01*
X48523Y-24270D01*
X48707Y-24195D01*
X48912Y-24159D01*
X49122Y-24165D01*
X49320Y-24215D01*
X49377Y-24241D01*
X49485Y-24308D01*
X49591Y-24394D01*
X49679Y-24484D01*
X49736Y-24564D01*
X49748Y-24605D01*
X49748Y-24605D01*
X49748Y-24605D01*
G37*
%LPC*%
G54D15*
X48144Y-40055D03*
X46029Y-40055D03*
G54D16*
X47086Y-37639D03*
G54D17*
X51000Y-38000D03*
G54D18*
X51000Y-37000D03*
X51000Y-36000D03*
X51000Y-35000D03*
X51000Y-34000D03*
X51000Y-33000D03*
X51000Y-32000D03*
X51000Y-31000D03*
X51000Y-30000D03*
X51000Y-29000D03*
X51000Y-28000D03*
X51000Y-27000D03*
X51000Y-26000D03*
X51000Y-25000D03*
X51000Y-24000D03*
G54D17*
X37000Y-24000D03*
G54D18*
X37000Y-25000D03*
X37000Y-26000D03*
X37000Y-27000D03*
X37000Y-28000D03*
X37000Y-29000D03*
X37000Y-30000D03*
X37000Y-31000D03*
X37000Y-32000D03*
X37000Y-33000D03*
X37000Y-34000D03*
X37000Y-35000D03*
X37000Y-36000D03*
X37000Y-37000D03*
X37000Y-38000D03*
G54D19*
X48110Y-41338D03*
X48937Y-41338D03*
X43307Y-37401D03*
X44133Y-37401D03*
X43307Y-31889D03*
X44133Y-31889D03*
X40629Y-26496D03*
X39803Y-26496D03*
X42007Y-26496D03*
X42834Y-26496D03*
G54D20*
X46259Y-29921D03*
X46259Y-30748D03*
X47244Y-29921D03*
X47244Y-30748D03*
X48228Y-29921D03*
X48228Y-30748D03*
X49212Y-29921D03*
X49212Y-30748D03*
G54D19*
X49133Y-40039D03*
X49960Y-40039D03*
X42519Y-38385D03*
X41692Y-38385D03*
X43307Y-30708D03*
X44133Y-30708D03*
X41338Y-30708D03*
X42165Y-30708D03*
X41338Y-31889D03*
X42165Y-31889D03*
X44921Y-40039D03*
X44094Y-40039D03*
G54D21*
X42519Y-35787D03*
X42263Y-35787D03*
X42007Y-35787D03*
X41751Y-35787D03*
X41751Y-33464D03*
X43287Y-35787D03*
X43031Y-35787D03*
X42775Y-35787D03*
X42007Y-33464D03*
X42263Y-33464D03*
X42519Y-33464D03*
X42775Y-33464D03*
X43031Y-33464D03*
X43287Y-33464D03*
G54D17*
X51000Y-42000D03*
G54D18*
X51000Y-41000D03*
X51000Y-40000D03*
X51000Y-39000D03*
G54D17*
X37000Y-39000D03*
G54D18*
X37000Y-40000D03*
X37000Y-41000D03*
X37000Y-42000D03*
G54D22*
X38779Y-28464D03*
X39606Y-28464D03*
X37992Y-28464D03*
X38976Y-31850D03*
X39803Y-31850D03*
X38188Y-31850D03*
G54D23*
X43385Y-26496D03*
X49566Y-39133D03*
X43818Y-38425D03*
X44488Y-39094D03*
X48385Y-41023D03*
X43267Y-34921D03*
X44015Y-36023D03*
X50118Y-29527D03*
X41614Y-32086D03*
X40511Y-30551D03*
X44015Y-33031D03*
X43937Y-32559D03*
X48937Y-35984D03*
X43897Y-34370D03*
X43425Y-32559D03*
X37952Y-27598D03*
X38228Y-25826D03*
X40314Y-31377D03*
X41889Y-36692D03*
X42086Y-37125D03*
X41968Y-40000D03*
X45708Y-38937D03*
X46496Y-38937D03*
X39094Y-39015D03*
X49370Y-41889D03*
X41968Y-38976D03*
X41338Y-37716D03*
X40905Y-35078D03*
X41968Y-39488D03*
X43503Y-28503D03*
X46456Y-28385D03*
X38543Y-26535D03*
X43937Y-27362D03*
X46657Y-31964D03*
X47952Y-31850D03*
X47755Y-35393D03*
X44606Y-35984D03*
X49370Y-29409D03*
X46377Y-29370D03*
X36456Y-23503D03*
X39803Y-23543D03*
X44094Y-23543D03*
X47086Y-23425D03*
X49685Y-23464D03*
X51535Y-23503D03*
X38070Y-42598D03*
X36535Y-42598D03*
X36535Y-38425D03*
X36535Y-34488D03*
X36535Y-30511D03*
X47480Y-42637D03*
X49803Y-42519D03*
X51496Y-42519D03*
X51496Y-39527D03*
X51496Y-35511D03*
X51535Y-31574D03*
X51535Y-27559D03*
X39763Y-42598D03*
X43346Y-38700D03*
X42559Y-37559D03*
X43818Y-36811D03*
X41456Y-40354D03*
X43464Y-40314D03*
X39212Y-26496D03*
X41929Y-30472D03*
X39055Y-40551D03*
X39015Y-39606D03*
X39133Y-38149D03*
X49763Y-40511D03*
X49291Y-40905D03*
X48228Y-38937D03*
X45472Y-38228D03*
X43700Y-39173D03*
X41732Y-35000D03*
X48188Y-37086D03*
X45354Y-33661D03*
X41181Y-29881D03*
X42244Y-31377D03*
X41889Y-34133D03*
X44212Y-35157D03*
X47716Y-30275D03*
X41220Y-33307D03*
X44960Y-28897D03*
X44960Y-27952D03*
X48031Y-27913D03*
X42204Y-30078D03*
X40748Y-38346D03*
X46259Y-35472D03*
X48385Y-33700D03*
X46968Y-32992D03*
X42322Y-25748D03*
X38818Y-30551D03*
X40275Y-25708D03*
X38385Y-30039D03*
X44645Y-35472D03*
X48385Y-32086D03*
X47677Y-32283D03*
X48385Y-32637D03*
X45275Y-35472D03*
X45787Y-35472D03*
X48385Y-33188D03*
X47283Y-32637D03*
M02*
