G04 (created by PCBNEW (2013-07-07 BZR 4022)-stable) date 2015/11/30 22:46:21*
%MOIN*%
G04 Gerber Fmt 3.4, Leading zero omitted, Abs format*
%FSLAX34Y34*%
G01*
G70*
G90*
G04 APERTURE LIST*
%ADD10C,0.00590551*%
%ADD11R,0.06X0.06*%
%ADD12C,0.06*%
%ADD13R,0.0708661X0.0299213*%
%ADD14R,0.045X0.0393701*%
%ADD15R,0.0787402X0.0354331*%
%ADD16R,0.0275591X0.0472441*%
%ADD17R,0.23622X0.0787402*%
%ADD18R,0.0472441X0.110236*%
%ADD19C,0.035*%
G04 APERTURE END LIST*
G54D10*
G36*
X38884Y-29925D02*
X39009Y-29800D01*
X39565Y-30356D01*
X39440Y-30481D01*
X38884Y-29925D01*
X38884Y-29925D01*
G37*
G36*
X39106Y-29702D02*
X39232Y-29577D01*
X39788Y-30133D01*
X39663Y-30258D01*
X39106Y-29702D01*
X39106Y-29702D01*
G37*
G36*
X39329Y-29479D02*
X39454Y-29354D01*
X40011Y-29911D01*
X39886Y-30036D01*
X39329Y-29479D01*
X39329Y-29479D01*
G37*
G36*
X39552Y-29256D02*
X39677Y-29131D01*
X40234Y-29688D01*
X40108Y-29813D01*
X39552Y-29256D01*
X39552Y-29256D01*
G37*
G36*
X39775Y-29034D02*
X39900Y-28909D01*
X40456Y-29465D01*
X40331Y-29590D01*
X39775Y-29034D01*
X39775Y-29034D01*
G37*
G36*
X39997Y-28811D02*
X40123Y-28686D01*
X40679Y-29242D01*
X40554Y-29367D01*
X39997Y-28811D01*
X39997Y-28811D01*
G37*
G36*
X40220Y-28588D02*
X40345Y-28463D01*
X40902Y-29020D01*
X40777Y-29145D01*
X40220Y-28588D01*
X40220Y-28588D01*
G37*
G36*
X40443Y-28366D02*
X40568Y-28240D01*
X41125Y-28797D01*
X40999Y-28922D01*
X40443Y-28366D01*
X40443Y-28366D01*
G37*
G36*
X43104Y-31030D02*
X43230Y-30905D01*
X43786Y-31461D01*
X43661Y-31586D01*
X43104Y-31030D01*
X43104Y-31030D01*
G37*
G36*
X41542Y-32593D02*
X41667Y-32467D01*
X42223Y-33024D01*
X42098Y-33149D01*
X41542Y-32593D01*
X41542Y-32593D01*
G37*
G36*
X41768Y-32366D02*
X41893Y-32241D01*
X42450Y-32798D01*
X42324Y-32923D01*
X41768Y-32366D01*
X41768Y-32366D01*
G37*
G36*
X41994Y-32140D02*
X42119Y-32015D01*
X42676Y-32571D01*
X42551Y-32697D01*
X41994Y-32140D01*
X41994Y-32140D01*
G37*
G36*
X42213Y-31921D02*
X42339Y-31796D01*
X42895Y-32352D01*
X42770Y-32477D01*
X42213Y-31921D01*
X42213Y-31921D01*
G37*
G36*
X42440Y-31695D02*
X42565Y-31569D01*
X43121Y-32126D01*
X42996Y-32251D01*
X42440Y-31695D01*
X42440Y-31695D01*
G37*
G36*
X42659Y-31475D02*
X42784Y-31350D01*
X43341Y-31907D01*
X43215Y-32032D01*
X42659Y-31475D01*
X42659Y-31475D01*
G37*
G36*
X42885Y-31249D02*
X43010Y-31124D01*
X43567Y-31680D01*
X43442Y-31806D01*
X42885Y-31249D01*
X42885Y-31249D01*
G37*
G36*
X41554Y-28794D02*
X42111Y-28238D01*
X42236Y-28363D01*
X41680Y-28919D01*
X41554Y-28794D01*
X41554Y-28794D01*
G37*
G36*
X41776Y-29016D02*
X42333Y-28460D01*
X42458Y-28585D01*
X41902Y-29141D01*
X41776Y-29016D01*
X41776Y-29016D01*
G37*
G36*
X42000Y-29240D02*
X42556Y-28683D01*
X42682Y-28808D01*
X42125Y-29365D01*
X42000Y-29240D01*
X42000Y-29240D01*
G37*
G36*
X42222Y-29462D02*
X42778Y-28905D01*
X42904Y-29030D01*
X42347Y-29587D01*
X42222Y-29462D01*
X42222Y-29462D01*
G37*
G36*
X42445Y-29685D02*
X43002Y-29128D01*
X43127Y-29254D01*
X42571Y-29810D01*
X42445Y-29685D01*
X42445Y-29685D01*
G37*
G36*
X42667Y-29907D02*
X43224Y-29351D01*
X43349Y-29476D01*
X42793Y-30032D01*
X42667Y-29907D01*
X42667Y-29907D01*
G37*
G36*
X42891Y-30130D02*
X43447Y-29574D01*
X43573Y-29699D01*
X43016Y-30256D01*
X42891Y-30130D01*
X42891Y-30130D01*
G37*
G36*
X43113Y-30352D02*
X43669Y-29796D01*
X43795Y-29921D01*
X43238Y-30478D01*
X43113Y-30352D01*
X43113Y-30352D01*
G37*
G36*
X38883Y-31468D02*
X39440Y-30912D01*
X39565Y-31037D01*
X39008Y-31593D01*
X38883Y-31468D01*
X38883Y-31468D01*
G37*
G36*
X39102Y-31688D02*
X39659Y-31131D01*
X39784Y-31256D01*
X39227Y-31813D01*
X39102Y-31688D01*
X39102Y-31688D01*
G37*
G36*
X39328Y-31914D02*
X39885Y-31357D01*
X40010Y-31482D01*
X39454Y-32039D01*
X39328Y-31914D01*
X39328Y-31914D01*
G37*
G36*
X39548Y-32133D02*
X40104Y-31576D01*
X40229Y-31702D01*
X39673Y-32258D01*
X39548Y-32133D01*
X39548Y-32133D01*
G37*
G36*
X39767Y-32352D02*
X40323Y-31796D01*
X40449Y-31921D01*
X39892Y-32477D01*
X39767Y-32352D01*
X39767Y-32352D01*
G37*
G36*
X39993Y-32578D02*
X40550Y-32022D01*
X40675Y-32147D01*
X40118Y-32704D01*
X39993Y-32578D01*
X39993Y-32578D01*
G37*
G36*
X40219Y-32805D02*
X40776Y-32248D01*
X40901Y-32373D01*
X40345Y-32930D01*
X40219Y-32805D01*
X40219Y-32805D01*
G37*
G36*
X40446Y-33031D02*
X41002Y-32475D01*
X41127Y-32600D01*
X40571Y-33156D01*
X40446Y-33031D01*
X40446Y-33031D01*
G37*
G54D11*
X51000Y-38000D03*
G54D12*
X51000Y-37000D03*
X51000Y-36000D03*
X51000Y-35000D03*
X51000Y-34000D03*
X51000Y-33000D03*
X51000Y-32000D03*
X51000Y-31000D03*
X51000Y-30000D03*
X51000Y-29000D03*
X51000Y-28000D03*
X51000Y-27000D03*
X51000Y-26000D03*
X51000Y-25000D03*
X51000Y-24000D03*
G54D11*
X37000Y-24000D03*
G54D12*
X37000Y-25000D03*
X37000Y-26000D03*
X37000Y-27000D03*
X37000Y-28000D03*
X37000Y-29000D03*
X37000Y-30000D03*
X37000Y-31000D03*
X37000Y-32000D03*
X37000Y-33000D03*
X37000Y-34000D03*
X37000Y-35000D03*
X37000Y-36000D03*
X37000Y-37000D03*
X37000Y-38000D03*
G54D13*
X49137Y-33464D03*
X49137Y-32964D03*
X49137Y-32464D03*
X49137Y-31964D03*
X46137Y-33464D03*
X46137Y-32964D03*
X46137Y-32464D03*
X46137Y-31964D03*
G54D14*
X49212Y-25000D03*
X49212Y-24173D03*
X49212Y-26968D03*
X49212Y-26141D03*
G54D15*
X40078Y-35393D03*
X40078Y-35984D03*
X40078Y-36574D03*
X40078Y-37165D03*
X40078Y-37755D03*
X40078Y-38346D03*
X40078Y-38937D03*
X40078Y-39527D03*
X40078Y-40118D03*
X47165Y-40118D03*
X47165Y-39527D03*
X47165Y-38937D03*
X47165Y-38346D03*
X47165Y-37755D03*
X47165Y-37165D03*
X47165Y-36574D03*
X47165Y-35984D03*
X47165Y-35393D03*
G54D16*
X48267Y-30551D03*
X48267Y-28503D03*
X49370Y-30551D03*
X49370Y-28503D03*
X45905Y-30551D03*
X45905Y-28503D03*
X47007Y-30551D03*
X47007Y-28503D03*
G54D11*
X51000Y-42000D03*
G54D12*
X51000Y-41000D03*
X51000Y-40000D03*
X51000Y-39000D03*
G54D11*
X37000Y-39000D03*
G54D12*
X37000Y-40000D03*
X37000Y-41000D03*
X37000Y-42000D03*
G54D17*
X43307Y-24763D03*
X39370Y-24763D03*
G54D18*
X47874Y-26771D03*
X46889Y-26771D03*
X45905Y-26771D03*
X45905Y-24488D03*
X46889Y-24488D03*
X47874Y-24488D03*
G54D19*
X43385Y-26496D03*
X49566Y-39133D03*
X43818Y-38425D03*
X44488Y-39094D03*
X48385Y-41023D03*
X43267Y-34921D03*
X44015Y-36023D03*
X50118Y-29527D03*
X41614Y-32086D03*
X40511Y-30551D03*
X44015Y-33031D03*
X43937Y-32559D03*
X48937Y-35984D03*
X43897Y-34370D03*
X43425Y-32559D03*
X37952Y-27598D03*
X38228Y-25826D03*
X40314Y-31377D03*
X41889Y-36692D03*
X42086Y-37125D03*
X41968Y-40000D03*
X45708Y-38937D03*
X46496Y-38937D03*
X39094Y-39015D03*
X49370Y-41889D03*
X41968Y-38976D03*
X41338Y-37716D03*
X40905Y-35078D03*
X41968Y-39488D03*
X43503Y-28503D03*
X46456Y-28385D03*
X38543Y-26535D03*
X43937Y-27362D03*
X46657Y-31964D03*
X47952Y-31850D03*
X47755Y-35393D03*
X44606Y-35984D03*
X49370Y-29409D03*
X46377Y-29370D03*
X36456Y-23503D03*
X39803Y-23543D03*
X44094Y-23543D03*
X47086Y-23425D03*
X49685Y-23464D03*
X51535Y-23503D03*
X38070Y-42598D03*
X36535Y-42598D03*
X36535Y-38425D03*
X36535Y-34488D03*
X36535Y-30511D03*
X47480Y-42637D03*
X49803Y-42519D03*
X51496Y-42519D03*
X51496Y-39527D03*
X51496Y-35511D03*
X51535Y-31574D03*
X51535Y-27559D03*
X39763Y-42598D03*
X43346Y-38700D03*
X42559Y-37559D03*
X43818Y-36811D03*
X41456Y-40354D03*
X43464Y-40314D03*
X39212Y-26496D03*
X41929Y-30472D03*
X39055Y-40551D03*
X39015Y-39606D03*
X39133Y-38149D03*
X49763Y-40511D03*
X49291Y-40905D03*
X48228Y-38937D03*
X45472Y-38228D03*
X43700Y-39173D03*
X41732Y-35000D03*
X48188Y-37086D03*
X45354Y-33661D03*
X41181Y-29881D03*
X42244Y-31377D03*
X41889Y-34133D03*
X44212Y-35157D03*
X47716Y-30275D03*
X41220Y-33307D03*
X44960Y-28897D03*
X44960Y-27952D03*
X48031Y-27913D03*
X42204Y-30078D03*
X40748Y-38346D03*
X46259Y-35472D03*
X48385Y-33700D03*
X46968Y-32992D03*
X42322Y-25748D03*
X38818Y-30551D03*
X40275Y-25708D03*
X38385Y-30039D03*
X44645Y-35472D03*
X48385Y-32086D03*
X47677Y-32283D03*
X48385Y-32637D03*
X45275Y-35472D03*
X45787Y-35472D03*
X48385Y-33188D03*
X47283Y-32637D03*
M02*
