M48
;DRILL file {Pcbnew (2013-07-07 BZR 4022)-stable} date 2015/10/26 20:19:59
;FORMAT={3:3/ absolute / metric / suppress trailing zeros}
FMAT,2
METRIC,LZ
T1C0.635
T2C1.016
T3C3.200
%
G90
G05
M71
T1
X048Y-049
X0489Y-0398
X049Y-0628
X0491Y-0386
X0499Y-0609
X0501Y-0398
X0501Y-0411
X0501Y-0423
X0501Y-0438
X0512Y-0526
X0518Y-0366
X0518Y-0392
X0518Y-0431
X053Y-078
X0533Y-0684
X0534Y-0729
X0535Y-0653
X0542Y-0578
X0545Y-0718
X0548Y-0609
X0553Y-0349
X0553Y-0457
X056Y-078
X0565Y-0318
X0565Y-0526
X0566Y-033
X0577Y-0342
X0577Y-0374
X0579Y-0386
X0579Y-0399
X0579Y-0411
X0579Y-0423
X0579Y-0435
X059Y-078
X0593Y-0413
X0595Y-0384
X0595Y-0547
X0597Y-0329
X0598Y-0498
X062Y-078
X0626Y-0461
X062627Y-043927
X0633Y-0561
X0634Y-0549
X0635Y-0585
X0638Y-053
X064Y-0326
X064Y-0481
X0645Y-0666
X0647Y-0435
X065Y-078
X0654Y-0674
X0654Y-0691
X0664Y-0682
X0666Y-0596
X067Y-0646
X0671Y-0325
X0673Y-0456
X067564Y-042664
X0676Y-0468
X068Y-078
X0683Y-0729
X0685Y-0574
X0688Y-0608
X069Y-0414
X069Y-0492
X0691Y-0505
X0703Y-0504
X071Y-078
X0715Y-0374
X0715Y-0392
X0715Y-0441
X0715Y-0465
X0715Y-0482
X0716Y-0509
X0717Y-0645
X0718Y-0334
X0718Y-0359
X0723Y-0712
X0725Y-0654
X0727Y-0516
X0732Y-0419
X0733Y-0663
X0739Y-0676
X074Y-0509
X074Y-078
X0748Y-0383
X0753Y-0658
X0769Y-0643
X0773Y-0422
T2
X04572Y-03302
X04572Y-03556
X04572Y-0381
X04572Y-04064
X04572Y-04318
X04572Y-04572
X04572Y-04826
X04572Y-0508
X04572Y-05334
X04572Y-05588
X04572Y-05842
X04572Y-06096
X04572Y-0635
X04572Y-06604
X04572Y-06858
X07874Y-03302
X07874Y-03556
X07874Y-0381
X07874Y-04064
X07874Y-04318
X07874Y-04572
X07874Y-04826
X07874Y-0508
X07874Y-05334
X07874Y-05588
X07874Y-05842
X07874Y-06096
X07874Y-0635
X07874Y-06604
X07874Y-06858
T3
X048Y-076
X077Y-076
T0
M30
