G04 (created by PCBNEW (2013-07-07 BZR 4022)-stable) date 2015/11/30 22:46:21*
%MOIN*%
G04 Gerber Fmt 3.4, Leading zero omitted, Abs format*
%FSLAX34Y34*%
G01*
G70*
G90*
G04 APERTURE LIST*
%ADD10C,0.00590551*%
%ADD11C,0.00492126*%
%ADD12C,0.00787402*%
%ADD13C,0.006*%
%ADD14C,0.01*%
%ADD15C,0.0001*%
%ADD16R,0.06X0.06*%
%ADD17C,0.06*%
%ADD18R,0.0708661X0.0299213*%
%ADD19R,0.045X0.0393701*%
%ADD20R,0.0787402X0.0354331*%
%ADD21R,0.0275591X0.0472441*%
%ADD22R,0.23622X0.0787402*%
%ADD23R,0.0472441X0.110236*%
%ADD24C,0.035*%
G04 APERTURE END LIST*
G54D10*
G54D11*
X48701Y-24435D02*
X48504Y-24435D01*
X48504Y-24360D01*
X48514Y-24341D01*
X48523Y-24332D01*
X48542Y-24323D01*
X48570Y-24323D01*
X48589Y-24332D01*
X48598Y-24341D01*
X48607Y-24360D01*
X48607Y-24435D01*
X48504Y-24257D02*
X48701Y-24210D01*
X48561Y-24173D01*
X48701Y-24135D01*
X48504Y-24088D01*
X48701Y-23901D02*
X48607Y-23967D01*
X48701Y-24013D02*
X48504Y-24013D01*
X48504Y-23938D01*
X48514Y-23920D01*
X48523Y-23910D01*
X48542Y-23901D01*
X48570Y-23901D01*
X48589Y-23910D01*
X48598Y-23920D01*
X48607Y-23938D01*
X48607Y-24013D01*
X49748Y-38977D02*
X49748Y-38780D01*
X49880Y-38780D02*
X49917Y-38780D01*
X49936Y-38789D01*
X49955Y-38808D01*
X49964Y-38846D01*
X49964Y-38911D01*
X49955Y-38949D01*
X49936Y-38967D01*
X49917Y-38977D01*
X49880Y-38977D01*
X49861Y-38967D01*
X49842Y-38949D01*
X49833Y-38911D01*
X49833Y-38846D01*
X49842Y-38808D01*
X49861Y-38789D01*
X49880Y-38780D01*
X50151Y-38977D02*
X50039Y-38977D01*
X50095Y-38977D02*
X50095Y-38780D01*
X50076Y-38808D01*
X50058Y-38827D01*
X50039Y-38836D01*
X50217Y-38780D02*
X50339Y-38780D01*
X50273Y-38855D01*
X50301Y-38855D01*
X50320Y-38864D01*
X50329Y-38874D01*
X50339Y-38892D01*
X50339Y-38939D01*
X50329Y-38958D01*
X50320Y-38967D01*
X50301Y-38977D01*
X50245Y-38977D01*
X50226Y-38967D01*
X50217Y-38958D01*
X49748Y-40079D02*
X49748Y-39882D01*
X49880Y-39882D02*
X49917Y-39882D01*
X49936Y-39892D01*
X49955Y-39910D01*
X49964Y-39948D01*
X49964Y-40014D01*
X49955Y-40051D01*
X49936Y-40070D01*
X49917Y-40079D01*
X49880Y-40079D01*
X49861Y-40070D01*
X49842Y-40051D01*
X49833Y-40014D01*
X49833Y-39948D01*
X49842Y-39910D01*
X49861Y-39892D01*
X49880Y-39882D01*
X50151Y-40079D02*
X50039Y-40079D01*
X50095Y-40079D02*
X50095Y-39882D01*
X50076Y-39910D01*
X50058Y-39929D01*
X50039Y-39939D01*
X50226Y-39901D02*
X50236Y-39892D01*
X50254Y-39882D01*
X50301Y-39882D01*
X50320Y-39892D01*
X50329Y-39901D01*
X50339Y-39920D01*
X50339Y-39939D01*
X50329Y-39967D01*
X50217Y-40079D01*
X50339Y-40079D01*
X49921Y-41103D02*
X49921Y-40906D01*
X50052Y-40906D02*
X50089Y-40906D01*
X50108Y-40915D01*
X50127Y-40934D01*
X50136Y-40972D01*
X50136Y-41037D01*
X50127Y-41075D01*
X50108Y-41093D01*
X50089Y-41103D01*
X50052Y-41103D01*
X50033Y-41093D01*
X50014Y-41075D01*
X50005Y-41037D01*
X50005Y-40972D01*
X50014Y-40934D01*
X50033Y-40915D01*
X50052Y-40906D01*
X50314Y-40906D02*
X50221Y-40906D01*
X50211Y-41000D01*
X50221Y-40990D01*
X50239Y-40981D01*
X50286Y-40981D01*
X50305Y-40990D01*
X50314Y-41000D01*
X50324Y-41018D01*
X50324Y-41065D01*
X50314Y-41084D01*
X50305Y-41093D01*
X50286Y-41103D01*
X50239Y-41103D01*
X50221Y-41093D01*
X50211Y-41084D01*
X49921Y-42087D02*
X49921Y-41890D01*
X50052Y-41890D02*
X50089Y-41890D01*
X50108Y-41900D01*
X50127Y-41918D01*
X50136Y-41956D01*
X50136Y-42021D01*
X50127Y-42059D01*
X50108Y-42078D01*
X50089Y-42087D01*
X50052Y-42087D01*
X50033Y-42078D01*
X50014Y-42059D01*
X50005Y-42021D01*
X50005Y-41956D01*
X50014Y-41918D01*
X50033Y-41900D01*
X50052Y-41890D01*
X50305Y-41956D02*
X50305Y-42087D01*
X50258Y-41881D02*
X50211Y-42021D01*
X50333Y-42021D01*
X37684Y-41890D02*
X37797Y-41890D01*
X37740Y-42087D02*
X37740Y-41890D01*
X37844Y-41890D02*
X37975Y-42087D01*
X37975Y-41890D02*
X37844Y-42087D01*
X37801Y-41063D02*
X37736Y-40970D01*
X37689Y-41063D02*
X37689Y-40867D01*
X37764Y-40867D01*
X37783Y-40876D01*
X37792Y-40885D01*
X37801Y-40904D01*
X37801Y-40932D01*
X37792Y-40951D01*
X37783Y-40960D01*
X37764Y-40970D01*
X37689Y-40970D01*
X37867Y-40867D02*
X37998Y-41063D01*
X37998Y-40867D02*
X37867Y-41063D01*
X37622Y-40079D02*
X37622Y-39882D01*
X37754Y-39882D02*
X37791Y-39882D01*
X37810Y-39892D01*
X37829Y-39910D01*
X37838Y-39948D01*
X37838Y-40014D01*
X37829Y-40051D01*
X37810Y-40070D01*
X37791Y-40079D01*
X37754Y-40079D01*
X37735Y-40070D01*
X37716Y-40051D01*
X37707Y-40014D01*
X37707Y-39948D01*
X37716Y-39910D01*
X37735Y-39892D01*
X37754Y-39882D01*
X38025Y-40079D02*
X37913Y-40079D01*
X37969Y-40079D02*
X37969Y-39882D01*
X37950Y-39910D01*
X37932Y-39929D01*
X37913Y-39939D01*
X38194Y-39948D02*
X38194Y-40079D01*
X38147Y-39873D02*
X38100Y-40014D01*
X38222Y-40014D01*
X37622Y-39095D02*
X37622Y-38898D01*
X37754Y-38898D02*
X37791Y-38898D01*
X37810Y-38907D01*
X37829Y-38926D01*
X37838Y-38964D01*
X37838Y-39029D01*
X37829Y-39067D01*
X37810Y-39086D01*
X37791Y-39095D01*
X37754Y-39095D01*
X37735Y-39086D01*
X37716Y-39067D01*
X37707Y-39029D01*
X37707Y-38964D01*
X37716Y-38926D01*
X37735Y-38907D01*
X37754Y-38898D01*
X38025Y-39095D02*
X37913Y-39095D01*
X37969Y-39095D02*
X37969Y-38898D01*
X37950Y-38926D01*
X37932Y-38945D01*
X37913Y-38954D01*
X38194Y-38898D02*
X38157Y-38898D01*
X38138Y-38907D01*
X38128Y-38917D01*
X38110Y-38945D01*
X38100Y-38982D01*
X38100Y-39057D01*
X38110Y-39076D01*
X38119Y-39086D01*
X38138Y-39095D01*
X38175Y-39095D01*
X38194Y-39086D01*
X38203Y-39076D01*
X38213Y-39057D01*
X38213Y-39011D01*
X38203Y-38992D01*
X38194Y-38982D01*
X38175Y-38973D01*
X38138Y-38973D01*
X38119Y-38982D01*
X38110Y-38992D01*
X38100Y-39011D01*
G54D12*
X51496Y-38464D02*
X47834Y-38464D01*
X36771Y-38503D02*
X39527Y-38503D01*
G54D11*
X49865Y-24020D02*
X50014Y-24020D01*
X49940Y-24095D02*
X49940Y-23945D01*
X50202Y-23898D02*
X50108Y-23898D01*
X50099Y-23992D01*
X50108Y-23982D01*
X50127Y-23973D01*
X50174Y-23973D01*
X50193Y-23982D01*
X50202Y-23992D01*
X50211Y-24011D01*
X50211Y-24057D01*
X50202Y-24076D01*
X50193Y-24086D01*
X50174Y-24095D01*
X50127Y-24095D01*
X50108Y-24086D01*
X50099Y-24076D01*
X50268Y-23898D02*
X50333Y-24095D01*
X50399Y-23898D01*
X49968Y-24931D02*
X49949Y-24922D01*
X49921Y-24922D01*
X49893Y-24931D01*
X49874Y-24950D01*
X49865Y-24969D01*
X49855Y-25006D01*
X49855Y-25034D01*
X49865Y-25072D01*
X49874Y-25090D01*
X49893Y-25109D01*
X49921Y-25119D01*
X49940Y-25119D01*
X49968Y-25109D01*
X49977Y-25100D01*
X49977Y-25034D01*
X49940Y-25034D01*
X50061Y-25119D02*
X50061Y-24922D01*
X50174Y-25119D01*
X50174Y-24922D01*
X50268Y-25119D02*
X50268Y-24922D01*
X50314Y-24922D01*
X50343Y-24931D01*
X50361Y-24950D01*
X50371Y-24969D01*
X50380Y-25006D01*
X50380Y-25034D01*
X50371Y-25072D01*
X50361Y-25090D01*
X50343Y-25109D01*
X50314Y-25119D01*
X50268Y-25119D01*
X50010Y-26103D02*
X49944Y-26009D01*
X49897Y-26103D02*
X49897Y-25906D01*
X49972Y-25906D01*
X49991Y-25915D01*
X50000Y-25925D01*
X50010Y-25943D01*
X50010Y-25972D01*
X50000Y-25990D01*
X49991Y-26000D01*
X49972Y-26009D01*
X49897Y-26009D01*
X50085Y-26093D02*
X50113Y-26103D01*
X50160Y-26103D01*
X50179Y-26093D01*
X50188Y-26084D01*
X50197Y-26065D01*
X50197Y-26047D01*
X50188Y-26028D01*
X50179Y-26018D01*
X50160Y-26009D01*
X50122Y-26000D01*
X50104Y-25990D01*
X50094Y-25981D01*
X50085Y-25962D01*
X50085Y-25943D01*
X50094Y-25925D01*
X50104Y-25915D01*
X50122Y-25906D01*
X50169Y-25906D01*
X50197Y-25915D01*
X50254Y-25906D02*
X50366Y-25906D01*
X50310Y-26103D02*
X50310Y-25906D01*
X49825Y-27012D02*
X49975Y-27012D01*
X49900Y-27087D02*
X49900Y-26937D01*
X50163Y-26890D02*
X50069Y-26890D01*
X50059Y-26984D01*
X50069Y-26975D01*
X50088Y-26965D01*
X50134Y-26965D01*
X50153Y-26975D01*
X50163Y-26984D01*
X50172Y-27003D01*
X50172Y-27050D01*
X50163Y-27068D01*
X50153Y-27078D01*
X50134Y-27087D01*
X50088Y-27087D01*
X50069Y-27078D01*
X50059Y-27068D01*
X50228Y-26890D02*
X50294Y-27087D01*
X50359Y-26890D01*
X50056Y-28094D02*
X50149Y-28094D01*
X50037Y-28150D02*
X50103Y-27953D01*
X50168Y-28150D01*
X50215Y-27953D02*
X50346Y-27953D01*
X50262Y-28150D01*
X50056Y-29039D02*
X50149Y-29039D01*
X50037Y-29095D02*
X50103Y-28898D01*
X50168Y-29095D01*
X50318Y-28898D02*
X50281Y-28898D01*
X50262Y-28907D01*
X50253Y-28917D01*
X50234Y-28945D01*
X50224Y-28982D01*
X50224Y-29057D01*
X50234Y-29076D01*
X50243Y-29086D01*
X50262Y-29095D01*
X50299Y-29095D01*
X50318Y-29086D01*
X50328Y-29076D01*
X50337Y-29057D01*
X50337Y-29011D01*
X50328Y-28992D01*
X50318Y-28982D01*
X50299Y-28973D01*
X50262Y-28973D01*
X50243Y-28982D01*
X50234Y-28992D01*
X50224Y-29011D01*
X49977Y-30023D02*
X50071Y-30023D01*
X49958Y-30079D02*
X50024Y-29882D01*
X50089Y-30079D01*
X50249Y-29882D02*
X50155Y-29882D01*
X50146Y-29976D01*
X50155Y-29967D01*
X50174Y-29957D01*
X50221Y-29957D01*
X50239Y-29967D01*
X50249Y-29976D01*
X50258Y-29995D01*
X50258Y-30042D01*
X50249Y-30060D01*
X50239Y-30070D01*
X50221Y-30079D01*
X50174Y-30079D01*
X50155Y-30070D01*
X50146Y-30060D01*
X49883Y-30395D02*
X49911Y-30404D01*
X49958Y-30404D01*
X49977Y-30395D01*
X49986Y-30385D01*
X49996Y-30366D01*
X49996Y-30348D01*
X49986Y-30329D01*
X49977Y-30320D01*
X49958Y-30310D01*
X49921Y-30301D01*
X49902Y-30291D01*
X49893Y-30282D01*
X49883Y-30263D01*
X49883Y-30245D01*
X49893Y-30226D01*
X49902Y-30217D01*
X49921Y-30207D01*
X49968Y-30207D01*
X49996Y-30217D01*
X50193Y-30385D02*
X50183Y-30395D01*
X50155Y-30404D01*
X50136Y-30404D01*
X50108Y-30395D01*
X50089Y-30376D01*
X50080Y-30357D01*
X50071Y-30320D01*
X50071Y-30291D01*
X50080Y-30254D01*
X50089Y-30235D01*
X50108Y-30217D01*
X50136Y-30207D01*
X50155Y-30207D01*
X50183Y-30217D01*
X50193Y-30226D01*
X50371Y-30404D02*
X50277Y-30404D01*
X50277Y-30207D01*
X49977Y-30889D02*
X50071Y-30889D01*
X49958Y-30945D02*
X50024Y-30748D01*
X50089Y-30945D01*
X50239Y-30814D02*
X50239Y-30945D01*
X50193Y-30739D02*
X50146Y-30880D01*
X50268Y-30880D01*
X49879Y-31261D02*
X49907Y-31270D01*
X49954Y-31270D01*
X49972Y-31261D01*
X49982Y-31251D01*
X49991Y-31233D01*
X49991Y-31214D01*
X49982Y-31195D01*
X49972Y-31186D01*
X49954Y-31176D01*
X49916Y-31167D01*
X49897Y-31158D01*
X49888Y-31148D01*
X49879Y-31130D01*
X49879Y-31111D01*
X49888Y-31092D01*
X49897Y-31083D01*
X49916Y-31073D01*
X49963Y-31073D01*
X49991Y-31083D01*
X50075Y-31270D02*
X50075Y-31073D01*
X50122Y-31073D01*
X50150Y-31083D01*
X50169Y-31101D01*
X50179Y-31120D01*
X50188Y-31158D01*
X50188Y-31186D01*
X50179Y-31223D01*
X50169Y-31242D01*
X50150Y-31261D01*
X50122Y-31270D01*
X50075Y-31270D01*
X50263Y-31214D02*
X50357Y-31214D01*
X50244Y-31270D02*
X50310Y-31073D01*
X50375Y-31270D01*
X50056Y-32031D02*
X50149Y-32031D01*
X50037Y-32087D02*
X50103Y-31890D01*
X50168Y-32087D01*
X50215Y-31890D02*
X50337Y-31890D01*
X50271Y-31965D01*
X50299Y-31965D01*
X50318Y-31975D01*
X50328Y-31984D01*
X50337Y-32003D01*
X50337Y-32050D01*
X50328Y-32068D01*
X50318Y-32078D01*
X50299Y-32087D01*
X50243Y-32087D01*
X50224Y-32078D01*
X50215Y-32068D01*
X50056Y-33015D02*
X50149Y-33015D01*
X50037Y-33071D02*
X50103Y-32874D01*
X50168Y-33071D01*
X50224Y-32893D02*
X50234Y-32884D01*
X50253Y-32874D01*
X50299Y-32874D01*
X50318Y-32884D01*
X50328Y-32893D01*
X50337Y-32912D01*
X50337Y-32931D01*
X50328Y-32959D01*
X50215Y-33071D01*
X50337Y-33071D01*
X50056Y-34039D02*
X50149Y-34039D01*
X50037Y-34095D02*
X50103Y-33898D01*
X50168Y-34095D01*
X50337Y-34095D02*
X50224Y-34095D01*
X50281Y-34095D02*
X50281Y-33898D01*
X50262Y-33926D01*
X50243Y-33945D01*
X50224Y-33954D01*
X50056Y-35023D02*
X50149Y-35023D01*
X50037Y-35079D02*
X50103Y-34882D01*
X50168Y-35079D01*
X50271Y-34882D02*
X50290Y-34882D01*
X50309Y-34892D01*
X50318Y-34901D01*
X50328Y-34920D01*
X50337Y-34957D01*
X50337Y-35004D01*
X50328Y-35042D01*
X50318Y-35060D01*
X50309Y-35070D01*
X50290Y-35079D01*
X50271Y-35079D01*
X50253Y-35070D01*
X50243Y-35060D01*
X50234Y-35042D01*
X50224Y-35004D01*
X50224Y-34957D01*
X50234Y-34920D01*
X50243Y-34901D01*
X50253Y-34892D01*
X50271Y-34882D01*
X49720Y-36047D02*
X49814Y-36047D01*
X49701Y-36103D02*
X49767Y-35906D01*
X49833Y-36103D01*
X50011Y-36103D02*
X49945Y-36009D01*
X49898Y-36103D02*
X49898Y-35906D01*
X49973Y-35906D01*
X49992Y-35915D01*
X50001Y-35925D01*
X50011Y-35943D01*
X50011Y-35972D01*
X50001Y-35990D01*
X49992Y-36000D01*
X49973Y-36009D01*
X49898Y-36009D01*
X50095Y-36000D02*
X50161Y-36000D01*
X50189Y-36103D02*
X50095Y-36103D01*
X50095Y-35906D01*
X50189Y-35906D01*
X50339Y-36000D02*
X50273Y-36000D01*
X50273Y-36103D02*
X50273Y-35906D01*
X50367Y-35906D01*
X49653Y-37012D02*
X49803Y-37012D01*
X49728Y-37087D02*
X49728Y-36937D01*
X49878Y-36890D02*
X50000Y-36890D01*
X49934Y-36965D01*
X49962Y-36965D01*
X49981Y-36975D01*
X49990Y-36984D01*
X50000Y-37003D01*
X50000Y-37050D01*
X49990Y-37068D01*
X49981Y-37078D01*
X49962Y-37087D01*
X49906Y-37087D01*
X49887Y-37078D01*
X49878Y-37068D01*
X50056Y-36890D02*
X50121Y-37087D01*
X50187Y-36890D01*
X50234Y-36890D02*
X50356Y-36890D01*
X50290Y-36965D01*
X50318Y-36965D01*
X50337Y-36975D01*
X50346Y-36984D01*
X50356Y-37003D01*
X50356Y-37050D01*
X50346Y-37068D01*
X50337Y-37078D01*
X50318Y-37087D01*
X50262Y-37087D01*
X50243Y-37078D01*
X50234Y-37068D01*
X49839Y-38071D02*
X49839Y-37874D01*
X49886Y-37874D01*
X49914Y-37884D01*
X49933Y-37903D01*
X49942Y-37921D01*
X49952Y-37959D01*
X49952Y-37987D01*
X49942Y-38024D01*
X49933Y-38043D01*
X49914Y-38062D01*
X49886Y-38071D01*
X49839Y-38071D01*
X50139Y-38071D02*
X50027Y-38071D01*
X50083Y-38071D02*
X50083Y-37874D01*
X50064Y-37903D01*
X50045Y-37921D01*
X50027Y-37931D01*
X50205Y-37874D02*
X50327Y-37874D01*
X50261Y-37949D01*
X50289Y-37949D01*
X50308Y-37959D01*
X50317Y-37968D01*
X50327Y-37987D01*
X50327Y-38034D01*
X50317Y-38053D01*
X50308Y-38062D01*
X50289Y-38071D01*
X50233Y-38071D01*
X50214Y-38062D01*
X50205Y-38053D01*
X37674Y-38071D02*
X37674Y-37874D01*
X37721Y-37874D01*
X37749Y-37884D01*
X37768Y-37903D01*
X37777Y-37921D01*
X37786Y-37959D01*
X37786Y-37987D01*
X37777Y-38024D01*
X37768Y-38043D01*
X37749Y-38062D01*
X37721Y-38071D01*
X37674Y-38071D01*
X37974Y-38071D02*
X37861Y-38071D01*
X37918Y-38071D02*
X37918Y-37874D01*
X37899Y-37903D01*
X37880Y-37921D01*
X37861Y-37931D01*
X38049Y-37893D02*
X38058Y-37884D01*
X38077Y-37874D01*
X38124Y-37874D01*
X38143Y-37884D01*
X38152Y-37893D01*
X38161Y-37912D01*
X38161Y-37931D01*
X38152Y-37959D01*
X38039Y-38071D01*
X38161Y-38071D01*
X37674Y-37048D02*
X37674Y-36851D01*
X37721Y-36851D01*
X37749Y-36860D01*
X37768Y-36879D01*
X37777Y-36898D01*
X37786Y-36935D01*
X37786Y-36963D01*
X37777Y-37001D01*
X37768Y-37020D01*
X37749Y-37038D01*
X37721Y-37048D01*
X37674Y-37048D01*
X37974Y-37048D02*
X37861Y-37048D01*
X37918Y-37048D02*
X37918Y-36851D01*
X37899Y-36879D01*
X37880Y-36898D01*
X37861Y-36907D01*
X38161Y-37048D02*
X38049Y-37048D01*
X38105Y-37048D02*
X38105Y-36851D01*
X38086Y-36879D01*
X38068Y-36898D01*
X38049Y-36907D01*
X37674Y-36063D02*
X37674Y-35867D01*
X37721Y-35867D01*
X37749Y-35876D01*
X37768Y-35895D01*
X37777Y-35913D01*
X37786Y-35951D01*
X37786Y-35979D01*
X37777Y-36017D01*
X37768Y-36035D01*
X37749Y-36054D01*
X37721Y-36063D01*
X37674Y-36063D01*
X37974Y-36063D02*
X37861Y-36063D01*
X37918Y-36063D02*
X37918Y-35867D01*
X37899Y-35895D01*
X37880Y-35913D01*
X37861Y-35923D01*
X38096Y-35867D02*
X38114Y-35867D01*
X38133Y-35876D01*
X38143Y-35885D01*
X38152Y-35904D01*
X38161Y-35942D01*
X38161Y-35988D01*
X38152Y-36026D01*
X38143Y-36045D01*
X38133Y-36054D01*
X38114Y-36063D01*
X38096Y-36063D01*
X38077Y-36054D01*
X38068Y-36045D01*
X38058Y-36026D01*
X38049Y-35988D01*
X38049Y-35942D01*
X38058Y-35904D01*
X38068Y-35885D01*
X38077Y-35876D01*
X38096Y-35867D01*
X37649Y-35079D02*
X37649Y-34882D01*
X37696Y-34882D01*
X37724Y-34892D01*
X37743Y-34910D01*
X37753Y-34929D01*
X37762Y-34967D01*
X37762Y-34995D01*
X37753Y-35032D01*
X37743Y-35051D01*
X37724Y-35070D01*
X37696Y-35079D01*
X37649Y-35079D01*
X37856Y-35079D02*
X37893Y-35079D01*
X37912Y-35070D01*
X37921Y-35060D01*
X37940Y-35032D01*
X37949Y-34995D01*
X37949Y-34920D01*
X37940Y-34901D01*
X37931Y-34892D01*
X37912Y-34882D01*
X37874Y-34882D01*
X37856Y-34892D01*
X37846Y-34901D01*
X37837Y-34920D01*
X37837Y-34967D01*
X37846Y-34985D01*
X37856Y-34995D01*
X37874Y-35004D01*
X37912Y-35004D01*
X37931Y-34995D01*
X37940Y-34985D01*
X37949Y-34967D01*
X37649Y-34056D02*
X37649Y-33859D01*
X37696Y-33859D01*
X37724Y-33868D01*
X37743Y-33887D01*
X37753Y-33906D01*
X37762Y-33943D01*
X37762Y-33971D01*
X37753Y-34009D01*
X37743Y-34027D01*
X37724Y-34046D01*
X37696Y-34056D01*
X37649Y-34056D01*
X37874Y-33943D02*
X37856Y-33934D01*
X37846Y-33924D01*
X37837Y-33906D01*
X37837Y-33896D01*
X37846Y-33877D01*
X37856Y-33868D01*
X37874Y-33859D01*
X37912Y-33859D01*
X37931Y-33868D01*
X37940Y-33877D01*
X37949Y-33896D01*
X37949Y-33906D01*
X37940Y-33924D01*
X37931Y-33934D01*
X37912Y-33943D01*
X37874Y-33943D01*
X37856Y-33952D01*
X37846Y-33962D01*
X37837Y-33981D01*
X37837Y-34018D01*
X37846Y-34037D01*
X37856Y-34046D01*
X37874Y-34056D01*
X37912Y-34056D01*
X37931Y-34046D01*
X37940Y-34037D01*
X37949Y-34018D01*
X37949Y-33981D01*
X37940Y-33962D01*
X37931Y-33952D01*
X37912Y-33943D01*
X37649Y-33071D02*
X37649Y-32874D01*
X37696Y-32874D01*
X37724Y-32884D01*
X37743Y-32903D01*
X37753Y-32921D01*
X37762Y-32959D01*
X37762Y-32987D01*
X37753Y-33024D01*
X37743Y-33043D01*
X37724Y-33062D01*
X37696Y-33071D01*
X37649Y-33071D01*
X37828Y-32874D02*
X37959Y-32874D01*
X37874Y-33071D01*
X37649Y-32087D02*
X37649Y-31890D01*
X37696Y-31890D01*
X37724Y-31900D01*
X37743Y-31918D01*
X37753Y-31937D01*
X37762Y-31975D01*
X37762Y-32003D01*
X37753Y-32040D01*
X37743Y-32059D01*
X37724Y-32078D01*
X37696Y-32087D01*
X37649Y-32087D01*
X37931Y-31890D02*
X37893Y-31890D01*
X37874Y-31900D01*
X37865Y-31909D01*
X37846Y-31937D01*
X37837Y-31975D01*
X37837Y-32050D01*
X37846Y-32068D01*
X37856Y-32078D01*
X37874Y-32087D01*
X37912Y-32087D01*
X37931Y-32078D01*
X37940Y-32068D01*
X37949Y-32050D01*
X37949Y-32003D01*
X37940Y-31984D01*
X37931Y-31975D01*
X37912Y-31965D01*
X37874Y-31965D01*
X37856Y-31975D01*
X37846Y-31984D01*
X37837Y-32003D01*
X37649Y-31063D02*
X37649Y-30867D01*
X37696Y-30867D01*
X37724Y-30876D01*
X37743Y-30895D01*
X37753Y-30913D01*
X37762Y-30951D01*
X37762Y-30979D01*
X37753Y-31017D01*
X37743Y-31035D01*
X37724Y-31054D01*
X37696Y-31063D01*
X37649Y-31063D01*
X37940Y-30867D02*
X37846Y-30867D01*
X37837Y-30960D01*
X37846Y-30951D01*
X37865Y-30942D01*
X37912Y-30942D01*
X37931Y-30951D01*
X37940Y-30960D01*
X37949Y-30979D01*
X37949Y-31026D01*
X37940Y-31045D01*
X37931Y-31054D01*
X37912Y-31063D01*
X37865Y-31063D01*
X37846Y-31054D01*
X37837Y-31045D01*
X37649Y-30079D02*
X37649Y-29882D01*
X37696Y-29882D01*
X37724Y-29892D01*
X37743Y-29910D01*
X37753Y-29929D01*
X37762Y-29967D01*
X37762Y-29995D01*
X37753Y-30032D01*
X37743Y-30051D01*
X37724Y-30070D01*
X37696Y-30079D01*
X37649Y-30079D01*
X37931Y-29948D02*
X37931Y-30079D01*
X37884Y-29873D02*
X37837Y-30014D01*
X37959Y-30014D01*
X37768Y-28937D02*
X37768Y-28741D01*
X37814Y-28741D01*
X37843Y-28750D01*
X37861Y-28769D01*
X37871Y-28787D01*
X37880Y-28825D01*
X37880Y-28853D01*
X37871Y-28891D01*
X37861Y-28909D01*
X37843Y-28928D01*
X37814Y-28937D01*
X37768Y-28937D01*
X37946Y-28741D02*
X38068Y-28741D01*
X38002Y-28816D01*
X38030Y-28816D01*
X38049Y-28825D01*
X38058Y-28834D01*
X38068Y-28853D01*
X38068Y-28900D01*
X38058Y-28919D01*
X38049Y-28928D01*
X38030Y-28937D01*
X37974Y-28937D01*
X37955Y-28928D01*
X37946Y-28919D01*
X37688Y-29253D02*
X37716Y-29262D01*
X37763Y-29262D01*
X37782Y-29253D01*
X37791Y-29244D01*
X37800Y-29225D01*
X37800Y-29206D01*
X37791Y-29187D01*
X37782Y-29178D01*
X37763Y-29169D01*
X37725Y-29159D01*
X37707Y-29150D01*
X37697Y-29140D01*
X37688Y-29122D01*
X37688Y-29103D01*
X37697Y-29084D01*
X37707Y-29075D01*
X37725Y-29065D01*
X37772Y-29065D01*
X37800Y-29075D01*
X37857Y-29065D02*
X37969Y-29065D01*
X37913Y-29262D02*
X37913Y-29065D01*
X38016Y-29065D02*
X38147Y-29262D01*
X38147Y-29065D02*
X38016Y-29262D01*
X37768Y-28071D02*
X37768Y-27874D01*
X37814Y-27874D01*
X37843Y-27884D01*
X37861Y-27903D01*
X37871Y-27921D01*
X37880Y-27959D01*
X37880Y-27987D01*
X37871Y-28024D01*
X37861Y-28043D01*
X37843Y-28062D01*
X37814Y-28071D01*
X37768Y-28071D01*
X37955Y-27893D02*
X37964Y-27884D01*
X37983Y-27874D01*
X38030Y-27874D01*
X38049Y-27884D01*
X38058Y-27893D01*
X38068Y-27912D01*
X38068Y-27931D01*
X38058Y-27959D01*
X37946Y-28071D01*
X38068Y-28071D01*
X37664Y-28387D02*
X37693Y-28396D01*
X37739Y-28396D01*
X37758Y-28387D01*
X37768Y-28377D01*
X37777Y-28359D01*
X37777Y-28340D01*
X37768Y-28321D01*
X37758Y-28312D01*
X37739Y-28302D01*
X37702Y-28293D01*
X37683Y-28284D01*
X37674Y-28274D01*
X37664Y-28255D01*
X37664Y-28237D01*
X37674Y-28218D01*
X37683Y-28209D01*
X37702Y-28199D01*
X37749Y-28199D01*
X37777Y-28209D01*
X37974Y-28396D02*
X37908Y-28302D01*
X37861Y-28396D02*
X37861Y-28199D01*
X37936Y-28199D01*
X37955Y-28209D01*
X37964Y-28218D01*
X37974Y-28237D01*
X37974Y-28265D01*
X37964Y-28284D01*
X37955Y-28293D01*
X37936Y-28302D01*
X37861Y-28302D01*
X38039Y-28199D02*
X38171Y-28396D01*
X38171Y-28199D02*
X38039Y-28396D01*
X37724Y-26900D02*
X37705Y-26890D01*
X37677Y-26890D01*
X37649Y-26900D01*
X37630Y-26918D01*
X37620Y-26937D01*
X37611Y-26975D01*
X37611Y-27003D01*
X37620Y-27040D01*
X37630Y-27059D01*
X37649Y-27078D01*
X37677Y-27087D01*
X37695Y-27087D01*
X37724Y-27078D01*
X37733Y-27068D01*
X37733Y-27003D01*
X37695Y-27003D01*
X37817Y-27087D02*
X37817Y-26890D01*
X37930Y-27087D01*
X37930Y-26890D01*
X38023Y-27087D02*
X38023Y-26890D01*
X38070Y-26890D01*
X38098Y-26900D01*
X38117Y-26918D01*
X38127Y-26937D01*
X38136Y-26975D01*
X38136Y-27003D01*
X38127Y-27040D01*
X38117Y-27059D01*
X38098Y-27078D01*
X38070Y-27087D01*
X38023Y-27087D01*
X37726Y-26103D02*
X37661Y-26009D01*
X37614Y-26103D02*
X37614Y-25906D01*
X37689Y-25906D01*
X37708Y-25915D01*
X37717Y-25925D01*
X37726Y-25943D01*
X37726Y-25972D01*
X37717Y-25990D01*
X37708Y-26000D01*
X37689Y-26009D01*
X37614Y-26009D01*
X37801Y-26093D02*
X37829Y-26103D01*
X37876Y-26103D01*
X37895Y-26093D01*
X37904Y-26084D01*
X37914Y-26065D01*
X37914Y-26047D01*
X37904Y-26028D01*
X37895Y-26018D01*
X37876Y-26009D01*
X37839Y-26000D01*
X37820Y-25990D01*
X37811Y-25981D01*
X37801Y-25962D01*
X37801Y-25943D01*
X37811Y-25925D01*
X37820Y-25915D01*
X37839Y-25906D01*
X37886Y-25906D01*
X37914Y-25915D01*
X37970Y-25906D02*
X38083Y-25906D01*
X38026Y-26103D02*
X38026Y-25906D01*
X37610Y-24961D02*
X37610Y-24764D01*
X37657Y-24764D01*
X37685Y-24774D01*
X37704Y-24792D01*
X37713Y-24811D01*
X37723Y-24849D01*
X37723Y-24877D01*
X37713Y-24914D01*
X37704Y-24933D01*
X37685Y-24952D01*
X37657Y-24961D01*
X37610Y-24961D01*
X37844Y-24764D02*
X37863Y-24764D01*
X37882Y-24774D01*
X37891Y-24783D01*
X37901Y-24802D01*
X37910Y-24839D01*
X37910Y-24886D01*
X37901Y-24924D01*
X37891Y-24942D01*
X37882Y-24952D01*
X37863Y-24961D01*
X37844Y-24961D01*
X37826Y-24952D01*
X37816Y-24942D01*
X37807Y-24924D01*
X37798Y-24886D01*
X37798Y-24839D01*
X37807Y-24802D01*
X37816Y-24783D01*
X37826Y-24774D01*
X37844Y-24764D01*
X37723Y-25286D02*
X37657Y-25192D01*
X37610Y-25286D02*
X37610Y-25089D01*
X37685Y-25089D01*
X37704Y-25098D01*
X37713Y-25108D01*
X37723Y-25127D01*
X37723Y-25155D01*
X37713Y-25173D01*
X37704Y-25183D01*
X37685Y-25192D01*
X37610Y-25192D01*
X37788Y-25089D02*
X37919Y-25286D01*
X37919Y-25089D02*
X37788Y-25286D01*
X37610Y-23937D02*
X37610Y-23741D01*
X37657Y-23741D01*
X37685Y-23750D01*
X37704Y-23769D01*
X37713Y-23787D01*
X37723Y-23825D01*
X37723Y-23853D01*
X37713Y-23891D01*
X37704Y-23909D01*
X37685Y-23928D01*
X37657Y-23937D01*
X37610Y-23937D01*
X37910Y-23937D02*
X37798Y-23937D01*
X37854Y-23937D02*
X37854Y-23741D01*
X37835Y-23769D01*
X37816Y-23787D01*
X37798Y-23797D01*
X37605Y-24065D02*
X37718Y-24065D01*
X37662Y-24262D02*
X37662Y-24065D01*
X37765Y-24065D02*
X37896Y-24262D01*
X37896Y-24065D02*
X37765Y-24262D01*
G54D10*
X44836Y-31349D02*
X44870Y-31361D01*
X44881Y-31372D01*
X44893Y-31394D01*
X44893Y-31428D01*
X44881Y-31451D01*
X44870Y-31462D01*
X44848Y-31473D01*
X44758Y-31473D01*
X44758Y-31237D01*
X44836Y-31237D01*
X44859Y-31248D01*
X44870Y-31259D01*
X44881Y-31282D01*
X44881Y-31304D01*
X44870Y-31327D01*
X44859Y-31338D01*
X44836Y-31349D01*
X44758Y-31349D01*
X45028Y-31473D02*
X45005Y-31462D01*
X44994Y-31451D01*
X44983Y-31428D01*
X44983Y-31361D01*
X44994Y-31338D01*
X45005Y-31327D01*
X45028Y-31316D01*
X45061Y-31316D01*
X45084Y-31327D01*
X45095Y-31338D01*
X45106Y-31361D01*
X45106Y-31428D01*
X45095Y-31451D01*
X45084Y-31462D01*
X45061Y-31473D01*
X45028Y-31473D01*
X45241Y-31473D02*
X45219Y-31462D01*
X45208Y-31451D01*
X45196Y-31428D01*
X45196Y-31361D01*
X45208Y-31338D01*
X45219Y-31327D01*
X45241Y-31316D01*
X45275Y-31316D01*
X45298Y-31327D01*
X45309Y-31338D01*
X45320Y-31361D01*
X45320Y-31428D01*
X45309Y-31451D01*
X45298Y-31462D01*
X45275Y-31473D01*
X45241Y-31473D01*
X45388Y-31316D02*
X45478Y-31316D01*
X45421Y-31237D02*
X45421Y-31439D01*
X45433Y-31462D01*
X45455Y-31473D01*
X45478Y-31473D01*
X45556Y-31473D02*
X45556Y-31237D01*
X45635Y-31406D01*
X45714Y-31237D01*
X45714Y-31473D01*
X45860Y-31473D02*
X45838Y-31462D01*
X45826Y-31451D01*
X45815Y-31428D01*
X45815Y-31361D01*
X45826Y-31338D01*
X45838Y-31327D01*
X45860Y-31316D01*
X45894Y-31316D01*
X45916Y-31327D01*
X45928Y-31338D01*
X45939Y-31361D01*
X45939Y-31428D01*
X45928Y-31451D01*
X45916Y-31462D01*
X45894Y-31473D01*
X45860Y-31473D01*
X46141Y-31473D02*
X46141Y-31237D01*
X46141Y-31462D02*
X46119Y-31473D01*
X46074Y-31473D01*
X46051Y-31462D01*
X46040Y-31451D01*
X46029Y-31428D01*
X46029Y-31361D01*
X46040Y-31338D01*
X46051Y-31327D01*
X46074Y-31316D01*
X46119Y-31316D01*
X46141Y-31327D01*
X46344Y-31462D02*
X46321Y-31473D01*
X46276Y-31473D01*
X46254Y-31462D01*
X46242Y-31439D01*
X46242Y-31349D01*
X46254Y-31327D01*
X46276Y-31316D01*
X46321Y-31316D01*
X46344Y-31327D01*
X46355Y-31349D01*
X46355Y-31372D01*
X46242Y-31394D01*
X44803Y-33323D02*
X44803Y-33087D01*
X44960Y-33087D02*
X45005Y-33087D01*
X45028Y-33098D01*
X45050Y-33121D01*
X45061Y-33166D01*
X45061Y-33245D01*
X45050Y-33290D01*
X45028Y-33312D01*
X45005Y-33323D01*
X44960Y-33323D01*
X44938Y-33312D01*
X44915Y-33290D01*
X44904Y-33245D01*
X44904Y-33166D01*
X44915Y-33121D01*
X44938Y-33098D01*
X44960Y-33087D01*
X45208Y-33087D02*
X45230Y-33087D01*
X45253Y-33098D01*
X45264Y-33110D01*
X45275Y-33132D01*
X45286Y-33177D01*
X45286Y-33233D01*
X45275Y-33278D01*
X45264Y-33301D01*
X45253Y-33312D01*
X45230Y-33323D01*
X45208Y-33323D01*
X45185Y-33312D01*
X45174Y-33301D01*
X45163Y-33278D01*
X45151Y-33233D01*
X45151Y-33177D01*
X45163Y-33132D01*
X45174Y-33110D01*
X45185Y-33098D01*
X45208Y-33087D01*
X44803Y-32930D02*
X44803Y-32694D01*
X44960Y-32694D02*
X45005Y-32694D01*
X45028Y-32705D01*
X45050Y-32727D01*
X45061Y-32772D01*
X45061Y-32851D01*
X45050Y-32896D01*
X45028Y-32919D01*
X45005Y-32930D01*
X44960Y-32930D01*
X44938Y-32919D01*
X44915Y-32896D01*
X44904Y-32851D01*
X44904Y-32772D01*
X44915Y-32727D01*
X44938Y-32705D01*
X44960Y-32694D01*
X45151Y-32716D02*
X45163Y-32705D01*
X45185Y-32694D01*
X45241Y-32694D01*
X45264Y-32705D01*
X45275Y-32716D01*
X45286Y-32739D01*
X45286Y-32761D01*
X45275Y-32795D01*
X45140Y-32930D01*
X45286Y-32930D01*
X44786Y-32019D02*
X44865Y-32019D01*
X44898Y-32142D02*
X44786Y-32142D01*
X44786Y-31906D01*
X44898Y-31906D01*
X45000Y-32142D02*
X45000Y-31906D01*
X45134Y-32142D01*
X45134Y-31906D01*
X44808Y-32536D02*
X44808Y-32300D01*
X44966Y-32300D02*
X45011Y-32300D01*
X45033Y-32311D01*
X45056Y-32334D01*
X45067Y-32379D01*
X45067Y-32457D01*
X45056Y-32502D01*
X45033Y-32525D01*
X45011Y-32536D01*
X44966Y-32536D01*
X44943Y-32525D01*
X44921Y-32502D01*
X44910Y-32457D01*
X44910Y-32379D01*
X44921Y-32334D01*
X44943Y-32311D01*
X44966Y-32300D01*
X45292Y-32536D02*
X45157Y-32536D01*
X45224Y-32536D02*
X45224Y-32300D01*
X45202Y-32334D01*
X45179Y-32356D01*
X45157Y-32367D01*
X45506Y-32300D02*
X45393Y-32300D01*
X45382Y-32412D01*
X45393Y-32401D01*
X45416Y-32390D01*
X45472Y-32390D01*
X45494Y-32401D01*
X45506Y-32412D01*
X45517Y-32435D01*
X45517Y-32491D01*
X45506Y-32514D01*
X45494Y-32525D01*
X45472Y-32536D01*
X45416Y-32536D01*
X45393Y-32525D01*
X45382Y-32514D01*
X49002Y-27709D02*
X49068Y-27985D01*
X49120Y-27788D01*
X49173Y-27985D01*
X49238Y-27709D01*
X49343Y-27985D02*
X49343Y-27801D01*
X49343Y-27709D02*
X49330Y-27723D01*
X49343Y-27736D01*
X49356Y-27723D01*
X49343Y-27709D01*
X49343Y-27736D01*
X49435Y-27801D02*
X49540Y-27801D01*
X49475Y-27985D02*
X49475Y-27749D01*
X49488Y-27723D01*
X49514Y-27709D01*
X49540Y-27709D01*
X49632Y-27985D02*
X49632Y-27801D01*
X49632Y-27709D02*
X49619Y-27723D01*
X49632Y-27736D01*
X49645Y-27723D01*
X49632Y-27709D01*
X49632Y-27736D01*
X46646Y-27946D02*
X46778Y-27946D01*
X46620Y-28024D02*
X46712Y-27749D01*
X46804Y-28024D01*
X46856Y-27749D02*
X46948Y-28024D01*
X47040Y-27749D01*
X47290Y-28024D02*
X47198Y-27893D01*
X47132Y-28024D02*
X47132Y-27749D01*
X47237Y-27749D01*
X47263Y-27762D01*
X47276Y-27775D01*
X47290Y-27801D01*
X47290Y-27841D01*
X47276Y-27867D01*
X47263Y-27880D01*
X47237Y-27893D01*
X47132Y-27893D01*
G54D12*
X48584Y-25862D02*
X48584Y-25757D01*
X48749Y-25712D02*
X48749Y-25862D01*
X48434Y-25862D01*
X48434Y-25712D01*
X48749Y-25577D02*
X48434Y-25577D01*
X48749Y-25397D01*
X48434Y-25397D01*
X45324Y-26139D02*
X45009Y-26139D01*
X45159Y-26139D02*
X45159Y-25959D01*
X45324Y-25959D02*
X45009Y-25959D01*
X45324Y-25809D02*
X45114Y-25809D01*
X45009Y-25809D02*
X45024Y-25824D01*
X45039Y-25809D01*
X45024Y-25794D01*
X45009Y-25809D01*
X45039Y-25809D01*
X45204Y-25659D02*
X45204Y-25419D01*
X45009Y-25299D02*
X45009Y-25089D01*
X45324Y-25299D01*
X45324Y-25089D01*
X44450Y-27399D02*
X44769Y-27399D01*
X44806Y-27380D01*
X44825Y-27362D01*
X44844Y-27324D01*
X44844Y-27249D01*
X44825Y-27212D01*
X44806Y-27193D01*
X44769Y-27174D01*
X44450Y-27174D01*
X44731Y-27005D02*
X44731Y-26818D01*
X44844Y-27043D02*
X44450Y-26912D01*
X44844Y-26781D01*
X44844Y-26424D02*
X44656Y-26556D01*
X44844Y-26649D02*
X44450Y-26649D01*
X44450Y-26499D01*
X44469Y-26462D01*
X44488Y-26443D01*
X44525Y-26424D01*
X44581Y-26424D01*
X44619Y-26443D01*
X44638Y-26462D01*
X44656Y-26499D01*
X44656Y-26649D01*
X44450Y-26312D02*
X44450Y-26087D01*
X44844Y-26199D02*
X44450Y-26199D01*
G54D13*
X41967Y-32879D02*
X41649Y-32561D01*
X43509Y-31337D02*
X43198Y-31026D01*
X41967Y-32879D02*
X43509Y-31337D01*
X41013Y-32589D02*
X40709Y-32893D01*
X39443Y-31033D02*
X39146Y-31330D01*
X39139Y-31323D02*
X40702Y-32900D01*
X41960Y-28530D02*
X43502Y-30058D01*
X41168Y-28714D02*
X39167Y-30715D01*
X43502Y-30072D02*
X43212Y-30362D01*
X41515Y-28721D02*
X43481Y-30687D01*
X41317Y-32879D02*
X43466Y-30729D01*
X39160Y-30722D02*
X41282Y-32844D01*
X40730Y-28516D02*
X39160Y-30086D01*
X39160Y-30086D02*
X39478Y-30404D01*
X41178Y-28710D02*
X41504Y-28710D01*
X40731Y-28518D02*
X41051Y-28837D01*
X41642Y-28848D02*
X41962Y-28529D01*
X41532Y-29121D02*
G75*
G03X41532Y-29121I-188J0D01*
G74*
G01*
G54D10*
X51450Y-38500D02*
X50500Y-38500D01*
X50500Y-38500D02*
X50500Y-23500D01*
X50500Y-23500D02*
X51450Y-23500D01*
X51450Y-23500D02*
X51450Y-38500D01*
X36550Y-23500D02*
X37500Y-23500D01*
X37500Y-23500D02*
X37500Y-38500D01*
X37500Y-38500D02*
X36550Y-38500D01*
X36550Y-38500D02*
X36550Y-23500D01*
X46889Y-33779D02*
G75*
G03X46889Y-33779I-78J0D01*
G74*
G01*
X46968Y-32598D02*
X46968Y-32283D01*
X48267Y-32598D02*
X46968Y-32598D01*
X48267Y-32283D02*
X48267Y-32598D01*
X46968Y-32283D02*
X48267Y-32283D01*
X47637Y-32598D02*
X47637Y-32283D01*
X47637Y-32086D02*
X47637Y-31771D01*
X46968Y-31771D02*
X48267Y-31771D01*
X48267Y-31771D02*
X48267Y-32086D01*
X48267Y-32086D02*
X46968Y-32086D01*
X46968Y-32086D02*
X46968Y-31771D01*
X46968Y-33110D02*
X46968Y-32795D01*
X48267Y-33110D02*
X46968Y-33110D01*
X48267Y-32795D02*
X48267Y-33110D01*
X46968Y-32795D02*
X48267Y-32795D01*
X47637Y-33110D02*
X47637Y-32795D01*
X47637Y-33622D02*
X47637Y-33307D01*
X46968Y-33307D02*
X48267Y-33307D01*
X48267Y-33307D02*
X48267Y-33622D01*
X48267Y-33622D02*
X46968Y-33622D01*
X46968Y-33622D02*
X46968Y-33307D01*
X46637Y-33964D02*
X46637Y-31464D01*
X46637Y-31464D02*
X48637Y-31464D01*
X48637Y-31464D02*
X48637Y-33964D01*
X48637Y-33964D02*
X46637Y-33964D01*
X48897Y-25295D02*
X48897Y-23877D01*
X48897Y-23877D02*
X49527Y-23877D01*
X49527Y-23877D02*
X49527Y-25295D01*
X49527Y-25295D02*
X48897Y-25295D01*
X48897Y-27263D02*
X48897Y-25846D01*
X48897Y-25846D02*
X49527Y-25846D01*
X49527Y-25846D02*
X49527Y-27263D01*
X49527Y-27263D02*
X48897Y-27263D01*
X40078Y-35039D02*
X40078Y-35118D01*
X47165Y-35039D02*
X47165Y-35118D01*
X47165Y-42913D02*
X47165Y-40354D01*
X40078Y-42913D02*
X40078Y-40354D01*
X47165Y-40629D02*
X40078Y-40629D01*
X47165Y-42913D02*
X40078Y-42913D01*
X40078Y-35039D02*
X47165Y-35039D01*
X49268Y-29077D02*
G75*
G03X48368Y-29077I-450J-450D01*
G74*
G01*
X48368Y-29977D02*
G75*
G03X49268Y-29977I450J450D01*
G74*
G01*
X47968Y-30927D02*
X47968Y-28127D01*
X47968Y-28127D02*
X49668Y-28127D01*
X49668Y-28127D02*
X49668Y-30927D01*
X49668Y-30927D02*
X47968Y-30927D01*
X46906Y-29077D02*
G75*
G03X46006Y-29077I-450J-450D01*
G74*
G01*
X46006Y-29977D02*
G75*
G03X46906Y-29977I450J450D01*
G74*
G01*
X45606Y-30927D02*
X45606Y-28127D01*
X45606Y-28127D02*
X47306Y-28127D01*
X47306Y-28127D02*
X47306Y-30927D01*
X47306Y-30927D02*
X45606Y-30927D01*
G54D14*
X51500Y-38500D02*
X51500Y-42500D01*
X50500Y-38500D02*
X50500Y-42500D01*
X50500Y-42500D02*
X51500Y-42500D01*
X51500Y-38500D02*
X50500Y-38500D01*
X36500Y-42500D02*
X36500Y-38500D01*
X37500Y-42500D02*
X37500Y-38500D01*
X37500Y-38500D02*
X36500Y-38500D01*
X36500Y-42500D02*
X37500Y-42500D01*
G54D10*
X38622Y-24251D02*
X38622Y-23661D01*
X38622Y-23661D02*
X43937Y-23661D01*
X43937Y-23661D02*
X43937Y-24212D01*
X43937Y-25314D02*
X43937Y-25984D01*
X43937Y-25984D02*
X38622Y-25984D01*
X38622Y-25984D02*
X38622Y-25314D01*
X46653Y-25393D02*
X46653Y-25866D01*
X46141Y-25393D02*
X46141Y-25866D01*
X46141Y-25866D02*
X47598Y-25866D01*
X47598Y-25866D02*
X47598Y-25393D01*
X47598Y-25393D02*
X46141Y-25393D01*
X45551Y-25196D02*
X48228Y-25196D01*
X48228Y-25196D02*
X48228Y-26062D01*
X48228Y-26062D02*
X45551Y-26062D01*
X45551Y-26062D02*
X45551Y-25196D01*
G54D15*
G36*
X39853Y-41474D02*
X39842Y-41742D01*
X39776Y-41976D01*
X39659Y-42174D01*
X39493Y-42330D01*
X39281Y-42440D01*
X39244Y-42452D01*
X39063Y-42497D01*
X38903Y-42499D01*
X38734Y-42459D01*
X38715Y-42453D01*
X38511Y-42354D01*
X38341Y-42209D01*
X38243Y-42084D01*
X38187Y-41993D01*
X38152Y-41908D01*
X38132Y-41804D01*
X38121Y-41663D01*
X38116Y-41517D01*
X38123Y-41436D01*
X38140Y-41419D01*
X38167Y-41463D01*
X38192Y-41545D01*
X38196Y-41565D01*
X38238Y-41752D01*
X38289Y-41898D01*
X38345Y-41993D01*
X38390Y-42027D01*
X38466Y-42020D01*
X38534Y-41957D01*
X38584Y-41848D01*
X38600Y-41780D01*
X38622Y-41667D01*
X38653Y-41539D01*
X38661Y-41508D01*
X38701Y-41358D01*
X38774Y-41654D01*
X38819Y-41822D01*
X38858Y-41935D01*
X38897Y-42002D01*
X38941Y-42034D01*
X38985Y-42041D01*
X39058Y-42008D01*
X39119Y-41913D01*
X39167Y-41756D01*
X39177Y-41708D01*
X39199Y-41603D01*
X39225Y-41503D01*
X39250Y-41423D01*
X39270Y-41377D01*
X39279Y-41380D01*
X39294Y-41476D01*
X39321Y-41600D01*
X39355Y-41733D01*
X39390Y-41854D01*
X39421Y-41940D01*
X39433Y-41965D01*
X39501Y-42035D01*
X39568Y-42040D01*
X39632Y-41984D01*
X39690Y-41869D01*
X39740Y-41696D01*
X39748Y-41658D01*
X39782Y-41511D01*
X39810Y-41423D01*
X39833Y-41394D01*
X39848Y-41428D01*
X39853Y-41474D01*
X39853Y-41474D01*
X39853Y-41474D01*
G37*
G36*
X39748Y-41219D02*
X39727Y-41279D01*
X39711Y-41298D01*
X39686Y-41347D01*
X39656Y-41442D01*
X39628Y-41557D01*
X39594Y-41709D01*
X39566Y-41796D01*
X39542Y-41819D01*
X39516Y-41778D01*
X39487Y-41676D01*
X39469Y-41598D01*
X39415Y-41403D01*
X39355Y-41273D01*
X39292Y-41210D01*
X39228Y-41212D01*
X39165Y-41280D01*
X39107Y-41414D01*
X39061Y-41584D01*
X39032Y-41704D01*
X39005Y-41794D01*
X38985Y-41839D01*
X38982Y-41841D01*
X38965Y-41811D01*
X38940Y-41731D01*
X38911Y-41616D01*
X38903Y-41579D01*
X38854Y-41399D01*
X38796Y-41278D01*
X38733Y-41217D01*
X38666Y-41219D01*
X38599Y-41283D01*
X38547Y-41386D01*
X38501Y-41539D01*
X38466Y-41716D01*
X38447Y-41796D01*
X38424Y-41839D01*
X38419Y-41841D01*
X38400Y-41811D01*
X38377Y-41731D01*
X38353Y-41620D01*
X38351Y-41613D01*
X38323Y-41481D01*
X38290Y-41364D01*
X38262Y-41292D01*
X38237Y-41236D01*
X38235Y-41190D01*
X38261Y-41137D01*
X38323Y-41061D01*
X38380Y-40997D01*
X38523Y-40884D01*
X38707Y-40809D01*
X38912Y-40773D01*
X39122Y-40779D01*
X39320Y-40829D01*
X39377Y-40855D01*
X39485Y-40922D01*
X39591Y-41008D01*
X39679Y-41098D01*
X39736Y-41178D01*
X39748Y-41219D01*
X39748Y-41219D01*
X39748Y-41219D01*
G37*
%LPC*%
G54D10*
G36*
X38884Y-29925D02*
X39009Y-29800D01*
X39565Y-30356D01*
X39440Y-30481D01*
X38884Y-29925D01*
X38884Y-29925D01*
G37*
G36*
X39106Y-29702D02*
X39232Y-29577D01*
X39788Y-30133D01*
X39663Y-30258D01*
X39106Y-29702D01*
X39106Y-29702D01*
G37*
G36*
X39329Y-29479D02*
X39454Y-29354D01*
X40011Y-29911D01*
X39886Y-30036D01*
X39329Y-29479D01*
X39329Y-29479D01*
G37*
G36*
X39552Y-29256D02*
X39677Y-29131D01*
X40234Y-29688D01*
X40108Y-29813D01*
X39552Y-29256D01*
X39552Y-29256D01*
G37*
G36*
X39775Y-29034D02*
X39900Y-28909D01*
X40456Y-29465D01*
X40331Y-29590D01*
X39775Y-29034D01*
X39775Y-29034D01*
G37*
G36*
X39997Y-28811D02*
X40123Y-28686D01*
X40679Y-29242D01*
X40554Y-29367D01*
X39997Y-28811D01*
X39997Y-28811D01*
G37*
G36*
X40220Y-28588D02*
X40345Y-28463D01*
X40902Y-29020D01*
X40777Y-29145D01*
X40220Y-28588D01*
X40220Y-28588D01*
G37*
G36*
X40443Y-28366D02*
X40568Y-28240D01*
X41125Y-28797D01*
X40999Y-28922D01*
X40443Y-28366D01*
X40443Y-28366D01*
G37*
G36*
X43104Y-31030D02*
X43230Y-30905D01*
X43786Y-31461D01*
X43661Y-31586D01*
X43104Y-31030D01*
X43104Y-31030D01*
G37*
G36*
X41542Y-32593D02*
X41667Y-32467D01*
X42223Y-33024D01*
X42098Y-33149D01*
X41542Y-32593D01*
X41542Y-32593D01*
G37*
G36*
X41768Y-32366D02*
X41893Y-32241D01*
X42450Y-32798D01*
X42324Y-32923D01*
X41768Y-32366D01*
X41768Y-32366D01*
G37*
G36*
X41994Y-32140D02*
X42119Y-32015D01*
X42676Y-32571D01*
X42551Y-32697D01*
X41994Y-32140D01*
X41994Y-32140D01*
G37*
G36*
X42213Y-31921D02*
X42339Y-31796D01*
X42895Y-32352D01*
X42770Y-32477D01*
X42213Y-31921D01*
X42213Y-31921D01*
G37*
G36*
X42440Y-31695D02*
X42565Y-31569D01*
X43121Y-32126D01*
X42996Y-32251D01*
X42440Y-31695D01*
X42440Y-31695D01*
G37*
G36*
X42659Y-31475D02*
X42784Y-31350D01*
X43341Y-31907D01*
X43215Y-32032D01*
X42659Y-31475D01*
X42659Y-31475D01*
G37*
G36*
X42885Y-31249D02*
X43010Y-31124D01*
X43567Y-31680D01*
X43442Y-31806D01*
X42885Y-31249D01*
X42885Y-31249D01*
G37*
G36*
X41554Y-28794D02*
X42111Y-28238D01*
X42236Y-28363D01*
X41680Y-28919D01*
X41554Y-28794D01*
X41554Y-28794D01*
G37*
G36*
X41776Y-29016D02*
X42333Y-28460D01*
X42458Y-28585D01*
X41902Y-29141D01*
X41776Y-29016D01*
X41776Y-29016D01*
G37*
G36*
X42000Y-29240D02*
X42556Y-28683D01*
X42682Y-28808D01*
X42125Y-29365D01*
X42000Y-29240D01*
X42000Y-29240D01*
G37*
G36*
X42222Y-29462D02*
X42778Y-28905D01*
X42904Y-29030D01*
X42347Y-29587D01*
X42222Y-29462D01*
X42222Y-29462D01*
G37*
G36*
X42445Y-29685D02*
X43002Y-29128D01*
X43127Y-29254D01*
X42571Y-29810D01*
X42445Y-29685D01*
X42445Y-29685D01*
G37*
G36*
X42667Y-29907D02*
X43224Y-29351D01*
X43349Y-29476D01*
X42793Y-30032D01*
X42667Y-29907D01*
X42667Y-29907D01*
G37*
G36*
X42891Y-30130D02*
X43447Y-29574D01*
X43573Y-29699D01*
X43016Y-30256D01*
X42891Y-30130D01*
X42891Y-30130D01*
G37*
G36*
X43113Y-30352D02*
X43669Y-29796D01*
X43795Y-29921D01*
X43238Y-30478D01*
X43113Y-30352D01*
X43113Y-30352D01*
G37*
G36*
X38883Y-31468D02*
X39440Y-30912D01*
X39565Y-31037D01*
X39008Y-31593D01*
X38883Y-31468D01*
X38883Y-31468D01*
G37*
G36*
X39102Y-31688D02*
X39659Y-31131D01*
X39784Y-31256D01*
X39227Y-31813D01*
X39102Y-31688D01*
X39102Y-31688D01*
G37*
G36*
X39328Y-31914D02*
X39885Y-31357D01*
X40010Y-31482D01*
X39454Y-32039D01*
X39328Y-31914D01*
X39328Y-31914D01*
G37*
G36*
X39548Y-32133D02*
X40104Y-31576D01*
X40229Y-31702D01*
X39673Y-32258D01*
X39548Y-32133D01*
X39548Y-32133D01*
G37*
G36*
X39767Y-32352D02*
X40323Y-31796D01*
X40449Y-31921D01*
X39892Y-32477D01*
X39767Y-32352D01*
X39767Y-32352D01*
G37*
G36*
X39993Y-32578D02*
X40550Y-32022D01*
X40675Y-32147D01*
X40118Y-32704D01*
X39993Y-32578D01*
X39993Y-32578D01*
G37*
G36*
X40219Y-32805D02*
X40776Y-32248D01*
X40901Y-32373D01*
X40345Y-32930D01*
X40219Y-32805D01*
X40219Y-32805D01*
G37*
G36*
X40446Y-33031D02*
X41002Y-32475D01*
X41127Y-32600D01*
X40571Y-33156D01*
X40446Y-33031D01*
X40446Y-33031D01*
G37*
G54D16*
X51000Y-38000D03*
G54D17*
X51000Y-37000D03*
X51000Y-36000D03*
X51000Y-35000D03*
X51000Y-34000D03*
X51000Y-33000D03*
X51000Y-32000D03*
X51000Y-31000D03*
X51000Y-30000D03*
X51000Y-29000D03*
X51000Y-28000D03*
X51000Y-27000D03*
X51000Y-26000D03*
X51000Y-25000D03*
X51000Y-24000D03*
G54D16*
X37000Y-24000D03*
G54D17*
X37000Y-25000D03*
X37000Y-26000D03*
X37000Y-27000D03*
X37000Y-28000D03*
X37000Y-29000D03*
X37000Y-30000D03*
X37000Y-31000D03*
X37000Y-32000D03*
X37000Y-33000D03*
X37000Y-34000D03*
X37000Y-35000D03*
X37000Y-36000D03*
X37000Y-37000D03*
X37000Y-38000D03*
G54D18*
X49137Y-33464D03*
X49137Y-32964D03*
X49137Y-32464D03*
X49137Y-31964D03*
X46137Y-33464D03*
X46137Y-32964D03*
X46137Y-32464D03*
X46137Y-31964D03*
G54D19*
X49212Y-25000D03*
X49212Y-24173D03*
X49212Y-26968D03*
X49212Y-26141D03*
G54D20*
X40078Y-35393D03*
X40078Y-35984D03*
X40078Y-36574D03*
X40078Y-37165D03*
X40078Y-37755D03*
X40078Y-38346D03*
X40078Y-38937D03*
X40078Y-39527D03*
X40078Y-40118D03*
X47165Y-40118D03*
X47165Y-39527D03*
X47165Y-38937D03*
X47165Y-38346D03*
X47165Y-37755D03*
X47165Y-37165D03*
X47165Y-36574D03*
X47165Y-35984D03*
X47165Y-35393D03*
G54D21*
X48267Y-30551D03*
X48267Y-28503D03*
X49370Y-30551D03*
X49370Y-28503D03*
X45905Y-30551D03*
X45905Y-28503D03*
X47007Y-30551D03*
X47007Y-28503D03*
G54D16*
X51000Y-42000D03*
G54D17*
X51000Y-41000D03*
X51000Y-40000D03*
X51000Y-39000D03*
G54D16*
X37000Y-39000D03*
G54D17*
X37000Y-40000D03*
X37000Y-41000D03*
X37000Y-42000D03*
G54D22*
X43307Y-24763D03*
X39370Y-24763D03*
G54D23*
X47874Y-26771D03*
X46889Y-26771D03*
X45905Y-26771D03*
X45905Y-24488D03*
X46889Y-24488D03*
X47874Y-24488D03*
G54D24*
X43385Y-26496D03*
X49566Y-39133D03*
X43818Y-38425D03*
X44488Y-39094D03*
X48385Y-41023D03*
X43267Y-34921D03*
X44015Y-36023D03*
X50118Y-29527D03*
X41614Y-32086D03*
X40511Y-30551D03*
X44015Y-33031D03*
X43937Y-32559D03*
X48937Y-35984D03*
X43897Y-34370D03*
X43425Y-32559D03*
X37952Y-27598D03*
X38228Y-25826D03*
X40314Y-31377D03*
X41889Y-36692D03*
X42086Y-37125D03*
X41968Y-40000D03*
X45708Y-38937D03*
X46496Y-38937D03*
X39094Y-39015D03*
X49370Y-41889D03*
X41968Y-38976D03*
X41338Y-37716D03*
X40905Y-35078D03*
X41968Y-39488D03*
X43503Y-28503D03*
X46456Y-28385D03*
X38543Y-26535D03*
X43937Y-27362D03*
X46657Y-31964D03*
X47952Y-31850D03*
X47755Y-35393D03*
X44606Y-35984D03*
X49370Y-29409D03*
X46377Y-29370D03*
X36456Y-23503D03*
X39803Y-23543D03*
X44094Y-23543D03*
X47086Y-23425D03*
X49685Y-23464D03*
X51535Y-23503D03*
X38070Y-42598D03*
X36535Y-42598D03*
X36535Y-38425D03*
X36535Y-34488D03*
X36535Y-30511D03*
X47480Y-42637D03*
X49803Y-42519D03*
X51496Y-42519D03*
X51496Y-39527D03*
X51496Y-35511D03*
X51535Y-31574D03*
X51535Y-27559D03*
X39763Y-42598D03*
X43346Y-38700D03*
X42559Y-37559D03*
X43818Y-36811D03*
X41456Y-40354D03*
X43464Y-40314D03*
X39212Y-26496D03*
X41929Y-30472D03*
X39055Y-40551D03*
X39015Y-39606D03*
X39133Y-38149D03*
X49763Y-40511D03*
X49291Y-40905D03*
X48228Y-38937D03*
X45472Y-38228D03*
X43700Y-39173D03*
X41732Y-35000D03*
X48188Y-37086D03*
X45354Y-33661D03*
X41181Y-29881D03*
X42244Y-31377D03*
X41889Y-34133D03*
X44212Y-35157D03*
X47716Y-30275D03*
X41220Y-33307D03*
X44960Y-28897D03*
X44960Y-27952D03*
X48031Y-27913D03*
X42204Y-30078D03*
X40748Y-38346D03*
X46259Y-35472D03*
X48385Y-33700D03*
X46968Y-32992D03*
X42322Y-25748D03*
X38818Y-30551D03*
X40275Y-25708D03*
X38385Y-30039D03*
X44645Y-35472D03*
X48385Y-32086D03*
X47677Y-32283D03*
X48385Y-32637D03*
X45275Y-35472D03*
X45787Y-35472D03*
X48385Y-33188D03*
X47283Y-32637D03*
M02*
