G04 (created by PCBNEW (2013-07-07 BZR 4022)-stable) date 2015/10/29 19:57:24*
%MOIN*%
G04 Gerber Fmt 3.4, Leading zero omitted, Abs format*
%FSLAX34Y34*%
G01*
G70*
G90*
G04 APERTURE LIST*
%ADD10C,0.00590551*%
%ADD11R,0.11811X0.0629921*%
%ADD12R,0.165X0.19*%
%ADD13R,0.06X0.06*%
%ADD14C,0.06*%
%ADD15R,0.0393701X0.045*%
%ADD16R,0.045X0.0393701*%
%ADD17C,0.177165*%
%ADD18R,0.0165X0.0629921*%
%ADD19C,0.035*%
G04 APERTURE END LIST*
G54D10*
G54D11*
X26125Y-27277D03*
X26125Y-25162D03*
G54D12*
X28541Y-26220D03*
G54D13*
X31000Y-27000D03*
G54D14*
X31000Y-26000D03*
X31000Y-25000D03*
X31000Y-24000D03*
X31000Y-23000D03*
X31000Y-22000D03*
X31000Y-21000D03*
X31000Y-20000D03*
X31000Y-19000D03*
X31000Y-18000D03*
X31000Y-17000D03*
X31000Y-16000D03*
X31000Y-15000D03*
X31000Y-14000D03*
X31000Y-13000D03*
G54D13*
X18000Y-13000D03*
G54D14*
X18000Y-14000D03*
X18000Y-15000D03*
X18000Y-16000D03*
X18000Y-17000D03*
X18000Y-18000D03*
X18000Y-19000D03*
X18000Y-20000D03*
X18000Y-21000D03*
X18000Y-22000D03*
X18000Y-23000D03*
X18000Y-24000D03*
X18000Y-25000D03*
X18000Y-26000D03*
X18000Y-27000D03*
G54D15*
X29803Y-13937D03*
X28976Y-13937D03*
X28818Y-20748D03*
X27992Y-20748D03*
X29803Y-12952D03*
X28976Y-12952D03*
X23503Y-26889D03*
X22677Y-26889D03*
G54D16*
X23543Y-23976D03*
X23543Y-24803D03*
X27086Y-28267D03*
X27086Y-29094D03*
G54D15*
X28818Y-19724D03*
X27992Y-19724D03*
X28818Y-21889D03*
X27992Y-21889D03*
X28818Y-23031D03*
X27992Y-23031D03*
G54D16*
X21456Y-27755D03*
X21456Y-26929D03*
G54D10*
G36*
X22778Y-20840D02*
X23096Y-21158D01*
X22817Y-21437D01*
X22499Y-21119D01*
X22778Y-20840D01*
X22778Y-20840D01*
G37*
G36*
X22193Y-21425D02*
X22511Y-21743D01*
X22233Y-22021D01*
X21915Y-21703D01*
X22193Y-21425D01*
X22193Y-21425D01*
G37*
G36*
X22379Y-19434D02*
X22061Y-19116D01*
X22339Y-18838D01*
X22657Y-19156D01*
X22379Y-19434D01*
X22379Y-19434D01*
G37*
G36*
X22963Y-18850D02*
X22645Y-18532D01*
X22924Y-18253D01*
X23242Y-18571D01*
X22963Y-18850D01*
X22963Y-18850D01*
G37*
G36*
X21636Y-19580D02*
X21954Y-19898D01*
X21676Y-20177D01*
X21358Y-19859D01*
X21636Y-19580D01*
X21636Y-19580D01*
G37*
G36*
X21051Y-20165D02*
X21370Y-20483D01*
X21091Y-20762D01*
X20773Y-20443D01*
X21051Y-20165D01*
X21051Y-20165D01*
G37*
G54D16*
X25826Y-24173D03*
X25826Y-23346D03*
X25826Y-28267D03*
X25826Y-29094D03*
G54D17*
X30314Y-29921D03*
X18897Y-29921D03*
G54D18*
X22007Y-25944D03*
X21751Y-25944D03*
X21495Y-25944D03*
X21239Y-25944D03*
X21239Y-23622D03*
X22775Y-25944D03*
X22519Y-25944D03*
X22263Y-25944D03*
X21495Y-23622D03*
X21751Y-23622D03*
X22007Y-23622D03*
X22263Y-23622D03*
X22519Y-23622D03*
X22775Y-23622D03*
G54D19*
X23976Y-28818D03*
X25275Y-28976D03*
X22480Y-28818D03*
X30511Y-23543D03*
X29409Y-23425D03*
X30039Y-27992D03*
X27519Y-28582D03*
X24763Y-24527D03*
X24763Y-25551D03*
X25078Y-26456D03*
X26535Y-28228D03*
X23543Y-27559D03*
X22952Y-22440D03*
X22165Y-22913D03*
X23070Y-21417D03*
X23543Y-23188D03*
X23858Y-20039D03*
X22637Y-19881D03*
X27716Y-15433D03*
X30354Y-15669D03*
X24645Y-16968D03*
X25708Y-16299D03*
X21417Y-19645D03*
X21968Y-19015D03*
X29330Y-18858D03*
X24370Y-22401D03*
X29921Y-17559D03*
X24842Y-21771D03*
X22322Y-24566D03*
X21732Y-24566D03*
X19763Y-13464D03*
X19763Y-16181D03*
X24685Y-27637D03*
X28937Y-29133D03*
X24409Y-26102D03*
X29921Y-25472D03*
X29409Y-14685D03*
X29409Y-16456D03*
X19173Y-24370D03*
X24881Y-28661D03*
X23425Y-28228D03*
X31417Y-31062D03*
X30708Y-31062D03*
X29803Y-31062D03*
X17952Y-30984D03*
X19133Y-30984D03*
X31338Y-12322D03*
X29921Y-12283D03*
X28622Y-12283D03*
X26496Y-12283D03*
X25196Y-12244D03*
X23385Y-12165D03*
X23385Y-13897D03*
X18149Y-12244D03*
X20590Y-12244D03*
X22086Y-12244D03*
X28976Y-31062D03*
X27795Y-31023D03*
X26614Y-31023D03*
X25433Y-30984D03*
X24370Y-30984D03*
X23307Y-30984D03*
X22204Y-30984D03*
X21220Y-30984D03*
X20314Y-30984D03*
X20078Y-27047D03*
X28976Y-24370D03*
X29212Y-21181D03*
X26496Y-26338D03*
X25826Y-26338D03*
X24606Y-26811D03*
X25984Y-15118D03*
X20866Y-15669D03*
X29094Y-27874D03*
X27519Y-16496D03*
X25826Y-17677D03*
X19921Y-19763D03*
X23425Y-25511D03*
X22244Y-27244D03*
X24685Y-23779D03*
X24330Y-24842D03*
X22086Y-20944D03*
X23346Y-18976D03*
X22047Y-26811D03*
X22755Y-22913D03*
X27007Y-19212D03*
X28503Y-13937D03*
X28464Y-12992D03*
X26692Y-24448D03*
X27125Y-21417D03*
X26141Y-25984D03*
X27125Y-21929D03*
X27047Y-26220D03*
X27125Y-22637D03*
X20551Y-18582D03*
X23700Y-15944D03*
X22913Y-15944D03*
X19881Y-19094D03*
X26535Y-23976D03*
X27125Y-20787D03*
M02*
