G04 (created by PCBNEW (2013-07-07 BZR 4022)-stable) date 2015/10/29 19:57:24*
%MOIN*%
G04 Gerber Fmt 3.4, Leading zero omitted, Abs format*
%FSLAX34Y34*%
G01*
G70*
G90*
G04 APERTURE LIST*
%ADD10C,0.00590551*%
%ADD11R,0.11811X0.0629921*%
%ADD12R,0.165X0.19*%
%ADD13R,0.06X0.06*%
%ADD14C,0.06*%
%ADD15R,0.0393701X0.045*%
%ADD16R,0.045X0.0393701*%
%ADD17C,0.177165*%
%ADD18R,0.0165X0.0629921*%
%ADD19C,0.035*%
%ADD20C,0.01*%
%ADD21C,0.02*%
G04 APERTURE END LIST*
G54D10*
G54D11*
X26125Y-27277D03*
X26125Y-25162D03*
G54D12*
X28541Y-26220D03*
G54D13*
X31000Y-27000D03*
G54D14*
X31000Y-26000D03*
X31000Y-25000D03*
X31000Y-24000D03*
X31000Y-23000D03*
X31000Y-22000D03*
X31000Y-21000D03*
X31000Y-20000D03*
X31000Y-19000D03*
X31000Y-18000D03*
X31000Y-17000D03*
X31000Y-16000D03*
X31000Y-15000D03*
X31000Y-14000D03*
X31000Y-13000D03*
G54D13*
X18000Y-13000D03*
G54D14*
X18000Y-14000D03*
X18000Y-15000D03*
X18000Y-16000D03*
X18000Y-17000D03*
X18000Y-18000D03*
X18000Y-19000D03*
X18000Y-20000D03*
X18000Y-21000D03*
X18000Y-22000D03*
X18000Y-23000D03*
X18000Y-24000D03*
X18000Y-25000D03*
X18000Y-26000D03*
X18000Y-27000D03*
G54D15*
X29803Y-13937D03*
X28976Y-13937D03*
X28818Y-20748D03*
X27992Y-20748D03*
X29803Y-12952D03*
X28976Y-12952D03*
X23503Y-26889D03*
X22677Y-26889D03*
G54D16*
X23543Y-23976D03*
X23543Y-24803D03*
X27086Y-28267D03*
X27086Y-29094D03*
G54D15*
X28818Y-19724D03*
X27992Y-19724D03*
X28818Y-21889D03*
X27992Y-21889D03*
X28818Y-23031D03*
X27992Y-23031D03*
G54D16*
X21456Y-27755D03*
X21456Y-26929D03*
G54D10*
G36*
X22778Y-20840D02*
X23096Y-21158D01*
X22817Y-21437D01*
X22499Y-21119D01*
X22778Y-20840D01*
X22778Y-20840D01*
G37*
G36*
X22193Y-21425D02*
X22511Y-21743D01*
X22233Y-22021D01*
X21915Y-21703D01*
X22193Y-21425D01*
X22193Y-21425D01*
G37*
G36*
X22379Y-19434D02*
X22061Y-19116D01*
X22339Y-18838D01*
X22657Y-19156D01*
X22379Y-19434D01*
X22379Y-19434D01*
G37*
G36*
X22963Y-18850D02*
X22645Y-18532D01*
X22924Y-18253D01*
X23242Y-18571D01*
X22963Y-18850D01*
X22963Y-18850D01*
G37*
G36*
X21636Y-19580D02*
X21954Y-19898D01*
X21676Y-20177D01*
X21358Y-19859D01*
X21636Y-19580D01*
X21636Y-19580D01*
G37*
G36*
X21051Y-20165D02*
X21370Y-20483D01*
X21091Y-20762D01*
X20773Y-20443D01*
X21051Y-20165D01*
X21051Y-20165D01*
G37*
G54D16*
X25826Y-24173D03*
X25826Y-23346D03*
X25826Y-28267D03*
X25826Y-29094D03*
G54D17*
X30314Y-29921D03*
X18897Y-29921D03*
G54D18*
X22007Y-25944D03*
X21751Y-25944D03*
X21495Y-25944D03*
X21239Y-25944D03*
X21239Y-23622D03*
X22775Y-25944D03*
X22519Y-25944D03*
X22263Y-25944D03*
X21495Y-23622D03*
X21751Y-23622D03*
X22007Y-23622D03*
X22263Y-23622D03*
X22519Y-23622D03*
X22775Y-23622D03*
G54D19*
X23976Y-28818D03*
X25275Y-28976D03*
X22480Y-28818D03*
X30511Y-23543D03*
X29409Y-23425D03*
X30039Y-27992D03*
X27519Y-28582D03*
X24763Y-24527D03*
X24763Y-25551D03*
X25078Y-26456D03*
X26535Y-28228D03*
X23543Y-27559D03*
X22952Y-22440D03*
X22165Y-22913D03*
X23070Y-21417D03*
X23543Y-23188D03*
X23858Y-20039D03*
X22637Y-19881D03*
X27716Y-15433D03*
X30354Y-15669D03*
X24645Y-16968D03*
X25708Y-16299D03*
X21417Y-19645D03*
X21968Y-19015D03*
X29330Y-18858D03*
X24370Y-22401D03*
X29921Y-17559D03*
X24842Y-21771D03*
X22322Y-24566D03*
X21732Y-24566D03*
X19763Y-13464D03*
X19763Y-16181D03*
X24685Y-27637D03*
X28937Y-29133D03*
X24409Y-26102D03*
X29921Y-25472D03*
X29409Y-14685D03*
X29409Y-16456D03*
X19173Y-24370D03*
X24881Y-28661D03*
X23425Y-28228D03*
X31417Y-31062D03*
X30708Y-31062D03*
X29803Y-31062D03*
X17952Y-30984D03*
X19133Y-30984D03*
X31338Y-12322D03*
X29921Y-12283D03*
X28622Y-12283D03*
X26496Y-12283D03*
X25196Y-12244D03*
X23385Y-12165D03*
X23385Y-13897D03*
X18149Y-12244D03*
X20590Y-12244D03*
X22086Y-12244D03*
X28976Y-31062D03*
X27795Y-31023D03*
X26614Y-31023D03*
X25433Y-30984D03*
X24370Y-30984D03*
X23307Y-30984D03*
X22204Y-30984D03*
X21220Y-30984D03*
X20314Y-30984D03*
X20078Y-27047D03*
X28976Y-24370D03*
X29212Y-21181D03*
X26496Y-26338D03*
X25826Y-26338D03*
X24606Y-26811D03*
X25984Y-15118D03*
X20866Y-15669D03*
X29094Y-27874D03*
X27519Y-16496D03*
X25826Y-17677D03*
X19921Y-19763D03*
X23425Y-25511D03*
X22244Y-27244D03*
X24685Y-23779D03*
X24330Y-24842D03*
X22086Y-20944D03*
X23346Y-18976D03*
X22047Y-26811D03*
X22755Y-22913D03*
X27007Y-19212D03*
X28503Y-13937D03*
X28464Y-12992D03*
X26692Y-24448D03*
X27125Y-21417D03*
X26141Y-25984D03*
X27125Y-21929D03*
X27047Y-26220D03*
X27125Y-22637D03*
X20551Y-18582D03*
X23700Y-15944D03*
X22913Y-15944D03*
X19881Y-19094D03*
X26535Y-23976D03*
X27125Y-20787D03*
G54D20*
X25275Y-28976D02*
X25118Y-29133D01*
X21456Y-28425D02*
X21456Y-27755D01*
X21850Y-28818D02*
X21456Y-28425D01*
X22480Y-28818D02*
X21850Y-28818D01*
X24133Y-28976D02*
X23976Y-28818D01*
X24291Y-29133D02*
X24133Y-28976D01*
X25118Y-29133D02*
X24291Y-29133D01*
X30511Y-23543D02*
X30511Y-25511D01*
X31000Y-26000D02*
X30511Y-25511D01*
X29212Y-23425D02*
X28818Y-23031D01*
X29212Y-23425D02*
X29409Y-23425D01*
X28818Y-21889D02*
X28818Y-23031D01*
X28818Y-20748D02*
X28818Y-21889D01*
X28818Y-19724D02*
X28818Y-20748D01*
X23543Y-23976D02*
X23129Y-23976D01*
X23129Y-23976D02*
X22775Y-23622D01*
G54D21*
X24763Y-24527D02*
X24212Y-23976D01*
X24212Y-23976D02*
X23543Y-23976D01*
X30039Y-27992D02*
X30039Y-26377D01*
X30039Y-26377D02*
X30433Y-25984D01*
X30433Y-25984D02*
X30984Y-25984D01*
X30984Y-25984D02*
X31000Y-26000D01*
X27086Y-28267D02*
X27204Y-28267D01*
X27204Y-28267D02*
X27519Y-28582D01*
X26535Y-28228D02*
X27047Y-28228D01*
X25118Y-24173D02*
X24763Y-24527D01*
X24763Y-25551D02*
X25078Y-25866D01*
X25078Y-25866D02*
X25078Y-26456D01*
X25826Y-24173D02*
X25118Y-24173D01*
X27047Y-28228D02*
X27086Y-28267D01*
X26125Y-25162D02*
X26125Y-24472D01*
X26125Y-24472D02*
X25826Y-24173D01*
X23543Y-27559D02*
X23897Y-27913D01*
X24330Y-28267D02*
X23976Y-27913D01*
X24330Y-28267D02*
X25826Y-28267D01*
X23897Y-27913D02*
X23976Y-27913D01*
X23543Y-26929D02*
X23503Y-26889D01*
X23543Y-27559D02*
X23543Y-26929D01*
G54D20*
X21239Y-23622D02*
X21239Y-23090D01*
X23543Y-23031D02*
X23543Y-23188D01*
X22952Y-22440D02*
X23543Y-23031D01*
X21417Y-22913D02*
X22165Y-22913D01*
X21239Y-23090D02*
X21417Y-22913D01*
X22798Y-21144D02*
X22798Y-21138D01*
X23070Y-21417D02*
X22798Y-21144D01*
G54D21*
X22632Y-19881D02*
X22632Y-19887D01*
X22637Y-19881D02*
X22632Y-19881D01*
X27480Y-15472D02*
X26653Y-16299D01*
X27716Y-15433D02*
X27480Y-15433D01*
X27480Y-15433D02*
X27480Y-15472D01*
X24212Y-19685D02*
X23858Y-20039D01*
X24212Y-18503D02*
X24212Y-19685D01*
X24645Y-18070D02*
X24212Y-18503D01*
X24645Y-16968D02*
X24645Y-18070D01*
X26653Y-16299D02*
X25708Y-16299D01*
X31000Y-16000D02*
X30685Y-16000D01*
X30354Y-13645D02*
X31000Y-13000D01*
X30354Y-15669D02*
X30354Y-13645D01*
X30685Y-16000D02*
X30354Y-15669D01*
G54D20*
X31000Y-13000D02*
X29850Y-13000D01*
X29850Y-13000D02*
X29803Y-12952D01*
X21422Y-19645D02*
X21656Y-19879D01*
X21417Y-19645D02*
X21422Y-19645D01*
X22359Y-19136D02*
X22089Y-19136D01*
X22089Y-19136D02*
X21968Y-19015D01*
G54D21*
X22632Y-19409D02*
X22632Y-19887D01*
X22632Y-19887D02*
X22283Y-20236D01*
X22013Y-20236D02*
X21656Y-19879D01*
X22283Y-20236D02*
X22013Y-20236D01*
X23543Y-21884D02*
X24015Y-21411D01*
X24015Y-21411D02*
X24015Y-20196D01*
X24015Y-20196D02*
X23858Y-20039D01*
X22632Y-19409D02*
X22359Y-19136D01*
X23543Y-23188D02*
X23543Y-21884D01*
X23543Y-21884D02*
X22798Y-21138D01*
G54D20*
X22775Y-25944D02*
X23149Y-25944D01*
X23503Y-26299D02*
X23503Y-26889D01*
X23149Y-25944D02*
X23503Y-26299D01*
G54D21*
X26125Y-27277D02*
X26125Y-27968D01*
X26125Y-27968D02*
X25826Y-28267D01*
G54D20*
X29251Y-18779D02*
X26889Y-18779D01*
X29251Y-18779D02*
X29330Y-18858D01*
X24370Y-22401D02*
X25354Y-22401D01*
X25551Y-22204D02*
X25354Y-22401D01*
X25551Y-21259D02*
X25551Y-22204D01*
X26220Y-20590D02*
X25551Y-21259D01*
X26220Y-19448D02*
X26220Y-20590D01*
X26889Y-18779D02*
X26220Y-19448D01*
X24842Y-21771D02*
X24960Y-21889D01*
X26850Y-18503D02*
X29409Y-18503D01*
X29409Y-18503D02*
X29921Y-17992D01*
X29921Y-17992D02*
X29921Y-17559D01*
X25984Y-19370D02*
X26850Y-18503D01*
X25984Y-20433D02*
X25984Y-19370D01*
X25314Y-21102D02*
X25984Y-20433D01*
X25314Y-21847D02*
X25314Y-21102D01*
X25272Y-21889D02*
X25314Y-21847D01*
X24960Y-21889D02*
X25272Y-21889D01*
X22519Y-23622D02*
X22519Y-24369D01*
X22519Y-24369D02*
X22322Y-24566D01*
X22263Y-23622D02*
X22263Y-24035D01*
X22263Y-24035D02*
X21732Y-24566D01*
X19763Y-16181D02*
X19763Y-13464D01*
X24685Y-27637D02*
X24685Y-27362D01*
X24685Y-27362D02*
X24251Y-26929D01*
X31000Y-27000D02*
X31000Y-28212D01*
X29409Y-28661D02*
X28937Y-29133D01*
X30551Y-28661D02*
X29409Y-28661D01*
X31000Y-28212D02*
X30551Y-28661D01*
X24251Y-26259D02*
X24409Y-26102D01*
X24251Y-26929D02*
X24251Y-26259D01*
X29921Y-23858D02*
X29921Y-23740D01*
X29921Y-25472D02*
X29921Y-23858D01*
X29960Y-14094D02*
X29803Y-13937D01*
X29960Y-16299D02*
X29960Y-14094D01*
X30354Y-16692D02*
X29960Y-16299D01*
X30354Y-18464D02*
X30354Y-16692D01*
X30078Y-18740D02*
X30354Y-18464D01*
X30078Y-23582D02*
X30078Y-18740D01*
X29921Y-23740D02*
X30078Y-23582D01*
X22519Y-25944D02*
X22519Y-25236D01*
X18968Y-17000D02*
X18000Y-17000D01*
X19173Y-17204D02*
X18968Y-17000D01*
X19173Y-23307D02*
X19173Y-17204D01*
X20826Y-24960D02*
X19173Y-23307D01*
X22244Y-24960D02*
X20826Y-24960D01*
X22519Y-25236D02*
X22244Y-24960D01*
X18000Y-18000D02*
X18314Y-18000D01*
X22263Y-25531D02*
X22263Y-25944D01*
X22165Y-25433D02*
X22263Y-25531D01*
X19173Y-25433D02*
X22165Y-25433D01*
X18740Y-25000D02*
X19173Y-25433D01*
X18740Y-18425D02*
X18740Y-25000D01*
X18314Y-18000D02*
X18740Y-18425D01*
X29291Y-14566D02*
X28700Y-14566D01*
X29409Y-14685D02*
X29291Y-14566D01*
X29645Y-15275D02*
X29409Y-15039D01*
X29409Y-15039D02*
X29173Y-15039D01*
X29173Y-15039D02*
X28700Y-14566D01*
X29645Y-16220D02*
X29645Y-15275D01*
X29409Y-16456D02*
X29645Y-16220D01*
X28700Y-14566D02*
X27519Y-14566D01*
X27244Y-14291D02*
X27519Y-14566D01*
X27244Y-13464D02*
X27244Y-14291D01*
X26692Y-12913D02*
X27244Y-13464D01*
X19330Y-12913D02*
X26692Y-12913D01*
X18976Y-13267D02*
X19330Y-12913D01*
X18976Y-14645D02*
X18976Y-13267D01*
X18622Y-15000D02*
X18976Y-14645D01*
X18000Y-15000D02*
X18622Y-15000D01*
X24960Y-28661D02*
X24881Y-28661D01*
X23425Y-28228D02*
X23897Y-28228D01*
X24330Y-28661D02*
X24960Y-28661D01*
X24960Y-28661D02*
X25000Y-28661D01*
X23897Y-28228D02*
X24330Y-28661D01*
X25826Y-29094D02*
X25551Y-29370D01*
X23425Y-28740D02*
X23425Y-28228D01*
X23779Y-29094D02*
X23425Y-28740D01*
X24055Y-29370D02*
X23779Y-29094D01*
X25551Y-29370D02*
X24055Y-29370D01*
X28976Y-31062D02*
X29803Y-31062D01*
X30708Y-31062D02*
X31417Y-31062D01*
X20314Y-30984D02*
X19133Y-30984D01*
X17952Y-30590D02*
X17795Y-30433D01*
X17952Y-30984D02*
X17952Y-30590D01*
X28622Y-12283D02*
X29921Y-12283D01*
X26456Y-12244D02*
X26496Y-12283D01*
X25196Y-12244D02*
X26456Y-12244D01*
X23385Y-12165D02*
X23307Y-12244D01*
X20590Y-12244D02*
X18149Y-12244D01*
X23307Y-12244D02*
X22086Y-12244D01*
X18897Y-29921D02*
X19960Y-30984D01*
X28937Y-31023D02*
X28976Y-31062D01*
X27795Y-31023D02*
X28937Y-31023D01*
X26574Y-30984D02*
X26614Y-31023D01*
X25433Y-30984D02*
X26574Y-30984D01*
X23307Y-30984D02*
X24370Y-30984D01*
X21220Y-30984D02*
X22204Y-30984D01*
X19960Y-30984D02*
X20314Y-30984D01*
X20669Y-26456D02*
X21377Y-26456D01*
X20078Y-27047D02*
X20669Y-26456D01*
X28110Y-29094D02*
X28937Y-29921D01*
X28937Y-29921D02*
X30314Y-29921D01*
X28110Y-29094D02*
X29094Y-28110D01*
X27086Y-29094D02*
X28110Y-29094D01*
X29094Y-28110D02*
X29094Y-27874D01*
X28976Y-25785D02*
X28541Y-26220D01*
X29212Y-21181D02*
X29763Y-21732D01*
X29763Y-23582D02*
X28976Y-24370D01*
X29763Y-21732D02*
X29763Y-23582D01*
X26771Y-19921D02*
X27519Y-19173D01*
X26771Y-20787D02*
X26771Y-19921D01*
X25826Y-23346D02*
X25826Y-23070D01*
X26062Y-21496D02*
X26771Y-20787D01*
X26062Y-22834D02*
X26062Y-21496D01*
X25826Y-23070D02*
X26062Y-22834D01*
X29409Y-20984D02*
X29212Y-21181D01*
X29409Y-19370D02*
X29409Y-20984D01*
X29212Y-19173D02*
X29409Y-19370D01*
X27519Y-19173D02*
X29212Y-19173D01*
X28541Y-26220D02*
X27990Y-26771D01*
X27990Y-26771D02*
X26889Y-26771D01*
X26889Y-26771D02*
X26889Y-26732D01*
X26889Y-26732D02*
X26496Y-26338D01*
X24330Y-24842D02*
X24488Y-25000D01*
X24488Y-25000D02*
X24881Y-25000D01*
X24881Y-25000D02*
X25196Y-25314D01*
X25196Y-25314D02*
X25196Y-25511D01*
X25196Y-25511D02*
X25826Y-26141D01*
X25826Y-26141D02*
X25826Y-26338D01*
X25826Y-26338D02*
X25354Y-26811D01*
X25354Y-26811D02*
X24606Y-26811D01*
X20866Y-15669D02*
X20866Y-14685D01*
X25984Y-14448D02*
X25984Y-15118D01*
X25433Y-13897D02*
X25984Y-14448D01*
X21653Y-13897D02*
X23385Y-13897D01*
X23385Y-13897D02*
X25433Y-13897D01*
X20866Y-14685D02*
X21653Y-13897D01*
X19763Y-16771D02*
X19527Y-16771D01*
X20866Y-15669D02*
X19763Y-16771D01*
X28541Y-26220D02*
X29094Y-26773D01*
X29094Y-26773D02*
X29094Y-27874D01*
X27086Y-29094D02*
X25826Y-29094D01*
X25236Y-16692D02*
X27322Y-16692D01*
X27322Y-16692D02*
X27519Y-16496D01*
X22944Y-18079D02*
X22944Y-18552D01*
X24645Y-16377D02*
X22944Y-18079D01*
X24921Y-16377D02*
X24645Y-16377D01*
X25236Y-16692D02*
X24921Y-16377D01*
X25236Y-17086D02*
X25236Y-16692D01*
X25826Y-17677D02*
X25236Y-17086D01*
X18000Y-16000D02*
X18755Y-16000D01*
X18755Y-16000D02*
X19527Y-16771D01*
X19527Y-16771D02*
X19527Y-19370D01*
X19527Y-19370D02*
X19921Y-19763D01*
X21054Y-20463D02*
X21071Y-20463D01*
X19921Y-19763D02*
X20354Y-19763D01*
X20354Y-19763D02*
X21054Y-20463D01*
X22677Y-26889D02*
X22598Y-26889D01*
X23543Y-25393D02*
X23543Y-24803D01*
X23425Y-25511D02*
X23543Y-25393D01*
X22598Y-26889D02*
X22244Y-27244D01*
X21239Y-25944D02*
X21239Y-26318D01*
X22244Y-26456D02*
X22677Y-26889D01*
X21377Y-26456D02*
X22244Y-26456D01*
X21239Y-26318D02*
X21377Y-26456D01*
X25826Y-23346D02*
X25118Y-23346D01*
X25118Y-23346D02*
X24685Y-23779D01*
X24330Y-24842D02*
X24291Y-24803D01*
X24291Y-24803D02*
X23543Y-24803D01*
X22086Y-20944D02*
X22086Y-21596D01*
X22086Y-21596D02*
X22213Y-21723D01*
X21605Y-20463D02*
X21071Y-20463D01*
X22086Y-20944D02*
X21605Y-20463D01*
X22944Y-18573D02*
X22944Y-18552D01*
X23346Y-18976D02*
X22944Y-18573D01*
X21574Y-26811D02*
X21456Y-26929D01*
X22047Y-26811D02*
X21574Y-26811D01*
X26889Y-19409D02*
X26889Y-19330D01*
X23267Y-23543D02*
X24330Y-23543D01*
X24330Y-23543D02*
X25000Y-22874D01*
X25000Y-22874D02*
X25669Y-22874D01*
X25669Y-22874D02*
X25787Y-22755D01*
X25787Y-22755D02*
X25787Y-21456D01*
X25787Y-21456D02*
X26496Y-20748D01*
X26496Y-20748D02*
X26496Y-19803D01*
X26496Y-19803D02*
X26889Y-19409D01*
X23188Y-23267D02*
X23188Y-23464D01*
X22834Y-22913D02*
X23188Y-23267D01*
X22755Y-22913D02*
X22834Y-22913D01*
X23188Y-23464D02*
X23267Y-23543D01*
X26889Y-19330D02*
X27007Y-19212D01*
X28976Y-13937D02*
X28503Y-13937D01*
X28976Y-12952D02*
X28503Y-12952D01*
X28503Y-12952D02*
X28464Y-12992D01*
X26889Y-24291D02*
X26732Y-24448D01*
X26535Y-22007D02*
X26535Y-23267D01*
X26535Y-23267D02*
X26889Y-23622D01*
X26889Y-23622D02*
X26889Y-24291D01*
X27125Y-21417D02*
X26535Y-22007D01*
X26732Y-24448D02*
X26692Y-24448D01*
X27795Y-20748D02*
X27992Y-20748D01*
X27637Y-20905D02*
X27795Y-20748D01*
X27637Y-21141D02*
X27637Y-20905D01*
X27362Y-21417D02*
X27637Y-21141D01*
X27125Y-21417D02*
X27362Y-21417D01*
X26771Y-22283D02*
X26771Y-23188D01*
X26771Y-23188D02*
X27125Y-23543D01*
X27125Y-23543D02*
X27125Y-25669D01*
X26771Y-22283D02*
X27125Y-21929D01*
X26811Y-25984D02*
X27125Y-25669D01*
X26141Y-25984D02*
X26811Y-25984D01*
X27165Y-21889D02*
X27992Y-21889D01*
X27125Y-21929D02*
X27165Y-21889D01*
X27362Y-25905D02*
X27047Y-26220D01*
X27125Y-23188D02*
X27125Y-22637D01*
X27125Y-23188D02*
X27362Y-23425D01*
X27362Y-25905D02*
X27362Y-23425D01*
X27125Y-22637D02*
X27519Y-23031D01*
X27519Y-23031D02*
X27992Y-23031D01*
X20551Y-17874D02*
X20590Y-17834D01*
X20551Y-18582D02*
X20551Y-17874D01*
X21141Y-17283D02*
X23110Y-17283D01*
X20590Y-17834D02*
X21141Y-17283D01*
X23503Y-16141D02*
X23700Y-15944D01*
X23503Y-16889D02*
X23503Y-16141D01*
X23110Y-17283D02*
X23503Y-16889D01*
X22755Y-16811D02*
X23070Y-16496D01*
X23070Y-16496D02*
X23070Y-16102D01*
X23070Y-16102D02*
X22913Y-15944D01*
X19960Y-17795D02*
X20944Y-16811D01*
X20944Y-16811D02*
X22755Y-16811D01*
X19881Y-17874D02*
X19960Y-17795D01*
X19881Y-19094D02*
X19881Y-17874D01*
X27125Y-20787D02*
X26299Y-21614D01*
X26535Y-23661D02*
X26535Y-23976D01*
X26299Y-23425D02*
X26535Y-23661D01*
X26299Y-21614D02*
X26299Y-23425D01*
X27322Y-19724D02*
X27992Y-19724D01*
X27125Y-19921D02*
X27322Y-19724D01*
X27125Y-20787D02*
X27125Y-19921D01*
G54D10*
G36*
X26412Y-24277D02*
X26367Y-24383D01*
X26367Y-24431D01*
X26356Y-24376D01*
X26356Y-24376D01*
X26302Y-24295D01*
X26201Y-24194D01*
X26201Y-23946D01*
X26179Y-23891D01*
X26136Y-23849D01*
X26081Y-23826D01*
X26022Y-23826D01*
X25776Y-23826D01*
X25776Y-23730D01*
X25776Y-23396D01*
X25414Y-23396D01*
X25351Y-23458D01*
X25351Y-23592D01*
X25389Y-23684D01*
X25459Y-23755D01*
X25551Y-23793D01*
X25651Y-23793D01*
X25714Y-23793D01*
X25776Y-23730D01*
X25776Y-23826D01*
X25572Y-23826D01*
X25516Y-23849D01*
X25474Y-23891D01*
X25461Y-23923D01*
X25118Y-23923D01*
X25022Y-23942D01*
X24941Y-23996D01*
X24763Y-24174D01*
X24389Y-23799D01*
X24308Y-23745D01*
X24297Y-23743D01*
X24330Y-23743D01*
X24407Y-23728D01*
X24472Y-23684D01*
X25082Y-23074D01*
X25362Y-23074D01*
X25351Y-23100D01*
X25351Y-23233D01*
X25414Y-23296D01*
X25776Y-23296D01*
X25776Y-23288D01*
X25876Y-23288D01*
X25876Y-23296D01*
X25884Y-23296D01*
X25884Y-23396D01*
X25876Y-23396D01*
X25876Y-23730D01*
X25939Y-23793D01*
X26002Y-23793D01*
X26101Y-23793D01*
X26193Y-23755D01*
X26263Y-23684D01*
X26267Y-23676D01*
X26321Y-23730D01*
X26260Y-23792D01*
X26210Y-23911D01*
X26210Y-24040D01*
X26259Y-24160D01*
X26351Y-24251D01*
X26412Y-24277D01*
X26412Y-24277D01*
G37*
G54D20*
X26412Y-24277D02*
X26367Y-24383D01*
X26367Y-24431D01*
X26356Y-24376D01*
X26356Y-24376D01*
X26302Y-24295D01*
X26201Y-24194D01*
X26201Y-23946D01*
X26179Y-23891D01*
X26136Y-23849D01*
X26081Y-23826D01*
X26022Y-23826D01*
X25776Y-23826D01*
X25776Y-23730D01*
X25776Y-23396D01*
X25414Y-23396D01*
X25351Y-23458D01*
X25351Y-23592D01*
X25389Y-23684D01*
X25459Y-23755D01*
X25551Y-23793D01*
X25651Y-23793D01*
X25714Y-23793D01*
X25776Y-23730D01*
X25776Y-23826D01*
X25572Y-23826D01*
X25516Y-23849D01*
X25474Y-23891D01*
X25461Y-23923D01*
X25118Y-23923D01*
X25022Y-23942D01*
X24941Y-23996D01*
X24763Y-24174D01*
X24389Y-23799D01*
X24308Y-23745D01*
X24297Y-23743D01*
X24330Y-23743D01*
X24407Y-23728D01*
X24472Y-23684D01*
X25082Y-23074D01*
X25362Y-23074D01*
X25351Y-23100D01*
X25351Y-23233D01*
X25414Y-23296D01*
X25776Y-23296D01*
X25776Y-23288D01*
X25876Y-23288D01*
X25876Y-23296D01*
X25884Y-23296D01*
X25884Y-23396D01*
X25876Y-23396D01*
X25876Y-23730D01*
X25939Y-23793D01*
X26002Y-23793D01*
X26101Y-23793D01*
X26193Y-23755D01*
X26263Y-23684D01*
X26267Y-23676D01*
X26321Y-23730D01*
X26260Y-23792D01*
X26210Y-23911D01*
X26210Y-24040D01*
X26259Y-24160D01*
X26351Y-24251D01*
X26412Y-24277D01*
G54D10*
G36*
X31720Y-31326D02*
X31554Y-31326D01*
X31554Y-14081D01*
X31543Y-13863D01*
X31481Y-13712D01*
X31385Y-13684D01*
X31070Y-14000D01*
X31385Y-14315D01*
X31481Y-14287D01*
X31554Y-14081D01*
X31554Y-31326D01*
X31450Y-31326D01*
X31450Y-25910D01*
X31381Y-25745D01*
X31255Y-25618D01*
X31089Y-25550D01*
X30910Y-25549D01*
X30855Y-25572D01*
X30711Y-25428D01*
X30711Y-25348D01*
X30744Y-25381D01*
X30910Y-25449D01*
X31089Y-25450D01*
X31254Y-25381D01*
X31381Y-25255D01*
X31449Y-25089D01*
X31450Y-24910D01*
X31381Y-24745D01*
X31255Y-24618D01*
X31089Y-24550D01*
X30910Y-24549D01*
X30745Y-24618D01*
X30711Y-24651D01*
X30711Y-24348D01*
X30744Y-24381D01*
X30910Y-24449D01*
X31089Y-24450D01*
X31254Y-24381D01*
X31381Y-24255D01*
X31449Y-24089D01*
X31450Y-23910D01*
X31381Y-23745D01*
X31255Y-23618D01*
X31089Y-23550D01*
X30910Y-23549D01*
X30836Y-23580D01*
X30836Y-23478D01*
X30807Y-23407D01*
X30910Y-23449D01*
X31089Y-23450D01*
X31254Y-23381D01*
X31381Y-23255D01*
X31449Y-23089D01*
X31450Y-22910D01*
X31450Y-21910D01*
X31450Y-20910D01*
X31450Y-19910D01*
X31450Y-18910D01*
X31381Y-18745D01*
X31255Y-18618D01*
X31089Y-18550D01*
X30910Y-18549D01*
X30745Y-18618D01*
X30618Y-18744D01*
X30550Y-18910D01*
X30549Y-19089D01*
X30618Y-19254D01*
X30744Y-19381D01*
X30910Y-19449D01*
X31089Y-19450D01*
X31254Y-19381D01*
X31381Y-19255D01*
X31449Y-19089D01*
X31450Y-18910D01*
X31450Y-19910D01*
X31381Y-19745D01*
X31255Y-19618D01*
X31089Y-19550D01*
X30910Y-19549D01*
X30745Y-19618D01*
X30618Y-19744D01*
X30550Y-19910D01*
X30549Y-20089D01*
X30618Y-20254D01*
X30744Y-20381D01*
X30910Y-20449D01*
X31089Y-20450D01*
X31254Y-20381D01*
X31381Y-20255D01*
X31449Y-20089D01*
X31450Y-19910D01*
X31450Y-20910D01*
X31381Y-20745D01*
X31255Y-20618D01*
X31089Y-20550D01*
X30910Y-20549D01*
X30745Y-20618D01*
X30618Y-20744D01*
X30550Y-20910D01*
X30549Y-21089D01*
X30618Y-21254D01*
X30744Y-21381D01*
X30910Y-21449D01*
X31089Y-21450D01*
X31254Y-21381D01*
X31381Y-21255D01*
X31449Y-21089D01*
X31450Y-20910D01*
X31450Y-21910D01*
X31381Y-21745D01*
X31255Y-21618D01*
X31089Y-21550D01*
X30910Y-21549D01*
X30745Y-21618D01*
X30618Y-21744D01*
X30550Y-21910D01*
X30549Y-22089D01*
X30618Y-22254D01*
X30744Y-22381D01*
X30910Y-22449D01*
X31089Y-22450D01*
X31254Y-22381D01*
X31381Y-22255D01*
X31449Y-22089D01*
X31450Y-21910D01*
X31450Y-22910D01*
X31381Y-22745D01*
X31255Y-22618D01*
X31089Y-22550D01*
X30910Y-22549D01*
X30745Y-22618D01*
X30618Y-22744D01*
X30550Y-22910D01*
X30549Y-23089D01*
X30608Y-23231D01*
X30576Y-23218D01*
X30447Y-23218D01*
X30327Y-23267D01*
X30278Y-23316D01*
X30278Y-18823D01*
X30495Y-18605D01*
X30495Y-18605D01*
X30524Y-18562D01*
X30539Y-18541D01*
X30539Y-18541D01*
X30554Y-18464D01*
X30554Y-18464D01*
X30554Y-18099D01*
X30618Y-18254D01*
X30744Y-18381D01*
X30910Y-18449D01*
X31089Y-18450D01*
X31254Y-18381D01*
X31381Y-18255D01*
X31449Y-18089D01*
X31450Y-17910D01*
X31381Y-17745D01*
X31255Y-17618D01*
X31089Y-17550D01*
X30910Y-17549D01*
X30745Y-17618D01*
X30618Y-17744D01*
X30554Y-17899D01*
X30554Y-17099D01*
X30618Y-17254D01*
X30744Y-17381D01*
X30910Y-17449D01*
X31089Y-17450D01*
X31254Y-17381D01*
X31381Y-17255D01*
X31449Y-17089D01*
X31450Y-16910D01*
X31381Y-16745D01*
X31255Y-16618D01*
X31089Y-16550D01*
X30910Y-16549D01*
X30745Y-16618D01*
X30618Y-16744D01*
X30554Y-16899D01*
X30554Y-16692D01*
X30539Y-16616D01*
X30539Y-16616D01*
X30524Y-16594D01*
X30495Y-16551D01*
X30495Y-16551D01*
X30160Y-16216D01*
X30160Y-15935D01*
X30169Y-15944D01*
X30289Y-15994D01*
X30325Y-15994D01*
X30508Y-16176D01*
X30589Y-16230D01*
X30589Y-16230D01*
X30610Y-16235D01*
X30618Y-16254D01*
X30744Y-16381D01*
X30910Y-16449D01*
X31089Y-16450D01*
X31254Y-16381D01*
X31381Y-16255D01*
X31449Y-16089D01*
X31450Y-15910D01*
X31381Y-15745D01*
X31255Y-15618D01*
X31089Y-15550D01*
X30910Y-15549D01*
X30745Y-15618D01*
X30701Y-15662D01*
X30679Y-15640D01*
X30679Y-15604D01*
X30630Y-15485D01*
X30604Y-15459D01*
X30604Y-15220D01*
X30618Y-15254D01*
X30744Y-15381D01*
X30910Y-15449D01*
X31089Y-15450D01*
X31254Y-15381D01*
X31381Y-15255D01*
X31449Y-15089D01*
X31450Y-14910D01*
X31381Y-14745D01*
X31255Y-14618D01*
X31089Y-14550D01*
X31013Y-14550D01*
X31136Y-14543D01*
X31287Y-14481D01*
X31315Y-14385D01*
X31000Y-14070D01*
X30994Y-14076D01*
X30923Y-14005D01*
X30929Y-14000D01*
X30923Y-13994D01*
X30994Y-13923D01*
X31000Y-13929D01*
X31315Y-13614D01*
X31287Y-13518D01*
X31092Y-13448D01*
X31254Y-13381D01*
X31381Y-13255D01*
X31449Y-13089D01*
X31450Y-12910D01*
X31381Y-12745D01*
X31255Y-12618D01*
X31089Y-12550D01*
X30910Y-12549D01*
X30745Y-12618D01*
X30618Y-12744D01*
X30595Y-12800D01*
X30150Y-12800D01*
X30150Y-12698D01*
X30127Y-12642D01*
X30085Y-12600D01*
X30029Y-12577D01*
X29970Y-12577D01*
X29576Y-12577D01*
X29521Y-12600D01*
X29479Y-12642D01*
X29456Y-12697D01*
X29456Y-12757D01*
X29456Y-13207D01*
X29479Y-13262D01*
X29521Y-13304D01*
X29576Y-13327D01*
X29636Y-13327D01*
X30029Y-13327D01*
X30084Y-13304D01*
X30127Y-13262D01*
X30149Y-13207D01*
X30149Y-13200D01*
X30446Y-13200D01*
X30177Y-13468D01*
X30123Y-13549D01*
X30111Y-13611D01*
X30085Y-13584D01*
X30029Y-13562D01*
X29970Y-13561D01*
X29576Y-13561D01*
X29521Y-13584D01*
X29479Y-13626D01*
X29456Y-13682D01*
X29456Y-13741D01*
X29456Y-14191D01*
X29479Y-14246D01*
X29521Y-14289D01*
X29576Y-14311D01*
X29636Y-14312D01*
X29760Y-14312D01*
X29760Y-15107D01*
X29603Y-14950D01*
X29684Y-14869D01*
X29734Y-14749D01*
X29734Y-14620D01*
X29685Y-14501D01*
X29593Y-14409D01*
X29474Y-14360D01*
X29345Y-14359D01*
X29323Y-14369D01*
X29323Y-14132D01*
X29323Y-13682D01*
X29323Y-13148D01*
X29323Y-12698D01*
X29300Y-12642D01*
X29258Y-12600D01*
X29203Y-12577D01*
X29143Y-12577D01*
X28749Y-12577D01*
X28694Y-12600D01*
X28652Y-12642D01*
X28629Y-12697D01*
X28629Y-12708D01*
X28529Y-12667D01*
X28400Y-12667D01*
X28280Y-12716D01*
X28189Y-12807D01*
X28139Y-12927D01*
X28139Y-13056D01*
X28188Y-13175D01*
X28280Y-13267D01*
X28399Y-13317D01*
X28528Y-13317D01*
X28648Y-13267D01*
X28652Y-13263D01*
X28694Y-13304D01*
X28749Y-13327D01*
X28809Y-13327D01*
X29202Y-13327D01*
X29258Y-13304D01*
X29300Y-13262D01*
X29323Y-13207D01*
X29323Y-13148D01*
X29323Y-13682D01*
X29300Y-13627D01*
X29258Y-13584D01*
X29203Y-13562D01*
X29143Y-13561D01*
X28749Y-13561D01*
X28694Y-13584D01*
X28652Y-13626D01*
X28645Y-13643D01*
X28568Y-13612D01*
X28439Y-13611D01*
X28320Y-13661D01*
X28228Y-13752D01*
X28178Y-13872D01*
X28178Y-14001D01*
X28228Y-14120D01*
X28319Y-14212D01*
X28439Y-14261D01*
X28568Y-14262D01*
X28645Y-14230D01*
X28652Y-14246D01*
X28694Y-14289D01*
X28749Y-14311D01*
X28809Y-14312D01*
X29202Y-14312D01*
X29258Y-14289D01*
X29300Y-14247D01*
X29323Y-14191D01*
X29323Y-14132D01*
X29323Y-14369D01*
X29316Y-14371D01*
X29291Y-14366D01*
X28700Y-14366D01*
X27602Y-14366D01*
X27444Y-14208D01*
X27444Y-13464D01*
X27444Y-13464D01*
X27428Y-13388D01*
X27428Y-13388D01*
X27414Y-13366D01*
X27385Y-13323D01*
X27385Y-13323D01*
X26834Y-12771D01*
X26769Y-12728D01*
X26692Y-12713D01*
X19330Y-12713D01*
X19254Y-12728D01*
X19189Y-12771D01*
X18834Y-13126D01*
X18791Y-13191D01*
X18776Y-13267D01*
X18776Y-14562D01*
X18539Y-14800D01*
X18450Y-14800D01*
X18450Y-13910D01*
X18450Y-13910D01*
X18450Y-13270D01*
X18450Y-12670D01*
X18427Y-12615D01*
X18385Y-12572D01*
X18329Y-12550D01*
X18270Y-12549D01*
X17670Y-12549D01*
X17615Y-12572D01*
X17572Y-12614D01*
X17550Y-12670D01*
X17549Y-12729D01*
X17549Y-13329D01*
X17572Y-13384D01*
X17614Y-13427D01*
X17670Y-13449D01*
X17729Y-13450D01*
X18329Y-13450D01*
X18384Y-13427D01*
X18427Y-13385D01*
X18449Y-13329D01*
X18450Y-13270D01*
X18450Y-13910D01*
X18381Y-13745D01*
X18255Y-13618D01*
X18089Y-13550D01*
X17910Y-13549D01*
X17745Y-13618D01*
X17618Y-13744D01*
X17550Y-13910D01*
X17549Y-14089D01*
X17618Y-14254D01*
X17744Y-14381D01*
X17910Y-14449D01*
X18089Y-14450D01*
X18254Y-14381D01*
X18381Y-14255D01*
X18449Y-14089D01*
X18450Y-13910D01*
X18450Y-14800D01*
X18404Y-14800D01*
X18381Y-14745D01*
X18255Y-14618D01*
X18089Y-14550D01*
X17910Y-14549D01*
X17745Y-14618D01*
X17618Y-14744D01*
X17550Y-14910D01*
X17549Y-15089D01*
X17618Y-15254D01*
X17744Y-15381D01*
X17910Y-15449D01*
X17986Y-15449D01*
X17863Y-15456D01*
X17712Y-15518D01*
X17684Y-15614D01*
X18000Y-15929D01*
X18315Y-15614D01*
X18287Y-15518D01*
X18092Y-15448D01*
X18254Y-15381D01*
X18381Y-15255D01*
X18404Y-15200D01*
X18622Y-15200D01*
X18698Y-15184D01*
X18763Y-15141D01*
X19117Y-14787D01*
X19161Y-14722D01*
X19161Y-14722D01*
X19176Y-14645D01*
X19176Y-13350D01*
X19413Y-13113D01*
X26610Y-13113D01*
X27044Y-13547D01*
X27044Y-14291D01*
X27059Y-14367D01*
X27102Y-14432D01*
X27378Y-14708D01*
X27378Y-14708D01*
X27421Y-14737D01*
X27443Y-14751D01*
X27443Y-14751D01*
X27519Y-14766D01*
X28617Y-14766D01*
X29031Y-15180D01*
X29096Y-15224D01*
X29096Y-15224D01*
X29109Y-15226D01*
X29173Y-15239D01*
X29326Y-15239D01*
X29445Y-15358D01*
X29445Y-16131D01*
X29345Y-16131D01*
X29225Y-16181D01*
X29134Y-16272D01*
X29084Y-16391D01*
X29084Y-16521D01*
X29133Y-16640D01*
X29225Y-16732D01*
X29344Y-16781D01*
X29473Y-16781D01*
X29593Y-16732D01*
X29684Y-16641D01*
X29734Y-16521D01*
X29734Y-16414D01*
X29775Y-16373D01*
X29775Y-16375D01*
X29819Y-16440D01*
X30154Y-16775D01*
X30154Y-17332D01*
X30105Y-17283D01*
X29986Y-17234D01*
X29856Y-17233D01*
X29737Y-17283D01*
X29645Y-17374D01*
X29596Y-17494D01*
X29596Y-17623D01*
X29645Y-17742D01*
X29721Y-17818D01*
X29721Y-17909D01*
X29326Y-18303D01*
X28041Y-18303D01*
X28041Y-15368D01*
X27992Y-15249D01*
X27900Y-15157D01*
X27781Y-15108D01*
X27652Y-15108D01*
X27532Y-15157D01*
X27506Y-15183D01*
X27480Y-15183D01*
X27384Y-15202D01*
X27303Y-15256D01*
X27249Y-15337D01*
X27246Y-15352D01*
X26549Y-16049D01*
X25918Y-16049D01*
X25892Y-16023D01*
X25773Y-15974D01*
X25644Y-15974D01*
X25524Y-16023D01*
X25433Y-16114D01*
X25383Y-16234D01*
X25383Y-16363D01*
X25432Y-16483D01*
X25524Y-16574D01*
X25643Y-16624D01*
X25773Y-16624D01*
X25892Y-16574D01*
X25918Y-16549D01*
X26653Y-16549D01*
X26749Y-16530D01*
X26830Y-16475D01*
X27578Y-15727D01*
X27651Y-15758D01*
X27780Y-15758D01*
X27900Y-15708D01*
X27991Y-15617D01*
X28041Y-15498D01*
X28041Y-15368D01*
X28041Y-18303D01*
X26850Y-18303D01*
X26773Y-18319D01*
X26752Y-18333D01*
X26708Y-18362D01*
X25842Y-19228D01*
X25799Y-19293D01*
X25784Y-19370D01*
X25784Y-20350D01*
X25173Y-20960D01*
X25130Y-21025D01*
X25114Y-21102D01*
X25114Y-21584D01*
X25026Y-21496D01*
X24907Y-21446D01*
X24778Y-21446D01*
X24658Y-21495D01*
X24567Y-21587D01*
X24517Y-21706D01*
X24517Y-21836D01*
X24566Y-21955D01*
X24658Y-22047D01*
X24777Y-22096D01*
X24906Y-22096D01*
X24935Y-22084D01*
X24960Y-22089D01*
X25272Y-22089D01*
X25348Y-22074D01*
X25351Y-22073D01*
X25351Y-22121D01*
X25271Y-22201D01*
X24629Y-22201D01*
X24554Y-22126D01*
X24435Y-22076D01*
X24305Y-22076D01*
X24186Y-22125D01*
X24094Y-22217D01*
X24045Y-22336D01*
X24045Y-22465D01*
X24094Y-22585D01*
X24185Y-22676D01*
X24305Y-22726D01*
X24434Y-22726D01*
X24553Y-22677D01*
X24629Y-22601D01*
X25354Y-22601D01*
X25430Y-22586D01*
X25495Y-22542D01*
X25587Y-22451D01*
X25587Y-22673D01*
X25586Y-22674D01*
X25000Y-22674D01*
X24923Y-22689D01*
X24858Y-22732D01*
X24247Y-23343D01*
X23831Y-23343D01*
X23868Y-23253D01*
X23868Y-23124D01*
X23818Y-23005D01*
X23793Y-22979D01*
X23793Y-21987D01*
X24192Y-21588D01*
X24246Y-21507D01*
X24246Y-21507D01*
X24265Y-21411D01*
X24265Y-20196D01*
X24246Y-20101D01*
X24246Y-20101D01*
X24207Y-20043D01*
X24389Y-19861D01*
X24443Y-19780D01*
X24462Y-19685D01*
X24462Y-18607D01*
X24822Y-18247D01*
X24822Y-18247D01*
X24822Y-18247D01*
X24876Y-18166D01*
X24876Y-18166D01*
X24891Y-18089D01*
X24895Y-18070D01*
X24895Y-18070D01*
X24895Y-18070D01*
X24895Y-17178D01*
X24921Y-17152D01*
X24970Y-17033D01*
X24970Y-16904D01*
X24921Y-16784D01*
X24830Y-16693D01*
X24710Y-16643D01*
X24581Y-16643D01*
X24461Y-16692D01*
X24370Y-16784D01*
X24320Y-16903D01*
X24320Y-17032D01*
X24369Y-17152D01*
X24395Y-17178D01*
X24395Y-17967D01*
X24035Y-18327D01*
X24025Y-18342D01*
X24025Y-15880D01*
X23976Y-15761D01*
X23885Y-15669D01*
X23765Y-15619D01*
X23636Y-15619D01*
X23516Y-15669D01*
X23425Y-15760D01*
X23375Y-15879D01*
X23375Y-15987D01*
X23362Y-16000D01*
X23319Y-16065D01*
X23303Y-16141D01*
X23303Y-16806D01*
X23270Y-16839D01*
X23270Y-16496D01*
X23270Y-16102D01*
X23258Y-16038D01*
X23255Y-16025D01*
X23255Y-16025D01*
X23238Y-15999D01*
X23238Y-15880D01*
X23189Y-15761D01*
X23097Y-15669D01*
X22978Y-15619D01*
X22849Y-15619D01*
X22729Y-15669D01*
X22638Y-15760D01*
X22588Y-15879D01*
X22588Y-16009D01*
X22637Y-16128D01*
X22729Y-16220D01*
X22848Y-16269D01*
X22870Y-16269D01*
X22870Y-16413D01*
X22673Y-16611D01*
X20944Y-16611D01*
X20868Y-16626D01*
X20846Y-16640D01*
X20803Y-16669D01*
X20088Y-17384D01*
X20088Y-16116D01*
X20039Y-15997D01*
X19963Y-15921D01*
X19963Y-13724D01*
X20039Y-13648D01*
X20088Y-13529D01*
X20088Y-13400D01*
X20039Y-13280D01*
X19948Y-13189D01*
X19828Y-13139D01*
X19699Y-13139D01*
X19579Y-13188D01*
X19488Y-13280D01*
X19438Y-13399D01*
X19438Y-13528D01*
X19488Y-13648D01*
X19563Y-13724D01*
X19563Y-15921D01*
X19488Y-15996D01*
X19438Y-16116D01*
X19438Y-16245D01*
X19488Y-16364D01*
X19579Y-16456D01*
X19698Y-16506D01*
X19828Y-16506D01*
X19947Y-16456D01*
X20039Y-16365D01*
X20088Y-16246D01*
X20088Y-16116D01*
X20088Y-17384D01*
X19819Y-17653D01*
X19819Y-17653D01*
X19740Y-17732D01*
X19697Y-17797D01*
X19681Y-17874D01*
X19681Y-18834D01*
X19606Y-18910D01*
X19556Y-19029D01*
X19556Y-19158D01*
X19606Y-19278D01*
X19697Y-19369D01*
X19816Y-19419D01*
X19946Y-19419D01*
X20065Y-19370D01*
X20157Y-19278D01*
X20206Y-19159D01*
X20206Y-19030D01*
X20157Y-18910D01*
X20081Y-18834D01*
X20081Y-17956D01*
X20102Y-17936D01*
X20102Y-17936D01*
X20102Y-17936D01*
X21027Y-17011D01*
X22755Y-17011D01*
X22832Y-16995D01*
X22897Y-16952D01*
X23212Y-16637D01*
X23212Y-16637D01*
X23241Y-16594D01*
X23255Y-16572D01*
X23255Y-16572D01*
X23270Y-16496D01*
X23270Y-16496D01*
X23270Y-16839D01*
X23027Y-17083D01*
X21141Y-17083D01*
X21065Y-17098D01*
X21043Y-17113D01*
X21000Y-17142D01*
X20449Y-17693D01*
X20409Y-17732D01*
X20366Y-17797D01*
X20351Y-17874D01*
X20351Y-18323D01*
X20275Y-18398D01*
X20226Y-18517D01*
X20226Y-18647D01*
X20275Y-18766D01*
X20366Y-18858D01*
X20486Y-18907D01*
X20615Y-18907D01*
X20735Y-18858D01*
X20826Y-18767D01*
X20876Y-18647D01*
X20876Y-18518D01*
X20826Y-18398D01*
X20751Y-18323D01*
X20751Y-17956D01*
X21224Y-17483D01*
X23110Y-17483D01*
X23186Y-17468D01*
X23251Y-17424D01*
X23645Y-17031D01*
X23645Y-17031D01*
X23674Y-16987D01*
X23688Y-16966D01*
X23688Y-16966D01*
X23703Y-16889D01*
X23703Y-16889D01*
X23703Y-16269D01*
X23765Y-16269D01*
X23884Y-16220D01*
X23976Y-16129D01*
X24025Y-16009D01*
X24025Y-15880D01*
X24025Y-18342D01*
X23981Y-18408D01*
X23962Y-18503D01*
X23962Y-19581D01*
X23829Y-19714D01*
X23793Y-19714D01*
X23674Y-19763D01*
X23582Y-19855D01*
X23533Y-19974D01*
X23533Y-20103D01*
X23582Y-20223D01*
X23673Y-20314D01*
X23765Y-20352D01*
X23765Y-21308D01*
X23543Y-21530D01*
X23492Y-21479D01*
X23492Y-18522D01*
X23454Y-18430D01*
X23384Y-18360D01*
X23339Y-18315D01*
X23251Y-18315D01*
X23180Y-18386D01*
X23180Y-18244D01*
X23180Y-18156D01*
X23135Y-18111D01*
X23065Y-18041D01*
X22973Y-18003D01*
X22874Y-18003D01*
X22782Y-18041D01*
X22687Y-18136D01*
X22687Y-18225D01*
X22944Y-18481D01*
X23180Y-18244D01*
X23180Y-18386D01*
X23014Y-18552D01*
X23271Y-18808D01*
X23359Y-18808D01*
X23454Y-18713D01*
X23492Y-18621D01*
X23492Y-18522D01*
X23492Y-21479D01*
X23395Y-21383D01*
X23395Y-21352D01*
X23346Y-21233D01*
X23255Y-21141D01*
X23246Y-21138D01*
X23246Y-21129D01*
X23223Y-21073D01*
X23200Y-21050D01*
X23200Y-18967D01*
X23200Y-18879D01*
X22944Y-18622D01*
X22873Y-18693D01*
X22873Y-18552D01*
X22616Y-18295D01*
X22528Y-18295D01*
X22433Y-18390D01*
X22395Y-18482D01*
X22395Y-18581D01*
X22433Y-18673D01*
X22503Y-18743D01*
X22548Y-18788D01*
X22636Y-18788D01*
X22873Y-18552D01*
X22873Y-18693D01*
X22707Y-18859D01*
X22707Y-18947D01*
X22752Y-18992D01*
X22822Y-19062D01*
X22914Y-19100D01*
X23013Y-19100D01*
X23105Y-19062D01*
X23200Y-18967D01*
X23200Y-21050D01*
X23181Y-21031D01*
X22962Y-20813D01*
X22962Y-19817D01*
X22913Y-19698D01*
X22882Y-19666D01*
X22882Y-19409D01*
X22863Y-19313D01*
X22863Y-19313D01*
X22808Y-19232D01*
X22808Y-19232D01*
X22794Y-19218D01*
X22807Y-19186D01*
X22807Y-19126D01*
X22784Y-19071D01*
X22742Y-19029D01*
X22424Y-18711D01*
X22369Y-18688D01*
X22309Y-18688D01*
X22254Y-18711D01*
X22212Y-18753D01*
X22189Y-18776D01*
X22152Y-18740D01*
X22033Y-18690D01*
X21904Y-18690D01*
X21784Y-18740D01*
X21693Y-18831D01*
X21643Y-18950D01*
X21643Y-19080D01*
X21692Y-19199D01*
X21784Y-19291D01*
X21903Y-19340D01*
X22032Y-19340D01*
X22058Y-19330D01*
X22063Y-19331D01*
X22063Y-19331D01*
X22294Y-19562D01*
X22349Y-19584D01*
X22382Y-19584D01*
X22382Y-19677D01*
X22362Y-19697D01*
X22312Y-19816D01*
X22312Y-19853D01*
X22179Y-19986D01*
X22117Y-19986D01*
X22091Y-19960D01*
X22104Y-19928D01*
X22104Y-19869D01*
X22081Y-19814D01*
X22039Y-19771D01*
X21721Y-19453D01*
X21666Y-19430D01*
X21662Y-19430D01*
X21601Y-19370D01*
X21482Y-19320D01*
X21352Y-19320D01*
X21233Y-19369D01*
X21141Y-19461D01*
X21092Y-19580D01*
X21092Y-19710D01*
X21141Y-19829D01*
X21213Y-19901D01*
X21230Y-19944D01*
X21272Y-19986D01*
X21591Y-20304D01*
X21646Y-20327D01*
X21705Y-20327D01*
X21737Y-20314D01*
X21836Y-20412D01*
X21917Y-20467D01*
X22013Y-20486D01*
X22283Y-20486D01*
X22379Y-20467D01*
X22460Y-20412D01*
X22666Y-20206D01*
X22702Y-20206D01*
X22821Y-20157D01*
X22913Y-20066D01*
X22962Y-19946D01*
X22962Y-19817D01*
X22962Y-20813D01*
X22863Y-20713D01*
X22808Y-20690D01*
X22748Y-20690D01*
X22693Y-20713D01*
X22651Y-20755D01*
X22372Y-21033D01*
X22349Y-21089D01*
X22349Y-21148D01*
X22372Y-21203D01*
X22414Y-21246D01*
X22732Y-21564D01*
X22788Y-21587D01*
X22789Y-21587D01*
X22795Y-21601D01*
X22886Y-21692D01*
X23005Y-21742D01*
X23047Y-21742D01*
X23293Y-21987D01*
X23293Y-22498D01*
X23277Y-22483D01*
X23277Y-22376D01*
X23228Y-22257D01*
X23137Y-22165D01*
X23017Y-22116D01*
X22888Y-22115D01*
X22768Y-22165D01*
X22761Y-22172D01*
X22761Y-21693D01*
X22723Y-21602D01*
X22653Y-21531D01*
X22608Y-21487D01*
X22520Y-21487D01*
X22449Y-21557D01*
X22449Y-21416D01*
X22449Y-21328D01*
X22405Y-21283D01*
X22334Y-21213D01*
X22243Y-21175D01*
X22143Y-21175D01*
X22051Y-21213D01*
X21957Y-21308D01*
X21957Y-21396D01*
X22213Y-21652D01*
X22449Y-21416D01*
X22449Y-21557D01*
X22284Y-21723D01*
X22540Y-21979D01*
X22628Y-21979D01*
X22723Y-21885D01*
X22761Y-21793D01*
X22761Y-21693D01*
X22761Y-22172D01*
X22677Y-22256D01*
X22627Y-22376D01*
X22627Y-22505D01*
X22666Y-22598D01*
X22572Y-22637D01*
X22480Y-22729D01*
X22469Y-22754D01*
X22469Y-22138D01*
X22469Y-22050D01*
X22213Y-21794D01*
X22142Y-21864D01*
X22142Y-21723D01*
X21886Y-21467D01*
X21798Y-21467D01*
X21703Y-21561D01*
X21665Y-21653D01*
X21665Y-21753D01*
X21703Y-21845D01*
X21773Y-21915D01*
X21817Y-21959D01*
X21906Y-21959D01*
X22142Y-21723D01*
X22142Y-21864D01*
X21977Y-22030D01*
X21977Y-22119D01*
X22021Y-22163D01*
X22091Y-22233D01*
X22183Y-22271D01*
X22283Y-22271D01*
X22375Y-22233D01*
X22469Y-22138D01*
X22469Y-22754D01*
X22460Y-22776D01*
X22441Y-22729D01*
X22349Y-22638D01*
X22230Y-22588D01*
X22100Y-22588D01*
X21981Y-22637D01*
X21905Y-22713D01*
X21620Y-22713D01*
X21620Y-20434D01*
X21582Y-20342D01*
X21511Y-20271D01*
X21467Y-20227D01*
X21378Y-20227D01*
X21308Y-20297D01*
X21308Y-20156D01*
X21308Y-20068D01*
X21263Y-20023D01*
X21193Y-19953D01*
X21101Y-19915D01*
X21001Y-19915D01*
X20910Y-19953D01*
X20815Y-20048D01*
X20815Y-20136D01*
X21071Y-20392D01*
X21308Y-20156D01*
X21308Y-20297D01*
X21142Y-20463D01*
X21398Y-20720D01*
X21487Y-20720D01*
X21581Y-20625D01*
X21619Y-20533D01*
X21620Y-20434D01*
X21620Y-22713D01*
X21417Y-22713D01*
X21353Y-22726D01*
X21340Y-22728D01*
X21328Y-22737D01*
X21328Y-20879D01*
X21328Y-20790D01*
X21071Y-20534D01*
X21001Y-20605D01*
X21001Y-20463D01*
X20744Y-20207D01*
X20656Y-20207D01*
X20561Y-20302D01*
X20523Y-20393D01*
X20523Y-20493D01*
X20561Y-20585D01*
X20631Y-20655D01*
X20676Y-20700D01*
X20764Y-20700D01*
X21001Y-20463D01*
X21001Y-20605D01*
X20835Y-20770D01*
X20835Y-20859D01*
X20879Y-20903D01*
X20950Y-20974D01*
X21042Y-21012D01*
X21141Y-21011D01*
X21233Y-20973D01*
X21328Y-20879D01*
X21328Y-22737D01*
X21275Y-22771D01*
X21098Y-22949D01*
X21055Y-23014D01*
X21039Y-23090D01*
X21039Y-23212D01*
X21030Y-23222D01*
X21007Y-23277D01*
X21007Y-23337D01*
X21007Y-23967D01*
X21030Y-24022D01*
X21072Y-24064D01*
X21127Y-24087D01*
X21187Y-24087D01*
X21352Y-24087D01*
X21367Y-24080D01*
X21383Y-24087D01*
X21443Y-24087D01*
X21608Y-24087D01*
X21623Y-24080D01*
X21639Y-24087D01*
X21699Y-24087D01*
X21864Y-24087D01*
X21879Y-24080D01*
X21895Y-24087D01*
X21928Y-24087D01*
X21774Y-24241D01*
X21667Y-24241D01*
X21548Y-24291D01*
X21456Y-24382D01*
X21407Y-24501D01*
X21407Y-24631D01*
X21456Y-24750D01*
X21466Y-24760D01*
X20909Y-24760D01*
X19373Y-23224D01*
X19373Y-17204D01*
X19358Y-17128D01*
X19314Y-17063D01*
X19109Y-16858D01*
X19045Y-16815D01*
X18968Y-16800D01*
X18554Y-16800D01*
X18554Y-16081D01*
X18543Y-15863D01*
X18481Y-15712D01*
X18385Y-15684D01*
X18070Y-16000D01*
X18385Y-16315D01*
X18481Y-16287D01*
X18554Y-16081D01*
X18554Y-16800D01*
X18404Y-16800D01*
X18381Y-16745D01*
X18255Y-16618D01*
X18089Y-16550D01*
X18013Y-16550D01*
X18136Y-16543D01*
X18287Y-16481D01*
X18315Y-16385D01*
X18000Y-16070D01*
X17684Y-16385D01*
X17712Y-16481D01*
X17907Y-16551D01*
X17745Y-16618D01*
X17618Y-16744D01*
X17550Y-16910D01*
X17549Y-17089D01*
X17618Y-17254D01*
X17744Y-17381D01*
X17910Y-17449D01*
X18089Y-17450D01*
X18254Y-17381D01*
X18381Y-17255D01*
X18404Y-17200D01*
X18885Y-17200D01*
X18973Y-17287D01*
X18973Y-23307D01*
X18988Y-23383D01*
X19031Y-23448D01*
X20685Y-25102D01*
X20685Y-25102D01*
X20728Y-25131D01*
X20750Y-25145D01*
X20750Y-25145D01*
X20826Y-25160D01*
X20826Y-25160D01*
X22161Y-25160D01*
X22263Y-25262D01*
X22241Y-25248D01*
X22165Y-25233D01*
X19256Y-25233D01*
X18940Y-24917D01*
X18940Y-18425D01*
X18924Y-18348D01*
X18924Y-18348D01*
X18910Y-18327D01*
X18881Y-18283D01*
X18881Y-18283D01*
X18456Y-17858D01*
X18417Y-17832D01*
X18381Y-17745D01*
X18255Y-17618D01*
X18089Y-17550D01*
X17910Y-17549D01*
X17745Y-17618D01*
X17618Y-17744D01*
X17550Y-17910D01*
X17549Y-18089D01*
X17618Y-18254D01*
X17744Y-18381D01*
X17910Y-18449D01*
X18089Y-18450D01*
X18254Y-18381D01*
X18334Y-18302D01*
X18540Y-18508D01*
X18540Y-25000D01*
X18555Y-25076D01*
X18598Y-25141D01*
X19031Y-25574D01*
X19031Y-25574D01*
X19075Y-25603D01*
X19096Y-25617D01*
X19096Y-25617D01*
X19173Y-25633D01*
X19173Y-25633D01*
X20907Y-25633D01*
X20907Y-25679D01*
X20907Y-25832D01*
X20969Y-25894D01*
X21198Y-25894D01*
X21198Y-25886D01*
X21263Y-25886D01*
X21263Y-26289D01*
X21281Y-26332D01*
X21281Y-26446D01*
X21343Y-26509D01*
X21371Y-26509D01*
X21463Y-26471D01*
X21525Y-26409D01*
X21608Y-26409D01*
X21623Y-26402D01*
X21639Y-26409D01*
X21699Y-26409D01*
X21864Y-26409D01*
X21879Y-26402D01*
X21895Y-26409D01*
X21955Y-26409D01*
X22120Y-26409D01*
X22135Y-26402D01*
X22151Y-26409D01*
X22211Y-26409D01*
X22376Y-26409D01*
X22391Y-26402D01*
X22407Y-26409D01*
X22467Y-26409D01*
X22632Y-26409D01*
X22647Y-26402D01*
X22663Y-26409D01*
X22723Y-26409D01*
X22888Y-26409D01*
X22943Y-26386D01*
X22985Y-26344D01*
X23008Y-26289D01*
X23008Y-26229D01*
X23008Y-26144D01*
X23066Y-26144D01*
X23303Y-26382D01*
X23303Y-26514D01*
X23277Y-26514D01*
X23222Y-26537D01*
X23179Y-26579D01*
X23157Y-26634D01*
X23157Y-26694D01*
X23157Y-27144D01*
X23179Y-27199D01*
X23222Y-27241D01*
X23277Y-27264D01*
X23293Y-27264D01*
X23293Y-27349D01*
X23267Y-27374D01*
X23218Y-27494D01*
X23218Y-27623D01*
X23267Y-27742D01*
X23358Y-27834D01*
X23478Y-27883D01*
X23514Y-27884D01*
X23720Y-28090D01*
X23801Y-28144D01*
X23866Y-28157D01*
X24153Y-28444D01*
X24235Y-28498D01*
X24330Y-28517D01*
X25461Y-28517D01*
X25474Y-28549D01*
X25516Y-28591D01*
X25571Y-28614D01*
X25631Y-28614D01*
X26081Y-28614D01*
X26136Y-28591D01*
X26178Y-28549D01*
X26201Y-28494D01*
X26201Y-28434D01*
X26201Y-28246D01*
X26210Y-28237D01*
X26210Y-28292D01*
X26259Y-28412D01*
X26351Y-28503D01*
X26470Y-28553D01*
X26599Y-28553D01*
X26716Y-28505D01*
X26734Y-28549D01*
X26776Y-28591D01*
X26831Y-28614D01*
X26891Y-28614D01*
X27194Y-28614D01*
X27194Y-28647D01*
X27196Y-28650D01*
X27136Y-28710D01*
X27136Y-29044D01*
X27499Y-29044D01*
X27561Y-28981D01*
X27561Y-28907D01*
X27584Y-28907D01*
X27703Y-28858D01*
X27795Y-28767D01*
X27844Y-28647D01*
X27844Y-28518D01*
X27795Y-28398D01*
X27704Y-28307D01*
X27584Y-28257D01*
X27548Y-28257D01*
X27461Y-28171D01*
X27461Y-28041D01*
X27438Y-27986D01*
X27396Y-27943D01*
X27341Y-27920D01*
X27281Y-27920D01*
X26831Y-27920D01*
X26776Y-27943D01*
X26743Y-27976D01*
X26719Y-27952D01*
X26600Y-27903D01*
X26471Y-27903D01*
X26375Y-27942D01*
X26375Y-27742D01*
X26746Y-27742D01*
X26801Y-27720D01*
X26843Y-27677D01*
X26866Y-27622D01*
X26866Y-27563D01*
X26866Y-26933D01*
X26843Y-26878D01*
X26801Y-26835D01*
X26746Y-26813D01*
X26686Y-26812D01*
X25505Y-26812D01*
X25450Y-26835D01*
X25408Y-26877D01*
X25403Y-26888D01*
X25403Y-26392D01*
X25354Y-26272D01*
X25328Y-26247D01*
X25328Y-25866D01*
X25328Y-25866D01*
X25328Y-25866D01*
X25324Y-25847D01*
X25309Y-25770D01*
X25309Y-25770D01*
X25255Y-25689D01*
X25255Y-25689D01*
X25088Y-25522D01*
X25088Y-25486D01*
X25039Y-25367D01*
X24948Y-25275D01*
X24828Y-25226D01*
X24699Y-25226D01*
X24579Y-25275D01*
X24488Y-25366D01*
X24438Y-25486D01*
X24438Y-25615D01*
X24488Y-25735D01*
X24570Y-25817D01*
X24474Y-25777D01*
X24345Y-25777D01*
X24225Y-25826D01*
X24134Y-25918D01*
X24084Y-26037D01*
X24084Y-26157D01*
X24067Y-26183D01*
X24051Y-26259D01*
X24051Y-26929D01*
X24067Y-27005D01*
X24110Y-27070D01*
X24451Y-27411D01*
X24409Y-27453D01*
X24360Y-27572D01*
X24359Y-27702D01*
X24409Y-27821D01*
X24500Y-27913D01*
X24620Y-27962D01*
X24749Y-27962D01*
X24868Y-27913D01*
X24960Y-27822D01*
X25009Y-27702D01*
X25010Y-27573D01*
X24960Y-27453D01*
X24885Y-27378D01*
X24885Y-27362D01*
X24885Y-27362D01*
X24869Y-27285D01*
X24869Y-27285D01*
X24855Y-27264D01*
X24826Y-27220D01*
X24826Y-27220D01*
X24451Y-26846D01*
X24451Y-26427D01*
X24473Y-26427D01*
X24593Y-26378D01*
X24684Y-26286D01*
X24734Y-26167D01*
X24734Y-26037D01*
X24685Y-25918D01*
X24603Y-25836D01*
X24698Y-25876D01*
X24735Y-25876D01*
X24828Y-25969D01*
X24828Y-26247D01*
X24803Y-26272D01*
X24753Y-26391D01*
X24753Y-26521D01*
X24803Y-26640D01*
X24894Y-26732D01*
X25013Y-26781D01*
X25143Y-26781D01*
X25262Y-26732D01*
X25354Y-26641D01*
X25403Y-26521D01*
X25403Y-26392D01*
X25403Y-26888D01*
X25385Y-26933D01*
X25385Y-26992D01*
X25385Y-27622D01*
X25408Y-27677D01*
X25450Y-27720D01*
X25505Y-27742D01*
X25565Y-27742D01*
X25875Y-27742D01*
X25875Y-27864D01*
X25820Y-27920D01*
X25572Y-27920D01*
X25516Y-27943D01*
X25474Y-27985D01*
X25461Y-28017D01*
X24434Y-28017D01*
X24153Y-27736D01*
X24072Y-27682D01*
X24018Y-27671D01*
X24018Y-25049D01*
X24018Y-24556D01*
X23980Y-24464D01*
X23910Y-24394D01*
X23818Y-24356D01*
X23718Y-24356D01*
X23655Y-24356D01*
X23593Y-24418D01*
X23593Y-24753D01*
X23955Y-24753D01*
X24018Y-24690D01*
X24018Y-24556D01*
X24018Y-25049D01*
X24018Y-24915D01*
X23955Y-24853D01*
X23593Y-24853D01*
X23593Y-25187D01*
X23655Y-25250D01*
X23718Y-25250D01*
X23818Y-25249D01*
X23910Y-25211D01*
X23980Y-25141D01*
X24018Y-25049D01*
X24018Y-27671D01*
X24007Y-27669D01*
X23868Y-27530D01*
X23868Y-27494D01*
X23818Y-27375D01*
X23793Y-27349D01*
X23793Y-27234D01*
X23827Y-27199D01*
X23850Y-27144D01*
X23850Y-27085D01*
X23850Y-26635D01*
X23828Y-26579D01*
X23785Y-26537D01*
X23730Y-26514D01*
X23703Y-26514D01*
X23703Y-26299D01*
X23691Y-26235D01*
X23688Y-26222D01*
X23688Y-26222D01*
X23645Y-26157D01*
X23493Y-26005D01*
X23493Y-25187D01*
X23493Y-24853D01*
X23493Y-24753D01*
X23493Y-24418D01*
X23430Y-24356D01*
X23367Y-24356D01*
X23268Y-24356D01*
X23176Y-24394D01*
X23106Y-24464D01*
X23068Y-24556D01*
X23068Y-24690D01*
X23130Y-24753D01*
X23493Y-24753D01*
X23493Y-24853D01*
X23130Y-24853D01*
X23068Y-24915D01*
X23068Y-25049D01*
X23106Y-25141D01*
X23176Y-25211D01*
X23268Y-25249D01*
X23367Y-25250D01*
X23430Y-25250D01*
X23493Y-25187D01*
X23493Y-26005D01*
X23290Y-25803D01*
X23225Y-25759D01*
X23149Y-25744D01*
X23008Y-25744D01*
X23008Y-25599D01*
X22985Y-25544D01*
X22943Y-25502D01*
X22888Y-25479D01*
X22828Y-25479D01*
X22719Y-25479D01*
X22719Y-25236D01*
X22707Y-25172D01*
X22704Y-25159D01*
X22704Y-25159D01*
X22661Y-25094D01*
X22437Y-24871D01*
X22506Y-24842D01*
X22598Y-24751D01*
X22647Y-24631D01*
X22647Y-24524D01*
X22661Y-24511D01*
X22661Y-24511D01*
X22690Y-24467D01*
X22704Y-24446D01*
X22704Y-24446D01*
X22719Y-24369D01*
X22719Y-24369D01*
X22719Y-24087D01*
X22723Y-24087D01*
X22888Y-24087D01*
X22937Y-24066D01*
X22988Y-24117D01*
X23053Y-24161D01*
X23053Y-24161D01*
X23129Y-24176D01*
X23168Y-24176D01*
X23168Y-24202D01*
X23191Y-24258D01*
X23233Y-24300D01*
X23288Y-24323D01*
X23348Y-24323D01*
X23798Y-24323D01*
X23853Y-24300D01*
X23895Y-24258D01*
X23908Y-24226D01*
X24109Y-24226D01*
X24438Y-24556D01*
X24438Y-24591D01*
X24488Y-24711D01*
X24579Y-24802D01*
X24698Y-24852D01*
X24828Y-24852D01*
X24947Y-24803D01*
X25039Y-24711D01*
X25088Y-24592D01*
X25088Y-24556D01*
X25221Y-24423D01*
X25461Y-24423D01*
X25474Y-24454D01*
X25516Y-24497D01*
X25571Y-24520D01*
X25631Y-24520D01*
X25820Y-24520D01*
X25875Y-24575D01*
X25875Y-24698D01*
X25505Y-24698D01*
X25450Y-24720D01*
X25408Y-24762D01*
X25385Y-24818D01*
X25385Y-24877D01*
X25385Y-25507D01*
X25408Y-25562D01*
X25450Y-25605D01*
X25505Y-25627D01*
X25565Y-25627D01*
X26746Y-25627D01*
X26801Y-25605D01*
X26843Y-25563D01*
X26866Y-25507D01*
X26866Y-25448D01*
X26866Y-24818D01*
X26843Y-24763D01*
X26826Y-24745D01*
X26876Y-24724D01*
X26925Y-24675D01*
X26925Y-25586D01*
X26728Y-25784D01*
X26401Y-25784D01*
X26326Y-25708D01*
X26206Y-25659D01*
X26077Y-25659D01*
X25957Y-25708D01*
X25866Y-25799D01*
X25816Y-25919D01*
X25816Y-26048D01*
X25866Y-26168D01*
X25957Y-26259D01*
X26076Y-26309D01*
X26206Y-26309D01*
X26325Y-26259D01*
X26401Y-26184D01*
X26722Y-26184D01*
X26722Y-26284D01*
X26771Y-26404D01*
X26862Y-26495D01*
X26982Y-26545D01*
X27111Y-26545D01*
X27231Y-26496D01*
X27322Y-26404D01*
X27372Y-26285D01*
X27372Y-26178D01*
X27466Y-26084D01*
X27466Y-26107D01*
X27529Y-26170D01*
X28491Y-26170D01*
X28491Y-25082D01*
X28429Y-25020D01*
X27766Y-25020D01*
X27666Y-25020D01*
X27574Y-25058D01*
X27562Y-25071D01*
X27562Y-23425D01*
X27546Y-23348D01*
X27546Y-23348D01*
X27503Y-23283D01*
X27421Y-23202D01*
X27443Y-23216D01*
X27443Y-23216D01*
X27519Y-23231D01*
X27645Y-23231D01*
X27645Y-23286D01*
X27668Y-23341D01*
X27710Y-23383D01*
X27765Y-23406D01*
X27824Y-23406D01*
X28218Y-23406D01*
X28273Y-23383D01*
X28316Y-23341D01*
X28338Y-23286D01*
X28339Y-23226D01*
X28339Y-22776D01*
X28316Y-22721D01*
X28274Y-22679D01*
X28218Y-22656D01*
X28159Y-22656D01*
X27765Y-22656D01*
X27710Y-22679D01*
X27668Y-22721D01*
X27645Y-22776D01*
X27645Y-22831D01*
X27602Y-22831D01*
X27450Y-22679D01*
X27451Y-22573D01*
X27401Y-22453D01*
X27310Y-22362D01*
X27190Y-22312D01*
X27061Y-22312D01*
X26999Y-22338D01*
X27083Y-22254D01*
X27190Y-22254D01*
X27309Y-22204D01*
X27401Y-22113D01*
X27411Y-22089D01*
X27645Y-22089D01*
X27645Y-22144D01*
X27668Y-22199D01*
X27710Y-22241D01*
X27765Y-22264D01*
X27824Y-22264D01*
X28218Y-22264D01*
X28273Y-22242D01*
X28316Y-22199D01*
X28338Y-22144D01*
X28339Y-22085D01*
X28339Y-21635D01*
X28316Y-21579D01*
X28274Y-21537D01*
X28218Y-21514D01*
X28159Y-21514D01*
X27765Y-21514D01*
X27710Y-21537D01*
X27668Y-21579D01*
X27645Y-21634D01*
X27645Y-21689D01*
X27346Y-21689D01*
X27329Y-21673D01*
X27391Y-21611D01*
X27438Y-21602D01*
X27503Y-21558D01*
X27779Y-21283D01*
X27779Y-21283D01*
X27808Y-21239D01*
X27822Y-21218D01*
X27822Y-21218D01*
X27837Y-21141D01*
X27837Y-21141D01*
X27837Y-21123D01*
X28218Y-21123D01*
X28273Y-21100D01*
X28316Y-21058D01*
X28338Y-21002D01*
X28339Y-20943D01*
X28339Y-20493D01*
X28316Y-20438D01*
X28274Y-20395D01*
X28218Y-20373D01*
X28159Y-20373D01*
X27765Y-20373D01*
X27710Y-20395D01*
X27668Y-20437D01*
X27645Y-20493D01*
X27645Y-20552D01*
X27645Y-20615D01*
X27496Y-20764D01*
X27453Y-20828D01*
X27450Y-20839D01*
X27451Y-20723D01*
X27401Y-20603D01*
X27325Y-20527D01*
X27325Y-20004D01*
X27405Y-19924D01*
X27645Y-19924D01*
X27645Y-19979D01*
X27668Y-20034D01*
X27710Y-20076D01*
X27765Y-20099D01*
X27824Y-20099D01*
X28218Y-20099D01*
X28273Y-20076D01*
X28316Y-20034D01*
X28338Y-19979D01*
X28339Y-19919D01*
X28339Y-19469D01*
X28316Y-19414D01*
X28274Y-19372D01*
X28218Y-19349D01*
X28159Y-19349D01*
X27765Y-19349D01*
X27710Y-19372D01*
X27668Y-19414D01*
X27645Y-19469D01*
X27645Y-19524D01*
X27322Y-19524D01*
X27246Y-19539D01*
X27224Y-19554D01*
X27181Y-19582D01*
X26984Y-19779D01*
X26941Y-19844D01*
X26925Y-19921D01*
X26925Y-20527D01*
X26850Y-20603D01*
X26801Y-20722D01*
X26800Y-20829D01*
X26157Y-21472D01*
X26114Y-21537D01*
X26099Y-21614D01*
X26099Y-22899D01*
X26002Y-22899D01*
X25939Y-22899D01*
X25876Y-22962D01*
X25876Y-22949D01*
X25928Y-22897D01*
X25972Y-22832D01*
X25972Y-22832D01*
X25987Y-22755D01*
X25987Y-21539D01*
X26637Y-20889D01*
X26637Y-20889D01*
X26680Y-20824D01*
X26680Y-20824D01*
X26683Y-20811D01*
X26696Y-20748D01*
X26696Y-20748D01*
X26696Y-19885D01*
X27031Y-19550D01*
X27031Y-19550D01*
X27040Y-19537D01*
X27072Y-19537D01*
X27191Y-19488D01*
X27283Y-19396D01*
X27332Y-19277D01*
X27332Y-19148D01*
X27283Y-19028D01*
X27234Y-18979D01*
X29029Y-18979D01*
X29055Y-19042D01*
X29146Y-19133D01*
X29265Y-19183D01*
X29395Y-19183D01*
X29514Y-19133D01*
X29606Y-19042D01*
X29655Y-18923D01*
X29655Y-18793D01*
X29606Y-18674D01*
X29564Y-18632D01*
X30062Y-18133D01*
X30062Y-18133D01*
X30091Y-18090D01*
X30106Y-18068D01*
X30106Y-18068D01*
X30121Y-17992D01*
X30121Y-17992D01*
X30121Y-17818D01*
X30154Y-17785D01*
X30154Y-18381D01*
X29937Y-18598D01*
X29893Y-18663D01*
X29878Y-18740D01*
X29878Y-23499D01*
X29779Y-23598D01*
X29736Y-23663D01*
X29734Y-23673D01*
X29734Y-23360D01*
X29685Y-23241D01*
X29593Y-23149D01*
X29474Y-23100D01*
X29345Y-23100D01*
X29225Y-23149D01*
X29222Y-23152D01*
X29165Y-23095D01*
X29165Y-22776D01*
X29142Y-22721D01*
X29100Y-22679D01*
X29045Y-22656D01*
X29018Y-22656D01*
X29018Y-22264D01*
X29045Y-22264D01*
X29100Y-22242D01*
X29142Y-22199D01*
X29165Y-22144D01*
X29165Y-22085D01*
X29165Y-21635D01*
X29142Y-21579D01*
X29100Y-21537D01*
X29045Y-21514D01*
X29018Y-21514D01*
X29018Y-21123D01*
X29045Y-21123D01*
X29100Y-21100D01*
X29142Y-21058D01*
X29165Y-21002D01*
X29165Y-20943D01*
X29165Y-20493D01*
X29142Y-20438D01*
X29100Y-20395D01*
X29045Y-20373D01*
X29018Y-20373D01*
X29018Y-20099D01*
X29045Y-20099D01*
X29100Y-20076D01*
X29142Y-20034D01*
X29165Y-19979D01*
X29165Y-19919D01*
X29165Y-19469D01*
X29142Y-19414D01*
X29100Y-19372D01*
X29045Y-19349D01*
X28986Y-19349D01*
X28592Y-19349D01*
X28537Y-19372D01*
X28494Y-19414D01*
X28472Y-19469D01*
X28472Y-19529D01*
X28472Y-19979D01*
X28494Y-20034D01*
X28536Y-20076D01*
X28592Y-20099D01*
X28618Y-20099D01*
X28618Y-20373D01*
X28592Y-20373D01*
X28537Y-20395D01*
X28494Y-20437D01*
X28472Y-20493D01*
X28472Y-20552D01*
X28472Y-21002D01*
X28494Y-21057D01*
X28536Y-21100D01*
X28592Y-21123D01*
X28618Y-21123D01*
X28618Y-21514D01*
X28592Y-21514D01*
X28537Y-21537D01*
X28494Y-21579D01*
X28472Y-21634D01*
X28472Y-21694D01*
X28472Y-22144D01*
X28494Y-22199D01*
X28536Y-22241D01*
X28592Y-22264D01*
X28618Y-22264D01*
X28618Y-22656D01*
X28592Y-22656D01*
X28537Y-22679D01*
X28494Y-22721D01*
X28472Y-22776D01*
X28472Y-22836D01*
X28472Y-23286D01*
X28494Y-23341D01*
X28536Y-23383D01*
X28592Y-23406D01*
X28651Y-23406D01*
X28911Y-23406D01*
X29071Y-23566D01*
X29071Y-23566D01*
X29114Y-23595D01*
X29133Y-23608D01*
X29133Y-23609D01*
X29225Y-23700D01*
X29344Y-23750D01*
X29473Y-23750D01*
X29593Y-23700D01*
X29684Y-23609D01*
X29734Y-23490D01*
X29734Y-23360D01*
X29734Y-23673D01*
X29721Y-23740D01*
X29721Y-23858D01*
X29721Y-25212D01*
X29645Y-25288D01*
X29616Y-25358D01*
X29616Y-25220D01*
X29578Y-25129D01*
X29508Y-25058D01*
X29416Y-25020D01*
X29317Y-25020D01*
X28654Y-25020D01*
X28591Y-25082D01*
X28591Y-26170D01*
X29554Y-26170D01*
X29616Y-26107D01*
X29616Y-25586D01*
X29645Y-25656D01*
X29736Y-25747D01*
X29856Y-25797D01*
X29985Y-25797D01*
X30105Y-25748D01*
X30196Y-25656D01*
X30246Y-25537D01*
X30246Y-25408D01*
X30196Y-25288D01*
X30121Y-25212D01*
X30121Y-23858D01*
X30121Y-23823D01*
X30220Y-23724D01*
X30220Y-23724D01*
X30229Y-23710D01*
X30236Y-23727D01*
X30311Y-23802D01*
X30311Y-25511D01*
X30327Y-25588D01*
X30370Y-25653D01*
X30451Y-25734D01*
X30433Y-25734D01*
X30337Y-25753D01*
X30256Y-25807D01*
X30256Y-25807D01*
X29862Y-26201D01*
X29808Y-26282D01*
X29789Y-26377D01*
X29789Y-27782D01*
X29764Y-27807D01*
X29714Y-27927D01*
X29714Y-28056D01*
X29763Y-28175D01*
X29855Y-28267D01*
X29974Y-28317D01*
X30103Y-28317D01*
X30223Y-28267D01*
X30314Y-28176D01*
X30364Y-28057D01*
X30364Y-27927D01*
X30315Y-27808D01*
X30289Y-27782D01*
X30289Y-26481D01*
X30536Y-26234D01*
X30609Y-26234D01*
X30618Y-26254D01*
X30744Y-26381D01*
X30910Y-26449D01*
X31089Y-26450D01*
X31254Y-26381D01*
X31381Y-26255D01*
X31449Y-26089D01*
X31450Y-25910D01*
X31450Y-31326D01*
X31450Y-31326D01*
X31450Y-27270D01*
X31450Y-26670D01*
X31427Y-26615D01*
X31385Y-26572D01*
X31329Y-26550D01*
X31270Y-26549D01*
X30670Y-26549D01*
X30615Y-26572D01*
X30572Y-26614D01*
X30550Y-26670D01*
X30549Y-26729D01*
X30549Y-27329D01*
X30572Y-27384D01*
X30614Y-27427D01*
X30670Y-27449D01*
X30729Y-27450D01*
X30800Y-27450D01*
X30800Y-28129D01*
X30468Y-28461D01*
X29616Y-28461D01*
X29616Y-27219D01*
X29616Y-26332D01*
X29554Y-26270D01*
X28591Y-26270D01*
X28591Y-27357D01*
X28654Y-27420D01*
X29317Y-27420D01*
X29416Y-27420D01*
X29508Y-27382D01*
X29578Y-27311D01*
X29616Y-27219D01*
X29616Y-28461D01*
X29409Y-28461D01*
X29345Y-28474D01*
X29332Y-28476D01*
X29268Y-28519D01*
X28979Y-28808D01*
X28872Y-28808D01*
X28753Y-28858D01*
X28661Y-28949D01*
X28612Y-29068D01*
X28611Y-29198D01*
X28661Y-29317D01*
X28752Y-29409D01*
X28872Y-29458D01*
X29001Y-29458D01*
X29120Y-29409D01*
X29212Y-29318D01*
X29261Y-29198D01*
X29262Y-29091D01*
X29492Y-28861D01*
X30551Y-28861D01*
X30627Y-28846D01*
X30692Y-28802D01*
X31141Y-28354D01*
X31141Y-28354D01*
X31170Y-28310D01*
X31184Y-28289D01*
X31184Y-28289D01*
X31199Y-28212D01*
X31200Y-28212D01*
X31200Y-27450D01*
X31329Y-27450D01*
X31384Y-27427D01*
X31427Y-27385D01*
X31449Y-27329D01*
X31450Y-27270D01*
X31450Y-31326D01*
X29921Y-31326D01*
X28491Y-31326D01*
X28491Y-27357D01*
X28491Y-26270D01*
X27529Y-26270D01*
X27466Y-26332D01*
X27466Y-27219D01*
X27504Y-27311D01*
X27574Y-27382D01*
X27666Y-27420D01*
X27766Y-27420D01*
X28429Y-27420D01*
X28491Y-27357D01*
X28491Y-31326D01*
X27561Y-31326D01*
X27561Y-29340D01*
X27561Y-29206D01*
X27499Y-29144D01*
X27136Y-29144D01*
X27136Y-29478D01*
X27199Y-29541D01*
X27262Y-29541D01*
X27361Y-29541D01*
X27453Y-29503D01*
X27523Y-29432D01*
X27561Y-29340D01*
X27561Y-31326D01*
X27036Y-31326D01*
X27036Y-29478D01*
X27036Y-29144D01*
X27036Y-29044D01*
X27036Y-28710D01*
X26974Y-28647D01*
X26911Y-28647D01*
X26811Y-28647D01*
X26719Y-28685D01*
X26649Y-28756D01*
X26611Y-28848D01*
X26611Y-28981D01*
X26674Y-29044D01*
X27036Y-29044D01*
X27036Y-29144D01*
X26674Y-29144D01*
X26611Y-29206D01*
X26611Y-29340D01*
X26649Y-29432D01*
X26719Y-29503D01*
X26811Y-29541D01*
X26911Y-29541D01*
X26974Y-29541D01*
X27036Y-29478D01*
X27036Y-31326D01*
X26301Y-31326D01*
X26301Y-29340D01*
X26301Y-28848D01*
X26263Y-28756D01*
X26193Y-28685D01*
X26101Y-28647D01*
X26002Y-28647D01*
X25939Y-28647D01*
X25876Y-28710D01*
X25876Y-29044D01*
X26239Y-29044D01*
X26301Y-28981D01*
X26301Y-28848D01*
X26301Y-29340D01*
X26301Y-29206D01*
X26239Y-29144D01*
X25876Y-29144D01*
X25876Y-29478D01*
X25939Y-29541D01*
X26002Y-29541D01*
X26101Y-29541D01*
X26193Y-29503D01*
X26263Y-29432D01*
X26301Y-29340D01*
X26301Y-31326D01*
X25776Y-31326D01*
X25776Y-29478D01*
X25776Y-29144D01*
X25768Y-29144D01*
X25768Y-29044D01*
X25776Y-29044D01*
X25776Y-28710D01*
X25714Y-28647D01*
X25651Y-28647D01*
X25551Y-28647D01*
X25459Y-28685D01*
X25449Y-28696D01*
X25340Y-28651D01*
X25211Y-28651D01*
X25091Y-28700D01*
X25000Y-28792D01*
X24950Y-28911D01*
X24950Y-28933D01*
X24374Y-28933D01*
X24301Y-28861D01*
X24301Y-28754D01*
X24252Y-28635D01*
X24160Y-28543D01*
X24041Y-28493D01*
X23912Y-28493D01*
X23792Y-28543D01*
X23701Y-28634D01*
X23651Y-28753D01*
X23651Y-28883D01*
X23700Y-29002D01*
X23792Y-29094D01*
X23911Y-29143D01*
X24018Y-29143D01*
X24149Y-29275D01*
X24149Y-29275D01*
X24214Y-29318D01*
X24214Y-29318D01*
X24227Y-29321D01*
X24291Y-29333D01*
X25118Y-29333D01*
X25194Y-29318D01*
X25220Y-29301D01*
X25339Y-29301D01*
X25351Y-29296D01*
X25351Y-29340D01*
X25389Y-29432D01*
X25459Y-29503D01*
X25551Y-29541D01*
X25651Y-29541D01*
X25714Y-29541D01*
X25776Y-29478D01*
X25776Y-31326D01*
X23124Y-31326D01*
X23124Y-27065D01*
X23124Y-26714D01*
X23123Y-26614D01*
X23085Y-26522D01*
X23015Y-26452D01*
X22923Y-26414D01*
X22789Y-26414D01*
X22727Y-26477D01*
X22727Y-26839D01*
X23061Y-26839D01*
X23124Y-26777D01*
X23124Y-26714D01*
X23124Y-27065D01*
X23124Y-27002D01*
X23061Y-26939D01*
X22727Y-26939D01*
X22727Y-27302D01*
X22789Y-27364D01*
X22923Y-27364D01*
X23015Y-27326D01*
X23085Y-27256D01*
X23123Y-27164D01*
X23124Y-27065D01*
X23124Y-31326D01*
X22805Y-31326D01*
X22805Y-28754D01*
X22755Y-28635D01*
X22664Y-28543D01*
X22627Y-28527D01*
X22627Y-27302D01*
X22627Y-26939D01*
X22619Y-26939D01*
X22619Y-26839D01*
X22627Y-26839D01*
X22627Y-26477D01*
X22564Y-26414D01*
X22430Y-26414D01*
X22338Y-26452D01*
X22268Y-26522D01*
X22253Y-26558D01*
X22231Y-26535D01*
X22112Y-26486D01*
X21982Y-26485D01*
X21863Y-26535D01*
X21787Y-26611D01*
X21772Y-26611D01*
X21766Y-26605D01*
X21711Y-26582D01*
X21651Y-26582D01*
X21201Y-26582D01*
X21198Y-26583D01*
X21198Y-26446D01*
X21198Y-25994D01*
X20969Y-25994D01*
X20907Y-26057D01*
X20907Y-26209D01*
X20907Y-26309D01*
X20945Y-26401D01*
X21015Y-26471D01*
X21107Y-26509D01*
X21136Y-26509D01*
X21198Y-26446D01*
X21198Y-26583D01*
X21146Y-26605D01*
X21104Y-26647D01*
X21081Y-26702D01*
X21081Y-26761D01*
X21081Y-27155D01*
X21104Y-27210D01*
X21146Y-27253D01*
X21201Y-27275D01*
X21261Y-27276D01*
X21711Y-27276D01*
X21766Y-27253D01*
X21808Y-27211D01*
X21831Y-27155D01*
X21831Y-27096D01*
X21831Y-27055D01*
X21862Y-27086D01*
X21982Y-27135D01*
X22111Y-27136D01*
X22230Y-27087D01*
X22230Y-27164D01*
X22268Y-27256D01*
X22338Y-27326D01*
X22430Y-27364D01*
X22564Y-27364D01*
X22627Y-27302D01*
X22627Y-28527D01*
X22545Y-28493D01*
X22415Y-28493D01*
X22296Y-28543D01*
X22220Y-28618D01*
X21933Y-28618D01*
X21656Y-28342D01*
X21656Y-28102D01*
X21711Y-28102D01*
X21766Y-28079D01*
X21808Y-28037D01*
X21831Y-27982D01*
X21831Y-27923D01*
X21831Y-27529D01*
X21808Y-27474D01*
X21766Y-27431D01*
X21711Y-27409D01*
X21651Y-27409D01*
X21201Y-27409D01*
X21146Y-27431D01*
X21104Y-27473D01*
X21081Y-27529D01*
X21081Y-27588D01*
X21081Y-27982D01*
X21104Y-28037D01*
X21146Y-28079D01*
X21201Y-28102D01*
X21256Y-28102D01*
X21256Y-28425D01*
X21271Y-28501D01*
X21315Y-28566D01*
X21708Y-28960D01*
X21708Y-28960D01*
X21752Y-28989D01*
X21773Y-29003D01*
X21773Y-29003D01*
X21850Y-29018D01*
X22220Y-29018D01*
X22295Y-29094D01*
X22415Y-29143D01*
X22544Y-29143D01*
X22664Y-29094D01*
X22755Y-29003D01*
X22805Y-28883D01*
X22805Y-28754D01*
X22805Y-31326D01*
X18450Y-31326D01*
X18450Y-26910D01*
X18450Y-25910D01*
X18450Y-24910D01*
X18450Y-23910D01*
X18450Y-22910D01*
X18450Y-21910D01*
X18450Y-20910D01*
X18450Y-19910D01*
X18450Y-18910D01*
X18381Y-18745D01*
X18255Y-18618D01*
X18089Y-18550D01*
X17910Y-18549D01*
X17745Y-18618D01*
X17618Y-18744D01*
X17550Y-18910D01*
X17549Y-19089D01*
X17618Y-19254D01*
X17744Y-19381D01*
X17910Y-19449D01*
X18089Y-19450D01*
X18254Y-19381D01*
X18381Y-19255D01*
X18449Y-19089D01*
X18450Y-18910D01*
X18450Y-19910D01*
X18381Y-19745D01*
X18255Y-19618D01*
X18089Y-19550D01*
X17910Y-19549D01*
X17745Y-19618D01*
X17618Y-19744D01*
X17550Y-19910D01*
X17549Y-20089D01*
X17618Y-20254D01*
X17744Y-20381D01*
X17910Y-20449D01*
X18089Y-20450D01*
X18254Y-20381D01*
X18381Y-20255D01*
X18449Y-20089D01*
X18450Y-19910D01*
X18450Y-20910D01*
X18381Y-20745D01*
X18255Y-20618D01*
X18089Y-20550D01*
X17910Y-20549D01*
X17745Y-20618D01*
X17618Y-20744D01*
X17550Y-20910D01*
X17549Y-21089D01*
X17618Y-21254D01*
X17744Y-21381D01*
X17910Y-21449D01*
X18089Y-21450D01*
X18254Y-21381D01*
X18381Y-21255D01*
X18449Y-21089D01*
X18450Y-20910D01*
X18450Y-21910D01*
X18381Y-21745D01*
X18255Y-21618D01*
X18089Y-21550D01*
X17910Y-21549D01*
X17745Y-21618D01*
X17618Y-21744D01*
X17550Y-21910D01*
X17549Y-22089D01*
X17618Y-22254D01*
X17744Y-22381D01*
X17910Y-22449D01*
X18089Y-22450D01*
X18254Y-22381D01*
X18381Y-22255D01*
X18449Y-22089D01*
X18450Y-21910D01*
X18450Y-22910D01*
X18381Y-22745D01*
X18255Y-22618D01*
X18089Y-22550D01*
X17910Y-22549D01*
X17745Y-22618D01*
X17618Y-22744D01*
X17550Y-22910D01*
X17549Y-23089D01*
X17618Y-23254D01*
X17744Y-23381D01*
X17910Y-23449D01*
X18089Y-23450D01*
X18254Y-23381D01*
X18381Y-23255D01*
X18449Y-23089D01*
X18450Y-22910D01*
X18450Y-23910D01*
X18381Y-23745D01*
X18255Y-23618D01*
X18089Y-23550D01*
X17910Y-23549D01*
X17745Y-23618D01*
X17618Y-23744D01*
X17550Y-23910D01*
X17549Y-24089D01*
X17618Y-24254D01*
X17744Y-24381D01*
X17910Y-24449D01*
X18089Y-24450D01*
X18254Y-24381D01*
X18381Y-24255D01*
X18449Y-24089D01*
X18450Y-23910D01*
X18450Y-24910D01*
X18381Y-24745D01*
X18255Y-24618D01*
X18089Y-24550D01*
X17910Y-24549D01*
X17745Y-24618D01*
X17618Y-24744D01*
X17550Y-24910D01*
X17549Y-25089D01*
X17618Y-25254D01*
X17744Y-25381D01*
X17910Y-25449D01*
X18089Y-25450D01*
X18254Y-25381D01*
X18381Y-25255D01*
X18449Y-25089D01*
X18450Y-24910D01*
X18450Y-25910D01*
X18381Y-25745D01*
X18255Y-25618D01*
X18089Y-25550D01*
X17910Y-25549D01*
X17745Y-25618D01*
X17618Y-25744D01*
X17550Y-25910D01*
X17549Y-26089D01*
X17618Y-26254D01*
X17744Y-26381D01*
X17910Y-26449D01*
X18089Y-26450D01*
X18254Y-26381D01*
X18381Y-26255D01*
X18449Y-26089D01*
X18450Y-25910D01*
X18450Y-26910D01*
X18381Y-26745D01*
X18255Y-26618D01*
X18089Y-26550D01*
X17910Y-26549D01*
X17745Y-26618D01*
X17618Y-26744D01*
X17550Y-26910D01*
X17549Y-27089D01*
X17618Y-27254D01*
X17744Y-27381D01*
X17910Y-27449D01*
X18089Y-27450D01*
X18254Y-27381D01*
X18381Y-27255D01*
X18449Y-27089D01*
X18450Y-26910D01*
X18450Y-31326D01*
X18110Y-31326D01*
X17492Y-31326D01*
X17492Y-16224D01*
X17518Y-16287D01*
X17614Y-16315D01*
X17929Y-16000D01*
X17614Y-15684D01*
X17518Y-15712D01*
X17492Y-15785D01*
X17492Y-11980D01*
X18110Y-11980D01*
X29921Y-11980D01*
X31720Y-11980D01*
X31720Y-31326D01*
X31720Y-31326D01*
G37*
G54D20*
X31720Y-31326D02*
X31554Y-31326D01*
X31554Y-14081D01*
X31543Y-13863D01*
X31481Y-13712D01*
X31385Y-13684D01*
X31070Y-14000D01*
X31385Y-14315D01*
X31481Y-14287D01*
X31554Y-14081D01*
X31554Y-31326D01*
X31450Y-31326D01*
X31450Y-25910D01*
X31381Y-25745D01*
X31255Y-25618D01*
X31089Y-25550D01*
X30910Y-25549D01*
X30855Y-25572D01*
X30711Y-25428D01*
X30711Y-25348D01*
X30744Y-25381D01*
X30910Y-25449D01*
X31089Y-25450D01*
X31254Y-25381D01*
X31381Y-25255D01*
X31449Y-25089D01*
X31450Y-24910D01*
X31381Y-24745D01*
X31255Y-24618D01*
X31089Y-24550D01*
X30910Y-24549D01*
X30745Y-24618D01*
X30711Y-24651D01*
X30711Y-24348D01*
X30744Y-24381D01*
X30910Y-24449D01*
X31089Y-24450D01*
X31254Y-24381D01*
X31381Y-24255D01*
X31449Y-24089D01*
X31450Y-23910D01*
X31381Y-23745D01*
X31255Y-23618D01*
X31089Y-23550D01*
X30910Y-23549D01*
X30836Y-23580D01*
X30836Y-23478D01*
X30807Y-23407D01*
X30910Y-23449D01*
X31089Y-23450D01*
X31254Y-23381D01*
X31381Y-23255D01*
X31449Y-23089D01*
X31450Y-22910D01*
X31450Y-21910D01*
X31450Y-20910D01*
X31450Y-19910D01*
X31450Y-18910D01*
X31381Y-18745D01*
X31255Y-18618D01*
X31089Y-18550D01*
X30910Y-18549D01*
X30745Y-18618D01*
X30618Y-18744D01*
X30550Y-18910D01*
X30549Y-19089D01*
X30618Y-19254D01*
X30744Y-19381D01*
X30910Y-19449D01*
X31089Y-19450D01*
X31254Y-19381D01*
X31381Y-19255D01*
X31449Y-19089D01*
X31450Y-18910D01*
X31450Y-19910D01*
X31381Y-19745D01*
X31255Y-19618D01*
X31089Y-19550D01*
X30910Y-19549D01*
X30745Y-19618D01*
X30618Y-19744D01*
X30550Y-19910D01*
X30549Y-20089D01*
X30618Y-20254D01*
X30744Y-20381D01*
X30910Y-20449D01*
X31089Y-20450D01*
X31254Y-20381D01*
X31381Y-20255D01*
X31449Y-20089D01*
X31450Y-19910D01*
X31450Y-20910D01*
X31381Y-20745D01*
X31255Y-20618D01*
X31089Y-20550D01*
X30910Y-20549D01*
X30745Y-20618D01*
X30618Y-20744D01*
X30550Y-20910D01*
X30549Y-21089D01*
X30618Y-21254D01*
X30744Y-21381D01*
X30910Y-21449D01*
X31089Y-21450D01*
X31254Y-21381D01*
X31381Y-21255D01*
X31449Y-21089D01*
X31450Y-20910D01*
X31450Y-21910D01*
X31381Y-21745D01*
X31255Y-21618D01*
X31089Y-21550D01*
X30910Y-21549D01*
X30745Y-21618D01*
X30618Y-21744D01*
X30550Y-21910D01*
X30549Y-22089D01*
X30618Y-22254D01*
X30744Y-22381D01*
X30910Y-22449D01*
X31089Y-22450D01*
X31254Y-22381D01*
X31381Y-22255D01*
X31449Y-22089D01*
X31450Y-21910D01*
X31450Y-22910D01*
X31381Y-22745D01*
X31255Y-22618D01*
X31089Y-22550D01*
X30910Y-22549D01*
X30745Y-22618D01*
X30618Y-22744D01*
X30550Y-22910D01*
X30549Y-23089D01*
X30608Y-23231D01*
X30576Y-23218D01*
X30447Y-23218D01*
X30327Y-23267D01*
X30278Y-23316D01*
X30278Y-18823D01*
X30495Y-18605D01*
X30495Y-18605D01*
X30524Y-18562D01*
X30539Y-18541D01*
X30539Y-18541D01*
X30554Y-18464D01*
X30554Y-18464D01*
X30554Y-18099D01*
X30618Y-18254D01*
X30744Y-18381D01*
X30910Y-18449D01*
X31089Y-18450D01*
X31254Y-18381D01*
X31381Y-18255D01*
X31449Y-18089D01*
X31450Y-17910D01*
X31381Y-17745D01*
X31255Y-17618D01*
X31089Y-17550D01*
X30910Y-17549D01*
X30745Y-17618D01*
X30618Y-17744D01*
X30554Y-17899D01*
X30554Y-17099D01*
X30618Y-17254D01*
X30744Y-17381D01*
X30910Y-17449D01*
X31089Y-17450D01*
X31254Y-17381D01*
X31381Y-17255D01*
X31449Y-17089D01*
X31450Y-16910D01*
X31381Y-16745D01*
X31255Y-16618D01*
X31089Y-16550D01*
X30910Y-16549D01*
X30745Y-16618D01*
X30618Y-16744D01*
X30554Y-16899D01*
X30554Y-16692D01*
X30539Y-16616D01*
X30539Y-16616D01*
X30524Y-16594D01*
X30495Y-16551D01*
X30495Y-16551D01*
X30160Y-16216D01*
X30160Y-15935D01*
X30169Y-15944D01*
X30289Y-15994D01*
X30325Y-15994D01*
X30508Y-16176D01*
X30589Y-16230D01*
X30589Y-16230D01*
X30610Y-16235D01*
X30618Y-16254D01*
X30744Y-16381D01*
X30910Y-16449D01*
X31089Y-16450D01*
X31254Y-16381D01*
X31381Y-16255D01*
X31449Y-16089D01*
X31450Y-15910D01*
X31381Y-15745D01*
X31255Y-15618D01*
X31089Y-15550D01*
X30910Y-15549D01*
X30745Y-15618D01*
X30701Y-15662D01*
X30679Y-15640D01*
X30679Y-15604D01*
X30630Y-15485D01*
X30604Y-15459D01*
X30604Y-15220D01*
X30618Y-15254D01*
X30744Y-15381D01*
X30910Y-15449D01*
X31089Y-15450D01*
X31254Y-15381D01*
X31381Y-15255D01*
X31449Y-15089D01*
X31450Y-14910D01*
X31381Y-14745D01*
X31255Y-14618D01*
X31089Y-14550D01*
X31013Y-14550D01*
X31136Y-14543D01*
X31287Y-14481D01*
X31315Y-14385D01*
X31000Y-14070D01*
X30994Y-14076D01*
X30923Y-14005D01*
X30929Y-14000D01*
X30923Y-13994D01*
X30994Y-13923D01*
X31000Y-13929D01*
X31315Y-13614D01*
X31287Y-13518D01*
X31092Y-13448D01*
X31254Y-13381D01*
X31381Y-13255D01*
X31449Y-13089D01*
X31450Y-12910D01*
X31381Y-12745D01*
X31255Y-12618D01*
X31089Y-12550D01*
X30910Y-12549D01*
X30745Y-12618D01*
X30618Y-12744D01*
X30595Y-12800D01*
X30150Y-12800D01*
X30150Y-12698D01*
X30127Y-12642D01*
X30085Y-12600D01*
X30029Y-12577D01*
X29970Y-12577D01*
X29576Y-12577D01*
X29521Y-12600D01*
X29479Y-12642D01*
X29456Y-12697D01*
X29456Y-12757D01*
X29456Y-13207D01*
X29479Y-13262D01*
X29521Y-13304D01*
X29576Y-13327D01*
X29636Y-13327D01*
X30029Y-13327D01*
X30084Y-13304D01*
X30127Y-13262D01*
X30149Y-13207D01*
X30149Y-13200D01*
X30446Y-13200D01*
X30177Y-13468D01*
X30123Y-13549D01*
X30111Y-13611D01*
X30085Y-13584D01*
X30029Y-13562D01*
X29970Y-13561D01*
X29576Y-13561D01*
X29521Y-13584D01*
X29479Y-13626D01*
X29456Y-13682D01*
X29456Y-13741D01*
X29456Y-14191D01*
X29479Y-14246D01*
X29521Y-14289D01*
X29576Y-14311D01*
X29636Y-14312D01*
X29760Y-14312D01*
X29760Y-15107D01*
X29603Y-14950D01*
X29684Y-14869D01*
X29734Y-14749D01*
X29734Y-14620D01*
X29685Y-14501D01*
X29593Y-14409D01*
X29474Y-14360D01*
X29345Y-14359D01*
X29323Y-14369D01*
X29323Y-14132D01*
X29323Y-13682D01*
X29323Y-13148D01*
X29323Y-12698D01*
X29300Y-12642D01*
X29258Y-12600D01*
X29203Y-12577D01*
X29143Y-12577D01*
X28749Y-12577D01*
X28694Y-12600D01*
X28652Y-12642D01*
X28629Y-12697D01*
X28629Y-12708D01*
X28529Y-12667D01*
X28400Y-12667D01*
X28280Y-12716D01*
X28189Y-12807D01*
X28139Y-12927D01*
X28139Y-13056D01*
X28188Y-13175D01*
X28280Y-13267D01*
X28399Y-13317D01*
X28528Y-13317D01*
X28648Y-13267D01*
X28652Y-13263D01*
X28694Y-13304D01*
X28749Y-13327D01*
X28809Y-13327D01*
X29202Y-13327D01*
X29258Y-13304D01*
X29300Y-13262D01*
X29323Y-13207D01*
X29323Y-13148D01*
X29323Y-13682D01*
X29300Y-13627D01*
X29258Y-13584D01*
X29203Y-13562D01*
X29143Y-13561D01*
X28749Y-13561D01*
X28694Y-13584D01*
X28652Y-13626D01*
X28645Y-13643D01*
X28568Y-13612D01*
X28439Y-13611D01*
X28320Y-13661D01*
X28228Y-13752D01*
X28178Y-13872D01*
X28178Y-14001D01*
X28228Y-14120D01*
X28319Y-14212D01*
X28439Y-14261D01*
X28568Y-14262D01*
X28645Y-14230D01*
X28652Y-14246D01*
X28694Y-14289D01*
X28749Y-14311D01*
X28809Y-14312D01*
X29202Y-14312D01*
X29258Y-14289D01*
X29300Y-14247D01*
X29323Y-14191D01*
X29323Y-14132D01*
X29323Y-14369D01*
X29316Y-14371D01*
X29291Y-14366D01*
X28700Y-14366D01*
X27602Y-14366D01*
X27444Y-14208D01*
X27444Y-13464D01*
X27444Y-13464D01*
X27428Y-13388D01*
X27428Y-13388D01*
X27414Y-13366D01*
X27385Y-13323D01*
X27385Y-13323D01*
X26834Y-12771D01*
X26769Y-12728D01*
X26692Y-12713D01*
X19330Y-12713D01*
X19254Y-12728D01*
X19189Y-12771D01*
X18834Y-13126D01*
X18791Y-13191D01*
X18776Y-13267D01*
X18776Y-14562D01*
X18539Y-14800D01*
X18450Y-14800D01*
X18450Y-13910D01*
X18450Y-13910D01*
X18450Y-13270D01*
X18450Y-12670D01*
X18427Y-12615D01*
X18385Y-12572D01*
X18329Y-12550D01*
X18270Y-12549D01*
X17670Y-12549D01*
X17615Y-12572D01*
X17572Y-12614D01*
X17550Y-12670D01*
X17549Y-12729D01*
X17549Y-13329D01*
X17572Y-13384D01*
X17614Y-13427D01*
X17670Y-13449D01*
X17729Y-13450D01*
X18329Y-13450D01*
X18384Y-13427D01*
X18427Y-13385D01*
X18449Y-13329D01*
X18450Y-13270D01*
X18450Y-13910D01*
X18381Y-13745D01*
X18255Y-13618D01*
X18089Y-13550D01*
X17910Y-13549D01*
X17745Y-13618D01*
X17618Y-13744D01*
X17550Y-13910D01*
X17549Y-14089D01*
X17618Y-14254D01*
X17744Y-14381D01*
X17910Y-14449D01*
X18089Y-14450D01*
X18254Y-14381D01*
X18381Y-14255D01*
X18449Y-14089D01*
X18450Y-13910D01*
X18450Y-14800D01*
X18404Y-14800D01*
X18381Y-14745D01*
X18255Y-14618D01*
X18089Y-14550D01*
X17910Y-14549D01*
X17745Y-14618D01*
X17618Y-14744D01*
X17550Y-14910D01*
X17549Y-15089D01*
X17618Y-15254D01*
X17744Y-15381D01*
X17910Y-15449D01*
X17986Y-15449D01*
X17863Y-15456D01*
X17712Y-15518D01*
X17684Y-15614D01*
X18000Y-15929D01*
X18315Y-15614D01*
X18287Y-15518D01*
X18092Y-15448D01*
X18254Y-15381D01*
X18381Y-15255D01*
X18404Y-15200D01*
X18622Y-15200D01*
X18698Y-15184D01*
X18763Y-15141D01*
X19117Y-14787D01*
X19161Y-14722D01*
X19161Y-14722D01*
X19176Y-14645D01*
X19176Y-13350D01*
X19413Y-13113D01*
X26610Y-13113D01*
X27044Y-13547D01*
X27044Y-14291D01*
X27059Y-14367D01*
X27102Y-14432D01*
X27378Y-14708D01*
X27378Y-14708D01*
X27421Y-14737D01*
X27443Y-14751D01*
X27443Y-14751D01*
X27519Y-14766D01*
X28617Y-14766D01*
X29031Y-15180D01*
X29096Y-15224D01*
X29096Y-15224D01*
X29109Y-15226D01*
X29173Y-15239D01*
X29326Y-15239D01*
X29445Y-15358D01*
X29445Y-16131D01*
X29345Y-16131D01*
X29225Y-16181D01*
X29134Y-16272D01*
X29084Y-16391D01*
X29084Y-16521D01*
X29133Y-16640D01*
X29225Y-16732D01*
X29344Y-16781D01*
X29473Y-16781D01*
X29593Y-16732D01*
X29684Y-16641D01*
X29734Y-16521D01*
X29734Y-16414D01*
X29775Y-16373D01*
X29775Y-16375D01*
X29819Y-16440D01*
X30154Y-16775D01*
X30154Y-17332D01*
X30105Y-17283D01*
X29986Y-17234D01*
X29856Y-17233D01*
X29737Y-17283D01*
X29645Y-17374D01*
X29596Y-17494D01*
X29596Y-17623D01*
X29645Y-17742D01*
X29721Y-17818D01*
X29721Y-17909D01*
X29326Y-18303D01*
X28041Y-18303D01*
X28041Y-15368D01*
X27992Y-15249D01*
X27900Y-15157D01*
X27781Y-15108D01*
X27652Y-15108D01*
X27532Y-15157D01*
X27506Y-15183D01*
X27480Y-15183D01*
X27384Y-15202D01*
X27303Y-15256D01*
X27249Y-15337D01*
X27246Y-15352D01*
X26549Y-16049D01*
X25918Y-16049D01*
X25892Y-16023D01*
X25773Y-15974D01*
X25644Y-15974D01*
X25524Y-16023D01*
X25433Y-16114D01*
X25383Y-16234D01*
X25383Y-16363D01*
X25432Y-16483D01*
X25524Y-16574D01*
X25643Y-16624D01*
X25773Y-16624D01*
X25892Y-16574D01*
X25918Y-16549D01*
X26653Y-16549D01*
X26749Y-16530D01*
X26830Y-16475D01*
X27578Y-15727D01*
X27651Y-15758D01*
X27780Y-15758D01*
X27900Y-15708D01*
X27991Y-15617D01*
X28041Y-15498D01*
X28041Y-15368D01*
X28041Y-18303D01*
X26850Y-18303D01*
X26773Y-18319D01*
X26752Y-18333D01*
X26708Y-18362D01*
X25842Y-19228D01*
X25799Y-19293D01*
X25784Y-19370D01*
X25784Y-20350D01*
X25173Y-20960D01*
X25130Y-21025D01*
X25114Y-21102D01*
X25114Y-21584D01*
X25026Y-21496D01*
X24907Y-21446D01*
X24778Y-21446D01*
X24658Y-21495D01*
X24567Y-21587D01*
X24517Y-21706D01*
X24517Y-21836D01*
X24566Y-21955D01*
X24658Y-22047D01*
X24777Y-22096D01*
X24906Y-22096D01*
X24935Y-22084D01*
X24960Y-22089D01*
X25272Y-22089D01*
X25348Y-22074D01*
X25351Y-22073D01*
X25351Y-22121D01*
X25271Y-22201D01*
X24629Y-22201D01*
X24554Y-22126D01*
X24435Y-22076D01*
X24305Y-22076D01*
X24186Y-22125D01*
X24094Y-22217D01*
X24045Y-22336D01*
X24045Y-22465D01*
X24094Y-22585D01*
X24185Y-22676D01*
X24305Y-22726D01*
X24434Y-22726D01*
X24553Y-22677D01*
X24629Y-22601D01*
X25354Y-22601D01*
X25430Y-22586D01*
X25495Y-22542D01*
X25587Y-22451D01*
X25587Y-22673D01*
X25586Y-22674D01*
X25000Y-22674D01*
X24923Y-22689D01*
X24858Y-22732D01*
X24247Y-23343D01*
X23831Y-23343D01*
X23868Y-23253D01*
X23868Y-23124D01*
X23818Y-23005D01*
X23793Y-22979D01*
X23793Y-21987D01*
X24192Y-21588D01*
X24246Y-21507D01*
X24246Y-21507D01*
X24265Y-21411D01*
X24265Y-20196D01*
X24246Y-20101D01*
X24246Y-20101D01*
X24207Y-20043D01*
X24389Y-19861D01*
X24443Y-19780D01*
X24462Y-19685D01*
X24462Y-18607D01*
X24822Y-18247D01*
X24822Y-18247D01*
X24822Y-18247D01*
X24876Y-18166D01*
X24876Y-18166D01*
X24891Y-18089D01*
X24895Y-18070D01*
X24895Y-18070D01*
X24895Y-18070D01*
X24895Y-17178D01*
X24921Y-17152D01*
X24970Y-17033D01*
X24970Y-16904D01*
X24921Y-16784D01*
X24830Y-16693D01*
X24710Y-16643D01*
X24581Y-16643D01*
X24461Y-16692D01*
X24370Y-16784D01*
X24320Y-16903D01*
X24320Y-17032D01*
X24369Y-17152D01*
X24395Y-17178D01*
X24395Y-17967D01*
X24035Y-18327D01*
X24025Y-18342D01*
X24025Y-15880D01*
X23976Y-15761D01*
X23885Y-15669D01*
X23765Y-15619D01*
X23636Y-15619D01*
X23516Y-15669D01*
X23425Y-15760D01*
X23375Y-15879D01*
X23375Y-15987D01*
X23362Y-16000D01*
X23319Y-16065D01*
X23303Y-16141D01*
X23303Y-16806D01*
X23270Y-16839D01*
X23270Y-16496D01*
X23270Y-16102D01*
X23258Y-16038D01*
X23255Y-16025D01*
X23255Y-16025D01*
X23238Y-15999D01*
X23238Y-15880D01*
X23189Y-15761D01*
X23097Y-15669D01*
X22978Y-15619D01*
X22849Y-15619D01*
X22729Y-15669D01*
X22638Y-15760D01*
X22588Y-15879D01*
X22588Y-16009D01*
X22637Y-16128D01*
X22729Y-16220D01*
X22848Y-16269D01*
X22870Y-16269D01*
X22870Y-16413D01*
X22673Y-16611D01*
X20944Y-16611D01*
X20868Y-16626D01*
X20846Y-16640D01*
X20803Y-16669D01*
X20088Y-17384D01*
X20088Y-16116D01*
X20039Y-15997D01*
X19963Y-15921D01*
X19963Y-13724D01*
X20039Y-13648D01*
X20088Y-13529D01*
X20088Y-13400D01*
X20039Y-13280D01*
X19948Y-13189D01*
X19828Y-13139D01*
X19699Y-13139D01*
X19579Y-13188D01*
X19488Y-13280D01*
X19438Y-13399D01*
X19438Y-13528D01*
X19488Y-13648D01*
X19563Y-13724D01*
X19563Y-15921D01*
X19488Y-15996D01*
X19438Y-16116D01*
X19438Y-16245D01*
X19488Y-16364D01*
X19579Y-16456D01*
X19698Y-16506D01*
X19828Y-16506D01*
X19947Y-16456D01*
X20039Y-16365D01*
X20088Y-16246D01*
X20088Y-16116D01*
X20088Y-17384D01*
X19819Y-17653D01*
X19819Y-17653D01*
X19740Y-17732D01*
X19697Y-17797D01*
X19681Y-17874D01*
X19681Y-18834D01*
X19606Y-18910D01*
X19556Y-19029D01*
X19556Y-19158D01*
X19606Y-19278D01*
X19697Y-19369D01*
X19816Y-19419D01*
X19946Y-19419D01*
X20065Y-19370D01*
X20157Y-19278D01*
X20206Y-19159D01*
X20206Y-19030D01*
X20157Y-18910D01*
X20081Y-18834D01*
X20081Y-17956D01*
X20102Y-17936D01*
X20102Y-17936D01*
X20102Y-17936D01*
X21027Y-17011D01*
X22755Y-17011D01*
X22832Y-16995D01*
X22897Y-16952D01*
X23212Y-16637D01*
X23212Y-16637D01*
X23241Y-16594D01*
X23255Y-16572D01*
X23255Y-16572D01*
X23270Y-16496D01*
X23270Y-16496D01*
X23270Y-16839D01*
X23027Y-17083D01*
X21141Y-17083D01*
X21065Y-17098D01*
X21043Y-17113D01*
X21000Y-17142D01*
X20449Y-17693D01*
X20409Y-17732D01*
X20366Y-17797D01*
X20351Y-17874D01*
X20351Y-18323D01*
X20275Y-18398D01*
X20226Y-18517D01*
X20226Y-18647D01*
X20275Y-18766D01*
X20366Y-18858D01*
X20486Y-18907D01*
X20615Y-18907D01*
X20735Y-18858D01*
X20826Y-18767D01*
X20876Y-18647D01*
X20876Y-18518D01*
X20826Y-18398D01*
X20751Y-18323D01*
X20751Y-17956D01*
X21224Y-17483D01*
X23110Y-17483D01*
X23186Y-17468D01*
X23251Y-17424D01*
X23645Y-17031D01*
X23645Y-17031D01*
X23674Y-16987D01*
X23688Y-16966D01*
X23688Y-16966D01*
X23703Y-16889D01*
X23703Y-16889D01*
X23703Y-16269D01*
X23765Y-16269D01*
X23884Y-16220D01*
X23976Y-16129D01*
X24025Y-16009D01*
X24025Y-15880D01*
X24025Y-18342D01*
X23981Y-18408D01*
X23962Y-18503D01*
X23962Y-19581D01*
X23829Y-19714D01*
X23793Y-19714D01*
X23674Y-19763D01*
X23582Y-19855D01*
X23533Y-19974D01*
X23533Y-20103D01*
X23582Y-20223D01*
X23673Y-20314D01*
X23765Y-20352D01*
X23765Y-21308D01*
X23543Y-21530D01*
X23492Y-21479D01*
X23492Y-18522D01*
X23454Y-18430D01*
X23384Y-18360D01*
X23339Y-18315D01*
X23251Y-18315D01*
X23180Y-18386D01*
X23180Y-18244D01*
X23180Y-18156D01*
X23135Y-18111D01*
X23065Y-18041D01*
X22973Y-18003D01*
X22874Y-18003D01*
X22782Y-18041D01*
X22687Y-18136D01*
X22687Y-18225D01*
X22944Y-18481D01*
X23180Y-18244D01*
X23180Y-18386D01*
X23014Y-18552D01*
X23271Y-18808D01*
X23359Y-18808D01*
X23454Y-18713D01*
X23492Y-18621D01*
X23492Y-18522D01*
X23492Y-21479D01*
X23395Y-21383D01*
X23395Y-21352D01*
X23346Y-21233D01*
X23255Y-21141D01*
X23246Y-21138D01*
X23246Y-21129D01*
X23223Y-21073D01*
X23200Y-21050D01*
X23200Y-18967D01*
X23200Y-18879D01*
X22944Y-18622D01*
X22873Y-18693D01*
X22873Y-18552D01*
X22616Y-18295D01*
X22528Y-18295D01*
X22433Y-18390D01*
X22395Y-18482D01*
X22395Y-18581D01*
X22433Y-18673D01*
X22503Y-18743D01*
X22548Y-18788D01*
X22636Y-18788D01*
X22873Y-18552D01*
X22873Y-18693D01*
X22707Y-18859D01*
X22707Y-18947D01*
X22752Y-18992D01*
X22822Y-19062D01*
X22914Y-19100D01*
X23013Y-19100D01*
X23105Y-19062D01*
X23200Y-18967D01*
X23200Y-21050D01*
X23181Y-21031D01*
X22962Y-20813D01*
X22962Y-19817D01*
X22913Y-19698D01*
X22882Y-19666D01*
X22882Y-19409D01*
X22863Y-19313D01*
X22863Y-19313D01*
X22808Y-19232D01*
X22808Y-19232D01*
X22794Y-19218D01*
X22807Y-19186D01*
X22807Y-19126D01*
X22784Y-19071D01*
X22742Y-19029D01*
X22424Y-18711D01*
X22369Y-18688D01*
X22309Y-18688D01*
X22254Y-18711D01*
X22212Y-18753D01*
X22189Y-18776D01*
X22152Y-18740D01*
X22033Y-18690D01*
X21904Y-18690D01*
X21784Y-18740D01*
X21693Y-18831D01*
X21643Y-18950D01*
X21643Y-19080D01*
X21692Y-19199D01*
X21784Y-19291D01*
X21903Y-19340D01*
X22032Y-19340D01*
X22058Y-19330D01*
X22063Y-19331D01*
X22063Y-19331D01*
X22294Y-19562D01*
X22349Y-19584D01*
X22382Y-19584D01*
X22382Y-19677D01*
X22362Y-19697D01*
X22312Y-19816D01*
X22312Y-19853D01*
X22179Y-19986D01*
X22117Y-19986D01*
X22091Y-19960D01*
X22104Y-19928D01*
X22104Y-19869D01*
X22081Y-19814D01*
X22039Y-19771D01*
X21721Y-19453D01*
X21666Y-19430D01*
X21662Y-19430D01*
X21601Y-19370D01*
X21482Y-19320D01*
X21352Y-19320D01*
X21233Y-19369D01*
X21141Y-19461D01*
X21092Y-19580D01*
X21092Y-19710D01*
X21141Y-19829D01*
X21213Y-19901D01*
X21230Y-19944D01*
X21272Y-19986D01*
X21591Y-20304D01*
X21646Y-20327D01*
X21705Y-20327D01*
X21737Y-20314D01*
X21836Y-20412D01*
X21917Y-20467D01*
X22013Y-20486D01*
X22283Y-20486D01*
X22379Y-20467D01*
X22460Y-20412D01*
X22666Y-20206D01*
X22702Y-20206D01*
X22821Y-20157D01*
X22913Y-20066D01*
X22962Y-19946D01*
X22962Y-19817D01*
X22962Y-20813D01*
X22863Y-20713D01*
X22808Y-20690D01*
X22748Y-20690D01*
X22693Y-20713D01*
X22651Y-20755D01*
X22372Y-21033D01*
X22349Y-21089D01*
X22349Y-21148D01*
X22372Y-21203D01*
X22414Y-21246D01*
X22732Y-21564D01*
X22788Y-21587D01*
X22789Y-21587D01*
X22795Y-21601D01*
X22886Y-21692D01*
X23005Y-21742D01*
X23047Y-21742D01*
X23293Y-21987D01*
X23293Y-22498D01*
X23277Y-22483D01*
X23277Y-22376D01*
X23228Y-22257D01*
X23137Y-22165D01*
X23017Y-22116D01*
X22888Y-22115D01*
X22768Y-22165D01*
X22761Y-22172D01*
X22761Y-21693D01*
X22723Y-21602D01*
X22653Y-21531D01*
X22608Y-21487D01*
X22520Y-21487D01*
X22449Y-21557D01*
X22449Y-21416D01*
X22449Y-21328D01*
X22405Y-21283D01*
X22334Y-21213D01*
X22243Y-21175D01*
X22143Y-21175D01*
X22051Y-21213D01*
X21957Y-21308D01*
X21957Y-21396D01*
X22213Y-21652D01*
X22449Y-21416D01*
X22449Y-21557D01*
X22284Y-21723D01*
X22540Y-21979D01*
X22628Y-21979D01*
X22723Y-21885D01*
X22761Y-21793D01*
X22761Y-21693D01*
X22761Y-22172D01*
X22677Y-22256D01*
X22627Y-22376D01*
X22627Y-22505D01*
X22666Y-22598D01*
X22572Y-22637D01*
X22480Y-22729D01*
X22469Y-22754D01*
X22469Y-22138D01*
X22469Y-22050D01*
X22213Y-21794D01*
X22142Y-21864D01*
X22142Y-21723D01*
X21886Y-21467D01*
X21798Y-21467D01*
X21703Y-21561D01*
X21665Y-21653D01*
X21665Y-21753D01*
X21703Y-21845D01*
X21773Y-21915D01*
X21817Y-21959D01*
X21906Y-21959D01*
X22142Y-21723D01*
X22142Y-21864D01*
X21977Y-22030D01*
X21977Y-22119D01*
X22021Y-22163D01*
X22091Y-22233D01*
X22183Y-22271D01*
X22283Y-22271D01*
X22375Y-22233D01*
X22469Y-22138D01*
X22469Y-22754D01*
X22460Y-22776D01*
X22441Y-22729D01*
X22349Y-22638D01*
X22230Y-22588D01*
X22100Y-22588D01*
X21981Y-22637D01*
X21905Y-22713D01*
X21620Y-22713D01*
X21620Y-20434D01*
X21582Y-20342D01*
X21511Y-20271D01*
X21467Y-20227D01*
X21378Y-20227D01*
X21308Y-20297D01*
X21308Y-20156D01*
X21308Y-20068D01*
X21263Y-20023D01*
X21193Y-19953D01*
X21101Y-19915D01*
X21001Y-19915D01*
X20910Y-19953D01*
X20815Y-20048D01*
X20815Y-20136D01*
X21071Y-20392D01*
X21308Y-20156D01*
X21308Y-20297D01*
X21142Y-20463D01*
X21398Y-20720D01*
X21487Y-20720D01*
X21581Y-20625D01*
X21619Y-20533D01*
X21620Y-20434D01*
X21620Y-22713D01*
X21417Y-22713D01*
X21353Y-22726D01*
X21340Y-22728D01*
X21328Y-22737D01*
X21328Y-20879D01*
X21328Y-20790D01*
X21071Y-20534D01*
X21001Y-20605D01*
X21001Y-20463D01*
X20744Y-20207D01*
X20656Y-20207D01*
X20561Y-20302D01*
X20523Y-20393D01*
X20523Y-20493D01*
X20561Y-20585D01*
X20631Y-20655D01*
X20676Y-20700D01*
X20764Y-20700D01*
X21001Y-20463D01*
X21001Y-20605D01*
X20835Y-20770D01*
X20835Y-20859D01*
X20879Y-20903D01*
X20950Y-20974D01*
X21042Y-21012D01*
X21141Y-21011D01*
X21233Y-20973D01*
X21328Y-20879D01*
X21328Y-22737D01*
X21275Y-22771D01*
X21098Y-22949D01*
X21055Y-23014D01*
X21039Y-23090D01*
X21039Y-23212D01*
X21030Y-23222D01*
X21007Y-23277D01*
X21007Y-23337D01*
X21007Y-23967D01*
X21030Y-24022D01*
X21072Y-24064D01*
X21127Y-24087D01*
X21187Y-24087D01*
X21352Y-24087D01*
X21367Y-24080D01*
X21383Y-24087D01*
X21443Y-24087D01*
X21608Y-24087D01*
X21623Y-24080D01*
X21639Y-24087D01*
X21699Y-24087D01*
X21864Y-24087D01*
X21879Y-24080D01*
X21895Y-24087D01*
X21928Y-24087D01*
X21774Y-24241D01*
X21667Y-24241D01*
X21548Y-24291D01*
X21456Y-24382D01*
X21407Y-24501D01*
X21407Y-24631D01*
X21456Y-24750D01*
X21466Y-24760D01*
X20909Y-24760D01*
X19373Y-23224D01*
X19373Y-17204D01*
X19358Y-17128D01*
X19314Y-17063D01*
X19109Y-16858D01*
X19045Y-16815D01*
X18968Y-16800D01*
X18554Y-16800D01*
X18554Y-16081D01*
X18543Y-15863D01*
X18481Y-15712D01*
X18385Y-15684D01*
X18070Y-16000D01*
X18385Y-16315D01*
X18481Y-16287D01*
X18554Y-16081D01*
X18554Y-16800D01*
X18404Y-16800D01*
X18381Y-16745D01*
X18255Y-16618D01*
X18089Y-16550D01*
X18013Y-16550D01*
X18136Y-16543D01*
X18287Y-16481D01*
X18315Y-16385D01*
X18000Y-16070D01*
X17684Y-16385D01*
X17712Y-16481D01*
X17907Y-16551D01*
X17745Y-16618D01*
X17618Y-16744D01*
X17550Y-16910D01*
X17549Y-17089D01*
X17618Y-17254D01*
X17744Y-17381D01*
X17910Y-17449D01*
X18089Y-17450D01*
X18254Y-17381D01*
X18381Y-17255D01*
X18404Y-17200D01*
X18885Y-17200D01*
X18973Y-17287D01*
X18973Y-23307D01*
X18988Y-23383D01*
X19031Y-23448D01*
X20685Y-25102D01*
X20685Y-25102D01*
X20728Y-25131D01*
X20750Y-25145D01*
X20750Y-25145D01*
X20826Y-25160D01*
X20826Y-25160D01*
X22161Y-25160D01*
X22263Y-25262D01*
X22241Y-25248D01*
X22165Y-25233D01*
X19256Y-25233D01*
X18940Y-24917D01*
X18940Y-18425D01*
X18924Y-18348D01*
X18924Y-18348D01*
X18910Y-18327D01*
X18881Y-18283D01*
X18881Y-18283D01*
X18456Y-17858D01*
X18417Y-17832D01*
X18381Y-17745D01*
X18255Y-17618D01*
X18089Y-17550D01*
X17910Y-17549D01*
X17745Y-17618D01*
X17618Y-17744D01*
X17550Y-17910D01*
X17549Y-18089D01*
X17618Y-18254D01*
X17744Y-18381D01*
X17910Y-18449D01*
X18089Y-18450D01*
X18254Y-18381D01*
X18334Y-18302D01*
X18540Y-18508D01*
X18540Y-25000D01*
X18555Y-25076D01*
X18598Y-25141D01*
X19031Y-25574D01*
X19031Y-25574D01*
X19075Y-25603D01*
X19096Y-25617D01*
X19096Y-25617D01*
X19173Y-25633D01*
X19173Y-25633D01*
X20907Y-25633D01*
X20907Y-25679D01*
X20907Y-25832D01*
X20969Y-25894D01*
X21198Y-25894D01*
X21198Y-25886D01*
X21263Y-25886D01*
X21263Y-26289D01*
X21281Y-26332D01*
X21281Y-26446D01*
X21343Y-26509D01*
X21371Y-26509D01*
X21463Y-26471D01*
X21525Y-26409D01*
X21608Y-26409D01*
X21623Y-26402D01*
X21639Y-26409D01*
X21699Y-26409D01*
X21864Y-26409D01*
X21879Y-26402D01*
X21895Y-26409D01*
X21955Y-26409D01*
X22120Y-26409D01*
X22135Y-26402D01*
X22151Y-26409D01*
X22211Y-26409D01*
X22376Y-26409D01*
X22391Y-26402D01*
X22407Y-26409D01*
X22467Y-26409D01*
X22632Y-26409D01*
X22647Y-26402D01*
X22663Y-26409D01*
X22723Y-26409D01*
X22888Y-26409D01*
X22943Y-26386D01*
X22985Y-26344D01*
X23008Y-26289D01*
X23008Y-26229D01*
X23008Y-26144D01*
X23066Y-26144D01*
X23303Y-26382D01*
X23303Y-26514D01*
X23277Y-26514D01*
X23222Y-26537D01*
X23179Y-26579D01*
X23157Y-26634D01*
X23157Y-26694D01*
X23157Y-27144D01*
X23179Y-27199D01*
X23222Y-27241D01*
X23277Y-27264D01*
X23293Y-27264D01*
X23293Y-27349D01*
X23267Y-27374D01*
X23218Y-27494D01*
X23218Y-27623D01*
X23267Y-27742D01*
X23358Y-27834D01*
X23478Y-27883D01*
X23514Y-27884D01*
X23720Y-28090D01*
X23801Y-28144D01*
X23866Y-28157D01*
X24153Y-28444D01*
X24235Y-28498D01*
X24330Y-28517D01*
X25461Y-28517D01*
X25474Y-28549D01*
X25516Y-28591D01*
X25571Y-28614D01*
X25631Y-28614D01*
X26081Y-28614D01*
X26136Y-28591D01*
X26178Y-28549D01*
X26201Y-28494D01*
X26201Y-28434D01*
X26201Y-28246D01*
X26210Y-28237D01*
X26210Y-28292D01*
X26259Y-28412D01*
X26351Y-28503D01*
X26470Y-28553D01*
X26599Y-28553D01*
X26716Y-28505D01*
X26734Y-28549D01*
X26776Y-28591D01*
X26831Y-28614D01*
X26891Y-28614D01*
X27194Y-28614D01*
X27194Y-28647D01*
X27196Y-28650D01*
X27136Y-28710D01*
X27136Y-29044D01*
X27499Y-29044D01*
X27561Y-28981D01*
X27561Y-28907D01*
X27584Y-28907D01*
X27703Y-28858D01*
X27795Y-28767D01*
X27844Y-28647D01*
X27844Y-28518D01*
X27795Y-28398D01*
X27704Y-28307D01*
X27584Y-28257D01*
X27548Y-28257D01*
X27461Y-28171D01*
X27461Y-28041D01*
X27438Y-27986D01*
X27396Y-27943D01*
X27341Y-27920D01*
X27281Y-27920D01*
X26831Y-27920D01*
X26776Y-27943D01*
X26743Y-27976D01*
X26719Y-27952D01*
X26600Y-27903D01*
X26471Y-27903D01*
X26375Y-27942D01*
X26375Y-27742D01*
X26746Y-27742D01*
X26801Y-27720D01*
X26843Y-27677D01*
X26866Y-27622D01*
X26866Y-27563D01*
X26866Y-26933D01*
X26843Y-26878D01*
X26801Y-26835D01*
X26746Y-26813D01*
X26686Y-26812D01*
X25505Y-26812D01*
X25450Y-26835D01*
X25408Y-26877D01*
X25403Y-26888D01*
X25403Y-26392D01*
X25354Y-26272D01*
X25328Y-26247D01*
X25328Y-25866D01*
X25328Y-25866D01*
X25328Y-25866D01*
X25324Y-25847D01*
X25309Y-25770D01*
X25309Y-25770D01*
X25255Y-25689D01*
X25255Y-25689D01*
X25088Y-25522D01*
X25088Y-25486D01*
X25039Y-25367D01*
X24948Y-25275D01*
X24828Y-25226D01*
X24699Y-25226D01*
X24579Y-25275D01*
X24488Y-25366D01*
X24438Y-25486D01*
X24438Y-25615D01*
X24488Y-25735D01*
X24570Y-25817D01*
X24474Y-25777D01*
X24345Y-25777D01*
X24225Y-25826D01*
X24134Y-25918D01*
X24084Y-26037D01*
X24084Y-26157D01*
X24067Y-26183D01*
X24051Y-26259D01*
X24051Y-26929D01*
X24067Y-27005D01*
X24110Y-27070D01*
X24451Y-27411D01*
X24409Y-27453D01*
X24360Y-27572D01*
X24359Y-27702D01*
X24409Y-27821D01*
X24500Y-27913D01*
X24620Y-27962D01*
X24749Y-27962D01*
X24868Y-27913D01*
X24960Y-27822D01*
X25009Y-27702D01*
X25010Y-27573D01*
X24960Y-27453D01*
X24885Y-27378D01*
X24885Y-27362D01*
X24885Y-27362D01*
X24869Y-27285D01*
X24869Y-27285D01*
X24855Y-27264D01*
X24826Y-27220D01*
X24826Y-27220D01*
X24451Y-26846D01*
X24451Y-26427D01*
X24473Y-26427D01*
X24593Y-26378D01*
X24684Y-26286D01*
X24734Y-26167D01*
X24734Y-26037D01*
X24685Y-25918D01*
X24603Y-25836D01*
X24698Y-25876D01*
X24735Y-25876D01*
X24828Y-25969D01*
X24828Y-26247D01*
X24803Y-26272D01*
X24753Y-26391D01*
X24753Y-26521D01*
X24803Y-26640D01*
X24894Y-26732D01*
X25013Y-26781D01*
X25143Y-26781D01*
X25262Y-26732D01*
X25354Y-26641D01*
X25403Y-26521D01*
X25403Y-26392D01*
X25403Y-26888D01*
X25385Y-26933D01*
X25385Y-26992D01*
X25385Y-27622D01*
X25408Y-27677D01*
X25450Y-27720D01*
X25505Y-27742D01*
X25565Y-27742D01*
X25875Y-27742D01*
X25875Y-27864D01*
X25820Y-27920D01*
X25572Y-27920D01*
X25516Y-27943D01*
X25474Y-27985D01*
X25461Y-28017D01*
X24434Y-28017D01*
X24153Y-27736D01*
X24072Y-27682D01*
X24018Y-27671D01*
X24018Y-25049D01*
X24018Y-24556D01*
X23980Y-24464D01*
X23910Y-24394D01*
X23818Y-24356D01*
X23718Y-24356D01*
X23655Y-24356D01*
X23593Y-24418D01*
X23593Y-24753D01*
X23955Y-24753D01*
X24018Y-24690D01*
X24018Y-24556D01*
X24018Y-25049D01*
X24018Y-24915D01*
X23955Y-24853D01*
X23593Y-24853D01*
X23593Y-25187D01*
X23655Y-25250D01*
X23718Y-25250D01*
X23818Y-25249D01*
X23910Y-25211D01*
X23980Y-25141D01*
X24018Y-25049D01*
X24018Y-27671D01*
X24007Y-27669D01*
X23868Y-27530D01*
X23868Y-27494D01*
X23818Y-27375D01*
X23793Y-27349D01*
X23793Y-27234D01*
X23827Y-27199D01*
X23850Y-27144D01*
X23850Y-27085D01*
X23850Y-26635D01*
X23828Y-26579D01*
X23785Y-26537D01*
X23730Y-26514D01*
X23703Y-26514D01*
X23703Y-26299D01*
X23691Y-26235D01*
X23688Y-26222D01*
X23688Y-26222D01*
X23645Y-26157D01*
X23493Y-26005D01*
X23493Y-25187D01*
X23493Y-24853D01*
X23493Y-24753D01*
X23493Y-24418D01*
X23430Y-24356D01*
X23367Y-24356D01*
X23268Y-24356D01*
X23176Y-24394D01*
X23106Y-24464D01*
X23068Y-24556D01*
X23068Y-24690D01*
X23130Y-24753D01*
X23493Y-24753D01*
X23493Y-24853D01*
X23130Y-24853D01*
X23068Y-24915D01*
X23068Y-25049D01*
X23106Y-25141D01*
X23176Y-25211D01*
X23268Y-25249D01*
X23367Y-25250D01*
X23430Y-25250D01*
X23493Y-25187D01*
X23493Y-26005D01*
X23290Y-25803D01*
X23225Y-25759D01*
X23149Y-25744D01*
X23008Y-25744D01*
X23008Y-25599D01*
X22985Y-25544D01*
X22943Y-25502D01*
X22888Y-25479D01*
X22828Y-25479D01*
X22719Y-25479D01*
X22719Y-25236D01*
X22707Y-25172D01*
X22704Y-25159D01*
X22704Y-25159D01*
X22661Y-25094D01*
X22437Y-24871D01*
X22506Y-24842D01*
X22598Y-24751D01*
X22647Y-24631D01*
X22647Y-24524D01*
X22661Y-24511D01*
X22661Y-24511D01*
X22690Y-24467D01*
X22704Y-24446D01*
X22704Y-24446D01*
X22719Y-24369D01*
X22719Y-24369D01*
X22719Y-24087D01*
X22723Y-24087D01*
X22888Y-24087D01*
X22937Y-24066D01*
X22988Y-24117D01*
X23053Y-24161D01*
X23053Y-24161D01*
X23129Y-24176D01*
X23168Y-24176D01*
X23168Y-24202D01*
X23191Y-24258D01*
X23233Y-24300D01*
X23288Y-24323D01*
X23348Y-24323D01*
X23798Y-24323D01*
X23853Y-24300D01*
X23895Y-24258D01*
X23908Y-24226D01*
X24109Y-24226D01*
X24438Y-24556D01*
X24438Y-24591D01*
X24488Y-24711D01*
X24579Y-24802D01*
X24698Y-24852D01*
X24828Y-24852D01*
X24947Y-24803D01*
X25039Y-24711D01*
X25088Y-24592D01*
X25088Y-24556D01*
X25221Y-24423D01*
X25461Y-24423D01*
X25474Y-24454D01*
X25516Y-24497D01*
X25571Y-24520D01*
X25631Y-24520D01*
X25820Y-24520D01*
X25875Y-24575D01*
X25875Y-24698D01*
X25505Y-24698D01*
X25450Y-24720D01*
X25408Y-24762D01*
X25385Y-24818D01*
X25385Y-24877D01*
X25385Y-25507D01*
X25408Y-25562D01*
X25450Y-25605D01*
X25505Y-25627D01*
X25565Y-25627D01*
X26746Y-25627D01*
X26801Y-25605D01*
X26843Y-25563D01*
X26866Y-25507D01*
X26866Y-25448D01*
X26866Y-24818D01*
X26843Y-24763D01*
X26826Y-24745D01*
X26876Y-24724D01*
X26925Y-24675D01*
X26925Y-25586D01*
X26728Y-25784D01*
X26401Y-25784D01*
X26326Y-25708D01*
X26206Y-25659D01*
X26077Y-25659D01*
X25957Y-25708D01*
X25866Y-25799D01*
X25816Y-25919D01*
X25816Y-26048D01*
X25866Y-26168D01*
X25957Y-26259D01*
X26076Y-26309D01*
X26206Y-26309D01*
X26325Y-26259D01*
X26401Y-26184D01*
X26722Y-26184D01*
X26722Y-26284D01*
X26771Y-26404D01*
X26862Y-26495D01*
X26982Y-26545D01*
X27111Y-26545D01*
X27231Y-26496D01*
X27322Y-26404D01*
X27372Y-26285D01*
X27372Y-26178D01*
X27466Y-26084D01*
X27466Y-26107D01*
X27529Y-26170D01*
X28491Y-26170D01*
X28491Y-25082D01*
X28429Y-25020D01*
X27766Y-25020D01*
X27666Y-25020D01*
X27574Y-25058D01*
X27562Y-25071D01*
X27562Y-23425D01*
X27546Y-23348D01*
X27546Y-23348D01*
X27503Y-23283D01*
X27421Y-23202D01*
X27443Y-23216D01*
X27443Y-23216D01*
X27519Y-23231D01*
X27645Y-23231D01*
X27645Y-23286D01*
X27668Y-23341D01*
X27710Y-23383D01*
X27765Y-23406D01*
X27824Y-23406D01*
X28218Y-23406D01*
X28273Y-23383D01*
X28316Y-23341D01*
X28338Y-23286D01*
X28339Y-23226D01*
X28339Y-22776D01*
X28316Y-22721D01*
X28274Y-22679D01*
X28218Y-22656D01*
X28159Y-22656D01*
X27765Y-22656D01*
X27710Y-22679D01*
X27668Y-22721D01*
X27645Y-22776D01*
X27645Y-22831D01*
X27602Y-22831D01*
X27450Y-22679D01*
X27451Y-22573D01*
X27401Y-22453D01*
X27310Y-22362D01*
X27190Y-22312D01*
X27061Y-22312D01*
X26999Y-22338D01*
X27083Y-22254D01*
X27190Y-22254D01*
X27309Y-22204D01*
X27401Y-22113D01*
X27411Y-22089D01*
X27645Y-22089D01*
X27645Y-22144D01*
X27668Y-22199D01*
X27710Y-22241D01*
X27765Y-22264D01*
X27824Y-22264D01*
X28218Y-22264D01*
X28273Y-22242D01*
X28316Y-22199D01*
X28338Y-22144D01*
X28339Y-22085D01*
X28339Y-21635D01*
X28316Y-21579D01*
X28274Y-21537D01*
X28218Y-21514D01*
X28159Y-21514D01*
X27765Y-21514D01*
X27710Y-21537D01*
X27668Y-21579D01*
X27645Y-21634D01*
X27645Y-21689D01*
X27346Y-21689D01*
X27329Y-21673D01*
X27391Y-21611D01*
X27438Y-21602D01*
X27503Y-21558D01*
X27779Y-21283D01*
X27779Y-21283D01*
X27808Y-21239D01*
X27822Y-21218D01*
X27822Y-21218D01*
X27837Y-21141D01*
X27837Y-21141D01*
X27837Y-21123D01*
X28218Y-21123D01*
X28273Y-21100D01*
X28316Y-21058D01*
X28338Y-21002D01*
X28339Y-20943D01*
X28339Y-20493D01*
X28316Y-20438D01*
X28274Y-20395D01*
X28218Y-20373D01*
X28159Y-20373D01*
X27765Y-20373D01*
X27710Y-20395D01*
X27668Y-20437D01*
X27645Y-20493D01*
X27645Y-20552D01*
X27645Y-20615D01*
X27496Y-20764D01*
X27453Y-20828D01*
X27450Y-20839D01*
X27451Y-20723D01*
X27401Y-20603D01*
X27325Y-20527D01*
X27325Y-20004D01*
X27405Y-19924D01*
X27645Y-19924D01*
X27645Y-19979D01*
X27668Y-20034D01*
X27710Y-20076D01*
X27765Y-20099D01*
X27824Y-20099D01*
X28218Y-20099D01*
X28273Y-20076D01*
X28316Y-20034D01*
X28338Y-19979D01*
X28339Y-19919D01*
X28339Y-19469D01*
X28316Y-19414D01*
X28274Y-19372D01*
X28218Y-19349D01*
X28159Y-19349D01*
X27765Y-19349D01*
X27710Y-19372D01*
X27668Y-19414D01*
X27645Y-19469D01*
X27645Y-19524D01*
X27322Y-19524D01*
X27246Y-19539D01*
X27224Y-19554D01*
X27181Y-19582D01*
X26984Y-19779D01*
X26941Y-19844D01*
X26925Y-19921D01*
X26925Y-20527D01*
X26850Y-20603D01*
X26801Y-20722D01*
X26800Y-20829D01*
X26157Y-21472D01*
X26114Y-21537D01*
X26099Y-21614D01*
X26099Y-22899D01*
X26002Y-22899D01*
X25939Y-22899D01*
X25876Y-22962D01*
X25876Y-22949D01*
X25928Y-22897D01*
X25972Y-22832D01*
X25972Y-22832D01*
X25987Y-22755D01*
X25987Y-21539D01*
X26637Y-20889D01*
X26637Y-20889D01*
X26680Y-20824D01*
X26680Y-20824D01*
X26683Y-20811D01*
X26696Y-20748D01*
X26696Y-20748D01*
X26696Y-19885D01*
X27031Y-19550D01*
X27031Y-19550D01*
X27040Y-19537D01*
X27072Y-19537D01*
X27191Y-19488D01*
X27283Y-19396D01*
X27332Y-19277D01*
X27332Y-19148D01*
X27283Y-19028D01*
X27234Y-18979D01*
X29029Y-18979D01*
X29055Y-19042D01*
X29146Y-19133D01*
X29265Y-19183D01*
X29395Y-19183D01*
X29514Y-19133D01*
X29606Y-19042D01*
X29655Y-18923D01*
X29655Y-18793D01*
X29606Y-18674D01*
X29564Y-18632D01*
X30062Y-18133D01*
X30062Y-18133D01*
X30091Y-18090D01*
X30106Y-18068D01*
X30106Y-18068D01*
X30121Y-17992D01*
X30121Y-17992D01*
X30121Y-17818D01*
X30154Y-17785D01*
X30154Y-18381D01*
X29937Y-18598D01*
X29893Y-18663D01*
X29878Y-18740D01*
X29878Y-23499D01*
X29779Y-23598D01*
X29736Y-23663D01*
X29734Y-23673D01*
X29734Y-23360D01*
X29685Y-23241D01*
X29593Y-23149D01*
X29474Y-23100D01*
X29345Y-23100D01*
X29225Y-23149D01*
X29222Y-23152D01*
X29165Y-23095D01*
X29165Y-22776D01*
X29142Y-22721D01*
X29100Y-22679D01*
X29045Y-22656D01*
X29018Y-22656D01*
X29018Y-22264D01*
X29045Y-22264D01*
X29100Y-22242D01*
X29142Y-22199D01*
X29165Y-22144D01*
X29165Y-22085D01*
X29165Y-21635D01*
X29142Y-21579D01*
X29100Y-21537D01*
X29045Y-21514D01*
X29018Y-21514D01*
X29018Y-21123D01*
X29045Y-21123D01*
X29100Y-21100D01*
X29142Y-21058D01*
X29165Y-21002D01*
X29165Y-20943D01*
X29165Y-20493D01*
X29142Y-20438D01*
X29100Y-20395D01*
X29045Y-20373D01*
X29018Y-20373D01*
X29018Y-20099D01*
X29045Y-20099D01*
X29100Y-20076D01*
X29142Y-20034D01*
X29165Y-19979D01*
X29165Y-19919D01*
X29165Y-19469D01*
X29142Y-19414D01*
X29100Y-19372D01*
X29045Y-19349D01*
X28986Y-19349D01*
X28592Y-19349D01*
X28537Y-19372D01*
X28494Y-19414D01*
X28472Y-19469D01*
X28472Y-19529D01*
X28472Y-19979D01*
X28494Y-20034D01*
X28536Y-20076D01*
X28592Y-20099D01*
X28618Y-20099D01*
X28618Y-20373D01*
X28592Y-20373D01*
X28537Y-20395D01*
X28494Y-20437D01*
X28472Y-20493D01*
X28472Y-20552D01*
X28472Y-21002D01*
X28494Y-21057D01*
X28536Y-21100D01*
X28592Y-21123D01*
X28618Y-21123D01*
X28618Y-21514D01*
X28592Y-21514D01*
X28537Y-21537D01*
X28494Y-21579D01*
X28472Y-21634D01*
X28472Y-21694D01*
X28472Y-22144D01*
X28494Y-22199D01*
X28536Y-22241D01*
X28592Y-22264D01*
X28618Y-22264D01*
X28618Y-22656D01*
X28592Y-22656D01*
X28537Y-22679D01*
X28494Y-22721D01*
X28472Y-22776D01*
X28472Y-22836D01*
X28472Y-23286D01*
X28494Y-23341D01*
X28536Y-23383D01*
X28592Y-23406D01*
X28651Y-23406D01*
X28911Y-23406D01*
X29071Y-23566D01*
X29071Y-23566D01*
X29114Y-23595D01*
X29133Y-23608D01*
X29133Y-23609D01*
X29225Y-23700D01*
X29344Y-23750D01*
X29473Y-23750D01*
X29593Y-23700D01*
X29684Y-23609D01*
X29734Y-23490D01*
X29734Y-23360D01*
X29734Y-23673D01*
X29721Y-23740D01*
X29721Y-23858D01*
X29721Y-25212D01*
X29645Y-25288D01*
X29616Y-25358D01*
X29616Y-25220D01*
X29578Y-25129D01*
X29508Y-25058D01*
X29416Y-25020D01*
X29317Y-25020D01*
X28654Y-25020D01*
X28591Y-25082D01*
X28591Y-26170D01*
X29554Y-26170D01*
X29616Y-26107D01*
X29616Y-25586D01*
X29645Y-25656D01*
X29736Y-25747D01*
X29856Y-25797D01*
X29985Y-25797D01*
X30105Y-25748D01*
X30196Y-25656D01*
X30246Y-25537D01*
X30246Y-25408D01*
X30196Y-25288D01*
X30121Y-25212D01*
X30121Y-23858D01*
X30121Y-23823D01*
X30220Y-23724D01*
X30220Y-23724D01*
X30229Y-23710D01*
X30236Y-23727D01*
X30311Y-23802D01*
X30311Y-25511D01*
X30327Y-25588D01*
X30370Y-25653D01*
X30451Y-25734D01*
X30433Y-25734D01*
X30337Y-25753D01*
X30256Y-25807D01*
X30256Y-25807D01*
X29862Y-26201D01*
X29808Y-26282D01*
X29789Y-26377D01*
X29789Y-27782D01*
X29764Y-27807D01*
X29714Y-27927D01*
X29714Y-28056D01*
X29763Y-28175D01*
X29855Y-28267D01*
X29974Y-28317D01*
X30103Y-28317D01*
X30223Y-28267D01*
X30314Y-28176D01*
X30364Y-28057D01*
X30364Y-27927D01*
X30315Y-27808D01*
X30289Y-27782D01*
X30289Y-26481D01*
X30536Y-26234D01*
X30609Y-26234D01*
X30618Y-26254D01*
X30744Y-26381D01*
X30910Y-26449D01*
X31089Y-26450D01*
X31254Y-26381D01*
X31381Y-26255D01*
X31449Y-26089D01*
X31450Y-25910D01*
X31450Y-31326D01*
X31450Y-31326D01*
X31450Y-27270D01*
X31450Y-26670D01*
X31427Y-26615D01*
X31385Y-26572D01*
X31329Y-26550D01*
X31270Y-26549D01*
X30670Y-26549D01*
X30615Y-26572D01*
X30572Y-26614D01*
X30550Y-26670D01*
X30549Y-26729D01*
X30549Y-27329D01*
X30572Y-27384D01*
X30614Y-27427D01*
X30670Y-27449D01*
X30729Y-27450D01*
X30800Y-27450D01*
X30800Y-28129D01*
X30468Y-28461D01*
X29616Y-28461D01*
X29616Y-27219D01*
X29616Y-26332D01*
X29554Y-26270D01*
X28591Y-26270D01*
X28591Y-27357D01*
X28654Y-27420D01*
X29317Y-27420D01*
X29416Y-27420D01*
X29508Y-27382D01*
X29578Y-27311D01*
X29616Y-27219D01*
X29616Y-28461D01*
X29409Y-28461D01*
X29345Y-28474D01*
X29332Y-28476D01*
X29268Y-28519D01*
X28979Y-28808D01*
X28872Y-28808D01*
X28753Y-28858D01*
X28661Y-28949D01*
X28612Y-29068D01*
X28611Y-29198D01*
X28661Y-29317D01*
X28752Y-29409D01*
X28872Y-29458D01*
X29001Y-29458D01*
X29120Y-29409D01*
X29212Y-29318D01*
X29261Y-29198D01*
X29262Y-29091D01*
X29492Y-28861D01*
X30551Y-28861D01*
X30627Y-28846D01*
X30692Y-28802D01*
X31141Y-28354D01*
X31141Y-28354D01*
X31170Y-28310D01*
X31184Y-28289D01*
X31184Y-28289D01*
X31199Y-28212D01*
X31200Y-28212D01*
X31200Y-27450D01*
X31329Y-27450D01*
X31384Y-27427D01*
X31427Y-27385D01*
X31449Y-27329D01*
X31450Y-27270D01*
X31450Y-31326D01*
X29921Y-31326D01*
X28491Y-31326D01*
X28491Y-27357D01*
X28491Y-26270D01*
X27529Y-26270D01*
X27466Y-26332D01*
X27466Y-27219D01*
X27504Y-27311D01*
X27574Y-27382D01*
X27666Y-27420D01*
X27766Y-27420D01*
X28429Y-27420D01*
X28491Y-27357D01*
X28491Y-31326D01*
X27561Y-31326D01*
X27561Y-29340D01*
X27561Y-29206D01*
X27499Y-29144D01*
X27136Y-29144D01*
X27136Y-29478D01*
X27199Y-29541D01*
X27262Y-29541D01*
X27361Y-29541D01*
X27453Y-29503D01*
X27523Y-29432D01*
X27561Y-29340D01*
X27561Y-31326D01*
X27036Y-31326D01*
X27036Y-29478D01*
X27036Y-29144D01*
X27036Y-29044D01*
X27036Y-28710D01*
X26974Y-28647D01*
X26911Y-28647D01*
X26811Y-28647D01*
X26719Y-28685D01*
X26649Y-28756D01*
X26611Y-28848D01*
X26611Y-28981D01*
X26674Y-29044D01*
X27036Y-29044D01*
X27036Y-29144D01*
X26674Y-29144D01*
X26611Y-29206D01*
X26611Y-29340D01*
X26649Y-29432D01*
X26719Y-29503D01*
X26811Y-29541D01*
X26911Y-29541D01*
X26974Y-29541D01*
X27036Y-29478D01*
X27036Y-31326D01*
X26301Y-31326D01*
X26301Y-29340D01*
X26301Y-28848D01*
X26263Y-28756D01*
X26193Y-28685D01*
X26101Y-28647D01*
X26002Y-28647D01*
X25939Y-28647D01*
X25876Y-28710D01*
X25876Y-29044D01*
X26239Y-29044D01*
X26301Y-28981D01*
X26301Y-28848D01*
X26301Y-29340D01*
X26301Y-29206D01*
X26239Y-29144D01*
X25876Y-29144D01*
X25876Y-29478D01*
X25939Y-29541D01*
X26002Y-29541D01*
X26101Y-29541D01*
X26193Y-29503D01*
X26263Y-29432D01*
X26301Y-29340D01*
X26301Y-31326D01*
X25776Y-31326D01*
X25776Y-29478D01*
X25776Y-29144D01*
X25768Y-29144D01*
X25768Y-29044D01*
X25776Y-29044D01*
X25776Y-28710D01*
X25714Y-28647D01*
X25651Y-28647D01*
X25551Y-28647D01*
X25459Y-28685D01*
X25449Y-28696D01*
X25340Y-28651D01*
X25211Y-28651D01*
X25091Y-28700D01*
X25000Y-28792D01*
X24950Y-28911D01*
X24950Y-28933D01*
X24374Y-28933D01*
X24301Y-28861D01*
X24301Y-28754D01*
X24252Y-28635D01*
X24160Y-28543D01*
X24041Y-28493D01*
X23912Y-28493D01*
X23792Y-28543D01*
X23701Y-28634D01*
X23651Y-28753D01*
X23651Y-28883D01*
X23700Y-29002D01*
X23792Y-29094D01*
X23911Y-29143D01*
X24018Y-29143D01*
X24149Y-29275D01*
X24149Y-29275D01*
X24214Y-29318D01*
X24214Y-29318D01*
X24227Y-29321D01*
X24291Y-29333D01*
X25118Y-29333D01*
X25194Y-29318D01*
X25220Y-29301D01*
X25339Y-29301D01*
X25351Y-29296D01*
X25351Y-29340D01*
X25389Y-29432D01*
X25459Y-29503D01*
X25551Y-29541D01*
X25651Y-29541D01*
X25714Y-29541D01*
X25776Y-29478D01*
X25776Y-31326D01*
X23124Y-31326D01*
X23124Y-27065D01*
X23124Y-26714D01*
X23123Y-26614D01*
X23085Y-26522D01*
X23015Y-26452D01*
X22923Y-26414D01*
X22789Y-26414D01*
X22727Y-26477D01*
X22727Y-26839D01*
X23061Y-26839D01*
X23124Y-26777D01*
X23124Y-26714D01*
X23124Y-27065D01*
X23124Y-27002D01*
X23061Y-26939D01*
X22727Y-26939D01*
X22727Y-27302D01*
X22789Y-27364D01*
X22923Y-27364D01*
X23015Y-27326D01*
X23085Y-27256D01*
X23123Y-27164D01*
X23124Y-27065D01*
X23124Y-31326D01*
X22805Y-31326D01*
X22805Y-28754D01*
X22755Y-28635D01*
X22664Y-28543D01*
X22627Y-28527D01*
X22627Y-27302D01*
X22627Y-26939D01*
X22619Y-26939D01*
X22619Y-26839D01*
X22627Y-26839D01*
X22627Y-26477D01*
X22564Y-26414D01*
X22430Y-26414D01*
X22338Y-26452D01*
X22268Y-26522D01*
X22253Y-26558D01*
X22231Y-26535D01*
X22112Y-26486D01*
X21982Y-26485D01*
X21863Y-26535D01*
X21787Y-26611D01*
X21772Y-26611D01*
X21766Y-26605D01*
X21711Y-26582D01*
X21651Y-26582D01*
X21201Y-26582D01*
X21198Y-26583D01*
X21198Y-26446D01*
X21198Y-25994D01*
X20969Y-25994D01*
X20907Y-26057D01*
X20907Y-26209D01*
X20907Y-26309D01*
X20945Y-26401D01*
X21015Y-26471D01*
X21107Y-26509D01*
X21136Y-26509D01*
X21198Y-26446D01*
X21198Y-26583D01*
X21146Y-26605D01*
X21104Y-26647D01*
X21081Y-26702D01*
X21081Y-26761D01*
X21081Y-27155D01*
X21104Y-27210D01*
X21146Y-27253D01*
X21201Y-27275D01*
X21261Y-27276D01*
X21711Y-27276D01*
X21766Y-27253D01*
X21808Y-27211D01*
X21831Y-27155D01*
X21831Y-27096D01*
X21831Y-27055D01*
X21862Y-27086D01*
X21982Y-27135D01*
X22111Y-27136D01*
X22230Y-27087D01*
X22230Y-27164D01*
X22268Y-27256D01*
X22338Y-27326D01*
X22430Y-27364D01*
X22564Y-27364D01*
X22627Y-27302D01*
X22627Y-28527D01*
X22545Y-28493D01*
X22415Y-28493D01*
X22296Y-28543D01*
X22220Y-28618D01*
X21933Y-28618D01*
X21656Y-28342D01*
X21656Y-28102D01*
X21711Y-28102D01*
X21766Y-28079D01*
X21808Y-28037D01*
X21831Y-27982D01*
X21831Y-27923D01*
X21831Y-27529D01*
X21808Y-27474D01*
X21766Y-27431D01*
X21711Y-27409D01*
X21651Y-27409D01*
X21201Y-27409D01*
X21146Y-27431D01*
X21104Y-27473D01*
X21081Y-27529D01*
X21081Y-27588D01*
X21081Y-27982D01*
X21104Y-28037D01*
X21146Y-28079D01*
X21201Y-28102D01*
X21256Y-28102D01*
X21256Y-28425D01*
X21271Y-28501D01*
X21315Y-28566D01*
X21708Y-28960D01*
X21708Y-28960D01*
X21752Y-28989D01*
X21773Y-29003D01*
X21773Y-29003D01*
X21850Y-29018D01*
X22220Y-29018D01*
X22295Y-29094D01*
X22415Y-29143D01*
X22544Y-29143D01*
X22664Y-29094D01*
X22755Y-29003D01*
X22805Y-28883D01*
X22805Y-28754D01*
X22805Y-31326D01*
X18450Y-31326D01*
X18450Y-26910D01*
X18450Y-25910D01*
X18450Y-24910D01*
X18450Y-23910D01*
X18450Y-22910D01*
X18450Y-21910D01*
X18450Y-20910D01*
X18450Y-19910D01*
X18450Y-18910D01*
X18381Y-18745D01*
X18255Y-18618D01*
X18089Y-18550D01*
X17910Y-18549D01*
X17745Y-18618D01*
X17618Y-18744D01*
X17550Y-18910D01*
X17549Y-19089D01*
X17618Y-19254D01*
X17744Y-19381D01*
X17910Y-19449D01*
X18089Y-19450D01*
X18254Y-19381D01*
X18381Y-19255D01*
X18449Y-19089D01*
X18450Y-18910D01*
X18450Y-19910D01*
X18381Y-19745D01*
X18255Y-19618D01*
X18089Y-19550D01*
X17910Y-19549D01*
X17745Y-19618D01*
X17618Y-19744D01*
X17550Y-19910D01*
X17549Y-20089D01*
X17618Y-20254D01*
X17744Y-20381D01*
X17910Y-20449D01*
X18089Y-20450D01*
X18254Y-20381D01*
X18381Y-20255D01*
X18449Y-20089D01*
X18450Y-19910D01*
X18450Y-20910D01*
X18381Y-20745D01*
X18255Y-20618D01*
X18089Y-20550D01*
X17910Y-20549D01*
X17745Y-20618D01*
X17618Y-20744D01*
X17550Y-20910D01*
X17549Y-21089D01*
X17618Y-21254D01*
X17744Y-21381D01*
X17910Y-21449D01*
X18089Y-21450D01*
X18254Y-21381D01*
X18381Y-21255D01*
X18449Y-21089D01*
X18450Y-20910D01*
X18450Y-21910D01*
X18381Y-21745D01*
X18255Y-21618D01*
X18089Y-21550D01*
X17910Y-21549D01*
X17745Y-21618D01*
X17618Y-21744D01*
X17550Y-21910D01*
X17549Y-22089D01*
X17618Y-22254D01*
X17744Y-22381D01*
X17910Y-22449D01*
X18089Y-22450D01*
X18254Y-22381D01*
X18381Y-22255D01*
X18449Y-22089D01*
X18450Y-21910D01*
X18450Y-22910D01*
X18381Y-22745D01*
X18255Y-22618D01*
X18089Y-22550D01*
X17910Y-22549D01*
X17745Y-22618D01*
X17618Y-22744D01*
X17550Y-22910D01*
X17549Y-23089D01*
X17618Y-23254D01*
X17744Y-23381D01*
X17910Y-23449D01*
X18089Y-23450D01*
X18254Y-23381D01*
X18381Y-23255D01*
X18449Y-23089D01*
X18450Y-22910D01*
X18450Y-23910D01*
X18381Y-23745D01*
X18255Y-23618D01*
X18089Y-23550D01*
X17910Y-23549D01*
X17745Y-23618D01*
X17618Y-23744D01*
X17550Y-23910D01*
X17549Y-24089D01*
X17618Y-24254D01*
X17744Y-24381D01*
X17910Y-24449D01*
X18089Y-24450D01*
X18254Y-24381D01*
X18381Y-24255D01*
X18449Y-24089D01*
X18450Y-23910D01*
X18450Y-24910D01*
X18381Y-24745D01*
X18255Y-24618D01*
X18089Y-24550D01*
X17910Y-24549D01*
X17745Y-24618D01*
X17618Y-24744D01*
X17550Y-24910D01*
X17549Y-25089D01*
X17618Y-25254D01*
X17744Y-25381D01*
X17910Y-25449D01*
X18089Y-25450D01*
X18254Y-25381D01*
X18381Y-25255D01*
X18449Y-25089D01*
X18450Y-24910D01*
X18450Y-25910D01*
X18381Y-25745D01*
X18255Y-25618D01*
X18089Y-25550D01*
X17910Y-25549D01*
X17745Y-25618D01*
X17618Y-25744D01*
X17550Y-25910D01*
X17549Y-26089D01*
X17618Y-26254D01*
X17744Y-26381D01*
X17910Y-26449D01*
X18089Y-26450D01*
X18254Y-26381D01*
X18381Y-26255D01*
X18449Y-26089D01*
X18450Y-25910D01*
X18450Y-26910D01*
X18381Y-26745D01*
X18255Y-26618D01*
X18089Y-26550D01*
X17910Y-26549D01*
X17745Y-26618D01*
X17618Y-26744D01*
X17550Y-26910D01*
X17549Y-27089D01*
X17618Y-27254D01*
X17744Y-27381D01*
X17910Y-27449D01*
X18089Y-27450D01*
X18254Y-27381D01*
X18381Y-27255D01*
X18449Y-27089D01*
X18450Y-26910D01*
X18450Y-31326D01*
X18110Y-31326D01*
X17492Y-31326D01*
X17492Y-16224D01*
X17518Y-16287D01*
X17614Y-16315D01*
X17929Y-16000D01*
X17614Y-15684D01*
X17518Y-15712D01*
X17492Y-15785D01*
X17492Y-11980D01*
X18110Y-11980D01*
X29921Y-11980D01*
X31720Y-11980D01*
X31720Y-31326D01*
M02*
