G04 (created by PCBNEW (2013-07-07 BZR 4022)-stable) date 2015/10/26 20:25:39*
%MOIN*%
G04 Gerber Fmt 3.4, Leading zero omitted, Abs format*
%FSLAX34Y34*%
G01*
G70*
G90*
G04 APERTURE LIST*
%ADD10C,0.00590551*%
%ADD11R,0.0629921X0.11811*%
%ADD12R,0.19X0.165*%
%ADD13R,0.06X0.06*%
%ADD14C,0.06*%
%ADD15R,0.0393701X0.045*%
%ADD16R,0.045X0.0393701*%
%ADD17C,0.177165*%
%ADD18C,0.035*%
G04 APERTURE END LIST*
G54D10*
G54D11*
X22942Y-24959D03*
X25057Y-24959D03*
G54D12*
X24000Y-27375D03*
G54D13*
X31000Y-27000D03*
G54D14*
X31000Y-26000D03*
X31000Y-25000D03*
X31000Y-24000D03*
X31000Y-23000D03*
X31000Y-22000D03*
X31000Y-21000D03*
X31000Y-20000D03*
X31000Y-19000D03*
X31000Y-18000D03*
X31000Y-17000D03*
X31000Y-16000D03*
X31000Y-15000D03*
X31000Y-14000D03*
X31000Y-13000D03*
G54D13*
X18000Y-13000D03*
G54D14*
X18000Y-14000D03*
X18000Y-15000D03*
X18000Y-16000D03*
X18000Y-17000D03*
X18000Y-18000D03*
X18000Y-19000D03*
X18000Y-20000D03*
X18000Y-21000D03*
X18000Y-22000D03*
X18000Y-23000D03*
X18000Y-24000D03*
X18000Y-25000D03*
X18000Y-26000D03*
X18000Y-27000D03*
G54D15*
X29488Y-14133D03*
X28661Y-14133D03*
X26193Y-21600D03*
X25366Y-21600D03*
X22204Y-17952D03*
X23031Y-17952D03*
X22244Y-14173D03*
X23070Y-14173D03*
X29488Y-13149D03*
X28661Y-13149D03*
X23743Y-12800D03*
X22916Y-12800D03*
X24956Y-12800D03*
X25783Y-12800D03*
G54D16*
X26496Y-28425D03*
X26496Y-29251D03*
G54D15*
X26193Y-20850D03*
X25366Y-20850D03*
X26193Y-22350D03*
X25366Y-22350D03*
X26193Y-23100D03*
X25366Y-23100D03*
G54D16*
X21450Y-27743D03*
X21450Y-26916D03*
X26600Y-18093D03*
X26600Y-17266D03*
G54D15*
X24656Y-17700D03*
X25483Y-17700D03*
X24656Y-18450D03*
X25483Y-18450D03*
G54D16*
X26023Y-25000D03*
X26023Y-24173D03*
G54D15*
X22992Y-23740D03*
X23818Y-23740D03*
G54D17*
X30314Y-29921D03*
X18897Y-29921D03*
G54D18*
X29645Y-25905D03*
X21456Y-28267D03*
X25196Y-12834D03*
X26377Y-25433D03*
X26220Y-23464D03*
X26889Y-28700D03*
X29448Y-15078D03*
X23503Y-12952D03*
X24645Y-18149D03*
X26614Y-18425D03*
X24656Y-17294D03*
X26496Y-17952D03*
X27204Y-19881D03*
X27677Y-19842D03*
X28188Y-20039D03*
X28149Y-18307D03*
X28149Y-17362D03*
X27165Y-19370D03*
X19291Y-24724D03*
X22244Y-12519D03*
X22283Y-12992D03*
X19645Y-23976D03*
X19330Y-15196D03*
X22795Y-15196D03*
X22795Y-15708D03*
X19724Y-15669D03*
X25748Y-26535D03*
X28543Y-25748D03*
X28858Y-26102D03*
X26141Y-26850D03*
X25748Y-27204D03*
X29094Y-26614D03*
X28818Y-16496D03*
X28149Y-18976D03*
X28622Y-20314D03*
X30275Y-25314D03*
X22795Y-16181D03*
X19724Y-16181D03*
X22716Y-13464D03*
X22716Y-14724D03*
X22795Y-16653D03*
X19724Y-16653D03*
X22795Y-17125D03*
X19724Y-17244D03*
X28228Y-25393D03*
X25393Y-26220D03*
X27165Y-16299D03*
X30433Y-16614D03*
X23346Y-16259D03*
X22244Y-20708D03*
X19251Y-15669D03*
X20157Y-20708D03*
X29133Y-20039D03*
X29133Y-30708D03*
X27952Y-30708D03*
X26771Y-30708D03*
X25590Y-30708D03*
X24409Y-30708D03*
X23228Y-30708D03*
X22047Y-30708D03*
X20866Y-30708D03*
X20393Y-15433D03*
X20393Y-16968D03*
X20393Y-14409D03*
X28149Y-15433D03*
X28149Y-14724D03*
X25196Y-18937D03*
X25472Y-17125D03*
X26417Y-12795D03*
X18897Y-19291D03*
X28464Y-28031D03*
X23543Y-19606D03*
X23425Y-21535D03*
X27086Y-23937D03*
X23425Y-15118D03*
X26968Y-22598D03*
X21062Y-25708D03*
X21023Y-28700D03*
X26600Y-16796D03*
X21338Y-22755D03*
X21574Y-23976D03*
X20984Y-26929D03*
X28267Y-14133D03*
X28267Y-13149D03*
X24960Y-21614D03*
X24921Y-22086D03*
X25000Y-23031D03*
X21771Y-13740D03*
X21771Y-17992D03*
X25118Y-20866D03*
M02*
