G04 (created by PCBNEW (2013-07-07 BZR 4022)-stable) date 2015/10/29 19:57:24*
%MOIN*%
G04 Gerber Fmt 3.4, Leading zero omitted, Abs format*
%FSLAX34Y34*%
G01*
G70*
G90*
G04 APERTURE LIST*
%ADD10C,0.00590551*%
%ADD11C,0.00688976*%
%ADD12C,0.00393701*%
%ADD13C,0.00787402*%
%ADD14C,0.006*%
%ADD15C,0.008*%
%ADD16C,0.0045*%
%ADD17R,0.23622X0.0787402*%
%ADD18R,0.06X0.06*%
%ADD19C,0.06*%
%ADD20R,0.0708661X0.0299213*%
%ADD21R,0.0393701X0.045*%
%ADD22R,0.0787402X0.0354331*%
%ADD23R,0.0472441X0.0275591*%
%ADD24C,0.177165*%
%ADD25C,0.035*%
G04 APERTURE END LIST*
G54D10*
G54D11*
X29763Y-19835D02*
X29895Y-19835D01*
X29737Y-19914D02*
X29829Y-19639D01*
X29921Y-19914D01*
X30131Y-19730D02*
X30131Y-19914D01*
X30065Y-19625D02*
X30000Y-19822D01*
X30170Y-19822D01*
X29625Y-20356D02*
X29665Y-20369D01*
X29730Y-20369D01*
X29757Y-20356D01*
X29770Y-20343D01*
X29783Y-20316D01*
X29783Y-20290D01*
X29770Y-20264D01*
X29757Y-20251D01*
X29730Y-20238D01*
X29678Y-20225D01*
X29652Y-20211D01*
X29639Y-20198D01*
X29625Y-20172D01*
X29625Y-20146D01*
X29639Y-20120D01*
X29652Y-20106D01*
X29678Y-20093D01*
X29744Y-20093D01*
X29783Y-20106D01*
X29901Y-20369D02*
X29901Y-20093D01*
X29967Y-20093D01*
X30006Y-20106D01*
X30032Y-20133D01*
X30045Y-20159D01*
X30059Y-20211D01*
X30059Y-20251D01*
X30045Y-20303D01*
X30032Y-20330D01*
X30006Y-20356D01*
X29967Y-20369D01*
X29901Y-20369D01*
X30164Y-20290D02*
X30295Y-20290D01*
X30137Y-20369D02*
X30229Y-20093D01*
X30321Y-20369D01*
X29763Y-18812D02*
X29895Y-18812D01*
X29737Y-18891D02*
X29829Y-18615D01*
X29921Y-18891D01*
X30144Y-18615D02*
X30013Y-18615D01*
X30000Y-18746D01*
X30013Y-18733D01*
X30039Y-18720D01*
X30104Y-18720D01*
X30131Y-18733D01*
X30144Y-18746D01*
X30157Y-18772D01*
X30157Y-18838D01*
X30144Y-18864D01*
X30131Y-18877D01*
X30104Y-18891D01*
X30039Y-18891D01*
X30013Y-18877D01*
X30000Y-18864D01*
X29632Y-19332D02*
X29671Y-19345D01*
X29737Y-19345D01*
X29763Y-19332D01*
X29776Y-19319D01*
X29790Y-19293D01*
X29790Y-19267D01*
X29776Y-19240D01*
X29763Y-19227D01*
X29737Y-19214D01*
X29685Y-19201D01*
X29658Y-19188D01*
X29645Y-19175D01*
X29632Y-19148D01*
X29632Y-19122D01*
X29645Y-19096D01*
X29658Y-19083D01*
X29685Y-19070D01*
X29750Y-19070D01*
X29790Y-19083D01*
X30065Y-19319D02*
X30052Y-19332D01*
X30013Y-19345D01*
X29986Y-19345D01*
X29947Y-19332D01*
X29921Y-19306D01*
X29908Y-19280D01*
X29895Y-19227D01*
X29895Y-19188D01*
X29908Y-19135D01*
X29921Y-19109D01*
X29947Y-19083D01*
X29986Y-19070D01*
X30013Y-19070D01*
X30052Y-19083D01*
X30065Y-19096D01*
X30314Y-19345D02*
X30183Y-19345D01*
X30183Y-19070D01*
X29586Y-26922D02*
X29586Y-26646D01*
X29652Y-26646D01*
X29691Y-26660D01*
X29717Y-26686D01*
X29730Y-26712D01*
X29744Y-26765D01*
X29744Y-26804D01*
X29730Y-26856D01*
X29717Y-26883D01*
X29691Y-26909D01*
X29652Y-26922D01*
X29586Y-26922D01*
X30006Y-26922D02*
X29849Y-26922D01*
X29927Y-26922D02*
X29927Y-26646D01*
X29901Y-26686D01*
X29875Y-26712D01*
X29849Y-26725D01*
X30098Y-26646D02*
X30269Y-26646D01*
X30177Y-26751D01*
X30216Y-26751D01*
X30242Y-26765D01*
X30255Y-26778D01*
X30269Y-26804D01*
X30269Y-26870D01*
X30255Y-26896D01*
X30242Y-26909D01*
X30216Y-26922D01*
X30137Y-26922D01*
X30111Y-26909D01*
X30098Y-26896D01*
X29566Y-27364D02*
X29606Y-27377D01*
X29671Y-27377D01*
X29698Y-27364D01*
X29711Y-27351D01*
X29724Y-27324D01*
X29724Y-27298D01*
X29711Y-27272D01*
X29698Y-27259D01*
X29671Y-27246D01*
X29619Y-27232D01*
X29593Y-27219D01*
X29580Y-27206D01*
X29566Y-27180D01*
X29566Y-27154D01*
X29580Y-27127D01*
X29593Y-27114D01*
X29619Y-27101D01*
X29685Y-27101D01*
X29724Y-27114D01*
X30000Y-27351D02*
X29986Y-27364D01*
X29947Y-27377D01*
X29921Y-27377D01*
X29881Y-27364D01*
X29855Y-27337D01*
X29842Y-27311D01*
X29829Y-27259D01*
X29829Y-27219D01*
X29842Y-27167D01*
X29855Y-27141D01*
X29881Y-27114D01*
X29921Y-27101D01*
X29947Y-27101D01*
X29986Y-27114D01*
X30000Y-27127D01*
X30118Y-27377D02*
X30118Y-27101D01*
X30275Y-27377D02*
X30157Y-27219D01*
X30275Y-27101D02*
X30118Y-27259D01*
X18759Y-12040D02*
X18759Y-12106D01*
X18694Y-12080D02*
X18759Y-12106D01*
X18825Y-12080D01*
X18720Y-12158D02*
X18759Y-12106D01*
X18799Y-12158D01*
X19140Y-12290D02*
X19153Y-12303D01*
X19140Y-12316D01*
X19127Y-12303D01*
X19140Y-12290D01*
X19140Y-12316D01*
X19140Y-12145D02*
X19153Y-12158D01*
X19140Y-12171D01*
X19127Y-12158D01*
X19140Y-12145D01*
X19140Y-12171D01*
X19481Y-12132D02*
X19481Y-12408D01*
X19481Y-12145D02*
X19507Y-12132D01*
X19560Y-12132D01*
X19586Y-12145D01*
X19599Y-12158D01*
X19612Y-12185D01*
X19612Y-12263D01*
X19599Y-12290D01*
X19586Y-12303D01*
X19560Y-12316D01*
X19507Y-12316D01*
X19481Y-12303D01*
X19704Y-12132D02*
X19757Y-12316D01*
X19809Y-12185D01*
X19862Y-12316D01*
X19914Y-12132D01*
X20019Y-12316D02*
X20019Y-12132D01*
X20019Y-12158D02*
X20032Y-12145D01*
X20059Y-12132D01*
X20098Y-12132D01*
X20124Y-12145D01*
X20137Y-12171D01*
X20137Y-12316D01*
X20137Y-12171D02*
X20150Y-12145D01*
X20177Y-12132D01*
X20216Y-12132D01*
X20242Y-12145D01*
X20255Y-12171D01*
X20255Y-12316D01*
G54D12*
X26278Y-15456D02*
X26372Y-15456D01*
X26259Y-15512D02*
X26325Y-15315D01*
X26391Y-15512D01*
X26428Y-15315D02*
X26494Y-15512D01*
X26559Y-15315D01*
X26737Y-15512D02*
X26672Y-15419D01*
X26625Y-15512D02*
X26625Y-15315D01*
X26700Y-15315D01*
X26719Y-15325D01*
X26728Y-15334D01*
X26737Y-15353D01*
X26737Y-15381D01*
X26728Y-15400D01*
X26719Y-15409D01*
X26700Y-15419D01*
X26625Y-15419D01*
X27084Y-15512D02*
X27019Y-15419D01*
X26972Y-15512D02*
X26972Y-15315D01*
X27047Y-15315D01*
X27065Y-15325D01*
X27075Y-15334D01*
X27084Y-15353D01*
X27084Y-15381D01*
X27075Y-15400D01*
X27065Y-15409D01*
X27047Y-15419D01*
X26972Y-15419D01*
X27159Y-15503D02*
X27187Y-15512D01*
X27234Y-15512D01*
X27253Y-15503D01*
X27262Y-15494D01*
X27272Y-15475D01*
X27272Y-15456D01*
X27262Y-15437D01*
X27253Y-15428D01*
X27234Y-15419D01*
X27197Y-15409D01*
X27178Y-15400D01*
X27169Y-15390D01*
X27159Y-15372D01*
X27159Y-15353D01*
X27169Y-15334D01*
X27178Y-15325D01*
X27197Y-15315D01*
X27244Y-15315D01*
X27272Y-15325D01*
X27328Y-15315D02*
X27440Y-15315D01*
X27384Y-15512D02*
X27384Y-15315D01*
X26273Y-17653D02*
X26339Y-17653D01*
X26367Y-17756D02*
X26273Y-17756D01*
X26273Y-17559D01*
X26367Y-17559D01*
X26442Y-17747D02*
X26470Y-17756D01*
X26517Y-17756D01*
X26536Y-17747D01*
X26545Y-17738D01*
X26555Y-17719D01*
X26555Y-17700D01*
X26545Y-17681D01*
X26536Y-17672D01*
X26517Y-17663D01*
X26480Y-17653D01*
X26461Y-17644D01*
X26452Y-17634D01*
X26442Y-17616D01*
X26442Y-17597D01*
X26452Y-17578D01*
X26461Y-17569D01*
X26480Y-17559D01*
X26526Y-17559D01*
X26555Y-17569D01*
X26639Y-17756D02*
X26639Y-17559D01*
X26714Y-17559D01*
X26733Y-17569D01*
X26742Y-17578D01*
X26751Y-17597D01*
X26751Y-17625D01*
X26742Y-17644D01*
X26733Y-17653D01*
X26714Y-17663D01*
X26639Y-17663D01*
X27098Y-17756D02*
X27033Y-17663D01*
X26986Y-17756D02*
X26986Y-17559D01*
X27061Y-17559D01*
X27080Y-17569D01*
X27089Y-17578D01*
X27098Y-17597D01*
X27098Y-17625D01*
X27089Y-17644D01*
X27080Y-17653D01*
X27061Y-17663D01*
X26986Y-17663D01*
X27173Y-17747D02*
X27201Y-17756D01*
X27248Y-17756D01*
X27267Y-17747D01*
X27276Y-17738D01*
X27286Y-17719D01*
X27286Y-17700D01*
X27276Y-17681D01*
X27267Y-17672D01*
X27248Y-17663D01*
X27211Y-17653D01*
X27192Y-17644D01*
X27183Y-17634D01*
X27173Y-17616D01*
X27173Y-17597D01*
X27183Y-17578D01*
X27192Y-17569D01*
X27211Y-17559D01*
X27258Y-17559D01*
X27286Y-17569D01*
X27342Y-17559D02*
X27455Y-17559D01*
X27398Y-17756D02*
X27398Y-17559D01*
G54D13*
X25515Y-20434D02*
X25620Y-20434D01*
X25665Y-20599D02*
X25515Y-20599D01*
X25515Y-20284D01*
X25665Y-20284D01*
X25800Y-20599D02*
X25800Y-20284D01*
X25980Y-20599D01*
X25980Y-20284D01*
X25046Y-20127D02*
X25046Y-19812D01*
X25256Y-19812D02*
X25316Y-19812D01*
X25346Y-19827D01*
X25376Y-19857D01*
X25391Y-19917D01*
X25391Y-20022D01*
X25376Y-20082D01*
X25346Y-20112D01*
X25316Y-20127D01*
X25256Y-20127D01*
X25226Y-20112D01*
X25196Y-20082D01*
X25181Y-20022D01*
X25181Y-19917D01*
X25196Y-19857D01*
X25226Y-19827D01*
X25256Y-19812D01*
X25691Y-20127D02*
X25511Y-20127D01*
X25601Y-20127D02*
X25601Y-19812D01*
X25571Y-19857D01*
X25541Y-19887D01*
X25511Y-19902D01*
X25976Y-19812D02*
X25826Y-19812D01*
X25811Y-19962D01*
X25826Y-19947D01*
X25856Y-19932D01*
X25931Y-19932D01*
X25961Y-19947D01*
X25976Y-19962D01*
X25991Y-19992D01*
X25991Y-20067D01*
X25976Y-20097D01*
X25961Y-20112D01*
X25931Y-20127D01*
X25856Y-20127D01*
X25826Y-20112D01*
X25811Y-20097D01*
X25354Y-19655D02*
X25354Y-19340D01*
X25564Y-19340D02*
X25624Y-19340D01*
X25654Y-19355D01*
X25684Y-19385D01*
X25699Y-19445D01*
X25699Y-19550D01*
X25684Y-19610D01*
X25654Y-19640D01*
X25624Y-19655D01*
X25564Y-19655D01*
X25534Y-19640D01*
X25504Y-19610D01*
X25489Y-19550D01*
X25489Y-19445D01*
X25504Y-19385D01*
X25534Y-19355D01*
X25564Y-19340D01*
X25819Y-19370D02*
X25834Y-19355D01*
X25864Y-19340D01*
X25939Y-19340D01*
X25969Y-19355D01*
X25984Y-19370D01*
X25999Y-19400D01*
X25999Y-19430D01*
X25984Y-19475D01*
X25804Y-19655D01*
X25999Y-19655D01*
X25354Y-19221D02*
X25354Y-18907D01*
X25564Y-18907D02*
X25624Y-18907D01*
X25654Y-18922D01*
X25684Y-18952D01*
X25699Y-19011D01*
X25699Y-19116D01*
X25684Y-19176D01*
X25654Y-19206D01*
X25624Y-19221D01*
X25564Y-19221D01*
X25534Y-19206D01*
X25504Y-19176D01*
X25489Y-19116D01*
X25489Y-19011D01*
X25504Y-18952D01*
X25534Y-18922D01*
X25564Y-18907D01*
X25894Y-18907D02*
X25924Y-18907D01*
X25954Y-18922D01*
X25969Y-18937D01*
X25984Y-18967D01*
X25999Y-19026D01*
X25999Y-19101D01*
X25984Y-19161D01*
X25969Y-19191D01*
X25954Y-19206D01*
X25924Y-19221D01*
X25894Y-19221D01*
X25864Y-19206D01*
X25849Y-19191D01*
X25834Y-19161D01*
X25819Y-19101D01*
X25819Y-19026D01*
X25834Y-18967D01*
X25849Y-18937D01*
X25864Y-18922D01*
X25894Y-18907D01*
X29476Y-12999D02*
X29716Y-12999D01*
X29596Y-13119D02*
X29596Y-12879D01*
X30016Y-12804D02*
X29866Y-12804D01*
X29851Y-12954D01*
X29866Y-12939D01*
X29896Y-12924D01*
X29971Y-12924D01*
X30001Y-12939D01*
X30016Y-12954D01*
X30031Y-12984D01*
X30031Y-13059D01*
X30016Y-13089D01*
X30001Y-13104D01*
X29971Y-13119D01*
X29896Y-13119D01*
X29866Y-13104D01*
X29851Y-13089D01*
X30121Y-12804D02*
X30226Y-13119D01*
X30331Y-12804D01*
X29760Y-13827D02*
X29730Y-13812D01*
X29685Y-13812D01*
X29640Y-13827D01*
X29610Y-13857D01*
X29595Y-13887D01*
X29580Y-13947D01*
X29580Y-13992D01*
X29595Y-14052D01*
X29610Y-14082D01*
X29640Y-14112D01*
X29685Y-14127D01*
X29715Y-14127D01*
X29760Y-14112D01*
X29775Y-14097D01*
X29775Y-13992D01*
X29715Y-13992D01*
X29910Y-14127D02*
X29910Y-13812D01*
X30089Y-14127D01*
X30089Y-13812D01*
X30239Y-14127D02*
X30239Y-13812D01*
X30314Y-13812D01*
X30359Y-13827D01*
X30389Y-13857D01*
X30404Y-13887D01*
X30419Y-13947D01*
X30419Y-13992D01*
X30404Y-14052D01*
X30389Y-14082D01*
X30359Y-14112D01*
X30314Y-14127D01*
X30239Y-14127D01*
X29827Y-15127D02*
X29722Y-14977D01*
X29647Y-15127D02*
X29647Y-14812D01*
X29767Y-14812D01*
X29797Y-14827D01*
X29812Y-14842D01*
X29827Y-14872D01*
X29827Y-14917D01*
X29812Y-14947D01*
X29797Y-14962D01*
X29767Y-14977D01*
X29647Y-14977D01*
X29947Y-15112D02*
X29992Y-15127D01*
X30067Y-15127D01*
X30097Y-15112D01*
X30112Y-15097D01*
X30127Y-15067D01*
X30127Y-15037D01*
X30112Y-15007D01*
X30097Y-14992D01*
X30067Y-14977D01*
X30007Y-14962D01*
X29977Y-14947D01*
X29962Y-14932D01*
X29947Y-14902D01*
X29947Y-14872D01*
X29962Y-14842D01*
X29977Y-14827D01*
X30007Y-14812D01*
X30082Y-14812D01*
X30127Y-14827D01*
X30217Y-14812D02*
X30397Y-14812D01*
X30307Y-15127D02*
X30307Y-14812D01*
X29280Y-15991D02*
X29520Y-15991D01*
X29400Y-16111D02*
X29400Y-15871D01*
X29820Y-15796D02*
X29670Y-15796D01*
X29655Y-15946D01*
X29670Y-15931D01*
X29700Y-15916D01*
X29775Y-15916D01*
X29805Y-15931D01*
X29820Y-15946D01*
X29835Y-15976D01*
X29835Y-16051D01*
X29820Y-16081D01*
X29805Y-16096D01*
X29775Y-16111D01*
X29700Y-16111D01*
X29670Y-16096D01*
X29655Y-16081D01*
X29925Y-15796D02*
X30029Y-16111D01*
X30134Y-15796D01*
X29775Y-17037D02*
X29925Y-17037D01*
X29745Y-17127D02*
X29850Y-16812D01*
X29955Y-17127D01*
X30029Y-16812D02*
X30239Y-16812D01*
X30104Y-17127D01*
X29775Y-18037D02*
X29925Y-18037D01*
X29745Y-18127D02*
X29850Y-17812D01*
X29955Y-18127D01*
X30194Y-17812D02*
X30134Y-17812D01*
X30104Y-17827D01*
X30089Y-17842D01*
X30059Y-17887D01*
X30044Y-17947D01*
X30044Y-18067D01*
X30059Y-18097D01*
X30074Y-18112D01*
X30104Y-18127D01*
X30164Y-18127D01*
X30194Y-18112D01*
X30209Y-18097D01*
X30224Y-18067D01*
X30224Y-17992D01*
X30209Y-17962D01*
X30194Y-17947D01*
X30164Y-17932D01*
X30104Y-17932D01*
X30074Y-17947D01*
X30059Y-17962D01*
X30044Y-17992D01*
X29775Y-21037D02*
X29925Y-21037D01*
X29745Y-21127D02*
X29850Y-20812D01*
X29955Y-21127D01*
X30029Y-20812D02*
X30224Y-20812D01*
X30119Y-20932D01*
X30164Y-20932D01*
X30194Y-20947D01*
X30209Y-20962D01*
X30224Y-20992D01*
X30224Y-21067D01*
X30209Y-21097D01*
X30194Y-21112D01*
X30164Y-21127D01*
X30074Y-21127D01*
X30044Y-21112D01*
X30029Y-21097D01*
X29775Y-22037D02*
X29925Y-22037D01*
X29745Y-22127D02*
X29850Y-21812D01*
X29955Y-22127D01*
X30044Y-21842D02*
X30059Y-21827D01*
X30089Y-21812D01*
X30164Y-21812D01*
X30194Y-21827D01*
X30209Y-21842D01*
X30224Y-21872D01*
X30224Y-21902D01*
X30209Y-21947D01*
X30029Y-22127D01*
X30224Y-22127D01*
X29775Y-23037D02*
X29925Y-23037D01*
X29745Y-23127D02*
X29850Y-22812D01*
X29955Y-23127D01*
X30224Y-23127D02*
X30044Y-23127D01*
X30134Y-23127D02*
X30134Y-22812D01*
X30104Y-22857D01*
X30074Y-22887D01*
X30044Y-22902D01*
X29775Y-24037D02*
X29925Y-24037D01*
X29745Y-24127D02*
X29850Y-23812D01*
X29955Y-24127D01*
X30119Y-23812D02*
X30149Y-23812D01*
X30179Y-23827D01*
X30194Y-23842D01*
X30209Y-23872D01*
X30224Y-23932D01*
X30224Y-24007D01*
X30209Y-24067D01*
X30194Y-24097D01*
X30179Y-24112D01*
X30149Y-24127D01*
X30119Y-24127D01*
X30089Y-24112D01*
X30074Y-24097D01*
X30059Y-24067D01*
X30044Y-24007D01*
X30044Y-23932D01*
X30059Y-23872D01*
X30074Y-23842D01*
X30089Y-23827D01*
X30119Y-23812D01*
X29332Y-25037D02*
X29482Y-25037D01*
X29302Y-25127D02*
X29407Y-24812D01*
X29512Y-25127D01*
X29797Y-25127D02*
X29692Y-24977D01*
X29617Y-25127D02*
X29617Y-24812D01*
X29737Y-24812D01*
X29767Y-24827D01*
X29782Y-24842D01*
X29797Y-24872D01*
X29797Y-24917D01*
X29782Y-24947D01*
X29767Y-24962D01*
X29737Y-24977D01*
X29617Y-24977D01*
X29932Y-24962D02*
X30037Y-24962D01*
X30082Y-25127D02*
X29932Y-25127D01*
X29932Y-24812D01*
X30082Y-24812D01*
X30322Y-24962D02*
X30217Y-24962D01*
X30217Y-25127D02*
X30217Y-24812D01*
X30367Y-24812D01*
X29015Y-26031D02*
X29255Y-26031D01*
X29135Y-26151D02*
X29135Y-25911D01*
X29375Y-25836D02*
X29570Y-25836D01*
X29465Y-25956D01*
X29510Y-25956D01*
X29540Y-25971D01*
X29555Y-25986D01*
X29570Y-26016D01*
X29570Y-26091D01*
X29555Y-26121D01*
X29540Y-26136D01*
X29510Y-26151D01*
X29420Y-26151D01*
X29390Y-26136D01*
X29375Y-26121D01*
X29705Y-26121D02*
X29720Y-26136D01*
X29705Y-26151D01*
X29690Y-26136D01*
X29705Y-26121D01*
X29705Y-26151D01*
X29825Y-25836D02*
X30020Y-25836D01*
X29915Y-25956D01*
X29960Y-25956D01*
X29990Y-25971D01*
X30005Y-25986D01*
X30020Y-26016D01*
X30020Y-26091D01*
X30005Y-26121D01*
X29990Y-26136D01*
X29960Y-26151D01*
X29870Y-26151D01*
X29840Y-26136D01*
X29825Y-26121D01*
X30110Y-25836D02*
X30215Y-26151D01*
X30320Y-25836D01*
G54D11*
X18772Y-26922D02*
X18772Y-26646D01*
X18838Y-26646D01*
X18877Y-26660D01*
X18904Y-26686D01*
X18917Y-26712D01*
X18930Y-26765D01*
X18930Y-26804D01*
X18917Y-26856D01*
X18904Y-26883D01*
X18877Y-26909D01*
X18838Y-26922D01*
X18772Y-26922D01*
X19192Y-26922D02*
X19035Y-26922D01*
X19114Y-26922D02*
X19114Y-26646D01*
X19087Y-26686D01*
X19061Y-26712D01*
X19035Y-26725D01*
X19297Y-26673D02*
X19311Y-26660D01*
X19337Y-26646D01*
X19402Y-26646D01*
X19429Y-26660D01*
X19442Y-26673D01*
X19455Y-26699D01*
X19455Y-26725D01*
X19442Y-26765D01*
X19284Y-26922D01*
X19455Y-26922D01*
X19612Y-26646D02*
X19612Y-26712D01*
X19547Y-26686D02*
X19612Y-26712D01*
X19678Y-26686D01*
X19573Y-26765D02*
X19612Y-26712D01*
X19652Y-26765D01*
X18779Y-27377D02*
X18779Y-27101D01*
X18871Y-27298D01*
X18963Y-27101D01*
X18963Y-27377D01*
X19094Y-27377D02*
X19094Y-27101D01*
X19212Y-27364D02*
X19251Y-27377D01*
X19317Y-27377D01*
X19343Y-27364D01*
X19356Y-27351D01*
X19370Y-27324D01*
X19370Y-27298D01*
X19356Y-27272D01*
X19343Y-27259D01*
X19317Y-27246D01*
X19265Y-27232D01*
X19238Y-27219D01*
X19225Y-27206D01*
X19212Y-27180D01*
X19212Y-27154D01*
X19225Y-27127D01*
X19238Y-27114D01*
X19265Y-27101D01*
X19330Y-27101D01*
X19370Y-27114D01*
X19540Y-27101D02*
X19593Y-27101D01*
X19619Y-27114D01*
X19645Y-27141D01*
X19658Y-27193D01*
X19658Y-27285D01*
X19645Y-27337D01*
X19619Y-27364D01*
X19593Y-27377D01*
X19540Y-27377D01*
X19514Y-27364D01*
X19488Y-27337D01*
X19475Y-27285D01*
X19475Y-27193D01*
X19488Y-27141D01*
X19514Y-27114D01*
X19540Y-27101D01*
X18772Y-25859D02*
X18772Y-25583D01*
X18838Y-25583D01*
X18877Y-25597D01*
X18904Y-25623D01*
X18917Y-25649D01*
X18930Y-25702D01*
X18930Y-25741D01*
X18917Y-25793D01*
X18904Y-25820D01*
X18877Y-25846D01*
X18838Y-25859D01*
X18772Y-25859D01*
X19192Y-25859D02*
X19035Y-25859D01*
X19114Y-25859D02*
X19114Y-25583D01*
X19087Y-25623D01*
X19061Y-25649D01*
X19035Y-25662D01*
X19455Y-25859D02*
X19297Y-25859D01*
X19376Y-25859D02*
X19376Y-25583D01*
X19350Y-25623D01*
X19324Y-25649D01*
X19297Y-25662D01*
X19612Y-25583D02*
X19612Y-25649D01*
X19547Y-25623D02*
X19612Y-25649D01*
X19678Y-25623D01*
X19573Y-25702D02*
X19612Y-25649D01*
X19652Y-25702D01*
X18779Y-26314D02*
X18779Y-26038D01*
X18871Y-26235D01*
X18963Y-26038D01*
X18963Y-26314D01*
X19146Y-26038D02*
X19199Y-26038D01*
X19225Y-26051D01*
X19251Y-26078D01*
X19265Y-26130D01*
X19265Y-26222D01*
X19251Y-26274D01*
X19225Y-26301D01*
X19199Y-26314D01*
X19146Y-26314D01*
X19120Y-26301D01*
X19094Y-26274D01*
X19081Y-26222D01*
X19081Y-26130D01*
X19094Y-26078D01*
X19120Y-26051D01*
X19146Y-26038D01*
X19370Y-26301D02*
X19409Y-26314D01*
X19475Y-26314D01*
X19501Y-26301D01*
X19514Y-26288D01*
X19527Y-26261D01*
X19527Y-26235D01*
X19514Y-26209D01*
X19501Y-26196D01*
X19475Y-26183D01*
X19422Y-26169D01*
X19396Y-26156D01*
X19383Y-26143D01*
X19370Y-26117D01*
X19370Y-26091D01*
X19383Y-26064D01*
X19396Y-26051D01*
X19422Y-26038D01*
X19488Y-26038D01*
X19527Y-26051D01*
X19645Y-26314D02*
X19645Y-26038D01*
G54D13*
X18790Y-25127D02*
X18790Y-24812D01*
X18865Y-24812D01*
X18910Y-24827D01*
X18940Y-24857D01*
X18955Y-24887D01*
X18970Y-24947D01*
X18970Y-24992D01*
X18955Y-25052D01*
X18940Y-25082D01*
X18910Y-25112D01*
X18865Y-25127D01*
X18790Y-25127D01*
X19270Y-25127D02*
X19090Y-25127D01*
X19180Y-25127D02*
X19180Y-24812D01*
X19150Y-24857D01*
X19120Y-24887D01*
X19090Y-24902D01*
X19465Y-24812D02*
X19495Y-24812D01*
X19525Y-24827D01*
X19540Y-24842D01*
X19555Y-24872D01*
X19570Y-24932D01*
X19570Y-25007D01*
X19555Y-25067D01*
X19540Y-25097D01*
X19525Y-25112D01*
X19495Y-25127D01*
X19465Y-25127D01*
X19435Y-25112D01*
X19420Y-25097D01*
X19405Y-25067D01*
X19390Y-25007D01*
X19390Y-24932D01*
X19405Y-24872D01*
X19420Y-24842D01*
X19435Y-24827D01*
X19465Y-24812D01*
X18781Y-24143D02*
X18781Y-23828D01*
X18856Y-23828D01*
X18901Y-23843D01*
X18931Y-23873D01*
X18946Y-23903D01*
X18961Y-23963D01*
X18961Y-24008D01*
X18946Y-24068D01*
X18931Y-24098D01*
X18901Y-24128D01*
X18856Y-24143D01*
X18781Y-24143D01*
X19111Y-24143D02*
X19171Y-24143D01*
X19201Y-24128D01*
X19216Y-24113D01*
X19246Y-24068D01*
X19261Y-24008D01*
X19261Y-23888D01*
X19246Y-23858D01*
X19231Y-23843D01*
X19201Y-23828D01*
X19141Y-23828D01*
X19111Y-23843D01*
X19096Y-23858D01*
X19081Y-23888D01*
X19081Y-23963D01*
X19096Y-23993D01*
X19111Y-24008D01*
X19141Y-24023D01*
X19201Y-24023D01*
X19231Y-24008D01*
X19246Y-23993D01*
X19261Y-23963D01*
X19441Y-23828D02*
X19441Y-23903D01*
X19366Y-23873D02*
X19441Y-23903D01*
X19516Y-23873D01*
X19396Y-23963D02*
X19441Y-23903D01*
X19486Y-23963D01*
X18767Y-23127D02*
X18767Y-22812D01*
X18842Y-22812D01*
X18887Y-22827D01*
X18917Y-22857D01*
X18932Y-22887D01*
X18947Y-22947D01*
X18947Y-22992D01*
X18932Y-23052D01*
X18917Y-23082D01*
X18887Y-23112D01*
X18842Y-23127D01*
X18767Y-23127D01*
X19127Y-22947D02*
X19097Y-22932D01*
X19082Y-22917D01*
X19067Y-22887D01*
X19067Y-22872D01*
X19082Y-22842D01*
X19097Y-22827D01*
X19127Y-22812D01*
X19187Y-22812D01*
X19217Y-22827D01*
X19232Y-22842D01*
X19247Y-22872D01*
X19247Y-22887D01*
X19232Y-22917D01*
X19217Y-22932D01*
X19187Y-22947D01*
X19127Y-22947D01*
X19097Y-22962D01*
X19082Y-22977D01*
X19067Y-23007D01*
X19067Y-23067D01*
X19082Y-23097D01*
X19097Y-23112D01*
X19127Y-23127D01*
X19187Y-23127D01*
X19217Y-23112D01*
X19232Y-23097D01*
X19247Y-23067D01*
X19247Y-23007D01*
X19232Y-22977D01*
X19217Y-22962D01*
X19187Y-22947D01*
X18767Y-22127D02*
X18767Y-21812D01*
X18842Y-21812D01*
X18887Y-21827D01*
X18917Y-21857D01*
X18932Y-21887D01*
X18947Y-21947D01*
X18947Y-21992D01*
X18932Y-22052D01*
X18917Y-22082D01*
X18887Y-22112D01*
X18842Y-22127D01*
X18767Y-22127D01*
X19052Y-21812D02*
X19262Y-21812D01*
X19127Y-22127D01*
X18781Y-21111D02*
X18781Y-20796D01*
X18856Y-20796D01*
X18901Y-20811D01*
X18931Y-20841D01*
X18946Y-20871D01*
X18961Y-20931D01*
X18961Y-20976D01*
X18946Y-21036D01*
X18931Y-21066D01*
X18901Y-21096D01*
X18856Y-21111D01*
X18781Y-21111D01*
X19231Y-20796D02*
X19171Y-20796D01*
X19141Y-20811D01*
X19126Y-20826D01*
X19096Y-20871D01*
X19081Y-20931D01*
X19081Y-21051D01*
X19096Y-21081D01*
X19111Y-21096D01*
X19141Y-21111D01*
X19201Y-21111D01*
X19231Y-21096D01*
X19246Y-21081D01*
X19261Y-21051D01*
X19261Y-20976D01*
X19246Y-20946D01*
X19231Y-20931D01*
X19201Y-20916D01*
X19141Y-20916D01*
X19111Y-20931D01*
X19096Y-20946D01*
X19081Y-20976D01*
X19441Y-20796D02*
X19441Y-20871D01*
X19366Y-20841D02*
X19441Y-20871D01*
X19516Y-20841D01*
X19396Y-20931D02*
X19441Y-20871D01*
X19486Y-20931D01*
X18781Y-20127D02*
X18781Y-19812D01*
X18856Y-19812D01*
X18901Y-19827D01*
X18931Y-19857D01*
X18946Y-19887D01*
X18961Y-19947D01*
X18961Y-19992D01*
X18946Y-20052D01*
X18931Y-20082D01*
X18901Y-20112D01*
X18856Y-20127D01*
X18781Y-20127D01*
X19246Y-19812D02*
X19096Y-19812D01*
X19081Y-19962D01*
X19096Y-19947D01*
X19126Y-19932D01*
X19201Y-19932D01*
X19231Y-19947D01*
X19246Y-19962D01*
X19261Y-19992D01*
X19261Y-20067D01*
X19246Y-20097D01*
X19231Y-20112D01*
X19201Y-20127D01*
X19126Y-20127D01*
X19096Y-20112D01*
X19081Y-20097D01*
X19441Y-19812D02*
X19441Y-19887D01*
X19366Y-19857D02*
X19441Y-19887D01*
X19516Y-19857D01*
X19396Y-19947D02*
X19441Y-19887D01*
X19486Y-19947D01*
X18767Y-19127D02*
X18767Y-18812D01*
X18842Y-18812D01*
X18887Y-18827D01*
X18917Y-18857D01*
X18932Y-18887D01*
X18947Y-18947D01*
X18947Y-18992D01*
X18932Y-19052D01*
X18917Y-19082D01*
X18887Y-19112D01*
X18842Y-19127D01*
X18767Y-19127D01*
X19217Y-18917D02*
X19217Y-19127D01*
X19142Y-18797D02*
X19067Y-19022D01*
X19262Y-19022D01*
X18742Y-18119D02*
X18742Y-17804D01*
X18817Y-17804D01*
X18862Y-17819D01*
X18892Y-17849D01*
X18907Y-17879D01*
X18922Y-17939D01*
X18922Y-17984D01*
X18907Y-18044D01*
X18892Y-18074D01*
X18862Y-18104D01*
X18817Y-18119D01*
X18742Y-18119D01*
X19026Y-17804D02*
X19221Y-17804D01*
X19116Y-17924D01*
X19161Y-17924D01*
X19191Y-17939D01*
X19206Y-17954D01*
X19221Y-17984D01*
X19221Y-18059D01*
X19206Y-18089D01*
X19191Y-18104D01*
X19161Y-18119D01*
X19071Y-18119D01*
X19041Y-18104D01*
X19026Y-18089D01*
X19401Y-17804D02*
X19401Y-17879D01*
X19326Y-17849D02*
X19401Y-17879D01*
X19476Y-17849D01*
X19356Y-17939D02*
X19401Y-17879D01*
X19446Y-17939D01*
X18767Y-17127D02*
X18767Y-16812D01*
X18842Y-16812D01*
X18887Y-16827D01*
X18917Y-16857D01*
X18932Y-16887D01*
X18947Y-16947D01*
X18947Y-16992D01*
X18932Y-17052D01*
X18917Y-17082D01*
X18887Y-17112D01*
X18842Y-17127D01*
X18767Y-17127D01*
X19067Y-16842D02*
X19082Y-16827D01*
X19112Y-16812D01*
X19187Y-16812D01*
X19217Y-16827D01*
X19232Y-16842D01*
X19247Y-16872D01*
X19247Y-16902D01*
X19232Y-16947D01*
X19052Y-17127D01*
X19247Y-17127D01*
X18760Y-15827D02*
X18730Y-15812D01*
X18685Y-15812D01*
X18640Y-15827D01*
X18610Y-15857D01*
X18595Y-15887D01*
X18580Y-15947D01*
X18580Y-15992D01*
X18595Y-16052D01*
X18610Y-16082D01*
X18640Y-16112D01*
X18685Y-16127D01*
X18715Y-16127D01*
X18760Y-16112D01*
X18775Y-16097D01*
X18775Y-15992D01*
X18715Y-15992D01*
X18910Y-16127D02*
X18910Y-15812D01*
X19089Y-16127D01*
X19089Y-15812D01*
X19239Y-16127D02*
X19239Y-15812D01*
X19314Y-15812D01*
X19359Y-15827D01*
X19389Y-15857D01*
X19404Y-15887D01*
X19419Y-15947D01*
X19419Y-15992D01*
X19404Y-16052D01*
X19389Y-16082D01*
X19359Y-16112D01*
X19314Y-16127D01*
X19239Y-16127D01*
X18827Y-15127D02*
X18722Y-14977D01*
X18647Y-15127D02*
X18647Y-14812D01*
X18767Y-14812D01*
X18797Y-14827D01*
X18812Y-14842D01*
X18827Y-14872D01*
X18827Y-14917D01*
X18812Y-14947D01*
X18797Y-14962D01*
X18767Y-14977D01*
X18647Y-14977D01*
X18947Y-15112D02*
X18992Y-15127D01*
X19067Y-15127D01*
X19097Y-15112D01*
X19112Y-15097D01*
X19127Y-15067D01*
X19127Y-15037D01*
X19112Y-15007D01*
X19097Y-14992D01*
X19067Y-14977D01*
X19007Y-14962D01*
X18977Y-14947D01*
X18962Y-14932D01*
X18947Y-14902D01*
X18947Y-14872D01*
X18962Y-14842D01*
X18977Y-14827D01*
X19007Y-14812D01*
X19082Y-14812D01*
X19127Y-14827D01*
X19217Y-14812D02*
X19397Y-14812D01*
X19307Y-15127D02*
X19307Y-14812D01*
G54D11*
X18674Y-14087D02*
X18674Y-13812D01*
X18740Y-13812D01*
X18779Y-13825D01*
X18805Y-13851D01*
X18818Y-13877D01*
X18832Y-13930D01*
X18832Y-13969D01*
X18818Y-14022D01*
X18805Y-14048D01*
X18779Y-14074D01*
X18740Y-14087D01*
X18674Y-14087D01*
X19002Y-13812D02*
X19028Y-13812D01*
X19055Y-13825D01*
X19068Y-13838D01*
X19081Y-13864D01*
X19094Y-13917D01*
X19094Y-13982D01*
X19081Y-14035D01*
X19068Y-14061D01*
X19055Y-14074D01*
X19028Y-14087D01*
X19002Y-14087D01*
X18976Y-14074D01*
X18963Y-14061D01*
X18950Y-14035D01*
X18937Y-13982D01*
X18937Y-13917D01*
X18950Y-13864D01*
X18963Y-13838D01*
X18976Y-13825D01*
X19002Y-13812D01*
X19409Y-13799D02*
X19173Y-14153D01*
X19658Y-14087D02*
X19566Y-13956D01*
X19501Y-14087D02*
X19501Y-13812D01*
X19606Y-13812D01*
X19632Y-13825D01*
X19645Y-13838D01*
X19658Y-13864D01*
X19658Y-13904D01*
X19645Y-13930D01*
X19632Y-13943D01*
X19606Y-13956D01*
X19501Y-13956D01*
X19750Y-13812D02*
X19934Y-14087D01*
X19934Y-13812D02*
X19750Y-14087D01*
X18707Y-13103D02*
X18707Y-12828D01*
X18772Y-12828D01*
X18812Y-12841D01*
X18838Y-12867D01*
X18851Y-12893D01*
X18864Y-12946D01*
X18864Y-12985D01*
X18851Y-13038D01*
X18838Y-13064D01*
X18812Y-13090D01*
X18772Y-13103D01*
X18707Y-13103D01*
X19127Y-13103D02*
X18969Y-13103D01*
X19048Y-13103D02*
X19048Y-12828D01*
X19022Y-12867D01*
X18996Y-12893D01*
X18969Y-12906D01*
X19442Y-12814D02*
X19206Y-13169D01*
X19494Y-12828D02*
X19652Y-12828D01*
X19573Y-13103D02*
X19573Y-12828D01*
X19717Y-12828D02*
X19901Y-13103D01*
X19901Y-12828D02*
X19717Y-13103D01*
G54D12*
X26965Y-14607D02*
X26965Y-14410D01*
X27012Y-14410D01*
X27040Y-14419D01*
X27059Y-14438D01*
X27068Y-14457D01*
X27078Y-14494D01*
X27078Y-14522D01*
X27068Y-14560D01*
X27059Y-14579D01*
X27040Y-14597D01*
X27012Y-14607D01*
X26965Y-14607D01*
X27265Y-14607D02*
X27153Y-14607D01*
X27209Y-14607D02*
X27209Y-14410D01*
X27190Y-14438D01*
X27171Y-14457D01*
X27153Y-14466D01*
X27331Y-14410D02*
X27453Y-14410D01*
X27387Y-14485D01*
X27415Y-14485D01*
X27434Y-14494D01*
X27443Y-14504D01*
X27453Y-14522D01*
X27453Y-14569D01*
X27443Y-14588D01*
X27434Y-14597D01*
X27415Y-14607D01*
X27359Y-14607D01*
X27340Y-14597D01*
X27331Y-14588D01*
X26942Y-12559D02*
X26942Y-12363D01*
X27017Y-12363D01*
X27035Y-12372D01*
X27045Y-12381D01*
X27054Y-12400D01*
X27054Y-12428D01*
X27045Y-12447D01*
X27035Y-12456D01*
X27017Y-12466D01*
X26942Y-12466D01*
X27120Y-12363D02*
X27167Y-12559D01*
X27204Y-12419D01*
X27242Y-12559D01*
X27289Y-12363D01*
X27476Y-12559D02*
X27410Y-12466D01*
X27364Y-12559D02*
X27364Y-12363D01*
X27439Y-12363D01*
X27457Y-12372D01*
X27467Y-12381D01*
X27476Y-12400D01*
X27476Y-12428D01*
X27467Y-12447D01*
X27457Y-12456D01*
X27439Y-12466D01*
X27364Y-12466D01*
G54D10*
X26062Y-14212D02*
X26062Y-14803D01*
X26062Y-14803D02*
X20748Y-14803D01*
X20748Y-14803D02*
X20748Y-14251D01*
X20748Y-13149D02*
X20748Y-12480D01*
X20748Y-12480D02*
X26062Y-12480D01*
X26062Y-12480D02*
X26062Y-13149D01*
G54D14*
X23385Y-22210D02*
X23067Y-21891D01*
X24926Y-20668D02*
X24615Y-20357D01*
X23385Y-22210D02*
X24926Y-20668D01*
X22430Y-21920D02*
X22126Y-22224D01*
X20860Y-20364D02*
X20563Y-20661D01*
X20556Y-20654D02*
X22119Y-22231D01*
X23378Y-17861D02*
X24919Y-19388D01*
X22586Y-18045D02*
X20585Y-20046D01*
X24919Y-19402D02*
X24629Y-19692D01*
X22932Y-18052D02*
X24898Y-20018D01*
X22734Y-22210D02*
X24884Y-20060D01*
X20578Y-20053D02*
X22699Y-22174D01*
X22147Y-17847D02*
X20578Y-19417D01*
X20578Y-19417D02*
X20896Y-19735D01*
X22596Y-18041D02*
X22921Y-18041D01*
X22149Y-17848D02*
X22468Y-18168D01*
X23059Y-18179D02*
X23379Y-17860D01*
X22950Y-18452D02*
G75*
G03X22950Y-18452I-188J0D01*
G74*
G01*
G54D10*
X31450Y-27500D02*
X30500Y-27500D01*
X30500Y-27500D02*
X30500Y-12500D01*
X30500Y-12500D02*
X31450Y-12500D01*
X31450Y-12500D02*
X31450Y-27500D01*
X17550Y-12500D02*
X18500Y-12500D01*
X18500Y-12500D02*
X18500Y-27500D01*
X18500Y-27500D02*
X17550Y-27500D01*
X17550Y-27500D02*
X17550Y-12500D01*
X28464Y-20629D02*
G75*
G03X28464Y-20629I-78J0D01*
G74*
G01*
X28228Y-21811D02*
X28228Y-22125D01*
X26929Y-21811D02*
X28228Y-21811D01*
X26929Y-22125D02*
X26929Y-21811D01*
X28228Y-22125D02*
X26929Y-22125D01*
X27559Y-21811D02*
X27559Y-22125D01*
X27559Y-22322D02*
X27559Y-22637D01*
X28228Y-22637D02*
X26929Y-22637D01*
X26929Y-22637D02*
X26929Y-22322D01*
X26929Y-22322D02*
X28228Y-22322D01*
X28228Y-22322D02*
X28228Y-22637D01*
X28228Y-21299D02*
X28228Y-21614D01*
X26929Y-21299D02*
X28228Y-21299D01*
X26929Y-21614D02*
X26929Y-21299D01*
X28228Y-21614D02*
X26929Y-21614D01*
X27559Y-21299D02*
X27559Y-21614D01*
X27559Y-20787D02*
X27559Y-21102D01*
X28228Y-21102D02*
X26929Y-21102D01*
X26929Y-21102D02*
X26929Y-20787D01*
X26929Y-20787D02*
X28228Y-20787D01*
X28228Y-20787D02*
X28228Y-21102D01*
X28559Y-20444D02*
X28559Y-22944D01*
X28559Y-22944D02*
X26559Y-22944D01*
X26559Y-22944D02*
X26559Y-20444D01*
X26559Y-20444D02*
X28559Y-20444D01*
X28287Y-14251D02*
X26870Y-14251D01*
X26870Y-14251D02*
X26870Y-13622D01*
X26870Y-13622D02*
X28287Y-13622D01*
X28287Y-13622D02*
X28287Y-14251D01*
X22893Y-15866D02*
X21476Y-15866D01*
X21476Y-15866D02*
X21476Y-15236D01*
X21476Y-15236D02*
X22893Y-15236D01*
X22893Y-15236D02*
X22893Y-15866D01*
X23759Y-15236D02*
X25177Y-15236D01*
X25177Y-15236D02*
X25177Y-15866D01*
X25177Y-15866D02*
X23759Y-15866D01*
X23759Y-15866D02*
X23759Y-15236D01*
X28287Y-13307D02*
X26870Y-13307D01*
X26870Y-13307D02*
X26870Y-12677D01*
X26870Y-12677D02*
X28287Y-12677D01*
X28287Y-12677D02*
X28287Y-13307D01*
X21062Y-23622D02*
X21062Y-23700D01*
X28149Y-23622D02*
X28149Y-23700D01*
X28149Y-31496D02*
X28149Y-28937D01*
X21062Y-31496D02*
X21062Y-28937D01*
X28149Y-29212D02*
X21062Y-29212D01*
X28149Y-31496D02*
X21062Y-31496D01*
X21062Y-23622D02*
X28149Y-23622D01*
X28048Y-16946D02*
G75*
G03X28048Y-16046I-450J450D01*
G74*
G01*
X27148Y-16046D02*
G75*
G03X27148Y-16946I450J-449D01*
G74*
G01*
X26198Y-15646D02*
X28998Y-15646D01*
X28998Y-15646D02*
X28998Y-17346D01*
X28998Y-17346D02*
X26198Y-17346D01*
X26198Y-17346D02*
X26198Y-15646D01*
X27148Y-18368D02*
G75*
G03X27148Y-19268I450J-450D01*
G74*
G01*
X28048Y-19268D02*
G75*
G03X28048Y-18368I-450J450D01*
G74*
G01*
X28998Y-19668D02*
X26198Y-19668D01*
X26198Y-19668D02*
X26198Y-17968D01*
X26198Y-17968D02*
X28998Y-17968D01*
X28998Y-17968D02*
X28998Y-19668D01*
X23027Y-14293D02*
X23290Y-14686D01*
X23290Y-14293D02*
X23027Y-14686D01*
X23646Y-14686D02*
X23421Y-14686D01*
X23533Y-14686D02*
X23533Y-14293D01*
X23496Y-14349D01*
X23458Y-14386D01*
X23421Y-14405D01*
G54D15*
X19954Y-20329D02*
X19600Y-19976D01*
X20217Y-19999D02*
X20220Y-20030D01*
X20196Y-20087D01*
X20170Y-20114D01*
X20112Y-20137D01*
X20052Y-20131D01*
X20005Y-20110D01*
X19924Y-20056D01*
X19873Y-20006D01*
X19819Y-19925D01*
X19799Y-19878D01*
X19792Y-19817D01*
X19816Y-19760D01*
X19843Y-19733D01*
X19900Y-19710D01*
X19930Y-19713D01*
X20520Y-19764D02*
X20358Y-19925D01*
X20439Y-19844D02*
X20085Y-19491D01*
X20109Y-19568D01*
X20116Y-19629D01*
X20106Y-19673D01*
X31185Y-28326D02*
X30785Y-28326D01*
X30785Y-28174D01*
X30804Y-28136D01*
X30823Y-28117D01*
X30861Y-28098D01*
X30918Y-28098D01*
X30956Y-28117D01*
X30976Y-28136D01*
X30995Y-28174D01*
X30995Y-28326D01*
X30823Y-27945D02*
X30804Y-27926D01*
X30785Y-27888D01*
X30785Y-27793D01*
X30804Y-27755D01*
X30823Y-27736D01*
X30861Y-27717D01*
X30899Y-27717D01*
X30956Y-27736D01*
X31185Y-27964D01*
X31185Y-27717D01*
X18193Y-28287D02*
X17793Y-28287D01*
X17793Y-28134D01*
X17812Y-28096D01*
X17831Y-28077D01*
X17869Y-28058D01*
X17926Y-28058D01*
X17964Y-28077D01*
X17983Y-28096D01*
X18002Y-28134D01*
X18002Y-28287D01*
X18193Y-27677D02*
X18193Y-27906D01*
X18193Y-27792D02*
X17793Y-27792D01*
X17850Y-27830D01*
X17888Y-27868D01*
X17907Y-27906D01*
G54D12*
X25526Y-22705D02*
X25536Y-22677D01*
X25536Y-22630D01*
X25526Y-22612D01*
X25517Y-22602D01*
X25498Y-22593D01*
X25480Y-22593D01*
X25461Y-22602D01*
X25452Y-22612D01*
X25442Y-22630D01*
X25433Y-22668D01*
X25423Y-22687D01*
X25414Y-22696D01*
X25395Y-22705D01*
X25377Y-22705D01*
X25358Y-22696D01*
X25348Y-22687D01*
X25339Y-22668D01*
X25339Y-22621D01*
X25348Y-22593D01*
X25339Y-22527D02*
X25536Y-22480D01*
X25395Y-22443D01*
X25536Y-22405D01*
X25339Y-22358D01*
X25339Y-22302D02*
X25339Y-22180D01*
X25414Y-22246D01*
X25414Y-22218D01*
X25423Y-22199D01*
X25433Y-22190D01*
X25452Y-22180D01*
X25498Y-22180D01*
X25517Y-22190D01*
X25526Y-22199D01*
X25536Y-22218D01*
X25536Y-22274D01*
X25526Y-22293D01*
X25517Y-22302D01*
G54D16*
X28056Y-14529D02*
X28056Y-14329D01*
X28098Y-14329D01*
X28124Y-14339D01*
X28141Y-14358D01*
X28150Y-14377D01*
X28158Y-14415D01*
X28158Y-14444D01*
X28150Y-14482D01*
X28141Y-14501D01*
X28124Y-14520D01*
X28098Y-14529D01*
X28056Y-14529D01*
X28330Y-14529D02*
X28227Y-14529D01*
X28278Y-14529D02*
X28278Y-14329D01*
X28261Y-14358D01*
X28244Y-14377D01*
X28227Y-14386D01*
X22174Y-15140D02*
X22166Y-15150D01*
X22140Y-15159D01*
X22123Y-15159D01*
X22097Y-15150D01*
X22080Y-15131D01*
X22071Y-15112D01*
X22063Y-15073D01*
X22063Y-15045D01*
X22071Y-15007D01*
X22080Y-14988D01*
X22097Y-14969D01*
X22123Y-14959D01*
X22140Y-14959D01*
X22166Y-14969D01*
X22174Y-14978D01*
X22329Y-15026D02*
X22329Y-15159D01*
X22286Y-14950D02*
X22243Y-15093D01*
X22354Y-15093D01*
X24418Y-16085D02*
X24410Y-16095D01*
X24384Y-16104D01*
X24367Y-16104D01*
X24341Y-16095D01*
X24324Y-16076D01*
X24315Y-16056D01*
X24307Y-16018D01*
X24307Y-15990D01*
X24315Y-15952D01*
X24324Y-15933D01*
X24341Y-15914D01*
X24367Y-15904D01*
X24384Y-15904D01*
X24410Y-15914D01*
X24418Y-15923D01*
X24581Y-15904D02*
X24495Y-15904D01*
X24487Y-15999D01*
X24495Y-15990D01*
X24513Y-15980D01*
X24555Y-15980D01*
X24573Y-15990D01*
X24581Y-15999D01*
X24590Y-16018D01*
X24590Y-16066D01*
X24581Y-16085D01*
X24573Y-16095D01*
X24555Y-16104D01*
X24513Y-16104D01*
X24495Y-16095D01*
X24487Y-16085D01*
X27977Y-12600D02*
X27977Y-12400D01*
X28020Y-12400D01*
X28045Y-12410D01*
X28063Y-12429D01*
X28071Y-12448D01*
X28080Y-12486D01*
X28080Y-12514D01*
X28071Y-12553D01*
X28063Y-12572D01*
X28045Y-12591D01*
X28020Y-12600D01*
X27977Y-12600D01*
X28148Y-12419D02*
X28157Y-12410D01*
X28174Y-12400D01*
X28217Y-12400D01*
X28234Y-12410D01*
X28243Y-12419D01*
X28251Y-12438D01*
X28251Y-12457D01*
X28243Y-12486D01*
X28140Y-12600D01*
X28251Y-12600D01*
G54D10*
X24322Y-24354D02*
X24322Y-24672D01*
X24340Y-24710D01*
X24359Y-24729D01*
X24397Y-24747D01*
X24472Y-24747D01*
X24509Y-24729D01*
X24528Y-24710D01*
X24547Y-24672D01*
X24547Y-24354D01*
X24715Y-24391D02*
X24734Y-24372D01*
X24772Y-24354D01*
X24865Y-24354D01*
X24903Y-24372D01*
X24922Y-24391D01*
X24940Y-24429D01*
X24940Y-24466D01*
X24922Y-24522D01*
X24697Y-24747D01*
X24940Y-24747D01*
G54D12*
X29304Y-17317D02*
X29313Y-17289D01*
X29313Y-17242D01*
X29304Y-17223D01*
X29295Y-17214D01*
X29276Y-17204D01*
X29257Y-17204D01*
X29238Y-17214D01*
X29229Y-17223D01*
X29220Y-17242D01*
X29210Y-17279D01*
X29201Y-17298D01*
X29192Y-17307D01*
X29173Y-17317D01*
X29154Y-17317D01*
X29135Y-17307D01*
X29126Y-17298D01*
X29117Y-17279D01*
X29117Y-17232D01*
X29126Y-17204D01*
X29117Y-17139D02*
X29313Y-17092D01*
X29173Y-17054D01*
X29313Y-17017D01*
X29117Y-16970D01*
X29313Y-16792D02*
X29313Y-16904D01*
X29313Y-16848D02*
X29117Y-16848D01*
X29145Y-16867D01*
X29163Y-16885D01*
X29173Y-16904D01*
X29265Y-19637D02*
X29274Y-19609D01*
X29274Y-19562D01*
X29265Y-19543D01*
X29255Y-19534D01*
X29237Y-19524D01*
X29218Y-19524D01*
X29199Y-19534D01*
X29190Y-19543D01*
X29180Y-19562D01*
X29171Y-19599D01*
X29162Y-19618D01*
X29152Y-19627D01*
X29133Y-19637D01*
X29115Y-19637D01*
X29096Y-19627D01*
X29087Y-19618D01*
X29077Y-19599D01*
X29077Y-19552D01*
X29087Y-19524D01*
X29077Y-19459D02*
X29274Y-19412D01*
X29133Y-19374D01*
X29274Y-19337D01*
X29077Y-19290D01*
X29096Y-19224D02*
X29087Y-19215D01*
X29077Y-19196D01*
X29077Y-19149D01*
X29087Y-19131D01*
X29096Y-19121D01*
X29115Y-19112D01*
X29133Y-19112D01*
X29162Y-19121D01*
X29274Y-19234D01*
X29274Y-19112D01*
%LPC*%
G54D17*
X21377Y-13700D03*
X25314Y-13700D03*
G54D10*
G36*
X20301Y-19255D02*
X20426Y-19130D01*
X20983Y-19687D01*
X20858Y-19812D01*
X20301Y-19255D01*
X20301Y-19255D01*
G37*
G36*
X20524Y-19033D02*
X20649Y-18907D01*
X21205Y-19464D01*
X21080Y-19589D01*
X20524Y-19033D01*
X20524Y-19033D01*
G37*
G36*
X20747Y-18810D02*
X20872Y-18685D01*
X21428Y-19241D01*
X21303Y-19366D01*
X20747Y-18810D01*
X20747Y-18810D01*
G37*
G36*
X20969Y-18587D02*
X21094Y-18462D01*
X21651Y-19019D01*
X21526Y-19144D01*
X20969Y-18587D01*
X20969Y-18587D01*
G37*
G36*
X21192Y-18364D02*
X21317Y-18239D01*
X21874Y-18796D01*
X21748Y-18921D01*
X21192Y-18364D01*
X21192Y-18364D01*
G37*
G36*
X21415Y-18142D02*
X21540Y-18017D01*
X22096Y-18573D01*
X21971Y-18698D01*
X21415Y-18142D01*
X21415Y-18142D01*
G37*
G36*
X21637Y-17919D02*
X21763Y-17794D01*
X22319Y-18350D01*
X22194Y-18475D01*
X21637Y-17919D01*
X21637Y-17919D01*
G37*
G36*
X21860Y-17696D02*
X21985Y-17571D01*
X22542Y-18128D01*
X22417Y-18253D01*
X21860Y-17696D01*
X21860Y-17696D01*
G37*
G36*
X24522Y-20361D02*
X24647Y-20235D01*
X25203Y-20792D01*
X25078Y-20917D01*
X24522Y-20361D01*
X24522Y-20361D01*
G37*
G36*
X22959Y-21923D02*
X23084Y-21798D01*
X23641Y-22355D01*
X23516Y-22480D01*
X22959Y-21923D01*
X22959Y-21923D01*
G37*
G36*
X23185Y-21697D02*
X23310Y-21572D01*
X23867Y-22128D01*
X23742Y-22254D01*
X23185Y-21697D01*
X23185Y-21697D01*
G37*
G36*
X23412Y-21471D02*
X23537Y-21346D01*
X24093Y-21902D01*
X23968Y-22027D01*
X23412Y-21471D01*
X23412Y-21471D01*
G37*
G36*
X23631Y-21252D02*
X23756Y-21126D01*
X24312Y-21683D01*
X24187Y-21808D01*
X23631Y-21252D01*
X23631Y-21252D01*
G37*
G36*
X23857Y-21025D02*
X23982Y-20900D01*
X24539Y-21457D01*
X24414Y-21582D01*
X23857Y-21025D01*
X23857Y-21025D01*
G37*
G36*
X24076Y-20806D02*
X24201Y-20681D01*
X24758Y-21237D01*
X24633Y-21363D01*
X24076Y-20806D01*
X24076Y-20806D01*
G37*
G36*
X24303Y-20580D02*
X24428Y-20455D01*
X24984Y-21011D01*
X24859Y-21136D01*
X24303Y-20580D01*
X24303Y-20580D01*
G37*
G36*
X22972Y-18125D02*
X23528Y-17568D01*
X23653Y-17693D01*
X23097Y-18250D01*
X22972Y-18125D01*
X22972Y-18125D01*
G37*
G36*
X23194Y-18347D02*
X23750Y-17790D01*
X23875Y-17915D01*
X23319Y-18472D01*
X23194Y-18347D01*
X23194Y-18347D01*
G37*
G36*
X23417Y-18570D02*
X23974Y-18014D01*
X24099Y-18139D01*
X23542Y-18695D01*
X23417Y-18570D01*
X23417Y-18570D01*
G37*
G36*
X23639Y-18792D02*
X24196Y-18236D01*
X24321Y-18361D01*
X23764Y-18917D01*
X23639Y-18792D01*
X23639Y-18792D01*
G37*
G36*
X23863Y-19016D02*
X24419Y-18459D01*
X24544Y-18584D01*
X23988Y-19141D01*
X23863Y-19016D01*
X23863Y-19016D01*
G37*
G36*
X24085Y-19238D02*
X24641Y-18681D01*
X24766Y-18806D01*
X24210Y-19363D01*
X24085Y-19238D01*
X24085Y-19238D01*
G37*
G36*
X24308Y-19461D02*
X24865Y-18905D01*
X24990Y-19030D01*
X24433Y-19586D01*
X24308Y-19461D01*
X24308Y-19461D01*
G37*
G36*
X24530Y-19683D02*
X25087Y-19127D01*
X25212Y-19252D01*
X24655Y-19808D01*
X24530Y-19683D01*
X24530Y-19683D01*
G37*
G36*
X20300Y-20799D02*
X20857Y-20243D01*
X20982Y-20368D01*
X20425Y-20924D01*
X20300Y-20799D01*
X20300Y-20799D01*
G37*
G36*
X20520Y-21018D02*
X21076Y-20462D01*
X21201Y-20587D01*
X20645Y-21143D01*
X20520Y-21018D01*
X20520Y-21018D01*
G37*
G36*
X20746Y-21244D02*
X21302Y-20688D01*
X21427Y-20813D01*
X20871Y-21370D01*
X20746Y-21244D01*
X20746Y-21244D01*
G37*
G36*
X20965Y-21464D02*
X21522Y-20907D01*
X21647Y-21032D01*
X21090Y-21589D01*
X20965Y-21464D01*
X20965Y-21464D01*
G37*
G36*
X21184Y-21683D02*
X21741Y-21126D01*
X21866Y-21252D01*
X21309Y-21808D01*
X21184Y-21683D01*
X21184Y-21683D01*
G37*
G36*
X21410Y-21909D02*
X21967Y-21353D01*
X22092Y-21478D01*
X21536Y-22034D01*
X21410Y-21909D01*
X21410Y-21909D01*
G37*
G36*
X21637Y-22135D02*
X22193Y-21579D01*
X22318Y-21704D01*
X21762Y-22261D01*
X21637Y-22135D01*
X21637Y-22135D01*
G37*
G36*
X21863Y-22362D02*
X22420Y-21805D01*
X22545Y-21930D01*
X21988Y-22487D01*
X21863Y-22362D01*
X21863Y-22362D01*
G37*
G54D18*
X31000Y-27000D03*
G54D19*
X31000Y-26000D03*
X31000Y-25000D03*
X31000Y-24000D03*
X31000Y-23000D03*
X31000Y-22000D03*
X31000Y-21000D03*
X31000Y-20000D03*
X31000Y-19000D03*
X31000Y-18000D03*
X31000Y-17000D03*
X31000Y-16000D03*
X31000Y-15000D03*
X31000Y-14000D03*
X31000Y-13000D03*
G54D18*
X18000Y-13000D03*
G54D19*
X18000Y-14000D03*
X18000Y-15000D03*
X18000Y-16000D03*
X18000Y-17000D03*
X18000Y-18000D03*
X18000Y-19000D03*
X18000Y-20000D03*
X18000Y-21000D03*
X18000Y-22000D03*
X18000Y-23000D03*
X18000Y-24000D03*
X18000Y-25000D03*
X18000Y-26000D03*
X18000Y-27000D03*
G54D20*
X26059Y-20944D03*
X26059Y-21444D03*
X26059Y-21944D03*
X26059Y-22444D03*
X29059Y-20944D03*
X29059Y-21444D03*
X29059Y-21944D03*
X29059Y-22444D03*
G54D21*
X27992Y-13937D03*
X27165Y-13937D03*
X22598Y-15551D03*
X21771Y-15551D03*
X24055Y-15551D03*
X24881Y-15551D03*
X27992Y-12992D03*
X27165Y-12992D03*
G54D22*
X21062Y-23976D03*
X21062Y-24566D03*
X21062Y-25157D03*
X21062Y-25748D03*
X21062Y-26338D03*
X21062Y-26929D03*
X21062Y-27519D03*
X21062Y-28110D03*
X21062Y-28700D03*
X28149Y-28700D03*
X28149Y-28110D03*
X28149Y-27519D03*
X28149Y-26929D03*
X28149Y-26338D03*
X28149Y-25748D03*
X28149Y-25157D03*
X28149Y-24566D03*
X28149Y-23976D03*
G54D23*
X26574Y-15944D03*
X28622Y-15944D03*
X26574Y-17047D03*
X28622Y-17047D03*
X28622Y-19370D03*
X26574Y-19370D03*
X28622Y-18267D03*
X26574Y-18267D03*
G54D24*
X30314Y-29921D03*
X18897Y-29921D03*
G54D25*
X23976Y-28818D03*
X25275Y-28976D03*
X22480Y-28818D03*
X30511Y-23543D03*
X29409Y-23425D03*
X30039Y-27992D03*
X27519Y-28582D03*
X24763Y-24527D03*
X24763Y-25551D03*
X25078Y-26456D03*
X26535Y-28228D03*
X23543Y-27559D03*
X22952Y-22440D03*
X22165Y-22913D03*
X23070Y-21417D03*
X23543Y-23188D03*
X23858Y-20039D03*
X22637Y-19881D03*
X27716Y-15433D03*
X30354Y-15669D03*
X24645Y-16968D03*
X25708Y-16299D03*
X21417Y-19645D03*
X21968Y-19015D03*
X29330Y-18858D03*
X24370Y-22401D03*
X29921Y-17559D03*
X24842Y-21771D03*
X22322Y-24566D03*
X21732Y-24566D03*
X19763Y-13464D03*
X19763Y-16181D03*
X24685Y-27637D03*
X28937Y-29133D03*
X24409Y-26102D03*
X29921Y-25472D03*
X29409Y-14685D03*
X29409Y-16456D03*
X19173Y-24370D03*
X24881Y-28661D03*
X23425Y-28228D03*
X31417Y-31062D03*
X30708Y-31062D03*
X29803Y-31062D03*
X17952Y-30984D03*
X19133Y-30984D03*
X31338Y-12322D03*
X29921Y-12283D03*
X28622Y-12283D03*
X26496Y-12283D03*
X25196Y-12244D03*
X23385Y-12165D03*
X23385Y-13897D03*
X18149Y-12244D03*
X20590Y-12244D03*
X22086Y-12244D03*
X28976Y-31062D03*
X27795Y-31023D03*
X26614Y-31023D03*
X25433Y-30984D03*
X24370Y-30984D03*
X23307Y-30984D03*
X22204Y-30984D03*
X21220Y-30984D03*
X20314Y-30984D03*
X20078Y-27047D03*
X28976Y-24370D03*
X29212Y-21181D03*
X26496Y-26338D03*
X25826Y-26338D03*
X24606Y-26811D03*
X25984Y-15118D03*
X20866Y-15669D03*
X29094Y-27874D03*
X27519Y-16496D03*
X25826Y-17677D03*
X19921Y-19763D03*
X23425Y-25511D03*
X22244Y-27244D03*
X24685Y-23779D03*
X24330Y-24842D03*
X22086Y-20944D03*
X23346Y-18976D03*
X22047Y-26811D03*
X22755Y-22913D03*
X27007Y-19212D03*
X28503Y-13937D03*
X28464Y-12992D03*
X26692Y-24448D03*
X27125Y-21417D03*
X26141Y-25984D03*
X27125Y-21929D03*
X27047Y-26220D03*
X27125Y-22637D03*
X20551Y-18582D03*
X23700Y-15944D03*
X22913Y-15944D03*
X19881Y-19094D03*
X26535Y-23976D03*
X27125Y-20787D03*
M02*
