G04 (created by PCBNEW (2013-07-07 BZR 4022)-stable) date 2015/10/26 20:25:39*
%MOIN*%
G04 Gerber Fmt 3.4, Leading zero omitted, Abs format*
%FSLAX34Y34*%
G01*
G70*
G90*
G04 APERTURE LIST*
%ADD10C,0.00590551*%
%ADD11C,0.00688976*%
%ADD12C,0.00393701*%
%ADD13C,0.00787402*%
%ADD14C,0.006*%
%ADD15C,0.005*%
%ADD16C,0.008*%
%ADD17C,0.0045*%
%ADD18C,0.0047*%
%ADD19R,0.0787402X0.23622*%
%ADD20R,0.0787X0.0177*%
%ADD21R,0.0177X0.0787*%
%ADD22R,0.06X0.06*%
%ADD23C,0.06*%
%ADD24R,0.0708661X0.0299213*%
%ADD25R,0.0393701X0.045*%
%ADD26R,0.0787402X0.0354331*%
%ADD27R,0.0472441X0.0275591*%
%ADD28C,0.177165*%
%ADD29R,0.0629921X0.0165*%
%ADD30C,0.035*%
G04 APERTURE END LIST*
G54D10*
G54D11*
X29586Y-26922D02*
X29586Y-26646D01*
X29652Y-26646D01*
X29691Y-26660D01*
X29717Y-26686D01*
X29730Y-26712D01*
X29744Y-26765D01*
X29744Y-26804D01*
X29730Y-26856D01*
X29717Y-26883D01*
X29691Y-26909D01*
X29652Y-26922D01*
X29586Y-26922D01*
X30006Y-26922D02*
X29849Y-26922D01*
X29927Y-26922D02*
X29927Y-26646D01*
X29901Y-26686D01*
X29875Y-26712D01*
X29849Y-26725D01*
X30098Y-26646D02*
X30269Y-26646D01*
X30177Y-26751D01*
X30216Y-26751D01*
X30242Y-26765D01*
X30255Y-26778D01*
X30269Y-26804D01*
X30269Y-26870D01*
X30255Y-26896D01*
X30242Y-26909D01*
X30216Y-26922D01*
X30137Y-26922D01*
X30111Y-26909D01*
X30098Y-26896D01*
X29566Y-27364D02*
X29606Y-27377D01*
X29671Y-27377D01*
X29698Y-27364D01*
X29711Y-27351D01*
X29724Y-27324D01*
X29724Y-27298D01*
X29711Y-27272D01*
X29698Y-27259D01*
X29671Y-27246D01*
X29619Y-27232D01*
X29593Y-27219D01*
X29580Y-27206D01*
X29566Y-27180D01*
X29566Y-27154D01*
X29580Y-27127D01*
X29593Y-27114D01*
X29619Y-27101D01*
X29685Y-27101D01*
X29724Y-27114D01*
X30000Y-27351D02*
X29986Y-27364D01*
X29947Y-27377D01*
X29921Y-27377D01*
X29881Y-27364D01*
X29855Y-27337D01*
X29842Y-27311D01*
X29829Y-27259D01*
X29829Y-27219D01*
X29842Y-27167D01*
X29855Y-27141D01*
X29881Y-27114D01*
X29921Y-27101D01*
X29947Y-27101D01*
X29986Y-27114D01*
X30000Y-27127D01*
X30118Y-27377D02*
X30118Y-27101D01*
X30275Y-27377D02*
X30157Y-27219D01*
X30275Y-27101D02*
X30118Y-27259D01*
X18759Y-12040D02*
X18759Y-12106D01*
X18694Y-12080D02*
X18759Y-12106D01*
X18825Y-12080D01*
X18720Y-12158D02*
X18759Y-12106D01*
X18799Y-12158D01*
X19140Y-12290D02*
X19153Y-12303D01*
X19140Y-12316D01*
X19127Y-12303D01*
X19140Y-12290D01*
X19140Y-12316D01*
X19140Y-12145D02*
X19153Y-12158D01*
X19140Y-12171D01*
X19127Y-12158D01*
X19140Y-12145D01*
X19140Y-12171D01*
X19481Y-12132D02*
X19481Y-12408D01*
X19481Y-12145D02*
X19507Y-12132D01*
X19560Y-12132D01*
X19586Y-12145D01*
X19599Y-12158D01*
X19612Y-12185D01*
X19612Y-12263D01*
X19599Y-12290D01*
X19586Y-12303D01*
X19560Y-12316D01*
X19507Y-12316D01*
X19481Y-12303D01*
X19704Y-12132D02*
X19757Y-12316D01*
X19809Y-12185D01*
X19862Y-12316D01*
X19914Y-12132D01*
X20019Y-12316D02*
X20019Y-12132D01*
X20019Y-12158D02*
X20032Y-12145D01*
X20059Y-12132D01*
X20098Y-12132D01*
X20124Y-12145D01*
X20137Y-12171D01*
X20137Y-12316D01*
X20137Y-12171D02*
X20150Y-12145D01*
X20177Y-12132D01*
X20216Y-12132D01*
X20242Y-12145D01*
X20255Y-12171D01*
X20255Y-12316D01*
G54D12*
X20220Y-20453D02*
X20220Y-20359D01*
X20276Y-20472D02*
X20079Y-20406D01*
X20276Y-20341D01*
X20079Y-20303D02*
X20276Y-20238D01*
X20079Y-20172D01*
X20276Y-19994D02*
X20182Y-20059D01*
X20276Y-20106D02*
X20079Y-20106D01*
X20079Y-20031D01*
X20089Y-20013D01*
X20098Y-20003D01*
X20117Y-19994D01*
X20145Y-19994D01*
X20164Y-20003D01*
X20173Y-20013D01*
X20182Y-20031D01*
X20182Y-20106D01*
X20276Y-19647D02*
X20182Y-19713D01*
X20276Y-19760D02*
X20079Y-19760D01*
X20079Y-19685D01*
X20089Y-19666D01*
X20098Y-19656D01*
X20117Y-19647D01*
X20145Y-19647D01*
X20164Y-19656D01*
X20173Y-19666D01*
X20182Y-19685D01*
X20182Y-19760D01*
X20267Y-19572D02*
X20276Y-19544D01*
X20276Y-19497D01*
X20267Y-19478D01*
X20257Y-19469D01*
X20239Y-19460D01*
X20220Y-19460D01*
X20201Y-19469D01*
X20192Y-19478D01*
X20182Y-19497D01*
X20173Y-19535D01*
X20164Y-19553D01*
X20154Y-19563D01*
X20135Y-19572D01*
X20117Y-19572D01*
X20098Y-19563D01*
X20089Y-19553D01*
X20079Y-19535D01*
X20079Y-19488D01*
X20089Y-19460D01*
X20079Y-19403D02*
X20079Y-19291D01*
X20276Y-19347D02*
X20079Y-19347D01*
X20173Y-22505D02*
X20173Y-22440D01*
X20276Y-22411D02*
X20276Y-22505D01*
X20079Y-22505D01*
X20079Y-22411D01*
X20267Y-22336D02*
X20276Y-22308D01*
X20276Y-22261D01*
X20267Y-22243D01*
X20257Y-22233D01*
X20239Y-22224D01*
X20220Y-22224D01*
X20201Y-22233D01*
X20192Y-22243D01*
X20182Y-22261D01*
X20173Y-22299D01*
X20164Y-22318D01*
X20154Y-22327D01*
X20135Y-22336D01*
X20117Y-22336D01*
X20098Y-22327D01*
X20089Y-22318D01*
X20079Y-22299D01*
X20079Y-22252D01*
X20089Y-22224D01*
X20276Y-22140D02*
X20079Y-22140D01*
X20079Y-22065D01*
X20089Y-22046D01*
X20098Y-22036D01*
X20117Y-22027D01*
X20145Y-22027D01*
X20164Y-22036D01*
X20173Y-22046D01*
X20182Y-22065D01*
X20182Y-22140D01*
X20276Y-21680D02*
X20182Y-21746D01*
X20276Y-21793D02*
X20079Y-21793D01*
X20079Y-21718D01*
X20089Y-21699D01*
X20098Y-21690D01*
X20117Y-21680D01*
X20145Y-21680D01*
X20164Y-21690D01*
X20173Y-21699D01*
X20182Y-21718D01*
X20182Y-21793D01*
X20267Y-21605D02*
X20276Y-21577D01*
X20276Y-21530D01*
X20267Y-21511D01*
X20257Y-21502D01*
X20239Y-21493D01*
X20220Y-21493D01*
X20201Y-21502D01*
X20192Y-21511D01*
X20182Y-21530D01*
X20173Y-21568D01*
X20164Y-21586D01*
X20154Y-21596D01*
X20135Y-21605D01*
X20117Y-21605D01*
X20098Y-21596D01*
X20089Y-21586D01*
X20079Y-21568D01*
X20079Y-21521D01*
X20089Y-21493D01*
X20079Y-21437D02*
X20079Y-21324D01*
X20276Y-21380D02*
X20079Y-21380D01*
G54D13*
X28035Y-22600D02*
X28140Y-22600D01*
X28185Y-22765D02*
X28035Y-22765D01*
X28035Y-22450D01*
X28185Y-22450D01*
X28320Y-22765D02*
X28320Y-22450D01*
X28500Y-22765D01*
X28500Y-22450D01*
X27960Y-22253D02*
X27960Y-21938D01*
X28170Y-21938D02*
X28230Y-21938D01*
X28260Y-21953D01*
X28290Y-21983D01*
X28305Y-22043D01*
X28305Y-22148D01*
X28290Y-22208D01*
X28260Y-22238D01*
X28230Y-22253D01*
X28170Y-22253D01*
X28140Y-22238D01*
X28110Y-22208D01*
X28095Y-22148D01*
X28095Y-22043D01*
X28110Y-21983D01*
X28140Y-21953D01*
X28170Y-21938D01*
X28605Y-22253D02*
X28425Y-22253D01*
X28515Y-22253D02*
X28515Y-21938D01*
X28485Y-21983D01*
X28455Y-22013D01*
X28425Y-22028D01*
X28890Y-21938D02*
X28740Y-21938D01*
X28725Y-22088D01*
X28740Y-22073D01*
X28770Y-22058D01*
X28845Y-22058D01*
X28875Y-22073D01*
X28890Y-22088D01*
X28905Y-22118D01*
X28905Y-22193D01*
X28890Y-22223D01*
X28875Y-22238D01*
X28845Y-22253D01*
X28770Y-22253D01*
X28740Y-22238D01*
X28725Y-22223D01*
X27952Y-21741D02*
X27952Y-21426D01*
X28162Y-21426D02*
X28222Y-21426D01*
X28252Y-21441D01*
X28282Y-21471D01*
X28297Y-21531D01*
X28297Y-21636D01*
X28282Y-21696D01*
X28252Y-21726D01*
X28222Y-21741D01*
X28162Y-21741D01*
X28132Y-21726D01*
X28102Y-21696D01*
X28087Y-21636D01*
X28087Y-21531D01*
X28102Y-21471D01*
X28132Y-21441D01*
X28162Y-21426D01*
X28417Y-21456D02*
X28432Y-21441D01*
X28462Y-21426D01*
X28537Y-21426D01*
X28567Y-21441D01*
X28582Y-21456D01*
X28597Y-21486D01*
X28597Y-21516D01*
X28582Y-21561D01*
X28402Y-21741D01*
X28597Y-21741D01*
X27952Y-21229D02*
X27952Y-20914D01*
X28162Y-20914D02*
X28222Y-20914D01*
X28252Y-20929D01*
X28282Y-20959D01*
X28297Y-21019D01*
X28297Y-21124D01*
X28282Y-21184D01*
X28252Y-21214D01*
X28222Y-21229D01*
X28162Y-21229D01*
X28132Y-21214D01*
X28102Y-21184D01*
X28087Y-21124D01*
X28087Y-21019D01*
X28102Y-20959D01*
X28132Y-20929D01*
X28162Y-20914D01*
X28492Y-20914D02*
X28522Y-20914D01*
X28552Y-20929D01*
X28567Y-20944D01*
X28582Y-20974D01*
X28597Y-21034D01*
X28597Y-21109D01*
X28582Y-21169D01*
X28567Y-21199D01*
X28552Y-21214D01*
X28522Y-21229D01*
X28492Y-21229D01*
X28462Y-21214D01*
X28447Y-21199D01*
X28432Y-21169D01*
X28417Y-21109D01*
X28417Y-21034D01*
X28432Y-20974D01*
X28447Y-20944D01*
X28462Y-20929D01*
X28492Y-20914D01*
X29476Y-12999D02*
X29716Y-12999D01*
X29596Y-13119D02*
X29596Y-12879D01*
X30016Y-12804D02*
X29866Y-12804D01*
X29851Y-12954D01*
X29866Y-12939D01*
X29896Y-12924D01*
X29971Y-12924D01*
X30001Y-12939D01*
X30016Y-12954D01*
X30031Y-12984D01*
X30031Y-13059D01*
X30016Y-13089D01*
X30001Y-13104D01*
X29971Y-13119D01*
X29896Y-13119D01*
X29866Y-13104D01*
X29851Y-13089D01*
X30121Y-12804D02*
X30226Y-13119D01*
X30331Y-12804D01*
X29760Y-13827D02*
X29730Y-13812D01*
X29685Y-13812D01*
X29640Y-13827D01*
X29610Y-13857D01*
X29595Y-13887D01*
X29580Y-13947D01*
X29580Y-13992D01*
X29595Y-14052D01*
X29610Y-14082D01*
X29640Y-14112D01*
X29685Y-14127D01*
X29715Y-14127D01*
X29760Y-14112D01*
X29775Y-14097D01*
X29775Y-13992D01*
X29715Y-13992D01*
X29910Y-14127D02*
X29910Y-13812D01*
X30089Y-14127D01*
X30089Y-13812D01*
X30239Y-14127D02*
X30239Y-13812D01*
X30314Y-13812D01*
X30359Y-13827D01*
X30389Y-13857D01*
X30404Y-13887D01*
X30419Y-13947D01*
X30419Y-13992D01*
X30404Y-14052D01*
X30389Y-14082D01*
X30359Y-14112D01*
X30314Y-14127D01*
X30239Y-14127D01*
X29827Y-15127D02*
X29722Y-14977D01*
X29647Y-15127D02*
X29647Y-14812D01*
X29767Y-14812D01*
X29797Y-14827D01*
X29812Y-14842D01*
X29827Y-14872D01*
X29827Y-14917D01*
X29812Y-14947D01*
X29797Y-14962D01*
X29767Y-14977D01*
X29647Y-14977D01*
X29947Y-15112D02*
X29992Y-15127D01*
X30067Y-15127D01*
X30097Y-15112D01*
X30112Y-15097D01*
X30127Y-15067D01*
X30127Y-15037D01*
X30112Y-15007D01*
X30097Y-14992D01*
X30067Y-14977D01*
X30007Y-14962D01*
X29977Y-14947D01*
X29962Y-14932D01*
X29947Y-14902D01*
X29947Y-14872D01*
X29962Y-14842D01*
X29977Y-14827D01*
X30007Y-14812D01*
X30082Y-14812D01*
X30127Y-14827D01*
X30217Y-14812D02*
X30397Y-14812D01*
X30307Y-15127D02*
X30307Y-14812D01*
X29437Y-15991D02*
X29677Y-15991D01*
X29557Y-16111D02*
X29557Y-15871D01*
X29977Y-15796D02*
X29827Y-15796D01*
X29812Y-15946D01*
X29827Y-15931D01*
X29857Y-15916D01*
X29932Y-15916D01*
X29962Y-15931D01*
X29977Y-15946D01*
X29992Y-15976D01*
X29992Y-16051D01*
X29977Y-16081D01*
X29962Y-16096D01*
X29932Y-16111D01*
X29857Y-16111D01*
X29827Y-16096D01*
X29812Y-16081D01*
X30082Y-15796D02*
X30187Y-16111D01*
X30292Y-15796D01*
X29775Y-17037D02*
X29925Y-17037D01*
X29745Y-17127D02*
X29850Y-16812D01*
X29955Y-17127D01*
X30029Y-16812D02*
X30239Y-16812D01*
X30104Y-17127D01*
X29775Y-18037D02*
X29925Y-18037D01*
X29745Y-18127D02*
X29850Y-17812D01*
X29955Y-18127D01*
X30194Y-17812D02*
X30134Y-17812D01*
X30104Y-17827D01*
X30089Y-17842D01*
X30059Y-17887D01*
X30044Y-17947D01*
X30044Y-18067D01*
X30059Y-18097D01*
X30074Y-18112D01*
X30104Y-18127D01*
X30164Y-18127D01*
X30194Y-18112D01*
X30209Y-18097D01*
X30224Y-18067D01*
X30224Y-17992D01*
X30209Y-17962D01*
X30194Y-17947D01*
X30164Y-17932D01*
X30104Y-17932D01*
X30074Y-17947D01*
X30059Y-17962D01*
X30044Y-17992D01*
X28623Y-19013D02*
X28773Y-19013D01*
X28593Y-19103D02*
X28698Y-18788D01*
X28803Y-19103D01*
X29058Y-18788D02*
X28908Y-18788D01*
X28893Y-18938D01*
X28908Y-18923D01*
X28938Y-18908D01*
X29013Y-18908D01*
X29043Y-18923D01*
X29058Y-18938D01*
X29073Y-18968D01*
X29073Y-19043D01*
X29058Y-19073D01*
X29043Y-19088D01*
X29013Y-19103D01*
X28938Y-19103D01*
X28908Y-19088D01*
X28893Y-19073D01*
X29433Y-18773D02*
X29163Y-19178D01*
X29523Y-19088D02*
X29568Y-19103D01*
X29643Y-19103D01*
X29673Y-19088D01*
X29688Y-19073D01*
X29703Y-19043D01*
X29703Y-19013D01*
X29688Y-18983D01*
X29673Y-18968D01*
X29643Y-18953D01*
X29583Y-18938D01*
X29553Y-18923D01*
X29538Y-18908D01*
X29523Y-18878D01*
X29523Y-18848D01*
X29538Y-18818D01*
X29553Y-18803D01*
X29583Y-18788D01*
X29658Y-18788D01*
X29703Y-18803D01*
X30018Y-19073D02*
X30003Y-19088D01*
X29958Y-19103D01*
X29928Y-19103D01*
X29883Y-19088D01*
X29853Y-19058D01*
X29838Y-19028D01*
X29823Y-18968D01*
X29823Y-18923D01*
X29838Y-18863D01*
X29853Y-18833D01*
X29883Y-18803D01*
X29928Y-18788D01*
X29958Y-18788D01*
X30003Y-18803D01*
X30018Y-18818D01*
X30303Y-19103D02*
X30153Y-19103D01*
X30153Y-18788D01*
X28616Y-20076D02*
X28766Y-20076D01*
X28586Y-20166D02*
X28691Y-19851D01*
X28796Y-20166D01*
X29036Y-19956D02*
X29036Y-20166D01*
X28961Y-19836D02*
X28886Y-20061D01*
X29081Y-20061D01*
X29426Y-19836D02*
X29156Y-20241D01*
X29516Y-20151D02*
X29561Y-20166D01*
X29636Y-20166D01*
X29666Y-20151D01*
X29681Y-20136D01*
X29696Y-20106D01*
X29696Y-20076D01*
X29681Y-20046D01*
X29666Y-20031D01*
X29636Y-20016D01*
X29576Y-20001D01*
X29546Y-19986D01*
X29531Y-19971D01*
X29516Y-19941D01*
X29516Y-19911D01*
X29531Y-19881D01*
X29546Y-19866D01*
X29576Y-19851D01*
X29651Y-19851D01*
X29696Y-19866D01*
X29831Y-20166D02*
X29831Y-19851D01*
X29906Y-19851D01*
X29951Y-19866D01*
X29981Y-19896D01*
X29996Y-19926D01*
X30011Y-19986D01*
X30011Y-20031D01*
X29996Y-20091D01*
X29981Y-20121D01*
X29951Y-20151D01*
X29906Y-20166D01*
X29831Y-20166D01*
X30131Y-20076D02*
X30281Y-20076D01*
X30101Y-20166D02*
X30206Y-19851D01*
X30311Y-20166D01*
X29775Y-21037D02*
X29925Y-21037D01*
X29745Y-21127D02*
X29850Y-20812D01*
X29955Y-21127D01*
X30029Y-20812D02*
X30224Y-20812D01*
X30119Y-20932D01*
X30164Y-20932D01*
X30194Y-20947D01*
X30209Y-20962D01*
X30224Y-20992D01*
X30224Y-21067D01*
X30209Y-21097D01*
X30194Y-21112D01*
X30164Y-21127D01*
X30074Y-21127D01*
X30044Y-21112D01*
X30029Y-21097D01*
X29775Y-22037D02*
X29925Y-22037D01*
X29745Y-22127D02*
X29850Y-21812D01*
X29955Y-22127D01*
X30044Y-21842D02*
X30059Y-21827D01*
X30089Y-21812D01*
X30164Y-21812D01*
X30194Y-21827D01*
X30209Y-21842D01*
X30224Y-21872D01*
X30224Y-21902D01*
X30209Y-21947D01*
X30029Y-22127D01*
X30224Y-22127D01*
X29775Y-23037D02*
X29925Y-23037D01*
X29745Y-23127D02*
X29850Y-22812D01*
X29955Y-23127D01*
X30224Y-23127D02*
X30044Y-23127D01*
X30134Y-23127D02*
X30134Y-22812D01*
X30104Y-22857D01*
X30074Y-22887D01*
X30044Y-22902D01*
X29775Y-24037D02*
X29925Y-24037D01*
X29745Y-24127D02*
X29850Y-23812D01*
X29955Y-24127D01*
X30119Y-23812D02*
X30149Y-23812D01*
X30179Y-23827D01*
X30194Y-23842D01*
X30209Y-23872D01*
X30224Y-23932D01*
X30224Y-24007D01*
X30209Y-24067D01*
X30194Y-24097D01*
X30179Y-24112D01*
X30149Y-24127D01*
X30119Y-24127D01*
X30089Y-24112D01*
X30074Y-24097D01*
X30059Y-24067D01*
X30044Y-24007D01*
X30044Y-23932D01*
X30059Y-23872D01*
X30074Y-23842D01*
X30089Y-23827D01*
X30119Y-23812D01*
X29332Y-25037D02*
X29482Y-25037D01*
X29302Y-25127D02*
X29407Y-24812D01*
X29512Y-25127D01*
X29797Y-25127D02*
X29692Y-24977D01*
X29617Y-25127D02*
X29617Y-24812D01*
X29737Y-24812D01*
X29767Y-24827D01*
X29782Y-24842D01*
X29797Y-24872D01*
X29797Y-24917D01*
X29782Y-24947D01*
X29767Y-24962D01*
X29737Y-24977D01*
X29617Y-24977D01*
X29932Y-24962D02*
X30037Y-24962D01*
X30082Y-25127D02*
X29932Y-25127D01*
X29932Y-24812D01*
X30082Y-24812D01*
X30322Y-24962D02*
X30217Y-24962D01*
X30217Y-25127D02*
X30217Y-24812D01*
X30367Y-24812D01*
X29015Y-26031D02*
X29255Y-26031D01*
X29135Y-26151D02*
X29135Y-25911D01*
X29375Y-25836D02*
X29570Y-25836D01*
X29465Y-25956D01*
X29510Y-25956D01*
X29540Y-25971D01*
X29555Y-25986D01*
X29570Y-26016D01*
X29570Y-26091D01*
X29555Y-26121D01*
X29540Y-26136D01*
X29510Y-26151D01*
X29420Y-26151D01*
X29390Y-26136D01*
X29375Y-26121D01*
X29705Y-26121D02*
X29720Y-26136D01*
X29705Y-26151D01*
X29690Y-26136D01*
X29705Y-26121D01*
X29705Y-26151D01*
X29825Y-25836D02*
X30020Y-25836D01*
X29915Y-25956D01*
X29960Y-25956D01*
X29990Y-25971D01*
X30005Y-25986D01*
X30020Y-26016D01*
X30020Y-26091D01*
X30005Y-26121D01*
X29990Y-26136D01*
X29960Y-26151D01*
X29870Y-26151D01*
X29840Y-26136D01*
X29825Y-26121D01*
X30110Y-25836D02*
X30215Y-26151D01*
X30320Y-25836D01*
G54D11*
X18772Y-26922D02*
X18772Y-26646D01*
X18838Y-26646D01*
X18877Y-26660D01*
X18904Y-26686D01*
X18917Y-26712D01*
X18930Y-26765D01*
X18930Y-26804D01*
X18917Y-26856D01*
X18904Y-26883D01*
X18877Y-26909D01*
X18838Y-26922D01*
X18772Y-26922D01*
X19192Y-26922D02*
X19035Y-26922D01*
X19114Y-26922D02*
X19114Y-26646D01*
X19087Y-26686D01*
X19061Y-26712D01*
X19035Y-26725D01*
X19297Y-26673D02*
X19311Y-26660D01*
X19337Y-26646D01*
X19402Y-26646D01*
X19429Y-26660D01*
X19442Y-26673D01*
X19455Y-26699D01*
X19455Y-26725D01*
X19442Y-26765D01*
X19284Y-26922D01*
X19455Y-26922D01*
X19612Y-26646D02*
X19612Y-26712D01*
X19547Y-26686D02*
X19612Y-26712D01*
X19678Y-26686D01*
X19573Y-26765D02*
X19612Y-26712D01*
X19652Y-26765D01*
X18779Y-27377D02*
X18779Y-27101D01*
X18871Y-27298D01*
X18963Y-27101D01*
X18963Y-27377D01*
X19094Y-27377D02*
X19094Y-27101D01*
X19212Y-27364D02*
X19251Y-27377D01*
X19317Y-27377D01*
X19343Y-27364D01*
X19356Y-27351D01*
X19370Y-27324D01*
X19370Y-27298D01*
X19356Y-27272D01*
X19343Y-27259D01*
X19317Y-27246D01*
X19265Y-27232D01*
X19238Y-27219D01*
X19225Y-27206D01*
X19212Y-27180D01*
X19212Y-27154D01*
X19225Y-27127D01*
X19238Y-27114D01*
X19265Y-27101D01*
X19330Y-27101D01*
X19370Y-27114D01*
X19540Y-27101D02*
X19593Y-27101D01*
X19619Y-27114D01*
X19645Y-27141D01*
X19658Y-27193D01*
X19658Y-27285D01*
X19645Y-27337D01*
X19619Y-27364D01*
X19593Y-27377D01*
X19540Y-27377D01*
X19514Y-27364D01*
X19488Y-27337D01*
X19475Y-27285D01*
X19475Y-27193D01*
X19488Y-27141D01*
X19514Y-27114D01*
X19540Y-27101D01*
X18772Y-25859D02*
X18772Y-25583D01*
X18838Y-25583D01*
X18877Y-25597D01*
X18904Y-25623D01*
X18917Y-25649D01*
X18930Y-25702D01*
X18930Y-25741D01*
X18917Y-25793D01*
X18904Y-25820D01*
X18877Y-25846D01*
X18838Y-25859D01*
X18772Y-25859D01*
X19192Y-25859D02*
X19035Y-25859D01*
X19114Y-25859D02*
X19114Y-25583D01*
X19087Y-25623D01*
X19061Y-25649D01*
X19035Y-25662D01*
X19455Y-25859D02*
X19297Y-25859D01*
X19376Y-25859D02*
X19376Y-25583D01*
X19350Y-25623D01*
X19324Y-25649D01*
X19297Y-25662D01*
X19612Y-25583D02*
X19612Y-25649D01*
X19547Y-25623D02*
X19612Y-25649D01*
X19678Y-25623D01*
X19573Y-25702D02*
X19612Y-25649D01*
X19652Y-25702D01*
X18779Y-26314D02*
X18779Y-26038D01*
X18871Y-26235D01*
X18963Y-26038D01*
X18963Y-26314D01*
X19146Y-26038D02*
X19199Y-26038D01*
X19225Y-26051D01*
X19251Y-26078D01*
X19265Y-26130D01*
X19265Y-26222D01*
X19251Y-26274D01*
X19225Y-26301D01*
X19199Y-26314D01*
X19146Y-26314D01*
X19120Y-26301D01*
X19094Y-26274D01*
X19081Y-26222D01*
X19081Y-26130D01*
X19094Y-26078D01*
X19120Y-26051D01*
X19146Y-26038D01*
X19370Y-26301D02*
X19409Y-26314D01*
X19475Y-26314D01*
X19501Y-26301D01*
X19514Y-26288D01*
X19527Y-26261D01*
X19527Y-26235D01*
X19514Y-26209D01*
X19501Y-26196D01*
X19475Y-26183D01*
X19422Y-26169D01*
X19396Y-26156D01*
X19383Y-26143D01*
X19370Y-26117D01*
X19370Y-26091D01*
X19383Y-26064D01*
X19396Y-26051D01*
X19422Y-26038D01*
X19488Y-26038D01*
X19527Y-26051D01*
X19645Y-26314D02*
X19645Y-26038D01*
G54D13*
X18790Y-25127D02*
X18790Y-24812D01*
X18865Y-24812D01*
X18910Y-24827D01*
X18940Y-24857D01*
X18955Y-24887D01*
X18970Y-24947D01*
X18970Y-24992D01*
X18955Y-25052D01*
X18940Y-25082D01*
X18910Y-25112D01*
X18865Y-25127D01*
X18790Y-25127D01*
X19270Y-25127D02*
X19090Y-25127D01*
X19180Y-25127D02*
X19180Y-24812D01*
X19150Y-24857D01*
X19120Y-24887D01*
X19090Y-24902D01*
X19465Y-24812D02*
X19495Y-24812D01*
X19525Y-24827D01*
X19540Y-24842D01*
X19555Y-24872D01*
X19570Y-24932D01*
X19570Y-25007D01*
X19555Y-25067D01*
X19540Y-25097D01*
X19525Y-25112D01*
X19495Y-25127D01*
X19465Y-25127D01*
X19435Y-25112D01*
X19420Y-25097D01*
X19405Y-25067D01*
X19390Y-25007D01*
X19390Y-24932D01*
X19405Y-24872D01*
X19420Y-24842D01*
X19435Y-24827D01*
X19465Y-24812D01*
X18781Y-24143D02*
X18781Y-23828D01*
X18856Y-23828D01*
X18901Y-23843D01*
X18931Y-23873D01*
X18946Y-23903D01*
X18961Y-23963D01*
X18961Y-24008D01*
X18946Y-24068D01*
X18931Y-24098D01*
X18901Y-24128D01*
X18856Y-24143D01*
X18781Y-24143D01*
X19111Y-24143D02*
X19171Y-24143D01*
X19201Y-24128D01*
X19216Y-24113D01*
X19246Y-24068D01*
X19261Y-24008D01*
X19261Y-23888D01*
X19246Y-23858D01*
X19231Y-23843D01*
X19201Y-23828D01*
X19141Y-23828D01*
X19111Y-23843D01*
X19096Y-23858D01*
X19081Y-23888D01*
X19081Y-23963D01*
X19096Y-23993D01*
X19111Y-24008D01*
X19141Y-24023D01*
X19201Y-24023D01*
X19231Y-24008D01*
X19246Y-23993D01*
X19261Y-23963D01*
X19441Y-23828D02*
X19441Y-23903D01*
X19366Y-23873D02*
X19441Y-23903D01*
X19516Y-23873D01*
X19396Y-23963D02*
X19441Y-23903D01*
X19486Y-23963D01*
X18767Y-23127D02*
X18767Y-22812D01*
X18842Y-22812D01*
X18887Y-22827D01*
X18917Y-22857D01*
X18932Y-22887D01*
X18947Y-22947D01*
X18947Y-22992D01*
X18932Y-23052D01*
X18917Y-23082D01*
X18887Y-23112D01*
X18842Y-23127D01*
X18767Y-23127D01*
X19127Y-22947D02*
X19097Y-22932D01*
X19082Y-22917D01*
X19067Y-22887D01*
X19067Y-22872D01*
X19082Y-22842D01*
X19097Y-22827D01*
X19127Y-22812D01*
X19187Y-22812D01*
X19217Y-22827D01*
X19232Y-22842D01*
X19247Y-22872D01*
X19247Y-22887D01*
X19232Y-22917D01*
X19217Y-22932D01*
X19187Y-22947D01*
X19127Y-22947D01*
X19097Y-22962D01*
X19082Y-22977D01*
X19067Y-23007D01*
X19067Y-23067D01*
X19082Y-23097D01*
X19097Y-23112D01*
X19127Y-23127D01*
X19187Y-23127D01*
X19217Y-23112D01*
X19232Y-23097D01*
X19247Y-23067D01*
X19247Y-23007D01*
X19232Y-22977D01*
X19217Y-22962D01*
X19187Y-22947D01*
X18767Y-22127D02*
X18767Y-21812D01*
X18842Y-21812D01*
X18887Y-21827D01*
X18917Y-21857D01*
X18932Y-21887D01*
X18947Y-21947D01*
X18947Y-21992D01*
X18932Y-22052D01*
X18917Y-22082D01*
X18887Y-22112D01*
X18842Y-22127D01*
X18767Y-22127D01*
X19052Y-21812D02*
X19262Y-21812D01*
X19127Y-22127D01*
X18781Y-21111D02*
X18781Y-20796D01*
X18856Y-20796D01*
X18901Y-20811D01*
X18931Y-20841D01*
X18946Y-20871D01*
X18961Y-20931D01*
X18961Y-20976D01*
X18946Y-21036D01*
X18931Y-21066D01*
X18901Y-21096D01*
X18856Y-21111D01*
X18781Y-21111D01*
X19231Y-20796D02*
X19171Y-20796D01*
X19141Y-20811D01*
X19126Y-20826D01*
X19096Y-20871D01*
X19081Y-20931D01*
X19081Y-21051D01*
X19096Y-21081D01*
X19111Y-21096D01*
X19141Y-21111D01*
X19201Y-21111D01*
X19231Y-21096D01*
X19246Y-21081D01*
X19261Y-21051D01*
X19261Y-20976D01*
X19246Y-20946D01*
X19231Y-20931D01*
X19201Y-20916D01*
X19141Y-20916D01*
X19111Y-20931D01*
X19096Y-20946D01*
X19081Y-20976D01*
X19441Y-20796D02*
X19441Y-20871D01*
X19366Y-20841D02*
X19441Y-20871D01*
X19516Y-20841D01*
X19396Y-20931D02*
X19441Y-20871D01*
X19486Y-20931D01*
X18781Y-20127D02*
X18781Y-19812D01*
X18856Y-19812D01*
X18901Y-19827D01*
X18931Y-19857D01*
X18946Y-19887D01*
X18961Y-19947D01*
X18961Y-19992D01*
X18946Y-20052D01*
X18931Y-20082D01*
X18901Y-20112D01*
X18856Y-20127D01*
X18781Y-20127D01*
X19246Y-19812D02*
X19096Y-19812D01*
X19081Y-19962D01*
X19096Y-19947D01*
X19126Y-19932D01*
X19201Y-19932D01*
X19231Y-19947D01*
X19246Y-19962D01*
X19261Y-19992D01*
X19261Y-20067D01*
X19246Y-20097D01*
X19231Y-20112D01*
X19201Y-20127D01*
X19126Y-20127D01*
X19096Y-20112D01*
X19081Y-20097D01*
X19441Y-19812D02*
X19441Y-19887D01*
X19366Y-19857D02*
X19441Y-19887D01*
X19516Y-19857D01*
X19396Y-19947D02*
X19441Y-19887D01*
X19486Y-19947D01*
X18767Y-19127D02*
X18767Y-18812D01*
X18842Y-18812D01*
X18887Y-18827D01*
X18917Y-18857D01*
X18932Y-18887D01*
X18947Y-18947D01*
X18947Y-18992D01*
X18932Y-19052D01*
X18917Y-19082D01*
X18887Y-19112D01*
X18842Y-19127D01*
X18767Y-19127D01*
X19217Y-18917D02*
X19217Y-19127D01*
X19142Y-18797D02*
X19067Y-19022D01*
X19262Y-19022D01*
X18742Y-18119D02*
X18742Y-17804D01*
X18817Y-17804D01*
X18862Y-17819D01*
X18892Y-17849D01*
X18907Y-17879D01*
X18922Y-17939D01*
X18922Y-17984D01*
X18907Y-18044D01*
X18892Y-18074D01*
X18862Y-18104D01*
X18817Y-18119D01*
X18742Y-18119D01*
X19026Y-17804D02*
X19221Y-17804D01*
X19116Y-17924D01*
X19161Y-17924D01*
X19191Y-17939D01*
X19206Y-17954D01*
X19221Y-17984D01*
X19221Y-18059D01*
X19206Y-18089D01*
X19191Y-18104D01*
X19161Y-18119D01*
X19071Y-18119D01*
X19041Y-18104D01*
X19026Y-18089D01*
X19401Y-17804D02*
X19401Y-17879D01*
X19326Y-17849D02*
X19401Y-17879D01*
X19476Y-17849D01*
X19356Y-17939D02*
X19401Y-17879D01*
X19446Y-17939D01*
X18767Y-17127D02*
X18767Y-16812D01*
X18842Y-16812D01*
X18887Y-16827D01*
X18917Y-16857D01*
X18932Y-16887D01*
X18947Y-16947D01*
X18947Y-16992D01*
X18932Y-17052D01*
X18917Y-17082D01*
X18887Y-17112D01*
X18842Y-17127D01*
X18767Y-17127D01*
X19067Y-16842D02*
X19082Y-16827D01*
X19112Y-16812D01*
X19187Y-16812D01*
X19217Y-16827D01*
X19232Y-16842D01*
X19247Y-16872D01*
X19247Y-16902D01*
X19232Y-16947D01*
X19052Y-17127D01*
X19247Y-17127D01*
X18760Y-15827D02*
X18730Y-15812D01*
X18685Y-15812D01*
X18640Y-15827D01*
X18610Y-15857D01*
X18595Y-15887D01*
X18580Y-15947D01*
X18580Y-15992D01*
X18595Y-16052D01*
X18610Y-16082D01*
X18640Y-16112D01*
X18685Y-16127D01*
X18715Y-16127D01*
X18760Y-16112D01*
X18775Y-16097D01*
X18775Y-15992D01*
X18715Y-15992D01*
X18910Y-16127D02*
X18910Y-15812D01*
X19089Y-16127D01*
X19089Y-15812D01*
X19239Y-16127D02*
X19239Y-15812D01*
X19314Y-15812D01*
X19359Y-15827D01*
X19389Y-15857D01*
X19404Y-15887D01*
X19419Y-15947D01*
X19419Y-15992D01*
X19404Y-16052D01*
X19389Y-16082D01*
X19359Y-16112D01*
X19314Y-16127D01*
X19239Y-16127D01*
X18827Y-15127D02*
X18722Y-14977D01*
X18647Y-15127D02*
X18647Y-14812D01*
X18767Y-14812D01*
X18797Y-14827D01*
X18812Y-14842D01*
X18827Y-14872D01*
X18827Y-14917D01*
X18812Y-14947D01*
X18797Y-14962D01*
X18767Y-14977D01*
X18647Y-14977D01*
X18947Y-15112D02*
X18992Y-15127D01*
X19067Y-15127D01*
X19097Y-15112D01*
X19112Y-15097D01*
X19127Y-15067D01*
X19127Y-15037D01*
X19112Y-15007D01*
X19097Y-14992D01*
X19067Y-14977D01*
X19007Y-14962D01*
X18977Y-14947D01*
X18962Y-14932D01*
X18947Y-14902D01*
X18947Y-14872D01*
X18962Y-14842D01*
X18977Y-14827D01*
X19007Y-14812D01*
X19082Y-14812D01*
X19127Y-14827D01*
X19217Y-14812D02*
X19397Y-14812D01*
X19307Y-15127D02*
X19307Y-14812D01*
G54D11*
X18674Y-14087D02*
X18674Y-13812D01*
X18740Y-13812D01*
X18779Y-13825D01*
X18805Y-13851D01*
X18818Y-13877D01*
X18832Y-13930D01*
X18832Y-13969D01*
X18818Y-14022D01*
X18805Y-14048D01*
X18779Y-14074D01*
X18740Y-14087D01*
X18674Y-14087D01*
X19002Y-13812D02*
X19028Y-13812D01*
X19055Y-13825D01*
X19068Y-13838D01*
X19081Y-13864D01*
X19094Y-13917D01*
X19094Y-13982D01*
X19081Y-14035D01*
X19068Y-14061D01*
X19055Y-14074D01*
X19028Y-14087D01*
X19002Y-14087D01*
X18976Y-14074D01*
X18963Y-14061D01*
X18950Y-14035D01*
X18937Y-13982D01*
X18937Y-13917D01*
X18950Y-13864D01*
X18963Y-13838D01*
X18976Y-13825D01*
X19002Y-13812D01*
X19409Y-13799D02*
X19173Y-14153D01*
X19658Y-14087D02*
X19566Y-13956D01*
X19501Y-14087D02*
X19501Y-13812D01*
X19606Y-13812D01*
X19632Y-13825D01*
X19645Y-13838D01*
X19658Y-13864D01*
X19658Y-13904D01*
X19645Y-13930D01*
X19632Y-13943D01*
X19606Y-13956D01*
X19501Y-13956D01*
X19750Y-13812D02*
X19934Y-14087D01*
X19934Y-13812D02*
X19750Y-14087D01*
X18707Y-13103D02*
X18707Y-12828D01*
X18772Y-12828D01*
X18812Y-12841D01*
X18838Y-12867D01*
X18851Y-12893D01*
X18864Y-12946D01*
X18864Y-12985D01*
X18851Y-13038D01*
X18838Y-13064D01*
X18812Y-13090D01*
X18772Y-13103D01*
X18707Y-13103D01*
X19127Y-13103D02*
X18969Y-13103D01*
X19048Y-13103D02*
X19048Y-12828D01*
X19022Y-12867D01*
X18996Y-12893D01*
X18969Y-12906D01*
X19442Y-12814D02*
X19206Y-13169D01*
X19494Y-12828D02*
X19652Y-12828D01*
X19573Y-13103D02*
X19573Y-12828D01*
X19717Y-12828D02*
X19901Y-13103D01*
X19901Y-12828D02*
X19717Y-13103D01*
G54D12*
X26729Y-14725D02*
X26729Y-14528D01*
X26776Y-14528D01*
X26804Y-14537D01*
X26823Y-14556D01*
X26832Y-14575D01*
X26841Y-14612D01*
X26841Y-14640D01*
X26832Y-14678D01*
X26823Y-14697D01*
X26804Y-14715D01*
X26776Y-14725D01*
X26729Y-14725D01*
X27029Y-14725D02*
X26916Y-14725D01*
X26973Y-14725D02*
X26973Y-14528D01*
X26954Y-14556D01*
X26935Y-14575D01*
X26916Y-14584D01*
X27095Y-14528D02*
X27216Y-14528D01*
X27151Y-14603D01*
X27179Y-14603D01*
X27198Y-14612D01*
X27207Y-14622D01*
X27216Y-14640D01*
X27216Y-14687D01*
X27207Y-14706D01*
X27198Y-14715D01*
X27179Y-14725D01*
X27123Y-14725D01*
X27104Y-14715D01*
X27095Y-14706D01*
X26784Y-12756D02*
X26784Y-12559D01*
X26859Y-12559D01*
X26878Y-12569D01*
X26887Y-12578D01*
X26897Y-12597D01*
X26897Y-12625D01*
X26887Y-12644D01*
X26878Y-12653D01*
X26859Y-12663D01*
X26784Y-12663D01*
X26962Y-12559D02*
X27009Y-12756D01*
X27047Y-12616D01*
X27084Y-12756D01*
X27131Y-12559D01*
X27319Y-12756D02*
X27253Y-12663D01*
X27206Y-12756D02*
X27206Y-12559D01*
X27281Y-12559D01*
X27300Y-12569D01*
X27309Y-12578D01*
X27319Y-12597D01*
X27319Y-12625D01*
X27309Y-12644D01*
X27300Y-12653D01*
X27281Y-12663D01*
X27206Y-12663D01*
G54D10*
X21771Y-12992D02*
X22362Y-12992D01*
X22362Y-12992D02*
X22362Y-18307D01*
X22362Y-18307D02*
X21811Y-18307D01*
X20708Y-18307D02*
X20039Y-18307D01*
X20039Y-18307D02*
X20039Y-12992D01*
X20039Y-12992D02*
X20708Y-12992D01*
G54D14*
X27580Y-18940D02*
X27130Y-18940D01*
X27580Y-16760D02*
X27140Y-16760D01*
X27580Y-18940D02*
X27580Y-16760D01*
X26700Y-19410D02*
X26700Y-19840D01*
X24490Y-19420D02*
X24490Y-19840D01*
X24480Y-19840D02*
X26700Y-19850D01*
X24500Y-15870D02*
X26670Y-15860D01*
X24070Y-16560D02*
X24070Y-19390D01*
X26680Y-15870D02*
X26680Y-16280D01*
X24320Y-16320D02*
X27100Y-16320D01*
X27120Y-19400D02*
X27120Y-16360D01*
X24070Y-19400D02*
X27070Y-19400D01*
X23620Y-16730D02*
X23620Y-18950D01*
X23620Y-18950D02*
X24070Y-18950D01*
X24074Y-16550D02*
X24304Y-16320D01*
X23622Y-16730D02*
X24074Y-16730D01*
X24500Y-16320D02*
X24500Y-15868D01*
X24670Y-16724D02*
G75*
G03X24670Y-16724I-188J0D01*
G74*
G01*
G54D10*
X31450Y-27500D02*
X30500Y-27500D01*
X30500Y-27500D02*
X30500Y-12500D01*
X30500Y-12500D02*
X31450Y-12500D01*
X31450Y-12500D02*
X31450Y-27500D01*
X17550Y-12500D02*
X18500Y-12500D01*
X18500Y-12500D02*
X18500Y-27500D01*
X18500Y-27500D02*
X17550Y-27500D01*
X17550Y-27500D02*
X17550Y-12500D01*
X26905Y-20785D02*
G75*
G03X26905Y-20785I-78J0D01*
G74*
G01*
X26669Y-21966D02*
X26669Y-22281D01*
X25370Y-21966D02*
X26669Y-21966D01*
X25370Y-22281D02*
X25370Y-21966D01*
X26669Y-22281D02*
X25370Y-22281D01*
X26000Y-21966D02*
X26000Y-22281D01*
X26000Y-22477D02*
X26000Y-22792D01*
X26669Y-22792D02*
X25370Y-22792D01*
X25370Y-22792D02*
X25370Y-22477D01*
X25370Y-22477D02*
X26669Y-22477D01*
X26669Y-22477D02*
X26669Y-22792D01*
X26669Y-21454D02*
X26669Y-21769D01*
X25370Y-21454D02*
X26669Y-21454D01*
X25370Y-21769D02*
X25370Y-21454D01*
X26669Y-21769D02*
X25370Y-21769D01*
X26000Y-21454D02*
X26000Y-21769D01*
X26000Y-20942D02*
X26000Y-21257D01*
X26669Y-21257D02*
X25370Y-21257D01*
X25370Y-21257D02*
X25370Y-20942D01*
X25370Y-20942D02*
X26669Y-20942D01*
X26669Y-20942D02*
X26669Y-21257D01*
X27000Y-20600D02*
X27000Y-23100D01*
X27000Y-23100D02*
X25000Y-23100D01*
X25000Y-23100D02*
X25000Y-20600D01*
X25000Y-20600D02*
X27000Y-20600D01*
X28129Y-14448D02*
X26712Y-14448D01*
X26712Y-14448D02*
X26712Y-13818D01*
X26712Y-13818D02*
X28129Y-13818D01*
X28129Y-13818D02*
X28129Y-14448D01*
X28129Y-13464D02*
X26712Y-13464D01*
X26712Y-13464D02*
X26712Y-12834D01*
X26712Y-12834D02*
X28129Y-12834D01*
X28129Y-12834D02*
X28129Y-13464D01*
X20377Y-23600D02*
X20377Y-23679D01*
X27464Y-23600D02*
X27464Y-23679D01*
X27464Y-31474D02*
X27464Y-28915D01*
X20377Y-31474D02*
X20377Y-28915D01*
X27464Y-29190D02*
X20377Y-29190D01*
X27464Y-31474D02*
X20377Y-31474D01*
X20377Y-23600D02*
X27464Y-23600D01*
X22200Y-20600D02*
G75*
G03X22200Y-19700I-450J450D01*
G74*
G01*
X21300Y-19700D02*
G75*
G03X21300Y-20600I450J-450D01*
G74*
G01*
X20350Y-19300D02*
X23150Y-19300D01*
X23150Y-19300D02*
X23150Y-21000D01*
X23150Y-21000D02*
X20350Y-21000D01*
X20350Y-21000D02*
X20350Y-19300D01*
X21300Y-21750D02*
G75*
G03X21300Y-22650I450J-450D01*
G74*
G01*
X22200Y-22650D02*
G75*
G03X22200Y-21750I-450J450D01*
G74*
G01*
X23150Y-23050D02*
X20350Y-23050D01*
X20350Y-23050D02*
X20350Y-21350D01*
X20350Y-21350D02*
X23150Y-21350D01*
X23150Y-21350D02*
X23150Y-23050D01*
G54D15*
X24061Y-13350D02*
G75*
G03X24061Y-13350I-111J0D01*
G74*
G01*
X25450Y-15100D02*
X25450Y-13100D01*
X25450Y-13100D02*
X23650Y-13100D01*
X23650Y-13100D02*
X23650Y-15100D01*
X23650Y-15100D02*
X25450Y-15100D01*
G54D10*
X20947Y-16107D02*
X21538Y-15714D01*
X20947Y-15714D02*
X21538Y-16107D01*
X21538Y-15179D02*
X21538Y-15517D01*
X21538Y-15348D02*
X20947Y-15348D01*
X21032Y-15404D01*
X21088Y-15461D01*
X21116Y-15517D01*
G54D16*
X23824Y-20036D02*
X23324Y-20036D01*
X23776Y-19617D02*
X23800Y-19636D01*
X23824Y-19693D01*
X23824Y-19731D01*
X23800Y-19788D01*
X23752Y-19826D01*
X23705Y-19845D01*
X23610Y-19864D01*
X23538Y-19864D01*
X23443Y-19845D01*
X23395Y-19826D01*
X23348Y-19788D01*
X23324Y-19731D01*
X23324Y-19693D01*
X23348Y-19636D01*
X23372Y-19617D01*
X23824Y-19236D02*
X23824Y-19464D01*
X23824Y-19350D02*
X23324Y-19350D01*
X23395Y-19388D01*
X23443Y-19426D01*
X23467Y-19464D01*
X31185Y-28326D02*
X30785Y-28326D01*
X30785Y-28174D01*
X30804Y-28136D01*
X30823Y-28117D01*
X30861Y-28098D01*
X30918Y-28098D01*
X30956Y-28117D01*
X30976Y-28136D01*
X30995Y-28174D01*
X30995Y-28326D01*
X30823Y-27945D02*
X30804Y-27926D01*
X30785Y-27888D01*
X30785Y-27793D01*
X30804Y-27755D01*
X30823Y-27736D01*
X30861Y-27717D01*
X30899Y-27717D01*
X30956Y-27736D01*
X31185Y-27964D01*
X31185Y-27717D01*
X18193Y-28287D02*
X17793Y-28287D01*
X17793Y-28134D01*
X17812Y-28096D01*
X17831Y-28077D01*
X17869Y-28058D01*
X17926Y-28058D01*
X17964Y-28077D01*
X17983Y-28096D01*
X18002Y-28134D01*
X18002Y-28287D01*
X18193Y-27677D02*
X18193Y-27906D01*
X18193Y-27792D02*
X17793Y-27792D01*
X17850Y-27830D01*
X17888Y-27868D01*
X17907Y-27906D01*
G54D12*
X23967Y-22860D02*
X23977Y-22832D01*
X23977Y-22785D01*
X23967Y-22767D01*
X23958Y-22757D01*
X23939Y-22748D01*
X23921Y-22748D01*
X23902Y-22757D01*
X23892Y-22767D01*
X23883Y-22785D01*
X23874Y-22823D01*
X23864Y-22842D01*
X23855Y-22851D01*
X23836Y-22860D01*
X23817Y-22860D01*
X23799Y-22851D01*
X23789Y-22842D01*
X23780Y-22823D01*
X23780Y-22776D01*
X23789Y-22748D01*
X23780Y-22682D02*
X23977Y-22635D01*
X23836Y-22598D01*
X23977Y-22560D01*
X23780Y-22514D01*
X23780Y-22457D02*
X23780Y-22335D01*
X23855Y-22401D01*
X23855Y-22373D01*
X23864Y-22354D01*
X23874Y-22345D01*
X23892Y-22335D01*
X23939Y-22335D01*
X23958Y-22345D01*
X23967Y-22354D01*
X23977Y-22373D01*
X23977Y-22429D01*
X23967Y-22448D01*
X23958Y-22457D01*
G54D17*
X27898Y-14726D02*
X27898Y-14526D01*
X27941Y-14526D01*
X27967Y-14536D01*
X27984Y-14555D01*
X27992Y-14574D01*
X28001Y-14612D01*
X28001Y-14640D01*
X27992Y-14679D01*
X27984Y-14698D01*
X27967Y-14717D01*
X27941Y-14726D01*
X27898Y-14726D01*
X28172Y-14726D02*
X28070Y-14726D01*
X28121Y-14726D02*
X28121Y-14526D01*
X28104Y-14555D01*
X28087Y-14574D01*
X28070Y-14583D01*
X27819Y-12758D02*
X27819Y-12558D01*
X27862Y-12558D01*
X27888Y-12567D01*
X27905Y-12586D01*
X27914Y-12605D01*
X27922Y-12643D01*
X27922Y-12672D01*
X27914Y-12710D01*
X27905Y-12729D01*
X27888Y-12748D01*
X27862Y-12758D01*
X27819Y-12758D01*
X27991Y-12577D02*
X27999Y-12567D01*
X28017Y-12558D01*
X28059Y-12558D01*
X28077Y-12567D01*
X28085Y-12577D01*
X28094Y-12596D01*
X28094Y-12615D01*
X28085Y-12643D01*
X27982Y-12758D01*
X28094Y-12758D01*
G54D10*
X23637Y-24332D02*
X23637Y-24651D01*
X23655Y-24688D01*
X23674Y-24707D01*
X23712Y-24726D01*
X23787Y-24726D01*
X23824Y-24707D01*
X23843Y-24688D01*
X23862Y-24651D01*
X23862Y-24332D01*
X24030Y-24370D02*
X24049Y-24351D01*
X24086Y-24332D01*
X24180Y-24332D01*
X24218Y-24351D01*
X24236Y-24370D01*
X24255Y-24407D01*
X24255Y-24445D01*
X24236Y-24501D01*
X24011Y-24726D01*
X24255Y-24726D01*
G54D12*
X23456Y-20971D02*
X23465Y-20943D01*
X23465Y-20896D01*
X23456Y-20877D01*
X23446Y-20868D01*
X23428Y-20858D01*
X23409Y-20858D01*
X23390Y-20868D01*
X23381Y-20877D01*
X23371Y-20896D01*
X23362Y-20933D01*
X23353Y-20952D01*
X23343Y-20961D01*
X23324Y-20971D01*
X23306Y-20971D01*
X23287Y-20961D01*
X23278Y-20952D01*
X23268Y-20933D01*
X23268Y-20886D01*
X23278Y-20858D01*
X23268Y-20793D02*
X23465Y-20746D01*
X23324Y-20708D01*
X23465Y-20671D01*
X23268Y-20624D01*
X23465Y-20446D02*
X23465Y-20558D01*
X23465Y-20502D02*
X23268Y-20502D01*
X23296Y-20521D01*
X23315Y-20539D01*
X23324Y-20558D01*
X23416Y-23018D02*
X23426Y-22990D01*
X23426Y-22943D01*
X23416Y-22924D01*
X23407Y-22915D01*
X23388Y-22905D01*
X23369Y-22905D01*
X23351Y-22915D01*
X23341Y-22924D01*
X23332Y-22943D01*
X23323Y-22980D01*
X23313Y-22999D01*
X23304Y-23008D01*
X23285Y-23018D01*
X23266Y-23018D01*
X23248Y-23008D01*
X23238Y-22999D01*
X23229Y-22980D01*
X23229Y-22934D01*
X23238Y-22905D01*
X23229Y-22840D02*
X23426Y-22793D01*
X23285Y-22755D01*
X23426Y-22718D01*
X23229Y-22671D01*
X23248Y-22605D02*
X23238Y-22596D01*
X23229Y-22577D01*
X23229Y-22530D01*
X23238Y-22512D01*
X23248Y-22502D01*
X23266Y-22493D01*
X23285Y-22493D01*
X23313Y-22502D01*
X23426Y-22615D01*
X23426Y-22493D01*
G54D18*
X22670Y-13093D02*
X22893Y-13093D01*
X22920Y-13081D01*
X22933Y-13070D01*
X22946Y-13048D01*
X22946Y-13003D01*
X22933Y-12980D01*
X22920Y-12969D01*
X22893Y-12958D01*
X22670Y-12958D01*
X22946Y-12722D02*
X22946Y-12857D01*
X22946Y-12789D02*
X22670Y-12789D01*
X22709Y-12812D01*
X22736Y-12834D01*
X22749Y-12857D01*
%LPC*%
G54D19*
X21259Y-17677D03*
X21259Y-13740D03*
G54D20*
X23704Y-18943D03*
X23704Y-18628D03*
X23704Y-18313D03*
X23704Y-17998D03*
X23704Y-17683D03*
X23704Y-17368D03*
X23704Y-17053D03*
X23704Y-16738D03*
X27470Y-16740D03*
X27470Y-18950D03*
X27470Y-18630D03*
X27470Y-18310D03*
X27470Y-18000D03*
X27470Y-17680D03*
X27470Y-17370D03*
X27470Y-17050D03*
G54D21*
X24488Y-15950D03*
X24802Y-15950D03*
X25118Y-15950D03*
X25432Y-15950D03*
X25748Y-15950D03*
X26062Y-15950D03*
X26378Y-15950D03*
X26692Y-15950D03*
X24490Y-19730D03*
X24800Y-19730D03*
X25120Y-19730D03*
X25430Y-19730D03*
X25740Y-19730D03*
X26060Y-19730D03*
X26380Y-19730D03*
X26700Y-19730D03*
G54D22*
X31000Y-27000D03*
G54D23*
X31000Y-26000D03*
X31000Y-25000D03*
X31000Y-24000D03*
X31000Y-23000D03*
X31000Y-22000D03*
X31000Y-21000D03*
X31000Y-20000D03*
X31000Y-19000D03*
X31000Y-18000D03*
X31000Y-17000D03*
X31000Y-16000D03*
X31000Y-15000D03*
X31000Y-14000D03*
X31000Y-13000D03*
G54D22*
X18000Y-13000D03*
G54D23*
X18000Y-14000D03*
X18000Y-15000D03*
X18000Y-16000D03*
X18000Y-17000D03*
X18000Y-18000D03*
X18000Y-19000D03*
X18000Y-20000D03*
X18000Y-21000D03*
X18000Y-22000D03*
X18000Y-23000D03*
X18000Y-24000D03*
X18000Y-25000D03*
X18000Y-26000D03*
X18000Y-27000D03*
G54D24*
X24500Y-21100D03*
X24500Y-21600D03*
X24500Y-22100D03*
X24500Y-22600D03*
X27500Y-21100D03*
X27500Y-21600D03*
X27500Y-22100D03*
X27500Y-22600D03*
G54D25*
X27834Y-14133D03*
X27007Y-14133D03*
X27834Y-13149D03*
X27007Y-13149D03*
G54D26*
X20377Y-23954D03*
X20377Y-24545D03*
X20377Y-25135D03*
X20377Y-25726D03*
X20377Y-26316D03*
X20377Y-26907D03*
X20377Y-27498D03*
X20377Y-28088D03*
X20377Y-28679D03*
X27464Y-28679D03*
X27464Y-28088D03*
X27464Y-27498D03*
X27464Y-26907D03*
X27464Y-26316D03*
X27464Y-25726D03*
X27464Y-25135D03*
X27464Y-24545D03*
X27464Y-23954D03*
G54D27*
X20726Y-19598D03*
X22773Y-19598D03*
X20726Y-20701D03*
X22773Y-20701D03*
X22773Y-22751D03*
X20726Y-22751D03*
X22773Y-21648D03*
X20726Y-21648D03*
G54D28*
X30314Y-29921D03*
X18897Y-29921D03*
G54D29*
X23408Y-14100D03*
X23408Y-14356D03*
X23408Y-14612D03*
X23408Y-14868D03*
X25730Y-14868D03*
X23408Y-13332D03*
X23408Y-13588D03*
X23408Y-13844D03*
X25730Y-14612D03*
X25730Y-14356D03*
X25730Y-14100D03*
X25730Y-13844D03*
X25730Y-13588D03*
X25730Y-13332D03*
G54D30*
X29645Y-25905D03*
X21456Y-28267D03*
X25196Y-12834D03*
X26377Y-25433D03*
X26220Y-23464D03*
X26889Y-28700D03*
X29448Y-15078D03*
X23503Y-12952D03*
X24645Y-18149D03*
X26614Y-18425D03*
X24656Y-17294D03*
X26496Y-17952D03*
X27204Y-19881D03*
X27677Y-19842D03*
X28188Y-20039D03*
X28149Y-18307D03*
X28149Y-17362D03*
X27165Y-19370D03*
X19291Y-24724D03*
X22244Y-12519D03*
X22283Y-12992D03*
X19645Y-23976D03*
X19330Y-15196D03*
X22795Y-15196D03*
X22795Y-15708D03*
X19724Y-15669D03*
X25748Y-26535D03*
X28543Y-25748D03*
X28858Y-26102D03*
X26141Y-26850D03*
X25748Y-27204D03*
X29094Y-26614D03*
X28818Y-16496D03*
X28149Y-18976D03*
X28622Y-20314D03*
X30275Y-25314D03*
X22795Y-16181D03*
X19724Y-16181D03*
X22716Y-13464D03*
X22716Y-14724D03*
X22795Y-16653D03*
X19724Y-16653D03*
X22795Y-17125D03*
X19724Y-17244D03*
X28228Y-25393D03*
X25393Y-26220D03*
X27165Y-16299D03*
X30433Y-16614D03*
X23346Y-16259D03*
X22244Y-20708D03*
X19251Y-15669D03*
X20157Y-20708D03*
X29133Y-20039D03*
X29133Y-30708D03*
X27952Y-30708D03*
X26771Y-30708D03*
X25590Y-30708D03*
X24409Y-30708D03*
X23228Y-30708D03*
X22047Y-30708D03*
X20866Y-30708D03*
X20393Y-15433D03*
X20393Y-16968D03*
X20393Y-14409D03*
X28149Y-15433D03*
X28149Y-14724D03*
X25196Y-18937D03*
X25472Y-17125D03*
X26417Y-12795D03*
X18897Y-19291D03*
X28464Y-28031D03*
X23543Y-19606D03*
X23425Y-21535D03*
X27086Y-23937D03*
X23425Y-15118D03*
X26968Y-22598D03*
X21062Y-25708D03*
X21023Y-28700D03*
X26600Y-16796D03*
X21338Y-22755D03*
X21574Y-23976D03*
X20984Y-26929D03*
X28267Y-14133D03*
X28267Y-13149D03*
X24960Y-21614D03*
X24921Y-22086D03*
X25000Y-23031D03*
X21771Y-13740D03*
X21771Y-17992D03*
X25118Y-20866D03*
M02*
