M48
;DRILL file {Pcbnew (2013-07-07 BZR 4022)-stable} date 2015/11/30 22:46:24
;FORMAT={3:3/ absolute / metric / suppress trailing zeros}
FMAT,2
METRIC,LZ
T1C0.635
T2C1.016
%
G90
G05
M71
T1
X0926Y-0597
X0928Y-0775
X0928Y-0876
X0928Y-0976
X0928Y-1082
X0964Y-0701
X0967Y-1082
X0971Y-0656
X0975Y-0763
X0979Y-0674
X0986Y-0776
X0991Y-1006
X0992Y-103
X0993Y-0991
X0994Y-0969
X0996Y-0673
X101Y-1082
X1011Y-0598
X1023Y-0653
X1024Y-0797
X1029Y-0776
X1035Y-0974
X1039Y-0891
X1046Y-0759
X1047Y-0846
X105Y-0958
X1053Y-1025
X1057Y-0815
X106Y-0889
X1064Y-0867
X1064Y-0932
X1065Y-0774
X1066Y-099
X1066Y-1003
X1066Y-1016
X1069Y-0943
X1072Y-0764
X1073Y-0797
X1075Y-0654
X1081Y-0954
X1099Y-0887
X1101Y-0983
X1102Y-0673
X1103Y-0827
X1104Y-1024
X1105Y-0724
X111Y-0995
X1113Y-0935
X1113Y-0976
X1115Y-0873
X1116Y-0695
X1116Y-0827
X1118Y-0839
X1118Y-0915
X112Y-0598
X1123Y-0893
X113Y-0993
X1133Y-0914
X1134Y-0901
X1142Y-071
X1142Y-0734
X115Y-0901
X1152Y-0855
X1155Y-0971
X1161Y-0989
X1163Y-0901
X1175Y-0901
X1178Y-0746
X118Y-0721
X1181Y-0989
X11851Y-08119
X1193Y-0838
X1196Y-0595
X1201Y-0829
X1206Y-1083
X1211Y-082
X1212Y-0769
X1213Y-0899
X1218Y-0809
X122Y-0709
X1224Y-0942
X1225Y-0989
X1229Y-0815
X1229Y-0829
X1229Y-0843
X1229Y-0856
X1229Y-1042
X1243Y-0914
X1252Y-1039
X1254Y-0747
X1254Y-1064
X1259Y-0994
X1262Y-0596
X1264Y-1029
X1265Y-108
X1273Y-075
X1308Y-0902
X1308Y-1004
X1308Y-108
X1309Y-0597
X1309Y-07
X1309Y-0802
T2
X09398Y-06096
X09398Y-0635
X09398Y-06604
X09398Y-06858
X09398Y-07112
X09398Y-07366
X09398Y-0762
X09398Y-07874
X09398Y-08128
X09398Y-08382
X09398Y-08636
X09398Y-0889
X09398Y-09144
X09398Y-09398
X09398Y-09652
X09398Y-09906
X09398Y-1016
X09398Y-10414
X09398Y-10668
X12954Y-06096
X12954Y-0635
X12954Y-06604
X12954Y-06858
X12954Y-07112
X12954Y-07366
X12954Y-0762
X12954Y-07874
X12954Y-08128
X12954Y-08382
X12954Y-08636
X12954Y-0889
X12954Y-09144
X12954Y-09398
X12954Y-09652
X12954Y-09906
X12954Y-1016
X12954Y-10414
X12954Y-10668
T0
M30
