M48
;DRILL file {Pcbnew (2013-07-07 BZR 4022)-stable} date 2015/10/29 19:57:26
;FORMAT={3:3/ absolute / metric / suppress trailing zeros}
FMAT,2
METRIC,LZ
T1C0.635
T2C1.016
T3C3.200
%
G90
G05
M71
T1
X0456Y-0787
X0461Y-0311
X0486Y-0787
X0487Y-0619
X0502Y-0342
X0502Y-0411
X0505Y-0485
X0506Y-0502
X051Y-0687
X0516Y-0787
X0522Y-0472
X0523Y-0311
X053Y-0398
X0539Y-0787
X0544Y-0499
X0552Y-0624
X0558Y-0483
X056Y-0681
X0561Y-0311
X0561Y-0532
X0563Y-0582
X0564Y-0787
X0565Y-0692
X0567Y-0624
X0571Y-0732
X0575Y-0505
X0578Y-0582
X0582Y-0405
X0583Y-057
X0586Y-0544
X0592Y-0787
X0593Y-0482
X0594Y-0309
X0594Y-0353
X0595Y-0648
X0595Y-0717
X0598Y-0589
X0598Y-07
X0602Y-0405
X0606Y-0509
X0609Y-0732
X0618Y-0631
X0619Y-0569
X0619Y-0787
X062Y-0663
X0625Y-0681
X0626Y-0431
X0627Y-0604
X0627Y-0702
X0629Y-0623
X0629Y-0649
X0631Y-0553
X0632Y-0728
X0637Y-0672
X064Y-0311
X0642Y-0736
X0646Y-0787
X0653Y-0414
X0656Y-0449
X0656Y-0669
X066Y-0384
X0664Y-066
X0673Y-0312
X0673Y-0669
X0674Y-0609
X0674Y-0717
X0676Y-0788
X0678Y-0621
X0686Y-0488
X0687Y-0666
X0689Y-0528
X0689Y-0544
X0689Y-0557
X0689Y-0575
X0699Y-0419
X0699Y-0726
X0704Y-0392
X0706Y-0788
X0723Y-033
X0724Y-0354
X0727Y-0312
X0735Y-074
X0736Y-0619
X0736Y-0789
X0739Y-0708
X0742Y-0538
X0745Y-0479
X0747Y-0373
X0747Y-0418
X0747Y-0595
X0757Y-0789
X076Y-0312
X076Y-0446
X076Y-0647
X0763Y-0711
X0771Y-0398
X0775Y-0598
X078Y-0789
X0796Y-0313
X0798Y-0789
T2
X04572Y-03302
X04572Y-03556
X04572Y-0381
X04572Y-04064
X04572Y-04318
X04572Y-04572
X04572Y-04826
X04572Y-0508
X04572Y-05334
X04572Y-05588
X04572Y-05842
X04572Y-06096
X04572Y-0635
X04572Y-06604
X04572Y-06858
X07874Y-03302
X07874Y-03556
X07874Y-0381
X07874Y-04064
X07874Y-04318
X07874Y-04572
X07874Y-04826
X07874Y-0508
X07874Y-05334
X07874Y-05588
X07874Y-05842
X07874Y-06096
X07874Y-0635
X07874Y-06604
X07874Y-06858
T3
X048Y-076
X077Y-076
T0
M30
